<?xml version="1.0" encoding="UTF-8"?>
<svg width="150px" height="126px" viewBox="0 0 150 126" version="1.1" xmlns="http://www.w3.org/2000/svg" xmlns:xlink="http://www.w3.org/1999/xlink">
    <title>Group</title>
    <defs>
        <rect id="path-1" x="0" y="0" width="144" height="30.343953" rx="15.1719765"></rect>
        <filter x="-3.1%" y="-14.8%" width="106.2%" height="129.7%" filterUnits="objectBoundingBox" id="filter-2">
            <feOffset dx="0" dy="0" in="SourceAlpha" result="shadowOffsetOuter1"></feOffset>
            <feGaussianBlur stdDeviation="1.5" in="shadowOffsetOuter1" result="shadowBlurOuter1"></feGaussianBlur>
            <feColorMatrix values="0 0 0 0 0   0 0 0 0 0.368045807   0 0 0 0 0.361608624  0 0 0 0.5 0" type="matrix" in="shadowBlurOuter1"></feColorMatrix>
        </filter>
    </defs>
    <g id="Spotlight-3---Okt_Dec----HTML-5-banners" stroke="none" stroke-width="1" fill="none" fill-rule="evenodd">
        <g id="160x600px_1" transform="translate(-5.000000, -205.000000)">
            <g id="Group" transform="translate(8.000000, 208.000000)">
                <g id="Group">
                    <g id="Rectangle">
                        <use fill="black" fill-opacity="1" filter="url(#filter-2)" xlink:href="#path-1"></use>
                        <use fill="#F78E1E" fill-rule="evenodd" xlink:href="#path-1"></use>
                    </g>
                    <g id="B" transform="translate(12.200168, 6.553614)" fill="#FFFFFF" fill-rule="nonzero">
                        <path d="M0.48954911,17.5258581 L8.88531635,17.5258581 C12.7527543,17.5258581 15.2739322,15.7145264 15.2739322,12.9240965 C15.2739322,10.7700804 13.9766271,9.15456836 11.8470885,8.71397416 L11.8470885,8.61606434 C13.5360329,8.00412795 14.4416987,6.53548062 14.4416987,4.82205873 C14.4416987,2.15401608 12.1408179,0.391639288 8.56710943,0.391639288 L0.48954911,0.391639288 C0.195819644,0.391639288 0,0.562981477 0,0.856710943 L0,17.0607865 C0,17.3545159 0.195819644,17.5258581 0.48954911,17.5258581 Z M3.84296051,7.51457884 L3.84296051,3.40236631 L8.00412795,3.40236631 C9.83993711,3.40236631 10.7945579,4.18564489 10.7945579,5.28713039 C10.7945579,6.58443553 9.61964001,7.51457884 7.8083083,7.51457884 L3.84296051,7.51457884 Z M3.84296051,14.4906537 L3.84296051,10.3784411 L8.81188398,10.3784411 C10.427396,10.3784411 11.5044041,11.1861972 11.5044041,12.4345474 C11.5044041,13.6828976 10.3294862,14.4906537 8.54263197,14.4906537 L3.84296051,14.4906537 Z" id="Shape"></path>
                        <path d="M31.0129361,3.1331143 L31.0129361,0.856710943 C31.0129361,0.562981477 30.8415939,0.391639288 30.5478645,0.391639288 L18.3825691,0.391639288 C18.0888396,0.391639288 17.89302,0.562981477 17.89302,0.856710943 L17.89302,17.0607865 C17.89302,17.3545159 18.0888396,17.5258581 18.3825691,17.5258581 L30.5478645,17.5258581 C30.8415939,17.5258581 31.0129361,17.3545159 31.0129361,17.0607865 L31.0129361,14.7843831 C31.0129361,14.5151311 30.8415939,14.3437889 30.5478645,14.3437889 L21.7359805,14.3437889 L21.7359805,10.6232157 L29.3974241,10.6232157 C29.6911535,10.6232157 29.8624957,10.4518735 29.8624957,10.158144 L29.8624957,7.90621813 C29.8624957,7.63696612 29.6911535,7.46562393 29.3974241,7.46562393 L21.7359805,7.46562393 L21.7359805,3.5737085 L30.5478645,3.5737085 C30.8415939,3.5737085 31.0129361,3.40236631 31.0129361,3.1331143 Z" id="Path"></path>
                        <path d="M40.8528732,17.89302 C45.1119505,17.89302 47.9513353,15.7879588 47.9513353,12.5814121 C47.9513353,5.70324713 37.8666237,8.93427126 37.8666237,5.06683329 C37.8666237,3.81848306 39.066019,3.03520448 40.7794409,3.03520448 C42.4194304,3.03520448 43.5943482,3.74505069 43.9615101,5.01787838 C44.0838974,5.28713039 44.2307621,5.38504021 44.5000141,5.38504021 L47.4373088,5.38504021 C47.7555157,5.38504021 47.9513353,5.21369802 47.877903,4.91996856 C47.3393989,1.86028662 44.3286719,0 40.5591438,0 C36.4714087,0 33.7054562,2.12953863 33.7054562,5.31160784 C33.7054562,12.4590248 43.8880777,9.15456836 43.8880777,12.899619 C43.8880777,14.0745369 42.7376373,14.8088606 40.9507831,14.8088606 C38.8457219,14.8088606 37.3036422,13.8787173 36.9120029,12.4590248 C36.8140931,12.2142503 36.6672283,12.0673856 36.3979763,12.0673856 L33.4851591,12.0673856 C33.1914297,12.0673856 32.99561,12.2387278 33.0445649,12.5569347 C33.5096366,15.7879588 36.6182734,17.89302 40.8528732,17.89302 Z" id="Path"></path>
                        <path d="M51.3537016,17.5258581 L54.2420414,17.5258581 C54.5357709,17.5258581 54.707113,17.3545159 54.707113,17.0607865 L54.707113,12.630367 L57.8891823,12.630367 C62.1972144,12.630367 65.1100316,10.1336666 65.1100316,6.41309334 C65.1100316,2.81490738 62.2706468,0.391639288 58.0605244,0.391639288 L51.3537016,0.391639288 C51.0599722,0.391639288 50.8641525,0.562981477 50.8641525,0.856710943 L50.8641525,17.0607865 C50.8641525,17.3545159 51.0599722,17.5258581 51.3537016,17.5258581 Z M54.707113,9.44829782 L54.707113,3.59818596 L57.6933626,3.59818596 C59.7984238,3.59818596 61.2670711,4.74862637 61.2670711,6.41309334 C61.2670711,8.19994759 59.7984238,9.44829782 57.6933626,9.44829782 L54.707113,9.44829782 Z" id="Shape"></path>
                        <path d="M66.4073368,17.5258581 L69.5404511,17.5258581 C69.7852256,17.5258581 69.9810453,17.4279483 70.0789551,17.1831738 L71.4007377,14.025582 L79.1111362,14.025582 L80.4573962,17.1831738 C80.5553061,17.4279483 80.7266482,17.5258581 80.9959002,17.5258581 L84.1045371,17.5258581 C84.422744,17.5258581 84.5940862,17.305561 84.4472215,16.9873541 L77.2263721,0.734323665 C77.1284623,0.48954911 76.9571201,0.391639288 76.6878681,0.391639288 L73.8240058,0.391639288 C73.5792312,0.391639288 73.407889,0.514026566 73.3099792,0.734323665 L66.0401749,16.9873541 C65.9177877,17.305561 66.0646524,17.5258581 66.4073368,17.5258581 Z M72.6980428,10.8679902 L75.2436982,4.77310382 L77.8383085,10.8679902 L72.6980428,10.8679902 Z" id="Shape"></path>
                        <path d="M85.6466168,17.5258581 L88.7797311,17.5258581 C89.0245057,17.5258581 89.2203253,17.4279483 89.3182351,17.1831738 L90.6400177,14.025582 L98.3504162,14.025582 L99.6966763,17.1831738 C99.7945861,17.4279483 99.9659283,17.5258581 100.23518,17.5258581 L103.343817,17.5258581 C103.662024,17.5258581 103.833366,17.305561 103.686501,16.9873541 L96.4656521,0.734323665 C96.3677423,0.48954911 96.1964001,0.391639288 95.9271481,0.391639288 L93.0632858,0.391639288 C92.8185113,0.391639288 92.6471691,0.514026566 92.5492592,0.734323665 L85.279455,16.9873541 C85.1570677,17.305561 85.3039324,17.5258581 85.6466168,17.5258581 Z M91.9373229,10.8679902 L94.4829782,4.77310382 L97.0775885,10.8679902 L91.9373229,10.8679902 Z" id="Shape"></path>
                        <path d="M121.21236,16.9873541 L116.68403,11.4064943 C118.960434,10.5742608 120.306694,8.83636144 120.306694,6.16831879 C120.306694,2.59461028 117.589696,0.391639288 113.355096,0.391639288 L106.207679,0.391639288 C105.91395,0.391639288 105.71813,0.562981477 105.71813,0.856710943 L105.71813,17.0607865 C105.71813,17.3545159 105.91395,17.5258581 106.207679,17.5258581 L109.096019,17.5258581 C109.389749,17.5258581 109.561091,17.3545159 109.561091,17.0607865 L109.561091,11.9694757 L112.620773,11.9694757 L116.830895,17.2321287 C116.97776,17.4279483 117.149102,17.5258581 117.393877,17.5258581 L120.91863,17.5258581 C121.310269,17.5258581 121.432657,17.2810836 121.21236,16.9873541 Z M109.561091,3.59818596 L113.012412,3.59818596 C115.092996,3.59818596 116.488211,4.57728418 116.488211,6.16831879 C116.488211,7.8083083 115.019563,8.73845161 112.816592,8.73845161 L109.561091,8.73845161 L109.561091,3.59818596 Z" id="Shape"></path>
                    </g>
                </g>
                <g id="tot-maar-liefst-€-30" transform="translate(12.535598, 43.554726)" fill="#FFFFFF" fill-rule="nonzero">
                    <path d="M7.88174067,15.8369137 C8.64054179,15.8369137 9.76650474,15.690049 10.745603,15.4452744 C11.0393324,15.3473646 11.1372423,15.1760224 11.1127648,14.9067704 L10.7945579,12.8017092 C10.745603,12.5324572 10.5497833,12.3855925 10.2560539,12.4345474 C9.66859492,12.5814121 8.95874871,12.6548445 8.42024469,12.6548445 C7.19637192,12.6548445 6.38861589,11.8960434 6.38861589,10.6476931 L6.38861589,6.53548062 L10.2315764,6.53548062 C10.5008284,6.53548062 10.6966481,6.36413843 10.6966481,6.07040896 L10.6966481,4.03878016 C10.6966481,3.74505069 10.5008284,3.5737085 10.2315764,3.5737085 L6.38861589,3.5737085 L6.38861589,0.465071655 C6.38861589,0.171342189 6.2172737,0 5.92354423,0 L3.18206922,0 C2.88833975,0 2.71699756,0.171342189 2.71699756,0.465071655 L2.71699756,3.5737085 L0.465071655,3.5737085 C0.171342189,3.5737085 0,3.74505069 0,4.03878016 L0,6.07040896 C0,6.36413843 0.171342189,6.53548062 0.465071655,6.53548062 L2.71699756,6.53548062 L2.71699756,10.7700804 C2.71699756,13.9031947 4.69967146,15.8369137 7.88174067,15.8369137 Z" id="Path"></path>
                    <path d="M19.4350997,15.8369137 C23.4738798,15.8369137 26.1663999,13.3157358 26.1663999,9.52173019 C26.1663999,5.70324713 23.4738798,3.18206922 19.4350997,3.18206922 C15.3963195,3.18206922 12.7037994,5.70324713 12.7037994,9.52173019 C12.7037994,13.3157358 15.3963195,15.8369137 19.4350997,15.8369137 Z M19.4350997,12.8017092 C17.5013807,12.8017092 16.2040755,11.5044041 16.2040755,9.52173019 C16.2040755,7.53905629 17.5013807,6.2172737 19.4350997,6.2172737 C21.3688187,6.2172737 22.6661238,7.53905629 22.6661238,9.52173019 C22.6661238,11.5044041 21.3688187,12.8017092 19.4350997,12.8017092 Z" id="Shape"></path>
                    <path d="M35.1251486,15.8369137 C35.8839498,15.8369137 37.0099127,15.690049 37.9890109,15.4452744 C38.2827404,15.3473646 38.3806502,15.1760224 38.3561728,14.9067704 L38.0379658,12.8017092 C37.9890109,12.5324572 37.7931913,12.3855925 37.4994618,12.4345474 C36.9120029,12.5814121 36.2021567,12.6548445 35.6636527,12.6548445 C34.4397799,12.6548445 33.6320239,11.8960434 33.6320239,10.6476931 L33.6320239,6.53548062 L37.4749844,6.53548062 C37.7442364,6.53548062 37.940056,6.36413843 37.940056,6.07040896 L37.940056,4.03878016 C37.940056,3.74505069 37.7442364,3.5737085 37.4749844,3.5737085 L33.6320239,3.5737085 L33.6320239,0.465071655 C33.6320239,0.171342189 33.4606817,0 33.1669522,0 L30.4254772,0 C30.1317477,0 29.9604055,0.171342189 29.9604055,0.465071655 L29.9604055,3.5737085 L27.7084796,3.5737085 C27.4147502,3.5737085 27.243408,3.74505069 27.243408,4.03878016 L27.243408,6.07040896 C27.243408,6.36413843 27.4147502,6.53548062 27.7084796,6.53548062 L29.9604055,6.53548062 L29.9604055,10.7700804 C29.9604055,13.9031947 31.9430794,15.8369137 35.1251486,15.8369137 Z" id="Path"></path>
                    <path d="M63.1763126,3.18206922 C61.3649809,3.18206922 59.8473787,3.81848306 58.8927579,4.91996856 C58.0115695,3.81848306 56.6897869,3.18206922 55.02532,3.18206922 C53.2874206,3.18206922 51.8187733,3.72057324 50.8641525,4.675194 C50.3746034,3.74505069 49.3465503,3.18206922 47.9758128,3.18206922 C47.4128313,3.18206922 46.7764175,3.25550158 46.213436,3.47579868 C45.944184,3.5737085 45.8462742,3.72057324 45.8462742,4.0143027 L45.8462742,6.02145405 C45.8462742,6.33966097 46.0665713,6.41309334 46.3847782,6.41309334 C46.5316429,6.38861589 46.7764175,6.33966097 46.9232822,6.33966097 C47.6086509,6.33966097 47.877903,6.63339044 47.877903,7.29428174 L47.877903,14.9802028 C47.877903,15.2739322 48.0492451,15.4452744 48.3429746,15.4452744 L51.0844496,15.4452744 C51.3781791,15.4452744 51.5495213,15.2739322 51.5495213,14.9802028 L51.5495213,8.95874871 C51.5495213,7.34323665 52.5286195,6.31518352 54.0217443,6.31518352 C55.4414367,6.31518352 56.3471026,7.41666902 56.3471026,9.08113599 L56.3471026,14.9802028 C56.3471026,15.2739322 56.5429222,15.4452744 56.8121742,15.4452744 L59.5781267,15.4452744 C59.8473787,15.4452744 60.0431983,15.2739322 60.0431983,14.9802028 L60.0431983,8.95874871 C60.0431983,7.34323665 60.9243867,6.31518352 62.2706468,6.31518352 C63.8127265,6.31518352 64.7918247,7.41666902 64.7918247,9.08113599 L64.7918247,14.9802028 C64.7918247,15.2739322 64.9876444,15.4452744 65.2568964,15.4452744 L67.9983714,15.4452744 C68.2921008,15.4452744 68.4879205,15.2739322 68.4879205,14.9802028 L68.4879205,8.59158688 C68.4879205,5.3360853 66.3583819,3.18206922 63.1763126,3.18206922 Z" id="Path"></path>
                    <path d="M86.625715,15.0291577 L86.3809405,12.9975289 C86.356463,12.6793219 86.1606434,12.5814121 85.8669139,12.6058896 C85.548707,12.6793219 85.3528873,12.6793219 85.1081128,12.6793219 C84.5940862,12.6793219 84.3003567,12.361115 84.3003567,11.7247012 L84.3003567,4.03878016 C84.3003567,3.74505069 84.1290146,3.5737085 83.8352851,3.5737085 L81.142765,3.5737085 C80.8490355,3.5737085 80.6776933,3.74505069 80.6776933,4.03878016 L80.6776933,4.30803217 C79.6985951,3.54923105 78.4991998,3.18206922 77.2018946,3.18206922 C73.407889,3.18206922 70.7643239,5.7766795 70.7643239,9.52173019 C70.7643239,13.2423034 73.407889,15.8369137 77.2018946,15.8369137 C78.7929293,15.8369137 80.1636668,15.3473646 81.3141072,14.3437889 C81.8281337,15.2739322 82.9051418,15.8369137 84.3982666,15.8369137 C84.9857255,15.8369137 85.5731844,15.7390039 86.2340757,15.5431842 C86.5278052,15.4697519 86.6501925,15.2984097 86.625715,15.0291577 Z M77.5201016,12.9730514 C75.659815,12.9730514 74.3625098,11.553359 74.3625098,9.52173019 C74.3625098,7.46562393 75.659815,6.04593151 77.5201016,6.04593151 C79.3559107,6.04593151 80.604261,7.46562393 80.604261,9.52173019 C80.604261,11.553359 79.3559107,12.9730514 77.5201016,12.9730514 Z" id="Shape"></path>
                    <path d="M104.053663,15.0291577 L103.808889,12.9975289 C103.784411,12.6793219 103.588592,12.5814121 103.294862,12.6058896 C102.976655,12.6793219 102.780836,12.6793219 102.536061,12.6793219 C102.022035,12.6793219 101.728305,12.361115 101.728305,11.7247012 L101.728305,4.03878016 C101.728305,3.74505069 101.556963,3.5737085 101.263233,3.5737085 L98.5707133,3.5737085 C98.2769838,3.5737085 98.1056416,3.74505069 98.1056416,4.03878016 L98.1056416,4.30803217 C97.1265434,3.54923105 95.9271481,3.18206922 94.629843,3.18206922 C90.8358374,3.18206922 88.1922722,5.7766795 88.1922722,9.52173019 C88.1922722,13.2423034 90.8358374,15.8369137 94.629843,15.8369137 C96.2208776,15.8369137 97.5916151,15.3473646 98.7420555,14.3437889 C99.2560821,15.2739322 100.33309,15.8369137 101.826215,15.8369137 C102.413674,15.8369137 103.001133,15.7390039 103.662024,15.5431842 C103.955754,15.4697519 104.078141,15.2984097 104.053663,15.0291577 Z M94.9480499,12.9730514 C93.0877633,12.9730514 91.7904581,11.553359 91.7904581,9.52173019 C91.7904581,7.46562393 93.0877633,6.04593151 94.9480499,6.04593151 C96.783859,6.04593151 98.0322093,7.46562393 98.0322093,9.52173019 C98.0322093,11.553359 96.783859,12.9730514 94.9480499,12.9730514 Z" id="Shape"></path>
                    <path d="M116.047617,3.40236631 C115.607022,3.25550158 114.946131,3.18206922 114.358672,3.18206922 C112.74316,3.18206922 111.347945,3.76952815 110.368847,4.84653619 C109.903775,3.81848306 108.826767,3.18206922 107.407075,3.18206922 C106.844093,3.18206922 106.207679,3.27997904 105.644698,3.47579868 C105.375446,3.5737085 105.277536,3.72057324 105.277536,4.0143027 L105.277536,6.02145405 C105.277536,6.33966097 105.497833,6.41309334 105.81604,6.41309334 C105.962905,6.38861589 106.207679,6.33966097 106.354544,6.33966097 C107.039913,6.33966097 107.309165,6.63339044 107.309165,7.29428174 L107.309165,14.9802028 C107.309165,15.2739322 107.480507,15.4452744 107.774237,15.4452744 L110.515712,15.4452744 C110.809441,15.4452744 110.980783,15.2739322 110.980783,14.9802028 L110.980783,9.71754983 C110.980783,7.71039848 112.351521,6.53548062 114.211807,6.53548062 C114.676879,6.53548062 115.190906,6.58443553 115.558067,6.6578679 C115.851797,6.70682281 116.047617,6.58443553 116.096571,6.29070606 L116.414778,3.94087034 C116.439256,3.67161833 116.341346,3.47579868 116.047617,3.40236631 Z" id="Path"></path>
                    <path d="M30.4989096,45.8369137 C31.0863685,45.8369137 31.6983049,45.7390039 32.3591962,45.5431842 C32.6529256,45.4697519 32.7753129,45.2984097 32.7508355,45.0291577 L32.5060609,42.9975289 C32.4815834,42.6793219 32.2857638,42.5814121 31.9920343,42.6058896 C31.6738274,42.6793219 31.4780078,42.6793219 31.2577107,42.6793219 C30.7192067,42.6793219 30.4254772,42.361115 30.4254772,41.7491786 L30.4254772,27.797029 C30.4254772,27.5032995 30.254135,27.3319574 29.9604055,27.3319574 L27.2189305,27.3319574 C26.9252011,27.3319574 26.7538589,27.5032995 26.7538589,27.797029 L26.7538589,42.9240965 C26.7538589,44.7109508 28.2225062,45.8369137 30.4989096,45.8369137 Z" id="Path"></path>
                    <path d="M36.7406607,31.395215 C37.9645335,31.395215 38.9191542,30.5140266 38.9191542,29.3635862 C38.9191542,28.2131457 37.9645335,27.3564348 36.7406607,27.3564348 C35.5167879,27.3564348 34.5621672,28.2131457 34.5621672,29.3635862 C34.5621672,30.5140266 35.5167879,31.395215 36.7406607,31.395215 Z M35.3699232,45.4452744 L38.1113982,45.4452744 C38.4051277,45.4452744 38.5764699,45.2739322 38.5764699,44.9802028 L38.5764699,34.0387802 C38.5764699,33.7450507 38.4051277,33.5737085 38.1113982,33.5737085 L35.3699232,33.5737085 C35.0761937,33.5737085 34.9048515,33.7450507 34.9048515,34.0387802 L34.9048515,44.9802028 C34.9048515,45.2739322 35.0761937,45.4452744 35.3699232,45.4452744 Z" id="Shape"></path>
                    <path d="M47.828948,45.8369137 C50.5949005,45.8369137 52.7978715,44.5885635 53.630105,42.5569347 C53.7524923,42.2632052 53.5811501,42.0673856 53.2384657,42.0673856 L50.4969907,42.0673856 C50.2522161,42.0673856 50.1053514,42.1652954 49.9095318,42.3121601 C49.493415,42.7772318 48.7590914,43.0464838 47.9023804,43.0464838 C46.2868684,43.0464838 45.0629956,42.1408179 44.6713563,40.6721706 L53.4587628,40.6721706 C53.7280148,40.6721706 53.9238345,40.5497833 53.9727894,40.2560539 C53.9727894,39.9868018 53.9972668,39.6930724 53.9972668,39.4238204 C53.9972668,35.7032471 51.5739987,33.1820692 47.6086509,33.1820692 C43.7167355,33.1820692 41.0976478,35.7032471 41.0976478,39.5217302 C41.0976478,43.3157358 43.8146453,45.8369137 47.828948,45.8369137 Z M44.6468788,38.4936771 C44.8671759,36.9515974 46.0910487,35.8990668 47.7065608,35.8990668 C49.3465503,35.8990668 50.4235583,36.9760748 50.4969907,38.4936771 L44.6468788,38.4936771 Z" id="Shape"></path>
                    <path d="M58.6969383,45.4452744 L61.4628908,45.4452744 C61.7321428,45.4452744 61.9279624,45.2739322 61.9279624,44.9802028 L61.9279624,36.5354806 L66.0156975,36.5354806 C66.2849495,36.5354806 66.4807691,36.3641384 66.4807691,36.070409 L66.4807691,34.0387802 C66.4807691,33.7450507 66.2849495,33.5737085 66.0156975,33.5737085 L61.9279624,33.5737085 L61.9279624,32.1540161 C61.9279624,30.8567109 62.8825832,30.0489549 64.3022756,30.0489549 C64.8407796,30.0489549 65.6485357,30.1468647 66.1870397,30.2937295 C66.4807691,30.3671618 66.6765888,30.1958196 66.7255437,29.9020902 L67.0437506,27.8704614 C67.0927055,27.5767319 66.9703182,27.4298672 66.7010662,27.3564348 C65.7709229,27.0627053 64.5470502,26.9403181 63.7148167,26.9403181 C60.3369278,26.9403181 58.2318666,28.9474694 58.2318666,32.1540161 L58.2318666,33.5737085 L55.5393465,33.5737085 C55.2456171,33.5737085 55.0742749,33.7450507 55.0742749,34.0387802 L55.0742749,36.070409 C55.0742749,36.3641384 55.2456171,36.5354806 55.5393465,36.5354806 L58.2318666,36.5354806 L58.2318666,44.9802028 C58.2318666,45.2739322 58.4276863,45.4452744 58.6969383,45.4452744 Z" id="Path"></path>
                    <path d="M73.2610243,45.8369137 C76.736823,45.8369137 78.9153165,44.3437889 78.9153165,41.9449983 C78.9153165,36.878165 71.204918,39.1790458 71.204918,36.7313003 C71.204918,36.0948864 71.9881966,35.7032471 73.1141596,35.7032471 C74.1666902,35.7032471 75.072356,36.1683188 75.3660855,36.9026425 C75.4639953,37.0739846 75.5863826,37.1963719 75.8556346,37.1963719 L78.2789027,37.1963719 C78.5726322,37.1963719 78.7684518,37.0250297 78.7194969,36.7068228 C78.3768125,34.5772842 76.1248866,33.1820692 73.0652047,33.1820692 C69.8097031,33.1820692 67.6312095,34.7241489 67.6312095,37.0250297 C67.6312095,42.1408179 75.2681757,39.7909822 75.2681757,42.1163405 C75.2681757,42.7527543 74.4604196,43.1933485 73.2610243,43.1933485 C71.8413319,43.1933485 70.9111886,42.7037994 70.5929817,41.8715659 C70.4461169,41.6512688 70.3482071,41.5288815 70.0544776,41.5288815 L67.655687,41.5044041 C67.3374801,41.5044041 67.1416604,41.6757463 67.1906153,41.9939532 C67.5577772,44.3927438 69.8341805,45.8369137 73.2610243,45.8369137 Z" id="Path"></path>
                    <path d="M87.8495878,45.8369137 C88.6083889,45.8369137 89.7343519,45.690049 90.7134501,45.4452744 C91.0071795,45.3473646 91.1050894,45.1760224 91.0806119,44.9067704 L90.762405,42.8017092 C90.7134501,42.5324572 90.5176304,42.3855925 90.223901,42.4345474 C89.636442,42.5814121 88.9265958,42.6548445 88.3880918,42.6548445 C87.164219,42.6548445 86.356463,41.8960434 86.356463,40.6476931 L86.356463,36.5354806 L90.1994235,36.5354806 C90.4686755,36.5354806 90.6644952,36.3641384 90.6644952,36.070409 L90.6644952,34.0387802 C90.6644952,33.7450507 90.4686755,33.5737085 90.1994235,33.5737085 L86.356463,33.5737085 L86.356463,30.4650717 C86.356463,30.1713422 86.1851208,30 85.8913913,30 L83.1499163,30 C82.8561869,30 82.6848447,30.1713422 82.6848447,30.4650717 L82.6848447,33.5737085 L80.4329188,33.5737085 C80.1391893,33.5737085 79.9678471,33.7450507 79.9678471,34.0387802 L79.9678471,36.070409 C79.9678471,36.3641384 80.1391893,36.5354806 80.4329188,36.5354806 L82.6848447,36.5354806 L82.6848447,40.7700804 C82.6848447,43.9031947 84.6675186,45.8369137 87.8495878,45.8369137 Z" id="Path"></path>
                    <path d="M30.6702517,68.7384516 L27.6350473,68.7384516 C27.3902727,68.7384516 27.2189305,68.8853163 27.1210207,69.1545684 C26.4601294,71.2106746 24.6977526,72.4100699 22.4213492,72.4100699 C20.1939008,72.4100699 18.4804789,71.3575394 17.623768,69.61964 L22.2744845,69.61964 C22.5437365,69.61964 22.7150787,69.4972527 22.7640336,69.2280007 L23.0822405,68.1265152 C23.1556729,67.8083083 23.0088082,67.6124887 22.6906012,67.6124887 L17.0852639,67.6124887 C17.0607865,67.3677141 17.036309,67.1229396 17.036309,66.8536875 C17.036309,66.608913 17.0607865,66.3641384 17.0852639,66.1193639 L23.1801504,66.1193639 C23.4494024,66.1193639 23.645222,65.9969766 23.6941769,65.7277246 L23.9879064,64.6507165 C24.0858162,64.3325096 23.9389515,64.13669 23.6207446,64.13669 L17.623768,64.13669 C18.4560014,62.3987906 20.1939008,61.3217826 22.4213492,61.3217826 C24.7222301,61.3217826 26.3622196,62.5456554 27.1210207,64.6017616 C27.2189305,64.8710136 27.3902727,64.9934009 27.6350473,64.9934009 L30.6702517,64.9934009 C30.9884587,64.9934009 31.1598009,64.7975813 31.1108459,64.5038518 C30.3520448,60.4650717 26.9007236,57.9194163 22.3968718,57.9194163 C17.8195876,57.9194163 14.5151311,60.3182069 13.4626005,64.13669 L11.6512688,64.13669 C11.3820168,64.13669 11.1861972,64.3080322 11.1861972,64.5772842 L11.1861972,65.6787697 C11.1861972,65.9480217 11.3820168,66.1193639 11.6512688,66.1193639 L13.1443936,66.1193639 C13.1199161,66.3641384 13.1199161,66.608913 13.1199161,66.8536875 C13.1199161,67.1229396 13.1199161,67.3677141 13.1443936,67.6124887 L11.6512688,67.6124887 C11.3820168,67.6124887 11.1861972,67.8083083 11.1861972,68.0775603 L11.1861972,69.1545684 C11.1861972,69.4482978 11.3820168,69.61964 11.6512688,69.61964 L13.487078,69.61964 C14.5396086,73.4381231 17.8440651,75.8124363 22.3968718,75.8124363 C26.9007236,75.8124363 30.3520448,73.2912583 31.1108459,69.2280007 C31.1598009,68.9342713 30.9884587,68.7384516 30.6702517,68.7384516 Z" id="Path"></path>
                    <path d="M45.9686614,75.8369137 C49.8116219,75.8369137 52.3817548,73.7808074 52.3817548,70.6966481 C52.3817548,68.9587487 51.5495213,67.5390563 50.031919,66.7557777 C51.2313144,65.9724991 51.8677282,64.6262391 51.8677282,62.9617721 C51.8677282,59.9265676 49.493415,57.9194163 45.9197065,57.9194163 C42.5418177,57.9194163 40.143027,59.7062705 39.7513877,62.472223 C39.6779554,62.7904299 39.873775,62.9617721 40.1919819,62.9617721 L42.884502,62.9617721 C43.153754,62.9617721 43.3006188,62.8149074 43.3740511,62.5456554 C43.6677806,61.5176022 44.6224014,60.8567109 45.9197065,60.8567109 C47.4128313,60.8567109 48.416407,61.7378993 48.416407,63.0841594 C48.416407,64.6262391 47.4128313,65.5319049 45.8462742,65.5319049 L44.4021043,65.5319049 C44.1083748,65.5319049 43.9370326,65.7032471 43.9370326,65.9969766 L43.9370326,67.7838308 C43.9370326,68.0530829 44.1083748,68.2489025 44.4021043,68.2489025 L45.8217967,68.2489025 C47.6820833,68.2489025 48.8325237,69.1545684 48.8325237,70.6721706 C48.8325237,72.0184307 47.6820833,72.899619 45.944184,72.899619 C44.5244916,72.899619 43.4230061,72.2387278 43.0313668,71.1617197 C42.9334569,70.8924677 42.7865922,70.7700804 42.5173402,70.7700804 L39.8003426,70.7700804 C39.5066132,70.7700804 39.3107935,70.9414226 39.3597484,71.2596295 C39.8248201,74.025582 42.3949529,75.8369137 45.9686614,75.8369137 Z" id="Path"></path>
                    <path d="M61.6587104,57.9194163 C57.2527684,57.9194163 54.3399512,60.6608913 54.3399512,64.7975813 L54.3399512,68.9587487 C54.3399512,73.0954387 57.2527684,75.8369137 61.6587104,75.8369137 C66.0401749,75.8369137 68.9774696,73.0954387 68.9774696,68.9587487 L68.9774696,64.7975813 C68.9774696,60.6608913 66.0401749,57.9194163 61.6587104,57.9194163 Z M65.3058513,68.9587487 C65.3058513,71.1861972 63.8372039,72.6793219 61.6587104,72.6793219 C59.4557394,72.6793219 57.9870921,71.1861972 57.9870921,68.9587487 L57.9870921,64.7975813 C57.9870921,62.5701328 59.4557394,61.077008 61.6587104,61.077008 C63.8372039,61.077008 65.3058513,62.5701328 65.3058513,64.7975813 L65.3058513,68.9587487 Z" id="Shape"></path>
                    <path d="M78.6215871,57.9194163 C74.2156451,57.9194163 71.3028279,60.6608913 71.3028279,64.7975813 L71.3028279,68.9587487 C71.3028279,73.0954387 74.2156451,75.8369137 78.6215871,75.8369137 C83.0030516,75.8369137 85.9403463,73.0954387 85.9403463,68.9587487 L85.9403463,64.7975813 C85.9403463,60.6608913 83.0030516,57.9194163 78.6215871,57.9194163 Z M82.2687279,68.9587487 C82.2687279,71.1861972 80.8000806,72.6793219 78.6215871,72.6793219 C76.4186161,72.6793219 74.9499687,71.1861972 74.9499687,68.9587487 L74.9499687,64.7975813 C74.9499687,62.5701328 76.4186161,61.077008 78.6215871,61.077008 C80.8000806,61.077008 82.2687279,62.5701328 82.2687279,64.7975813 L82.2687279,68.9587487 Z" id="Shape"></path>
                    <path d="M89.954649,72.0673856 C88.8042086,72.0673856 87.8495878,72.899619 87.8495878,73.9521496 C87.8495878,74.7109508 88.3636144,75.3228871 89.0734606,75.5921392 L88.02093,77.9664523 C87.8740652,78.3091367 88.02093,78.5049564 88.3636144,78.5049564 L89.4406224,78.5049564 C89.685397,78.5049564 89.8812166,78.431524 90.0036039,78.2112269 L91.4722512,75.5431842 C91.8149356,74.9557253 92.0597101,74.4661762 92.0597101,73.9521496 C92.0597101,72.899619 91.1050894,72.0673856 89.954649,72.0673856 Z" id="Path"></path>
                    <path d="M95.5844637,70.7211255 L103.882321,70.7211255 C104.151573,70.7211255 104.347393,70.5497833 104.347393,70.2805313 L104.347393,67.8572632 C104.347393,67.5635337 104.151573,67.3921916 103.882321,67.3921916 L95.5844637,67.3921916 C95.3152117,67.3921916 95.1438695,67.5635337 95.1438695,67.8572632 L95.1438695,70.2805313 C95.1438695,70.5497833 95.3152117,70.7211255 95.5844637,70.7211255 Z" id="Path"></path>
                </g>
            </g>
        </g>
    </g>
</svg>