<?xml version="1.0" encoding="UTF-8"?>
<svg width="124px" height="64px" viewBox="0 0 124 64" version="1.1" xmlns="http://www.w3.org/2000/svg" xmlns:xlink="http://www.w3.org/1999/xlink">
    <title>in 2023 met de Omrin</title>
    <g id="Spotlight-3---Okt_Dec----HTML-5-banners" stroke="none" stroke-width="1" fill="none" fill-rule="evenodd">
        <g id="160x600px_1" transform="translate(-17.000000, -368.000000)" fill="#FFFFFF" fill-rule="nonzero">
            <g id="in-2023-met-de-Omrin" transform="translate(17.224717, 368.414501)">
                <path d="M25.4898012,2.99880014 C26.3680213,2.99880014 27.1177213,2.33478011 27.1177213,1.49940007 C27.1177213,0.664020032 26.3680213,0 25.4898012,0 C24.5901612,0 23.8618811,0.664020032 23.8618811,1.49940007 C23.8618811,2.33478011 24.5901612,2.99880014 25.4898012,2.99880014 Z M24.5044812,15.5295007 L26.4751213,15.5295007 C26.6679013,15.5295007 26.7964213,15.4009807 26.7964213,15.2082007 L26.7964213,5.56920027 C26.7964213,5.37642026 26.6679013,5.24790025 26.4751213,5.24790025 L24.5044812,5.24790025 C24.3117012,5.24790025 24.1831812,5.37642026 24.1831812,5.56920027 L24.1831812,15.2082007 C24.1831812,15.4009807 24.3117012,15.5295007 24.5044812,15.5295007 Z" id="Shape"></path>
                <path d="M36.7781418,4.92660024 C35.1716417,4.92660024 33.8436016,5.41926026 32.9439616,6.2760603 C32.5369816,5.44068026 31.6587615,4.92660024 30.5020815,4.92660024 C30.0951014,4.92660024 29.6024414,4.99086024 29.1954614,5.14080025 C29.0026814,5.20506025 28.9384214,5.33358026 28.9384214,5.52636027 L28.9384214,7.02576034 C28.9384214,7.23996035 29.1097814,7.30422035 29.3239814,7.28280035 C29.4739214,7.26138035 29.7738014,7.21854035 29.9237414,7.21854035 C30.5449215,7.21854035 30.8233815,7.47558036 30.8233815,8.01108039 L30.8233815,15.2082007 C30.8233815,15.4009807 30.9519015,15.5295007 31.1446815,15.5295007 L33.1153216,15.5295007 C33.3081016,15.5295007 33.4366216,15.4009807 33.4366216,15.2082007 L33.4366216,9.78894047 C33.4366216,8.2252804 34.5718817,7.17570035 36.2212217,7.17570035 C37.8063018,7.17570035 38.8558819,8.2895404 38.8558819,9.93888048 L38.8558819,15.2082007 C38.8558819,15.4009807 38.9844019,15.5295007 39.1771819,15.5295007 L41.147822,15.5295007 C41.340602,15.5295007 41.469122,15.4009807 41.469122,15.2082007 L41.469122,9.78894047 C41.469122,6.87582033 39.5841619,4.92660024 36.7781418,4.92660024 Z" id="Path"></path>
                <path d="M49.8229224,15.5295007 L59.5476029,15.5295007 C59.7403829,15.5295007 59.8689029,15.4009807 59.8689029,15.2082007 L59.8689029,13.7516407 C59.8689029,13.5588607 59.7403829,13.4303406 59.5476029,13.4303406 L53.4214826,13.4303406 L58.0696228,8.09676039 C59.2477228,6.74730032 59.6761229,5.65488027 59.6761229,4.51962022 C59.6761229,1.92780009 57.5555428,0.21420001 54.3639626,0.21420001 C51.3223225,0.21420001 49.2445824,1.90638009 49.0732224,4.51962022 C49.0732224,4.73382023 49.2017424,4.84092023 49.3945224,4.84092023 L51.4722625,4.84092023 C51.6650425,4.84092023 51.7721425,4.73382023 51.8149825,4.54104022 C52.0077625,3.25584016 53.0359226,2.42046012 54.4710626,2.42046012 C55.9704627,2.42046012 56.9557827,3.23442016 56.9557827,4.47678022 C56.9557827,5.37642026 56.5488027,6.1903803 55.8633627,6.96150033 L49.6515624,14.0301007 C49.5444624,14.1372007 49.5016224,14.2871407 49.5016224,14.4370807 L49.5016224,15.2082007 C49.5016224,15.4009807 49.6301424,15.5295007 49.8229224,15.5295007 Z" id="Path"></path>
                <path d="M68.3298033,0.21420001 C64.6027231,0.21420001 62.118003,2.54898012 62.118003,6.06186029 L62.118003,10.0031405 C62.118003,13.5160206 64.6027231,15.8508008 68.3298033,15.8508008 C72.0568835,15.8508008 74.5416036,13.5160206 74.5416036,10.0031405 L74.5416036,6.06186029 C74.5416036,2.54898012 72.0568835,0.21420001 68.3298033,0.21420001 Z M71.8212635,10.0031405 C71.8212635,12.1237206 70.4289634,13.5374407 68.3298033,13.5374407 C66.2306432,13.5374407 64.8383431,12.1237206 64.8383431,10.0031405 L64.8383431,6.06186029 C64.8383431,3.94128019 66.2306432,2.52756012 68.3298033,2.52756012 C70.4289634,2.52756012 71.8212635,3.94128019 71.8212635,6.06186029 L71.8212635,10.0031405 Z" id="Shape"></path>
                <path d="M77.2191037,15.5295007 L86.9437842,15.5295007 C87.1365642,15.5295007 87.2650842,15.4009807 87.2650842,15.2082007 L87.2650842,13.7516407 C87.2650842,13.5588607 87.1365642,13.4303406 86.9437842,13.4303406 L80.8176639,13.4303406 L85.4658041,8.09676039 C86.6439042,6.74730032 87.0723042,5.65488027 87.0723042,4.51962022 C87.0723042,1.92780009 84.9517241,0.21420001 81.7601439,0.21420001 C78.7185038,0.21420001 76.6407637,1.90638009 76.4694037,4.51962022 C76.4694037,4.73382023 76.5979237,4.84092023 76.7907037,4.84092023 L78.8684438,4.84092023 C79.0612238,4.84092023 79.1683238,4.73382023 79.2111638,4.54104022 C79.4039438,3.25584016 80.4321039,2.42046012 81.8672439,2.42046012 C83.366644,2.42046012 84.3519641,3.23442016 84.3519641,4.47678022 C84.3519641,5.37642026 83.944984,6.1903803 83.259544,6.96150033 L77.0477437,14.0301007 C76.9406437,14.1372007 76.8978037,14.2871407 76.8978037,14.4370807 L76.8978037,15.2082007 C76.8978037,15.4009807 77.0263237,15.5295007 77.2191037,15.5295007 Z" id="Path"></path>
                <path d="M94.7620846,15.8508008 C97.9750847,15.8508008 100.117085,14.0943607 100.117085,11.4811206 C100.117085,9.87462047 99.3245448,8.61084041 97.9108247,7.92540038 C99.0246648,7.21854035 99.6030048,6.06186029 99.6030048,4.56246022 C99.6030048,1.94922009 97.6323647,0.21420001 94.6549846,0.21420001 C91.8918044,0.21420001 89.8997443,1.73502008 89.5570243,4.0698002 C89.5141843,4.28400021 89.6427043,4.41252021 89.8569043,4.41252021 L91.8703844,4.41252021 C92.0631644,4.41252021 92.1702644,4.30542021 92.2131044,4.1126402 C92.4701444,3.08448015 93.3912045,2.42046012 94.6549846,2.42046012 C96.0901246,2.42046012 97.0540247,3.27726016 97.0540247,4.58388022 C97.0540247,6.12612029 96.0687046,7.00434034 94.5478845,7.00434034 L93.2412645,7.00434034 C93.0484845,7.00434034 92.9199645,7.13286034 92.9199645,7.32564035 L92.9199645,8.76078042 C92.9199645,8.95356043 93.0484845,9.08208044 93.2412645,9.08208044 L94.5478845,9.08208044 C96.4542646,9.08208044 97.5895247,9.98172048 97.5895247,11.4811206 C97.5895247,12.7877406 96.4542646,13.6659607 94.7620846,13.6659607 C93.3483645,13.6659607 92.2559444,12.9805206 91.8703844,11.9095206 C91.8275444,11.7167406 91.7204444,11.6310606 91.5276644,11.6310606 L89.4927643,11.6310606 C89.2785643,11.6310606 89.1500443,11.7595806 89.1928843,11.9737806 C89.6212843,14.3085607 91.7847044,15.8508008 94.7620846,15.8508008 Z" id="Path"></path>
                <path d="M38.3953518,25.8706024 C36.7460118,25.8706024 35.3965517,26.4489425 34.5183317,27.4342625 C33.7257916,26.4489425 32.5476916,25.8706024 31.0911315,25.8706024 C29.5917314,25.8706024 28.3279514,26.3418425 27.4711513,27.1772225 C27.0641713,26.3632625 26.2073713,25.8706024 25.0506912,25.8706024 C24.6437112,25.8706024 24.1510512,25.9348624 23.7440711,26.0848024 C23.5512911,26.1490624 23.4870311,26.2775825 23.4870311,26.4703625 L23.4870311,27.9697625 C23.4870311,28.1839625 23.6583911,28.2482225 23.8725911,28.2268025 C24.0225312,28.2053825 24.3224112,28.1625425 24.4723512,28.1625425 C25.0935312,28.1625425 25.3719912,28.4195826 25.3719912,28.9550826 L25.3719912,36.1522029 C25.3719912,36.3449829 25.5005112,36.4735029 25.6932912,36.4735029 L27.6639313,36.4735029 C27.8567113,36.4735029 27.9852313,36.3449829 27.9852313,36.1522029 L27.9852313,30.7329427 C27.9852313,29.1692826 29.0133914,28.1197025 30.5342115,28.1197025 C31.9907715,28.1197025 32.9332516,29.2335426 32.9332516,30.8828827 L32.9332516,36.1522029 C32.9332516,36.3449829 33.0617716,36.4735029 33.2545516,36.4735029 L35.2251917,36.4735029 C35.4179717,36.4735029 35.5464917,36.3449829 35.5464917,36.1522029 L35.5464917,30.7329427 C35.5464917,29.1692826 36.4675518,28.1197025 37.8384318,28.1197025 C39.4235119,28.1197025 40.4730919,29.2335426 40.4730919,30.8828827 L40.4730919,36.1522029 C40.4730919,36.3449829 40.601612,36.4735029 40.794392,36.4735029 L42.7650321,36.4735029 C42.9578121,36.4735029 43.0863321,36.3449829 43.0863321,36.1522029 L43.0863321,30.7329427 C43.0863321,27.8198225 41.201372,25.8706024 38.3953518,25.8706024 Z" id="Path"></path>
                <path d="M51.0331525,36.794803 C53.2822526,36.794803 55.1886327,35.7452229 55.9169127,34.1173028 C56.0240127,33.9031028 55.8954927,33.7531628 55.6598727,33.7531628 L53.5392926,33.7531628 C53.3679326,33.7531628 53.2608326,33.8174228 53.1323126,33.9459428 C52.7467525,34.3957628 51.9756325,34.6956429 51.0974125,34.6956429 C49.5551724,34.6956429 48.3556523,33.7960028 47.9700923,32.3822827 L55.8740727,32.3822827 C56.0668527,32.3822827 56.1953727,32.2966027 56.2382127,32.1038227 C56.2596327,31.8253627 56.2810527,31.5254827 56.2810527,31.2470227 C56.2810527,28.0126025 54.1176326,25.8706024 50.8832124,25.8706024 C47.5631123,25.8706024 45.3354322,28.0554425 45.3354322,31.3327027 C45.3354322,34.6099629 47.6273723,36.794803 51.0331525,36.794803 Z M47.9058323,30.5401627 C48.1200323,28.9979226 49.3409724,27.9697625 50.9474724,27.9697625 C52.5539725,27.9697625 53.5821326,29.0407626 53.6249726,30.5401627 L47.9058323,30.5401627 Z" id="Shape"></path>
                <path d="M63.9708331,36.794803 C64.5920131,36.794803 65.5130732,36.666283 66.3484532,36.4520829 C66.5412332,36.3878229 66.6269132,36.2593029 66.6054932,36.0665229 L66.3484532,34.5671229 C66.3056132,34.3743428 66.1770932,34.2672428 65.9628932,34.3100828 C65.4273931,34.4386028 64.7847931,34.5028628 64.2707131,34.5028628 C63.156873,34.5028628 62.428593,33.7317428 62.428593,32.5750628 L62.428593,28.2696425 L66.0699932,28.2696425 C66.2627732,28.2696425 66.3912932,28.1411225 66.3912932,27.9483425 L66.3912932,26.5132025 C66.3912932,26.3204225 66.2627732,26.1919024 66.0699932,26.1919024 L62.428593,26.1919024 L62.428593,23.3430423 C62.428593,23.1502623 62.300073,23.0217423 62.107293,23.0217423 L60.1366529,23.0217423 C59.9438729,23.0217423 59.8153529,23.1502623 59.8153529,23.3430423 L59.8153529,26.1919024 L57.6733528,26.1919024 C57.4805728,26.1919024 57.3520528,26.3204225 57.3520528,26.5132025 L57.3520528,27.9483425 C57.3520528,28.1411225 57.4805728,28.2696425 57.6733528,28.2696425 L59.8153529,28.2696425 L59.8153529,32.6607428 C59.8153529,35.1454629 61.486113,36.794803 63.9708331,36.794803 Z" id="Path"></path>
                <path d="M87.1901142,36.1522029 L87.0187542,34.6742229 C86.9973342,34.4600228 86.8473942,34.3743428 86.6331942,34.4171828 C86.2904741,34.4814428 86.0976941,34.5028628 85.8406541,34.5028628 C85.3908341,34.5028628 85.0909541,34.1815628 85.0909541,33.7103228 L85.0909541,20.9440022 C85.0909541,20.7512222 84.9624341,20.6227022 84.7696541,20.6227022 L82.777594,20.6227022 C82.584814,20.6227022 82.456294,20.7512222 82.456294,20.9440022 L82.456294,26.7916625 C81.5352339,26.1490624 80.5070739,25.8706024 79.4574938,25.8706024 C76.1373937,25.8706024 73.7811935,28.1411225 73.7811935,31.3327027 C73.7811935,34.5242829 76.1373937,36.794803 79.4574938,36.794803 C80.8283739,36.794803 81.9422139,36.3878229 82.991794,35.4667629 C83.398774,36.3021429 84.2984141,36.794803 85.4765141,36.794803 C85.9477541,36.794803 86.3975742,36.709123 86.9330742,36.5377629 C87.1258542,36.4735029 87.2115342,36.3449829 87.1901142,36.1522029 Z M79.4789138,34.6528029 C77.6796337,34.6528029 76.3944337,33.2819228 76.3944337,31.3327027 C76.3944337,29.3834826 77.6796337,28.0126025 79.4789138,28.0126025 C81.2353539,28.0126025 82.477714,29.3834826 82.477714,31.3327027 C82.477714,33.2819228 81.2353539,34.6528029 79.4789138,34.6528029 Z" id="Shape"></path>
                <path d="M94.4943345,36.794803 C96.7434347,36.794803 98.6498147,35.7452229 99.3780948,34.1173028 C99.4851948,33.9031028 99.3566748,33.7531628 99.1210548,33.7531628 L97.0004747,33.7531628 C96.8291147,33.7531628 96.7220147,33.8174228 96.5934946,33.9459428 C96.2079346,34.3957628 95.4368146,34.6956429 94.5585945,34.6956429 C93.0163545,34.6956429 91.8168344,33.7960028 91.4312744,32.3822827 L99.3352548,32.3822827 C99.5280348,32.3822827 99.6565548,32.2966027 99.6993948,32.1038227 C99.7208148,31.8253627 99.7422348,31.5254827 99.7422348,31.2470227 C99.7422348,28.0126025 97.5788147,25.8706024 94.3443945,25.8706024 C91.0242944,25.8706024 88.7966143,28.0554425 88.7966143,31.3327027 C88.7966143,34.6099629 91.0885544,36.794803 94.4943345,36.794803 Z M91.3670144,30.5401627 C91.5812144,28.9979226 92.8021545,27.9697625 94.4086545,27.9697625 C96.0151546,27.9697625 97.0433147,29.0407626 97.0861547,30.5401627 L91.3670144,30.5401627 Z" id="Shape"></path>
                <path d="M8.05392039,57.7173852 C12.7663206,57.7173852 16.1078408,54.482965 16.1078408,49.9205048 C16.1078408,45.3580446 12.7663206,42.1236244 8.05392039,42.1236244 C3.34152016,42.1236244 0,45.3580446 0,49.9205048 C0,54.482965 3.34152016,57.7173852 8.05392039,57.7173852 Z M8.05392039,55.318345 C4.94802024,55.318345 2.76318013,53.0906649 2.76318013,49.9205048 C2.76318013,46.7503446 4.94802024,44.5226645 8.05392039,44.5226645 C11.1598205,44.5226645 13.3446606,46.7503446 13.3446606,49.9205048 C13.3446606,53.0906649 11.1598205,55.318345 8.05392039,55.318345 Z" id="Shape"></path>
                <path d="M32.8368616,46.8146046 C31.1875215,46.8146046 29.8380614,47.3929447 28.9598414,48.3782647 C28.1673014,47.3929447 26.9892013,46.8146046 25.5326412,46.8146046 C24.0332412,46.8146046 22.7694611,47.2858447 21.9126611,48.1212247 C21.505681,47.3072647 20.648881,46.8146046 19.4922009,46.8146046 C19.0852209,46.8146046 18.5925609,46.8788646 18.1855809,47.0288046 C17.9928009,47.0930646 17.9285409,47.2215847 17.9285409,47.4143647 L17.9285409,48.9137647 C17.9285409,49.1279647 18.0999009,49.1922247 18.3141009,49.1708047 C18.4640409,49.1493847 18.7639209,49.1065447 18.9138609,49.1065447 C19.5350409,49.1065447 19.813501,49.3635848 19.813501,49.8990848 L19.813501,57.0962051 C19.813501,57.2889851 19.942021,57.4175051 20.134801,57.4175051 L22.1054411,57.4175051 C22.2982211,57.4175051 22.4267411,57.2889851 22.4267411,57.0962051 L22.4267411,51.6769449 C22.4267411,50.1132848 23.4549011,49.0637047 24.9757212,49.0637047 C26.4322813,49.0637047 27.3747613,50.1775448 27.3747613,51.8268849 L27.3747613,57.0962051 C27.3747613,57.2889851 27.5032813,57.4175051 27.6960613,57.4175051 L29.6667014,57.4175051 C29.8594814,57.4175051 29.9880014,57.2889851 29.9880014,57.0962051 L29.9880014,51.6769449 C29.9880014,50.1132848 30.9090615,49.0637047 32.2799416,49.0637047 C33.8650216,49.0637047 34.9146017,50.1775448 34.9146017,51.8268849 L34.9146017,57.0962051 C34.9146017,57.2889851 35.0431217,57.4175051 35.2359017,57.4175051 L37.2065418,57.4175051 C37.3993218,57.4175051 37.5278418,57.2889851 37.5278418,57.0962051 L37.5278418,51.6769449 C37.5278418,48.7638247 35.6428817,46.8146046 32.8368616,46.8146046 Z" id="Path"></path>
                <path d="M48.6876623,47.0288046 C48.2592623,46.9002846 47.6380823,46.8146046 47.0811623,46.8146046 C45.6460222,46.8146046 44.4250821,47.3715247 43.5254421,48.3568447 C43.1827221,47.3929447 42.261662,46.8146046 41.019302,46.8146046 C40.612322,46.8146046 40.1196619,46.9002846 39.7126819,47.0288046 C39.5199019,47.0930646 39.4556419,47.2215847 39.4556419,47.4143647 L39.4556419,48.9137647 C39.4556419,49.1279647 39.6270019,49.1922247 39.8412019,49.1708047 C39.9911419,49.1493847 40.2910219,49.1065447 40.4409619,49.1065447 C41.062142,49.1065447 41.340602,49.3635848 41.340602,49.8990848 L41.340602,57.0962051 C41.340602,57.2889851 41.469122,57.4175051 41.661902,57.4175051 L43.6325421,57.4175051 C43.8253221,57.4175051 43.9538421,57.2889851 43.9538421,57.0962051 L43.9538421,52.2767049 C43.9538421,50.4131648 45.2390422,49.1708047 47.0597423,49.1708047 C47.4881423,49.1708047 47.9165423,49.2136447 48.2806823,49.2779047 C48.4948823,49.3207448 48.6234023,49.2350647 48.6662423,49.0208647 L48.9232824,47.4143647 C48.9447024,47.2215847 48.8804424,47.0930646 48.6876623,47.0288046 Z" id="Path"></path>
                <path d="M52.3719025,44.8868045 C53.2501226,44.8868045 53.9998226,44.2227845 53.9998226,43.3874045 C53.9998226,42.5520244 53.2501226,41.8880044 52.3719025,41.8880044 C51.4722625,41.8880044 50.7439824,42.5520244 50.7439824,43.3874045 C50.7439824,44.2227845 51.4722625,44.8868045 52.3719025,44.8868045 Z M51.3865825,57.4175051 L53.3572226,57.4175051 C53.5500026,57.4175051 53.6785226,57.2889851 53.6785226,57.0962051 L53.6785226,47.4572047 C53.6785226,47.2644247 53.5500026,47.1359046 53.3572226,47.1359046 L51.3865825,47.1359046 C51.1938025,47.1359046 51.0652825,47.2644247 51.0652825,47.4572047 L51.0652825,57.0962051 C51.0652825,57.2889851 51.1938025,57.4175051 51.3865825,57.4175051 Z" id="Shape"></path>
                <path d="M63.6602431,46.8146046 C62.053743,46.8146046 60.7257029,47.3072647 59.8260629,48.1640647 C59.4190829,47.3286847 58.5408628,46.8146046 57.3841828,46.8146046 C56.9772027,46.8146046 56.4845427,46.8788646 56.0775627,47.0288046 C55.8847827,47.0930646 55.8205227,47.2215847 55.8205227,47.4143647 L55.8205227,48.9137647 C55.8205227,49.1279647 55.9918827,49.1922247 56.2060827,49.1708047 C56.3560227,49.1493847 56.6559027,49.1065447 56.8058427,49.1065447 C57.4270228,49.1065447 57.7054828,49.3635848 57.7054828,49.8990848 L57.7054828,57.0962051 C57.7054828,57.2889851 57.8340028,57.4175051 58.0267828,57.4175051 L59.9974229,57.4175051 C60.1902029,57.4175051 60.3187229,57.2889851 60.3187229,57.0962051 L60.3187229,51.6769449 C60.3187229,50.1132848 61.453983,49.0637047 63.103323,49.0637047 C64.6884031,49.0637047 65.7379832,50.1775448 65.7379832,51.8268849 L65.7379832,57.0962051 C65.7379832,57.2889851 65.8665032,57.4175051 66.0592832,57.4175051 L68.0299233,57.4175051 C68.2227033,57.4175051 68.3512233,57.2889851 68.3512233,57.0962051 L68.3512233,51.6769449 C68.3512233,48.7638247 66.4662632,46.8146046 63.6602431,46.8146046 Z" id="Path"></path>
                <path d="M81.6958839,47.1359046 L79.7252438,47.1359046 C79.5324638,47.1359046 79.4039438,47.2644247 79.4039438,47.4572047 L79.4039438,47.7570847 C78.4828838,47.0930646 77.4333037,46.8146046 76.3837237,46.8146046 C73.0636235,46.8146046 70.7074234,49.0851247 70.7074234,52.2767049 C70.7074234,55.468285 73.0636235,57.7388052 76.3837237,57.7388052 C77.4333037,57.7388052 78.4828838,57.4603451 79.4039438,56.7963251 L79.4039438,57.6102852 C79.4039438,59.3024652 78.2686838,60.4163053 76.5550837,60.4163053 C75.1413636,60.4163053 74.0489436,59.7737053 73.7490635,58.7455452 C73.6848035,58.5527652 73.5777035,58.4670852 73.3849235,58.4670852 L71.3714434,58.4670852 C71.1572434,58.4670852 71.0287234,58.5956052 71.0715634,58.8098052 C71.5213834,61.1445853 73.6633835,62.6654054 76.5550837,62.6654054 C79.8323438,62.6654054 82.0171839,60.6519253 82.0171839,57.6102852 L82.0171839,47.4572047 C82.0171839,47.2644247 81.8886639,47.1359046 81.6958839,47.1359046 Z M76.4051437,55.5968051 C74.6058636,55.5968051 73.3206635,54.225925 73.3206635,52.2767049 C73.3206635,50.3274848 74.6058636,48.9566047 76.4051437,48.9566047 C78.1615838,48.9566047 79.4039438,50.3274848 79.4039438,52.2767049 C79.4039438,54.225925 78.1615838,55.5968051 76.4051437,55.5968051 Z" id="Shape"></path>
                <path d="M91.6776044,46.8146046 C90.4352443,46.8146046 89.1500443,47.2215847 88.1647242,48.1640647 C87.7577442,47.3286847 86.8795242,46.8146046 85.7228441,46.8146046 C85.3158641,46.8146046 84.8232041,46.8788646 84.4162241,47.0288046 C84.223444,47.0930646 84.159184,47.2215847 84.159184,47.4143647 L84.159184,48.9137647 C84.159184,49.1279647 84.3305441,49.1922247 84.5447441,49.1708047 C84.6946841,49.1493847 84.9945641,49.1065447 85.1445041,49.1065447 C85.7656841,49.1065447 86.0441441,49.3635848 86.0441441,49.8990848 L86.0441441,62.0228054 C86.0441441,62.2155854 86.1726641,62.3441054 86.3654442,62.3441054 L88.3360842,62.3441054 C88.5288643,62.3441054 88.6573843,62.2155854 88.6573843,62.0228054 L88.6573843,56.7963251 C89.5784443,57.4603451 90.6280244,57.7388052 91.6776044,57.7388052 C94.9977046,57.7388052 97.3539047,55.468285 97.3539047,52.2767049 C97.3539047,49.0851247 94.9977046,46.8146046 91.6776044,46.8146046 Z M91.6561844,55.5968051 C89.8997443,55.5968051 88.6573843,54.225925 88.6573843,52.2767049 C88.6573843,50.3274848 89.8997443,48.9566047 91.6561844,48.9566047 C93.4554645,48.9566047 94.7406646,50.3274848 94.7406646,52.2767049 C94.7406646,54.225925 93.4554645,55.5968051 91.6561844,55.5968051 Z" id="Shape"></path>
                <path d="M112.690625,57.0962051 L112.519265,55.6182251 C112.497845,55.404025 112.347905,55.318345 112.133705,55.361185 C111.790985,55.425445 111.598205,55.446865 111.341165,55.446865 C110.891345,55.446865 110.591465,55.125565 110.591465,54.654325 L110.591465,47.4572047 C110.591465,47.2644247 110.462945,47.1359046 110.270165,47.1359046 L108.299525,47.1359046 C108.106745,47.1359046 107.978225,47.2644247 107.978225,47.4572047 L107.978225,47.7570847 C107.057165,47.0930646 106.007585,46.8146046 104.958005,46.8146046 C101.637905,46.8146046 99.2817048,49.0851247 99.2817048,52.2767049 C99.2817048,55.468285 101.637905,57.7388052 104.958005,57.7388052 C106.328885,57.7388052 107.442725,57.3318251 108.492305,56.4107651 C108.899285,57.2461451 109.798925,57.7388052 110.977025,57.7388052 C111.448265,57.7388052 111.898085,57.6531252 112.433585,57.4817651 C112.626365,57.4175051 112.712045,57.2889851 112.690625,57.0962051 Z M104.979425,55.5968051 C103.180145,55.5968051 101.894945,54.225925 101.894945,52.2767049 C101.894945,50.3274848 103.180145,48.9566047 104.979425,48.9566047 C106.735865,48.9566047 107.978225,50.3274848 107.978225,52.2767049 C107.978225,54.225925 106.735865,55.5968051 104.979425,55.5968051 Z" id="Shape"></path>
                <path d="M119.180886,57.7388052 C121.922646,57.7388052 123.764766,56.4107651 123.764766,54.397285 C123.764766,49.9847648 117.038886,52.2552849 117.038886,49.8134048 C117.038886,49.1493847 117.810006,48.7209847 118.966686,48.7209847 C120.016266,48.7209847 120.915906,49.2350647 121.172946,50.0061848 C121.215786,50.1347048 121.322886,50.1989648 121.515666,50.1989648 L123.314946,50.1989648 C123.529146,50.1989648 123.657666,50.0704448 123.636246,49.8562448 C123.357786,48.0355447 121.472826,46.8146046 118.966686,46.8146046 C116.246346,46.8146046 114.447066,48.1212247 114.447066,50.0704448 C114.447066,54.440125 121.258626,52.2981249 121.258626,54.568645 C121.258626,55.254085 120.423246,55.7253251 119.180886,55.7253251 C117.745746,55.7253251 116.846106,55.189825 116.546226,54.290185 C116.481966,54.097405 116.396286,54.011725 116.203506,54.011725 L114.404226,53.990305 C114.190025,53.990305 114.061505,54.118825 114.082925,54.333025 C114.382806,56.4750251 116.267766,57.7388052 119.180886,57.7388052 Z" id="Path"></path>
            </g>
        </g>
    </g>
</svg>