<?xml version="1.0" encoding="UTF-8"?>
<svg width="100px" height="93px" viewBox="0 0 100 93" version="1.1" xmlns="http://www.w3.org/2000/svg" xmlns:xlink="http://www.w3.org/1999/xlink">
    <title>Group 2</title>
    <defs>
        <rect id="path-1" x="0" y="0" width="56.5687037" height="30.343953" rx="15.1719765"></rect>
        <filter x="-8.0%" y="-14.8%" width="115.9%" height="129.7%" filterUnits="objectBoundingBox" id="filter-2">
            <feOffset dx="0" dy="0" in="SourceAlpha" result="shadowOffsetOuter1"></feOffset>
            <feGaussianBlur stdDeviation="1.5" in="shadowOffsetOuter1" result="shadowBlurOuter1"></feGaussianBlur>
            <feColorMatrix values="0 0 0 0 0   0 0 0 0 0.368045807   0 0 0 0 0.361608624  0 0 0 0.5 0" type="matrix" in="shadowBlurOuter1"></feColorMatrix>
        </filter>
    </defs>
    <g id="Spotlight-3---Okt_Dec----HTML-5-banners" stroke="none" stroke-width="1" fill="none" fill-rule="evenodd">
        <g id="160x600px_3" transform="translate(-30.000000, -40.000000)">
            <g id="Group-2" transform="translate(30.800314, 43.000000)">
                <g id="Group" transform="translate(21.915334, 0.000000)">
                    <g id="Rectangle">
                        <use fill="black" fill-opacity="1" filter="url(#filter-2)" xlink:href="#path-1"></use>
                        <use fill="#F78E1E" fill-rule="evenodd" xlink:href="#path-1"></use>
                    </g>
                    <g id="B" transform="translate(11.759712, 6.578092)" fill="#FFFFFF" fill-rule="nonzero">
                        <path d="M9.32591055,17.8685425 C14.8088606,17.8685425 18.6518211,14.1969242 18.6518211,8.93427126 C18.6518211,3.67161833 14.8088606,0 9.32591055,0 C3.81848306,0 0,3.67161833 0,8.93427126 C0,14.1969242 3.81848306,17.8685425 9.32591055,17.8685425 Z M9.32591055,14.5396086 C6.11936388,14.5396086 3.89191542,12.2387278 3.89191542,8.93427126 C3.89191542,5.62981477 6.11936388,3.32893395 9.32591055,3.32893395 C12.5079798,3.32893395 14.7599057,5.62981477 14.7599057,8.93427126 C14.7599057,12.2387278 12.5079798,14.5396086 9.32591055,14.5396086 Z" id="Shape"></path>
                        <path d="M21.9073227,17.5013807 L24.7956624,17.5013807 C25.0893919,17.5013807 25.2607341,17.3300385 25.2607341,17.036309 L25.2607341,11.1127648 L32.6774031,11.1127648 C32.9711326,11.1127648 33.1424747,10.9414226 33.1424747,10.6476931 L33.1424747,8.42024469 C33.1424747,8.12651523 32.9711326,7.95517304 32.6774031,7.95517304 L25.2607341,7.95517304 L25.2607341,3.54923105 L33.9012759,3.54923105 C34.1705279,3.54923105 34.3663475,3.37788886 34.3663475,3.10863685 L34.3663475,0.832233487 C34.3663475,0.538504021 34.1705279,0.367161833 33.9012759,0.367161833 L21.9073227,0.367161833 C21.6135932,0.367161833 21.4177736,0.538504021 21.4177736,0.832233487 L21.4177736,17.036309 C21.4177736,17.3300385 21.6380707,17.5013807 21.9073227,17.5013807 Z" id="Path"></path>
                    </g>
                </g>
                <g id="€-10,--donatie" transform="translate(0.000000, 41.474142)" fill="#FFFFFF" fill-rule="nonzero">
                    <path d="M32.1388991,10.8190353 L29.1036946,10.8190353 C28.85892,10.8190353 28.6875778,10.9659001 28.589668,11.2351521 C27.9287767,13.2912583 26.1663999,14.4906537 23.8899966,14.4906537 C21.6625481,14.4906537 19.9491262,13.4381231 19.0924153,11.7002237 L23.7431318,11.7002237 C24.0123838,11.7002237 24.183726,11.5778365 24.2326809,11.3085844 L24.5508879,10.2070989 C24.6243202,9.88889202 24.4774555,9.69307238 24.1592486,9.69307238 L18.5539113,9.69307238 C18.5294338,9.44829782 18.5049564,9.20352327 18.5049564,8.93427126 C18.5049564,8.6894967 18.5294338,8.44472215 18.5539113,8.19994759 L24.6487977,8.19994759 C24.9180497,8.19994759 25.1138693,8.07756032 25.1628243,7.8083083 L25.4565537,6.73130026 C25.5544635,6.41309334 25.4075988,6.2172737 25.0893919,6.2172737 L19.0924153,6.2172737 C19.9246488,4.47937436 21.6625481,3.40236631 23.8899966,3.40236631 C26.1908774,3.40236631 27.8308669,4.62623909 28.589668,6.68234535 C28.6875778,6.95159736 28.85892,7.07398464 29.1036946,7.07398464 L32.1388991,7.07398464 C32.457106,7.07398464 32.6284482,6.878165 32.5794933,6.58443553 C31.8206922,2.54565537 28.3693709,0 23.8655191,0 C19.2882349,0 15.9837784,2.39879064 14.9312479,6.2172737 L13.1199161,6.2172737 C12.8506641,6.2172737 12.6548445,6.38861589 12.6548445,6.6578679 L12.6548445,7.75935339 C12.6548445,8.0286054 12.8506641,8.19994759 13.1199161,8.19994759 L14.6130409,8.19994759 C14.5885635,8.44472215 14.5885635,8.6894967 14.5885635,8.93427126 C14.5885635,9.20352327 14.5885635,9.44829782 14.6130409,9.69307238 L13.1199161,9.69307238 C12.8506641,9.69307238 12.6548445,9.88889202 12.6548445,10.158144 L12.6548445,11.2351521 C12.6548445,11.5288815 12.8506641,11.7002237 13.1199161,11.7002237 L14.9557253,11.7002237 C16.0082559,15.5187068 19.3127124,17.89302 23.8655191,17.89302 C28.3693709,17.89302 31.8206922,15.3718421 32.5794933,11.3085844 C32.6284482,11.014855 32.457106,10.8190353 32.1388991,10.8190353 Z" id="Path"></path>
                    <path d="M47.6331284,0.391639288 L40.4857114,0.391639288 C40.2164594,0.391639288 40.0940721,0.538504021 40.0940721,0.807756032 L40.0940721,3.08415939 C40.0940721,3.37788886 40.2898918,3.50027614 40.5836212,3.50027614 L44.3531494,3.50027614 L44.3531494,17.0607865 C44.3531494,17.3545159 44.548969,17.5258581 44.8426985,17.5258581 L47.6331284,17.5258581 C47.9268579,17.5258581 48.0982001,17.3545159 48.0982001,17.0607865 L48.0982001,0.856710943 C48.0982001,0.562981477 47.9268579,0.391639288 47.6331284,0.391639288 Z" id="Path"></path>
                    <path d="M58.6235059,0 C54.2175639,0 51.3047467,2.74147502 51.3047467,6.878165 L51.3047467,11.0393324 C51.3047467,15.1760224 54.2175639,17.9174974 58.6235059,17.9174974 C63.0049705,17.9174974 65.9422651,15.1760224 65.9422651,11.0393324 L65.9422651,6.878165 C65.9422651,2.74147502 63.0049705,0 58.6235059,0 Z M62.2706468,11.0393324 C62.2706468,13.2667809 60.8019995,14.7599057 58.6235059,14.7599057 C56.4205349,14.7599057 54.9518876,13.2667809 54.9518876,11.0393324 L54.9518876,6.878165 C54.9518876,4.65071655 56.4205349,3.15759176 58.6235059,3.15759176 C60.8019995,3.15759176 62.2706468,4.65071655 62.2706468,6.878165 L62.2706468,11.0393324 Z" id="Shape"></path>
                    <path d="M69.9565678,14.1479693 C68.8061274,14.1479693 67.8515066,14.9802028 67.8515066,16.0327334 C67.8515066,16.7915345 68.3655332,17.4034709 69.0753794,17.6727229 L68.0228488,20.0470361 C67.8759841,20.3897204 68.0228488,20.5855401 68.3655332,20.5855401 L69.4425413,20.5855401 C69.6873158,20.5855401 69.8831355,20.5121077 70.0055227,20.2918106 L71.4741701,17.623768 C71.8168544,17.036309 72.061629,16.5467599 72.061629,16.0327334 C72.061629,14.9802028 71.1070082,14.1479693 69.9565678,14.1479693 Z" id="Path"></path>
                    <path d="M75.5863826,12.8017092 L83.88424,12.8017092 C84.153492,12.8017092 84.3493117,12.630367 84.3493117,12.361115 L84.3493117,9.93784693 C84.3493117,9.64411747 84.153492,9.47277528 83.88424,9.47277528 L75.5863826,9.47277528 C75.3171306,9.47277528 75.1457884,9.64411747 75.1457884,9.93784693 L75.1457884,12.361115 C75.1457884,12.630367 75.3171306,12.8017092 75.5863826,12.8017092 Z" id="Path"></path>
                    <path d="M15.8369137,47.1097414 L15.6166166,45.0781126 C15.5921392,44.7599057 15.3963195,44.6619958 15.0781126,44.6864733 C14.7843831,44.7599057 14.5885635,44.7599057 14.3437889,44.7599057 C13.8297624,44.7599057 13.5360329,44.4416987 13.5360329,43.8297624 L13.5360329,29.8776127 C13.5360329,29.5838833 13.3646907,29.4125411 13.0709612,29.4125411 L10.3050088,29.4125411 C10.0112793,29.4125411 9.83993711,29.5838833 9.83993711,29.8776127 L9.83993711,36.3151835 C8.83636144,35.5808599 7.68592103,35.2626529 6.4375708,35.2626529 C2.64356519,35.2626529 0,37.8572632 0,41.6023139 C0,45.3228871 2.64356519,47.9174974 6.4375708,47.9174974 C8.07756032,47.9174974 9.42382037,47.4034709 10.5008284,46.3754177 C11.014855,47.3545159 12.1408179,47.9174974 13.5849878,47.9174974 C14.1969242,47.9174974 14.8088606,47.8195876 15.4697519,47.623768 C15.7634813,47.5503356 15.8858686,47.3789934 15.8369137,47.1097414 Z M6.75577772,45.0536351 C4.8954911,45.0536351 3.59818596,43.6339427 3.59818596,41.6023139 C3.59818596,39.5462076 4.8954911,38.1265152 6.75577772,38.1265152 C8.59158688,38.1265152 9.83993711,39.5462076 9.83993711,41.6023139 C9.83993711,43.6339427 8.59158688,45.0536351 6.75577772,45.0536351 Z" id="Shape"></path>
                    <path d="M24.1347711,47.9174974 C28.1735513,47.9174974 30.8660714,45.3963195 30.8660714,41.6023139 C30.8660714,37.7838308 28.1735513,35.2626529 24.1347711,35.2626529 C20.095991,35.2626529 17.4034709,37.7838308 17.4034709,41.6023139 C17.4034709,45.3963195 20.095991,47.9174974 24.1347711,47.9174974 Z M24.1347711,44.8822929 C22.2010521,44.8822929 20.903747,43.5849878 20.903747,41.6023139 C20.903747,39.61964 22.2010521,38.2978574 24.1347711,38.2978574 C26.0684901,38.2978574 27.3657952,39.61964 27.3657952,41.6023139 C27.3657952,43.5849878 26.0684901,44.8822929 24.1347711,44.8822929 Z" id="Shape"></path>
                    <path d="M41.7830165,35.2626529 C39.9961623,35.2626529 38.47856,35.8256344 37.4994618,36.8047326 C36.9854353,35.8501119 35.9329047,35.2626529 34.5621672,35.2626529 C33.9991857,35.2626529 33.3627718,35.3360853 32.7997904,35.5563824 C32.5305384,35.6542922 32.4326285,35.801157 32.4326285,36.0948864 L32.4326285,38.1020378 C32.4326285,38.4202447 32.6529256,38.4936771 32.9711326,38.4936771 C33.1179973,38.4691996 33.3627718,38.4202447 33.5096366,38.4202447 C34.1950053,38.4202447 34.4642573,38.7139742 34.4642573,39.3748655 L34.4642573,47.0607865 C34.4642573,47.3545159 34.6355995,47.5258581 34.929329,47.5258581 L37.670804,47.5258581 C37.9645335,47.5258581 38.1358757,47.3545159 38.1358757,47.0607865 L38.1358757,41.0393324 C38.1358757,39.4238204 39.2373612,38.3957672 40.8528732,38.3957672 C42.4194304,38.3957672 43.4230061,39.4972527 43.4230061,41.1617197 L43.4230061,47.0607865 C43.4230061,47.3545159 43.6188257,47.5258581 43.9125552,47.5258581 L46.6540302,47.5258581 C46.9477596,47.5258581 47.1191018,47.3545159 47.1191018,47.0607865 L47.1191018,40.6721706 C47.1191018,37.416669 44.9895632,35.2626529 41.7830165,35.2626529 Z" id="Path"></path>
                    <path d="M65.2568964,47.1097414 L65.0121218,45.0781126 C64.9876444,44.7599057 64.7918247,44.6619958 64.4980952,44.6864733 C64.1798883,44.7599057 63.9840687,44.7599057 63.7392941,44.7599057 C63.2252676,44.7599057 62.9315381,44.4416987 62.9315381,43.8052849 L62.9315381,36.1193639 C62.9315381,35.8256344 62.7601959,35.6542922 62.4664664,35.6542922 L59.7739463,35.6542922 C59.4802169,35.6542922 59.3088747,35.8256344 59.3088747,36.1193639 L59.3088747,36.3886159 C58.3297765,35.6298148 57.1303811,35.2626529 55.833076,35.2626529 C52.0390704,35.2626529 49.3955052,37.8572632 49.3955052,41.6023139 C49.3955052,45.3228871 52.0390704,47.9174974 55.833076,47.9174974 C57.4241106,47.9174974 58.7948481,47.4279483 59.9452885,46.4243726 C60.4593151,47.3545159 61.5363231,47.9174974 63.0294479,47.9174974 C63.6169068,47.9174974 64.2043658,47.8195876 64.8652571,47.623768 C65.1589865,47.5503356 65.2813738,47.3789934 65.2568964,47.1097414 Z M56.1512829,45.0536351 C54.2909963,45.0536351 52.9936912,43.6339427 52.9936912,41.6023139 C52.9936912,39.5462076 54.2909963,38.1265152 56.1512829,38.1265152 C57.9870921,38.1265152 59.2354423,39.5462076 59.2354423,41.6023139 C59.2354423,43.6339427 57.9870921,45.0536351 56.1512829,45.0536351 Z" id="Shape"></path>
                    <path d="M73.8729607,47.9174974 C74.6317618,47.9174974 75.7577248,47.7706327 76.736823,47.5258581 C77.0305525,47.4279483 77.1284623,47.2566061 77.1039848,46.9873541 L76.7857779,44.8822929 C76.736823,44.6130409 76.5410033,44.4661762 76.2472739,44.5151311 C75.659815,44.6619958 74.9499687,44.7354282 74.4114647,44.7354282 C73.1875919,44.7354282 72.3798359,43.9766271 72.3798359,42.7282769 L72.3798359,38.6160643 L76.2227964,38.6160643 C76.4920484,38.6160643 76.6878681,38.4447221 76.6878681,38.1509927 L76.6878681,36.1193639 C76.6878681,35.8256344 76.4920484,35.6542922 76.2227964,35.6542922 L72.3798359,35.6542922 L72.3798359,32.5456554 C72.3798359,32.2519259 72.2084937,32.0805837 71.9147643,32.0805837 L69.1732892,32.0805837 C68.8795598,32.0805837 68.7082176,32.2519259 68.7082176,32.5456554 L68.7082176,35.6542922 L66.4562917,35.6542922 C66.1625622,35.6542922 65.99122,35.8256344 65.99122,36.1193639 L65.99122,38.1509927 C65.99122,38.4447221 66.1625622,38.6160643 66.4562917,38.6160643 L68.7082176,38.6160643 L68.7082176,42.8506641 C68.7082176,45.9837784 70.6908915,47.9174974 73.8729607,47.9174974 Z" id="Path"></path>
                    <path d="M81.1182875,33.4757987 C82.3421603,33.4757987 83.2967811,32.5946103 83.2967811,31.4441699 C83.2967811,30.2937295 82.3421603,29.4370185 81.1182875,29.4370185 C79.8944148,29.4370185 78.939794,30.2937295 78.939794,31.4441699 C78.939794,32.5946103 79.8944148,33.4757987 81.1182875,33.4757987 Z M79.74755,47.5258581 L82.489025,47.5258581 C82.7827545,47.5258581 82.9540967,47.3545159 82.9540967,47.0607865 L82.9540967,36.1193639 C82.9540967,35.8256344 82.7827545,35.6542922 82.489025,35.6542922 L79.74755,35.6542922 C79.4538206,35.6542922 79.2824784,35.8256344 79.2824784,36.1193639 L79.2824784,47.0607865 C79.2824784,47.3545159 79.4538206,47.5258581 79.74755,47.5258581 Z" id="Shape"></path>
                    <path d="M92.2065749,47.9174974 C94.9725273,47.9174974 97.1754983,46.6691472 98.0077318,44.6375184 C98.1301191,44.3437889 97.9587769,44.1479693 97.6160925,44.1479693 L94.8746175,44.1479693 C94.629843,44.1479693 94.4829782,44.2458791 94.2871586,44.3927438 C93.8710418,44.8578155 93.1367182,45.1270675 92.2800072,45.1270675 C90.6644952,45.1270675 89.4406224,44.2214016 89.0489831,42.7527543 L97.8363896,42.7527543 C98.1056416,42.7527543 98.3014613,42.630367 98.3504162,42.3366376 C98.3504162,42.0673856 98.3748937,41.7736561 98.3748937,41.5044041 C98.3748937,37.7838308 95.9516256,35.2626529 91.9862778,35.2626529 C88.0943623,35.2626529 85.4752746,37.7838308 85.4752746,41.6023139 C85.4752746,45.3963195 88.1922722,47.9174974 92.2065749,47.9174974 Z M89.0245057,40.5742608 C89.2448028,39.0321811 90.4686755,37.9796505 92.0841876,37.9796505 C93.7241771,37.9796505 94.8011852,39.0566585 94.8746175,40.5742608 L89.0245057,40.5742608 Z" id="Shape"></path>
                </g>
            </g>
        </g>
    </g>
</svg>