<?xml version="1.0" encoding="UTF-8"?>
<svg width="124px" height="38px" viewBox="0 0 124 38" version="1.1" xmlns="http://www.w3.org/2000/svg" xmlns:xlink="http://www.w3.org/1999/xlink">
    <title>t.w.v. € 10,- voor u</title>
    <g id="Spotlight-3---Okt_Dec----HTML-5-banners" stroke="none" stroke-width="1" fill="none" fill-rule="evenodd">
        <g id="160x600px_2" transform="translate(-17.000000, -328.000000)" fill="#FFFFFF" fill-rule="nonzero">
            <g id="t.w.v.-€-10,--voor-u" transform="translate(17.764187, 328.628701)">
                <path d="M6.61878032,15.6366008 C7.23996035,15.6366008 8.16102039,15.5080807 8.99640043,15.2938807 C9.18918044,15.2296207 9.27486045,15.1011007 9.25344044,14.9083207 L8.99640043,13.4089206 C8.95356043,13.2161406 8.82504042,13.1090406 8.61084041,13.1518806 C8.07534039,13.2804006 7.43274036,13.3446606 6.91866033,13.3446606 C5.80482028,13.3446606 5.07654024,12.5735406 5.07654024,11.4168605 L5.07654024,7.11144034 L8.71794042,7.11144034 C8.91072043,7.11144034 9.03924043,6.98292034 9.03924043,6.79014033 L9.03924043,5.35500026 C9.03924043,5.16222025 8.91072043,5.03370024 8.71794042,5.03370024 L5.07654024,5.03370024 L5.07654024,2.18484011 C5.07654024,1.9920601 4.94802024,1.86354009 4.75524023,1.86354009 L2.78460013,1.86354009 C2.59182012,1.86354009 2.46330012,1.9920601 2.46330012,2.18484011 L2.46330012,5.03370024 L0.321300015,5.03370024 C0.128520006,5.03370024 0,5.16222025 0,5.35500026 L0,6.79014033 C0,6.98292034 0.128520006,7.11144034 0.321300015,7.11144034 L2.46330012,7.11144034 L2.46330012,11.5025406 C2.46330012,13.9872607 4.1340602,15.6366008 6.61878032,15.6366008 Z" id="Path"></path>
                <path d="M12.1665606,15.6366008 C13.0233606,15.6366008 13.7088007,14.9940007 13.7088007,14.1800407 C13.7088007,13.3660806 13.0233606,12.7234806 12.1665606,12.7234806 C11.3311805,12.7234806 10.6457405,13.3660806 10.6457405,14.1800407 C10.6457405,14.9940007 11.3311805,15.6366008 12.1665606,15.6366008 Z" id="Path"></path>
                <path d="M19.0638009,15.3153007 L20.798821,15.3153007 C20.970181,15.3153007 21.098701,15.2510407 21.162961,15.0582607 L23.3049611,9.03924043 L25.4469612,15.0582607 C25.5112212,15.2510407 25.6397412,15.3153007 25.8111012,15.3153007 L27.5461213,15.3153007 C27.7174813,15.3153007 27.8674213,15.2296207 27.9316813,15.0582607 L31.6801815,5.39784026 C31.7658615,5.16222025 31.6587615,5.03370024 31.4231415,5.03370024 L29.2811414,5.03370024 C29.1097814,5.03370024 28.9812614,5.09796025 28.9170014,5.29074025 L26.6679013,11.3954405 L24.5044812,5.29074025 C24.4402212,5.09796025 24.3117012,5.03370024 24.1403412,5.03370024 L22.4695811,5.03370024 C22.2982211,5.03370024 22.1697011,5.09796025 22.1054411,5.29074025 L19.920601,11.3740205 L17.6929209,5.29074025 C17.6286608,5.09796025 17.5001408,5.03370024 17.3287808,5.03370024 L15.1653607,5.03370024 C14.9297407,5.03370024 14.8226407,5.16222025 14.9083207,5.39784026 L18.6782409,15.0582607 C18.7425009,15.2296207 18.8924409,15.3153007 19.0638009,15.3153007 Z" id="Path"></path>
                <path d="M34.4005217,15.6366008 C35.2573217,15.6366008 35.9427617,14.9940007 35.9427617,14.1800407 C35.9427617,13.3660806 35.2573217,12.7234806 34.4005217,12.7234806 C33.5651416,12.7234806 32.8797016,13.3660806 32.8797016,14.1800407 C32.8797016,14.9940007 33.5651416,15.6366008 34.4005217,15.6366008 Z" id="Path"></path>
                <path d="M42.175982,15.3153007 L43.9752621,15.3153007 C44.1466221,15.3153007 44.2751421,15.2296207 44.3394021,15.0796807 L48.9875424,5.41926026 C49.0946424,5.18364025 48.9875424,5.03370024 48.7519223,5.03370024 L46.6741822,5.03370024 C46.5028222,5.03370024 46.3743022,5.11938025 46.3100422,5.26932025 L43.0756221,12.1665606 L39.8840419,5.26932025 C39.8197819,5.11938025 39.6912619,5.03370024 39.5199019,5.03370024 L37.3993218,5.03370024 C37.1637018,5.03370024 37.0566018,5.18364025 37.1637018,5.41926026 L41.811842,15.0796807 C41.876102,15.2296207 42.004622,15.3153007 42.175982,15.3153007 Z" id="Path"></path>
                <path d="M51.7293025,15.6366008 C52.5861025,15.6366008 53.2715426,14.9940007 53.2715426,14.1800407 C53.2715426,13.3660806 52.5861025,12.7234806 51.7293025,12.7234806 C50.8939224,12.7234806 50.2084824,13.3660806 50.2084824,14.1800407 C50.2084824,14.9940007 50.8939224,15.6366008 51.7293025,15.6366008 Z" id="Path"></path>
                <path d="M77.5404037,9.66042046 L75.3769836,9.66042046 C75.2056236,9.66042046 75.0771036,9.74610047 75.0128436,9.93888048 C74.3488236,11.9523606 72.6352235,13.1518806 70.4075434,13.1518806 C68.1584433,13.1518806 66.4448432,12.0594606 65.6308832,10.2816005 L70.3218634,10.2816005 C70.5146434,10.2816005 70.6431634,10.1745005 70.6860034,10.0031405 L70.9858834,8.88930043 C71.0501434,8.65368042 70.9430434,8.52516041 70.7288434,8.52516041 L65.1810631,8.52516041 C65.1596431,8.2895404 65.1382231,8.05392039 65.1382231,7.79688037 C65.1382231,7.53984036 65.1596431,7.30422035 65.1810631,7.06860034 L71.1572434,7.06860034 C71.3500234,7.06860034 71.4785434,6.96150033 71.5213834,6.79014033 L71.8212635,5.67630027 C71.8855235,5.44068026 71.7784235,5.31216026 71.5642234,5.31216026 L65.6523032,5.31216026 C66.4448432,3.53430017 68.1584433,2.46330012 70.4075434,2.46330012 C72.6566435,2.46330012 74.2631436,3.68424018 75.0128436,5.69772027 C75.0771036,5.86908028 75.2056236,5.95476029 75.3769836,5.95476029 L77.5404037,5.95476029 C77.7546037,5.95476029 77.8831237,5.82624028 77.8402837,5.61204027 C77.1548437,2.20626011 74.1560436,0 70.4075434,0 C66.4876832,0 63.6388231,2.0563201 62.696343,5.31216026 L60.7685429,5.31216026 C60.5757629,5.31216026 60.4472429,5.44068026 60.4472429,5.63346027 L60.4472429,6.74730032 C60.4472429,6.94008033 60.5757629,7.06860034 60.7685429,7.06860034 L62.375043,7.06860034 C62.353623,7.30422035 62.353623,7.53984036 62.353623,7.79688037 C62.353623,8.05392039 62.353623,8.2895404 62.375043,8.52516041 L60.7685429,8.52516041 C60.5757629,8.52516041 60.4472429,8.65368042 60.4472429,8.84646043 L60.4472429,9.96030048 C60.4472429,10.1530805 60.5757629,10.2816005 60.7685429,10.2816005 L62.696343,10.2816005 C63.6174031,13.5588607 66.4876832,15.6151808 70.4075434,15.6151808 C74.1560436,15.6151808 77.1548437,13.4089206 77.8402837,10.0031405 C77.8831237,9.78894047 77.7546037,9.66042046 77.5404037,9.66042046 Z" id="Path"></path>
                <path d="M90.9493244,0.321300015 L84.9517241,0.321300015 C84.7589441,0.321300015 84.6946841,0.428400021 84.6946841,0.599760029 L84.6946841,2.33478011 C84.6946841,2.54898012 84.8446241,2.61324013 85.0588241,2.61324013 L88.5502843,2.61324013 L88.5502843,14.9940007 C88.5502843,15.1867807 88.6788043,15.3153007 88.8715843,15.3153007 L90.9493244,15.3153007 C91.1421044,15.3153007 91.2706244,15.1867807 91.2706244,14.9940007 L91.2706244,0.642600031 C91.2706244,0.449820022 91.1421044,0.321300015 90.9493244,0.321300015 Z" id="Path"></path>
                <path d="M100.588325,0 C96.8612447,0 94.3765245,2.33478011 94.3765245,5.84766028 L94.3765245,9.78894047 C94.3765245,13.3018206 96.8612447,15.6366008 100.588325,15.6366008 C104.315405,15.6366008 106.800125,13.3018206 106.800125,9.78894047 L106.800125,5.84766028 C106.800125,2.33478011 104.315405,0 100.588325,0 Z M104.079785,9.78894047 C104.079785,11.9095206 102.687485,13.3232406 100.588325,13.3232406 C98.4891647,13.3232406 97.0968647,11.9095206 97.0968647,9.78894047 L97.0968647,5.84766028 C97.0968647,3.72708018 98.4891647,2.31336011 100.588325,2.31336011 C102.687485,2.31336011 104.079785,3.72708018 104.079785,5.84766028 L104.079785,9.78894047 Z" id="Shape"></path>
                <path d="M110.313005,12.7663206 C109.456205,12.7663206 108.727925,13.4089206 108.727925,14.2228807 C108.727925,14.8226407 109.134905,15.2938807 109.691825,15.4866607 L108.792185,17.3930408 C108.685085,17.6286608 108.792185,17.7786009 109.027805,17.7786009 L109.927445,17.7786009 C110.098805,17.7786009 110.227325,17.7357609 110.313005,17.5644008 L111.555365,15.3153007 C111.748145,14.9511607 111.940925,14.5656007 111.940925,14.2228807 C111.940925,13.4089206 111.212645,12.7663206 110.313005,12.7663206 Z" id="Path"></path>
                <path d="M115.046826,10.9242005 L122.222526,10.9242005 C122.415306,10.9242005 122.543826,10.7956805 122.543826,10.6029005 L122.543826,8.78220042 C122.543826,8.58942041 122.415306,8.46090041 122.222526,8.46090041 L115.046826,8.46090041 C114.854046,8.46090041 114.725526,8.58942041 114.725526,8.78220042 L114.725526,10.6029005 C114.725526,10.7956805 114.854046,10.9242005 115.046826,10.9242005 Z" id="Path"></path>
                <path d="M12.0487506,36.2593029 L13.8480307,36.2593029 C14.0193907,36.2593029 14.1479107,36.1736229 14.2121707,36.0236829 L18.8603109,26.3632625 C18.9674109,26.1276424 18.8603109,25.9777024 18.6246909,25.9777024 L16.5469508,25.9777024 C16.3755908,25.9777024 16.2470708,26.0633824 16.1828108,26.2133225 L12.9483906,33.1105628 L9.75681047,26.2133225 C9.69255047,26.0633824 9.56403046,25.9777024 9.39267045,25.9777024 L7.27209035,25.9777024 C7.03647034,25.9777024 6.92937033,26.1276424 7.03647034,26.3632625 L11.6846106,36.0236829 C11.7488706,36.1736229 11.8773906,36.2593029 12.0487506,36.2593029 Z" id="Path"></path>
                <path d="M26.0145913,36.5806029 C29.4417914,36.5806029 31.7337315,34.3957628 31.7337315,31.1185027 C31.7337315,27.8412425 29.4417914,25.6564024 26.0145913,25.6564024 C22.5873911,25.6564024 20.295451,27.8412425 20.295451,31.1185027 C20.295451,34.3957628 22.5873911,36.5806029 26.0145913,36.5806029 Z M26.0145913,34.3315028 C24.1510512,34.3315028 22.9086911,33.0463028 22.9086911,31.1185027 C22.9086911,29.1907026 24.1510512,27.9055025 26.0145913,27.9055025 C27.8781313,27.9055025 29.1204914,29.1907026 29.1204914,31.1185027 C29.1204914,33.0463028 27.8781313,34.3315028 26.0145913,34.3315028 Z" id="Shape"></path>
                <path d="M39.3806719,36.5806029 C42.8078721,36.5806029 45.0998122,34.3957628 45.0998122,31.1185027 C45.0998122,27.8412425 42.8078721,25.6564024 39.3806719,25.6564024 C35.9534717,25.6564024 33.6615316,27.8412425 33.6615316,31.1185027 C33.6615316,34.3957628 35.9534717,36.5806029 39.3806719,36.5806029 Z M39.3806719,34.3315028 C37.5171318,34.3315028 36.2747717,33.0463028 36.2747717,31.1185027 C36.2747717,29.1907026 37.5171318,27.9055025 39.3806719,27.9055025 C41.244212,27.9055025 42.486572,29.1907026 42.486572,31.1185027 C42.486572,33.0463028 41.244212,34.3315028 39.3806719,34.3315028 Z" id="Shape"></path>
                <path d="M55.9383327,25.8706024 C55.5099327,25.7420824 54.8887526,25.6564024 54.3318326,25.6564024 C52.8966925,25.6564024 51.6757525,26.2133225 50.7761124,27.1986425 C50.4333924,26.2347425 49.5123324,25.6564024 48.2699723,25.6564024 C47.8629923,25.6564024 47.3703323,25.7420824 46.9633523,25.8706024 C46.7705722,25.9348624 46.7063122,26.0633824 46.7063122,26.2561625 L46.7063122,27.7555625 C46.7063122,27.9697625 46.8776723,28.0340225 47.0918723,28.0126025 C47.2418123,27.9911825 47.5416923,27.9483425 47.6916323,27.9483425 C48.3128123,27.9483425 48.5912723,28.2053825 48.5912723,28.7408826 L48.5912723,35.9380029 C48.5912723,36.1307829 48.7197923,36.2593029 48.9125724,36.2593029 L50.8832124,36.2593029 C51.0759925,36.2593029 51.2045125,36.1307829 51.2045125,35.9380029 L51.2045125,31.1185027 C51.2045125,29.2549626 52.4897125,28.0126025 54.3104126,28.0126025 C54.7388126,28.0126025 55.1672127,28.0554425 55.5313527,28.1197025 C55.7455527,28.1625425 55.8740727,28.0768625 55.9169127,27.8626625 L56.1739527,26.2561625 C56.1953727,26.0633824 56.1311127,25.9348624 55.9383327,25.8706024 Z" id="Path"></path>
                <path d="M76.4158537,35.9380029 L76.2444937,34.4600228 C76.2230737,34.2458228 76.0731337,34.1601428 75.8589336,34.2029828 C75.5162136,34.2672428 75.3234336,34.2886628 75.0663936,34.2886628 C74.6165736,34.2886628 74.3166936,33.9673628 74.3166936,33.4961228 L74.3166936,26.2990025 C74.3166936,26.1062224 74.1881736,25.9777024 73.9953936,25.9777024 L72.0247535,25.9777024 C71.8319735,25.9777024 71.7034534,26.1062224 71.7034534,26.2990025 L71.7034534,31.7182627 C71.7034534,33.2819228 70.5681934,34.3315028 68.9188533,34.3315028 C67.3337732,34.3315028 66.2841932,33.2176628 66.2841932,31.5683227 L66.2841932,26.2990025 C66.2841932,26.1062224 66.1556732,25.9777024 65.9628932,25.9777024 L63.9922531,25.9777024 C63.7994731,25.9777024 63.6709531,26.1062224 63.6709531,26.2990025 L63.6709531,31.7182627 C63.6709531,34.6313829 65.5559132,36.5806029 68.3619333,36.5806029 C69.8827534,36.5806029 71.1465334,36.1522029 72.0461735,35.3810829 C72.5174135,36.1307829 73.4598935,36.5806029 74.7022536,36.5806029 C75.1734936,36.5806029 75.6233136,36.4949229 76.1588137,36.3235629 C76.3515937,36.2593029 76.4372737,36.1307829 76.4158537,35.9380029 Z" id="Path"></path>
                <path d="M87.1686942,25.9777024 L78.3222338,25.9777024 C78.1294538,25.9777024 78.0009338,26.1062224 78.0009338,26.2990025 L78.0009338,27.7127225 C78.0009338,27.9055025 78.1294538,28.0340225 78.3222338,28.0340225 L83.741494,28.0340225 L77.9580937,34.9312629 C77.8509937,35.0383629 77.8081537,35.1883029 77.8081537,35.3382429 L77.8081537,35.9380029 C77.8081537,36.1307829 77.9366737,36.2593029 78.1294538,36.2593029 L87.1472742,36.2593029 C87.3400542,36.2593029 87.4685742,36.1307829 87.4685742,35.9380029 L87.4685742,34.5242829 C87.4685742,34.3315028 87.3400542,34.2029828 87.1472742,34.2029828 L81.6637539,34.2029828 L87.3400542,27.4771025 C87.4471542,27.3700025 87.4899942,27.2200625 87.4899942,27.0701225 L87.4899942,26.2990025 C87.4899942,26.1062224 87.3614742,25.9777024 87.1686942,25.9777024 Z" id="Path"></path>
                <path d="M94.9013146,36.5806029 C97.1504147,36.5806029 99.0567948,35.5310229 99.7850748,33.9031028 C99.8921748,33.6889028 99.7636548,33.5389628 99.5280348,33.5389628 L97.4074547,33.5389628 C97.2360947,33.5389628 97.1289947,33.6032228 97.0004747,33.7317428 C96.6149146,34.1815628 95.8437946,34.4814428 94.9655746,34.4814428 C93.4233345,34.4814428 92.2238144,33.5818028 91.8382544,32.1680827 L99.7422348,32.1680827 C99.9350148,32.1680827 100.063535,32.0824027 100.106375,31.8896227 C100.127795,31.6111627 100.149215,31.3112827 100.149215,31.0328227 C100.149215,27.7984025 97.9857947,25.6564024 94.7513746,25.6564024 C91.4312744,25.6564024 89.2035943,27.8412425 89.2035943,31.1185027 C89.2035943,34.3957628 91.4955344,36.5806029 94.9013146,36.5806029 Z M91.7739944,30.3259626 C91.9881944,28.7837226 93.2091345,27.7555625 94.8156346,27.7555625 C96.4221346,27.7555625 97.4502947,28.8265626 97.4931347,30.3259626 L91.7739944,30.3259626 Z" id="Shape"></path>
                <path d="M105.611315,36.5806029 C106.082555,36.5806029 106.532375,36.4949229 107.067875,36.3235629 C107.260655,36.2593029 107.346335,36.1307829 107.324915,35.9380029 L107.153555,34.4600228 C107.132135,34.2458228 106.982195,34.1601428 106.767995,34.2029828 C106.425275,34.2672428 106.232495,34.2886628 105.975455,34.2886628 C105.525635,34.2886628 105.225755,33.9673628 105.225755,33.4961228 L105.225755,20.7298022 C105.225755,20.5370222 105.097235,20.4085022 104.904455,20.4085022 L102.933815,20.4085022 C102.741035,20.4085022 102.612515,20.5370222 102.612515,20.7298022 L102.612515,34.2029828 C102.612515,35.6381229 103.812035,36.5806029 105.611315,36.5806029 Z" id="Path"></path>
                <path d="M111.394715,36.2593029 L113.365355,36.2593029 C113.558135,36.2593029 113.686655,36.1307829 113.686655,35.9380029 L113.686655,28.0554425 L117.585096,28.0554425 C117.777876,28.0554425 117.906396,27.9269225 117.906396,27.7341425 L117.906396,26.2990025 C117.906396,26.1062224 117.777876,25.9777024 117.585096,25.9777024 L113.686655,25.9777024 L113.686655,24.4140424 C113.686655,23.1716823 114.607716,22.3577223 115.935756,22.3577223 C116.471256,22.3577223 117.156696,22.4434023 117.649356,22.5933423 C117.863556,22.6576023 117.992076,22.5076623 118.034916,22.3148823 L118.291956,20.7940622 C118.334796,20.5798622 118.249116,20.4941822 118.056336,20.4299222 C117.285216,20.1943022 116.278476,20.0872022 115.593036,20.0872022 C112.872695,20.0872022 111.073415,21.8222222 111.073415,24.4140424 L111.073415,25.9777024 L108.395915,25.9777024 C108.203135,25.9777024 108.074615,26.1062224 108.074615,26.2990025 L108.074615,27.7341425 C108.074615,27.9269225 108.203135,28.0554425 108.395915,28.0554425 L111.073415,28.0554425 L111.073415,35.9380029 C111.073415,36.1307829 111.201935,36.2593029 111.394715,36.2593029 Z" id="Path"></path>
            </g>
        </g>
    </g>
</svg>