<?xml version="1.0" encoding="UTF-8"?>
<svg width="95px" height="54px" viewBox="0 0 95 54" version="1.1" xmlns="http://www.w3.org/2000/svg" xmlns:xlink="http://www.w3.org/1999/xlink">
    <title>voor een Omring-loca</title>
    <g id="Spotlight-3---Okt_Dec----HTML-5-banners" stroke="none" stroke-width="1" fill="none" fill-rule="evenodd">
        <g id="160x600px_3" transform="translate(-33.000000, -158.000000)" fill="#FFFFFF" fill-rule="nonzero">
            <g id="voor-een-Omring-loca" transform="translate(33.416695, 158.341102)">
                <path d="M5.05389329,10.6029005 L6.85317337,10.6029005 C7.02453338,10.6029005 7.15305339,10.5172205 7.21731339,10.3672805 L11.8654536,0.706860034 C11.9725536,0.471240023 11.8654536,0.321300015 11.6298336,0.321300015 L9.5520935,0.321300015 C9.38073349,0.321300015 9.25221349,0.40698002 9.18795348,0.556920027 L5.95353333,7.45416036 L2.76195318,0.556920027 C2.69769317,0.40698002 2.56917317,0.321300015 2.39781316,0.321300015 L0.277233056,0.321300015 C0.0416130451,0.321300015 -0.06548696,0.471240023 0.0416130451,0.706860034 L4.68975327,10.3672805 C4.75401327,10.5172205 4.88253328,10.6029005 5.05389329,10.6029005 Z" id="Path"></path>
                <path d="M19.019734,10.9242005 C22.4469341,10.9242005 24.7388742,8.73936042 24.7388742,5.46210026 C24.7388742,2.18484011 22.4469341,0 19.019734,0 C15.5925338,0 13.3005937,2.18484011 13.3005937,5.46210026 C13.3005937,8.73936042 15.5925338,10.9242005 19.019734,10.9242005 Z M19.019734,8.67510042 C17.1561939,8.67510042 15.9138338,7.38990036 15.9138338,5.46210026 C15.9138338,3.53430017 17.1561939,2.24910011 19.019734,2.24910011 C20.883274,2.24910011 22.1256341,3.53430017 22.1256341,5.46210026 C22.1256341,7.38990036 20.883274,8.67510042 19.019734,8.67510042 Z" id="Shape"></path>
                <path d="M32.3858146,10.9242005 C35.8130148,10.9242005 38.1049549,8.73936042 38.1049549,5.46210026 C38.1049549,2.18484011 35.8130148,0 32.3858146,0 C28.9586144,0 26.6666743,2.18484011 26.6666743,5.46210026 C26.6666743,8.73936042 28.9586144,10.9242005 32.3858146,10.9242005 Z M32.3858146,8.67510042 C30.5222745,8.67510042 29.2799145,7.38990036 29.2799145,5.46210026 C29.2799145,3.53430017 30.5222745,2.24910011 32.3858146,2.24910011 C34.2493547,2.24910011 35.4917147,3.53430017 35.4917147,5.46210026 C35.4917147,7.38990036 34.2493547,8.67510042 32.3858146,8.67510042 Z" id="Shape"></path>
                <path d="M48.9434754,0.21420001 C48.5150754,0.0856800041 47.8938953,0 47.3369753,0 C45.9018353,0 44.6808952,0.556920027 43.7812551,1.54224007 C43.4385351,0.578340028 42.5174751,0 41.275115,0 C40.868135,0 40.375475,0.0856800041 39.968495,0.21420001 C39.775715,0.278460013 39.711455,0.40698002 39.711455,0.599760029 L39.711455,2.0991601 C39.711455,2.31336011 39.882815,2.37762011 40.097015,2.35620011 C40.246955,2.33478011 40.546835,2.29194011 40.696775,2.29194011 C41.317955,2.29194011 41.596415,2.54898012 41.596415,3.08448015 L41.596415,10.2816005 C41.596415,10.4743805 41.724935,10.6029005 41.9177151,10.6029005 L43.8883552,10.6029005 C44.0811352,10.6029005 44.2096552,10.4743805 44.2096552,10.2816005 L44.2096552,5.46210026 C44.2096552,3.59856017 45.4948552,2.35620011 47.3155553,2.35620011 C47.7439553,2.35620011 48.1723554,2.39904012 48.5364954,2.46330012 C48.7506954,2.50614012 48.8792154,2.42046012 48.9220554,2.20626011 L49.1790954,0.599760029 C49.2005154,0.40698002 49.1362554,0.278460013 48.9434754,0.21420001 Z" id="Path"></path>
                <path d="M62.052516,10.9242005 C64.3016161,10.9242005 66.2079962,9.87462047 66.9362763,8.2467004 C67.0433763,8.03250039 66.9148563,7.88256038 66.6792362,7.88256038 L64.5586561,7.88256038 C64.3872961,7.88256038 64.2801961,7.94682038 64.1516761,8.07534039 C63.7661161,8.52516041 62.9949961,8.82504042 62.116776,8.82504042 C60.574536,8.82504042 59.3750159,7.92540038 58.9894559,6.51168031 L66.8934363,6.51168031 C67.0862163,6.51168031 67.2147363,6.42600031 67.2575763,6.2332203 C67.2789963,5.95476029 67.3004163,5.65488027 67.3004163,5.37642026 C67.3004163,2.1420001 65.1369962,0 61.902576,0 C58.5824759,0 56.3547958,2.18484011 56.3547958,5.46210026 C56.3547958,8.73936042 58.6467359,10.9242005 62.052516,10.9242005 Z M58.9251959,4.66956022 C59.1393959,3.12732015 60.3603359,2.0991601 61.966836,2.0991601 C63.5733361,2.0991601 64.6014961,3.17016015 64.6443362,4.66956022 L58.9251959,4.66956022 Z" id="Shape"></path>
                <path d="M74.9259366,10.9242005 C77.1750368,10.9242005 79.0814168,9.87462047 79.8096969,8.2467004 C79.9167969,8.03250039 79.7882769,7.88256038 79.5526569,7.88256038 L77.4320768,7.88256038 C77.2607168,7.88256038 77.1536168,7.94682038 77.0250967,8.07534039 C76.6395367,8.52516041 75.8684167,8.82504042 74.9901966,8.82504042 C73.4479566,8.82504042 72.2484365,7.92540038 71.8628765,6.51168031 L79.7668569,6.51168031 C79.9596369,6.51168031 80.0881569,6.42600031 80.1309969,6.2332203 C80.1524169,5.95476029 80.1738369,5.65488027 80.1738369,5.37642026 C80.1738369,2.1420001 78.0104168,0 74.7759966,0 C71.4558965,0 69.2282164,2.18484011 69.2282164,5.46210026 C69.2282164,8.73936042 71.5201565,10.9242005 74.9259366,10.9242005 Z M71.7986165,4.66956022 C72.0128165,3.12732015 73.2337566,2.0991601 74.8402566,2.0991601 C76.4467567,2.0991601 77.4749168,3.17016015 77.5177568,4.66956022 L71.7986165,4.66956022 Z" id="Shape"></path>
                <path d="M89.6200574,0 C88.0135573,0 86.6855172,0.492660024 85.7858772,1.34946006 C85.3788971,0.514080025 84.5006771,0 83.3439971,0 C82.937017,0 82.444357,0.0642600031 82.037377,0.21420001 C81.844597,0.278460013 81.780337,0.40698002 81.780337,0.599760029 L81.780337,2.0991601 C81.780337,2.31336011 81.951697,2.37762011 82.165897,2.35620011 C82.315837,2.33478011 82.615717,2.29194011 82.765657,2.29194011 C83.3868371,2.29194011 83.6652971,2.54898012 83.6652971,3.08448015 L83.6652971,10.2816005 C83.6652971,10.4743805 83.7938171,10.6029005 83.9865971,10.6029005 L85.9572372,10.6029005 C86.1500172,10.6029005 86.2785372,10.4743805 86.2785372,10.2816005 L86.2785372,4.86234023 C86.2785372,3.29868016 87.4137972,2.24910011 89.0631373,2.24910011 C90.6482174,2.24910011 91.6977975,3.36294016 91.6977975,5.01228024 L91.6977975,10.2816005 C91.6977975,10.4743805 91.8263175,10.6029005 92.0190975,10.6029005 L93.9897376,10.6029005 C94.1825176,10.6029005 94.3110376,10.4743805 94.3110376,10.2816005 L94.3110376,4.86234023 C94.3110376,1.94922009 92.4260775,0 89.6200574,0 Z" id="Path"></path>
                <path d="M8.52393345,31.8467827 C13.2363337,31.8467827 16.5778538,28.6123626 16.5778538,24.0499023 C16.5778538,19.4874421 13.2363337,16.253022 8.52393345,16.253022 C3.81153323,16.253022 0.470013066,19.4874421 0.470013066,24.0499023 C0.470013066,28.6123626 3.81153323,31.8467827 8.52393345,31.8467827 Z M8.52393345,29.4477426 C5.4180333,29.4477426 3.2331932,27.2200625 3.2331932,24.0499023 C3.2331932,20.8797422 5.4180333,18.6520621 8.52393345,18.6520621 C11.6298336,18.6520621 13.8146737,20.8797422 13.8146737,24.0499023 C13.8146737,27.2200625 11.6298336,29.4477426 8.52393345,29.4477426 Z" id="Shape"></path>
                <path d="M33.3068746,20.9440022 C31.6575346,20.9440022 30.3080745,21.5223422 29.4298545,22.5076623 C28.6373144,21.5223422 27.4592144,20.9440022 26.0026543,20.9440022 C24.5032542,20.9440022 23.2394742,21.4152422 22.3826741,22.2506223 C21.9756941,21.4366622 21.1188941,20.9440022 19.962214,20.9440022 C19.555234,20.9440022 19.062574,21.0082622 18.6555939,21.1582022 C18.4628139,21.2224622 18.3985539,21.3509822 18.3985539,21.5437622 L18.3985539,23.0431623 C18.3985539,23.2573623 18.5699139,23.3216223 18.7841139,23.3002023 C18.934054,23.2787823 19.233934,23.2359423 19.383874,23.2359423 C20.005054,23.2359423 20.283514,23.4929823 20.283514,24.0284823 L20.283514,31.2256027 C20.283514,31.4183827 20.412034,31.5469027 20.604814,31.5469027 L22.5754541,31.5469027 C22.7682341,31.5469027 22.8967541,31.4183827 22.8967541,31.2256027 L22.8967541,25.8063424 C22.8967541,24.2426824 23.9249142,23.1931023 25.4457343,23.1931023 C26.9022943,23.1931023 27.8447744,24.3069424 27.8447744,25.9562824 L27.8447744,31.2256027 C27.8447744,31.4183827 27.9732944,31.5469027 28.1660744,31.5469027 L30.1367145,31.5469027 C30.3294945,31.5469027 30.4580145,31.4183827 30.4580145,31.2256027 L30.4580145,25.8063424 C30.4580145,24.2426824 31.3790746,23.1931023 32.7499546,23.1931023 C34.3350347,23.1931023 35.3846147,24.3069424 35.3846147,25.9562824 L35.3846147,31.2256027 C35.3846147,31.4183827 35.5131348,31.5469027 35.7059148,31.5469027 L37.6765549,31.5469027 C37.8693349,31.5469027 37.9978549,31.4183827 37.9978549,31.2256027 L37.9978549,25.8063424 C37.9978549,22.8932223 36.1128948,20.9440022 33.3068746,20.9440022 Z" id="Path"></path>
                <path d="M49.1576754,21.1582022 C48.7292754,21.0296822 48.1080954,20.9440022 47.5511753,20.9440022 C46.1160353,20.9440022 44.8950952,21.5009222 43.9954552,22.4862423 C43.6527351,21.5223422 42.7316751,20.9440022 41.489315,20.9440022 C41.082335,20.9440022 40.589675,21.0296822 40.182695,21.1582022 C39.989915,21.2224622 39.925655,21.3509822 39.925655,21.5437622 L39.925655,23.0431623 C39.925655,23.2573623 40.097015,23.3216223 40.311215,23.3002023 C40.461155,23.2787823 40.761035,23.2359423 40.910975,23.2359423 C41.532155,23.2359423 41.8106151,23.4929823 41.8106151,24.0284823 L41.8106151,31.2256027 C41.8106151,31.4183827 41.9391351,31.5469027 42.1319151,31.5469027 L44.1025552,31.5469027 C44.2953352,31.5469027 44.4238552,31.4183827 44.4238552,31.2256027 L44.4238552,26.4061025 C44.4238552,24.5425624 45.7090552,23.3002023 47.5297553,23.3002023 C47.9581553,23.3002023 48.3865554,23.3430423 48.7506954,23.4073023 C48.9648954,23.4501423 49.0934154,23.3644623 49.1362554,23.1502623 L49.3932954,21.5437622 C49.4147154,21.3509822 49.3504554,21.2224622 49.1576754,21.1582022 Z" id="Path"></path>
                <path d="M52.8419156,19.0162021 C53.7201356,19.0162021 54.4698357,18.3521821 54.4698357,17.516802 C54.4698357,16.681422 53.7201356,16.017402 52.8419156,16.017402 C51.9422755,16.017402 51.2139955,16.681422 51.2139955,17.516802 C51.2139955,18.3521821 51.9422755,19.0162021 52.8419156,19.0162021 Z M51.8565955,31.5469027 L53.8272356,31.5469027 C54.0200156,31.5469027 54.1485356,31.4183827 54.1485356,31.2256027 L54.1485356,21.5866022 C54.1485356,21.3938222 54.0200156,21.2653022 53.8272356,21.2653022 L51.8565955,21.2653022 C51.6638155,21.2653022 51.5352955,21.3938222 51.5352955,21.5866022 L51.5352955,31.2256027 C51.5352955,31.4183827 51.6638155,31.5469027 51.8565955,31.5469027 Z" id="Shape"></path>
                <path d="M64.1302561,20.9440022 C62.523756,20.9440022 61.195716,21.4366622 60.2960759,22.2934623 C59.8890959,21.4580822 59.0108759,20.9440022 57.8541958,20.9440022 C57.4472158,20.9440022 56.9545558,21.0082622 56.5475758,21.1582022 C56.3547958,21.2224622 56.2905357,21.3509822 56.2905357,21.5437622 L56.2905357,23.0431623 C56.2905357,23.2573623 56.4618958,23.3216223 56.6760958,23.3002023 C56.8260358,23.2787823 57.1259158,23.2359423 57.2758558,23.2359423 C57.8970358,23.2359423 58.1754958,23.4929823 58.1754958,24.0284823 L58.1754958,31.2256027 C58.1754958,31.4183827 58.3040158,31.5469027 58.4967959,31.5469027 L60.467436,31.5469027 C60.660216,31.5469027 60.788736,31.4183827 60.788736,31.2256027 L60.788736,25.8063424 C60.788736,24.2426824 61.923996,23.1931023 63.5733361,23.1931023 C65.1584162,23.1931023 66.2079962,24.3069424 66.2079962,25.9562824 L66.2079962,31.2256027 C66.2079962,31.4183827 66.3365162,31.5469027 66.5292962,31.5469027 L68.4999363,31.5469027 C68.6927163,31.5469027 68.8212364,31.4183827 68.8212364,31.2256027 L68.8212364,25.8063424 C68.8212364,22.8932223 66.9362763,20.9440022 64.1302561,20.9440022 Z" id="Path"></path>
                <path d="M82.165897,21.2653022 L80.1952569,21.2653022 C80.0024769,21.2653022 79.8739569,21.3938222 79.8739569,21.5866022 L79.8739569,21.8864822 C78.9528968,21.2224622 77.9033168,20.9440022 76.8537367,20.9440022 C73.5336366,20.9440022 71.1774365,23.2145223 71.1774365,26.4061025 C71.1774365,29.5976826 73.5336366,31.8682027 76.8537367,31.8682027 C77.9033168,31.8682027 78.9528968,31.5897427 79.8739569,30.9257227 L79.8739569,31.7396827 C79.8739569,33.4318628 78.7386968,34.5457029 77.0250967,34.5457029 C75.6113767,34.5457029 74.5189566,33.9031028 74.2190766,32.8749428 C74.1548166,32.6821628 74.0477166,32.5964828 73.8549366,32.5964828 L71.8414565,32.5964828 C71.6272565,32.5964828 71.4987365,32.7250028 71.5415765,32.9392028 C71.9913965,35.2739829 74.1333966,36.794803 77.0250967,36.794803 C80.3023569,36.794803 82.487197,34.7813229 82.487197,31.7396827 L82.487197,21.5866022 C82.487197,21.3938222 82.358677,21.2653022 82.165897,21.2653022 Z M76.8751567,29.7262026 C75.0758767,29.7262026 73.7906766,28.3553226 73.7906766,26.4061025 C73.7906766,24.4568824 75.0758767,23.0860023 76.8751567,23.0860023 C78.6315968,23.0860023 79.8739569,24.4568824 79.8739569,26.4061025 C79.8739569,28.3553226 78.6315968,29.7262026 76.8751567,29.7262026 Z" id="Shape"></path>
                <path d="M86.3427972,27.1558025 L93.5184975,27.1558025 C93.7112775,27.1558025 93.8397976,27.0272825 93.8397976,26.8345025 L93.8397976,25.0138024 C93.8397976,24.8210224 93.7112775,24.6925024 93.5184975,24.6925024 L86.3427972,24.6925024 C86.1500172,24.6925024 86.0214972,24.8210224 86.0214972,25.0138024 L86.0214972,26.8345025 C86.0214972,27.0272825 86.1500172,27.1558025 86.3427972,27.1558025 Z" id="Path"></path>
                <path d="M13.8146737,52.8122049 C14.2859137,52.8122049 14.7357338,52.7265249 15.2712338,52.5551649 C15.4640138,52.4909049 15.5496938,52.3623849 15.5282738,52.1696049 L15.3569138,50.6916248 C15.3354938,50.4774248 15.1855538,50.3917448 14.9713538,50.4345848 C14.6286337,50.4988448 14.4358537,50.5202648 14.1788137,50.5202648 C13.7289937,50.5202648 13.4291137,50.1989648 13.4291137,49.7277248 L13.4291137,36.9614042 C13.4291137,36.7686241 13.3005937,36.6401041 13.1078137,36.6401041 L11.1371736,36.6401041 C10.9443936,36.6401041 10.8158736,36.7686241 10.8158736,36.9614042 L10.8158736,50.4345848 C10.8158736,51.8697249 12.0153936,52.8122049 13.8146737,52.8122049 Z" id="Path"></path>
                <path d="M22.8539141,52.8122049 C26.2811143,52.8122049 28.5730544,50.6273648 28.5730544,47.3501047 C28.5730544,44.0728445 26.2811143,41.8880044 22.8539141,41.8880044 C19.426714,41.8880044 17.1347739,44.0728445 17.1347739,47.3501047 C17.1347739,50.6273648 19.426714,52.8122049 22.8539141,52.8122049 Z M22.8539141,50.5631048 C20.9903741,50.5631048 19.748014,49.2779047 19.748014,47.3501047 C19.748014,45.4223046 20.9903741,44.1371045 22.8539141,44.1371045 C24.7174542,44.1371045 25.9598143,45.4223046 25.9598143,47.3501047 C25.9598143,49.2779047 24.7174542,50.5631048 22.8539141,50.5631048 Z" id="Shape"></path>
                <path d="M36.1985748,52.8122049 C38.9189149,52.8122049 40.932395,51.3556448 41.382215,49.1279647 C41.425055,48.9137647 41.317955,48.7852447 41.103755,48.7852447 L39.0688549,48.7852447 C38.8760749,48.7852447 38.7903949,48.8709247 38.7261349,49.0637047 C38.4262549,49.9847648 37.4409348,50.5845248 36.1985748,50.5845248 C34.3350347,50.5845248 33.1140946,49.2993248 33.1140946,47.3501047 C33.1140946,45.4008846 34.3350347,44.1156845 36.1985748,44.1156845 C37.4409348,44.1156845 38.4262549,44.7154445 38.7261349,45.6365046 C38.7903949,45.8292846 38.8760749,45.9149646 39.0688549,45.9149646 L41.103755,45.9149646 C41.317955,45.9149646 41.425055,45.7864446 41.382215,45.5722446 C40.932395,43.3445645 38.9189149,41.8880044 36.1985748,41.8880044 C32.7713746,41.8880044 30.5008545,44.0728445 30.5008545,47.3501047 C30.5008545,50.6273648 32.7713746,52.8122049 36.1985748,52.8122049 Z" id="Path"></path>
                <path d="M56.7189358,52.1696049 L56.5475758,50.6916248 C56.5261558,50.4774248 56.3762158,50.3917448 56.1620157,50.4345848 C55.8192957,50.4988448 55.6265157,50.5202648 55.3694757,50.5202648 C54.9196557,50.5202648 54.6197757,50.1989648 54.6197757,49.7277248 L54.6197757,42.5306044 C54.6197757,42.3378244 54.4912557,42.2093044 54.2984757,42.2093044 L52.3278356,42.2093044 C52.1350556,42.2093044 52.0065355,42.3378244 52.0065355,42.5306044 L52.0065355,42.8304844 C51.0854755,42.1664644 50.0358954,41.8880044 48.9863154,41.8880044 C45.6662152,41.8880044 43.3100151,44.1585245 43.3100151,47.3501047 C43.3100151,50.5416848 45.6662152,52.8122049 48.9863154,52.8122049 C50.3571955,52.8122049 51.4710355,52.4052249 52.5206156,51.4841649 C52.9275956,52.3195449 53.8272356,52.8122049 55.0053357,52.8122049 C55.4765757,52.8122049 55.9263957,52.7265249 56.4618958,52.5551649 C56.6546758,52.4909049 56.7403558,52.3623849 56.7189358,52.1696049 Z M49.0077354,50.6702048 C47.2084553,50.6702048 45.9232553,49.2993248 45.9232553,47.3501047 C45.9232553,45.4008846 47.2084553,44.0300045 49.0077354,44.0300045 C50.7641755,44.0300045 52.0065355,45.4008846 52.0065355,47.3501047 C52.0065355,49.2993248 50.7641755,50.6702048 49.0077354,50.6702048 Z" id="Shape"></path>
                <path d="M64.0874161,52.8122049 C64.7085962,52.8122049 65.6296562,52.6836849 66.4650362,52.4694849 C66.6578162,52.4052249 66.7434963,52.2767049 66.7220763,52.0839249 L66.4650362,50.5845248 C66.4221962,50.3917448 66.2936762,50.2846448 66.0794762,50.3274848 C65.5439762,50.4560048 64.9013762,50.5202648 64.3872961,50.5202648 C63.2734561,50.5202648 62.5451761,49.7491448 62.5451761,48.5924647 L62.5451761,44.2870445 L66.1865762,44.2870445 C66.3793562,44.2870445 66.5078762,44.1585245 66.5078762,43.9657445 L66.5078762,42.5306044 C66.5078762,42.3378244 66.3793562,42.2093044 66.1865762,42.2093044 L62.5451761,42.2093044 L62.5451761,39.3604443 C62.5451761,39.1676643 62.416656,39.0391443 62.223876,39.0391443 L60.2532359,39.0391443 C60.0604559,39.0391443 59.9319359,39.1676643 59.9319359,39.3604443 L59.9319359,42.2093044 L57.7899358,42.2093044 C57.5971558,42.2093044 57.4686358,42.3378244 57.4686358,42.5306044 L57.4686358,43.9657445 C57.4686358,44.1585245 57.5971558,44.2870445 57.7899358,44.2870445 L59.9319359,44.2870445 L59.9319359,48.6781447 C59.9319359,51.1628648 61.602696,52.8122049 64.0874161,52.8122049 Z" id="Path"></path>
                <path d="M70.1706964,39.9602043 C71.0489165,39.9602043 71.7986165,39.2961843 71.7986165,38.4608042 C71.7986165,37.6254242 71.0489165,36.9614042 70.1706964,36.9614042 C69.2710564,36.9614042 68.5427763,37.6254242 68.5427763,38.4608042 C68.5427763,39.2961843 69.2710564,39.9602043 70.1706964,39.9602043 Z M69.1853764,52.4909049 L71.1560165,52.4909049 C71.3487965,52.4909049 71.4773165,52.3623849 71.4773165,52.1696049 L71.4773165,42.5306044 C71.4773165,42.3378244 71.3487965,42.2093044 71.1560165,42.2093044 L69.1853764,42.2093044 C68.9925964,42.2093044 68.8640764,42.3378244 68.8640764,42.5306044 L68.8640764,52.1696049 C68.8640764,52.3623849 68.9925964,52.4909049 69.1853764,52.4909049 Z" id="Shape"></path>
                <path d="M79.6383369,52.8122049 C81.887437,52.8122049 83.7938171,51.7626249 84.5220971,50.1347048 C84.6291971,49.9205048 84.5006771,49.7705648 84.2650571,49.7705648 L82.144477,49.7705648 C81.973117,49.7705648 81.866017,49.8348248 81.737497,49.9633448 C81.351937,50.4131648 80.5808169,50.7130448 79.7025969,50.7130448 C78.1603568,50.7130448 76.9608367,49.8134048 76.5752767,48.3996847 L84.4792571,48.3996847 C84.6720371,48.3996847 84.8005571,48.3140047 84.8433971,48.1212247 C84.8648171,47.8427647 84.8862371,47.5428847 84.8862371,47.2644247 C84.8862371,44.0300045 82.722817,41.8880044 79.4883969,41.8880044 C76.1682967,41.8880044 73.9406166,44.0728445 73.9406166,47.3501047 C73.9406166,50.6273648 76.2325567,52.8122049 79.6383369,52.8122049 Z M76.5110167,46.5575646 C76.7252167,45.0153245 77.9461568,43.9871645 79.5526569,43.9871645 C81.1591569,43.9871645 82.187317,45.0581645 82.230157,46.5575646 L76.5110167,46.5575646 Z" id="Shape"></path>
            </g>
        </g>
    </g>
</svg>