<?xml version="1.0" encoding="UTF-8"?>
<svg width="130px" height="219px" viewBox="0 0 130 219" version="1.1" xmlns="http://www.w3.org/2000/svg" xmlns:xlink="http://www.w3.org/1999/xlink">
    <title>Group 2</title>
    <defs>
        <rect id="path-1" x="0" y="0" width="73.3999994" height="39.8999995" rx="19.9499997"></rect>
        <filter x="-8.2%" y="-15.0%" width="116.3%" height="130.1%" filterUnits="objectBoundingBox" id="filter-2">
            <feOffset dx="0" dy="0" in="SourceAlpha" result="shadowOffsetOuter1"></feOffset>
            <feGaussianBlur stdDeviation="2" in="shadowOffsetOuter1" result="shadowBlurOuter1"></feGaussianBlur>
            <feColorMatrix values="0 0 0 0 0   0 0 0 0 0.368045807   0 0 0 0 0.361608624  0 0 0 0.5 0" type="matrix" in="shadowBlurOuter1"></feColorMatrix>
        </filter>
    </defs>
    <g id="Spotlight-3---Okt_Dec----HTML-5-banners" stroke="none" stroke-width="1" fill="none" fill-rule="evenodd">
        <g id="336x280px_3" transform="translate(-25.000000, -32.000000)">
            <g id="Group-2" transform="translate(29.724999, 36.000000)">
                <g id="€-10,--donatie-voor" transform="translate(0.702239, 57.552001)" fill="#FFFFFF" fill-rule="nonzero">
                    <path d="M22.8687623,12.376 L19.3967623,12.376 C19.1167623,12.376 18.9207623,12.544 18.8087623,12.852 C18.0527623,15.204 16.0367623,16.576 13.4327623,16.576 C10.8847623,16.576 8.92476228,15.372 7.94476228,13.384 L13.2647623,13.384 C13.5727623,13.384 13.7687623,13.244 13.8247623,12.936 L14.1887623,11.676 C14.2727623,11.312 14.1047623,11.088 13.7407623,11.088 L7.32876228,11.088 C7.30076228,10.808 7.27276228,10.528 7.27276228,10.22 C7.27276228,9.94 7.30076228,9.66 7.32876228,9.38 L14.3007623,9.38 C14.6087623,9.38 14.8327623,9.24 14.8887623,8.932 L15.2247623,7.7 C15.3367623,7.336 15.1687623,7.112 14.8047623,7.112 L7.94476228,7.112 C8.89676228,5.124 10.8847623,3.892 13.4327623,3.892 C16.0647623,3.892 17.9407623,5.292 18.8087623,7.644 C18.9207623,7.952 19.1167623,8.092 19.3967623,8.092 L22.8687623,8.092 C23.2327623,8.092 23.4287623,7.868 23.3727623,7.532 C22.5047623,2.912 18.5567623,0 13.4047623,0 C8.16876228,0 4.38876228,2.744 3.18476228,7.112 L1.11276228,7.112 C0.80476228,7.112 0.58076228,7.308 0.58076228,7.616 L0.58076228,8.876 C0.58076228,9.184 0.80476228,9.38 1.11276228,9.38 L2.82076228,9.38 C2.79276228,9.66 2.79276228,9.94 2.79276228,10.22 C2.79276228,10.528 2.79276228,10.808 2.82076228,11.088 L1.11276228,11.088 C0.80476228,11.088 0.58076228,11.312 0.58076228,11.62 L0.58076228,12.852 C0.58076228,13.188 0.80476228,13.384 1.11276228,13.384 L3.21276228,13.384 C4.41676228,17.752 8.19676228,20.468 13.4047623,20.468 C18.5567623,20.468 22.5047623,17.584 23.3727623,12.936 C23.4287623,12.6 23.2327623,12.376 22.8687623,12.376 Z" id="Path"></path>
                    <path d="M40.5927623,0.448 L32.4167623,0.448 C32.1087623,0.448 31.9687623,0.616 31.9687623,0.924 L31.9687623,3.528 C31.9687623,3.864 32.1927623,4.004 32.5287623,4.004 L36.8407623,4.004 L36.8407623,19.516 C36.8407623,19.852 37.0647623,20.048 37.4007623,20.048 L40.5927623,20.048 C40.9287623,20.048 41.1247623,19.852 41.1247623,19.516 L41.1247623,0.98 C41.1247623,0.644 40.9287623,0.448 40.5927623,0.448 Z" id="Path"></path>
                    <path d="M53.1647623,0 C48.1247623,0 44.7927623,3.136 44.7927623,7.868 L44.7927623,12.628 C44.7927623,17.36 48.1247623,20.496 53.1647623,20.496 C58.1767623,20.496 61.5367623,17.36 61.5367623,12.628 L61.5367623,7.868 C61.5367623,3.136 58.1767623,0 53.1647623,0 Z M57.3367623,12.628 C57.3367623,15.176 55.6567623,16.884 53.1647623,16.884 C50.6447623,16.884 48.9647623,15.176 48.9647623,12.628 L48.9647623,7.868 C48.9647623,5.32 50.6447623,3.612 53.1647623,3.612 C55.6567623,3.612 57.3367623,5.32 57.3367623,7.868 L57.3367623,12.628 Z" id="Shape"></path>
                    <path d="M66.1287623,16.184 C64.8127623,16.184 63.7207623,17.136 63.7207623,18.34 C63.7207623,19.208 64.3087623,19.908 65.1207623,20.216 L63.9167623,22.932 C63.7487623,23.324 63.9167623,23.548 64.3087623,23.548 L65.5407623,23.548 C65.8207623,23.548 66.0447623,23.464 66.1847623,23.212 L67.8647623,20.16 C68.2567623,19.488 68.5367623,18.928 68.5367623,18.34 C68.5367623,17.136 67.4447623,16.184 66.1287623,16.184 Z" id="Path"></path>
                    <path d="M72.5687623,14.644 L82.0607623,14.644 C82.3687623,14.644 82.5927623,14.448 82.5927623,14.14 L82.5927623,11.368 C82.5927623,11.032 82.3687623,10.836 82.0607623,10.836 L72.5687623,10.836 C72.2607623,10.836 72.0647623,11.032 72.0647623,11.368 L72.0647623,14.14 C72.0647623,14.448 72.2607623,14.644 72.5687623,14.644 Z" id="Path"></path>
                    <path d="M18.7807623,53.572 L18.5287623,51.248 C18.5007623,50.884 18.2767623,50.772 17.9127623,50.8 C17.5767623,50.884 17.3527623,50.884 17.0727623,50.884 C16.4847623,50.884 16.1487623,50.52 16.1487623,49.82 L16.1487623,33.86 C16.1487623,33.524 15.9527623,33.328 15.6167623,33.328 L12.4527623,33.328 C12.1167623,33.328 11.9207623,33.524 11.9207623,33.86 L11.9207623,41.224 C10.7727623,40.384 9.45676228,40.02 8.02876228,40.02 C3.68876228,40.02 0.66476228,42.988 0.66476228,47.272 C0.66476228,51.528 3.68876228,54.496 8.02876228,54.496 C9.90476228,54.496 11.4447623,53.908 12.6767623,52.732 C13.2647623,53.852 14.5527623,54.496 16.2047623,54.496 C16.9047623,54.496 17.6047623,54.384 18.3607623,54.16 C18.6967623,54.076 18.8367623,53.88 18.7807623,53.572 Z M8.39276228,51.22 C6.26476228,51.22 4.78076228,49.596 4.78076228,47.272 C4.78076228,44.92 6.26476228,43.296 8.39276228,43.296 C10.4927623,43.296 11.9207623,44.92 11.9207623,47.272 C11.9207623,49.596 10.4927623,51.22 8.39276228,51.22 Z" id="Shape"></path>
                    <path d="M28.2727623,54.496 C32.8927623,54.496 35.9727623,51.612 35.9727623,47.272 C35.9727623,42.904 32.8927623,40.02 28.2727623,40.02 C23.6527623,40.02 20.5727623,42.904 20.5727623,47.272 C20.5727623,51.612 23.6527623,54.496 28.2727623,54.496 Z M28.2727623,51.024 C26.0607623,51.024 24.5767623,49.54 24.5767623,47.272 C24.5767623,45.004 26.0607623,43.492 28.2727623,43.492 C30.4847623,43.492 31.9687623,45.004 31.9687623,47.272 C31.9687623,49.54 30.4847623,51.024 28.2727623,51.024 Z" id="Shape"></path>
                    <path d="M48.4607623,40.02 C46.4167623,40.02 44.6807623,40.664 43.5607623,41.784 C42.9727623,40.692 41.7687623,40.02 40.2007623,40.02 C39.5567623,40.02 38.8287623,40.104 38.1847623,40.356 C37.8767623,40.468 37.7647623,40.636 37.7647623,40.972 L37.7647623,43.268 C37.7647623,43.632 38.0167623,43.716 38.3807623,43.716 C38.5487623,43.688 38.8287623,43.632 38.9967623,43.632 C39.7807623,43.632 40.0887623,43.968 40.0887623,44.724 L40.0887623,53.516 C40.0887623,53.852 40.2847623,54.048 40.6207623,54.048 L43.7567623,54.048 C44.0927623,54.048 44.2887623,53.852 44.2887623,53.516 L44.2887623,46.628 C44.2887623,44.78 45.5487623,43.604 47.3967623,43.604 C49.1887623,43.604 50.3367623,44.864 50.3367623,46.768 L50.3367623,53.516 C50.3367623,53.852 50.5607623,54.048 50.8967623,54.048 L54.0327623,54.048 C54.3687623,54.048 54.5647623,53.852 54.5647623,53.516 L54.5647623,46.208 C54.5647623,42.484 52.1287623,40.02 48.4607623,40.02 Z" id="Path"></path>
                    <path d="M75.3127623,53.572 L75.0327623,51.248 C75.0047623,50.884 74.7807623,50.772 74.4447623,50.8 C74.0807623,50.884 73.8567623,50.884 73.5767623,50.884 C72.9887623,50.884 72.6527623,50.52 72.6527623,49.792 L72.6527623,41 C72.6527623,40.664 72.4567623,40.468 72.1207623,40.468 L69.0407623,40.468 C68.7047623,40.468 68.5087623,40.664 68.5087623,41 L68.5087623,41.308 C67.3887623,40.44 66.0167623,40.02 64.5327623,40.02 C60.1927623,40.02 57.1687623,42.988 57.1687623,47.272 C57.1687623,51.528 60.1927623,54.496 64.5327623,54.496 C66.3527623,54.496 67.9207623,53.936 69.2367623,52.788 C69.8247623,53.852 71.0567623,54.496 72.7647623,54.496 C73.4367623,54.496 74.1087623,54.384 74.8647623,54.16 C75.2007623,54.076 75.3407623,53.88 75.3127623,53.572 Z M64.8967623,51.22 C62.7687623,51.22 61.2847623,49.596 61.2847623,47.272 C61.2847623,44.92 62.7687623,43.296 64.8967623,43.296 C66.9967623,43.296 68.4247623,44.92 68.4247623,47.272 C68.4247623,49.596 66.9967623,51.22 64.8967623,51.22 Z" id="Shape"></path>
                    <path d="M85.1687623,54.496 C86.0367623,54.496 87.3247623,54.328 88.4447623,54.048 C88.7807623,53.936 88.8927623,53.74 88.8647623,53.432 L88.5007623,51.024 C88.4447623,50.716 88.2207623,50.548 87.8847623,50.604 C87.2127623,50.772 86.4007623,50.856 85.7847623,50.856 C84.3847623,50.856 83.4607623,49.988 83.4607623,48.56 L83.4607623,43.856 L87.8567623,43.856 C88.1647623,43.856 88.3887623,43.66 88.3887623,43.324 L88.3887623,41 C88.3887623,40.664 88.1647623,40.468 87.8567623,40.468 L83.4607623,40.468 L83.4607623,36.912 C83.4607623,36.576 83.2647623,36.38 82.9287623,36.38 L79.7927623,36.38 C79.4567623,36.38 79.2607623,36.576 79.2607623,36.912 L79.2607623,40.468 L76.6847623,40.468 C76.3487623,40.468 76.1527623,40.664 76.1527623,41 L76.1527623,43.324 C76.1527623,43.66 76.3487623,43.856 76.6847623,43.856 L79.2607623,43.856 L79.2607623,48.7 C79.2607623,52.284 81.5287623,54.496 85.1687623,54.496 Z" id="Path"></path>
                    <path d="M93.4567623,37.976 C94.8567623,37.976 95.9487623,36.968 95.9487623,35.652 C95.9487623,34.336 94.8567623,33.356 93.4567623,33.356 C92.0567623,33.356 90.9647623,34.336 90.9647623,35.652 C90.9647623,36.968 92.0567623,37.976 93.4567623,37.976 Z M91.8887623,54.048 L95.0247623,54.048 C95.3607623,54.048 95.5567623,53.852 95.5567623,53.516 L95.5567623,41 C95.5567623,40.664 95.3607623,40.468 95.0247623,40.468 L91.8887623,40.468 C91.5527623,40.468 91.3567623,40.664 91.3567623,41 L91.3567623,53.516 C91.3567623,53.852 91.5527623,54.048 91.8887623,54.048 Z" id="Shape"></path>
                    <path d="M106.140762,54.496 C109.304762,54.496 111.824762,53.068 112.776762,50.744 C112.916762,50.408 112.720762,50.184 112.328762,50.184 L109.192762,50.184 C108.912762,50.184 108.744762,50.296 108.520762,50.464 C108.044762,50.996 107.204762,51.304 106.224762,51.304 C104.376762,51.304 102.976762,50.268 102.528762,48.588 L112.580762,48.588 C112.888762,48.588 113.112762,48.448 113.168762,48.112 C113.168762,47.804 113.196762,47.468 113.196762,47.16 C113.196762,42.904 110.424762,40.02 105.888762,40.02 C101.436762,40.02 98.4407623,42.904 98.4407623,47.272 C98.4407623,51.612 101.548762,54.496 106.140762,54.496 Z M102.500762,46.096 C102.752762,44.332 104.152762,43.128 106.000762,43.128 C107.876762,43.128 109.108762,44.36 109.192762,46.096 L102.500762,46.096 Z" id="Shape"></path>
                    <path d="M6.48876228,88.048 L9.62476228,88.048 C9.90476228,88.048 10.1007623,87.908 10.2127623,87.656 L16.0647623,75.084 C16.2327623,74.72 16.0367623,74.468 15.6447623,74.468 L12.3407623,74.468 C12.0607623,74.468 11.8647623,74.608 11.7527623,74.86 L8.05676228,82.98 L4.41676228,74.86 C4.30476228,74.608 4.10876228,74.468 3.80076228,74.468 L0.46876228,74.468 C0.0767622797,74.468 -0.0912377203,74.72 0.0487622797,75.084 L5.90076228,87.656 C6.01276228,87.908 6.20876228,88.048 6.48876228,88.048 Z" id="Path"></path>
                    <path d="M25.3327623,88.496 C29.9527623,88.496 33.0327623,85.612 33.0327623,81.272 C33.0327623,76.904 29.9527623,74.02 25.3327623,74.02 C20.7127623,74.02 17.6327623,76.904 17.6327623,81.272 C17.6327623,85.612 20.7127623,88.496 25.3327623,88.496 Z M25.3327623,85.024 C23.1207623,85.024 21.6367623,83.54 21.6367623,81.272 C21.6367623,79.004 23.1207623,77.492 25.3327623,77.492 C27.5447623,77.492 29.0287623,79.004 29.0287623,81.272 C29.0287623,83.54 27.5447623,85.024 25.3327623,85.024 Z" id="Shape"></path>
                    <path d="M42.9167623,88.496 C47.5367623,88.496 50.6167623,85.612 50.6167623,81.272 C50.6167623,76.904 47.5367623,74.02 42.9167623,74.02 C38.2967623,74.02 35.2167623,76.904 35.2167623,81.272 C35.2167623,85.612 38.2967623,88.496 42.9167623,88.496 Z M42.9167623,85.024 C40.7047623,85.024 39.2207623,83.54 39.2207623,81.272 C39.2207623,79.004 40.7047623,77.492 42.9167623,77.492 C45.1287623,77.492 46.6127623,79.004 46.6127623,81.272 C46.6127623,83.54 45.1287623,85.024 42.9167623,85.024 Z" id="Shape"></path>
                    <path d="M64.7287623,74.272 C64.2247623,74.104 63.4687623,74.02 62.7967623,74.02 C60.9487623,74.02 59.3527623,74.692 58.2327623,75.924 C57.7007623,74.748 56.4687623,74.02 54.8447623,74.02 C54.2007623,74.02 53.4727623,74.132 52.8287623,74.356 C52.5207623,74.468 52.4087623,74.636 52.4087623,74.972 L52.4087623,77.268 C52.4087623,77.632 52.6607623,77.716 53.0247623,77.716 C53.1927623,77.688 53.4727623,77.632 53.6407623,77.632 C54.4247623,77.632 54.7327623,77.968 54.7327623,78.724 L54.7327623,87.516 C54.7327623,87.852 54.9287623,88.048 55.2647623,88.048 L58.4007623,88.048 C58.7367623,88.048 58.9327623,87.852 58.9327623,87.516 L58.9327623,81.496 C58.9327623,79.2 60.5007623,77.856 62.6287623,77.856 C63.1607623,77.856 63.7487623,77.912 64.1687623,77.996 C64.5047623,78.052 64.7287623,77.912 64.7847623,77.576 L65.1487623,74.888 C65.1767623,74.58 65.0647623,74.356 64.7287623,74.272 Z" id="Path"></path>
                    <path d="M81.8367623,88.496 C85.0007623,88.496 87.5207623,87.068 88.4727623,84.744 C88.6127623,84.408 88.4167623,84.184 88.0247623,84.184 L84.8887623,84.184 C84.6087623,84.184 84.4407623,84.296 84.2167623,84.464 C83.7407623,84.996 82.9007623,85.304 81.9207623,85.304 C80.0727623,85.304 78.6727623,84.268 78.2247623,82.588 L88.2767623,82.588 C88.5847623,82.588 88.8087623,82.448 88.8647623,82.112 C88.8647623,81.804 88.8927623,81.468 88.8927623,81.16 C88.8927623,76.904 86.1207623,74.02 81.5847623,74.02 C77.1327623,74.02 74.1367623,76.904 74.1367623,81.272 C74.1367623,85.612 77.2447623,88.496 81.8367623,88.496 Z M78.1967623,80.096 C78.4487623,78.332 79.8487623,77.128 81.6967623,77.128 C83.5727623,77.128 84.8047623,78.36 84.8887623,80.096 L78.1967623,80.096 Z" id="Shape"></path>
                    <path d="M98.8327623,88.496 C101.996762,88.496 104.516762,87.068 105.468762,84.744 C105.608762,84.408 105.412762,84.184 105.020762,84.184 L101.884762,84.184 C101.604762,84.184 101.436762,84.296 101.212762,84.464 C100.736762,84.996 99.8967623,85.304 98.9167623,85.304 C97.0687623,85.304 95.6687623,84.268 95.2207623,82.588 L105.272762,82.588 C105.580762,82.588 105.804762,82.448 105.860762,82.112 C105.860762,81.804 105.888762,81.468 105.888762,81.16 C105.888762,76.904 103.116762,74.02 98.5807623,74.02 C94.1287623,74.02 91.1327623,76.904 91.1327623,81.272 C91.1327623,85.612 94.2407623,88.496 98.8327623,88.496 Z M95.1927623,80.096 C95.4447623,78.332 96.8447623,77.128 98.6927623,77.128 C100.568762,77.128 101.800762,78.36 101.884762,80.096 L95.1927623,80.096 Z" id="Shape"></path>
                    <path d="M118.404762,74.02 C116.360762,74.02 114.624762,74.664 113.504762,75.784 C112.916762,74.692 111.712762,74.02 110.144762,74.02 C109.500762,74.02 108.772762,74.104 108.128762,74.356 C107.820762,74.468 107.708762,74.636 107.708762,74.972 L107.708762,77.268 C107.708762,77.632 107.960762,77.716 108.324762,77.716 C108.492762,77.688 108.772762,77.632 108.940762,77.632 C109.724762,77.632 110.032762,77.968 110.032762,78.724 L110.032762,87.516 C110.032762,87.852 110.228762,88.048 110.564762,88.048 L113.700762,88.048 C114.036762,88.048 114.232762,87.852 114.232762,87.516 L114.232762,80.628 C114.232762,78.78 115.492762,77.604 117.340762,77.604 C119.132762,77.604 120.280762,78.864 120.280762,80.768 L120.280762,87.516 C120.280762,87.852 120.504762,88.048 120.840762,88.048 L123.976762,88.048 C124.312762,88.048 124.508762,87.852 124.508762,87.516 L124.508762,80.208 C124.508762,76.484 122.072762,74.02 118.404762,74.02 Z" id="Path"></path>
                    <path d="M11.5847623,122.468 C17.8567623,122.468 22.2527623,118.268 22.2527623,112.248 C22.2527623,106.228 17.8567623,102.028 11.5847623,102.028 C5.28476228,102.028 0.91676228,106.228 0.91676228,112.248 C0.91676228,118.268 5.28476228,122.468 11.5847623,122.468 Z M11.5847623,118.66 C7.91676228,118.66 5.36876228,116.028 5.36876228,112.248 C5.36876228,108.468 7.91676228,105.836 11.5847623,105.836 C15.2247623,105.836 17.8007623,108.468 17.8007623,112.248 C17.8007623,116.028 15.2247623,118.66 11.5847623,118.66 Z" id="Shape"></path>
                    <path d="M44.0927623,108.02 C42.0207623,108.02 40.2847623,108.748 39.1927623,110.008 C38.1847623,108.748 36.6727623,108.02 34.7687623,108.02 C32.7807623,108.02 31.1007623,108.636 30.0087623,109.728 C29.4487623,108.664 28.2727623,108.02 26.7047623,108.02 C26.0607623,108.02 25.3327623,108.104 24.6887623,108.356 C24.3807623,108.468 24.2687623,108.636 24.2687623,108.972 L24.2687623,111.268 C24.2687623,111.632 24.5207623,111.716 24.8847623,111.716 C25.0527623,111.688 25.3327623,111.632 25.5007623,111.632 C26.2847623,111.632 26.5927623,111.968 26.5927623,112.724 L26.5927623,121.516 C26.5927623,121.852 26.7887623,122.048 27.1247623,122.048 L30.2607623,122.048 C30.5967623,122.048 30.7927623,121.852 30.7927623,121.516 L30.7927623,114.628 C30.7927623,112.78 31.9127623,111.604 33.6207623,111.604 C35.2447623,111.604 36.2807623,112.864 36.2807623,114.768 L36.2807623,121.516 C36.2807623,121.852 36.5047623,122.048 36.8127623,122.048 L39.9767623,122.048 C40.2847623,122.048 40.5087623,121.852 40.5087623,121.516 L40.5087623,114.628 C40.5087623,112.78 41.5167623,111.604 43.0567623,111.604 C44.8207623,111.604 45.9407623,112.864 45.9407623,114.768 L45.9407623,121.516 C45.9407623,121.852 46.1647623,122.048 46.4727623,122.048 L49.6087623,122.048 C49.9447623,122.048 50.1687623,121.852 50.1687623,121.516 L50.1687623,114.208 C50.1687623,110.484 47.7327623,108.02 44.0927623,108.02 Z" id="Path"></path>
                    <path d="M64.7007623,108.272 C64.1967623,108.104 63.4407623,108.02 62.7687623,108.02 C60.9207623,108.02 59.3247623,108.692 58.2047623,109.924 C57.6727623,108.748 56.4407623,108.02 54.8167623,108.02 C54.1727623,108.02 53.4447623,108.132 52.8007623,108.356 C52.4927623,108.468 52.3807623,108.636 52.3807623,108.972 L52.3807623,111.268 C52.3807623,111.632 52.6327623,111.716 52.9967623,111.716 C53.1647623,111.688 53.4447623,111.632 53.6127623,111.632 C54.3967623,111.632 54.7047623,111.968 54.7047623,112.724 L54.7047623,121.516 C54.7047623,121.852 54.9007623,122.048 55.2367623,122.048 L58.3727623,122.048 C58.7087623,122.048 58.9047623,121.852 58.9047623,121.516 L58.9047623,115.496 C58.9047623,113.2 60.4727623,111.856 62.6007623,111.856 C63.1327623,111.856 63.7207623,111.912 64.1407623,111.996 C64.4767623,112.052 64.7007623,111.912 64.7567623,111.576 L65.1207623,108.888 C65.1487623,108.58 65.0367623,108.356 64.7007623,108.272 Z" id="Path"></path>
                    <path d="M69.7127623,105.976 C71.1127623,105.976 72.2047623,104.968 72.2047623,103.652 C72.2047623,102.336 71.1127623,101.356 69.7127623,101.356 C68.3127623,101.356 67.2207623,102.336 67.2207623,103.652 C67.2207623,104.968 68.3127623,105.976 69.7127623,105.976 Z M68.1447623,122.048 L71.2807623,122.048 C71.6167623,122.048 71.8127623,121.852 71.8127623,121.516 L71.8127623,109 C71.8127623,108.664 71.6167623,108.468 71.2807623,108.468 L68.1447623,108.468 C67.8087623,108.468 67.6127623,108.664 67.6127623,109 L67.6127623,121.516 C67.6127623,121.852 67.8087623,122.048 68.1447623,122.048 Z" id="Shape"></path>
                    <path d="M84.9727623,108.02 C82.9287623,108.02 81.1927623,108.664 80.0727623,109.784 C79.4847623,108.692 78.2807623,108.02 76.7127623,108.02 C76.0687623,108.02 75.3407623,108.104 74.6967623,108.356 C74.3887623,108.468 74.2767623,108.636 74.2767623,108.972 L74.2767623,111.268 C74.2767623,111.632 74.5287623,111.716 74.8927623,111.716 C75.0607623,111.688 75.3407623,111.632 75.5087623,111.632 C76.2927623,111.632 76.6007623,111.968 76.6007623,112.724 L76.6007623,121.516 C76.6007623,121.852 76.7967623,122.048 77.1327623,122.048 L80.2687623,122.048 C80.6047623,122.048 80.8007623,121.852 80.8007623,121.516 L80.8007623,114.628 C80.8007623,112.78 82.0607623,111.604 83.9087623,111.604 C85.7007623,111.604 86.8487623,112.864 86.8487623,114.768 L86.8487623,121.516 C86.8487623,121.852 87.0727623,122.048 87.4087623,122.048 L90.5447623,122.048 C90.8807623,122.048 91.0767623,121.852 91.0767623,121.516 L91.0767623,114.208 C91.0767623,110.484 88.6407623,108.02 84.9727623,108.02 Z" id="Path"></path>
                    <path d="M108.744762,108.468 L105.664762,108.468 C105.328762,108.468 105.132762,108.664 105.132762,109 L105.132762,109.308 C104.012762,108.44 102.640762,108.02 101.156762,108.02 C96.8447623,108.02 93.7927623,111.016 93.7927623,115.216 C93.7927623,119.444 96.8447623,122.44 101.156762,122.44 C102.556762,122.44 103.928762,122.076 105.048762,121.236 L105.048762,122.412 C105.048762,124.344 103.760762,125.604 101.744762,125.604 C100.120762,125.604 98.8887623,124.904 98.5247623,123.784 C98.3847623,123.504 98.2167623,123.364 97.9087623,123.364 L94.7727623,123.364 C94.4087623,123.364 94.1847623,123.56 94.2687623,123.896 C94.8287623,127.004 97.7407623,129.02 101.772762,129.02 C106.252762,129.02 109.276762,126.36 109.276762,122.384 L109.276762,109 C109.276762,108.664 109.052762,108.468 108.744762,108.468 Z M101.520762,119.136 C99.4207623,119.136 97.9087623,117.54 97.9087623,115.216 C97.9087623,112.92 99.4207623,111.296 101.520762,111.296 C103.592762,111.296 105.048762,112.92 105.048762,115.216 C105.048762,117.54 103.592762,119.136 101.520762,119.136 Z" id="Shape"></path>
                    <path d="M114.148762,116.644 L123.640762,116.644 C123.948762,116.644 124.172762,116.448 124.172762,116.14 L124.172762,113.368 C124.172762,113.032 123.948762,112.836 123.640762,112.836 L114.148762,112.836 C113.840762,112.836 113.644762,113.032 113.644762,113.368 L113.644762,116.14 C113.644762,116.448 113.840762,116.644 114.148762,116.644 Z" id="Path"></path>
                    <path d="M5.62076228,156.496 C6.29276228,156.496 6.99276228,156.384 7.74876228,156.16 C8.08476228,156.076 8.22476228,155.88 8.19676228,155.572 L7.91676228,153.248 C7.88876228,152.884 7.66476228,152.772 7.32876228,152.8 C6.96476228,152.884 6.74076228,152.884 6.48876228,152.884 C5.87276228,152.884 5.53676228,152.52 5.53676228,151.82 L5.53676228,135.86 C5.53676228,135.524 5.34076228,135.328 5.00476228,135.328 L1.86876228,135.328 C1.53276228,135.328 1.33676228,135.524 1.33676228,135.86 L1.33676228,153.164 C1.33676228,155.208 3.01676228,156.496 5.62076228,156.496 Z" id="Path"></path>
                    <path d="M17.6887623,156.496 C22.3087623,156.496 25.3887623,153.612 25.3887623,149.272 C25.3887623,144.904 22.3087623,142.02 17.6887623,142.02 C13.0687623,142.02 9.98876228,144.904 9.98876228,149.272 C9.98876228,153.612 13.0687623,156.496 17.6887623,156.496 Z M17.6887623,153.024 C15.4767623,153.024 13.9927623,151.54 13.9927623,149.272 C13.9927623,147.004 15.4767623,145.492 17.6887623,145.492 C19.9007623,145.492 21.3847623,147.004 21.3847623,149.272 C21.3847623,151.54 19.9007623,153.024 17.6887623,153.024 Z" id="Shape"></path>
                    <path d="M35.2727623,156.496 C38.9967623,156.496 41.7407623,154.508 42.3287623,151.428 C42.3847623,151.092 42.1887623,150.868 41.8527623,150.868 L38.8567623,150.868 C38.5487623,150.868 38.4087623,151.036 38.2687623,151.316 C37.8767623,152.436 36.7287623,153.108 35.2727623,153.108 C33.0607623,153.108 31.6047623,151.596 31.6047623,149.272 C31.6047623,146.948 33.0607623,145.408 35.2727623,145.408 C36.7287623,145.408 37.8767623,146.108 38.2687623,147.2 C38.4087623,147.508 38.5487623,147.648 38.8567623,147.648 L41.8527623,147.648 C42.1887623,147.648 42.3847623,147.452 42.3287623,147.088 C41.7407623,144.008 38.9967623,142.02 35.2727623,142.02 C30.6527623,142.02 27.5727623,144.904 27.5727623,149.272 C27.5727623,153.612 30.6527623,156.496 35.2727623,156.496 Z" id="Path"></path>
                    <path d="M62.6567623,155.572 L62.3767623,153.248 C62.3487623,152.884 62.1247623,152.772 61.7887623,152.8 C61.4247623,152.884 61.2007623,152.884 60.9207623,152.884 C60.3327623,152.884 59.9967623,152.52 59.9967623,151.792 L59.9967623,143 C59.9967623,142.664 59.8007623,142.468 59.4647623,142.468 L56.3847623,142.468 C56.0487623,142.468 55.8527623,142.664 55.8527623,143 L55.8527623,143.308 C54.7327623,142.44 53.3607623,142.02 51.8767623,142.02 C47.5367623,142.02 44.5127623,144.988 44.5127623,149.272 C44.5127623,153.528 47.5367623,156.496 51.8767623,156.496 C53.6967623,156.496 55.2647623,155.936 56.5807623,154.788 C57.1687623,155.852 58.4007623,156.496 60.1087623,156.496 C60.7807623,156.496 61.4527623,156.384 62.2087623,156.16 C62.5447623,156.076 62.6847623,155.88 62.6567623,155.572 Z M52.2407623,153.22 C50.1127623,153.22 48.6287623,151.596 48.6287623,149.272 C48.6287623,146.92 50.1127623,145.296 52.2407623,145.296 C54.3407623,145.296 55.7687623,146.92 55.7687623,149.272 C55.7687623,151.596 54.3407623,153.22 52.2407623,153.22 Z" id="Shape"></path>
                    <path d="M72.5127623,156.496 C73.3807623,156.496 74.6687623,156.328 75.7887623,156.048 C76.1247623,155.936 76.2367623,155.74 76.2087623,155.432 L75.8447623,153.024 C75.7887623,152.716 75.5647623,152.548 75.2287623,152.604 C74.5567623,152.772 73.7447623,152.856 73.1287623,152.856 C71.7287623,152.856 70.8047623,151.988 70.8047623,150.56 L70.8047623,145.856 L75.2007623,145.856 C75.5087623,145.856 75.7327623,145.66 75.7327623,145.324 L75.7327623,143 C75.7327623,142.664 75.5087623,142.468 75.2007623,142.468 L70.8047623,142.468 L70.8047623,138.912 C70.8047623,138.576 70.6087623,138.38 70.2727623,138.38 L67.1367623,138.38 C66.8007623,138.38 66.6047623,138.576 66.6047623,138.912 L66.6047623,142.468 L64.0287623,142.468 C63.6927623,142.468 63.4967623,142.664 63.4967623,143 L63.4967623,145.324 C63.4967623,145.66 63.6927623,145.856 64.0287623,145.856 L66.6047623,145.856 L66.6047623,150.7 C66.6047623,154.284 68.8727623,156.496 72.5127623,156.496 Z" id="Path"></path>
                    <path d="M80.8007623,139.976 C82.2007623,139.976 83.2927623,138.968 83.2927623,137.652 C83.2927623,136.336 82.2007623,135.356 80.8007623,135.356 C79.4007623,135.356 78.3087623,136.336 78.3087623,137.652 C78.3087623,138.968 79.4007623,139.976 80.8007623,139.976 Z M79.2327623,156.048 L82.3687623,156.048 C82.7047623,156.048 82.9007623,155.852 82.9007623,155.516 L82.9007623,143 C82.9007623,142.664 82.7047623,142.468 82.3687623,142.468 L79.2327623,142.468 C78.8967623,142.468 78.7007623,142.664 78.7007623,143 L78.7007623,155.516 C78.7007623,155.852 78.8967623,156.048 79.2327623,156.048 Z" id="Shape"></path>
                    <path d="M93.4847623,156.496 C96.6487623,156.496 99.1687623,155.068 100.120762,152.744 C100.260762,152.408 100.064762,152.184 99.6727623,152.184 L96.5367623,152.184 C96.2567623,152.184 96.0887623,152.296 95.8647623,152.464 C95.3887623,152.996 94.5487623,153.304 93.5687623,153.304 C91.7207623,153.304 90.3207623,152.268 89.8727623,150.588 L99.9247623,150.588 C100.232762,150.588 100.456762,150.448 100.512762,150.112 C100.512762,149.804 100.540762,149.468 100.540762,149.16 C100.540762,144.904 97.7687623,142.02 93.2327623,142.02 C88.7807623,142.02 85.7847623,144.904 85.7847623,149.272 C85.7847623,153.612 88.8927623,156.496 93.4847623,156.496 Z M89.8447623,148.096 C90.0967623,146.332 91.4967623,145.128 93.3447623,145.128 C95.2207623,145.128 96.4527623,146.36 96.5367623,148.096 L89.8447623,148.096 Z" id="Shape"></path>
                </g>
                <g id="Group">
                    <g id="Rectangle">
                        <use fill="black" fill-opacity="1" filter="url(#filter-2)" xlink:href="#path-1"></use>
                        <use fill="#F78E1E" fill-rule="evenodd" xlink:href="#path-1"></use>
                    </g>
                    <g id="B" transform="translate(15.137032, 8.091510)" fill="#FFFFFF" fill-rule="nonzero">
                        <path d="M12.2628659,23.4957798 C19.4725298,23.4957798 24.5257318,18.6678799 24.5257318,11.7478899 C24.5257318,4.82789996 19.4725298,0 12.2628659,0 C5.02101596,0 0,4.82789996 0,11.7478899 C0,18.6678799 5.02101596,23.4957798 12.2628659,23.4957798 Z M12.2628659,19.1184838 C8.04649994,19.1184838 5.11757396,16.0929999 5.11757396,11.7478899 C5.11757396,7.40277994 8.04649994,4.37729597 12.2628659,4.37729597 C16.4470459,4.37729597 19.4081578,7.40277994 19.4081578,11.7478899 C19.4081578,16.0929999 16.4470459,19.1184838 12.2628659,19.1184838 Z" id="Shape"></path>
                        <path d="M28.8064698,23.0129898 L32.6044177,23.0129898 C32.9906497,23.0129898 33.2159517,22.7876878 33.2159517,22.4014558 L33.2159517,14.6124439 L42.9683097,14.6124439 C43.3545417,14.6124439 43.5798437,14.3871419 43.5798437,14.0009099 L43.5798437,11.0719839 C43.5798437,10.6857519 43.3545417,10.4604499 42.9683097,10.4604499 L33.2159517,10.4604499 L33.2159517,4.66696996 L44.5776096,4.66696996 C44.9316556,4.66696996 45.1891436,4.44166796 45.1891436,4.08762197 L45.1891436,1.09432399 C45.1891436,0.708091994 44.9316556,0.482789996 44.5776096,0.482789996 L28.8064698,0.482789996 C28.4202378,0.482789996 28.1627498,0.708091994 28.1627498,1.09432399 L28.1627498,22.4014558 C28.1627498,22.7876878 28.4524238,23.0129898 28.8064698,23.0129898 Z" id="Path"></path>
                    </g>
                </g>
            </g>
        </g>
    </g>
</svg>