<?xml version="1.0" encoding="UTF-8"?>
<svg width="110px" height="67px" viewBox="0 0 110 67" version="1.1" xmlns="http://www.w3.org/2000/svg" xmlns:xlink="http://www.w3.org/1999/xlink">
    <title>opuw(aanvullende)zorg-verzekering</title>
    <g id="HTML5-banners" stroke="none" stroke-width="1" fill="none" fill-rule="evenodd">
        <g id="120x600px_1" transform="translate(-4.000000, -329.000000)" fill="#FFFFFF" fill-rule="nonzero">
            <path d="M37.351,338.870001 C40.231,338.870001 42.157,337.034001 42.157,334.280001 C42.157,331.526001 40.231,329.690001 37.351,329.690001 C34.471,329.690001 32.545,331.526001 32.545,334.280001 C32.545,337.034001 34.471,338.870001 37.351,338.870001 Z M37.351,336.980001 C35.785,336.980001 34.741,335.900001 34.741,334.280001 C34.741,332.660001 35.785,331.580001 37.351,331.580001 C38.917,331.580001 39.961,332.660001 39.961,334.280001 C39.961,335.900001 38.917,336.980001 37.351,336.980001 Z M47.017,342.740001 C47.179,342.740001 47.287,342.632001 47.287,342.470001 L47.287,338.078001 C48.061,338.636001 48.943,338.870001 49.825,338.870001 C52.615,338.870001 54.595,336.962001 54.595,334.280001 C54.595,331.598001 52.615,329.690001 49.825,329.690001 C48.781,329.690001 47.701,330.032001 46.873,330.824001 C46.531,330.122001 45.793,329.690001 44.821,329.690001 C44.479,329.690001 44.065,329.744001 43.723,329.870001 C43.561,329.924001 43.507,330.032001 43.507,330.194001 L43.507,331.454001 C43.507,331.634001 43.651,331.688001 43.831,331.670001 C43.957,331.652001 44.209,331.616001 44.335,331.616001 C44.857,331.616001 45.091,331.832001 45.091,332.282001 L45.091,342.470001 C45.091,342.632001 45.199,342.740001 45.361,342.740001 L47.017,342.740001 Z M49.807,337.070001 C48.331,337.070001 47.287,335.918001 47.287,334.280001 C47.287,332.642001 48.331,331.490001 49.807,331.490001 C51.319,331.490001 52.399,332.642001 52.399,334.280001 C52.399,335.918001 51.319,337.070001 49.807,337.070001 Z M70.435,338.870001 C70.831,338.870001 71.209,338.798001 71.659,338.654001 C71.821,338.600001 71.893,338.492001 71.875,338.330001 L71.731,337.088001 C71.713,336.908001 71.587,336.836001 71.407,336.872001 C71.119,336.926001 70.957,336.944001 70.741,336.944001 C70.363,336.944001 70.111,336.674001 70.111,336.278001 L70.111,330.230001 C70.111,330.068001 70.003,329.960001 69.841,329.960001 L68.185,329.960001 C68.023,329.960001 67.915,330.068001 67.915,330.230001 L67.915,334.784001 C67.915,336.098001 66.961,336.980001 65.575,336.980001 C64.243,336.980001 63.361,336.044001 63.361,334.658001 L63.361,330.230001 C63.361,330.068001 63.253,329.960001 63.091,329.960001 L61.435,329.960001 C61.273,329.960001 61.165,330.068001 61.165,330.230001 L61.165,334.784001 C61.165,337.232001 62.749,338.870001 65.107,338.870001 C66.385,338.870001 67.447,338.510001 68.203,337.862001 C68.599,338.492001 69.391,338.870001 70.435,338.870001 Z M77.743,338.600001 C77.887,338.600001 77.995,338.546001 78.049,338.384001 L79.849,333.326001 L81.649,338.384001 C81.703,338.546001 81.811,338.600001 81.955,338.600001 L83.413,338.600001 C83.557,338.600001 83.683,338.528001 83.737,338.384001 L86.887,330.266001 C86.959,330.068001 86.869,329.960001 86.671,329.960001 L84.871,329.960001 C84.727,329.960001 84.619,330.014001 84.565,330.176001 L82.675,335.306001 L80.857,330.176001 C80.803,330.014001 80.695,329.960001 80.551,329.960001 L79.147,329.960001 C79.003,329.960001 78.895,330.014001 78.841,330.176001 L77.005,335.288001 L75.133,330.176001 C75.079,330.014001 74.971,329.960001 74.827,329.960001 L73.009,329.960001 C72.811,329.960001 72.721,330.068001 72.793,330.266001 L75.961,338.384001 C76.015,338.528001 76.141,338.600001 76.285,338.600001 L77.743,338.600001 Z M12.32,357.866002 L13.02,357.194002 C13.146,357.068002 13.16,356.928002 13.02,356.802002 C11.606,355.402002 10.78,353.988002 10.78,351.972002 C10.78,349.956002 11.606,348.542002 13.02,347.142002 C13.16,347.016002 13.146,346.876002 13.02,346.750002 L12.32,346.078002 C12.194,345.966002 12.054,345.952002 11.928,346.064002 C10.136,347.646002 9.03,349.466002 9.03,351.972002 C9.03,354.478002 10.136,356.298002 11.928,357.880002 C12.054,357.992002 12.194,357.978002 12.32,357.866002 Z M21.742,356.410002 C22.05,356.410002 22.344,356.354002 22.694,356.242002 C22.82,356.200002 22.876,356.116002 22.862,355.990002 L22.75,355.024002 C22.736,354.884002 22.638,354.828002 22.498,354.856002 C22.274,354.898002 22.148,354.912002 21.98,354.912002 C21.686,354.912002 21.49,354.702002 21.49,354.394002 L21.49,349.690002 C21.49,349.564002 21.406,349.480002 21.28,349.480002 L19.992,349.480002 C19.866,349.480002 19.782,349.564002 19.782,349.690002 L19.782,349.886002 C19.18,349.452002 18.494,349.270002 17.808,349.270002 C15.638,349.270002 14.098,350.754002 14.098,352.840002 C14.098,354.926002 15.638,356.410002 17.808,356.410002 C18.704,356.410002 19.432,356.144002 20.118,355.542002 C20.384,356.088002 20.972,356.410002 21.742,356.410002 Z M17.822,355.010002 C16.646,355.010002 15.806,354.114002 15.806,352.840002 C15.806,351.566002 16.646,350.670002 17.822,350.670002 C18.97,350.670002 19.782,351.566002 19.782,352.840002 C19.782,354.114002 18.97,355.010002 17.822,355.010002 Z M31.556,356.410002 C31.864,356.410002 32.158,356.354002 32.508,356.242002 C32.634,356.200002 32.69,356.116002 32.676,355.990002 L32.564,355.024002 C32.55,354.884002 32.452,354.828002 32.312,354.856002 C32.088,354.898002 31.962,354.912002 31.794,354.912002 C31.5,354.912002 31.304,354.702002 31.304,354.394002 L31.304,349.690002 C31.304,349.564002 31.22,349.480002 31.094,349.480002 L29.806,349.480002 C29.68,349.480002 29.596,349.564002 29.596,349.690002 L29.596,349.886002 C28.994,349.452002 28.308,349.270002 27.622,349.270002 C25.452,349.270002 23.912,350.754002 23.912,352.840002 C23.912,354.926002 25.452,356.410002 27.622,356.410002 C28.518,356.410002 29.246,356.144002 29.932,355.542002 C30.198,356.088002 30.786,356.410002 31.556,356.410002 Z M27.636,355.010002 C26.46,355.010002 25.62,354.114002 25.62,352.840002 C25.62,351.566002 26.46,350.670002 27.636,350.670002 C28.784,350.670002 29.596,351.566002 29.596,352.840002 C29.596,354.114002 28.784,355.010002 27.636,355.010002 Z M36.246,356.200002 C36.372,356.200002 36.456,356.116002 36.456,355.990002 L36.456,352.448002 C36.456,351.426002 37.198,350.740002 38.276,350.740002 C39.312,350.740002 39.998,351.468002 39.998,352.546002 L39.998,355.990002 C39.998,356.116002 40.082,356.200002 40.208,356.200002 L41.496,356.200002 C41.622,356.200002 41.706,356.116002 41.706,355.990002 L41.706,352.448002 C41.706,350.544002 40.474,349.270002 38.64,349.270002 C37.59,349.270002 36.722,349.592002 36.134,350.152002 C35.868,349.606002 35.294,349.270002 34.538,349.270002 C34.272,349.270002 33.95,349.312002 33.684,349.410002 C33.558,349.452002 33.516,349.536002 33.516,349.662002 L33.516,350.642002 C33.516,350.782002 33.628,350.824002 33.768,350.810002 C33.866,350.796002 34.062,350.768002 34.16,350.768002 C34.566,350.768002 34.748,350.936002 34.748,351.286002 L34.748,355.990002 C34.748,356.116002 34.832,356.200002 34.958,356.200002 L36.246,356.200002 Z M47.306,356.200002 C47.418,356.200002 47.502,356.144002 47.544,356.046002 L50.582,349.732002 C50.652,349.578002 50.582,349.480002 50.428,349.480002 L49.07,349.480002 C48.958,349.480002 48.874,349.536002 48.832,349.634002 L46.718,354.142002 L44.632,349.634002 C44.59,349.536002 44.506,349.480002 44.394,349.480002 L43.008,349.480002 C42.854,349.480002 42.784,349.578002 42.854,349.732002 L45.892,356.046002 C45.934,356.144002 46.018,356.200002 46.13,356.200002 L47.306,356.200002 Z M58.94,356.410002 C59.248,356.410002 59.542,356.354002 59.892,356.242002 C60.018,356.200002 60.074,356.116002 60.06,355.990002 L59.948,355.024002 C59.934,354.884002 59.836,354.828002 59.696,354.856002 C59.472,354.898002 59.346,354.912002 59.178,354.912002 C58.884,354.912002 58.688,354.702002 58.688,354.394002 L58.688,349.690002 C58.688,349.564002 58.604,349.480002 58.478,349.480002 L57.19,349.480002 C57.064,349.480002 56.98,349.564002 56.98,349.690002 L56.98,353.232002 C56.98,354.254002 56.238,354.940002 55.16,354.940002 C54.124,354.940002 53.438,354.212002 53.438,353.134002 L53.438,349.690002 C53.438,349.564002 53.354,349.480002 53.228,349.480002 L51.94,349.480002 C51.814,349.480002 51.73,349.564002 51.73,349.690002 L51.73,353.232002 C51.73,355.136002 52.962,356.410002 54.796,356.410002 C55.79,356.410002 56.616,356.130002 57.204,355.626002 C57.512,356.116002 58.128,356.410002 58.94,356.410002 Z M63.42,356.410002 C63.728,356.410002 64.022,356.354002 64.372,356.242002 C64.498,356.200002 64.554,356.116002 64.54,355.990002 L64.428,355.024002 C64.414,354.884002 64.316,354.828002 64.176,354.856002 C63.952,354.898002 63.826,354.912002 63.658,354.912002 C63.364,354.912002 63.168,354.702002 63.168,354.394002 L63.168,346.050002 C63.168,345.924002 63.084,345.840002 62.958,345.840002 L61.67,345.840002 C61.544,345.840002 61.46,345.924002 61.46,346.050002 L61.46,354.856002 C61.46,355.794002 62.244,356.410002 63.42,356.410002 Z M67.9,356.410002 C68.208,356.410002 68.502,356.354002 68.852,356.242002 C68.978,356.200002 69.034,356.116002 69.02,355.990002 L68.908,355.024002 C68.894,354.884002 68.796,354.828002 68.656,354.856002 C68.432,354.898002 68.306,354.912002 68.138,354.912002 C67.844,354.912002 67.648,354.702002 67.648,354.394002 L67.648,346.050002 C67.648,345.924002 67.564,345.840002 67.438,345.840002 L66.15,345.840002 C66.024,345.840002 65.94,345.924002 65.94,346.050002 L65.94,354.856002 C65.94,355.794002 66.724,356.410002 67.9,356.410002 Z M73.794,356.410002 C75.264,356.410002 76.51,355.724002 76.986,354.660002 C77.056,354.520002 76.972,354.422002 76.818,354.422002 L75.432,354.422002 C75.32,354.422002 75.25,354.464002 75.166,354.548002 C74.914,354.842002 74.41,355.038002 73.836,355.038002 C72.828,355.038002 72.044,354.450002 71.792,353.526002 L76.958,353.526002 C77.084,353.526002 77.168,353.470002 77.196,353.344002 C77.21,353.162002 77.224,352.966002 77.224,352.784002 C77.224,350.670002 75.81,349.270002 73.696,349.270002 C71.526,349.270002 70.07,350.698002 70.07,352.840002 C70.07,354.982002 71.568,356.410002 73.794,356.410002 Z M75.488,352.322002 L71.75,352.322002 C71.89,351.314002 72.688,350.642002 73.738,350.642002 C74.788,350.642002 75.46,351.342002 75.488,352.322002 Z M81.004,356.200002 C81.13,356.200002 81.214,356.116002 81.214,355.990002 L81.214,352.448002 C81.214,351.426002 81.956,350.740002 83.034,350.740002 C84.07,350.740002 84.756,351.468002 84.756,352.546002 L84.756,355.990002 C84.756,356.116002 84.84,356.200002 84.966,356.200002 L86.254,356.200002 C86.38,356.200002 86.464,356.116002 86.464,355.990002 L86.464,352.448002 C86.464,350.544002 85.232,349.270002 83.398,349.270002 C82.348,349.270002 81.48,349.592002 80.892,350.152002 C80.626,349.606002 80.052,349.270002 79.296,349.270002 C79.03,349.270002 78.708,349.312002 78.442,349.410002 C78.316,349.452002 78.274,349.536002 78.274,349.662002 L78.274,350.642002 C78.274,350.782002 78.386,350.824002 78.526,350.810002 C78.624,350.796002 78.82,350.768002 78.918,350.768002 C79.324,350.768002 79.506,350.936002 79.506,351.286002 L79.506,355.990002 C79.506,356.116002 79.59,356.200002 79.716,356.200002 L81.004,356.200002 Z M95.578,356.410002 C95.886,356.410002 96.18,356.354002 96.53,356.242002 C96.656,356.200002 96.712,356.116002 96.698,355.990002 L96.586,355.024002 C96.572,354.884002 96.474,354.828002 96.334,354.856002 C96.11,354.898002 95.984,354.912002 95.816,354.912002 C95.522,354.912002 95.326,354.702002 95.326,354.394002 L95.326,346.050002 C95.326,345.924002 95.242,345.840002 95.116,345.840002 L93.814,345.840002 C93.688,345.840002 93.604,345.924002 93.604,346.050002 L93.604,349.872002 C93.002,349.452002 92.33,349.270002 91.644,349.270002 C89.474,349.270002 87.934,350.754002 87.934,352.840002 C87.934,354.926002 89.474,356.410002 91.644,356.410002 C92.54,356.410002 93.268,356.144002 93.954,355.542002 C94.22,356.088002 94.808,356.410002 95.578,356.410002 Z M91.658,355.010002 C90.482,355.010002 89.642,354.114002 89.642,352.840002 C89.642,351.566002 90.482,350.670002 91.658,350.670002 C92.806,350.670002 93.618,351.566002 93.618,352.840002 C93.618,354.114002 92.806,355.010002 91.658,355.010002 Z M101.472,356.410002 C102.942,356.410002 104.188,355.724002 104.664,354.660002 C104.734,354.520002 104.65,354.422002 104.496,354.422002 L103.11,354.422002 C102.998,354.422002 102.928,354.464002 102.844,354.548002 C102.592,354.842002 102.088,355.038002 101.514,355.038002 C100.506,355.038002 99.722,354.450002 99.47,353.526002 L104.636,353.526002 C104.762,353.526002 104.846,353.470002 104.874,353.344002 C104.888,353.162002 104.902,352.966002 104.902,352.784002 C104.902,350.670002 103.488,349.270002 101.374,349.270002 C99.204,349.270002 97.748,350.698002 97.748,352.840002 C97.748,354.982002 99.246,356.410002 101.472,356.410002 Z M103.166,352.322002 L99.428,352.322002 C99.568,351.314002 100.366,350.642002 101.416,350.642002 C102.466,350.642002 103.138,351.342002 103.166,352.322002 Z M107.072,357.880002 C108.864,356.298002 109.97,354.478002 109.97,351.972002 C109.97,349.466002 108.864,347.646002 107.072,346.064002 C106.946,345.952002 106.806,345.966002 106.68,346.078002 L105.98,346.750002 C105.854,346.876002 105.84,347.016002 105.98,347.142002 C107.394,348.542002 108.22,349.956002 108.22,351.972002 C108.22,353.988002 107.394,355.402002 105.98,356.802002 C105.84,356.928002 105.854,357.068002 105.98,357.194002 L106.68,357.866002 C106.806,357.978002 106.946,357.992002 107.072,357.880002 Z M42.319,373.800003 C42.481,373.800003 42.589,373.692003 42.589,373.530003 L42.589,372.342003 C42.589,372.180003 42.481,372.072003 42.319,372.072003 L37.711,372.072003 L42.481,366.420003 C42.571,366.330003 42.607,366.204003 42.607,366.078003 L42.607,365.430003 C42.607,365.268003 42.499,365.160003 42.337,365.160003 L34.903,365.160003 C34.741,365.160003 34.633,365.268003 34.633,365.430003 L34.633,366.618003 C34.633,366.780003 34.741,366.888003 34.903,366.888003 L39.457,366.888003 L34.597,372.684003 C34.507,372.774003 34.471,372.900003 34.471,373.026003 L34.471,373.530003 C34.471,373.692003 34.579,373.800003 34.741,373.800003 L42.319,373.800003 Z M48.853,374.070003 C51.733,374.070003 53.659,372.234003 53.659,369.480003 C53.659,366.726003 51.733,364.890003 48.853,364.890003 C45.973,364.890003 44.047,366.726003 44.047,369.480003 C44.047,372.234003 45.973,374.070003 48.853,374.070003 Z M48.853,372.180003 C47.287,372.180003 46.243,371.100003 46.243,369.480003 C46.243,367.860003 47.287,366.780003 48.853,366.780003 C50.419,366.780003 51.463,367.860003 51.463,369.480003 C51.463,371.100003 50.419,372.180003 48.853,372.180003 Z M58.519,373.800003 C58.681,373.800003 58.789,373.692003 58.789,373.530003 L58.789,369.480003 C58.789,367.914003 59.869,366.870003 61.399,366.870003 C61.759,366.870003 62.119,366.906003 62.425,366.960003 C62.605,366.996003 62.713,366.924003 62.749,366.744003 L62.965,365.394003 C62.983,365.232003 62.929,365.124003 62.767,365.070003 C62.407,364.962003 61.885,364.890003 61.417,364.890003 C60.211,364.890003 59.185,365.358003 58.429,366.186003 C58.141,365.376003 57.367,364.890003 56.323,364.890003 C55.981,364.890003 55.567,364.962003 55.225,365.070003 C55.063,365.124003 55.009,365.232003 55.009,365.394003 L55.009,366.654003 C55.009,366.834003 55.153,366.888003 55.333,366.870003 C55.459,366.852003 55.711,366.816003 55.837,366.816003 C56.359,366.816003 56.593,367.032003 56.593,367.482003 L56.593,373.530003 C56.593,373.692003 56.701,373.800003 56.863,373.800003 L58.519,373.800003 Z M69.319,378.210003 C72.073,378.210003 73.909,376.518003 73.909,373.962003 L73.909,365.430003 C73.909,365.268003 73.801,365.160003 73.639,365.160003 L71.983,365.160003 C71.821,365.160003 71.713,365.268003 71.713,365.430003 L71.713,365.682003 C70.939,365.124003 70.057,364.890003 69.175,364.890003 C66.385,364.890003 64.405,366.798003 64.405,369.480003 C64.405,372.162003 66.385,374.070003 69.175,374.070003 C70.057,374.070003 70.939,373.836003 71.713,373.278003 L71.713,373.962003 C71.713,375.384003 70.759,376.320003 69.319,376.320003 C68.131,376.320003 67.213,375.780003 66.961,374.916003 C66.907,374.754003 66.817,374.682003 66.655,374.682003 L64.963,374.682003 C64.783,374.682003 64.675,374.790003 64.711,374.970003 C65.089,376.932003 66.889,378.210003 69.319,378.210003 Z M69.193,372.270003 C67.681,372.270003 66.601,371.118003 66.601,369.480003 C66.601,367.842003 67.681,366.690003 69.193,366.690003 C70.669,366.690003 71.713,367.842003 71.713,369.480003 C71.713,371.118003 70.669,372.270003 69.193,372.270003 Z M83.179,370.110003 C83.341,370.110003 83.449,370.002003 83.449,369.840003 L83.449,368.310003 C83.449,368.148003 83.341,368.040003 83.179,368.040003 L77.149,368.040003 C76.987,368.040003 76.879,368.148003 76.879,368.310003 L76.879,369.840003 C76.879,370.002003 76.987,370.110003 77.149,370.110003 L83.179,370.110003 Z M10.666,391.400004 C10.81,391.400004 10.918,391.328004 10.972,391.202004 L14.878,383.084004 C14.968,382.886004 14.878,382.760004 14.68,382.760004 L12.934,382.760004 C12.79,382.760004 12.682,382.832004 12.628,382.958004 L9.91,388.754004 L7.228,382.958004 C7.174,382.832004 7.066,382.760004 6.922,382.760004 L5.14,382.760004 C4.942,382.760004 4.852,382.886004 4.942,383.084004 L8.848,391.202004 C8.902,391.328004 9.01,391.400004 9.154,391.400004 L10.666,391.400004 Z M20.872,391.670004 C22.762,391.670004 24.364,390.788004 24.976,389.420004 C25.066,389.240004 24.958,389.114004 24.76,389.114004 L22.978,389.114004 C22.834,389.114004 22.744,389.168004 22.636,389.276004 C22.312,389.654004 21.664,389.906004 20.926,389.906004 C19.63,389.906004 18.622,389.150004 18.298,387.962004 L24.94,387.962004 C25.102,387.962004 25.21,387.890004 25.246,387.728004 C25.264,387.494004 25.282,387.242004 25.282,387.008004 C25.282,384.290004 23.464,382.490004 20.746,382.490004 C17.956,382.490004 16.084,384.326004 16.084,387.080004 C16.084,389.834004 18.01,391.670004 20.872,391.670004 Z M23.05,386.414004 L18.244,386.414004 C18.424,385.118004 19.45,384.254004 20.8,384.254004 C22.15,384.254004 23.014,385.154004 23.05,386.414004 Z M30.142,391.400004 C30.304,391.400004 30.412,391.292004 30.412,391.130004 L30.412,387.080004 C30.412,385.514004 31.492,384.470004 33.022,384.470004 C33.382,384.470004 33.742,384.506004 34.048,384.560004 C34.228,384.596004 34.336,384.524004 34.372,384.344004 L34.588,382.994004 C34.606,382.832004 34.552,382.724004 34.39,382.670004 C34.03,382.562004 33.508,382.490004 33.04,382.490004 C31.834,382.490004 30.808,382.958004 30.052,383.786004 C29.764,382.976004 28.99,382.490004 27.946,382.490004 C27.604,382.490004 27.19,382.562004 26.848,382.670004 C26.686,382.724004 26.632,382.832004 26.632,382.994004 L26.632,384.254004 C26.632,384.434004 26.776,384.488004 26.956,384.470004 C27.082,384.452004 27.334,384.416004 27.46,384.416004 C27.982,384.416004 28.216,384.632004 28.216,385.082004 L28.216,391.130004 C28.216,391.292004 28.324,391.400004 28.486,391.400004 L30.142,391.400004 Z M43.606,391.400004 C43.768,391.400004 43.876,391.292004 43.876,391.130004 L43.876,389.942004 C43.876,389.780004 43.768,389.672004 43.606,389.672004 L38.998,389.672004 L43.768,384.020004 C43.858,383.930004 43.894,383.804004 43.894,383.678004 L43.894,383.030004 C43.894,382.868004 43.786,382.760004 43.624,382.760004 L36.19,382.760004 C36.028,382.760004 35.92,382.868004 35.92,383.030004 L35.92,384.218004 C35.92,384.380004 36.028,384.488004 36.19,384.488004 L40.744,384.488004 L35.884,390.284004 C35.794,390.374004 35.758,390.500004 35.758,390.626004 L35.758,391.130004 C35.758,391.292004 35.866,391.400004 36.028,391.400004 L43.606,391.400004 Z M50.122,391.670004 C52.012,391.670004 53.614,390.788004 54.226,389.420004 C54.316,389.240004 54.208,389.114004 54.01,389.114004 L52.228,389.114004 C52.084,389.114004 51.994,389.168004 51.886,389.276004 C51.562,389.654004 50.914,389.906004 50.176,389.906004 C48.88,389.906004 47.872,389.150004 47.548,387.962004 L54.19,387.962004 C54.352,387.962004 54.46,387.890004 54.496,387.728004 C54.514,387.494004 54.532,387.242004 54.532,387.008004 C54.532,384.290004 52.714,382.490004 49.996,382.490004 C47.206,382.490004 45.334,384.326004 45.334,387.080004 C45.334,389.834004 47.26,391.670004 50.122,391.670004 Z M52.3,386.414004 L47.494,386.414004 C47.674,385.118004 48.7,384.254004 50.05,384.254004 C51.4,384.254004 52.264,385.154004 52.3,386.414004 Z M58.528,391.400004 C58.69,391.400004 58.798,391.292004 58.798,391.130004 L58.798,387.278004 L63.118,391.238004 C63.244,391.364004 63.298,391.400004 63.442,391.400004 L65.638,391.400004 C65.854,391.400004 65.98,391.238004 65.8,391.076004 L61.408,387.080004 L65.224,383.084004 C65.404,382.886004 65.332,382.760004 65.098,382.760004 L63.136,382.760004 C63.01,382.760004 62.902,382.778004 62.794,382.904004 L58.798,387.080004 L58.798,378.350004 C58.798,378.188004 58.69,378.080004 58.528,378.080004 L56.872,378.080004 C56.71,378.080004 56.602,378.188004 56.602,378.350004 L56.602,391.130004 C56.602,391.292004 56.71,391.400004 56.872,391.400004 L58.528,391.400004 Z M71.668,391.670004 C73.558,391.670004 75.16,390.788004 75.772,389.420004 C75.862,389.240004 75.754,389.114004 75.556,389.114004 L73.774,389.114004 C73.63,389.114004 73.54,389.168004 73.432,389.276004 C73.108,389.654004 72.46,389.906004 71.722,389.906004 C70.426,389.906004 69.418,389.150004 69.094,387.962004 L75.736,387.962004 C75.898,387.962004 76.006,387.890004 76.042,387.728004 C76.06,387.494004 76.078,387.242004 76.078,387.008004 C76.078,384.290004 74.26,382.490004 71.542,382.490004 C68.752,382.490004 66.88,384.326004 66.88,387.080004 C66.88,389.834004 68.806,391.670004 71.668,391.670004 Z M73.846,386.414004 L69.04,386.414004 C69.22,385.118004 70.246,384.254004 71.596,384.254004 C72.946,384.254004 73.81,385.154004 73.846,386.414004 Z M80.938,391.400004 C81.1,391.400004 81.208,391.292004 81.208,391.130004 L81.208,387.080004 C81.208,385.514004 82.288,384.470004 83.818,384.470004 C84.178,384.470004 84.538,384.506004 84.844,384.560004 C85.024,384.596004 85.132,384.524004 85.168,384.344004 L85.384,382.994004 C85.402,382.832004 85.348,382.724004 85.186,382.670004 C84.826,382.562004 84.304,382.490004 83.836,382.490004 C82.63,382.490004 81.604,382.958004 80.848,383.786004 C80.56,382.976004 79.786,382.490004 78.742,382.490004 C78.4,382.490004 77.986,382.562004 77.644,382.670004 C77.482,382.724004 77.428,382.832004 77.428,382.994004 L77.428,384.254004 C77.428,384.434004 77.572,384.488004 77.752,384.470004 C77.878,384.452004 78.13,384.416004 78.256,384.416004 C78.778,384.416004 79.012,384.632004 79.012,385.082004 L79.012,391.130004 C79.012,391.292004 79.12,391.400004 79.282,391.400004 L80.938,391.400004 Z M88.282,380.870004 C89.02,380.870004 89.65,380.312004 89.65,379.610004 C89.65,378.908004 89.02,378.350004 88.282,378.350004 C87.526,378.350004 86.914,378.908004 86.914,379.610004 C86.914,380.312004 87.526,380.870004 88.282,380.870004 Z M89.11,391.400004 C89.272,391.400004 89.38,391.292004 89.38,391.130004 L89.38,383.030004 C89.38,382.868004 89.272,382.760004 89.11,382.760004 L87.454,382.760004 C87.292,382.760004 87.184,382.868004 87.184,383.030004 L87.184,391.130004 C87.184,391.292004 87.292,391.400004 87.454,391.400004 L89.11,391.400004 Z M94.69,391.400004 C94.852,391.400004 94.96,391.292004 94.96,391.130004 L94.96,386.576004 C94.96,385.262004 95.914,384.380004 97.3,384.380004 C98.632,384.380004 99.514,385.316004 99.514,386.702004 L99.514,391.130004 C99.514,391.292004 99.622,391.400004 99.784,391.400004 L101.44,391.400004 C101.602,391.400004 101.71,391.292004 101.71,391.130004 L101.71,386.576004 C101.71,384.128004 100.126,382.490004 97.768,382.490004 C96.418,382.490004 95.302,382.904004 94.546,383.624004 C94.204,382.922004 93.466,382.490004 92.494,382.490004 C92.152,382.490004 91.738,382.544004 91.396,382.670004 C91.234,382.724004 91.18,382.832004 91.18,382.994004 L91.18,384.254004 C91.18,384.434004 91.324,384.488004 91.504,384.470004 C91.63,384.452004 91.882,384.416004 92.008,384.416004 C92.53,384.416004 92.764,384.632004 92.764,385.082004 L92.764,391.130004 C92.764,391.292004 92.872,391.400004 93.034,391.400004 L94.69,391.400004 Z M108.604,395.810004 C111.358,395.810004 113.194,394.118004 113.194,391.562004 L113.194,383.030004 C113.194,382.868004 113.086,382.760004 112.924,382.760004 L111.268,382.760004 C111.106,382.760004 110.998,382.868004 110.998,383.030004 L110.998,383.282004 C110.224,382.724004 109.342,382.490004 108.46,382.490004 C105.67,382.490004 103.69,384.398004 103.69,387.080004 C103.69,389.762004 105.67,391.670004 108.46,391.670004 C109.342,391.670004 110.224,391.436004 110.998,390.878004 L110.998,391.562004 C110.998,392.984004 110.044,393.920004 108.604,393.920004 C107.416,393.920004 106.498,393.380004 106.246,392.516004 C106.192,392.354004 106.102,392.282004 105.94,392.282004 L104.248,392.282004 C104.068,392.282004 103.96,392.390004 103.996,392.570004 C104.374,394.532004 106.174,395.810004 108.604,395.810004 Z M108.478,389.870004 C106.966,389.870004 105.886,388.718004 105.886,387.080004 C105.886,385.442004 106.966,384.290004 108.478,384.290004 C109.954,384.290004 110.998,385.442004 110.998,387.080004 C110.998,388.718004 109.954,389.870004 108.478,389.870004 Z" id="opuw(aanvullende)zorg-verzekering"></path>
        </g>
    </g>
</svg>