<?xml version="1.0" encoding="UTF-8"?>
<svg width="111.455136px" height="76.0449965px" viewBox="0 0 111.455136 76.0449965" version="1.1" xmlns="http://www.w3.org/2000/svg" xmlns:xlink="http://www.w3.org/1999/xlink">
    <title>Winter- voordeel met</title>
    <g id="Spotlight-4---HTML-5-" stroke="none" stroke-width="1" fill="none" fill-rule="evenodd">
        <g id="120x600px_1" transform="translate(-5.291467, -327.219983)" fill="#FFFFFF" fill-rule="nonzero">
            <g id="Winter--voordeel-met" transform="translate(5.291467, 327.219983)">
                <path d="M17.5879892,1.03150711 L14.7990996,9.70380765 L11.7618842,1.10791505 C11.6854763,0.897793227 11.5517624,0.821385293 11.3607425,0.821385293 L9.50785014,0.821385293 C9.29772832,0.821385293 9.16401443,0.897793227 9.0876065,1.10791505 L6.0694931,9.68470566 L3.2806035,1.03150711 C3.22329755,0.821385293 3.07048168,0.744977359 2.87946184,0.744977359 L0.472611917,0.744977359 C0.205184147,0.744977359 0.0905722458,0.916895211 0.16698018,1.14611901 L4.4458245,13.8298361 C4.50313045,14.0399579 4.65594632,14.1163658 4.84696615,14.1163658 L7.13920418,14.1163658 C7.33022401,14.1163658 7.48303988,14.0399579 7.54034583,13.8298361 L10.4247453,5.44406531 L13.3473488,13.8298361 C13.4046548,14.0399579 13.5574707,14.1163658 13.7484905,14.1163658 L16.0216265,14.1163658 C16.2126464,14.1163658 16.3654622,14.0399579 16.4418702,13.8298361 L20.7207145,1.14611901 C20.7780204,0.916895211 20.6825105,0.744977359 20.4150827,0.744977359 L17.9891308,0.744977359 C17.798111,0.744977359 17.6452951,0.821385293 17.5879892,1.03150711 Z" id="Path"></path>
                <path d="M23.7961338,3.15182729 C24.751233,3.15182729 25.4962104,2.46415588 25.4962104,1.56636265 C25.4962104,0.668569424 24.751233,0 23.7961338,0 C22.8410347,0 22.0960573,0.668569424 22.0960573,1.56636265 C22.0960573,2.46415588 22.8410347,3.15182729 23.7961338,3.15182729 Z M22.7264228,14.1163658 L24.8658449,14.1163658 C25.0950687,14.1163658 25.2287826,13.982652 25.2287826,13.7534282 L25.2287826,5.21484151 C25.2287826,4.98561771 25.0950687,4.85190382 24.8658449,4.85190382 L22.7264228,4.85190382 C22.497199,4.85190382 22.3634851,4.98561771 22.3634851,5.21484151 L22.3634851,13.7534282 C22.3634851,13.982652 22.497199,14.1163658 22.7264228,14.1163658 Z" id="Shape"></path>
                <path d="M34.2067149,4.54627209 C32.8122701,4.54627209 31.6279471,4.98561771 30.8638678,5.74969705 C30.4627261,5.00471969 29.6413408,4.54627209 28.5716297,4.54627209 C28.1322841,4.54627209 27.6356325,4.60357804 27.1962869,4.77549589 C26.9861651,4.85190382 26.9097572,4.96651572 26.9097572,5.19573953 L26.9097572,6.76210218 C26.9097572,7.01042796 27.081675,7.06773392 27.3300008,7.06773392 C27.4446127,7.04863193 27.6356325,7.01042796 27.7502444,7.01042796 C28.2851,7.01042796 28.4952218,7.23965177 28.4952218,7.75540532 L28.4952218,13.7534282 C28.4952218,13.982652 28.6289357,14.1163658 28.8581595,14.1163658 L30.9975816,14.1163658 C31.2268054,14.1163658 31.3605193,13.982652 31.3605193,13.7534282 L31.3605193,9.05434021 C31.3605193,7.79360929 32.2201086,6.99132598 33.4808395,6.99132598 C34.7033664,6.99132598 35.4865478,7.85091524 35.4865478,9.14985012 L35.4865478,13.7534282 C35.4865478,13.982652 35.6393636,14.1163658 35.8685874,14.1163658 L38.0080096,14.1163658 C38.2372334,14.1163658 38.3709473,13.982652 38.3709473,13.7534282 L38.3709473,8.76781045 C38.3709473,6.22724664 36.7090747,4.54627209 34.2067149,4.54627209 Z" id="Path"></path>
                <path d="M45.648803,14.4219976 C46.2409645,14.4219976 47.1196558,14.3073857 47.8837351,14.1163658 C48.1129589,14.0399579 48.1893668,13.906244 48.1702649,13.6961222 L47.9219391,12.0533516 C47.8837351,11.8432298 47.7309192,11.7286179 47.5016954,11.7668219 C47.0432478,11.8814338 46.4892903,11.9387397 46.0690467,11.9387397 C45.1139475,11.9387397 44.483582,11.3465782 44.483582,10.3723771 L44.483582,7.16324383 L47.4825934,7.16324383 C47.6927153,7.16324383 47.8455311,7.02952995 47.8455311,6.80030615 L47.8455311,5.21484151 C47.8455311,4.98561771 47.6927153,4.85190382 47.4825934,4.85190382 L44.483582,4.85190382 L44.483582,2.42595191 C44.483582,2.19672811 44.3498681,2.06301422 44.1206443,2.06301422 L41.9812222,2.06301422 C41.7519984,2.06301422 41.6182845,2.19672811 41.6182845,2.42595191 L41.6182845,4.85190382 L39.860902,4.85190382 C39.6316782,4.85190382 39.4979643,4.98561771 39.4979643,5.21484151 L39.4979643,6.80030615 C39.4979643,7.02952995 39.6316782,7.16324383 39.860902,7.16324383 L41.6182845,7.16324383 L41.6182845,10.467887 C41.6182845,12.9129409 43.1655452,14.4219976 45.648803,14.4219976 Z" id="Path"></path>
                <path d="M54.6458373,14.4219976 C56.8043614,14.4219976 58.5235399,13.4477964 59.1730074,11.8623318 C59.2685173,11.633108 59.1348034,11.4802921 58.8673756,11.4802921 L56.7279535,11.4802921 C56.5369337,11.4802921 56.4223218,11.5567001 56.2695059,11.671312 C55.9447722,12.0342496 55.3717127,12.2443715 54.7031432,12.2443715 C53.4424123,12.2443715 52.4873131,11.5375981 52.1816814,10.3914791 L59.0392935,10.3914791 C59.2494153,10.3914791 59.4022312,10.2959691 59.4404352,10.0667453 C59.4404352,9.85662351 59.4595371,9.62739971 59.4595371,9.41727789 C59.4595371,6.51377639 57.5684408,4.54627209 54.4739194,4.54627209 C51.436704,4.54627209 49.3927918,6.51377639 49.3927918,9.49368583 C49.3927918,12.4544933 51.513112,14.4219976 54.6458373,14.4219976 Z M52.1625794,8.69140252 C52.3344973,7.48797755 53.2895964,6.66659226 54.5503274,6.66659226 C55.8301603,6.66659226 56.6706475,7.50707954 56.7279535,8.69140252 L52.1625794,8.69140252 Z" id="Shape"></path>
                <path d="M69.1060388,4.71818994 C68.7622031,4.60357804 68.2464496,4.54627209 67.788002,4.54627209 C66.5272711,4.54627209 65.438458,5.00471969 64.6743786,5.84520697 C64.311441,5.04292366 63.4709537,4.54627209 62.3630386,4.54627209 C61.923693,4.54627209 61.4270414,4.62268002 60.9876958,4.77549589 C60.777574,4.85190382 60.7011661,4.96651572 60.7011661,5.19573953 L60.7011661,6.76210218 C60.7011661,7.01042796 60.8730839,7.06773392 61.1214097,7.06773392 C61.2360216,7.04863193 61.4270414,7.01042796 61.5416533,7.01042796 C62.0765089,7.01042796 62.2866307,7.23965177 62.2866307,7.75540532 L62.2866307,13.7534282 C62.2866307,13.982652 62.4203446,14.1163658 62.6495684,14.1163658 L64.7889905,14.1163658 C65.0182144,14.1163658 65.1519282,13.982652 65.1519282,13.7534282 L65.1519282,9.6465017 C65.1519282,8.08013904 66.2216393,7.16324383 67.6733901,7.16324383 C68.0363278,7.16324383 68.4374694,7.2014478 68.7239992,7.25875375 C68.953223,7.29695772 69.1060388,7.2014478 69.1442428,6.972224 L69.3925686,5.13843358 C69.4116706,4.92831176 69.3352626,4.77549589 69.1060388,4.71818994 Z" id="Path"></path>
                <path d="M71.3027669,10.429683 L77.7783394,10.429683 C77.9884612,10.429683 78.1412771,10.2959691 78.1412771,10.0858473 L78.1412771,8.19475095 C78.1412771,7.96552714 77.9884612,7.83181326 77.7783394,7.83181326 L71.3027669,7.83181326 C71.0926451,7.83181326 70.9589312,7.96552714 70.9589312,8.19475095 L70.9589312,10.0858473 C70.9589312,10.2959691 71.0926451,10.429683 71.3027669,10.429683 Z" id="Path"></path>
                <path d="M4.42672251,33.2183494 L6.56614467,33.2183494 C6.75716451,33.2183494 6.89087839,33.1228395 6.96728633,32.9509216 L10.9596009,24.374131 C11.0742128,24.1258052 10.9404989,23.9538874 10.6730711,23.9538874 L8.41903708,23.9538874 C8.22801724,23.9538874 8.09430336,24.0493973 8.01789542,24.2213151 L5.49643359,29.7608904 L3.01317573,24.2213151 C2.9367678,24.0493973 2.80305391,23.9538874 2.59293209,23.9538874 L0.319796048,23.9538874 C0.0523682787,23.9538874 -0.0622436226,24.1258052 0.0332662951,24.374131 L4.02558086,32.9509216 C4.10198879,33.1228395 4.23570268,33.2183494 4.42672251,33.2183494 Z" id="Path"></path>
                <path d="M17.0913376,33.5239811 C20.2431649,33.5239811 22.3443831,31.5564768 22.3443831,28.5956694 C22.3443831,25.6157599 20.2431649,23.6482556 17.0913376,23.6482556 C13.9395103,23.6482556 11.8382921,25.6157599 11.8382921,28.5956694 C11.8382921,31.5564768 13.9395103,33.5239811 17.0913376,33.5239811 Z M17.0913376,31.1553352 C15.5822809,31.1553352 14.5698758,30.1429301 14.5698758,28.5956694 C14.5698758,27.0484087 15.5822809,26.0169016 17.0913376,26.0169016 C18.6003943,26.0169016 19.6127994,27.0484087 19.6127994,28.5956694 C19.6127994,30.1429301 18.6003943,31.1553352 17.0913376,31.1553352 Z" id="Shape"></path>
                <path d="M29.0873833,33.5239811 C32.2392106,33.5239811 34.3404288,31.5564768 34.3404288,28.5956694 C34.3404288,25.6157599 32.2392106,23.6482556 29.0873833,23.6482556 C25.935556,23.6482556 23.8343378,25.6157599 23.8343378,28.5956694 C23.8343378,31.5564768 25.935556,33.5239811 29.0873833,33.5239811 Z M29.0873833,31.1553352 C27.5783266,31.1553352 26.5659215,30.1429301 26.5659215,28.5956694 C26.5659215,27.0484087 27.5783266,26.0169016 29.0873833,26.0169016 C30.59644,26.0169016 31.6088451,27.0484087 31.6088451,28.5956694 C31.6088451,30.1429301 30.59644,31.1553352 29.0873833,31.1553352 Z" id="Shape"></path>
                <path d="M43.9678285,23.8201735 C43.6239928,23.7055616 43.1082392,23.6482556 42.6497916,23.6482556 C41.3890607,23.6482556 40.3002476,24.1067032 39.5361683,24.9471905 C39.1732306,24.1449072 38.3327433,23.6482556 37.2248283,23.6482556 C36.7854827,23.6482556 36.2888311,23.7246636 35.8494855,23.8774794 C35.6393636,23.9538874 35.5629557,24.0684993 35.5629557,24.2977231 L35.5629557,25.8640857 C35.5629557,26.1124115 35.7348736,26.1697175 35.9831993,26.1697175 C36.0978112,26.1506155 36.2888311,26.1124115 36.403443,26.1124115 C36.9382985,26.1124115 37.1484203,26.3416353 37.1484203,26.8573889 L37.1484203,32.8554117 C37.1484203,33.0846355 37.2821342,33.2183494 37.511358,33.2183494 L39.6507802,33.2183494 C39.880004,33.2183494 40.0137179,33.0846355 40.0137179,32.8554117 L40.0137179,28.7484853 C40.0137179,27.1821226 41.083429,26.2652274 42.5351797,26.2652274 C42.8981174,26.2652274 43.299259,26.3034314 43.5857888,26.3607373 C43.8150126,26.3989413 43.9678285,26.3034314 44.0060324,26.0742076 L44.2543582,24.2404171 C44.2734602,24.0302953 44.1970523,23.8774794 43.9678285,23.8201735 Z" id="Path"></path>
                <path d="M57.5111348,32.8936157 L57.339217,31.308151 C57.320115,31.0598253 57.1672991,30.9834173 56.9189733,31.0025193 C56.6897495,31.0598253 56.5369337,31.0598253 56.3459138,31.0598253 C55.9447722,31.0598253 55.7155484,30.8114995 55.7155484,30.3339499 L55.7155484,19.4458193 C55.7155484,19.2165955 55.5818345,19.0828816 55.3526107,19.0828816 L53.1940865,19.0828816 C52.9648627,19.0828816 52.8311488,19.2165955 52.8311488,19.4458193 L52.8311488,24.4696409 C52.0479675,23.8965814 51.1501743,23.6482556 50.1759731,23.6482556 C47.2151657,23.6482556 45.1521515,25.6730659 45.1521515,28.5956694 C45.1521515,31.4991709 47.2151657,33.5239811 50.1759731,33.5239811 C51.455806,33.5239811 52.5064151,33.1228395 53.3469024,32.3205562 C53.7480441,33.0846355 54.6267353,33.5239811 55.7537523,33.5239811 C56.2313019,33.5239811 56.7088515,33.4475732 57.2246051,33.2947573 C57.4538289,33.2374514 57.5493388,33.1037375 57.5111348,32.8936157 Z M50.4242989,31.2890491 C48.9725482,31.2890491 47.960143,30.181134 47.960143,28.5956694 C47.960143,26.9911028 48.9725482,25.8831877 50.4242989,25.8831877 C51.8569477,25.8831877 52.8311488,26.9911028 52.8311488,28.5956694 C52.8311488,30.181134 51.8569477,31.2890491 50.4242989,31.2890491 Z" id="Shape"></path>
                <path d="M64.0058092,33.5239811 C66.1643334,33.5239811 67.8835119,32.54978 68.5329793,30.9643153 C68.6284892,30.7350915 68.4947754,30.5822757 68.2273476,30.5822757 L66.0879254,30.5822757 C65.8969056,30.5822757 65.7822937,30.6586836 65.6294778,30.7732955 C65.3047441,31.1362332 64.7316846,31.346355 64.0631152,31.346355 C62.8023843,31.346355 61.8472851,30.6395816 61.5416533,29.4934626 L68.3992654,29.4934626 C68.6093873,29.4934626 68.7622031,29.3979527 68.8004071,29.1687289 C68.8004071,28.9586071 68.8195091,28.7293833 68.8195091,28.5192614 C68.8195091,25.6157599 66.9284127,23.6482556 63.8338914,23.6482556 C60.796676,23.6482556 58.7527637,25.6157599 58.7527637,28.5956694 C58.7527637,31.5564768 60.8730839,33.5239811 64.0058092,33.5239811 Z M61.5225514,27.7933861 C61.6944692,26.5899611 62.6495684,25.7685758 63.9102993,25.7685758 C65.1901322,25.7685758 66.0306195,26.6090631 66.0879254,27.7933861 L61.5225514,27.7933861 Z" id="Shape"></path>
                <path d="M75.6007132,33.5239811 C77.7592374,33.5239811 79.4784159,32.54978 80.1278833,30.9643153 C80.2233933,30.7350915 80.0896794,30.5822757 79.8222516,30.5822757 L77.6828294,30.5822757 C77.4918096,30.5822757 77.3771977,30.6586836 77.2243818,30.7732955 C76.8996481,31.1362332 76.3265886,31.346355 75.6580192,31.346355 C74.3972883,31.346355 73.4421891,30.6395816 73.1365574,29.4934626 L79.9941695,29.4934626 C80.2042913,29.4934626 80.3571071,29.3979527 80.3953111,29.1687289 C80.3953111,28.9586071 80.4144131,28.7293833 80.4144131,28.5192614 C80.4144131,25.6157599 78.5233167,23.6482556 75.4287954,23.6482556 C72.39158,23.6482556 70.3476678,25.6157599 70.3476678,28.5956694 C70.3476678,31.5564768 72.4679879,33.5239811 75.6007132,33.5239811 Z M73.1174554,27.7933861 C73.2893732,26.5899611 74.2444724,25.7685758 75.5052033,25.7685758 C76.7850362,25.7685758 77.6255235,26.6090631 77.6828294,27.7933861 L73.1174554,27.7933861 Z" id="Shape"></path>
                <path d="M85.3045209,33.5239811 C85.7629685,33.5239811 86.2405181,33.4475732 86.7562716,33.2947573 C86.9854954,33.2374514 87.0810054,33.1037375 87.0619034,32.8936157 L86.8708835,31.308151 C86.8517816,31.0598253 86.6989657,30.9834173 86.4697419,31.0025193 C86.2214161,31.0598253 86.0686002,31.0598253 85.8966824,31.0598253 C85.4764387,31.0598253 85.2472149,30.8114995 85.2472149,30.3339499 L85.2472149,19.4458193 C85.2472149,19.2165955 85.1135011,19.0828816 84.8842772,19.0828816 L82.7448551,19.0828816 C82.5156313,19.0828816 82.3819174,19.2165955 82.3819174,19.4458193 L82.3819174,31.2508451 C82.3819174,32.6452899 83.5280364,33.5239811 85.3045209,33.5239811 Z" id="Path"></path>
                <path d="M13.7293885,43.017667 C12.1057199,43.017667 10.844989,43.6862364 10.1573176,44.8514574 C9.56515609,43.6862364 8.45724104,43.017667 6.96728633,43.017667 C5.53463756,43.017667 4.36941656,43.6098285 3.64354119,44.5840296 C3.45252135,43.5907265 2.74574796,43.017667 1.67603688,43.017667 C1.33220118,43.017667 0.931059522,43.0749729 0.606325802,43.1895848 C0.472611917,43.2277888 0.415305966,43.3041967 0.415305966,43.4570126 L0.43440795,44.3357038 C0.43440795,44.4885197 0.549019851,44.5458257 0.70183572,44.5267237 C0.892855555,44.4885197 1.17938531,44.4503157 1.35130316,44.4503157 C1.96256663,44.4503157 2.24909639,44.7941514 2.24909639,45.5009248 L2.24909639,52.0911092 C2.24909639,52.224823 2.34460631,52.320333 2.47832019,52.320333 L3.64354119,52.320333 C3.77725507,52.320333 3.87276499,52.224823 3.87276499,52.0911092 L3.87276499,47.4684291 C3.87276499,45.6728427 4.99978202,44.4312138 6.66165459,44.4312138 C8.18981327,44.4312138 9.14491245,45.5200268 9.14491245,47.2010014 L9.14491245,52.0911092 C9.14491245,52.224823 9.24042237,52.320333 9.37413625,52.320333 L10.5584592,52.320333 C10.6921731,52.320333 10.787683,52.224823 10.787683,52.0911092 L10.787683,47.4111232 C10.787683,45.5964347 11.8000882,44.4312138 13.4046548,44.4312138 C15.0665274,44.4312138 16.0216265,45.5200268 16.0216265,47.2010014 L16.0216265,52.0911092 C16.0216265,52.224823 16.1171364,52.320333 16.2508503,52.320333 L17.4160713,52.320333 C17.5688872,52.320333 17.6452951,52.224823 17.6452951,52.0911092 L17.6452951,47.1245934 C17.6452951,44.6795395 16.1553404,43.017667 13.7293885,43.017667 Z" id="Path"></path>
                <path d="M24.8658449,52.5877607 C26.7951453,52.5877607 28.4188139,51.7090695 29.0491793,50.3337267 C29.1255873,50.1618088 29.0300773,50.0662989 28.8581595,50.0662989 L27.5974286,50.0662989 C27.4828167,50.0662989 27.3873067,50.1236048 27.3108988,50.2000128 C26.8715532,50.8685822 25.954658,51.2697239 24.8849469,51.2697239 C23.1466664,51.2697239 21.8286295,50.1236048 21.5803037,48.4617323 L29.2019952,48.4617323 C29.3166071,48.4617323 29.393015,48.4044263 29.431219,48.2898144 C29.431219,48.1178966 29.450321,47.9459787 29.450321,47.7931629 C29.450321,44.9851713 27.5974286,43.017667 24.770335,43.017667 C21.9050375,43.017667 19.9375332,44.9469673 19.9375332,47.8122648 C19.9375332,50.6584604 21.9432414,52.5877607 24.8658449,52.5877607 Z M21.5420998,47.2774093 C21.6949156,45.5391288 23.0320545,44.3357038 24.808539,44.3357038 C26.6423294,44.3357038 27.7502444,45.6728427 27.7884484,47.2774093 L21.5420998,47.2774093 Z" id="Shape"></path>
                <path d="M36.365239,52.5877607 C36.9191965,52.5877607 37.6068679,52.4922508 38.2563354,52.320333 C38.4091513,52.282129 38.4664572,52.1866191 38.4473552,52.0529052 L38.2945394,51.1742139 C38.2754374,51.0405001 38.1799275,50.9640921 38.0271116,50.9831941 C37.549562,51.097806 37.0147065,51.155112 36.5371569,51.155112 C35.276426,51.155112 34.6460605,50.4483386 34.6460605,49.0538938 L34.6460605,44.6031316 L37.9316017,44.6031316 C38.0653156,44.6031316 38.1608255,44.5076217 38.1608255,44.3739078 L38.1608255,43.5143185 C38.1608255,43.3806047 38.0653156,43.2850947 37.9316017,43.2850947 L34.6460605,43.2850947 L34.6460605,40.5344091 C34.6460605,40.3815932 34.5505506,40.3051853 34.4168367,40.3051853 L33.2325137,40.3051853 C33.0987998,40.3051853 33.0032899,40.3815932 33.0032899,40.5344091 L33.0032899,43.2850947 L30.8065618,43.2850947 C30.6728479,43.2850947 30.577338,43.3806047 30.577338,43.5143185 L30.577338,44.3739078 C30.577338,44.5076217 30.6728479,44.6031316 30.8065618,44.6031316 L33.0032899,44.6031316 L33.0032899,49.0920977 C33.0032899,51.3270298 34.2258169,52.5877607 36.365239,52.5877607 Z" id="Path"></path>
                <path d="M57.0717892,52.1293131 L56.9762793,51.2506219 C56.9571773,51.116908 56.8425654,51.0405001 56.6897495,51.078704 C56.4032198,51.13601 56.173996,51.155112 55.9447722,51.155112 C55.4290186,51.155112 55.1233869,50.7730723 55.1233869,50.1045029 L55.1233869,38.4140889 C55.1233869,38.280375 55.0469789,38.1848651 54.8941631,38.1848651 L53.7098401,38.1848651 C53.5761262,38.1848651 53.4806163,38.280375 53.4806163,38.4140889 L53.4806163,44.4885197 C52.678333,43.5525225 51.513112,43.017667 50.271483,43.017667 C47.4825934,43.017667 45.4004772,45.0615792 45.4004772,47.8122648 C45.4004772,50.5438485 47.4825934,52.5877607 50.271483,52.5877607 C51.6659278,52.5877607 52.8502508,51.9955992 53.7098401,50.9640921 C53.9008599,51.9955992 54.6267353,52.5877607 55.7537523,52.5877607 C56.11669,52.5877607 56.4796277,52.5304548 56.8998713,52.3967409 C57.0335852,52.3585369 57.0908912,52.282129 57.0717892,52.1293131 Z M50.290585,51.2315199 C48.4376926,51.2315199 47.0241458,49.7606672 47.0241458,47.8122648 C47.0241458,45.8447605 48.4376926,44.3739078 50.290585,44.3739078 C52.1243755,44.3739078 53.4997183,45.8447605 53.4997183,47.8122648 C53.4997183,49.7606672 52.1243755,51.2315199 50.290585,51.2315199 Z" id="Shape"></path>
                <path d="M63.7956874,52.5877607 C65.7249877,52.5877607 67.3486563,51.7090695 67.9790218,50.3337267 C68.0554297,50.1618088 67.9599198,50.0662989 67.788002,50.0662989 L66.5272711,50.0662989 C66.4126592,50.0662989 66.3171492,50.1236048 66.2407413,50.2000128 C65.8013957,50.8685822 64.8845005,51.2697239 63.8147894,51.2697239 C62.0765089,51.2697239 60.758472,50.1236048 60.5101462,48.4617323 L68.1318377,48.4617323 C68.2464496,48.4617323 68.3228575,48.4044263 68.3610615,48.2898144 C68.3610615,48.1178966 68.3801635,47.9459787 68.3801635,47.7931629 C68.3801635,44.9851713 66.5272711,43.017667 63.7001775,43.017667 C60.83488,43.017667 58.8673756,44.9469673 58.8673756,47.8122648 C58.8673756,50.6584604 60.8730839,52.5877607 63.7956874,52.5877607 Z M60.4719423,47.2774093 C60.6247581,45.5391288 61.961897,44.3357038 63.7383815,44.3357038 C65.5721719,44.3357038 66.6800869,45.6728427 66.7182909,47.2774093 L60.4719423,47.2774093 Z" id="Shape"></path>
                <path d="M8.07520137,71.6897443 C12.2394338,71.6897443 15.2575472,68.7671408 15.2575472,64.7366223 C15.2575472,60.7061037 12.2394338,57.7835003 8.07520137,57.7835003 C3.91096896,57.7835003 0.892855555,60.7061037 0.892855555,64.7366223 C0.892855555,68.7671408 3.91096896,71.6897443 8.07520137,71.6897443 Z M8.07520137,70.1806876 C4.94247607,70.1806876 2.61203408,67.9266535 2.61203408,64.7366223 C2.61203408,61.546591 4.94247607,59.292557 8.07520137,59.292557 C11.2079267,59.292557 13.5383687,61.546591 13.5383687,64.7366223 C13.5383687,67.9266535 11.2079267,70.1806876 8.07520137,70.1806876 Z" id="Shape"></path>
                <path d="M30.4627261,62.1196505 C28.8390575,62.1196505 27.5783266,62.7882199 26.8906552,63.9534409 C26.2984937,62.7882199 25.1905786,62.1196505 23.7006239,62.1196505 C22.2679752,62.1196505 21.1027542,62.711812 20.3768788,63.6860132 C20.1858589,62.69271 19.4790856,62.1196505 18.4093745,62.1196505 C18.0655388,62.1196505 17.6643971,62.1769565 17.3396634,62.2915684 C17.2059495,62.3297723 17.1486436,62.4061803 17.1486436,62.5589961 L17.1677455,63.4376874 C17.1677455,63.5905033 17.2823574,63.6478092 17.4351733,63.6287072 C17.6261931,63.5905033 17.9127229,63.5522993 18.0846408,63.5522993 C18.6959042,63.5522993 18.982434,63.896135 18.982434,64.6029084 L18.982434,71.1930927 C18.982434,71.3268066 19.0779439,71.4223165 19.2116578,71.4223165 L20.3768788,71.4223165 C20.5105927,71.4223165 20.6061026,71.3268066 20.6061026,71.1930927 L20.6061026,66.5704127 C20.6061026,64.7748262 21.7331196,63.5331973 23.3949922,63.5331973 C24.9231509,63.5331973 25.87825,64.6220104 25.87825,66.3029849 L25.87825,71.1930927 C25.87825,71.3268066 25.97376,71.4223165 26.1074738,71.4223165 L27.2917968,71.4223165 C27.4255107,71.4223165 27.5210206,71.3268066 27.5210206,71.1930927 L27.5210206,66.5131067 C27.5210206,64.6984183 28.5334258,63.5331973 30.1379924,63.5331973 C31.7998649,63.5331973 32.7549641,64.6220104 32.7549641,66.3029849 L32.7549641,71.1930927 C32.7549641,71.3268066 32.850474,71.4223165 32.9841879,71.4223165 L34.1494089,71.4223165 C34.3022248,71.4223165 34.3786327,71.3268066 34.3786327,71.1930927 L34.3786327,66.226577 C34.3786327,63.7815231 32.888678,62.1196505 30.4627261,62.1196505 Z" id="Path"></path>
                <path d="M44.46448,62.3679763 C44.0060324,62.1960585 43.4329729,62.1196505 42.8981174,62.1196505 C41.5036726,62.1196505 40.3384516,62.750016 39.5743723,63.8197271 C39.4215564,62.750016 38.676579,62.1196505 37.568664,62.1196505 C37.2248283,62.1196505 36.8236866,62.1769565 36.4989529,62.2915684 C36.365239,62.3297723 36.3079331,62.4061803 36.3079331,62.5589961 L36.3270351,63.4376874 C36.3270351,63.5905033 36.441647,63.6478092 36.5944628,63.6287072 C36.7854827,63.5905033 37.0720124,63.5522993 37.2439303,63.5522993 C37.8551937,63.5522993 38.1417235,63.896135 38.1417235,64.6029084 L38.1417235,71.1930927 C38.1417235,71.3268066 38.2372334,71.4223165 38.3709473,71.4223165 L39.5361683,71.4223165 C39.6698822,71.4223165 39.7653921,71.3268066 39.7653921,71.1930927 L39.7653921,66.9715543 C39.7653921,64.9467441 41.083429,63.5905033 42.8981174,63.5905033 C43.337463,63.5905033 43.7959106,63.6287072 44.1970523,63.7624211 C44.3498681,63.8006251 44.46448,63.7433191 44.483582,63.5905033 L44.6363979,62.6354041 C44.6554999,62.5016902 44.6172959,62.4061803 44.46448,62.3679763 Z" id="Path"></path>
                <path d="M47.6927153,60.0948403 C48.2848768,60.0948403 48.8006303,59.6554946 48.8006303,59.0824351 C48.8006303,58.5284776 48.2848768,58.07003 47.6927153,58.07003 C47.1005538,58.07003 46.6039022,58.5284776 46.6039022,59.0824351 C46.6039022,59.6554946 47.1005538,60.0948403 47.6927153,60.0948403 Z M47.1196558,71.4223165 L48.2848768,71.4223165 C48.4185906,71.4223165 48.5141006,71.3268066 48.5141006,71.1930927 L48.5141006,62.6163021 C48.5141006,62.4825882 48.4185906,62.3870783 48.2848768,62.3870783 L47.1196558,62.3870783 C46.9668399,62.3870783 46.890432,62.4825882 46.890432,62.6163021 L46.890432,71.1930927 C46.890432,71.3268066 46.9668399,71.4223165 47.1196558,71.4223165 Z" id="Shape"></path>
                <path d="M57.7403586,62.1196505 C56.2121999,62.1196505 54.951469,62.69271 54.1873897,63.7051152 C53.9772679,62.711812 53.2513925,62.1196505 52.2007834,62.1196505 C51.8569477,62.1196505 51.455806,62.1769565 51.1310723,62.2915684 C50.9973584,62.3297723 50.9400525,62.4061803 50.9400525,62.5589961 L50.9591545,63.4376874 C50.9591545,63.5905033 51.0737664,63.6478092 51.2265822,63.6287072 C51.4176021,63.5905033 51.7041318,63.5522993 51.8760497,63.5522993 C52.4873131,63.5522993 52.7738429,63.896135 52.7738429,64.6029084 L52.7738429,71.1930927 C52.7738429,71.3268066 52.8693528,71.4223165 53.0030667,71.4223165 L54.1682877,71.4223165 C54.3020016,71.4223165 54.3975115,71.3268066 54.3975115,71.1930927 L54.3975115,66.5704127 C54.3975115,64.7557243 55.6582424,63.5331973 57.4156249,63.5331973 C59.0583955,63.5331973 60.1281066,64.6220104 60.1281066,66.3029849 L60.1281066,71.1930927 C60.1281066,71.3268066 60.2236165,71.4223165 60.3573304,71.4223165 L61.5225514,71.4223165 C61.6753672,71.4223165 61.7708771,71.3268066 61.7708771,71.1930927 L61.7708771,66.226577 C61.7708771,63.7815231 60.1663105,62.1196505 57.7403586,62.1196505 Z" id="Path"></path>
                <path d="M73.537699,62.3870783 L72.372478,62.3870783 C72.2387641,62.3870783 72.1432542,62.4825882 72.1432542,62.6163021 L72.1432542,63.6287072 C71.3409709,62.673608 70.1566479,62.1196505 68.895917,62.1196505 C66.1070274,62.1196505 64.0440132,64.1635628 64.0440132,66.9142484 C64.0440132,69.645832 66.1070274,71.6897443 68.895917,71.6897443 C70.1757499,71.6897443 71.3600729,71.1166848 72.1432542,70.1424836 L72.1432542,71.6706423 C72.1432542,73.4662288 70.9207273,74.6505517 69.0678349,74.6505517 C67.5778801,74.6505517 66.4126592,73.9437783 66.0688234,72.8549653 C66.0306195,72.7212514 65.9542115,72.6639454 65.8204977,72.6639454 L64.6170727,72.6639454 C64.4642568,72.6639454 64.3687469,72.7594554 64.4069509,72.9122712 C64.8462965,74.8224696 66.641883,76.0449965 69.0678349,76.0449965 C71.9140304,76.0449965 73.7669228,74.287614 73.7669228,71.6706423 L73.7669228,62.6163021 C73.7669228,62.4825882 73.6714129,62.3870783 73.537699,62.3870783 Z M68.934121,70.3335035 C67.0812286,70.3335035 65.6676818,68.8626507 65.6676818,66.9142484 C65.6676818,64.9467441 67.0812286,63.4758914 68.934121,63.4758914 C70.7488094,63.4758914 72.1432542,64.9467441 72.1432542,66.9142484 C72.1432542,68.8626507 70.7488094,70.3335035 68.934121,70.3335035 Z" id="Shape"></path>
                <path d="M82.802161,62.1196505 C81.4841242,62.1196505 80.2042913,62.711812 79.363804,63.7624211 C79.1727842,62.750016 78.4469088,62.1196505 77.3580957,62.1196505 C77.01426,62.1196505 76.6131184,62.1769565 76.2883846,62.2915684 C76.1546708,62.3297723 76.0973648,62.4061803 76.0973648,62.5589961 L76.1164668,63.4376874 C76.1164668,63.5905033 76.2310787,63.6478092 76.3838946,63.6287072 C76.5749144,63.5905033 76.8614442,63.5522993 77.033362,63.5522993 C77.6446255,63.5522993 77.9311552,63.896135 77.9311552,64.6029084 L77.9311552,75.548345 C77.9311552,75.6820588 78.0266652,75.7775688 78.160379,75.7775688 L79.3256,75.7775688 C79.4593139,75.7775688 79.5548238,75.6820588 79.5548238,75.548345 L79.5548238,70.1424836 C80.3380052,71.1166848 81.5223281,71.6897443 82.802161,71.6897443 C85.5719487,71.6897443 87.6540649,69.645832 87.6540649,66.9142484 C87.6540649,64.1635628 85.5719487,62.1196505 82.802161,62.1196505 Z M82.7639571,70.3335035 C80.9492686,70.3335035 79.5548238,68.8626507 79.5548238,66.9142484 C79.5548238,64.9467441 80.9492686,63.4758914 82.7639571,63.4758914 C84.6168495,63.4758914 86.0303963,64.9467441 86.0303963,66.9142484 C86.0303963,68.8626507 84.6168495,70.3335035 82.7639571,70.3335035 Z" id="Shape"></path>
                <path d="M101.464799,71.2312967 L101.369289,70.3526054 C101.350187,70.2188916 101.235575,70.1424836 101.101861,70.1806876 C100.79623,70.2379935 100.567006,70.2570955 100.337782,70.2570955 C99.8220284,70.2570955 99.5354986,69.8941578 99.5354986,69.2255884 L99.5354986,62.6163021 C99.5354986,62.4825882 99.4399887,62.3870783 99.3062748,62.3870783 L98.1219519,62.3870783 C97.988238,62.3870783 97.8927281,62.4825882 97.8927281,62.6163021 L97.8927281,63.6096052 C97.0713428,62.673608 95.9061218,62.1196505 94.6644928,62.1196505 C91.8756032,62.1196505 89.793487,64.1635628 89.793487,66.9142484 C89.793487,69.645832 91.8756032,71.6897443 94.6644928,71.6897443 C96.0398356,71.6897443 97.2241586,71.0975828 98.1028499,70.0851777 C98.2938697,71.1166848 99.0388471,71.6897443 100.146762,71.6897443 C100.5097,71.6897443 100.891739,71.6324383 101.292881,71.4987244 C101.426595,71.4605205 101.483901,71.3841125 101.464799,71.2312967 Z M94.6835948,70.3335035 C92.8307024,70.3335035 91.4171556,68.8626507 91.4171556,66.9142484 C91.4171556,64.9467441 92.8307024,63.4758914 94.6835948,63.4758914 C96.5173852,63.4758914 97.8927281,64.9467441 97.8927281,66.9142484 C97.8927281,68.8626507 96.5173852,70.3335035 94.6835948,70.3335035 Z" id="Shape"></path>
                <path d="M107.53923,71.6897443 C109.869672,71.6897443 111.455136,70.5818292 111.455136,68.9008547 C111.455136,65.042254 105.094176,67.1816762 105.094176,64.6602143 C105.094176,63.857931 105.972867,63.3421775 107.310006,63.3421775 C108.570737,63.3421775 109.56404,63.857931 109.812366,64.8321322 C109.85057,64.9276421 109.926978,64.9849481 110.060692,64.9849481 L111.130403,64.9849481 C111.283219,64.9849481 111.378728,64.8894381 111.359626,64.7366223 C111.111301,63.1893616 109.487632,62.1196505 107.290904,62.1196505 C105.017768,62.1196505 103.489609,63.2084636 103.489609,64.8130302 C103.489609,68.576121 109.888774,66.4749028 109.888774,68.9963646 C109.888774,69.8368519 108.952777,70.4290134 107.53923,70.4290134 C105.991969,70.4290134 104.979564,69.8368519 104.65483,68.8053448 C104.597524,68.6716309 104.540218,68.5952229 104.406504,68.5952229 L103.336793,68.5952229 C103.164876,68.5952229 103.088468,68.6907329 103.10757,68.8435487 C103.432303,70.6582372 105.017768,71.6897443 107.53923,71.6897443 Z" id="Path"></path>
            </g>
        </g>
    </g>
</svg>