<?xml version="1.0" encoding="UTF-8"?>
<svg width="113.479682px" height="121.563421px" viewBox="0 0 113.479682 121.563421" version="1.1" xmlns="http://www.w3.org/2000/svg" xmlns:xlink="http://www.w3.org/1999/xlink">
    <title>Group 2</title>
    <defs>
        <rect id="path-1" x="0" y="0" width="109.479682" height="23.8105123" rx="11.9052562"></rect>
        <filter x="-2.7%" y="-12.6%" width="105.5%" height="125.2%" filterUnits="objectBoundingBox" id="filter-2">
            <feOffset dx="0" dy="0" in="SourceAlpha" result="shadowOffsetOuter1"></feOffset>
            <feGaussianBlur stdDeviation="1" in="shadowOffsetOuter1" result="shadowBlurOuter1"></feGaussianBlur>
            <feColorMatrix values="0 0 0 0 0   0 0 0 0 0.368045807   0 0 0 0 0.361608624  0 0 0 0.5 0" type="matrix" in="shadowBlurOuter1"></feColorMatrix>
        </filter>
    </defs>
    <g id="Spotlight-4---HTML-5-" stroke="none" stroke-width="1" fill="none" fill-rule="evenodd">
        <g id="120x600px_3" transform="translate(-3.260159, -234.859424)">
            <g id="Group-2" transform="translate(5.260159, 236.859424)">
                <g id="VVV-cadeau--kaart-t." transform="translate(3.008318, 34.717525)" fill="#FFFFFF" fill-rule="nonzero">
                    <path d="M6.415187,13.4450027 L8.81608033,13.4450027 C9.02735895,13.4450027 9.16180897,13.348967 9.23863756,13.1761026 L15.0199887,0.422557227 C15.1352316,0.17286432 15.0199887,0 14.7318815,0 L12.1965381,0 C11.9852595,0 11.8508095,0.0960357335 11.7739809,0.268900054 L7.60603009,9.64198764 L3.4572864,0.268900054 C3.38045782,0.0960357335 3.22680064,0 3.03472918,0 L0.480178667,0 C0.192071467,0 0.0768285868,0.17286432 0.192071467,0.422557227 L5.99262977,13.1761026 C6.06945835,13.348967 6.22311553,13.4450027 6.415187,13.4450027 Z" id="Path"></path>
                    <path d="M21.3193186,13.4450027 L23.720212,13.4450027 C23.9314906,13.4450027 24.0659406,13.348967 24.1427692,13.1761026 L29.9241204,0.422557227 C30.0393632,0.17286432 29.9241204,0 29.6360132,0 L27.1006698,0 C26.8893912,0 26.7549412,0.0960357335 26.6781126,0.268900054 L22.5101617,9.64198764 L18.3614181,0.268900054 C18.2845895,0.0960357335 18.1309323,0 17.9388608,0 L15.3843103,0 C15.0962031,0 14.9809602,0.17286432 15.0962031,0.422557227 L20.8967614,13.1761026 C20.97359,13.348967 21.1272472,13.4450027 21.3193186,13.4450027 Z" id="Path"></path>
                    <path d="M36.2234503,13.4450027 L38.6243436,13.4450027 C38.8356222,13.4450027 38.9700723,13.348967 39.0469009,13.1761026 L44.828252,0.422557227 C44.9434949,0.17286432 44.828252,0 44.5401448,0 L42.0048014,0 C41.7935228,0 41.6590728,0.0960357335 41.5822442,0.268900054 L37.4142934,9.64198764 L33.2655497,0.268900054 C33.1887211,0.0960357335 33.0350639,0 32.8429925,0 L30.288442,0 C30.0003348,0 29.8850919,0.17286432 30.0003348,0.422557227 L35.8008931,13.1761026 C35.8777216,13.348967 36.0313788,13.4450027 36.2234503,13.4450027 Z" id="Path"></path>
                    <path d="M5.93500833,36.752317 C8.48955884,36.752317 10.3718592,35.3886096 10.7752093,33.2758235 C10.8136236,33.0453377 10.6791736,32.8916805 10.4486878,32.8916805 L8.3935231,32.8916805 C8.18224449,32.8916805 8.08620876,33.0069234 7.99017302,33.1989949 C7.72127297,33.9672808 6.93377996,34.4282523 5.93500833,34.4282523 C4.41764374,34.4282523 3.41887211,33.3910664 3.41887211,31.7968732 C3.41887211,30.20268 4.41764374,29.1462869 5.93500833,29.1462869 C6.93377996,29.1462869 7.72127297,29.6264656 7.99017302,30.3755443 C8.08620876,30.5868229 8.18224449,30.6828587 8.3935231,30.6828587 L10.4486878,30.6828587 C10.6791736,30.6828587 10.8136236,30.5484087 10.7752093,30.2987157 C10.3718592,28.1859296 8.48955884,26.8222222 5.93500833,26.8222222 C2.76582912,26.8222222 0.653042988,28.8005583 0.653042988,31.7968732 C0.653042988,34.7739809 2.76582912,36.752317 5.93500833,36.752317 Z" id="Path"></path>
                    <path d="M24.2195978,36.1184812 L24.0275263,34.524288 C24.0083192,34.2745951 23.854662,34.1977665 23.6241762,34.2169737 C23.3744833,34.2745951 23.2208262,34.2745951 23.0287547,34.2745951 C22.6254046,34.2745951 22.3949189,34.0249022 22.3949189,33.5255164 L22.3949189,27.4944723 C22.3949189,27.2639866 22.2604688,27.1295365 22.0299831,27.1295365 L19.9171969,27.1295365 C19.6867112,27.1295365 19.5522611,27.2639866 19.5522611,27.4944723 L19.5522611,27.7057509 C18.7839753,27.1103294 17.8428251,26.8222222 16.8248463,26.8222222 C13.8477386,26.8222222 11.7733667,28.8581797 11.7733667,31.7968732 C11.7733667,34.7163595 13.8477386,36.752317 16.8248463,36.752317 C18.0733109,36.752317 19.1489111,36.3681741 20.051647,35.5806811 C20.454997,36.3105527 21.3001115,36.752317 22.4717474,36.752317 C22.932719,36.752317 23.3936905,36.6754884 23.9122834,36.5218313 C24.1427692,36.4642098 24.2388049,36.3297598 24.2195978,36.1184812 Z M17.0745392,34.5050809 C15.6147961,34.5050809 14.5968173,33.3910664 14.5968173,31.7968732 C14.5968173,30.1834729 15.6147961,29.0694584 17.0745392,29.0694584 C18.5150752,29.0694584 19.4946397,30.1834729 19.4946397,31.7968732 C19.4946397,33.3910664 18.5150752,34.5050809 17.0745392,34.5050809 Z" id="Shape"></path>
                    <path d="M37.3374648,36.1184812 L37.1646005,34.524288 C37.1453933,34.2745951 36.9917362,34.1977665 36.7420433,34.2169737 C36.5115575,34.2745951 36.3579003,34.2745951 36.1658289,34.2745951 C35.7624788,34.2745951 35.531993,34.0249022 35.531993,33.5447235 L35.531993,22.5966499 C35.531993,22.3661642 35.397543,22.2317141 35.1670572,22.2317141 L32.9966496,22.2317141 C32.7661639,22.2317141 32.6317139,22.3661642 32.6317139,22.5966499 L32.6317139,27.6481295 C31.8442208,27.0719151 30.9414849,26.8222222 29.9619205,26.8222222 C26.9848127,26.8222222 24.9104409,28.8581797 24.9104409,31.7968732 C24.9104409,34.7163595 26.9848127,36.752317 29.9619205,36.752317 C31.2487993,36.752317 32.3051924,36.348967 33.1503068,35.5422668 C33.5536569,36.3105527 34.4371856,36.752317 35.5704073,36.752317 C36.050586,36.752317 36.5307646,36.6754884 37.0493576,36.5218313 C37.2798434,36.4642098 37.3758791,36.3297598 37.3374648,36.1184812 Z M30.2116134,34.5050809 C28.7518702,34.5050809 27.7338915,33.3910664 27.7338915,31.7968732 C27.7338915,30.1834729 28.7518702,29.0694584 30.2116134,29.0694584 C31.6521494,29.0694584 32.6317139,30.1834729 32.6317139,31.7968732 C32.6317139,33.3910664 31.6521494,34.5050809 30.2116134,34.5050809 Z" id="Shape"></path>
                    <path d="M43.3678947,36.752317 C45.5383022,36.752317 47.2669455,35.7727526 47.9199884,34.1785594 C48.0160242,33.9480736 47.8815741,33.7944164 47.6126741,33.7944164 L45.4614737,33.7944164 C45.2694022,33.7944164 45.1541593,33.871245 45.0005021,33.9864879 C44.6739806,34.3514237 44.0977662,34.5627023 43.4255161,34.5627023 C42.1578444,34.5627023 41.1974871,33.8520379 40.8901728,32.6996091 L47.7855384,32.6996091 C47.996817,32.6996091 48.1504742,32.6035733 48.1888885,32.3730876 C48.1888885,32.161809 48.2080956,31.9313232 48.2080956,31.7200446 C48.2080956,28.8005583 46.3065881,26.8222222 43.1950304,26.8222222 C40.141094,26.8222222 38.0859293,28.8005583 38.0859293,31.7968732 C38.0859293,34.7739809 40.2179226,36.752317 43.3678947,36.752317 Z M40.8709656,30.990173 C41.0438299,29.7801228 42.0041873,28.9542155 43.2718589,28.9542155 C44.5587378,28.9542155 45.4038522,29.7993299 45.4614737,30.990173 L40.8709656,30.990173 Z" id="Shape"></path>
                    <path d="M61.6716913,36.1184812 L61.4796198,34.524288 C61.4604127,34.2745951 61.3067555,34.1977665 61.0762697,34.2169737 C60.8265768,34.2745951 60.6729197,34.2745951 60.4808482,34.2745951 C60.0774981,34.2745951 59.8470123,34.0249022 59.8470123,33.5255164 L59.8470123,27.4944723 C59.8470123,27.2639866 59.7125623,27.1295365 59.4820766,27.1295365 L57.3692904,27.1295365 C57.1388047,27.1295365 57.0043546,27.2639866 57.0043546,27.4944723 L57.0043546,27.7057509 C56.2360688,27.1103294 55.2949186,26.8222222 54.2769398,26.8222222 C51.2998321,26.8222222 49.2254602,28.8581797 49.2254602,31.7968732 C49.2254602,34.7163595 51.2998321,36.752317 54.2769398,36.752317 C55.5254043,36.752317 56.6010046,36.3681741 57.5037405,35.5806811 C57.9070905,36.3105527 58.752205,36.752317 59.9238409,36.752317 C60.3848125,36.752317 60.845784,36.6754884 61.3643769,36.5218313 C61.5948627,36.4642098 61.6908984,36.3297598 61.6716913,36.1184812 Z M54.5266327,34.5050809 C53.0668896,34.5050809 52.0489108,33.3910664 52.0489108,31.7968732 C52.0489108,30.1834729 53.0668896,29.0694584 54.5266327,29.0694584 C55.9671687,29.0694584 56.9467332,30.1834729 56.9467332,31.7968732 C56.9467332,33.3910664 55.9671687,34.5050809 54.5266327,34.5050809 Z" id="Shape"></path>
                    <path d="M74.4246225,36.1184812 L74.2517582,34.524288 C74.2133439,34.2745951 74.0596867,34.1977665 73.829201,34.2169737 C73.579508,34.2745951 73.4258509,34.2745951 73.2337794,34.2745951 C72.8304293,34.2745951 72.5999436,34.0249022 72.5999436,33.5255164 L72.5999436,27.4944723 C72.5999436,27.2639866 72.4462864,27.1295365 72.2350078,27.1295365 L70.0646002,27.1295365 C69.8533216,27.1295365 69.6996644,27.2639866 69.6996644,27.4944723 L69.6996644,32.2194304 C69.6996644,33.4871021 68.8737571,34.2938023 67.5868783,34.2938023 C66.3576209,34.2938023 65.5701279,33.4294807 65.5701279,32.1233947 L65.5701279,27.4944723 C65.5701279,27.2639866 65.4356779,27.1295365 65.2051921,27.1295365 L63.0539917,27.1295365 C62.8235059,27.1295365 62.6890559,27.2639866 62.6890559,27.4944723 L62.6890559,32.5075376 C62.6890559,35.0620881 64.3408705,36.752317 66.8377996,36.752317 C68.201507,36.752317 69.3347286,36.348967 70.1030145,35.6383025 C70.5447789,36.3297598 71.4475148,36.752317 72.6767722,36.752317 C73.1377437,36.752317 73.5987152,36.6754884 74.1365153,36.5218313 C74.3477939,36.4642098 74.4438297,36.3297598 74.4246225,36.1184812 Z" id="Path"></path>
                    <path d="M76.5560016,32.7380234 L83.0672243,32.7380234 C83.2785029,32.7380234 83.4321601,32.6035733 83.4321601,32.3922947 L83.4321601,30.4907872 C83.4321601,30.2603014 83.2785029,30.1258514 83.0672243,30.1258514 L76.5560016,30.1258514 C76.344723,30.1258514 76.210273,30.2603014 76.210273,30.4907872 L76.210273,32.3922947 C76.210273,32.6035733 76.344723,32.7380234 76.5560016,32.7380234 Z" id="Path"></path>
                    <path d="M11.389838,59.0224455 L7.26030145,54.7968732 L10.8520379,50.5713009 C11.0633165,50.3024009 10.9864879,50.1295365 10.6791736,50.1295365 L8.23986593,50.1295365 C8.06700161,50.1295365 7.91334444,50.1679508 7.79810156,50.321608 L3.99508651,54.7968732 L3.99508651,45.5966499 C3.99508651,45.3661642 3.86063649,45.2317141 3.64935787,45.2317141 L1.45974315,45.2317141 C1.24846454,45.2317141 1.11401451,45.3661642 1.11401451,45.5966499 L1.11401451,59.0800669 C1.11401451,59.3105527 1.24846454,59.4450027 1.45974315,59.4450027 L3.64935787,59.4450027 C3.86063649,59.4450027 3.99508651,59.3105527 3.99508651,59.0800669 L3.99508651,55.0849804 L8.00938017,59.2337241 C8.1438302,59.3873812 8.23986593,59.4450027 8.4319374,59.4450027 L11.1593522,59.4450027 C11.4474594,59.4450027 11.5819095,59.2529312 11.389838,59.0224455 Z" id="Path"></path>
                    <path d="M23.9314906,59.1184812 L23.7394191,57.524288 C23.720212,57.2745951 23.5665548,57.1977665 23.336069,57.2169737 C23.0863761,57.2745951 22.932719,57.2745951 22.7406475,57.2745951 C22.3372974,57.2745951 22.1068117,57.0249022 22.1068117,56.5255164 L22.1068117,50.4944723 C22.1068117,50.2639866 21.9723616,50.1295365 21.7418759,50.1295365 L19.6290897,50.1295365 C19.398604,50.1295365 19.2641539,50.2639866 19.2641539,50.4944723 L19.2641539,50.7057509 C18.4958681,50.1103294 17.5547179,49.8222222 16.5367391,49.8222222 C13.5596314,49.8222222 11.4852595,51.8581797 11.4852595,54.7968732 C11.4852595,57.7163595 13.5596314,59.752317 16.5367391,59.752317 C17.7852037,59.752317 18.8608039,59.3681741 19.7635398,58.5806811 C20.1668898,59.3105527 21.0120043,59.752317 22.1836402,59.752317 C22.6446118,59.752317 23.1055833,59.6754884 23.6241762,59.5218313 C23.854662,59.4642098 23.9506977,59.3297598 23.9314906,59.1184812 Z M16.786432,57.5050809 C15.3266889,57.5050809 14.3087101,56.3910664 14.3087101,54.7968732 C14.3087101,53.1834729 15.3266889,52.0694584 16.786432,52.0694584 C18.226968,52.0694584 19.2065325,53.1834729 19.2065325,54.7968732 C19.2065325,56.3910664 18.226968,57.5050809 16.786432,57.5050809 Z" id="Shape"></path>
                    <path d="M37.0685647,59.1184812 L36.8764933,57.524288 C36.8572861,57.2745951 36.703629,57.1977665 36.4731432,57.2169737 C36.2234503,57.2745951 36.0697931,57.2745951 35.8777216,57.2745951 C35.4743716,57.2745951 35.2438858,57.0249022 35.2438858,56.5255164 L35.2438858,50.4944723 C35.2438858,50.2639866 35.1094358,50.1295365 34.87895,50.1295365 L32.7661639,50.1295365 C32.5356781,50.1295365 32.4012281,50.2639866 32.4012281,50.4944723 L32.4012281,50.7057509 C31.6329422,50.1103294 30.691792,49.8222222 29.6738133,49.8222222 C26.6967055,49.8222222 24.6223337,51.8581797 24.6223337,54.7968732 C24.6223337,57.7163595 26.6967055,59.752317 29.6738133,59.752317 C30.9222778,59.752317 31.997878,59.3681741 32.9006139,58.5806811 C33.303964,59.3105527 34.1490784,59.752317 35.3207144,59.752317 C35.7816859,59.752317 36.2426574,59.6754884 36.7612504,59.5218313 C36.9917362,59.4642098 37.0877719,59.3297598 37.0685647,59.1184812 Z M29.9235062,57.5050809 C28.463763,57.5050809 27.4457843,56.3910664 27.4457843,54.7968732 C27.4457843,53.1834729 28.463763,52.0694584 29.9235062,52.0694584 C31.3640422,52.0694584 32.3436067,53.1834729 32.3436067,54.7968732 C32.3436067,56.3910664 31.3640422,57.5050809 29.9235062,57.5050809 Z" id="Shape"></path>
                    <path d="M45.9800666,49.9950865 C45.634338,49.8798436 45.115745,49.8222222 44.6547735,49.8222222 C43.3871018,49.8222222 42.2922945,50.2831937 41.5240086,51.1283082 C41.1590728,50.321608 40.3139583,49.8222222 39.1999438,49.8222222 C38.7581795,49.8222222 38.2587937,49.8990508 37.8170293,50.052708 C37.6057507,50.1295365 37.5289221,50.2447794 37.5289221,50.4752652 L37.5289221,52.0502512 C37.5289221,52.2999441 37.7017864,52.3575656 37.9514793,52.3575656 C38.0667222,52.3383584 38.2587937,52.2999441 38.3740365,52.2999441 C38.9118366,52.2999441 39.1231153,52.5304299 39.1231153,53.0490228 L39.1231153,59.0800669 C39.1231153,59.3105527 39.2575653,59.4450027 39.488051,59.4450027 L41.6392515,59.4450027 C41.8697372,59.4450027 42.0041873,59.3105527 42.0041873,59.0800669 L42.0041873,54.9505304 C42.0041873,53.3755443 43.0797875,52.4536013 44.5395306,52.4536013 C44.9044664,52.4536013 45.3078165,52.4920156 45.5959237,52.549637 C45.8264095,52.5880513 45.9800666,52.4920156 46.0184809,52.2615298 L46.2681738,50.4176437 C46.287381,50.2063651 46.2105524,50.052708 45.9800666,49.9950865 Z" id="Path"></path>
                    <path d="M52.5482966,59.752317 C53.1437182,59.752317 54.0272469,59.6370742 54.7955328,59.4450027 C55.0260185,59.3681741 55.1028471,59.2337241 55.08364,59.0224455 L54.8339471,57.3706308 C54.7955328,57.1593522 54.6418756,57.0441093 54.4113898,57.0825236 C53.9504183,57.1977665 53.3934111,57.255388 52.9708538,57.255388 C52.0104965,57.255388 51.3766607,56.6599664 51.3766607,55.6804019 L51.3766607,52.4536013 L54.3921827,52.4536013 C54.6034613,52.4536013 54.7571185,52.3191513 54.7571185,52.0886655 L54.7571185,50.4944723 C54.7571185,50.2639866 54.6034613,50.1295365 54.3921827,50.1295365 L51.3766607,50.1295365 L51.3766607,47.6902289 C51.3766607,47.4597431 51.2422106,47.3252931 51.0117249,47.3252931 L48.8605244,47.3252931 C48.6300387,47.3252931 48.4955887,47.4597431 48.4955887,47.6902289 L48.4955887,50.1295365 L46.7285312,50.1295365 C46.4980454,50.1295365 46.3635954,50.2639866 46.3635954,50.4944723 L46.3635954,52.0886655 C46.3635954,52.3191513 46.4980454,52.4536013 46.7285312,52.4536013 L48.4955887,52.4536013 L48.4955887,55.7764377 C48.4955887,58.2349524 50.0513675,59.752317 52.5482966,59.752317 Z" id="Path"></path>
                    <path d="M6.18470123,82.752317 C6.78012278,82.752317 7.66365153,82.6370742 8.4319374,82.4450027 C8.66242316,82.3681741 8.73925175,82.2337241 8.7200446,82.0224455 L8.47035169,80.3706308 C8.4319374,80.1593522 8.27828022,80.0441093 8.04779446,80.0825236 C7.58682294,80.1977665 7.02981569,80.255388 6.60725846,80.255388 C5.64690113,80.255388 5.01306529,79.6599664 5.01306529,78.6804019 L5.01306529,75.4536013 L8.02858732,75.4536013 C8.23986593,75.4536013 8.3935231,75.3191513 8.3935231,75.0886655 L8.3935231,73.4944723 C8.3935231,73.2639866 8.23986593,73.1295365 8.02858732,73.1295365 L5.01306529,73.1295365 L5.01306529,70.6902289 C5.01306529,70.4597431 4.87861526,70.3252931 4.6481295,70.3252931 L2.49692907,70.3252931 C2.26644331,70.3252931 2.13199328,70.4597431 2.13199328,70.6902289 L2.13199328,73.1295365 L0.364935787,73.1295365 C0.134450027,73.1295365 0,73.2639866 0,73.4944723 L0,75.0886655 C0,75.3191513 0.134450027,75.4536013 0.364935787,75.4536013 L2.13199328,75.4536013 L2.13199328,78.7764377 C2.13199328,81.2349524 3.68777216,82.752317 6.18470123,82.752317 Z" id="Path"></path>
                    <path d="M10.9282523,82.752317 C11.811781,82.752317 12.5224455,82.099274 12.5224455,81.2541596 C12.5224455,80.4282523 11.811781,79.7560021 10.9282523,79.7560021 C10.0447235,79.7560021 9.31485196,80.4282523 9.31485196,81.2541596 C9.31485196,82.099274 10.0447235,82.752317 10.9282523,82.752317 Z" id="Path"></path>
                    <path d="M15.6525962,82.4450027 L17.6309323,82.4450027 C17.8422109,82.4450027 17.9766609,82.3681741 18.0342824,82.1568955 L19.7245113,77.2974874 L21.395533,82.1568955 C21.4531545,82.3681741 21.6068117,82.4450027 21.7988831,82.4450027 L23.7772192,82.4450027 C23.9692907,82.4450027 24.1229479,82.348967 24.1997765,82.1568955 L27.3689557,73.5328866 C27.4649914,73.2831937 27.3305414,73.1295365 27.0808485,73.1295365 L24.8144052,73.1295365 C24.6031265,73.1295365 24.4686765,73.2255723 24.4110551,73.4368509 L22.6824119,78.3730876 L20.9729758,73.4176437 C20.8961472,73.2063651 20.7616972,73.1295365 20.5504186,73.1295365 L18.8601897,73.1295365 C18.6681182,73.1295365 18.5336682,73.2063651 18.4568396,73.4176437 L16.7281964,78.3538804 L15.0187603,73.4368509 C14.9611389,73.2255723 14.8266889,73.1295365 14.6154103,73.1295365 L12.3297598,73.1295365 C12.0800669,73.1295365 11.9456169,73.2831937 12.0416526,73.5328866 L15.230039,82.1568955 C15.2876604,82.348967 15.4605247,82.4450027 15.6525962,82.4450027 Z" id="Path"></path>
                    <path d="M28.482356,82.752317 C29.3658847,82.752317 30.0765492,82.099274 30.0765492,81.2541596 C30.0765492,80.4282523 29.3658847,79.7560021 28.482356,79.7560021 C27.5988272,79.7560021 26.8689557,80.4282523 26.8689557,81.2541596 C26.8689557,82.099274 27.5988272,82.752317 28.482356,82.752317 Z" id="Path"></path>
                    <path d="M33.9749858,82.4450027 L36.1261862,82.4450027 C36.3182577,82.4450027 36.4527077,82.348967 36.5295363,82.1761026 L40.5438299,73.5520938 C40.6590728,73.3024009 40.5246228,73.1295365 40.2557227,73.1295365 L37.9892794,73.1295365 C37.7972079,73.1295365 37.6627579,73.2255723 37.5859293,73.3984366 L35.050586,78.9685091 L32.5536569,73.3984366 C32.4768283,73.2255723 32.3423783,73.1295365 32.1310997,73.1295365 L29.8454492,73.1295365 C29.5765492,73.1295365 29.4613063,73.3024009 29.557342,73.5520938 L33.5716357,82.1761026 C33.6484643,82.348967 33.7829143,82.4450027 33.9749858,82.4450027 Z" id="Path"></path>
                    <path d="M41.618816,82.752317 C42.5023447,82.752317 43.2130091,82.099274 43.2130091,81.2541596 C43.2130091,80.4282523 42.5023447,79.7560021 41.618816,79.7560021 C40.7352872,79.7560021 40.0054156,80.4282523 40.0054156,81.2541596 C40.0054156,82.099274 40.7352872,82.752317 41.618816,82.752317 Z" id="Path"></path>
                    <path d="M63.7058063,77.1822445 L61.3241201,77.1822445 C61.1320486,77.1822445 60.9975986,77.2974874 60.92077,77.508766 C60.402177,79.1221663 59.0192625,80.0633165 57.2329978,80.0633165 C55.4851475,80.0633165 54.1406472,79.2374092 53.4683971,77.8737018 L57.117755,77.8737018 C57.3290336,77.8737018 57.4634836,77.777666 57.5018979,77.5663874 L57.7515908,76.7020658 C57.8092122,76.4523729 57.6939694,76.2987157 57.4442765,76.2987157 L53.0458399,76.2987157 C53.0266327,76.1066443 53.0074256,75.9145728 53.0074256,75.7032942 C53.0074256,75.5112227 53.0266327,75.3191513 53.0458399,75.1270798 L57.8284194,75.1270798 C58.039698,75.1270798 58.1933552,75.0310441 58.2317695,74.8197654 L58.4622552,73.974651 C58.5390838,73.7249581 58.4238409,73.5713009 58.174148,73.5713009 L53.4683971,73.5713009 C54.1214401,72.2075935 55.4851475,71.362479 57.2329978,71.362479 C59.0384696,71.362479 60.3253485,72.3228364 60.92077,73.9362367 C60.9975986,74.1475153 61.1320486,74.243551 61.3241201,74.243551 L63.7058063,74.243551 C63.9554992,74.243551 64.0899492,74.0898939 64.0515349,73.8594081 C63.4561134,70.6902289 60.7479057,68.6926857 57.2137907,68.6926857 C53.6220543,68.6926857 51.0290895,70.574986 50.2031822,73.5713009 L48.7818533,73.5713009 C48.5705747,73.5713009 48.4169175,73.7057509 48.4169175,73.9170296 L48.4169175,74.7813512 C48.4169175,74.9926298 48.5705747,75.1270798 48.7818533,75.1270798 L49.9534892,75.1270798 C49.9342821,75.3191513 49.9342821,75.5112227 49.9342821,75.7032942 C49.9342821,75.9145728 49.9342821,76.1066443 49.9534892,76.2987157 L48.7818533,76.2987157 C48.5705747,76.2987157 48.4169175,76.4523729 48.4169175,76.6636515 L48.4169175,77.508766 C48.4169175,77.7392517 48.5705747,77.8737018 48.7818533,77.8737018 L50.2223893,77.8737018 C51.0482966,80.8700167 53.6412614,82.7331099 57.2137907,82.7331099 C60.7479057,82.7331099 63.4561134,80.7547738 64.0515349,77.5663874 C64.0899492,77.3359017 63.9554992,77.1822445 63.7058063,77.1822445 Z" id="Path"></path>
                    <path d="M74.8639301,69 L69.2554433,69 C69.0441647,69 68.948129,69.1152429 68.948129,69.3265215 L68.948129,71.1127861 C68.948129,71.3432719 69.1017861,71.4393076 69.3322719,71.4393076 L72.2901725,71.4393076 L72.2901725,82.0800669 C72.2901725,82.3105527 72.4438297,82.4450027 72.6743154,82.4450027 L74.8639301,82.4450027 C75.0944159,82.4450027 75.2288659,82.3105527 75.2288659,82.0800669 L75.2288659,69.3649358 C75.2288659,69.13445 75.0944159,69 74.8639301,69 Z" id="Path"></path>
                    <path d="M82.987939,68.6926857 C79.5306526,68.6926857 77.2450021,70.8438861 77.2450021,74.0898939 L77.2450021,77.3551088 C77.2450021,80.6011166 79.5306526,82.752317 82.987939,82.752317 C86.4260183,82.752317 88.7308759,80.6011166 88.7308759,77.3551088 L88.7308759,74.0898939 C88.7308759,70.8438861 86.4260183,68.6926857 82.987939,68.6926857 Z M85.8498039,77.3551088 C85.8498039,79.1029592 84.6973751,80.2745951 82.987939,80.2745951 C81.2592958,80.2745951 80.106867,79.1029592 80.106867,77.3551088 L80.106867,74.0898939 C80.106867,72.3420435 81.2592958,71.1704076 82.987939,71.1704076 C84.6973751,71.1704076 85.8498039,72.3420435 85.8498039,74.0898939 L85.8498039,77.3551088 Z" id="Shape"></path>
                    <path d="M90.8430478,79.7944164 C89.9403119,79.7944164 89.1912332,80.4474594 89.1912332,81.2733667 C89.1912332,81.8687883 89.5945833,82.348967 90.1515905,82.5602456 L89.3256832,84.4233388 C89.2104403,84.6922388 89.3256832,84.845896 89.5945833,84.845896 L90.4396977,84.845896 C90.6317692,84.845896 90.7854264,84.7882746 90.8814621,84.6154103 L92.0338909,82.5218313 C92.302791,82.0608598 92.4948624,81.6767168 92.4948624,81.2733667 C92.4948624,80.4474594 91.7457837,79.7944164 90.8430478,79.7944164 Z" id="Path"></path>
                    <path d="M94.7606915,78.7380234 L101.271914,78.7380234 C101.483193,78.7380234 101.63685,78.6035733 101.63685,78.3922947 L101.63685,76.4907872 C101.63685,76.2603014 101.483193,76.1258514 101.271914,76.1258514 L94.7606915,76.1258514 C94.5494129,76.1258514 94.4149629,76.2603014 94.4149629,76.4907872 L94.4149629,78.3922947 C94.4149629,78.6035733 94.5494129,78.7380234 94.7606915,78.7380234 Z" id="Path"></path>
                </g>
                <g id="Group">
                    <g id="Rectangle">
                        <use fill="black" fill-opacity="1" filter="url(#filter-2)" xlink:href="#path-1"></use>
                        <use fill="#F78E1E" fill-rule="evenodd" xlink:href="#path-1"></use>
                    </g>
                    <g id="B" transform="translate(10.192669, 5.310044)" fill="#FFFFFF" fill-rule="nonzero">
                        <path d="M3.97587937,11.8316024 L5.70452257,11.8316024 C5.91580118,11.8316024 6.05025121,11.6971523 6.05025121,11.4858737 L6.05025121,8.56638742 L9.31546615,8.56638742 C9.52674476,8.56638742 9.66119479,8.4319374 9.66119479,8.20145164 L9.66119479,6.72250134 C9.66119479,6.49201558 9.52674476,6.35756556 9.31546615,6.35756556 L6.05025121,6.35756556 L6.05025121,3.43807926 C6.05025121,3.22680064 5.91580118,3.09235062 5.70452257,3.09235062 L3.97587937,3.09235062 C3.76460075,3.09235062 3.63015072,3.22680064 3.63015072,3.43807926 L3.63015072,6.35756556 L0.364935787,6.35756556 C0.153657174,6.35756556 0,6.49201558 0,6.72250134 L0,8.20145164 C0,8.4319374 0.153657174,8.56638742 0.364935787,8.56638742 L3.63015072,8.56638742 L3.63015072,11.4858737 C3.63015072,11.6971523 3.76460075,11.8316024 3.97587937,11.8316024 Z" id="Path"></path>
                        <path d="M19.7833611,14.0404242 C24.1433834,14.0404242 26.8707982,11.255388 26.8707982,6.85695137 C26.8707982,6.62646561 26.7363482,6.49201558 26.5250696,6.49201558 L20.0522611,6.49201558 C19.8217754,6.49201558 19.6873254,6.62646561 19.6873254,6.85695137 L19.6873254,8.48955884 C19.6873254,8.7200446 19.8217754,8.85449463 20.0522611,8.85449463 L23.4903404,8.85449463 C23.0101617,10.3718592 21.5504186,11.389838 19.8217754,11.389838 C17.3056392,11.389838 15.5962031,9.64198764 15.5962031,7.01060854 C15.5962031,4.41764374 17.286432,2.66979339 19.8217754,2.66979339 C21.5312114,2.66979339 22.914126,3.4572864 23.4711333,4.68654379 C23.5479618,4.87861526 23.6824119,4.97465099 23.8936905,4.97465099 L26.3522053,4.97465099 C26.6018982,4.97465099 26.7363482,4.82099382 26.6595196,4.57130091 C25.8336123,1.78626464 23.1446118,0 19.7833611,0 C15.4425459,0 12.5422668,2.80424342 12.5422668,7.01060854 C12.5422668,11.2169737 15.4425459,14.0404242 19.7833611,14.0404242 Z" id="Path"></path>
                        <path d="M41.4298154,13.3297598 L37.8764933,8.95053036 C39.6627579,8.29748737 40.719151,6.93377996 40.719151,4.84020097 C40.719151,2.03595755 38.5871577,0.307314347 35.2643213,0.307314347 L29.6558345,0.307314347 C29.4253487,0.307314347 29.2716916,0.441764374 29.2716916,0.672250134 L29.2716916,13.3873812 C29.2716916,13.617867 29.4253487,13.752317 29.6558345,13.752317 L31.9222778,13.752317 C32.1527636,13.752317 32.2872136,13.617867 32.2872136,13.3873812 L32.2872136,9.39229473 L34.6881069,9.39229473 L37.9917362,13.5218313 C38.106979,13.6754884 38.2414291,13.752317 38.4335005,13.752317 L41.1993297,13.752317 C41.506644,13.752317 41.6026797,13.5602456 41.4298154,13.3297598 Z M32.2872136,2.82345056 L34.9954213,2.82345056 C36.6280287,2.82345056 37.7228361,3.59173643 37.7228361,4.84020097 C37.7228361,6.12707979 36.5704073,6.85695137 34.8417641,6.85695137 L32.2872136,6.85695137 L32.2872136,2.82345056 Z" id="Shape"></path>
                        <path d="M42.5438299,13.752317 L45.0023447,13.752317 C45.1944162,13.752317 45.3480733,13.6754884 45.4249019,13.483417 L46.4620878,11.0056951 L52.5123391,11.0056951 L53.5687321,13.483417 C53.6455607,13.6754884 53.7800107,13.752317 53.9912894,13.752317 L56.430597,13.752317 C56.6802899,13.752317 56.8147399,13.5794527 56.699497,13.3297598 L51.0333888,0.576214401 C50.9565602,0.384142934 50.8221101,0.307314347 50.6108315,0.307314347 L48.3635954,0.307314347 C48.1715239,0.307314347 48.0370739,0.403350081 47.9602453,0.576214401 L42.2557227,13.3297598 C42.159687,13.5794527 42.2749299,13.752317 42.5438299,13.752317 Z M47.4800666,8.52797313 L49.4776099,3.74539361 L51.5135674,8.52797313 L47.4800666,8.52797313 Z" id="Shape"></path>
                        <path d="M69.3185924,0.307314347 L57.8903401,0.307314347 C57.6790615,0.307314347 57.5254043,0.441764374 57.5254043,0.672250134 L57.5254043,2.49692907 C57.5254043,2.72741483 57.6790615,2.86186486 57.8903401,2.86186486 L62.0967053,2.86186486 L62.0967053,13.3873812 C62.0967053,13.617867 62.2503624,13.752317 62.461641,13.752317 L64.7472915,13.752317 C64.9585701,13.752317 65.1122273,13.617867 65.1122273,13.3873812 L65.1122273,2.86186486 L69.3185924,2.86186486 C69.5490782,2.86186486 69.6835282,2.72741483 69.6835282,2.49692907 L69.6835282,0.672250134 C69.6835282,0.441764374 69.5490782,0.307314347 69.3185924,0.307314347 Z" id="Path"></path>
                        <path d="M71.1240642,13.752317 L77.9426013,13.752317 C78.173087,13.752317 78.3267442,13.617867 78.3267442,13.3873812 L78.3267442,11.5627023 C78.3267442,11.3322165 78.173087,11.1977665 77.9426013,11.1977665 L76.0410938,11.1977665 L76.0410938,2.86186486 L77.9426013,2.86186486 C78.173087,2.86186486 78.3267442,2.72741483 78.3267442,2.49692907 L78.3267442,0.672250134 C78.3267442,0.441764374 78.173087,0.307314347 77.9426013,0.307314347 L71.1240642,0.307314347 C70.8935784,0.307314347 70.7591284,0.441764374 70.7591284,0.672250134 L70.7591284,2.49692907 C70.7591284,2.72741483 70.8935784,2.86186486 71.1240642,2.86186486 L73.0255717,2.86186486 L73.0255717,11.1977665 L71.1240642,11.1977665 C70.8935784,11.1977665 70.7591284,11.3322165 70.7591284,11.5627023 L70.7591284,13.3873812 C70.7591284,13.617867 70.8935784,13.752317 71.1240642,13.752317 Z" id="Path"></path>
                        <path d="M85.8175314,14.0404242 C89.1595749,14.0404242 91.387604,12.3886096 91.387604,9.8724734 C91.387604,4.47526518 83.4742595,7.01060854 83.4742595,3.97587937 C83.4742595,2.99631488 84.4154097,2.38168619 85.75991,2.38168619 C87.0467888,2.38168619 87.9687319,2.93869344 88.2568391,3.93746507 C88.3528748,4.14874369 88.4681177,4.22557227 88.6793963,4.22557227 L90.9842539,4.22557227 C91.2339468,4.22557227 91.387604,4.09112225 91.3299825,3.86063649 C90.9074253,1.45974315 88.5449463,0 85.5870457,0 C82.3794522,0 80.2090446,1.67102176 80.2090446,4.16795083 C80.2090446,9.77643767 88.1992176,7.18347286 88.1992176,10.1221663 C88.1992176,11.0441093 87.2964817,11.6203237 85.89436,11.6203237 C84.2425454,11.6203237 83.0324952,10.8904522 82.7251808,9.77643767 C82.6483522,9.5843662 82.5331093,9.46912332 82.3218307,9.46912332 L80.0361803,9.46912332 C79.8056945,9.46912332 79.6520373,9.60357335 79.6904516,9.85326625 C80.0553874,12.3886096 82.494695,14.0404242 85.8175314,14.0404242 Z" id="Path"></path>
                    </g>
                </g>
            </g>
        </g>
    </g>
</svg>