<?xml version="1.0" encoding="UTF-8"?>
<svg width="75px" height="42px" viewBox="0 0 75 42" version="1.1" xmlns="http://www.w3.org/2000/svg" xmlns:xlink="http://www.w3.org/1999/xlink">
    <title>voor een Omring-loca</title>
    <g id="Spotlight-3---Okt_Dec----HTML-5-banners" stroke="none" stroke-width="1" fill="none" fill-rule="evenodd">
        <g id="120x600px_3" transform="translate(-22.000000, -158.000000)" fill="#FFFFFF" fill-rule="nonzero">
            <g id="voor-een-Omring-loca" transform="translate(22.327269, 158.621983)">
                <path d="M4.00127653,8.39454545 L5.42580545,8.39454545 C5.56147487,8.39454545 5.66322694,8.32671074 5.71410297,8.208 L9.39413603,0.559636364 C9.47892942,0.373090909 9.39413603,0.254380165 9.20759058,0.254380165 L7.56259884,0.254380165 C7.42692942,0.254380165 7.32517735,0.322214876 7.27430132,0.44092562 L4.71354099,5.90161983 L2.18669801,0.44092562 C2.13582198,0.322214876 2.03406991,0.254380165 1.89840049,0.254380165 L0.219491402,0.254380165 C0.0329459471,0.254380165 -0.0518474414,0.373090909 0.0329459471,0.559636364 L3.712979,8.208 C3.76385504,8.32671074 3.8656071,8.39454545 4.00127653,8.39454545 Z" id="Path"></path>
                <path d="M15.0583344,8.64892562 C17.7717228,8.64892562 19.5863013,6.9191405 19.5863013,4.32446281 C19.5863013,1.72978512 17.7717228,0 15.0583344,0 C12.3449459,0 10.5303674,1.72978512 10.5303674,4.32446281 C10.5303674,6.9191405 12.3449459,8.64892562 15.0583344,8.64892562 Z M15.0583344,6.86826446 C13.5829294,6.86826446 12.5993261,5.8507438 12.5993261,4.32446281 C12.5993261,2.79818182 13.5829294,1.78066116 15.0583344,1.78066116 C16.5337393,1.78066116 17.5173426,2.79818182 17.5173426,4.32446281 C17.5173426,5.8507438 16.5337393,6.86826446 15.0583344,6.86826446 Z" id="Shape"></path>
                <path d="M25.6405493,8.64892562 C28.3539377,8.64892562 30.1685162,6.9191405 30.1685162,4.32446281 C30.1685162,1.72978512 28.3539377,0 25.6405493,0 C22.9271608,0 21.1125823,1.72978512 21.1125823,4.32446281 C21.1125823,6.9191405 22.9271608,8.64892562 25.6405493,8.64892562 Z M25.6405493,6.86826446 C24.1651443,6.86826446 23.181541,5.8507438 23.181541,4.32446281 C23.181541,2.79818182 24.1651443,1.78066116 25.6405493,1.78066116 C27.1159542,1.78066116 28.0995575,2.79818182 28.0995575,4.32446281 C28.0995575,5.8507438 27.1159542,6.86826446 25.6405493,6.86826446 Z" id="Shape"></path>
                <path d="M38.7496071,0.169586777 C38.4104336,0.0678347107 37.9186319,0 37.4777063,0 C36.3414749,0 35.3748302,0.44092562 34.6625658,1.22102479 C34.3912269,0.457884298 33.6620038,0 32.6784005,0 C32.3561856,0 31.966136,0.0678347107 31.6439212,0.169586777 C31.4912931,0.22046281 31.440417,0.322214876 31.440417,0.474842975 L31.440417,1.66195041 C31.440417,1.83153719 31.5760864,1.88241322 31.7456732,1.86545455 C31.864384,1.84849587 32.1018055,1.81457851 32.2205162,1.81457851 C32.7123178,1.81457851 32.9327807,2.01808264 32.9327807,2.44204959 L32.9327807,8.14016529 C32.9327807,8.29279339 33.0345327,8.39454545 33.1871608,8.39454545 L34.7473592,8.39454545 C34.8999873,8.39454545 35.0017393,8.29279339 35.0017393,8.14016529 L35.0017393,4.32446281 C35.0017393,2.84905785 36.01926,1.86545455 37.4607476,1.86545455 C37.7999212,1.86545455 38.1390947,1.8993719 38.4273922,1.95024793 C38.596979,1.98416529 38.6987311,1.91633058 38.7326484,1.7467438 L38.9361526,0.474842975 C38.9531112,0.322214876 38.9022352,0.22046281 38.7496071,0.169586777 Z" id="Path"></path>
                <path d="M49.1283178,8.64892562 C50.908979,8.64892562 52.4183013,7.81795041 52.9948964,6.52909091 C53.0796897,6.35950413 52.9779377,6.24079339 52.7913922,6.24079339 L51.1124831,6.24079339 C50.9768137,6.24079339 50.8920203,6.29166942 50.7902683,6.39342149 C50.4850121,6.74955372 49.8744997,6.98697521 49.1791939,6.98697521 C47.9581691,6.98697521 47.0084831,6.27471074 46.7032269,5.15543802 L52.960979,5.15543802 C53.1136071,5.15543802 53.2153592,5.08760331 53.2492765,4.93497521 C53.2662352,4.7145124 53.2831939,4.47709091 53.2831939,4.2566281 C53.2831939,1.69586777 51.5703674,0 49.0096071,0 C46.3810121,0 44.6173096,1.72978512 44.6173096,4.32446281 C44.6173096,6.9191405 46.4318881,8.64892562 49.1283178,8.64892562 Z M46.6523509,3.69699174 C46.8219377,2.47596694 47.7885823,1.66195041 49.0604831,1.66195041 C50.332384,1.66195041 51.1464005,2.5098843 51.1803178,3.69699174 L46.6523509,3.69699174 Z" id="Shape"></path>
                <path d="M59.3204831,8.64892562 C61.1011443,8.64892562 62.6104666,7.81795041 63.1870616,6.52909091 C63.271855,6.35950413 63.170103,6.24079339 62.9835575,6.24079339 L61.3046484,6.24079339 C61.168979,6.24079339 61.0841856,6.29166942 60.9824336,6.39342149 C60.6771774,6.74955372 60.066665,6.98697521 59.3713592,6.98697521 C58.1503344,6.98697521 57.2006484,6.27471074 56.8953922,5.15543802 L63.1531443,5.15543802 C63.3057724,5.15543802 63.4075245,5.08760331 63.4414418,4.93497521 C63.4584005,4.7145124 63.4753592,4.47709091 63.4753592,4.2566281 C63.4753592,1.69586777 61.7625327,0 59.2017724,0 C56.5731774,0 54.8094749,1.72978512 54.8094749,4.32446281 C54.8094749,6.9191405 56.6240534,8.64892562 59.3204831,8.64892562 Z M56.8445162,3.69699174 C57.014103,2.47596694 57.9807476,1.66195041 59.2526484,1.66195041 C60.5245493,1.66195041 61.3385658,2.5098843 61.3724831,3.69699174 L56.8445162,3.69699174 Z" id="Shape"></path>
                <path d="M70.954136,0 C69.6822352,0 68.6307972,0.390049587 67.9185327,1.06839669 C67.5963178,0.407008264 66.9010121,0 65.9852435,0 C65.6630286,0 65.272979,0.0508760331 64.9507641,0.169586777 C64.798136,0.22046281 64.74726,0.322214876 64.74726,0.474842975 L64.74726,1.66195041 C64.74726,1.83153719 64.8829294,1.88241322 65.0525162,1.86545455 C65.1712269,1.84849587 65.4086484,1.81457851 65.5273592,1.81457851 C66.0191608,1.81457851 66.2396236,2.01808264 66.2396236,2.44204959 L66.2396236,8.14016529 C66.2396236,8.29279339 66.3413757,8.39454545 66.4940038,8.39454545 L68.0542021,8.39454545 C68.2068302,8.39454545 68.3085823,8.29279339 68.3085823,8.14016529 L68.3085823,3.84961983 C68.3085823,2.61163636 69.2073922,1.78066116 70.5132104,1.78066116 C71.7681526,1.78066116 72.5991278,2.6625124 72.5991278,3.96833058 L72.5991278,8.14016529 C72.5991278,8.29279339 72.7008798,8.39454545 72.8535079,8.39454545 L74.4137063,8.39454545 C74.5663344,8.39454545 74.6680864,8.29279339 74.6680864,8.14016529 L74.6680864,3.84961983 C74.6680864,1.54323967 73.1757228,0 70.954136,0 Z" id="Path"></path>
                <path d="M6.74858231,24.6484959 C10.4794914,24.6484959 13.1250451,22.0877355 13.1250451,18.4755372 C13.1250451,14.8633388 10.4794914,12.3025785 6.74858231,12.3025785 C3.01767322,12.3025785 0.372119501,14.8633388 0.372119501,18.4755372 C0.372119501,22.0877355 3.01767322,24.6484959 6.74858231,24.6484959 Z M6.74858231,22.749124 C4.28957405,22.749124 2.55978892,20.9854215 2.55978892,18.4755372 C2.55978892,15.9656529 4.28957405,14.2019504 6.74858231,14.2019504 C9.20759058,14.2019504 10.9373757,15.9656529 10.9373757,18.4755372 C10.9373757,20.9854215 9.20759058,22.749124 6.74858231,22.749124 Z" id="Shape"></path>
                <path d="M26.3697724,16.0165289 C25.0639542,16.0165289 23.9955575,16.4744132 23.3002517,17.2545124 C22.6727807,16.4744132 21.7400534,16.0165289 20.5868633,16.0165289 C19.3997559,16.0165289 18.3991939,16.3896198 17.7208468,17.0510083 C17.3986319,16.4065785 16.7202848,16.0165289 15.8045162,16.0165289 C15.4823013,16.0165289 15.0922517,16.067405 14.7700369,16.1861157 C14.6174088,16.2369917 14.5665327,16.3387438 14.5665327,16.4913719 L14.5665327,17.6784793 C14.5665327,17.8480661 14.7022021,17.8989421 14.8717889,17.8819835 C14.9904997,17.8650248 15.2279212,17.8311074 15.3466319,17.8311074 C15.8384336,17.8311074 16.0588964,18.0346116 16.0588964,18.4585785 L16.0588964,24.1566942 C16.0588964,24.3093223 16.1606484,24.4110744 16.3132765,24.4110744 L17.8734749,24.4110744 C18.026103,24.4110744 18.127855,24.3093223 18.127855,24.1566942 L18.127855,19.8661488 C18.127855,18.6281653 18.9418716,17.7971901 20.1459377,17.7971901 C21.2991278,17.7971901 22.0453096,18.6790413 22.0453096,19.9848595 L22.0453096,24.1566942 C22.0453096,24.3093223 22.1470616,24.4110744 22.2996897,24.4110744 L23.8598881,24.4110744 C24.0125162,24.4110744 24.1142683,24.3093223 24.1142683,24.1566942 L24.1142683,19.8661488 C24.1142683,18.6281653 24.8434914,17.7971901 25.9288468,17.7971901 C27.1837889,17.7971901 28.0147641,18.6790413 28.0147641,19.9848595 L28.0147641,24.1566942 C28.0147641,24.3093223 28.1165162,24.4110744 28.2691443,24.4110744 L29.8293426,24.4110744 C29.9819707,24.4110744 30.0837228,24.3093223 30.0837228,24.1566942 L30.0837228,19.8661488 C30.0837228,17.5597686 28.5913592,16.0165289 26.3697724,16.0165289 Z" id="Path"></path>
                <path d="M38.9191939,16.1861157 C38.5800203,16.0843636 38.0882187,16.0165289 37.6472931,16.0165289 C36.5110616,16.0165289 35.544417,16.4574545 34.8321526,17.2375537 C34.5608137,16.4744132 33.8315906,16.0165289 32.8479873,16.0165289 C32.5257724,16.0165289 32.1357228,16.0843636 31.8135079,16.1861157 C31.6608798,16.2369917 31.6100038,16.3387438 31.6100038,16.4913719 L31.6100038,17.6784793 C31.6100038,17.8480661 31.7456732,17.8989421 31.91526,17.8819835 C32.0339707,17.8650248 32.2713922,17.8311074 32.390103,17.8311074 C32.8819046,17.8311074 33.1023674,18.0346116 33.1023674,18.4585785 L33.1023674,24.1566942 C33.1023674,24.3093223 33.2041195,24.4110744 33.3567476,24.4110744 L34.9169459,24.4110744 C35.069574,24.4110744 35.1713261,24.3093223 35.1713261,24.1566942 L35.1713261,20.3409917 C35.1713261,18.8655868 36.1888468,17.8819835 37.6303344,17.8819835 C37.9695079,17.8819835 38.3086815,17.9159008 38.596979,17.9667769 C38.7665658,18.0006942 38.8683178,17.9328595 38.9022352,17.7632727 L39.1057393,16.4913719 C39.122698,16.3387438 39.071822,16.2369917 38.9191939,16.1861157 Z" id="Path"></path>
                <path d="M41.8360864,14.4902479 C42.5313922,14.4902479 43.1249459,13.9645289 43.1249459,13.3031405 C43.1249459,12.6417521 42.5313922,12.1160331 41.8360864,12.1160331 C41.123822,12.1160331 40.5472269,12.6417521 40.5472269,13.3031405 C40.5472269,13.9645289 41.123822,14.4902479 41.8360864,14.4902479 Z M41.0559873,24.4110744 L42.6161856,24.4110744 C42.7688137,24.4110744 42.8705658,24.3093223 42.8705658,24.1566942 L42.8705658,16.5252893 C42.8705658,16.3726612 42.7688137,16.2709091 42.6161856,16.2709091 L41.0559873,16.2709091 C40.9033592,16.2709091 40.8016071,16.3726612 40.8016071,16.5252893 L40.8016071,24.1566942 C40.8016071,24.3093223 40.9033592,24.4110744 41.0559873,24.4110744 Z" id="Shape"></path>
                <path d="M50.7733096,16.0165289 C49.5014088,16.0165289 48.4499707,16.4065785 47.7377063,17.0849256 C47.4154914,16.4235372 46.7201856,16.0165289 45.804417,16.0165289 C45.4822021,16.0165289 45.0921526,16.067405 44.7699377,16.1861157 C44.6173096,16.2369917 44.5664336,16.3387438 44.5664336,16.4913719 L44.5664336,17.6784793 C44.5664336,17.8480661 44.702103,17.8989421 44.8716897,17.8819835 C44.9904005,17.8650248 45.227822,17.8311074 45.3465327,17.8311074 C45.8383344,17.8311074 46.0587972,18.0346116 46.0587972,18.4585785 L46.0587972,24.1566942 C46.0587972,24.3093223 46.1605493,24.4110744 46.3131774,24.4110744 L47.8733757,24.4110744 C48.0260038,24.4110744 48.1277559,24.3093223 48.1277559,24.1566942 L48.1277559,19.8661488 C48.1277559,18.6281653 49.0265658,17.7971901 50.332384,17.7971901 C51.5873261,17.7971901 52.4183013,18.6790413 52.4183013,19.9848595 L52.4183013,24.1566942 C52.4183013,24.3093223 52.5200534,24.4110744 52.6726815,24.4110744 L54.2328798,24.4110744 C54.3855079,24.4110744 54.48726,24.3093223 54.48726,24.1566942 L54.48726,19.8661488 C54.48726,17.5597686 52.9948964,16.0165289 50.7733096,16.0165289 Z" id="Path"></path>
                <path d="M65.0525162,16.2709091 L63.4923178,16.2709091 C63.3396897,16.2709091 63.2379377,16.3726612 63.2379377,16.5252893 L63.2379377,16.7627107 C62.5087145,16.2369917 61.6777393,16.0165289 60.8467641,16.0165289 C58.2181691,16.0165289 56.3527145,17.8141488 56.3527145,20.3409917 C56.3527145,22.8678347 58.2181691,24.6654545 60.8467641,24.6654545 C61.6777393,24.6654545 62.5087145,24.4449917 63.2379377,23.9192727 L63.2379377,24.5637025 C63.2379377,25.903438 62.3391278,26.7852893 60.9824336,26.7852893 C59.8631608,26.7852893 58.9982683,26.2765289 58.7608468,25.4625124 C58.7099707,25.3098843 58.6251774,25.2420496 58.4725493,25.2420496 L56.8784336,25.2420496 C56.7088468,25.2420496 56.6070947,25.3438017 56.6410121,25.5133884 C56.9971443,27.3618843 58.6930121,28.5659504 60.9824336,28.5659504 C63.5771112,28.5659504 65.3068964,26.9718347 65.3068964,24.5637025 L65.3068964,16.5252893 C65.3068964,16.3726612 65.2051443,16.2709091 65.0525162,16.2709091 Z M60.8637228,22.9695868 C59.4391939,22.9695868 58.4216732,21.8842314 58.4216732,20.3409917 C58.4216732,18.7977521 59.4391939,17.7123967 60.8637228,17.7123967 C62.2543344,17.7123967 63.2379377,18.7977521 63.2379377,20.3409917 C63.2379377,21.8842314 62.2543344,22.9695868 60.8637228,22.9695868 Z" id="Shape"></path>
                <path d="M68.3594583,20.9345455 L74.0406154,20.9345455 C74.1932435,20.9345455 74.2949955,20.8327934 74.2949955,20.6801653 L74.2949955,19.2386777 C74.2949955,19.0860496 74.1932435,18.9842975 74.0406154,18.9842975 L68.3594583,18.9842975 C68.2068302,18.9842975 68.1050782,19.0860496 68.1050782,19.2386777 L68.1050782,20.6801653 C68.1050782,20.8327934 68.2068302,20.9345455 68.3594583,20.9345455 Z" id="Path"></path>
                <path d="M10.9373757,40.6819835 C11.3104666,40.6819835 11.6665988,40.6141488 12.0905658,40.4784793 C12.2431939,40.4276033 12.3110286,40.3258512 12.2940699,40.1732231 L12.1584005,39.0030744 C12.1414418,38.8334876 12.0227311,38.7656529 11.8531443,38.7995702 C11.5818055,38.8504463 11.4291774,38.867405 11.2256732,38.867405 C10.869541,38.867405 10.6321195,38.6130248 10.6321195,38.2399339 L10.6321195,28.132562 C10.6321195,27.9799339 10.5303674,27.8781818 10.3777393,27.8781818 L8.81754099,27.8781818 C8.66491289,27.8781818 8.56316082,27.9799339 8.56316082,28.132562 L8.56316082,38.7995702 C8.56316082,39.9358017 9.51284677,40.6819835 10.9373757,40.6819835 Z" id="Path"></path>
                <path d="M18.0939377,40.6819835 C20.8073261,40.6819835 22.6219046,38.9521983 22.6219046,36.3575207 C22.6219046,33.762843 20.8073261,32.0330579 18.0939377,32.0330579 C15.3805493,32.0330579 13.5659707,33.762843 13.5659707,36.3575207 C13.5659707,38.9521983 15.3805493,40.6819835 18.0939377,40.6819835 Z M18.0939377,38.9013223 C16.6185327,38.9013223 15.6349294,37.8838017 15.6349294,36.3575207 C15.6349294,34.8312397 16.6185327,33.813719 18.0939377,33.813719 C19.5693426,33.813719 20.5529459,34.8312397 20.5529459,36.3575207 C20.5529459,37.8838017 19.5693426,38.9013223 18.0939377,38.9013223 Z" id="Shape"></path>
                <path d="M28.6591939,40.6819835 C30.8129459,40.6819835 32.4070616,39.5287934 32.7631939,37.7650909 C32.7971112,37.5955041 32.7123178,37.4937521 32.5427311,37.4937521 L30.9316567,37.4937521 C30.7790286,37.4937521 30.7111939,37.5615868 30.6603178,37.7142149 C30.4228964,38.443438 29.6427972,38.918281 28.6591939,38.918281 C27.1837889,38.918281 26.2171443,37.9007603 26.2171443,36.3575207 C26.2171443,34.814281 27.1837889,33.7967603 28.6591939,33.7967603 C29.6427972,33.7967603 30.4228964,34.2716033 30.6603178,35.0008264 C30.7111939,35.1534545 30.7790286,35.2212893 30.9316567,35.2212893 L32.5427311,35.2212893 C32.7123178,35.2212893 32.7971112,35.1195372 32.7631939,34.9499504 C32.4070616,33.1862479 30.8129459,32.0330579 28.6591939,32.0330579 C25.9458055,32.0330579 24.1481856,33.762843 24.1481856,36.3575207 C24.1481856,38.9521983 25.9458055,40.6819835 28.6591939,40.6819835 Z" id="Path"></path>
                <path d="M44.9056071,40.1732231 L44.7699377,39.0030744 C44.752979,38.8334876 44.6342683,38.7656529 44.4646815,38.7995702 C44.1933426,38.8504463 44.0407145,38.867405 43.8372104,38.867405 C43.4810782,38.867405 43.2436567,38.6130248 43.2436567,38.2399339 L43.2436567,32.5418182 C43.2436567,32.3891901 43.1419046,32.287438 42.9892765,32.287438 L41.4290782,32.287438 C41.2764501,32.287438 41.174698,32.3891901 41.174698,32.5418182 L41.174698,32.7792397 C40.4454749,32.2535207 39.6144997,32.0330579 38.7835245,32.0330579 C36.1549294,32.0330579 34.2894749,33.8306777 34.2894749,36.3575207 C34.2894749,38.8843636 36.1549294,40.6819835 38.7835245,40.6819835 C39.8688798,40.6819835 40.7507311,40.3597686 41.5817063,39.6305455 C41.9039212,40.2919339 42.6161856,40.6819835 43.5489129,40.6819835 C43.9220038,40.6819835 44.278136,40.6141488 44.702103,40.4784793 C44.8547311,40.4276033 44.9225658,40.3258512 44.9056071,40.1732231 Z M38.8004831,38.9861157 C37.3759542,38.9861157 36.3584336,37.9007603 36.3584336,36.3575207 C36.3584336,34.814281 37.3759542,33.7289256 38.8004831,33.7289256 C40.1910947,33.7289256 41.174698,34.814281 41.174698,36.3575207 C41.174698,37.9007603 40.1910947,38.9861157 38.8004831,38.9861157 Z" id="Shape"></path>
                <path d="M50.7393922,40.6819835 C51.2311939,40.6819835 51.960417,40.5802314 52.6218055,40.4106446 C52.7744336,40.3597686 52.8422683,40.2580165 52.8253096,40.1053884 L52.6218055,38.918281 C52.5878881,38.7656529 52.486136,38.6808595 52.3165493,38.7147769 C51.8925823,38.8165289 51.383822,38.867405 50.9768137,38.867405 C50.0949625,38.867405 49.5183674,38.2568926 49.5183674,37.341124 L49.5183674,33.9324298 L52.4013426,33.9324298 C52.5539707,33.9324298 52.6557228,33.8306777 52.6557228,33.6780496 L52.6557228,32.5418182 C52.6557228,32.3891901 52.5539707,32.287438 52.4013426,32.287438 L49.5183674,32.287438 L49.5183674,30.0319339 C49.5183674,29.8793058 49.4166154,29.7775537 49.2639873,29.7775537 L47.7037889,29.7775537 C47.5511608,29.7775537 47.4494088,29.8793058 47.4494088,30.0319339 L47.4494088,32.287438 L45.753541,32.287438 C45.6009129,32.287438 45.4991608,32.3891901 45.4991608,32.5418182 L45.4991608,33.6780496 C45.4991608,33.8306777 45.6009129,33.9324298 45.753541,33.9324298 L47.4494088,33.9324298 L47.4494088,37.4089587 C47.4494088,39.3761653 48.7721856,40.6819835 50.7393922,40.6819835 Z" id="Path"></path>
                <path d="M55.5556567,30.5067769 C56.2509625,30.5067769 56.8445162,29.9810579 56.8445162,29.3196694 C56.8445162,28.658281 56.2509625,28.132562 55.5556567,28.132562 C54.8433922,28.132562 54.2667972,28.658281 54.2667972,29.3196694 C54.2667972,29.9810579 54.8433922,30.5067769 55.5556567,30.5067769 Z M54.7755575,40.4276033 L56.3357559,40.4276033 C56.488384,40.4276033 56.590136,40.3258512 56.590136,40.1732231 L56.590136,32.5418182 C56.590136,32.3891901 56.488384,32.287438 56.3357559,32.287438 L54.7755575,32.287438 C54.6229294,32.287438 54.5211774,32.3891901 54.5211774,32.5418182 L54.5211774,40.1732231 C54.5211774,40.3258512 54.6229294,40.4276033 54.7755575,40.4276033 Z" id="Shape"></path>
                <path d="M63.0513922,40.6819835 C64.8320534,40.6819835 66.3413757,39.8510083 66.9179707,38.5621488 C67.0027641,38.392562 66.9010121,38.2738512 66.7144666,38.2738512 L65.0355575,38.2738512 C64.8998881,38.2738512 64.8150947,38.3247273 64.7133426,38.4264793 C64.4080864,38.7826116 63.797574,39.0200331 63.1022683,39.0200331 C61.8812435,39.0200331 60.9315575,38.3077686 60.6263013,37.1884959 L66.8840534,37.1884959 C67.0366815,37.1884959 67.1384336,37.1206612 67.1723509,36.9680331 C67.1893096,36.7475702 67.2062683,36.5101488 67.2062683,36.289686 C67.2062683,33.7289256 65.4934418,32.0330579 62.9326815,32.0330579 C60.3040864,32.0330579 58.540384,33.762843 58.540384,36.3575207 C58.540384,38.9521983 60.3549625,40.6819835 63.0513922,40.6819835 Z M60.5754253,35.7300496 C60.7450121,34.5090248 61.7116567,33.6950083 62.9835575,33.6950083 C64.2554583,33.6950083 65.0694749,34.5429421 65.1033922,35.7300496 L60.5754253,35.7300496 Z" id="Shape"></path>
            </g>
        </g>
    </g>
</svg>