<?xml version="1.0" encoding="UTF-8"?>
<svg width="105px" height="80px" viewBox="0 0 105 80" version="1.1" xmlns="http://www.w3.org/2000/svg" xmlns:xlink="http://www.w3.org/1999/xlink">
    <title>Text Copy</title>
    <defs>
        <rect id="path-1" x="0" y="0" width="101" height="21.8159139" rx="10.9079569"></rect>
        <filter x="-3.0%" y="-13.8%" width="105.9%" height="127.5%" filterUnits="objectBoundingBox" id="filter-2">
            <feOffset dx="0" dy="0" in="SourceAlpha" result="shadowOffsetOuter1"></feOffset>
            <feGaussianBlur stdDeviation="1" in="shadowOffsetOuter1" result="shadowBlurOuter1"></feGaussianBlur>
            <feColorMatrix values="0 0 0 0 0   0 0 0 0 0.368045807   0 0 0 0 0.361608624  0 0 0 0.5 0" type="matrix" in="shadowBlurOuter1"></feColorMatrix>
        </filter>
    </defs>
    <g id="Spotlight-Winter-HTML5-Banners" stroke="none" stroke-width="1" fill="none" fill-rule="evenodd">
        <g id="120x600px_2" transform="translate(-8.000000, -327.000000)">
            <g id="Text-Copy" transform="translate(10.000000, 329.092043)">
                <g id="cadeau" transform="translate(0.512500, 35.407957)" fill="#FFFFFF" fill-rule="nonzero">
                    <path d="M6.875,18.9 C10.2,18.9 12.65,17.125 13.175,14.375 C13.225,14.075 13.05,13.875 12.75,13.875 L10.075,13.875 C9.8,13.875 9.675,14.025 9.55,14.275 C9.2,15.275 8.175,15.875 6.875,15.875 C4.9,15.875 3.6,14.525 3.6,12.45 C3.6,10.375 4.9,9 6.875,9 C8.175,9 9.2,9.625 9.55,10.6 C9.675,10.875 9.8,11 10.075,11 L12.75,11 C13.05,11 13.225,10.825 13.175,10.5 C12.65,7.75 10.2,5.975 6.875,5.975 C2.75,5.975 0,8.55 0,12.45 C0,16.325 2.75,18.9 6.875,18.9 Z" id="c"></path>
                    <path d="M31.325,18.075 L31.075,16 C31.05,15.675 30.85,15.575 30.55,15.6 C30.225,15.675 30.025,15.675 29.775,15.675 C29.25,15.675 28.95,15.35 28.95,14.7 L28.95,6.85 C28.95,6.55 28.775,6.375 28.475,6.375 L25.725,6.375 C25.425,6.375 25.25,6.55 25.25,6.85 L25.25,7.125 C24.25,6.35 23.025,5.975 21.7,5.975 C17.825,5.975 15.125,8.625 15.125,12.45 C15.125,16.25 17.825,18.9 21.7,18.9 C23.325,18.9 24.725,18.4 25.9,17.375 C26.425,18.325 27.525,18.9 29.05,18.9 C29.65,18.9 30.25,18.8 30.925,18.6 C31.225,18.525 31.35,18.35 31.325,18.075 Z M22.025,15.975 C20.125,15.975 18.8,14.525 18.8,12.45 C18.8,10.35 20.125,8.9 22.025,8.9 C23.9,8.9 25.175,10.35 25.175,12.45 C25.175,14.525 23.9,15.975 22.025,15.975 Z" id="a"></path>
                    <path d="M49.1,18.075 L48.875,16 C48.85,15.675 48.65,15.575 48.325,15.6 C48.025,15.675 47.825,15.675 47.575,15.675 C47.05,15.675 46.75,15.35 46.75,14.725 L46.75,0.475 C46.75,0.175 46.575,0 46.275,0 L43.45,0 C43.15,0 42.975,0.175 42.975,0.475 L42.975,7.05 C41.95,6.3 40.775,5.975 39.5,5.975 C35.625,5.975 32.925,8.625 32.925,12.45 C32.925,16.25 35.625,18.9 39.5,18.9 C41.175,18.9 42.55,18.375 43.65,17.325 C44.175,18.325 45.325,18.9 46.8,18.9 C47.425,18.9 48.05,18.8 48.725,18.6 C49.025,18.525 49.15,18.35 49.1,18.075 Z M39.825,15.975 C37.925,15.975 36.6,14.525 36.6,12.45 C36.6,10.35 37.925,8.9 39.825,8.9 C41.7,8.9 42.975,10.35 42.975,12.45 C42.975,14.525 41.7,15.975 39.825,15.975 Z" id="d"></path>
                    <path d="M57.6,18.9 C60.425,18.9 62.675,17.625 63.525,15.55 C63.65,15.25 63.475,15.05 63.125,15.05 L60.325,15.05 C60.075,15.05 59.925,15.15 59.725,15.3 C59.3,15.775 58.55,16.05 57.675,16.05 C56.025,16.05 54.775,15.125 54.375,13.625 L63.35,13.625 C63.625,13.625 63.825,13.5 63.875,13.2 C63.875,12.925 63.9,12.625 63.9,12.35 C63.9,8.55 61.425,5.975 57.375,5.975 C53.4,5.975 50.725,8.55 50.725,12.45 C50.725,16.325 53.5,18.9 57.6,18.9 Z M54.35,11.4 C54.575,9.825 55.825,8.75 57.475,8.75 C59.15,8.75 60.25,9.85 60.325,11.4 L54.35,11.4 Z" id="e"></path>
                    <path d="M82.075,18.075 L81.825,16 C81.8,15.675 81.6,15.575 81.3,15.6 C80.975,15.675 80.775,15.675 80.525,15.675 C80,15.675 79.7,15.35 79.7,14.7 L79.7,6.85 C79.7,6.55 79.525,6.375 79.225,6.375 L76.475,6.375 C76.175,6.375 76,6.55 76,6.85 L76,7.125 C75,6.35 73.775,5.975 72.45,5.975 C68.575,5.975 65.875,8.625 65.875,12.45 C65.875,16.25 68.575,18.9 72.45,18.9 C74.075,18.9 75.475,18.4 76.65,17.375 C77.175,18.325 78.275,18.9 79.8,18.9 C80.4,18.9 81,18.8 81.675,18.6 C81.975,18.525 82.1,18.35 82.075,18.075 Z M72.775,15.975 C70.875,15.975 69.55,14.525 69.55,12.45 C69.55,10.35 70.875,8.9 72.775,8.9 C74.65,8.9 75.925,10.35 75.925,12.45 C75.925,14.525 74.65,15.975 72.775,15.975 Z" id="a"></path>
                    <path d="M99.325,18.075 L99.1,16 C99.05,15.675 98.85,15.575 98.55,15.6 C98.225,15.675 98.025,15.675 97.775,15.675 C97.25,15.675 96.95,15.35 96.95,14.7 L96.95,6.85 C96.95,6.55 96.75,6.375 96.475,6.375 L93.65,6.375 C93.375,6.375 93.175,6.55 93.175,6.85 L93.175,13 C93.175,14.65 92.1,15.7 90.425,15.7 C88.825,15.7 87.8,14.575 87.8,12.875 L87.8,6.85 C87.8,6.55 87.625,6.375 87.325,6.375 L84.525,6.375 C84.225,6.375 84.05,6.55 84.05,6.85 L84.05,13.375 C84.05,16.7 86.2,18.9 89.45,18.9 C91.225,18.9 92.7,18.375 93.7,17.45 C94.275,18.35 95.45,18.9 97.05,18.9 C97.65,18.9 98.25,18.8 98.95,18.6 C99.225,18.525 99.35,18.35 99.325,18.075 Z" id="u"></path>
                </g>
                <g id="t.w.v.-€-10,-" transform="translate(0.726562, 63.799031)" fill="#FFFFFF" fill-rule="nonzero">
                    <path d="M5.2402314,12.3798347 C5.73203306,12.3798347 6.4612562,12.2780826 7.12264463,12.1084959 C7.27527273,12.0576198 7.34310744,11.9558678 7.32614876,11.8032397 L7.12264463,10.6161322 C7.08872727,10.4635041 6.98697521,10.3787107 6.81738843,10.4126281 C6.39342149,10.5143802 5.88466116,10.5652562 5.47765289,10.5652562 C4.59580165,10.5652562 4.01920661,9.9547438 4.01920661,9.03897521 L4.01920661,5.63028099 L6.90218182,5.63028099 C7.05480992,5.63028099 7.15656198,5.52852893 7.15656198,5.37590083 L7.15656198,4.23966942 C7.15656198,4.08704132 7.05480992,3.98528926 6.90218182,3.98528926 L4.01920661,3.98528926 L4.01920661,1.72978512 C4.01920661,1.57715702 3.91745455,1.47540496 3.76482645,1.47540496 L2.2046281,1.47540496 C2.052,1.47540496 1.95024793,1.57715702 1.95024793,1.72978512 L1.95024793,3.98528926 L0.254380165,3.98528926 C0.101752066,3.98528926 0,4.08704132 0,4.23966942 L0,5.37590083 C0,5.52852893 0.101752066,5.63028099 0.254380165,5.63028099 L1.95024793,5.63028099 L1.95024793,9.10680992 C1.95024793,11.0740165 3.27302479,12.3798347 5.2402314,12.3798347 Z" id="t"></path>
                    <path d="M9.63252893,12.3798347 C10.310876,12.3798347 10.8535537,11.8710744 10.8535537,11.2266446 C10.8535537,10.5822149 10.310876,10.0734545 9.63252893,10.0734545 C8.9711405,10.0734545 8.42846281,10.5822149 8.42846281,11.2266446 C8.42846281,11.8710744 8.9711405,12.3798347 9.63252893,12.3798347 Z" id="."></path>
                    <path d="M15.0932231,12.1254545 L16.466876,12.1254545 C16.6025455,12.1254545 16.7042975,12.0745785 16.7551736,11.9219504 L18.4510413,7.15656198 L20.1469091,11.9219504 C20.1977851,12.0745785 20.2995372,12.1254545 20.4352066,12.1254545 L21.8088595,12.1254545 C21.9445289,12.1254545 22.0632397,12.0576198 22.1141157,11.9219504 L25.0818843,4.27358678 C25.149719,4.08704132 25.0649256,3.98528926 24.8783802,3.98528926 L23.1825124,3.98528926 C23.046843,3.98528926 22.9450909,4.03616529 22.8942149,4.18879339 L21.1135537,9.02201653 L19.4007273,4.18879339 C19.3498512,4.03616529 19.2480992,3.98528926 19.1124298,3.98528926 L17.7896529,3.98528926 C17.6539835,3.98528926 17.5522314,4.03616529 17.5013554,4.18879339 L15.7715702,9.00505785 L14.0078678,4.18879339 C13.9569917,4.03616529 13.8552397,3.98528926 13.7195702,3.98528926 L12.0067438,3.98528926 C11.8201983,3.98528926 11.735405,4.08704132 11.8032397,4.27358678 L14.7879669,11.9219504 C14.838843,12.0576198 14.9575537,12.1254545 15.0932231,12.1254545 Z" id="w"></path>
                    <path d="M27.2356364,12.3798347 C27.9139835,12.3798347 28.4566612,11.8710744 28.4566612,11.2266446 C28.4566612,10.5822149 27.9139835,10.0734545 27.2356364,10.0734545 C26.5742479,10.0734545 26.0315702,10.5822149 26.0315702,11.2266446 C26.0315702,11.8710744 26.5742479,12.3798347 27.2356364,12.3798347 Z" id="."></path>
                    <path d="M33.3916364,12.1254545 L34.8161653,12.1254545 C34.9518347,12.1254545 35.0535868,12.0576198 35.1044628,11.9389091 L38.7844959,4.29054545 C38.8692893,4.104 38.7844959,3.98528926 38.5979504,3.98528926 L36.9529587,3.98528926 C36.8172893,3.98528926 36.7155372,4.05312397 36.6646612,4.17183471 L34.1039008,9.63252893 L31.5770579,4.17183471 C31.5261818,4.05312397 31.4244298,3.98528926 31.2887603,3.98528926 L29.6098512,3.98528926 C29.4233058,3.98528926 29.3385124,4.104 29.4233058,4.29054545 L33.1033388,11.9389091 C33.1542149,12.0576198 33.2559669,12.1254545 33.3916364,12.1254545 Z" id="v"></path>
                    <path d="M40.9552066,12.3798347 C41.6335537,12.3798347 42.1762314,11.8710744 42.1762314,11.2266446 C42.1762314,10.5822149 41.6335537,10.0734545 40.9552066,10.0734545 C40.2938182,10.0734545 39.7511405,10.5822149 39.7511405,11.2266446 C39.7511405,11.8710744 40.2938182,12.3798347 40.9552066,12.3798347 Z" id="."></path>
                    <path d="M61.3904132,7.64836364 L59.6775868,7.64836364 C59.5419174,7.64836364 59.4401653,7.71619835 59.3892893,7.86882645 C58.8635702,9.46294215 57.506876,10.4126281 55.7431736,10.4126281 C53.9625124,10.4126281 52.6058182,9.54773554 51.9613884,8.14016529 L55.6753388,8.14016529 C55.8279669,8.14016529 55.929719,8.0553719 55.9636364,7.91970248 L56.2010579,7.03785124 C56.2519339,6.85130579 56.1671405,6.74955372 55.9975537,6.74955372 L51.6052562,6.74955372 C51.5882975,6.56300826 51.5713388,6.37646281 51.5713388,6.17295868 C51.5713388,5.96945455 51.5882975,5.78290909 51.6052562,5.59636364 L56.3367273,5.59636364 C56.4893554,5.59636364 56.5911074,5.51157025 56.6250248,5.37590083 L56.8624463,4.49404959 C56.9133223,4.30750413 56.8285289,4.20575207 56.6589421,4.20575207 L51.9783471,4.20575207 C52.6058182,2.79818182 53.9625124,1.95024793 55.7431736,1.95024793 C57.5238347,1.95024793 58.7957355,2.91689256 59.3892893,4.51100826 C59.4401653,4.64667769 59.5419174,4.7145124 59.6775868,4.7145124 L61.3904132,4.7145124 C61.56,4.7145124 61.6617521,4.61276033 61.6278347,4.44317355 C61.085157,1.7467438 58.7109421,0 55.7431736,0 C52.6397355,0 50.3842314,1.62803306 49.6380496,4.20575207 L48.1117686,4.20575207 C47.9591405,4.20575207 47.8573884,4.30750413 47.8573884,4.46013223 L47.8573884,5.34198347 C47.8573884,5.49461157 47.9591405,5.59636364 48.1117686,5.59636364 L49.3836694,5.59636364 C49.3667107,5.78290909 49.3667107,5.96945455 49.3667107,6.17295868 C49.3667107,6.37646281 49.3667107,6.56300826 49.3836694,6.74955372 L48.1117686,6.74955372 C47.9591405,6.74955372 47.8573884,6.85130579 47.8573884,7.00393388 L47.8573884,7.88578512 C47.8573884,8.03841322 47.9591405,8.14016529 48.1117686,8.14016529 L49.6380496,8.14016529 C50.3672727,10.734843 52.6397355,12.362876 55.7431736,12.362876 C58.7109421,12.362876 61.085157,10.6161322 61.6278347,7.91970248 C61.6617521,7.7501157 61.56,7.64836364 61.3904132,7.64836364 Z" id="€"></path>
                    <path d="M72.0065455,0.254380165 L67.2581157,0.254380165 C67.1054876,0.254380165 67.0546116,0.339173554 67.0546116,0.474842975 L67.0546116,1.84849587 C67.0546116,2.01808264 67.1733223,2.06895868 67.3429091,2.06895868 L70.1071736,2.06895868 L70.1071736,11.8710744 C70.1071736,12.0237025 70.2089256,12.1254545 70.3615537,12.1254545 L72.0065455,12.1254545 C72.1591736,12.1254545 72.2609256,12.0237025 72.2609256,11.8710744 L72.2609256,0.508760331 C72.2609256,0.356132231 72.1591736,0.254380165 72.0065455,0.254380165 Z" id="1"></path>
                    <path d="M79.6379504,0 C76.6871405,0 74.7199339,1.84849587 74.7199339,4.62971901 L74.7199339,7.7501157 C74.7199339,10.5313388 76.6871405,12.3798347 79.6379504,12.3798347 C82.5887603,12.3798347 84.5559669,10.5313388 84.5559669,7.7501157 L84.5559669,4.62971901 C84.5559669,1.84849587 82.5887603,0 79.6379504,0 Z M82.4022149,7.7501157 C82.4022149,9.42902479 81.2999008,10.5482975 79.6379504,10.5482975 C77.976,10.5482975 76.873686,9.42902479 76.873686,7.7501157 L76.873686,4.62971901 C76.873686,2.95080992 77.976,1.83153719 79.6379504,1.83153719 C81.2999008,1.83153719 82.4022149,2.95080992 82.4022149,4.62971901 L82.4022149,7.7501157 Z" id="0"></path>
                    <path d="M87.3371901,10.1073719 C86.658843,10.1073719 86.0822479,10.6161322 86.0822479,11.260562 C86.0822479,11.735405 86.4044628,12.1084959 86.8453884,12.261124 L86.133124,13.7704463 C86.0483306,13.9569917 86.133124,14.0757025 86.3196694,14.0757025 L87.0319339,14.0757025 C87.1676033,14.0757025 87.2693554,14.0417851 87.3371901,13.9061157 L88.3207934,12.1254545 C88.4734215,11.837157 88.6260496,11.5319008 88.6260496,11.260562 C88.6260496,10.6161322 88.0494545,10.1073719 87.3371901,10.1073719 Z" id=","></path>
                    <path d="M91.0850579,8.64892562 L96.7662149,8.64892562 C96.918843,8.64892562 97.020595,8.54717355 97.020595,8.39454545 L97.020595,6.95305785 C97.020595,6.80042975 96.918843,6.69867769 96.7662149,6.69867769 L91.0850579,6.69867769 C90.9324298,6.69867769 90.8306777,6.80042975 90.8306777,6.95305785 L90.8306777,8.39454545 C90.8306777,8.54717355 90.9324298,8.64892562 91.0850579,8.64892562 Z" id="-"></path>
                </g>
                <g id="Button-Copy">
                    <g id="Rectangle">
                        <use fill="black" fill-opacity="1" filter="url(#filter-2)" xlink:href="#path-1"></use>
                        <use fill="#F78E1E" fill-rule="evenodd" xlink:href="#path-1"></use>
                    </g>
                    <g id="+gratis" transform="translate(9.312776, 4.456847)" fill="#FFFFFF" fill-rule="nonzero">
                        <path d="M3.64282132,10.8404731 L5.22665667,10.8404731 C5.42023655,10.8404731 5.54342375,10.7172859 5.54342375,10.523706 L5.54342375,7.8487841 L8.53511275,7.8487841 C8.72869263,7.8487841 8.85187982,7.7255969 8.85187982,7.51441886 L8.85187982,6.15935972 C8.85187982,5.94818167 8.72869263,5.82499448 8.53511275,5.82499448 L5.54342375,5.82499448 L5.54342375,3.15007254 C5.54342375,2.95649266 5.42023655,2.83330547 5.22665667,2.83330547 L3.64282132,2.83330547 C3.44924144,2.83330547 3.32605425,2.95649266 3.32605425,3.15007254 L3.32605425,5.82499448 L0.334365242,5.82499448 C0.140785365,5.82499448 0,5.94818167 0,6.15935972 L0,7.51441886 C0,7.7255969 0.140785365,7.8487841 0.334365242,7.8487841 L3.32605425,7.8487841 L3.32605425,10.523706 C3.32605425,10.7172859 3.44924144,10.8404731 3.64282132,10.8404731 Z" id="+"></path>
                        <path d="M18.1261157,12.8642627 C22.1209005,12.8642627 24.6198407,10.312528 24.6198407,6.28254691 C24.6198407,6.07136886 24.4966535,5.94818167 24.3030736,5.94818167 L18.3724901,5.94818167 C18.1613121,5.94818167 18.0381249,6.07136886 18.0381249,6.28254691 L18.0381249,7.77839141 C18.0381249,7.98956946 18.1613121,8.11275666 18.3724901,8.11275666 L21.5225627,8.11275666 C21.0826084,9.50301214 19.7451474,10.4357152 18.1613121,10.4357152 C15.8559517,10.4357152 14.2897145,8.83428165 14.2897145,6.42333228 C14.2897145,4.04757924 15.8383536,2.44614572 18.1613121,2.44614572 C19.7275493,2.44614572 20.9946176,3.16767071 21.5049645,4.29395363 C21.5753572,4.46993534 21.6985444,4.55792619 21.8921243,4.55792619 L24.1446901,4.55792619 C24.3734663,4.55792619 24.4966535,4.41714083 24.4262608,4.18836461 C23.6695395,1.63662987 21.2057956,0 18.1261157,0 C14.1489292,0 11.4916054,2.56933291 11.4916054,6.42333228 C11.4916054,10.2773316 14.1489292,12.8642627 18.1261157,12.8642627 Z" id="G"></path>
                        <path d="M37.959254,12.2131304 L34.7035925,8.20074751 C36.3402223,7.60240971 37.3081217,6.35293959 37.3081217,4.434739 C37.3081217,1.86540609 35.3547248,0.28157073 32.3102413,0.28157073 L27.1715754,0.28157073 C26.9603974,0.28157073 26.819612,0.404757924 26.819612,0.615935972 L26.819612,12.2659249 C26.819612,12.477103 26.9603974,12.6002902 27.1715754,12.6002902 L29.2481596,12.6002902 C29.4593376,12.6002902 29.5825248,12.477103 29.5825248,12.2659249 L29.5825248,8.60550543 L31.7822961,8.60550543 L34.8091815,12.3891121 C34.9147705,12.5298975 35.0379577,12.6002902 35.2139394,12.6002902 L37.748076,12.6002902 C38.0296467,12.6002902 38.1176376,12.4243085 37.959254,12.2131304 Z M29.5825248,2.58693108 L32.0638669,2.58693108 C33.5597114,2.58693108 34.5628071,3.29085791 34.5628071,4.434739 C34.5628071,5.61381643 33.5069169,6.28254691 31.9230815,6.28254691 L29.5825248,6.28254691 L29.5825248,2.58693108 Z" id="R"></path>
                        <path d="M38.9799479,12.6002902 L41.2325138,12.6002902 C41.4084955,12.6002902 41.5492808,12.5298975 41.6196735,12.3539158 L42.5699747,10.0837518 L48.1133985,10.0837518 L49.0812979,12.3539158 C49.1516905,12.5298975 49.2748777,12.6002902 49.4684576,12.6002902 L51.7034253,12.6002902 C51.9322015,12.6002902 52.0553887,12.4419066 51.9497997,12.2131304 L46.7583393,0.527945119 C46.6879467,0.351963412 46.5647595,0.28157073 46.3711796,0.28157073 L44.3121936,0.28157073 C44.1362119,0.28157073 44.0130247,0.369561583 43.942632,0.527945119 L38.7159754,12.2131304 C38.6279845,12.4419066 38.7335735,12.6002902 38.9799479,12.6002902 Z M43.5026778,7.81358776 L45.3328875,3.43164327 L47.1982936,7.81358776 L43.5026778,7.81358776 Z" id="A"></path>
                        <path d="M63.5117978,0.28157073 L53.0408863,0.28157073 C52.8473064,0.28157073 52.706521,0.404757924 52.706521,0.615935972 L52.706521,2.28776218 C52.706521,2.49894023 52.8473064,2.62212742 53.0408863,2.62212742 L56.8948856,2.62212742 L56.8948856,12.2659249 C56.8948856,12.477103 57.035671,12.6002902 57.2292509,12.6002902 L59.3234332,12.6002902 C59.517013,12.6002902 59.6577984,12.477103 59.6577984,12.2659249 L59.6577984,2.62212742 L63.5117978,2.62212742 C63.7229758,2.62212742 63.846163,2.49894023 63.846163,2.28776218 L63.846163,0.615935972 C63.846163,0.404757924 63.7229758,0.28157073 63.5117978,0.28157073 Z" id="T"></path>
                        <path d="M65.1660258,12.6002902 L71.4133764,12.6002902 C71.6245544,12.6002902 71.7653398,12.477103 71.7653398,12.2659249 L71.7653398,10.5940987 C71.7653398,10.3829207 71.6245544,10.2597335 71.4133764,10.2597335 L69.6711575,10.2597335 L69.6711575,2.62212742 L71.4133764,2.62212742 C71.6245544,2.62212742 71.7653398,2.49894023 71.7653398,2.28776218 L71.7653398,0.615935972 C71.7653398,0.404757924 71.6245544,0.28157073 71.4133764,0.28157073 L65.1660258,0.28157073 C64.9548478,0.28157073 64.8316606,0.404757924 64.8316606,0.615935972 L64.8316606,2.28776218 C64.8316606,2.49894023 64.9548478,2.62212742 65.1660258,2.62212742 L66.9082447,2.62212742 L66.9082447,10.2597335 L65.1660258,10.2597335 C64.9548478,10.2597335 64.8316606,10.3829207 64.8316606,10.5940987 L64.8316606,12.2659249 C64.8316606,12.477103 64.9548478,12.6002902 65.1660258,12.6002902 Z" id="I"></path>
                        <path d="M78.6286263,12.8642627 C81.690708,12.8642627 83.7320958,11.3508201 83.7320958,9.0454597 C83.7320958,4.10037375 76.4816495,6.42333228 76.4816495,3.64282132 C76.4816495,2.74531462 77.3439599,2.18217316 78.5758318,2.18217316 C79.7549093,2.18217316 80.5996214,2.69252011 80.863594,3.60762498 C80.9515849,3.80120485 81.0571739,3.87159754 81.2507538,3.87159754 L83.3625342,3.87159754 C83.5913104,3.87159754 83.7320958,3.74841034 83.6793013,3.53723229 C83.2921415,1.33746097 81.1275666,0 78.4174483,0 C75.4785538,0 73.4899605,1.53104084 73.4899605,3.81880302 C73.4899605,8.95746885 80.8107995,6.58171581 80.8107995,9.27423592 C80.8107995,10.1189481 79.9836855,10.6468932 78.699019,10.6468932 C77.1855763,10.6468932 76.0768916,9.97816274 75.7953209,8.95746885 C75.7249282,8.78148714 75.6193392,8.67589812 75.4257593,8.67589812 L73.331577,8.67589812 C73.1203989,8.67589812 72.9796136,8.79908531 73.0148099,9.02786153 C73.3491751,11.3508201 75.5841428,12.8642627 78.6286263,12.8642627 Z" id="S"></path>
                    </g>
                </g>
            </g>
        </g>
    </g>
</svg>