<?xml version="1.0" encoding="UTF-8"?>
<svg width="105px" height="54px" viewBox="0 0 105 54" version="1.1" xmlns="http://www.w3.org/2000/svg" xmlns:xlink="http://www.w3.org/1999/xlink">
    <title>in 2023 met de Omrin</title>
    <g id="Spotlight-3---Okt_Dec----HTML-5-banners" stroke="none" stroke-width="1" fill="none" fill-rule="evenodd">
        <g id="120x600px_1" transform="translate(-8.000000, -333.000000)" fill="#FFFFFF" fill-rule="nonzero">
            <g id="in-2023-met-de-Omrin" transform="translate(8.588000, 333.550001)">
                <path d="M21.42,2.52 C22.158,2.52 22.788,1.962 22.788,1.26 C22.788,0.558 22.158,0 21.42,0 C20.664,0 20.052,0.558 20.052,1.26 C20.052,1.962 20.664,2.52 21.42,2.52 Z M20.592,13.05 L22.248,13.05 C22.41,13.05 22.518,12.942 22.518,12.78 L22.518,4.68 C22.518,4.518 22.41,4.41 22.248,4.41 L20.592,4.41 C20.43,4.41 20.322,4.518 20.322,4.68 L20.322,12.78 C20.322,12.942 20.43,13.05 20.592,13.05 Z" id="Shape"></path>
                <path d="M30.906,4.14 C29.556,4.14 28.44,4.554 27.684,5.274 C27.342,4.572 26.604,4.14 25.632,4.14 C25.29,4.14 24.876,4.194 24.534,4.32 C24.372,4.374 24.318,4.482 24.318,4.644 L24.318,5.904 C24.318,6.084 24.462,6.138 24.642,6.12 C24.768,6.102 25.02,6.066 25.146,6.066 C25.668,6.066 25.902,6.282 25.902,6.732 L25.902,12.78 C25.902,12.942 26.01,13.05 26.172,13.05 L27.828,13.05 C27.99,13.05 28.098,12.942 28.098,12.78 L28.098,8.226 C28.098,6.912 29.052,6.03 30.438,6.03 C31.77,6.03 32.652,6.966 32.652,8.352 L32.652,12.78 C32.652,12.942 32.76,13.05 32.922,13.05 L34.578,13.05 C34.74,13.05 34.848,12.942 34.848,12.78 L34.848,8.226 C34.848,5.778 33.264,4.14 30.906,4.14 Z" id="Path"></path>
                <path d="M41.868,13.05 L50.04,13.05 C50.202,13.05 50.31,12.942 50.31,12.78 L50.31,11.556 C50.31,11.394 50.202,11.286 50.04,11.286 L44.892,11.286 L48.798,6.804 C49.788,5.67 50.148,4.752 50.148,3.798 C50.148,1.62 48.366,0.18 45.684,0.18 C43.128,0.18 41.382,1.602 41.238,3.798 C41.238,3.978 41.346,4.068 41.508,4.068 L43.254,4.068 C43.416,4.068 43.506,3.978 43.542,3.816 C43.704,2.736 44.568,2.034 45.774,2.034 C47.034,2.034 47.862,2.718 47.862,3.762 C47.862,4.518 47.52,5.202 46.944,5.85 L41.724,11.79 C41.634,11.88 41.598,12.006 41.598,12.132 L41.598,12.78 C41.598,12.942 41.706,13.05 41.868,13.05 Z" id="Path"></path>
                <path d="M57.42,0.18 C54.288,0.18 52.2,2.142 52.2,5.094 L52.2,8.406 C52.2,11.358 54.288,13.32 57.42,13.32 C60.552,13.32 62.64,11.358 62.64,8.406 L62.64,5.094 C62.64,2.142 60.552,0.18 57.42,0.18 Z M60.354,8.406 C60.354,10.188 59.184,11.376 57.42,11.376 C55.656,11.376 54.486,10.188 54.486,8.406 L54.486,5.094 C54.486,3.312 55.656,2.124 57.42,2.124 C59.184,2.124 60.354,3.312 60.354,5.094 L60.354,8.406 Z" id="Shape"></path>
                <path d="M64.89,13.05 L73.062,13.05 C73.224,13.05 73.332,12.942 73.332,12.78 L73.332,11.556 C73.332,11.394 73.224,11.286 73.062,11.286 L67.914,11.286 L71.82,6.804 C72.81,5.67 73.17,4.752 73.17,3.798 C73.17,1.62 71.388,0.18 68.706,0.18 C66.15,0.18 64.404,1.602 64.26,3.798 C64.26,3.978 64.368,4.068 64.53,4.068 L66.276,4.068 C66.438,4.068 66.528,3.978 66.564,3.816 C66.726,2.736 67.59,2.034 68.796,2.034 C70.056,2.034 70.884,2.718 70.884,3.762 C70.884,4.518 70.542,5.202 69.966,5.85 L64.746,11.79 C64.656,11.88 64.62,12.006 64.62,12.132 L64.62,12.78 C64.62,12.942 64.728,13.05 64.89,13.05 Z" id="Path"></path>
                <path d="M79.632,13.32 C82.332,13.32 84.132,11.844 84.132,9.648 C84.132,8.298 83.466,7.236 82.278,6.66 C83.214,6.066 83.7,5.094 83.7,3.834 C83.7,1.638 82.044,0.18 79.542,0.18 C77.22,0.18 75.546,1.458 75.258,3.42 C75.222,3.6 75.33,3.708 75.51,3.708 L77.202,3.708 C77.364,3.708 77.454,3.618 77.49,3.456 C77.706,2.592 78.48,2.034 79.542,2.034 C80.748,2.034 81.558,2.754 81.558,3.852 C81.558,5.148 80.73,5.886 79.452,5.886 L78.354,5.886 C78.192,5.886 78.084,5.994 78.084,6.156 L78.084,7.362 C78.084,7.524 78.192,7.632 78.354,7.632 L79.452,7.632 C81.054,7.632 82.008,8.388 82.008,9.648 C82.008,10.746 81.054,11.484 79.632,11.484 C78.444,11.484 77.526,10.908 77.202,10.008 C77.166,9.846 77.076,9.774 76.914,9.774 L75.204,9.774 C75.024,9.774 74.916,9.882 74.952,10.062 C75.312,12.024 77.13,13.32 79.632,13.32 Z" id="Path"></path>
                <path d="M32.265,21.740001 C30.879,21.740001 29.745,22.226001 29.007,23.054001 C28.341,22.226001 27.351,21.740001 26.127,21.740001 C24.867,21.740001 23.805,22.136001 23.085,22.838001 C22.743,22.154001 22.023,21.740001 21.051,21.740001 C20.709,21.740001 20.295,21.794001 19.953,21.920001 C19.791,21.974001 19.737,22.082001 19.737,22.244001 L19.737,23.504001 C19.737,23.684001 19.881,23.738001 20.061,23.720001 C20.187,23.702001 20.439,23.666001 20.565,23.666001 C21.087,23.666001 21.321,23.882001 21.321,24.332001 L21.321,30.380001 C21.321,30.542001 21.429,30.650001 21.591,30.650001 L23.247,30.650001 C23.409,30.650001 23.517,30.542001 23.517,30.380001 L23.517,25.826001 C23.517,24.512001 24.381,23.630001 25.659,23.630001 C26.883,23.630001 27.675,24.566001 27.675,25.952001 L27.675,30.380001 C27.675,30.542001 27.783,30.650001 27.945,30.650001 L29.601,30.650001 C29.763,30.650001 29.871,30.542001 29.871,30.380001 L29.871,25.826001 C29.871,24.512001 30.645,23.630001 31.797,23.630001 C33.129,23.630001 34.011,24.566001 34.011,25.952001 L34.011,30.380001 C34.011,30.542001 34.119,30.650001 34.281,30.650001 L35.937,30.650001 C36.099,30.650001 36.207,30.542001 36.207,30.380001 L36.207,25.826001 C36.207,23.378001 34.623,21.740001 32.265,21.740001 Z" id="Path"></path>
                <path d="M42.885,30.920001 C44.775,30.920001 46.377,30.038001 46.989,28.670001 C47.079,28.490001 46.971,28.364001 46.773,28.364001 L44.991,28.364001 C44.847,28.364001 44.757,28.418001 44.649,28.526001 C44.325,28.904001 43.677,29.156001 42.939,29.156001 C41.643,29.156001 40.635,28.400001 40.311,27.212001 L46.953,27.212001 C47.115,27.212001 47.223,27.140001 47.259,26.978001 C47.277,26.744001 47.295,26.492001 47.295,26.258001 C47.295,23.540001 45.477,21.740001 42.759,21.740001 C39.969,21.740001 38.097,23.576001 38.097,26.330001 C38.097,29.084001 40.023,30.920001 42.885,30.920001 Z M40.257,25.664001 C40.437,24.368001 41.463,23.504001 42.813,23.504001 C44.163,23.504001 45.027,24.404001 45.063,25.664001 L40.257,25.664001 Z" id="Shape"></path>
                <path d="M53.757,30.920001 C54.279,30.920001 55.053,30.812001 55.755,30.632001 C55.917,30.578001 55.989,30.470001 55.971,30.308001 L55.755,29.048001 C55.719,28.886001 55.611,28.796001 55.431,28.832001 C54.981,28.940001 54.441,28.994001 54.009,28.994001 C53.073,28.994001 52.461,28.346001 52.461,27.374001 L52.461,23.756001 L55.521,23.756001 C55.683,23.756001 55.791,23.648001 55.791,23.486001 L55.791,22.280001 C55.791,22.118001 55.683,22.010001 55.521,22.010001 L52.461,22.010001 L52.461,19.616001 C52.461,19.454001 52.353,19.346001 52.191,19.346001 L50.535,19.346001 C50.373,19.346001 50.265,19.454001 50.265,19.616001 L50.265,22.010001 L48.465,22.010001 C48.303,22.010001 48.195,22.118001 48.195,22.280001 L48.195,23.486001 C48.195,23.648001 48.303,23.756001 48.465,23.756001 L50.265,23.756001 L50.265,27.446001 C50.265,29.534001 51.669,30.920001 53.757,30.920001 Z" id="Path"></path>
                <path d="M73.269,30.380001 L73.125,29.138001 C73.107,28.958001 72.981,28.886001 72.801,28.922001 C72.513,28.976001 72.351,28.994001 72.135,28.994001 C71.757,28.994001 71.505,28.724001 71.505,28.328001 L71.505,17.600001 C71.505,17.438001 71.397,17.330001 71.235,17.330001 L69.561,17.330001 C69.399,17.330001 69.291,17.438001 69.291,17.600001 L69.291,22.514001 C68.517,21.974001 67.653,21.740001 66.771,21.740001 C63.981,21.740001 62.001,23.648001 62.001,26.330001 C62.001,29.012001 63.981,30.920001 66.771,30.920001 C67.923,30.920001 68.859,30.578001 69.741,29.804001 C70.083,30.506001 70.839,30.920001 71.829,30.920001 C72.225,30.920001 72.603,30.848001 73.053,30.704001 C73.215,30.650001 73.287,30.542001 73.269,30.380001 Z M66.789,29.120001 C65.277,29.120001 64.197,27.968001 64.197,26.330001 C64.197,24.692001 65.277,23.540001 66.789,23.540001 C68.265,23.540001 69.309,24.692001 69.309,26.330001 C69.309,27.968001 68.265,29.120001 66.789,29.120001 Z" id="Shape"></path>
                <path d="M79.407,30.920001 C81.297,30.920001 82.899,30.038001 83.511,28.670001 C83.601,28.490001 83.493,28.364001 83.295,28.364001 L81.513,28.364001 C81.369,28.364001 81.279,28.418001 81.171,28.526001 C80.847,28.904001 80.199,29.156001 79.461,29.156001 C78.165,29.156001 77.157,28.400001 76.833,27.212001 L83.475,27.212001 C83.637,27.212001 83.745,27.140001 83.781,26.978001 C83.799,26.744001 83.817,26.492001 83.817,26.258001 C83.817,23.540001 81.999,21.740001 79.281,21.740001 C76.491,21.740001 74.619,23.576001 74.619,26.330001 C74.619,29.084001 76.545,30.920001 79.407,30.920001 Z M76.779,25.664001 C76.959,24.368001 77.985,23.504001 79.335,23.504001 C80.685,23.504001 81.549,24.404001 81.585,25.664001 L76.779,25.664001 Z" id="Shape"></path>
                <path d="M6.768,48.502002 C10.728,48.502002 13.536,45.784002 13.536,41.950002 C13.536,38.116002 10.728,35.398002 6.768,35.398002 C2.808,35.398002 0,38.116002 0,41.950002 C0,45.784002 2.808,48.502002 6.768,48.502002 Z M6.768,46.486002 C4.158,46.486002 2.322,44.614002 2.322,41.950002 C2.322,39.286002 4.158,37.414002 6.768,37.414002 C9.378,37.414002 11.214,39.286002 11.214,41.950002 C11.214,44.614002 9.378,46.486002 6.768,46.486002 Z" id="Shape"></path>
                <path d="M27.594,39.340002 C26.208,39.340002 25.074,39.826002 24.336,40.654002 C23.67,39.826002 22.68,39.340002 21.456,39.340002 C20.196,39.340002 19.134,39.736002 18.414,40.438002 C18.072,39.754002 17.352,39.340002 16.38,39.340002 C16.038,39.340002 15.624,39.394002 15.282,39.520002 C15.12,39.574002 15.066,39.682002 15.066,39.844002 L15.066,41.104002 C15.066,41.284002 15.21,41.338002 15.39,41.320002 C15.516,41.302002 15.768,41.266002 15.894,41.266002 C16.416,41.266002 16.65,41.482002 16.65,41.932002 L16.65,47.980002 C16.65,48.142002 16.758,48.250002 16.92,48.250002 L18.576,48.250002 C18.738,48.250002 18.846,48.142002 18.846,47.980002 L18.846,43.426002 C18.846,42.112002 19.71,41.230002 20.988,41.230002 C22.212,41.230002 23.004,42.166002 23.004,43.552002 L23.004,47.980002 C23.004,48.142002 23.112,48.250002 23.274,48.250002 L24.93,48.250002 C25.092,48.250002 25.2,48.142002 25.2,47.980002 L25.2,43.426002 C25.2,42.112002 25.974,41.230002 27.126,41.230002 C28.458,41.230002 29.34,42.166002 29.34,43.552002 L29.34,47.980002 C29.34,48.142002 29.448,48.250002 29.61,48.250002 L31.266,48.250002 C31.428,48.250002 31.536,48.142002 31.536,47.980002 L31.536,43.426002 C31.536,40.978002 29.952,39.340002 27.594,39.340002 Z" id="Path"></path>
                <path d="M40.914,39.520002 C40.554,39.412002 40.032,39.340002 39.564,39.340002 C38.358,39.340002 37.332,39.808002 36.576,40.636002 C36.288,39.826002 35.514,39.340002 34.47,39.340002 C34.128,39.340002 33.714,39.412002 33.372,39.520002 C33.21,39.574002 33.156,39.682002 33.156,39.844002 L33.156,41.104002 C33.156,41.284002 33.3,41.338002 33.48,41.320002 C33.606,41.302002 33.858,41.266002 33.984,41.266002 C34.506,41.266002 34.74,41.482002 34.74,41.932002 L34.74,47.980002 C34.74,48.142002 34.848,48.250002 35.01,48.250002 L36.666,48.250002 C36.828,48.250002 36.936,48.142002 36.936,47.980002 L36.936,43.930002 C36.936,42.364002 38.016,41.320002 39.546,41.320002 C39.906,41.320002 40.266,41.356002 40.572,41.410002 C40.752,41.446002 40.86,41.374002 40.896,41.194002 L41.112,39.844002 C41.13,39.682002 41.076,39.574002 40.914,39.520002 Z" id="Path"></path>
                <path d="M44.01,37.720002 C44.748,37.720002 45.378,37.162002 45.378,36.460002 C45.378,35.758002 44.748,35.200002 44.01,35.200002 C43.254,35.200002 42.642,35.758002 42.642,36.460002 C42.642,37.162002 43.254,37.720002 44.01,37.720002 Z M43.182,48.250002 L44.838,48.250002 C45,48.250002 45.108,48.142002 45.108,47.980002 L45.108,39.880002 C45.108,39.718002 45,39.610002 44.838,39.610002 L43.182,39.610002 C43.02,39.610002 42.912,39.718002 42.912,39.880002 L42.912,47.980002 C42.912,48.142002 43.02,48.250002 43.182,48.250002 Z" id="Shape"></path>
                <path d="M53.496,39.340002 C52.146,39.340002 51.03,39.754002 50.274,40.474002 C49.932,39.772002 49.194,39.340002 48.222,39.340002 C47.88,39.340002 47.466,39.394002 47.124,39.520002 C46.962,39.574002 46.908,39.682002 46.908,39.844002 L46.908,41.104002 C46.908,41.284002 47.052,41.338002 47.232,41.320002 C47.358,41.302002 47.61,41.266002 47.736,41.266002 C48.258,41.266002 48.492,41.482002 48.492,41.932002 L48.492,47.980002 C48.492,48.142002 48.6,48.250002 48.762,48.250002 L50.418,48.250002 C50.58,48.250002 50.688,48.142002 50.688,47.980002 L50.688,43.426002 C50.688,42.112002 51.642,41.230002 53.028,41.230002 C54.36,41.230002 55.242,42.166002 55.242,43.552002 L55.242,47.980002 C55.242,48.142002 55.35,48.250002 55.512,48.250002 L57.168,48.250002 C57.33,48.250002 57.438,48.142002 57.438,47.980002 L57.438,43.426002 C57.438,40.978002 55.854,39.340002 53.496,39.340002 Z" id="Path"></path>
                <path d="M68.652,39.610002 L66.996,39.610002 C66.834,39.610002 66.726,39.718002 66.726,39.880002 L66.726,40.132002 C65.952,39.574002 65.07,39.340002 64.188,39.340002 C61.398,39.340002 59.418,41.248002 59.418,43.930002 C59.418,46.612002 61.398,48.520002 64.188,48.520002 C65.07,48.520002 65.952,48.286002 66.726,47.728002 L66.726,48.412002 C66.726,49.834002 65.772,50.770002 64.332,50.770002 C63.144,50.770002 62.226,50.230002 61.974,49.366002 C61.92,49.204002 61.83,49.132002 61.668,49.132002 L59.976,49.132002 C59.796,49.132002 59.688,49.240002 59.724,49.420002 C60.102,51.382002 61.902,52.660002 64.332,52.660002 C67.086,52.660002 68.922,50.968002 68.922,48.412002 L68.922,39.880002 C68.922,39.718002 68.814,39.610002 68.652,39.610002 Z M64.206,46.720002 C62.694,46.720002 61.614,45.568002 61.614,43.930002 C61.614,42.292002 62.694,41.140002 64.206,41.140002 C65.682,41.140002 66.726,42.292002 66.726,43.930002 C66.726,45.568002 65.682,46.720002 64.206,46.720002 Z" id="Shape"></path>
                <path d="M77.04,39.340002 C75.996,39.340002 74.916,39.682002 74.088,40.474002 C73.746,39.772002 73.008,39.340002 72.036,39.340002 C71.694,39.340002 71.28,39.394002 70.938,39.520002 C70.776,39.574002 70.722,39.682002 70.722,39.844002 L70.722,41.104002 C70.722,41.284002 70.866,41.338002 71.046,41.320002 C71.172,41.302002 71.424,41.266002 71.55,41.266002 C72.072,41.266002 72.306,41.482002 72.306,41.932002 L72.306,52.120002 C72.306,52.282002 72.414,52.390002 72.576,52.390002 L74.232,52.390002 C74.394,52.390002 74.502,52.282002 74.502,52.120002 L74.502,47.728002 C75.276,48.286002 76.158,48.520002 77.04,48.520002 C79.83,48.520002 81.81,46.612002 81.81,43.930002 C81.81,41.248002 79.83,39.340002 77.04,39.340002 Z M77.022,46.720002 C75.546,46.720002 74.502,45.568002 74.502,43.930002 C74.502,42.292002 75.546,41.140002 77.022,41.140002 C78.534,41.140002 79.614,42.292002 79.614,43.930002 C79.614,45.568002 78.534,46.720002 77.022,46.720002 Z" id="Shape"></path>
                <path d="M94.698,47.980002 L94.554,46.738002 C94.536,46.558002 94.41,46.486002 94.23,46.522002 C93.942,46.576002 93.78,46.594002 93.564,46.594002 C93.186,46.594002 92.934,46.324002 92.934,45.928002 L92.934,39.880002 C92.934,39.718002 92.826,39.610002 92.664,39.610002 L91.008,39.610002 C90.846,39.610002 90.738,39.718002 90.738,39.880002 L90.738,40.132002 C89.964,39.574002 89.082,39.340002 88.2,39.340002 C85.41,39.340002 83.43,41.248002 83.43,43.930002 C83.43,46.612002 85.41,48.520002 88.2,48.520002 C89.352,48.520002 90.288,48.178002 91.17,47.404002 C91.512,48.106002 92.268,48.520002 93.258,48.520002 C93.654,48.520002 94.032,48.448002 94.482,48.304002 C94.644,48.250002 94.716,48.142002 94.698,47.980002 Z M88.218,46.720002 C86.706,46.720002 85.626,45.568002 85.626,43.930002 C85.626,42.292002 86.706,41.140002 88.218,41.140002 C89.694,41.140002 90.738,42.292002 90.738,43.930002 C90.738,45.568002 89.694,46.720002 88.218,46.720002 Z" id="Shape"></path>
                <path d="M100.152,48.520002 C102.456,48.520002 104.004,47.404002 104.004,45.712002 C104.004,42.004002 98.352,43.912002 98.352,41.860002 C98.352,41.302002 99,40.942002 99.972,40.942002 C100.854,40.942002 101.61,41.374002 101.826,42.022002 C101.862,42.130002 101.952,42.184002 102.114,42.184002 L103.626,42.184002 C103.806,42.184002 103.914,42.076002 103.896,41.896002 C103.662,40.366002 102.078,39.340002 99.972,39.340002 C97.686,39.340002 96.174,40.438002 96.174,42.076002 C96.174,45.748002 101.898,43.948002 101.898,45.856002 C101.898,46.432002 101.196,46.828002 100.152,46.828002 C98.946,46.828002 98.19,46.378002 97.938,45.622002 C97.884,45.460002 97.812,45.388002 97.65,45.388002 L96.138,45.370002 C95.958,45.370002 95.85,45.478002 95.868,45.658002 C96.12,47.458002 97.704,48.520002 100.152,48.520002 Z" id="Path"></path>
            </g>
        </g>
    </g>
</svg>