<?xml version="1.0" encoding="UTF-8"?>
<svg width="116.362282px" height="139.447817px" viewBox="0 0 116.362282 139.447817" version="1.1" xmlns="http://www.w3.org/2000/svg" xmlns:xlink="http://www.w3.org/1999/xlink">
    <title>Group 2</title>
    <defs>
        <rect id="path-1" x="0" y="0" width="112.362282" height="23.8105123" rx="11.9052562"></rect>
        <filter x="-2.7%" y="-12.6%" width="105.3%" height="125.2%" filterUnits="objectBoundingBox" id="filter-2">
            <feOffset dx="0" dy="0" in="SourceAlpha" result="shadowOffsetOuter1"></feOffset>
            <feGaussianBlur stdDeviation="1" in="shadowOffsetOuter1" result="shadowBlurOuter1"></feGaussianBlur>
            <feColorMatrix values="0 0 0 0 0   0 0 0 0 0.368045807   0 0 0 0 0.361608624  0 0 0 0.5 0" type="matrix" in="shadowBlurOuter1"></feColorMatrix>
        </filter>
    </defs>
    <g id="Spotlight-4---HTML-5-" stroke="none" stroke-width="1" fill="none" fill-rule="evenodd">
        <g id="120x600px_2" transform="translate(-1.818859, -173.356714)">
            <g id="Group-2" transform="translate(3.818859, 173.356714)">
                <g id="Group" transform="translate(0.000000, 63.502710)">
                    <g id="Rectangle">
                        <use fill="black" fill-opacity="1" filter="url(#filter-2)" xlink:href="#path-1"></use>
                        <use fill="#F78E1E" fill-rule="evenodd" xlink:href="#path-1"></use>
                    </g>
                    <g id="B" transform="translate(9.699475, 5.310044)" fill="#FFFFFF" fill-rule="nonzero">
                        <path d="M0.384142934,13.752317 L6.97219425,13.752317 C10.0069234,13.752317 11.9852595,12.3309882 11.9852595,10.1413735 C11.9852595,8.45114454 10.9672808,7.18347286 9.296259,6.83774422 L9.296259,6.76091564 C10.6215521,6.28073697 11.3322165,5.12830817 11.3322165,3.7838079 C11.3322165,1.69022891 9.52674476,0.307314347 6.72250134,0.307314347 L0.384142934,0.307314347 C0.153657174,0.307314347 0,0.441764374 0,0.672250134 L0,13.3873812 C0,13.617867 0.153657174,13.752317 0.384142934,13.752317 Z M3.01552203,5.89659403 L3.01552203,2.66979339 L6.28073697,2.66979339 C7.72127297,2.66979339 8.47035169,3.28442208 8.47035169,4.14874369 C8.47035169,5.16672246 7.54840865,5.89659403 6.12707979,5.89659403 L3.01552203,5.89659403 Z M3.01552203,11.3706308 L3.01552203,8.1438302 L6.91457281,8.1438302 C8.18224449,8.1438302 9.02735895,8.77766604 9.02735895,9.75723052 C9.02735895,10.736795 8.1054159,11.3706308 6.7032942,11.3706308 L3.01552203,11.3706308 Z" id="Shape"></path>
                        <path d="M24.3354549,2.45851478 L24.3354549,0.672250134 C24.3354549,0.441764374 24.2010048,0.307314347 23.9705191,0.307314347 L14.4245672,0.307314347 C14.1940814,0.307314347 14.0404242,0.441764374 14.0404242,0.672250134 L14.0404242,13.3873812 C14.0404242,13.617867 14.1940814,13.752317 14.4245672,13.752317 L23.9705191,13.752317 C24.2010048,13.752317 24.3354549,13.617867 24.3354549,13.3873812 L24.3354549,11.6011166 C24.3354549,11.389838 24.2010048,11.255388 23.9705191,11.255388 L17.0559463,11.255388 L17.0559463,8.33590166 L23.0677832,8.33590166 C23.2982689,8.33590166 23.432719,8.20145164 23.432719,7.97096588 L23.432719,6.20390838 C23.432719,5.99262977 23.2982689,5.85817974 23.0677832,5.85817974 L17.0559463,5.85817974 L17.0559463,2.80424342 L23.9705191,2.80424342 C24.2010048,2.80424342 24.3354549,2.66979339 24.3354549,2.45851478 Z" id="Path"></path>
                        <path d="M32.0567278,14.0404242 C35.3987714,14.0404242 37.6268004,12.3886096 37.6268004,9.8724734 C37.6268004,4.47526518 29.7134559,7.01060854 29.7134559,3.97587937 C29.7134559,2.99631488 30.6546061,2.38168619 31.9991064,2.38168619 C33.2859852,2.38168619 34.2079283,2.93869344 34.4960355,3.93746507 C34.5920712,4.14874369 34.7073141,4.22557227 34.9185927,4.22557227 L37.2234503,4.22557227 C37.4731432,4.22557227 37.6268004,4.09112225 37.5691789,3.86063649 C37.1466217,1.45974315 34.7841427,0 31.8262421,0 C28.6186486,0 26.448241,1.67102176 26.448241,4.16795083 C26.448241,9.77643767 34.438414,7.18347286 34.438414,10.1221663 C34.438414,11.0441093 33.5356781,11.6203237 32.1335564,11.6203237 C30.4817418,11.6203237 29.2716916,10.8904522 28.9643772,9.77643767 C28.8875486,9.5843662 28.7723057,9.46912332 28.5610271,9.46912332 L26.2753767,9.46912332 C26.0448909,9.46912332 25.8912337,9.60357335 25.929648,9.85326625 C26.2945838,12.3886096 28.7338915,14.0404242 32.0567278,14.0404242 Z" id="Path"></path>
                        <path d="M40.2965938,13.752317 L42.5630371,13.752317 C42.7935228,13.752317 42.9279729,13.617867 42.9279729,13.3873812 L42.9279729,9.91088769 L45.4249019,9.91088769 C48.8053597,9.91088769 51.0910102,7.95175873 51.0910102,5.03227243 C51.0910102,2.20882187 48.8629812,0.307314347 45.559352,0.307314347 L40.2965938,0.307314347 C40.066108,0.307314347 39.9124508,0.441764374 39.9124508,0.672250134 L39.9124508,13.3873812 C39.9124508,13.617867 40.066108,13.752317 40.2965938,13.752317 Z M42.9279729,7.41395862 L42.9279729,2.82345056 L45.2712448,2.82345056 C46.9230594,2.82345056 48.0754882,3.72618646 48.0754882,5.03227243 C48.0754882,6.43439414 46.9230594,7.41395862 45.2712448,7.41395862 L42.9279729,7.41395862 Z" id="Shape"></path>
                        <path d="M52.108989,13.752317 L54.5675038,13.752317 C54.7595752,13.752317 54.9132324,13.6754884 54.990061,13.483417 L56.0272469,11.0056951 L62.0774981,11.0056951 L63.1338912,13.483417 C63.2107198,13.6754884 63.3451698,13.752317 63.5564484,13.752317 L65.995756,13.752317 C66.2454489,13.752317 66.379899,13.5794527 66.2646561,13.3297598 L60.5985478,0.576214401 C60.5217192,0.384142934 60.3872692,0.307314347 60.1759906,0.307314347 L57.9287544,0.307314347 C57.736683,0.307314347 57.6022329,0.403350081 57.5254043,0.576214401 L51.8208818,13.3297598 C51.724846,13.5794527 51.8400889,13.752317 52.108989,13.752317 Z M57.0452257,8.52797313 L59.0427689,3.74539361 L61.0787265,8.52797313 L57.0452257,8.52797313 Z" id="Shape"></path>
                        <path d="M67.2058063,13.752317 L69.6643211,13.752317 C69.8563925,13.752317 70.0100497,13.6754884 70.0868783,13.483417 L71.1240642,11.0056951 L77.1743154,11.0056951 L78.2307085,13.483417 C78.3075371,13.6754884 78.4419871,13.752317 78.6532657,13.752317 L81.0925733,13.752317 C81.3422662,13.752317 81.4767163,13.5794527 81.3614734,13.3297598 L75.6953651,0.576214401 C75.6185365,0.384142934 75.4840865,0.307314347 75.2728079,0.307314347 L73.0255717,0.307314347 C72.8335003,0.307314347 72.6990502,0.403350081 72.6222216,0.576214401 L66.9176991,13.3297598 C66.8216633,13.5794527 66.9369062,13.752317 67.2058063,13.752317 Z M72.142043,8.52797313 L74.1395862,3.74539361 L76.1755438,8.52797313 L72.142043,8.52797313 Z" id="Shape"></path>
                        <path d="M95.1137904,13.3297598 L91.5604683,8.95053036 C93.3467329,8.29748737 94.403126,6.93377996 94.403126,4.84020097 C94.403126,2.03595755 92.2711327,0.307314347 88.9482963,0.307314347 L83.3398095,0.307314347 C83.1093237,0.307314347 82.9556666,0.441764374 82.9556666,0.672250134 L82.9556666,13.3873812 C82.9556666,13.617867 83.1093237,13.752317 83.3398095,13.752317 L85.6062528,13.752317 C85.8367386,13.752317 85.9711886,13.617867 85.9711886,13.3873812 L85.9711886,9.39229473 L88.3720819,9.39229473 L91.6757112,13.5218313 C91.790954,13.6754884 91.9254041,13.752317 92.1174755,13.752317 L94.8833047,13.752317 C95.190619,13.752317 95.2866547,13.5602456 95.1137904,13.3297598 Z M85.9711886,2.82345056 L88.6793963,2.82345056 C90.3120037,2.82345056 91.4068111,3.59173643 91.4068111,4.84020097 C91.4068111,6.12707979 90.2543823,6.85695137 88.5257391,6.85695137 L85.9711886,6.85695137 L85.9711886,2.82345056 Z" id="Shape"></path>
                    </g>
                </g>
                <g id="tot-€-300,--per-jaar" transform="translate(4.449618, 97.912920)" fill="#FFFFFF" fill-rule="nonzero">
                    <path d="M6.18470123,14.0596314 C6.78012278,14.0596314 7.66365153,13.9443885 8.4319374,13.752317 C8.66242316,13.6754884 8.73925175,13.5410384 8.7200446,13.3297598 L8.47035169,11.6779452 C8.4319374,11.4666666 8.27828022,11.3514237 8.04779446,11.389838 C7.58682294,11.5050809 7.02981569,11.5627023 6.60725846,11.5627023 C5.64690113,11.5627023 5.01306529,10.9672808 5.01306529,9.98771628 L5.01306529,6.76091564 L8.02858732,6.76091564 C8.23986593,6.76091564 8.3935231,6.62646561 8.3935231,6.39597985 L8.3935231,4.80178667 C8.3935231,4.57130091 8.23986593,4.43685089 8.02858732,4.43685089 L5.01306529,4.43685089 L5.01306529,1.99754326 C5.01306529,1.7670575 4.87861526,1.63260747 4.6481295,1.63260747 L2.49692907,1.63260747 C2.26644331,1.63260747 2.13199328,1.7670575 2.13199328,1.99754326 L2.13199328,4.43685089 L0.364935787,4.43685089 C0.134450027,4.43685089 0,4.57130091 0,4.80178667 L0,6.39597985 C0,6.62646561 0.134450027,6.76091564 0.364935787,6.76091564 L2.13199328,6.76091564 L2.13199328,10.083752 C2.13199328,12.5422668 3.68777216,14.0596314 6.18470123,14.0596314 Z" id="Path"></path>
                    <path d="M14.7120602,14.0596314 C17.8812394,14.0596314 19.9940255,12.0812953 19.9940255,9.10418753 C19.9940255,6.10787265 17.8812394,4.12953654 14.7120602,4.12953654 C11.542881,4.12953654 9.43009484,6.10787265 9.43009484,9.10418753 C9.43009484,12.0812953 11.542881,14.0596314 14.7120602,14.0596314 Z M14.7120602,11.6779452 C13.1946956,11.6779452 12.1767168,10.6599664 12.1767168,9.10418753 C12.1767168,7.54840865 13.1946956,6.51122273 14.7120602,6.51122273 C16.2294248,6.51122273 17.2474035,7.54840865 17.2474035,9.10418753 C17.2474035,10.6599664 16.2294248,11.6779452 14.7120602,11.6779452 Z" id="Shape"></path>
                    <path d="M26.5238412,14.0596314 C27.1192628,14.0596314 28.0027915,13.9443885 28.7710774,13.752317 C29.0015631,13.6754884 29.0783917,13.5410384 29.0591846,13.3297598 L28.8094917,11.6779452 C28.7710774,11.4666666 28.6174202,11.3514237 28.3869344,11.389838 C27.9259629,11.5050809 27.3689557,11.5627023 26.9463984,11.5627023 C25.9860411,11.5627023 25.3522053,10.9672808 25.3522053,9.98771628 L25.3522053,6.76091564 L28.3677273,6.76091564 C28.5790059,6.76091564 28.7326631,6.62646561 28.7326631,6.39597985 L28.7326631,4.80178667 C28.7326631,4.57130091 28.5790059,4.43685089 28.3677273,4.43685089 L25.3522053,4.43685089 L25.3522053,1.99754326 C25.3522053,1.7670575 25.2177552,1.63260747 24.9872695,1.63260747 L22.836069,1.63260747 C22.6055833,1.63260747 22.4711333,1.7670575 22.4711333,1.99754326 L22.4711333,4.43685089 L20.7040758,4.43685089 C20.47359,4.43685089 20.33914,4.57130091 20.33914,4.80178667 L20.33914,6.39597985 C20.33914,6.62646561 20.47359,6.76091564 20.7040758,6.76091564 L22.4711333,6.76091564 L22.4711333,10.083752 C22.4711333,12.5422668 24.0269121,14.0596314 26.5238412,14.0596314 Z" id="Path"></path>
                    <path d="M49.4367388,8.48955884 L47.0550527,8.48955884 C46.8629812,8.48955884 46.7285312,8.60480172 46.6517026,8.81608033 C46.1331096,10.4294807 44.750195,11.3706308 42.9639304,11.3706308 C41.2160801,11.3706308 39.8715798,10.5447235 39.1993297,9.18101612 L42.8486875,9.18101612 C43.0599661,9.18101612 43.1944162,9.08498039 43.2328305,8.87370177 L43.4825234,8.00938017 C43.5401448,7.75968726 43.4249019,7.60603009 43.175209,7.60603009 L38.7767724,7.60603009 C38.7575653,7.41395862 38.7383581,7.22188716 38.7383581,7.01060854 C38.7383581,6.81853708 38.7575653,6.62646561 38.7767724,6.43439414 L43.559352,6.43439414 C43.7706306,6.43439414 43.9242877,6.33835841 43.962702,6.12707979 L44.1931878,5.28196534 C44.2700164,5.03227243 44.1547735,4.87861526 43.9050806,4.87861526 L39.1993297,4.87861526 C39.8523726,3.51490784 41.2160801,2.66979339 42.9639304,2.66979339 C44.7694022,2.66979339 46.056281,3.63015072 46.6517026,5.24355105 C46.7285312,5.45482966 46.8629812,5.55086539 47.0550527,5.55086539 L49.4367388,5.55086539 C49.6864317,5.55086539 49.8208818,5.39720822 49.7824675,5.16672246 C49.1870459,1.99754326 46.4788383,0 42.9447233,0 C39.3529868,0 36.760022,1.88230038 35.9341147,4.87861526 L34.5127859,4.87861526 C34.3015072,4.87861526 34.1478501,5.01306529 34.1478501,5.2243439 L34.1478501,6.0886655 C34.1478501,6.29994412 34.3015072,6.43439414 34.5127859,6.43439414 L35.6844218,6.43439414 C35.6652147,6.62646561 35.6652147,6.81853708 35.6652147,7.01060854 C35.6652147,7.22188716 35.6652147,7.41395862 35.6844218,7.60603009 L34.5127859,7.60603009 C34.3015072,7.60603009 34.1478501,7.75968726 34.1478501,7.97096588 L34.1478501,8.81608033 C34.1478501,9.04656609 34.3015072,9.18101612 34.5127859,9.18101612 L35.9533219,9.18101612 C36.7792292,12.177331 39.372194,14.0404242 42.9447233,14.0404242 C46.4788383,14.0404242 49.1870459,12.0620881 49.7824675,8.87370177 C49.8208818,8.64321601 49.6864317,8.48955884 49.4367388,8.48955884 Z" id="Path"></path>
                    <path d="M60.4412055,14.0596314 C63.4567276,14.0596314 65.473478,12.4462311 65.473478,10.0261306 C65.473478,8.66242316 64.820435,7.54840865 63.6295919,6.93377996 C64.5707421,6.31915126 65.0701279,5.26275819 65.0701279,3.95667222 C65.0701279,1.57498603 63.2070346,0 60.4027912,0 C57.752205,0 55.8699046,1.40212171 55.5625903,3.57252928 C55.5049688,3.82222219 55.658626,3.95667222 55.9083189,3.95667222 L58.021105,3.95667222 C58.2323837,3.95667222 58.3476265,3.84142934 58.405248,3.63015072 C58.6357337,2.82345056 59.3848125,2.3048576 60.4027912,2.3048576 C61.5744272,2.3048576 62.3619202,2.99631488 62.3619202,4.05270795 C62.3619202,5.26275819 61.5744272,5.97342262 60.3451698,5.97342262 L59.2119481,5.97342262 C58.9814624,5.97342262 58.8470123,6.10787265 58.8470123,6.33835841 L58.8470123,7.74048012 C58.8470123,7.95175873 58.9814624,8.1054159 59.2119481,8.1054159 L60.3259626,8.1054159 C61.7857058,8.1054159 62.6884417,8.81608033 62.6884417,10.0069234 C62.6884417,11.0633165 61.7857058,11.7547738 60.4219984,11.7547738 C59.3079839,11.7547738 58.4436623,11.2361808 58.1363479,10.3910664 C58.0595193,10.1797877 57.9442765,10.083752 57.7329978,10.083752 L55.6010046,10.083752 C55.3705188,10.083752 55.2168616,10.218202 55.2552759,10.4678949 C55.6202117,12.6383025 57.6369621,14.0596314 60.4412055,14.0596314 Z" id="Path"></path>
                    <path d="M72.2529866,0 C68.7957002,0 66.5100497,2.15120043 66.5100497,5.39720822 L66.5100497,8.66242316 C66.5100497,11.9084309 68.7957002,14.0596314 72.2529866,14.0596314 C75.6910658,14.0596314 77.9959234,11.9084309 77.9959234,8.66242316 L77.9959234,5.39720822 C77.9959234,2.15120043 75.6910658,0 72.2529866,0 Z M75.1148514,8.66242316 C75.1148514,10.4102735 73.9624226,11.5819095 72.2529866,11.5819095 C70.5243434,11.5819095 69.3719146,10.4102735 69.3719146,8.66242316 L69.3719146,5.39720822 C69.3719146,3.64935787 70.5243434,2.47772192 72.2529866,2.47772192 C73.9624226,2.47772192 75.1148514,3.64935787 75.1148514,5.39720822 L75.1148514,8.66242316 Z" id="Shape"></path>
                    <path d="M85.0635392,0 C81.6062528,0 79.3206024,2.15120043 79.3206024,5.39720822 L79.3206024,8.66242316 C79.3206024,11.9084309 81.6062528,14.0596314 85.0635392,14.0596314 C88.5016185,14.0596314 90.8064761,11.9084309 90.8064761,8.66242316 L90.8064761,5.39720822 C90.8064761,2.15120043 88.5016185,0 85.0635392,0 Z M87.9254041,8.66242316 C87.9254041,10.4102735 86.7729753,11.5819095 85.0635392,11.5819095 C83.334896,11.5819095 82.1824672,10.4102735 82.1824672,8.66242316 L82.1824672,5.39720822 C82.1824672,3.64935787 83.334896,2.47772192 85.0635392,2.47772192 C86.7729753,2.47772192 87.9254041,3.64935787 87.9254041,5.39720822 L87.9254041,8.66242316 Z" id="Shape"></path>
                    <path d="M92.918648,11.1017308 C92.0159121,11.1017308 91.2668334,11.7547738 91.2668334,12.5806811 C91.2668334,13.1761026 91.6701835,13.6562813 92.2271907,13.8675599 L91.4012834,15.7306531 C91.2860406,15.9995532 91.4012834,16.1532104 91.6701835,16.1532104 L92.5152979,16.1532104 C92.7073694,16.1532104 92.8610266,16.0955889 92.9570623,15.9227246 L94.1094911,13.8291456 C94.3783912,13.3681741 94.5704626,12.9840312 94.5704626,12.5806811 C94.5704626,11.7547738 93.8213839,11.1017308 92.918648,11.1017308 Z" id="Path"></path>
                    <path d="M96.8362918,10.0453377 L103.347514,10.0453377 C103.558793,10.0453377 103.71245,9.91088769 103.71245,9.69960908 L103.71245,7.79810156 C103.71245,7.5676158 103.558793,7.43316577 103.347514,7.43316577 L96.8362918,7.43316577 C96.6250132,7.43316577 96.4905631,7.5676158 96.4905631,7.79810156 L96.4905631,9.69960908 C96.4905631,9.91088769 96.6250132,10.0453377 96.8362918,10.0453377 Z" id="Path"></path>
                    <path d="M7.5292015,27.1295365 C6.35756556,27.1295365 5.2243439,27.5328866 4.37922945,28.3587939 C3.99508651,27.6097152 3.14997206,27.1295365 2.0551647,27.1295365 C1.61340032,27.1295365 1.11401451,27.187158 0.672250134,27.3600223 C0.460971521,27.4368509 0.384142934,27.5520938 0.384142934,27.7825795 L0.384142934,29.3575656 C0.384142934,29.6072585 0.557007254,29.6648799 0.806700161,29.6648799 C0.921943041,29.6456728 1.11401451,29.6072585 1.22925739,29.6072585 C1.7670575,29.6072585 1.97833611,29.8377442 1.97833611,30.3563372 L1.97833611,40.8626464 C1.97833611,41.073925 2.11278614,41.2083751 2.3432719,41.2083751 L4.49447233,41.2083751 C4.72495809,41.2083751 4.85940811,41.073925 4.85940811,40.8626464 L4.85940811,36.2337241 C5.64690113,36.8099385 6.56884417,37.0596314 7.5292015,37.0596314 C10.5255164,37.0596314 12.5998882,35.0236738 12.5998882,32.1041875 C12.5998882,29.1654941 10.5255164,27.1295365 7.5292015,27.1295365 Z M7.29871574,34.8123952 C5.85817974,34.8123952 4.85940811,33.6983807 4.85940811,32.1041875 C4.85940811,30.4907872 5.85817974,29.3767727 7.29871574,29.3767727 C8.73925175,29.3767727 9.77643767,30.4907872 9.77643767,32.1041875 C9.77643767,33.6983807 8.73925175,34.8123952 7.29871574,34.8123952 Z" id="Shape"></path>
                    <path d="M18.8992182,37.0596314 C21.0696257,37.0596314 22.7982689,36.0800669 23.4513119,34.4858737 C23.5473477,34.255388 23.4128976,34.1017308 23.1439976,34.1017308 L20.9927971,34.1017308 C20.8007257,34.1017308 20.6854828,34.1785594 20.5318256,34.2938023 C20.2053041,34.658738 19.6290897,34.8700167 18.9568396,34.8700167 C17.6891679,34.8700167 16.7288106,34.1593522 16.4214962,33.0069234 L23.3168619,33.0069234 C23.5281405,33.0069234 23.6817977,32.9108877 23.720212,32.6804019 C23.720212,32.4691233 23.7394191,32.2386376 23.7394191,32.0273589 C23.7394191,29.1078726 21.8379116,27.1295365 18.7263538,27.1295365 C15.6724175,27.1295365 13.6172528,29.1078726 13.6172528,32.1041875 C13.6172528,35.0812953 15.7492461,37.0596314 18.8992182,37.0596314 Z M16.4022891,31.2974874 C16.5751534,30.0874371 17.5355107,29.2615298 18.8031824,29.2615298 C20.0900613,29.2615298 20.9351757,30.1066443 20.9927971,31.2974874 L16.4022891,31.2974874 Z" id="Shape"></path>
                    <path d="M32.9390282,27.3024009 C32.5932996,27.187158 32.0747066,27.1295365 31.6137351,27.1295365 C30.3460634,27.1295365 29.251256,27.5905081 28.4829702,28.4356225 C28.1180344,27.6289224 27.2729199,27.1295365 26.1589054,27.1295365 C25.717141,27.1295365 25.2177552,27.2063651 24.7759909,27.3600223 C24.5647122,27.4368509 24.4878837,27.5520938 24.4878837,27.7825795 L24.4878837,29.3575656 C24.4878837,29.6072585 24.660748,29.6648799 24.9104409,29.6648799 C25.0256838,29.6456728 25.2177552,29.6072585 25.3329981,29.6072585 C25.8707982,29.6072585 26.0820768,29.8377442 26.0820768,30.3563372 L26.0820768,36.3873812 C26.0820768,36.617867 26.2165269,36.752317 26.4470126,36.752317 L28.5982131,36.752317 C28.8286988,36.752317 28.9631488,36.617867 28.9631488,36.3873812 L28.9631488,32.2578447 C28.9631488,30.6828587 30.0387491,29.7609156 31.4984922,29.7609156 C31.863428,29.7609156 32.2667781,29.7993299 32.5548853,29.8569514 C32.785371,29.8953657 32.9390282,29.7993299 32.9774425,29.5688442 L33.2271354,27.7249581 C33.2463426,27.5136795 33.169514,27.3600223 32.9390282,27.3024009 Z" id="Path"></path>
                    <path d="M40.3517585,25.7274148 C41.2929086,25.7274148 42.0611945,25.0359575 42.0611945,24.1332217 C42.0611945,23.2304858 41.2929086,22.5582356 40.3517585,22.5582356 C39.372194,22.5582356 38.6231153,23.2304858 38.6231153,24.1332217 C38.6231153,25.0359575 39.372194,25.7274148 40.3517585,25.7274148 Z M37.6243436,41.5348966 C40.4862085,41.4772751 41.7922945,40.0367391 41.7922945,37.1556671 L41.7922945,27.8017867 C41.7922945,27.5713009 41.6386373,27.4368509 41.4273587,27.4368509 L39.2569511,27.4368509 C39.0456725,27.4368509 38.8920153,27.5713009 38.8920153,27.8017867 L38.8920153,37.4821886 C38.8920153,38.576996 38.5078724,39.0187603 37.3554436,39.1724175 C37.0673364,39.230039 36.9328863,39.364489 36.9713006,39.5949747 L37.2209935,41.1891679 C37.2594078,41.4196537 37.413065,41.5348966 37.6243436,41.5348966 Z" id="Shape"></path>
                    <path d="M55.6784473,36.4257955 L55.4863759,34.8316024 C55.4671687,34.5819095 55.3135115,34.5050809 55.0830258,34.524288 C54.8333329,34.5819095 54.6796757,34.5819095 54.4876042,34.5819095 C54.0842542,34.5819095 53.8537684,34.3322165 53.8537684,33.8328307 L53.8537684,27.8017867 C53.8537684,27.5713009 53.7193184,27.4368509 53.4888326,27.4368509 L51.3760465,27.4368509 C51.1455607,27.4368509 51.0111107,27.5713009 51.0111107,27.8017867 L51.0111107,28.0130653 C50.2428248,27.4176437 49.3016746,27.1295365 48.2836959,27.1295365 C45.3065881,27.1295365 43.2322163,29.1654941 43.2322163,32.1041875 C43.2322163,35.0236738 45.3065881,37.0596314 48.2836959,37.0596314 C49.5321604,37.0596314 50.6077606,36.6754884 51.5104965,35.8879954 C51.9138466,36.617867 52.758961,37.0596314 53.930597,37.0596314 C54.3915685,37.0596314 54.85254,36.9828028 55.371133,36.8291456 C55.6016187,36.7715242 55.6976545,36.6370742 55.6784473,36.4257955 Z M48.5333888,34.8123952 C47.0736456,34.8123952 46.0556668,33.6983807 46.0556668,32.1041875 C46.0556668,30.4907872 47.0736456,29.3767727 48.5333888,29.3767727 C49.9739248,29.3767727 50.9534892,30.4907872 50.9534892,32.1041875 C50.9534892,33.6983807 49.9739248,34.8123952 48.5333888,34.8123952 Z" id="Shape"></path>
                    <path d="M68.8155215,36.4257955 L68.62345,34.8316024 C68.6042429,34.5819095 68.4505857,34.5050809 68.2200999,34.524288 C67.970407,34.5819095 67.8167499,34.5819095 67.6246784,34.5819095 C67.2213283,34.5819095 66.9908425,34.3322165 66.9908425,33.8328307 L66.9908425,27.8017867 C66.9908425,27.5713009 66.8563925,27.4368509 66.6259068,27.4368509 L64.5131206,27.4368509 C64.2826349,27.4368509 64.1481848,27.5713009 64.1481848,27.8017867 L64.1481848,28.0130653 C63.379899,27.4176437 62.4387488,27.1295365 61.42077,27.1295365 C58.4436623,27.1295365 56.3692904,29.1654941 56.3692904,32.1041875 C56.3692904,35.0236738 58.4436623,37.0596314 61.42077,37.0596314 C62.6692345,37.0596314 63.7448348,36.6754884 64.6475707,35.8879954 C65.0509207,36.617867 65.8960352,37.0596314 67.0676711,37.0596314 C67.5286427,37.0596314 67.9896142,36.9828028 68.5082071,36.8291456 C68.7386929,36.7715242 68.8347286,36.6370742 68.8155215,36.4257955 Z M61.6704629,34.8123952 C60.2107198,34.8123952 59.192741,33.6983807 59.192741,32.1041875 C59.192741,30.4907872 60.2107198,29.3767727 61.6704629,29.3767727 C63.1109989,29.3767727 64.0905634,30.4907872 64.0905634,32.1041875 C64.0905634,33.6983807 63.1109989,34.8123952 61.6704629,34.8123952 Z" id="Shape"></path>
                    <path d="M77.7270234,27.3024009 C77.3812947,27.187158 76.8627018,27.1295365 76.4017302,27.1295365 C75.1340586,27.1295365 74.0392512,27.5905081 73.2709653,28.4356225 C72.9060295,27.6289224 72.0609151,27.1295365 70.9469006,27.1295365 C70.5051362,27.1295365 70.0057504,27.2063651 69.563986,27.3600223 C69.3527074,27.4368509 69.2758788,27.5520938 69.2758788,27.7825795 L69.2758788,29.3575656 C69.2758788,29.6072585 69.4487431,29.6648799 69.698436,29.6648799 C69.8136789,29.6456728 70.0057504,29.6072585 70.1209933,29.6072585 C70.6587934,29.6072585 70.870072,29.8377442 70.870072,30.3563372 L70.870072,36.3873812 C70.870072,36.617867 71.004522,36.752317 71.2350078,36.752317 L73.3862082,36.752317 C73.616694,36.752317 73.751144,36.617867 73.751144,36.3873812 L73.751144,32.2578447 C73.751144,30.6828587 74.8267442,29.7609156 76.2864874,29.7609156 C76.6514231,29.7609156 77.0547732,29.7993299 77.3428804,29.8569514 C77.5733662,29.8953657 77.7270234,29.7993299 77.7654377,29.5688442 L78.0151306,27.7249581 C78.0343377,27.5136795 77.9575091,27.3600223 77.7270234,27.3024009 Z" id="Path"></path>
                </g>
                <g id="Profiteer-van-100+-v" transform="translate(4.659681, 0.000000)" fill="#FFFFFF" fill-rule="nonzero">
                    <path d="M1.06741094,11.5222181 L2.5477489,11.5222181 C2.68509984,11.5222181 2.77666714,11.4306508 2.77666714,11.2932998 L2.77666714,8.18001178 L4.97428224,8.18001178 C7.52290531,8.18001178 9.3237288,6.62336774 9.3237288,4.42575264 C9.3237288,2.31970483 7.58395018,0.83936688 5.1268944,0.83936688 L1.06741094,0.83936688 C0.93006,0.83936688 0.838492704,0.930934176 0.838492704,1.06828512 L0.838492704,11.2932998 C0.838492704,11.4306508 0.93006,11.5222181 1.06741094,11.5222181 Z M2.77666714,6.50127802 L2.77666714,2.53336186 L4.91323738,2.53336186 C6.3630529,2.53336186 7.40081558,3.31168387 7.40081558,4.42575264 C7.40081558,5.64664992 6.3630529,6.50127802 4.91323738,6.50127802 L2.77666714,6.50127802 Z" id="Shape"></path>
                    <path d="M16.7406798,4.12052832 C16.4354555,4.02896102 15.9928802,3.96791616 15.5960886,3.96791616 C14.5735871,3.96791616 13.7036978,4.36470778 13.0627267,5.06672371 C12.8185473,4.37996899 12.162315,3.96791616 11.2771644,3.96791616 C10.9872013,3.96791616 10.6361934,4.02896102 10.3462303,4.12052832 C10.2088793,4.16631197 10.1630957,4.25787926 10.1630957,4.39523021 L10.1630957,5.46351533 C10.1630957,5.61612749 10.2851854,5.66191114 10.4377976,5.64664992 C10.5446261,5.6313887 10.7582831,5.60086627 10.8651116,5.60086627 C11.3076869,5.60086627 11.5060827,5.78400086 11.5060827,6.16553126 L11.5060827,11.2932998 C11.5060827,11.4306508 11.59765,11.5222181 11.7350009,11.5222181 L13.1390328,11.5222181 C13.2763837,11.5222181 13.367951,11.4306508 13.367951,11.2932998 L13.367951,7.85952624 C13.367951,6.53180045 14.283624,5.64664992 15.5808274,5.64664992 C15.8860517,5.64664992 16.191276,5.67717235 16.4507167,5.722956 C16.6033288,5.75347843 16.6948961,5.69243357 16.7254186,5.53982141 L16.9085532,4.39523021 C16.9238144,4.25787926 16.8780307,4.16631197 16.7406798,4.12052832 Z" id="Path"></path>
                    <path d="M22.127889,11.7511363 C24.5696836,11.7511363 26.2026337,10.1944923 26.2026337,7.85952624 C26.2026337,5.52456019 24.5696836,3.96791616 22.127889,3.96791616 C19.6860945,3.96791616 18.0531444,5.52456019 18.0531444,7.85952624 C18.0531444,10.1944923 19.6860945,11.7511363 22.127889,11.7511363 Z M22.127889,10.1487086 C20.8001632,10.1487086 19.9150127,9.23303568 19.9150127,7.85952624 C19.9150127,6.4860168 20.8001632,5.57034384 22.127889,5.57034384 C23.4556148,5.57034384 24.3407653,6.4860168 24.3407653,7.85952624 C24.3407653,9.23303568 23.4556148,10.1487086 22.127889,10.1487086 Z" id="Shape"></path>
                    <path d="M29.331183,11.5222181 L30.7352148,11.5222181 C30.8725658,11.5222181 30.9641331,11.4306508 30.9641331,11.2932998 L30.9641331,5.67717235 L34.8862656,5.67717235 L34.8862656,11.2932998 C34.8862656,11.4306508 34.9778329,11.5222181 35.1151838,11.5222181 L36.5192157,11.5222181 C36.6565667,11.5222181 36.748134,11.4306508 36.748134,11.2932998 L36.748134,4.42575264 C36.748134,4.2884017 36.6565667,4.1968344 36.5192157,4.1968344 L30.9641331,4.1968344 L30.9641331,3.08276563 C30.9641331,2.1976151 31.6203654,1.6176889 32.5665608,1.6176889 C32.9480912,1.6176889 33.4364501,1.67873376 33.787458,1.78556227 C33.9400702,1.83134592 34.0316375,1.72451741 34.0621599,1.58716646 L34.2452945,0.503620128 C34.275817,0.351007968 34.2147721,0.289963104 34.0774212,0.244179456 C33.5280174,0.07630608 32.8107402,0 32.3223813,0 C30.3842069,0 29.1022647,1.2361585 29.1022647,3.08276563 L29.1022647,4.1968344 L27.1946127,4.1968344 C27.0572618,4.1968344 26.9656945,4.2884017 26.9656945,4.42575264 L26.9656945,5.44825411 C26.9656945,5.58560506 27.0572618,5.67717235 27.1946127,5.67717235 L29.1022647,5.67717235 L29.1022647,11.2932998 C29.1022647,11.4306508 29.193832,11.5222181 29.331183,11.5222181 Z M35.8171998,2.59440672 C36.4429096,2.59440672 36.9770522,2.12130902 36.9770522,1.5261216 C36.9770522,0.930934176 36.4429096,0.45783648 35.8171998,0.45783648 C35.1762287,0.45783648 34.6573474,0.930934176 34.6573474,1.5261216 C34.6573474,2.12130902 35.1762287,2.59440672 35.8171998,2.59440672 Z" id="Shape"></path>
                    <path d="M42.6084409,11.7511363 C43.0510162,11.7511363 43.7072484,11.659569 44.3024359,11.5069569 C44.4397868,11.4611732 44.5008317,11.3696059 44.4855705,11.232255 L44.3024359,10.1639699 C44.2719134,10.0266189 44.1803461,9.95031283 44.027734,9.98083526 C43.6462036,10.0724026 43.1883671,10.1181862 42.8220979,10.1181862 C42.0285147,10.1181862 41.5096333,9.56878243 41.5096333,8.74467677 L41.5096333,5.67717235 L44.1040401,5.67717235 C44.241391,5.67717235 44.3329583,5.58560506 44.3329583,5.44825411 L44.3329583,4.42575264 C44.3329583,4.2884017 44.241391,4.1968344 44.1040401,4.1968344 L41.5096333,4.1968344 L41.5096333,2.16709267 C41.5096333,2.02974173 41.418066,1.93817443 41.2807151,1.93817443 L39.8766832,1.93817443 C39.7393323,1.93817443 39.647765,2.02974173 39.647765,2.16709267 L39.647765,4.1968344 L38.1216434,4.1968344 C37.9842924,4.1968344 37.8927252,4.2884017 37.8927252,4.42575264 L37.8927252,5.44825411 C37.8927252,5.58560506 37.9842924,5.67717235 38.1216434,5.67717235 L39.647765,5.67717235 L39.647765,8.80572163 C39.647765,10.5760227 40.8381398,11.7511363 42.6084409,11.7511363 Z" id="Path"></path>
                    <path d="M49.6896451,11.7511363 C51.2920728,11.7511363 52.650321,11.0033367 53.1692024,9.84348432 C53.2455084,9.69087216 53.1539412,9.58404365 52.9860678,9.58404365 L51.4752074,9.58404365 C51.3531177,9.58404365 51.2768116,9.6298273 51.1852443,9.72139459 C50.9105424,10.0418801 50.3611386,10.2555372 49.7354288,10.2555372 C48.6366212,10.2555372 47.7819931,9.61456608 47.5072912,8.60732582 L53.1386799,8.60732582 C53.2760309,8.60732582 53.3675982,8.54628096 53.3981206,8.40893002 C53.4133818,8.21053421 53.428643,7.99687718 53.428643,7.79848138 C53.428643,5.49403776 51.8872602,3.96791616 49.5828166,3.96791616 C47.2173281,3.96791616 45.6301617,5.52456019 45.6301617,7.85952624 C45.6301617,10.1944923 47.2631118,11.7511363 49.6896451,11.7511363 Z M47.4615076,7.29486125 C47.6141197,6.1960537 48.4840091,5.46351533 49.6286003,5.46351533 C50.7731915,5.46351533 51.5057298,6.22657613 51.5362523,7.29486125 L47.4615076,7.29486125 Z" id="Shape"></path>
                    <path d="M58.8616359,11.7511363 C60.4640636,11.7511363 61.8223118,11.0033367 62.3411932,9.84348432 C62.4174993,9.69087216 62.325932,9.58404365 62.1580586,9.58404365 L60.6471982,9.58404365 C60.5251085,9.58404365 60.4488024,9.6298273 60.3572351,9.72139459 C60.0825332,10.0418801 59.5331294,10.2555372 58.9074196,10.2555372 C57.808612,10.2555372 56.9539839,9.61456608 56.679282,8.60732582 L62.3106708,8.60732582 C62.4480217,8.60732582 62.539589,8.54628096 62.5701114,8.40893002 C62.5853726,8.21053421 62.6006339,7.99687718 62.6006339,7.79848138 C62.6006339,5.49403776 61.059251,3.96791616 58.7548074,3.96791616 C56.3893189,3.96791616 54.8021525,5.52456019 54.8021525,7.85952624 C54.8021525,10.1944923 56.4351026,11.7511363 58.8616359,11.7511363 Z M56.6334984,7.29486125 C56.7861106,6.1960537 57.6559999,5.46351533 58.8005911,5.46351533 C59.9451823,5.46351533 60.6777206,6.22657613 60.7082431,7.29486125 L56.6334984,7.29486125 Z" id="Shape"></path>
                    <path d="M70.3228092,4.12052832 C70.0175848,4.02896102 69.5750096,3.96791616 69.178218,3.96791616 C68.1557165,3.96791616 67.2858272,4.36470778 66.6448561,5.06672371 C66.4006766,4.37996899 65.7444444,3.96791616 64.8592938,3.96791616 C64.5693307,3.96791616 64.2183228,4.02896102 63.9283596,4.12052832 C63.7910087,4.16631197 63.7452251,4.25787926 63.7452251,4.39523021 L63.7452251,5.46351533 C63.7452251,5.61612749 63.8673148,5.66191114 64.0199269,5.64664992 C64.1267555,5.6313887 64.3404125,5.60086627 64.447241,5.60086627 C64.8898163,5.60086627 65.0882121,5.78400086 65.0882121,6.16553126 L65.0882121,11.2932998 C65.0882121,11.4306508 65.1797794,11.5222181 65.3171303,11.5222181 L66.7211622,11.5222181 C66.8585131,11.5222181 66.9500804,11.4306508 66.9500804,11.2932998 L66.9500804,7.85952624 C66.9500804,6.53180045 67.8657534,5.64664992 69.1629567,5.64664992 C69.4681811,5.64664992 69.7734054,5.67717235 70.032846,5.722956 C70.1854582,5.75347843 70.2770255,5.69243357 70.3075479,5.53982141 L70.4906825,4.39523021 C70.5059437,4.25787926 70.4601601,4.16631197 70.3228092,4.12052832 Z" id="Path"></path>
                    <path d="M3.6007728,30.5222181 L4.88271494,30.5222181 C5.00480467,30.5222181 5.09637197,30.4611732 5.14215562,30.3543447 L8.45383949,23.4715363 C8.53014557,23.3036629 8.45383949,23.1968344 8.28596611,23.1968344 L6.80562816,23.1968344 C6.68353843,23.1968344 6.59197114,23.2578793 6.54618749,23.3647078 L4.24174387,28.2788193 L1.96782269,23.3647078 C1.92203904,23.2578793 1.83047174,23.1968344 1.70838202,23.1968344 L0.197521632,23.1968344 C0.0296482558,23.1968344 -0.0466578242,23.3036629 0.0296482558,23.4715363 L3.34133213,30.3543447 C3.38711578,30.4611732 3.47868307,30.5222181 3.6007728,30.5222181 Z" id="Path"></path>
                    <path d="M19.0298622,30.2932998 L18.9077724,29.2402759 C18.8925112,29.0876638 18.7856827,29.0266189 18.6330706,29.0571413 C18.3888911,29.102925 18.2515402,29.1181862 18.0684056,29.1181862 C17.74792,29.1181862 17.534263,28.889268 17.534263,28.5535212 L17.534263,23.4257526 C17.534263,23.2884017 17.4426957,23.1968344 17.3053448,23.1968344 L15.9013129,23.1968344 C15.763962,23.1968344 15.6723947,23.2884017 15.6723947,23.4257526 L15.6723947,23.6394097 C15.0161624,23.166312 14.2683628,22.9679162 13.5205632,22.9679162 C11.1550747,22.9679162 9.47634096,24.5856051 9.47634096,26.8595262 C9.47634096,29.1334474 11.1550747,30.7511363 13.5205632,30.7511363 C14.497281,30.7511363 15.2908643,30.4611732 16.0386638,29.8049409 C16.3286269,30.4001284 16.969598,30.7511363 17.8089649,30.7511363 C18.1447116,30.7511363 18.4651972,30.6900915 18.8467276,30.5680017 C18.9840785,30.5222181 19.0451234,30.4306508 19.0298622,30.2932998 Z M13.5358244,29.2250147 C12.2538823,29.2250147 11.3382093,28.2482969 11.3382093,26.8595262 C11.3382093,25.4707556 12.2538823,24.4940378 13.5358244,24.4940378 C14.7872441,24.4940378 15.6723947,25.4707556 15.6723947,26.8595262 C15.6723947,28.2482969 14.7872441,29.2250147 13.5358244,29.2250147 Z" id="Shape"></path>
                    <path d="M25.5311402,22.9679162 C24.386549,22.9679162 23.4403536,23.3189241 22.7993825,23.9293728 C22.5094194,23.3341853 21.8837096,22.9679162 21.0596039,22.9679162 C20.7696408,22.9679162 20.4186328,23.0136998 20.1286697,23.1205283 C19.9913188,23.166312 19.9455351,23.2578793 19.9455351,23.3952302 L19.9455351,24.4635153 C19.9455351,24.6161275 20.0676249,24.6619111 20.220237,24.6466499 C20.3270655,24.6313887 20.5407226,24.6008663 20.6475511,24.6008663 C21.0901263,24.6008663 21.2885221,24.7840009 21.2885221,25.1655313 L21.2885221,30.2932998 C21.2885221,30.4306508 21.3800894,30.5222181 21.5174404,30.5222181 L22.9214723,30.5222181 C23.0588232,30.5222181 23.1503905,30.4306508 23.1503905,30.2932998 L23.1503905,26.4322122 C23.1503905,25.3181434 23.9592349,24.5703438 25.1343486,24.5703438 C26.2636786,24.5703438 27.0114781,25.3639271 27.0114781,26.5390407 L27.0114781,30.2932998 C27.0114781,30.4306508 27.1030454,30.5222181 27.2403964,30.5222181 L28.6444283,30.5222181 C28.7817792,30.5222181 28.8733465,30.4306508 28.8733465,30.2932998 L28.8733465,26.4322122 C28.8733465,24.3566868 27.5303595,22.9679162 25.5311402,22.9679162 Z" id="Path"></path>
                    <path d="M38.2895168,19.8393669 L34.0163763,19.8393669 C33.8790253,19.8393669 33.8332417,19.915673 33.8332417,20.0377627 L33.8332417,21.2739212 C33.8332417,21.4265333 33.9400702,21.472317 34.0926824,21.472317 L36.5802606,21.472317 L36.5802606,30.2932998 C36.5802606,30.4306508 36.6718279,30.5222181 36.8091788,30.5222181 L38.2895168,30.5222181 C38.4268677,30.5222181 38.518435,30.4306508 38.518435,30.2932998 L38.518435,20.0682851 C38.518435,19.9309342 38.4268677,19.8393669 38.2895168,19.8393669 Z" id="Path"></path>
                    <path d="M45.157064,19.6104486 C42.5016124,19.6104486 40.7313113,21.2739212 40.7313113,23.7767606 L40.7313113,26.5848244 C40.7313113,29.0876638 42.5016124,30.7511363 45.157064,30.7511363 C47.8125156,30.7511363 49.5828166,29.0876638 49.5828166,26.5848244 L49.5828166,23.7767606 C49.5828166,21.2739212 47.8125156,19.6104486 45.157064,19.6104486 Z M47.6446422,26.5848244 C47.6446422,28.0956847 46.6526631,29.102925 45.157064,29.102925 C43.6614648,29.102925 42.6694858,28.0956847 42.6694858,26.5848244 L42.6694858,23.7767606 C42.6694858,22.2659002 43.6614648,21.25866 45.157064,21.25866 C46.6526631,21.25866 47.6446422,22.2659002 47.6446422,23.7767606 L47.6446422,26.5848244 Z" id="Shape"></path>
                    <path d="M55.687303,19.6104486 C53.0318514,19.6104486 51.2615504,21.2739212 51.2615504,23.7767606 L51.2615504,26.5848244 C51.2615504,29.0876638 53.0318514,30.7511363 55.687303,30.7511363 C58.3427546,30.7511363 60.1130556,29.0876638 60.1130556,26.5848244 L60.1130556,23.7767606 C60.1130556,21.2739212 58.3427546,19.6104486 55.687303,19.6104486 Z M58.1748812,26.5848244 C58.1748812,28.0956847 57.1829022,29.102925 55.687303,29.102925 C54.1917038,29.102925 53.1997248,28.0956847 53.1997248,26.5848244 L53.1997248,23.7767606 C53.1997248,22.2659002 54.1917038,21.25866 55.687303,21.25866 C57.1829022,21.25866 58.1748812,22.2659002 58.1748812,23.7767606 L58.1748812,26.5848244 Z" id="Shape"></path>
                    <path d="M65.7597056,28.9960965 L67.0874314,28.9960965 C67.2247823,28.9960965 67.3163496,28.9045292 67.3163496,28.7671782 L67.3163496,26.2948612 L70.0633685,26.2948612 C70.2007194,26.2948612 70.2922867,26.203294 70.2922867,26.065943 L70.2922867,24.9060906 C70.2922867,24.7687396 70.2007194,24.6771724 70.0633685,24.6771724 L67.3163496,24.6771724 L67.3163496,22.2048554 C67.3163496,22.0675044 67.2247823,21.9759371 67.0874314,21.9759371 L65.7597056,21.9759371 C65.6223546,21.9759371 65.5307873,22.0675044 65.5307873,22.2048554 L65.5307873,24.6771724 L62.7837684,24.6771724 C62.6464175,24.6771724 62.5548502,24.7687396 62.5548502,24.9060906 L62.5548502,26.065943 C62.5548502,26.203294 62.6464175,26.2948612 62.7837684,26.2948612 L65.5307873,26.2948612 L65.5307873,28.7671782 C65.5307873,28.9045292 65.6223546,28.9960965 65.7597056,28.9960965 Z" id="Path"></path>
                    <path d="M3.6007728,49.5222181 L4.88271494,49.5222181 C5.00480467,49.5222181 5.09637197,49.4611732 5.14215562,49.3543447 L8.45383949,42.4715363 C8.53014557,42.3036629 8.45383949,42.1968344 8.28596611,42.1968344 L6.80562816,42.1968344 C6.68353843,42.1968344 6.59197114,42.2578793 6.54618749,42.3647078 L4.24174387,47.2788193 L1.96782269,42.3647078 C1.92203904,42.2578793 1.83047174,42.1968344 1.70838202,42.1968344 L0.197521632,42.1968344 C0.0296482558,42.1968344 -0.0466578242,42.3036629 0.0296482558,42.4715363 L3.34133213,49.3543447 C3.38711578,49.4611732 3.47868307,49.5222181 3.6007728,49.5222181 Z" id="Path"></path>
                    <path d="M13.5510856,49.7511363 C15.9928802,49.7511363 17.6258303,48.1944923 17.6258303,45.8595262 C17.6258303,43.5245602 15.9928802,41.9679162 13.5510856,41.9679162 C11.1092911,41.9679162 9.47634096,43.5245602 9.47634096,45.8595262 C9.47634096,48.1944923 11.1092911,49.7511363 13.5510856,49.7511363 Z M13.5510856,48.1487086 C12.2233598,48.1487086 11.3382093,47.2330357 11.3382093,45.8595262 C11.3382093,44.4860168 12.2233598,43.5703438 13.5510856,43.5703438 C14.8788114,43.5703438 15.763962,44.4860168 15.763962,45.8595262 C15.763962,47.2330357 14.8788114,48.1487086 13.5510856,48.1487086 Z" id="Shape"></path>
                    <path d="M23.0740844,49.7511363 C25.515879,49.7511363 27.1488291,48.1944923 27.1488291,45.8595262 C27.1488291,43.5245602 25.515879,41.9679162 23.0740844,41.9679162 C20.6322899,41.9679162 18.9993397,43.5245602 18.9993397,45.8595262 C18.9993397,48.1944923 20.6322899,49.7511363 23.0740844,49.7511363 Z M23.0740844,48.1487086 C21.7463586,48.1487086 20.8612081,47.2330357 20.8612081,45.8595262 C20.8612081,44.4860168 21.7463586,43.5703438 23.0740844,43.5703438 C24.4018102,43.5703438 25.2869607,44.4860168 25.2869607,45.8595262 C25.2869607,47.2330357 24.4018102,48.1487086 23.0740844,48.1487086 Z" id="Shape"></path>
                    <path d="M34.8710044,42.1205283 C34.5657801,42.028961 34.1232048,41.9679162 33.7264132,41.9679162 C32.7039117,41.9679162 31.8340224,42.3647078 31.1930513,43.0667237 C30.9488719,42.379969 30.2926396,41.9679162 29.4074891,41.9679162 C29.117526,41.9679162 28.766518,42.028961 28.4765549,42.1205283 C28.3392039,42.166312 28.2934203,42.2578793 28.2934203,42.3952302 L28.2934203,43.4635153 C28.2934203,43.6161275 28.41551,43.6619111 28.5681222,43.6466499 C28.6749507,43.6313887 28.8886077,43.6008663 28.9954362,43.6008663 C29.4380115,43.6008663 29.6364073,43.7840009 29.6364073,44.1655313 L29.6364073,49.2932998 C29.6364073,49.4306508 29.7279746,49.5222181 29.8653255,49.5222181 L31.2693574,49.5222181 C31.4067084,49.5222181 31.4982756,49.4306508 31.4982756,49.2932998 L31.4982756,45.8595262 C31.4982756,44.5318004 32.4139486,43.6466499 33.711152,43.6466499 C34.0163763,43.6466499 34.3216006,43.6771724 34.5810413,43.722956 C34.7336534,43.7534784 34.8252207,43.6924336 34.8557432,43.5398214 L35.0388778,42.3952302 C35.054139,42.2578793 35.0083553,42.166312 34.8710044,42.1205283 Z" id="Path"></path>
                    <path d="M45.7369902,49.2932998 L45.6149004,48.2402759 C45.5996392,48.0876638 45.4928107,48.0266189 45.3401986,48.0571413 C45.0960191,48.102925 44.9586682,48.1181862 44.7755336,48.1181862 C44.455048,48.1181862 44.241391,47.889268 44.241391,47.5535212 L44.241391,38.4578365 C44.241391,38.3204855 44.1498237,38.2289182 44.0124728,38.2289182 L42.5931797,38.2289182 C42.4558287,38.2289182 42.3642614,38.3204855 42.3642614,38.4578365 L42.3642614,42.6241484 C41.7080292,42.166312 40.9754908,41.9679162 40.2276912,41.9679162 C37.8622027,41.9679162 36.183469,43.5856051 36.183469,45.8595262 C36.183469,48.1334474 37.8622027,49.7511363 40.2276912,49.7511363 C41.204409,49.7511363 41.9979923,49.4611732 42.7457918,48.8049409 C43.0357549,49.4001284 43.676726,49.7511363 44.5160929,49.7511363 C44.8518396,49.7511363 45.1723252,49.6900915 45.5538556,49.5680017 C45.6912065,49.5222181 45.7522514,49.4306508 45.7369902,49.2932998 Z M40.2429524,48.2250147 C38.9610103,48.2250147 38.0453373,47.2482969 38.0453373,45.8595262 C38.0453373,44.4707556 38.9610103,43.4940378 40.2429524,43.4940378 C41.4943721,43.4940378 42.3795227,44.4707556 42.3795227,45.8595262 C42.3795227,47.2482969 41.4943721,48.2250147 40.2429524,48.2250147 Z" id="Shape"></path>
                    <path d="M50.9410648,49.7511363 C52.5434925,49.7511363 53.9017407,49.0033367 54.4206221,47.8434843 C54.4969282,47.6908722 54.4053609,47.5840436 54.2374875,47.5840436 L52.7266271,47.5840436 C52.6045374,47.5840436 52.5282313,47.6298273 52.436664,47.7213946 C52.1619621,48.0418801 51.6125583,48.2555372 50.9868485,48.2555372 C49.8880409,48.2555372 49.0334128,47.6145661 48.7587109,46.6073258 L54.3900996,46.6073258 C54.5274506,46.6073258 54.6190179,46.546281 54.6495403,46.40893 C54.6648015,46.2105342 54.6800628,45.9968772 54.6800628,45.7984814 C54.6800628,43.4940378 53.1386799,41.9679162 50.8342363,41.9679162 C48.4687478,41.9679162 46.8815814,43.5245602 46.8815814,45.8595262 C46.8815814,48.1944923 48.5145315,49.7511363 50.9410648,49.7511363 Z M48.7129273,45.2948612 C48.8655395,44.1960537 49.7354288,43.4635153 50.88002,43.4635153 C52.0246112,43.4635153 52.7571495,44.2265761 52.787672,45.2948612 L48.7129273,45.2948612 Z" id="Shape"></path>
                    <path d="M58.5716728,49.7511363 C58.9074196,49.7511363 59.2279051,49.6900915 59.6094355,49.5680017 C59.7467865,49.5222181 59.8078313,49.4306508 59.7925701,49.2932998 L59.6704804,48.2402759 C59.6552192,48.0876638 59.5483907,48.0266189 59.3957785,48.0571413 C59.151599,48.102925 59.0142481,48.1181862 58.8311135,48.1181862 C58.510628,48.1181862 58.2969709,47.889268 58.2969709,47.5535212 L58.2969709,38.4578365 C58.2969709,38.3204855 58.2054036,38.2289182 58.0680527,38.2289182 L56.6640208,38.2289182 C56.5266699,38.2289182 56.4351026,38.3204855 56.4351026,38.4578365 L56.4351026,48.0571413 C56.4351026,49.0796428 57.2897307,49.7511363 58.5716728,49.7511363 Z" id="Path"></path>
                    <path d="M64.9966448,49.7511363 C66.5990724,49.7511363 67.9573207,49.0033367 68.476202,47.8434843 C68.5525081,47.6908722 68.4609408,47.5840436 68.2930674,47.5840436 L66.782207,47.5840436 C66.6601173,47.5840436 66.5838112,47.6298273 66.4922439,47.7213946 C66.217542,48.0418801 65.6681383,48.2555372 65.0424284,48.2555372 C63.9436209,48.2555372 63.0889928,47.6145661 62.8142909,46.6073258 L68.4456796,46.6073258 C68.5830305,46.6073258 68.6745978,46.546281 68.7051203,46.40893 C68.7203815,46.2105342 68.7356427,45.9968772 68.7356427,45.7984814 C68.7356427,43.4940378 67.1942599,41.9679162 64.8898163,41.9679162 C62.5243278,41.9679162 60.9371613,43.5245602 60.9371613,45.8595262 C60.9371613,48.1944923 62.5701114,49.7511363 64.9966448,49.7511363 Z M62.7685072,45.2948612 C62.9211194,44.1960537 63.7910087,43.4635153 64.9355999,43.4635153 C66.0801911,43.4635153 66.8127295,44.2265761 66.8432519,45.2948612 L62.7685072,45.2948612 Z" id="Shape"></path>
                    <path d="M75.4658389,41.9679162 C74.3212477,41.9679162 73.3750524,42.3189241 72.7340813,42.9293728 C72.4441182,42.3341853 71.8184083,41.9679162 70.9943027,41.9679162 C70.7043396,41.9679162 70.3533316,42.0136998 70.0633685,42.1205283 C69.9260175,42.166312 69.8802339,42.2578793 69.8802339,42.3952302 L69.8802339,43.4635153 C69.8802339,43.6161275 70.0023236,43.6619111 70.1549358,43.6466499 C70.2617643,43.6313887 70.4754213,43.6008663 70.5822498,43.6008663 C71.0248251,43.6008663 71.2232209,43.7840009 71.2232209,44.1655313 L71.2232209,49.2932998 C71.2232209,49.4306508 71.3147882,49.5222181 71.4521391,49.5222181 L72.856171,49.5222181 C72.993522,49.5222181 73.0850892,49.4306508 73.0850892,49.2932998 L73.0850892,45.4322122 C73.0850892,44.3181434 73.8939337,43.5703438 75.0690473,43.5703438 C76.1983773,43.5703438 76.9461769,44.3639271 76.9461769,45.5390407 L76.9461769,49.2932998 C76.9461769,49.4306508 77.0377442,49.5222181 77.1750951,49.5222181 L78.579127,49.5222181 C78.716478,49.5222181 78.8080452,49.4306508 78.8080452,49.2932998 L78.8080452,45.4322122 C78.8080452,43.3566868 77.4650582,41.9679162 75.4658389,41.9679162 Z" id="Path"></path>
                    <path d="M88.4378725,49.7511363 C90.0403002,49.7511363 91.3985484,49.0033367 91.9174298,47.8434843 C91.9937359,47.6908722 91.9021686,47.5840436 91.7342952,47.5840436 L90.2234348,47.5840436 C90.1013451,47.5840436 90.025039,47.6298273 89.9334717,47.7213946 C89.6587698,48.0418801 89.109366,48.2555372 88.4836562,48.2555372 C87.3848486,48.2555372 86.5302205,47.6145661 86.2555187,46.6073258 L91.8869074,46.6073258 C92.0242583,46.6073258 92.1158256,46.546281 92.146348,46.40893 C92.1616092,46.2105342 92.1768705,45.9968772 92.1768705,45.7984814 C92.1768705,43.4940378 90.6354876,41.9679162 88.331044,41.9679162 C85.9655556,41.9679162 84.3783891,43.5245602 84.3783891,45.8595262 C84.3783891,48.1944923 86.0113392,49.7511363 88.4378725,49.7511363 Z M86.209735,45.2948612 C86.3623472,44.1960537 87.2322365,43.4635153 88.3768277,43.4635153 C89.5214189,43.4635153 90.2539572,44.2265761 90.2844797,45.2948612 L86.209735,45.2948612 Z" id="Shape"></path>
                    <path d="M98.9070667,41.9679162 C97.7624755,41.9679162 96.8162801,42.3189241 96.1753091,42.9293728 C95.885346,42.3341853 95.2596361,41.9679162 94.4355304,41.9679162 C94.1455673,41.9679162 93.7945594,42.0136998 93.5045963,42.1205283 C93.3672453,42.166312 93.3214617,42.2578793 93.3214617,42.3952302 L93.3214617,43.4635153 C93.3214617,43.6161275 93.4435514,43.6619111 93.5961636,43.6466499 C93.7029921,43.6313887 93.9166491,43.6008663 94.0234776,43.6008663 C94.4660529,43.6008663 94.6644487,43.7840009 94.6644487,44.1655313 L94.6644487,49.2932998 C94.6644487,49.4306508 94.756016,49.5222181 94.8933669,49.5222181 L96.2973988,49.5222181 C96.4347497,49.5222181 96.526317,49.4306508 96.526317,49.2932998 L96.526317,45.4322122 C96.526317,44.3181434 97.3351615,43.5703438 98.5102751,43.5703438 C99.6396051,43.5703438 100.387405,44.3639271 100.387405,45.5390407 L100.387405,49.2932998 C100.387405,49.4306508 100.478972,49.5222181 100.616323,49.5222181 L102.020355,49.5222181 C102.157706,49.5222181 102.249273,49.4306508 102.249273,49.2932998 L102.249273,45.4322122 C102.249273,43.3566868 100.906286,41.9679162 98.9070667,41.9679162 Z" id="Path"></path>
                </g>
            </g>
        </g>
    </g>
</svg>