<?xml version="1.0" encoding="UTF-8"?>
<svg width="102px" height="100px" viewBox="0 0 102 100" version="1.1" xmlns="http://www.w3.org/2000/svg" xmlns:xlink="http://www.w3.org/1999/xlink">
    <title>Text Copy</title>
    <defs>
        <rect id="path-1" x="0" y="0" width="83" height="33.7155033" rx="16.8577516"></rect>
        <filter x="-5.4%" y="-13.3%" width="110.8%" height="126.7%" filterUnits="objectBoundingBox" id="filter-2">
            <feOffset dx="0" dy="0" in="SourceAlpha" result="shadowOffsetOuter1"></feOffset>
            <feGaussianBlur stdDeviation="1.5" in="shadowOffsetOuter1" result="shadowBlurOuter1"></feGaussianBlur>
            <feColorMatrix values="0 0 0 0 0   0 0 0 0 0.368045807   0 0 0 0 0.361608624  0 0 0 0.5 0" type="matrix" in="shadowBlurOuter1"></feColorMatrix>
        </filter>
    </defs>
    <g id="HTML5-banners" stroke="none" stroke-width="1" fill="none" fill-rule="evenodd">
        <g id="120x600px_1" transform="translate(-8.000000, -210.000000)">
            <g id="Text-Copy" transform="translate(8.000000, 210.000000)">
                <g id="Button-Copy" transform="translate(10.000000, 32.000000)">
                    <g id="Group" transform="translate(0.000000, 0.143449)">
                        <g id="Rectangle">
                            <use fill="black" fill-opacity="1" filter="url(#filter-2)" xlink:href="#path-1"></use>
                            <use fill="#F78E1E" fill-rule="evenodd" xlink:href="#path-1"></use>
                        </g>
                        <path d="M19.6413388,26.0883025 C19.9677049,26.0883025 20.1580851,25.8979223 20.1580851,25.5715562 L20.1580851,7.56702782 C20.1580851,7.24066174 19.9677049,7.05028153 19.6413388,7.05028153 L11.6997644,7.05028153 C11.4005955,7.05028153 11.2646096,7.21346457 11.2646096,7.51263347 L11.2646096,10.0419705 C11.2646096,10.3683366 11.482187,10.5043225 11.8085531,10.5043225 L15.9969177,10.5043225 L15.9969177,25.5715562 C15.9969177,25.8979223 16.2144951,26.0883025 16.5408611,26.0883025 L19.6413388,26.0883025 Z M31.8528694,26.5234572 C36.7211633,26.5234572 39.9848241,23.4773739 39.9848241,18.8810517 L39.9848241,14.2575323 C39.9848241,9.66121012 36.7211633,6.61512677 31.8528694,6.61512677 C26.9573783,6.61512677 23.7209148,9.66121012 23.7209148,14.2575323 L23.7209148,18.8810517 C23.7209148,23.4773739 26.9573783,26.5234572 31.8528694,26.5234572 Z M31.8528694,23.015022 C29.4051239,23.015022 27.7732935,21.3559944 27.7732935,18.8810517 L27.7732935,14.2575323 C27.7732935,11.7825896 29.4051239,10.1235621 31.8528694,10.1235621 C34.2734178,10.1235621 35.9052482,11.7825896 35.9052482,14.2575323 L35.9052482,18.8810517 C35.9052482,21.3559944 34.2734178,23.015022 31.8528694,23.015022 Z M49.0142854,17.4396015 C52.5227207,17.4396015 54.8616776,15.2910249 54.8616776,12.0273642 C54.8616776,8.76370342 52.5227207,6.61512677 49.0142854,6.61512677 C45.5058501,6.61512677 43.1668933,8.76370342 43.1668933,12.0273642 C43.1668933,15.2910249 45.5058501,17.4396015 49.0142854,17.4396015 Z M51.2716508,26.0883025 C51.5436225,26.0883025 51.7340027,26.006711 51.8971858,25.7891336 L64.5438711,7.64861934 C64.7886456,7.32225326 64.6254626,7.05028153 64.217505,7.05028153 L62.5856747,7.05028153 C62.3137029,7.05028153 62.0961255,7.13187305 61.9601397,7.34945044 L49.3134543,25.4899647 C49.0686798,25.8163308 49.2318628,26.0883025 49.6126232,26.0883025 L51.2716508,26.0883025 Z M49.0142854,14.8558701 C47.219272,14.8558701 46.0225964,13.7135889 46.0225964,12.0273642 C46.0225964,10.3411394 47.219272,9.19885818 49.0142854,9.19885818 C50.8092988,9.19885818 52.0059744,10.3411394 52.0059744,12.0273642 C52.0059744,13.7135889 50.8092988,14.8558701 49.0142854,14.8558701 Z M64.84304,26.5234572 C68.3242781,26.5234572 70.663235,24.3748806 70.663235,21.1112199 C70.663235,17.8475591 68.3242781,15.6989825 64.84304,15.6989825 C61.3346047,15.6989825 58.9956478,17.8475591 58.9956478,21.1112199 C58.9956478,24.3748806 61.3346047,26.5234572 64.84304,26.5234572 Z M64.84304,23.9397258 C63.0208294,23.9397258 61.8241538,22.7974446 61.8241538,21.1112199 C61.8241538,19.4249951 63.0208294,18.2827139 64.84304,18.2827139 C66.6380534,18.2827139 67.834729,19.4249951 67.834729,21.1112199 C67.834729,22.7974446 66.6380534,23.9397258 64.84304,23.9397258 Z" id="10%" fill="#FFFFFF" fill-rule="nonzero"></path>
                    </g>
                </g>
                <path d="M4.30344869,93 C4.60261759,93 4.7929978,92.8096198 4.7929978,92.4832537 L4.7929978,86.8262418 L10.4772069,92.7008311 C10.6675871,92.9184085 10.803573,93 11.0755447,93 L14.9375432,93 C15.3455008,93 15.535881,92.7280283 15.2639093,92.4016622 L9.41651717,86.4182842 L14.5023885,80.4349062 C14.8015574,80.0541458 14.6927687,79.8093712 14.2576139,79.8093712 L10.803573,79.8093712 C10.5587984,79.8093712 10.341221,79.8637655 10.178038,80.0813429 L4.7929978,86.4182842 L4.7929978,73.3908384 C4.7929978,73.0644724 4.60261759,72.8740921 4.30344869,72.8740921 L1.202971,72.8740921 C0.903802094,72.8740921 0.713421885,73.0644724 0.713421885,73.3908384 L0.713421885,92.4832537 C0.713421885,92.8096198 0.903802094,93 1.202971,93 L4.30344869,93 Z M24.1301876,93.4351548 C28.6177212,93.4351548 31.6094102,90.633846 31.6094102,86.4182842 C31.6094102,82.1755252 28.6177212,79.3742164 24.1301876,79.3742164 C19.6426541,79.3742164 16.6509651,82.1755252 16.6509651,86.4182842 C16.6509651,90.633846 19.6426541,93.4351548 24.1301876,93.4351548 Z M24.1301876,90.0627053 C21.981611,90.0627053 20.5401608,88.6212552 20.5401608,86.4182842 C20.5401608,84.2153132 21.981611,82.7466659 24.1301876,82.7466659 C26.2787643,82.7466659 27.7202145,84.2153132 27.7202145,86.4182842 C27.7202145,88.6212552 26.2787643,90.0627053 24.1301876,90.0627053 Z M39.1702242,93 C39.4965903,93 39.6869705,92.8096198 39.6869705,92.4832537 L39.6869705,86.6358616 C39.6869705,84.4056934 41.2100122,83.1002291 43.2769973,83.1002291 C43.7937436,83.1002291 44.3648842,83.1546235 44.7728418,83.236215 C45.0992079,83.2906093 45.3167852,83.1546235 45.3711796,82.8282574 L45.7247428,80.2173288 C45.75194,79.9181599 45.6431513,79.7005825 45.3167852,79.618991 C44.8272361,79.455808 44.0929125,79.3742164 43.4401803,79.3742164 C41.6451669,79.3742164 40.0949281,80.0269486 39.0070412,81.2236242 C38.4902949,80.0813429 37.2936193,79.3742164 35.7161833,79.3742164 C35.0906483,79.3742164 34.3835218,79.4830051 33.7579868,79.7005825 C33.4588179,79.8093712 33.3500292,79.9725542 33.3500292,80.2989203 L33.3500292,82.5290885 C33.3500292,82.8826517 33.5948038,82.9642432 33.948367,82.9642432 C34.1115501,82.9370461 34.3835218,82.8826517 34.5467048,82.8826517 C35.3082257,82.8826517 35.6073946,83.2090178 35.6073946,83.9433415 L35.6073946,92.4832537 C35.6073946,92.8096198 35.7977748,93 36.1241408,93 L39.1702242,93 Z M55.3253448,93.4351548 C56.1684572,93.4351548 57.4195271,93.2719717 58.507414,93 C58.8337801,92.8912113 58.9425688,92.7008311 58.9153716,92.4016622 L58.5618084,90.0627053 C58.507414,89.7635364 58.2898367,89.6003534 57.9634706,89.6547477 C57.3107384,89.8179308 56.5220204,89.8995223 55.9236826,89.8995223 C54.563824,89.8995223 53.6663173,89.0564099 53.6663173,87.6693541 L53.6663173,83.1002291 L57.9362734,83.1002291 C58.2354423,83.1002291 58.4530197,82.9098489 58.4530197,82.5834828 L58.4530197,80.3261175 C58.4530197,79.9997514 58.2354423,79.8093712 57.9362734,79.8093712 L53.6663173,79.8093712 L53.6663173,76.3553303 C53.6663173,76.0289642 53.4759371,75.838584 53.149571,75.838584 L50.1034876,75.838584 C49.7771216,75.838584 49.5867414,76.0289642 49.5867414,76.3553303 L49.5867414,79.8093712 L47.0846015,79.8093712 C46.7582354,79.8093712 46.5678552,79.9997514 46.5678552,80.3261175 L46.5678552,82.5834828 C46.5678552,82.9098489 46.7582354,83.1002291 47.0846015,83.1002291 L49.5867414,83.1002291 L49.5867414,87.80534 C49.5867414,91.2865781 51.7897124,93.4351548 55.3253448,93.4351548 Z M63.375708,77.3888228 C64.7355666,77.3888228 65.7962563,76.4097246 65.7962563,75.1314575 C65.7962563,73.8531904 64.7355666,72.9012893 63.375708,72.9012893 C62.0158493,72.9012893 60.9551596,73.8531904 60.9551596,75.1314575 C60.9551596,76.4097246 62.0158493,77.3888228 63.375708,77.3888228 Z M64.8987496,93 C65.2251157,93 65.4154959,92.8096198 65.4154959,92.4832537 L65.4154959,80.3261175 C65.4154959,79.9997514 65.2251157,79.8093712 64.8987496,79.8093712 L61.8526663,79.8093712 C61.5263002,79.8093712 61.33592,79.9997514 61.33592,80.3261175 L61.33592,92.4832537 C61.33592,92.8096198 61.5263002,93 61.8526663,93 L64.8987496,93 Z M73.6290421,93 C73.9554082,93 74.1457884,92.8096198 74.1457884,92.4832537 L74.1457884,85.7927492 C74.1457884,83.9977358 75.3696612,82.8554546 77.1646746,82.8554546 C78.9052936,82.8554546 80.0203777,84.0793273 80.0203777,85.9287351 L80.0203777,92.4832537 C80.0203777,92.8096198 80.2379551,93 80.5643212,93 L83.6104045,93 C83.9367706,93 84.1271508,92.8096198 84.1271508,92.4832537 L84.1271508,85.3847916 C84.1271508,81.7675676 81.7609968,79.3742164 78.1981671,79.3742164 C76.2127735,79.3742164 74.5265488,79.9997514 73.4386619,81.0876383 C72.8675213,80.0269486 71.6980428,79.3742164 70.1750012,79.3742164 C69.5494662,79.3742164 68.8423397,79.455808 68.2168047,79.7005825 C67.9176358,79.8093712 67.8088471,79.9725542 67.8088471,80.2989203 L67.8088471,82.5290885 C67.8088471,82.8826517 68.0536217,82.9642432 68.4071849,82.9642432 C68.570368,82.9370461 68.8423397,82.8826517 69.0055227,82.8826517 C69.7670436,82.8826517 70.0662125,83.2090178 70.0662125,83.9433415 L70.0662125,92.4832537 C70.0662125,92.8096198 70.2565927,93 70.5829588,93 L73.6290421,93 Z M94.5164708,99.772096 C98.8680184,99.772096 101.805313,97.1883646 101.805313,93.3263661 L101.805313,80.3261175 C101.805313,79.9997514 101.587736,79.8093712 101.288567,79.8093712 L98.2968778,79.8093712 C97.9705117,79.8093712 97.7801315,79.9997514 97.7801315,80.3261175 L97.7801315,80.6252864 C96.6922446,79.782174 95.3595832,79.3742164 93.918133,79.3742164 C89.7297684,79.3742164 86.7652766,82.2843139 86.7652766,86.3638898 C86.7652766,90.4706629 89.7297684,93.3807604 93.918133,93.3807604 C95.2779916,93.3807604 96.6106531,93.0271972 97.69854,92.211282 L97.69854,93.3535632 C97.69854,95.2301682 96.4474701,96.4540409 94.4892736,96.4540409 C92.9118376,96.4540409 91.715162,95.7741116 91.3615988,94.6862247 C91.2256129,94.414253 91.0624299,94.2782671 90.763261,94.2782671 L87.7171776,94.2782671 C87.3636144,94.2782671 87.146037,94.4686473 87.2276285,94.7950134 C87.7715719,97.8138996 90.6000779,99.772096 94.5164708,99.772096 Z M94.2716962,90.171494 C92.2319083,90.171494 90.763261,88.6212552 90.763261,86.3638898 C90.763261,84.1337217 92.2319083,82.5562857 94.2716962,82.5562857 C96.284287,82.5562857 97.69854,84.1337217 97.69854,86.3638898 C97.69854,88.6212552 96.284287,90.171494 94.2716962,90.171494 Z" id="korting" fill="#FFFFFF" fill-rule="nonzero"></path>
                <path d="M37.9332635,20 C38.2324324,20 38.4500097,19.8096198 38.4500097,19.4832537 L38.4500097,4.57920303 L44.4061906,4.57920303 C44.7325567,4.57920303 44.9229369,4.38882283 44.9229369,4.06245675 L44.9229369,1.47872534 C44.9229369,1.15235926 44.7325567,0.961979056 44.4061906,0.961979056 L28.2238728,0.961979056 C27.9247039,0.961979056 27.7071265,1.15235926 27.7071265,1.47872534 L27.7071265,4.06245675 C27.7071265,4.38882283 27.9247039,4.57920303 28.2238728,4.57920303 L34.1800536,4.57920303 L34.1800536,19.4832537 C34.1800536,19.8096198 34.397631,20 34.6967999,20 L37.9332635,20 Z M54.1971728,20.4351548 C58.6847063,20.4351548 61.6763953,17.633846 61.6763953,13.4182842 C61.6763953,9.17552523 58.6847063,6.37421644 54.1971728,6.37421644 C49.7096393,6.37421644 46.7179503,9.17552523 46.7179503,13.4182842 C46.7179503,17.633846 49.7096393,20.4351548 54.1971728,20.4351548 Z M54.1971728,17.0627053 C52.0485961,17.0627053 50.607146,15.6212552 50.607146,13.4182842 C50.607146,11.2153132 52.0485961,9.74666586 54.1971728,9.74666586 C56.3457494,9.74666586 57.7871996,11.2153132 57.7871996,13.4182842 C57.7871996,15.6212552 56.3457494,17.0627053 54.1971728,17.0627053 Z M71.6305605,20.4351548 C72.4736729,20.4351548 73.7247428,20.2719717 74.8126297,20 C75.1389958,19.8912113 75.2477845,19.7008311 75.2205873,19.4016622 L74.8670241,17.0627053 C74.8126297,16.7635364 74.5950524,16.6003534 74.2686863,16.6547477 C73.6159541,16.8179308 72.8272361,16.8995223 72.2288983,16.8995223 C70.8690397,16.8995223 69.971533,16.0564099 69.971533,14.6693541 L69.971533,10.1002291 L74.2414891,10.1002291 C74.540658,10.1002291 74.7582354,9.9098489 74.7582354,9.58348283 L74.7582354,7.32611749 C74.7582354,6.99975141 74.540658,6.8093712 74.2414891,6.8093712 L69.971533,6.8093712 L69.971533,3.35533026 C69.971533,3.02896419 69.7811528,2.83858398 69.4547867,2.83858398 L66.4087034,2.83858398 C66.0823373,2.83858398 65.8919571,3.02896419 65.8919571,3.35533026 L65.8919571,6.8093712 L63.3898172,6.8093712 C63.0634511,6.8093712 62.8730709,6.99975141 62.8730709,7.32611749 L62.8730709,9.58348283 C62.8730709,9.9098489 63.0634511,10.1002291 63.3898172,10.1002291 L65.8919571,10.1002291 L65.8919571,14.80534 C65.8919571,18.2865781 68.0949281,20.4351548 71.6305605,20.4351548 Z" id="Tot" fill="#FFFFFF" fill-rule="nonzero"></path>
            </g>
        </g>
    </g>
</svg>