<?xml version="1.0" encoding="UTF-8"?>
<svg width="250px" height="184px" viewBox="0 0 250 184" version="1.1" xmlns="http://www.w3.org/2000/svg" xmlns:xlink="http://www.w3.org/1999/xlink">
    <title>Text</title>
    <defs>
        <rect id="path-1" x="0" y="0" width="162.220003" height="51.8700022" rx="25.9350011"></rect>
        <filter x="-4.6%" y="-14.5%" width="109.2%" height="128.9%" filterUnits="objectBoundingBox" id="filter-2">
            <feOffset dx="0" dy="0" in="SourceAlpha" result="shadowOffsetOuter1"></feOffset>
            <feGaussianBlur stdDeviation="2.5" in="shadowOffsetOuter1" result="shadowBlurOuter1"></feGaussianBlur>
            <feColorMatrix values="0 0 0 0 0   0 0 0 0 0.368045807   0 0 0 0 0.361608624  0 0 0 0.5 0" type="matrix" in="shadowBlurOuter1"></feColorMatrix>
        </filter>
    </defs>
    <g id="HTML5-banners" stroke="none" stroke-width="1" fill="none" fill-rule="evenodd">
        <g id="300x600px_2" transform="translate(-24.000000, -337.000000)">
            <g id="Text" transform="translate(24.000000, 342.000000)">
                <g id="Button-Copy" transform="translate(45.000000, 0.000000)">
                    <g id="Group" transform="translate(0.000000, 0.566415)">
                        <g id="Rectangle">
                            <use fill="black" fill-opacity="1" filter="url(#filter-2)" xlink:href="#path-1"></use>
                            <use fill="#F78E1E" fill-rule="evenodd" xlink:href="#path-1"></use>
                        </g>
                        <path d="M34.3166974,36.9516698 C34.7769572,36.9516698 35.0698499,36.6587771 35.0698499,36.1985173 L35.0698499,29.8385634 L42.1829562,29.8385634 C42.643216,29.8385634 42.9361086,29.5456708 42.9361086,29.0435692 L42.9361086,25.8217504 C42.9361086,25.3196488 42.643216,25.0267562 42.1829562,25.0267562 L35.0698499,25.0267562 L35.0698499,18.6668023 C35.0698499,18.2065425 34.7769572,17.9136499 34.3166974,17.9136499 L30.5509352,17.9136499 C30.0906754,17.9136499 29.7977828,18.2065425 29.7977828,18.6668023 L29.7977828,25.0267562 L22.6846765,25.0267562 C22.2244166,25.0267562 21.8896822,25.3196488 21.8896822,25.8217504 L21.8896822,29.0435692 C21.8896822,29.5456708 22.2244166,29.8385634 22.6846765,29.8385634 L29.7977828,29.8385634 L29.7977828,36.1985173 C29.7977828,36.6587771 30.0906754,36.9516698 30.5509352,36.9516698 L34.3166974,36.9516698 Z M63.4804334,41.13585 C63.8988514,41.13585 64.2335858,40.9684828 64.3591112,40.5082229 L70.6772233,22.1396719 L77.079019,40.5082229 C77.2045444,40.9684828 77.5392789,41.13585 77.9576969,41.13585 L82.9368713,41.13585 C83.3552893,41.13585 83.6900237,40.9684828 83.857391,40.5082229 L93.2299546,12.7252664 C93.35548,12.2231648 93.146271,11.8465886 92.5604858,11.8465886 L87.2465769,11.8465886 C86.8281589,11.8465886 86.4934245,12.0139558 86.3678991,12.4742156 L80.258996,31.4703937 L73.6061495,12.6415828 C73.4387823,12.181323 73.1458896,12.0139558 72.7274716,12.0139558 L68.6688168,12.0139558 C68.208557,12.0139558 67.9156644,12.181323 67.7482972,12.6415828 L61.1372925,31.4285519 L55.0283894,12.4742156 C54.902864,12.0139558 54.5681296,11.8465886 54.1497116,11.8465886 L48.8776445,11.8465886 C48.2918593,11.8465886 48.0408085,12.2231648 48.2081757,12.7252664 L57.5807393,40.5082229 C57.7062647,40.9684828 58.0409991,41.13585 58.4594172,41.13585 L63.4804334,41.13585 Z M111.054562,41.13585 C111.556664,41.13585 111.891398,40.8429573 111.891398,40.3408557 L111.891398,36.3658845 C111.891398,35.8637829 111.556664,35.5708903 111.054562,35.5708903 L106.912224,35.5708903 L106.912224,17.4115482 L111.054562,17.4115482 C111.556664,17.4115482 111.891398,17.1186556 111.891398,16.616554 L111.891398,12.6415828 C111.891398,12.1394812 111.556664,11.8465886 111.054562,11.8465886 L96.2007225,11.8465886 C95.6986209,11.8465886 95.4057283,12.1394812 95.4057283,12.6415828 L95.4057283,16.616554 C95.4057283,17.1186556 95.6986209,17.4115482 96.2007225,17.4115482 L100.343061,17.4115482 L100.343061,35.5708903 L96.2007225,35.5708903 C95.6986209,35.5708903 95.4057283,35.8637829 95.4057283,36.3658845 L95.4057283,40.3408557 C95.4057283,40.8429573 95.6986209,41.13585 96.2007225,41.13585 L111.054562,41.13585 Z M121.598696,41.13585 C122.100798,41.13585 122.393691,40.8429573 122.393691,40.3408557 L122.393691,23.1857169 L137.456739,40.7174319 C137.70779,41.0103246 138.042525,41.13585 138.419101,41.13585 L142.310388,41.13585 C142.770648,41.13585 143.105383,40.8429573 143.105383,40.3408557 L143.105383,12.6415828 C143.105383,12.1394812 142.770648,11.8465886 142.310388,11.8465886 L137.331214,11.8465886 C136.870954,11.8465886 136.53622,12.1394812 136.53622,12.6415828 L136.53622,30.2151396 L121.347646,12.2650066 C121.096595,11.972114 120.803702,11.8465886 120.385284,11.8465886 L116.661364,11.8465886 C116.159262,11.8465886 115.824528,12.1394812 115.824528,12.6415828 L115.824528,40.3408557 C115.824528,40.8429573 116.159262,41.13585 116.661364,41.13585 L121.598696,41.13585 Z" id="+WIN" fill="#FFFFFF" fill-rule="nonzero"></path>
                    </g>
                </g>
                <path d="M57.834,98 C58.29,98 58.556,97.734 58.556,97.278 L58.556,72.122 C58.556,71.666 58.29,71.4 57.834,71.4 L46.738,71.4 C46.32,71.4 46.13,71.628 46.13,72.046 L46.13,75.58 C46.13,76.036 46.434,76.226 46.89,76.226 L52.742,76.226 L52.742,97.278 C52.742,97.734 53.046,98 53.502,98 L57.834,98 Z M85.042,98 C85.422,98 85.688,97.81 85.84,97.468 L93.782,80.406 C94.01,79.912 93.744,79.57 93.212,79.57 L88.728,79.57 C88.348,79.57 88.082,79.76 87.93,80.102 L82.914,91.122 L77.974,80.102 C77.822,79.76 77.556,79.57 77.138,79.57 L72.616,79.57 C72.084,79.57 71.856,79.912 72.046,80.406 L79.988,97.468 C80.14,97.81 80.406,98 80.786,98 L85.042,98 Z M117.076,98.608 C117.988,98.608 118.9,98.456 119.926,98.152 C120.382,98.038 120.572,97.772 120.534,97.354 L120.154,94.2 C120.116,93.706 119.812,93.554 119.356,93.592 C118.862,93.706 118.558,93.706 118.178,93.706 C117.38,93.706 116.924,93.212 116.924,92.224 L116.924,80.292 C116.924,79.836 116.658,79.57 116.202,79.57 L112.022,79.57 C111.566,79.57 111.3,79.836 111.3,80.292 L111.3,80.71 C109.78,79.532 107.918,78.962 105.904,78.962 C100.014,78.962 95.91,82.99 95.91,88.804 C95.91,94.58 100.014,98.608 105.904,98.608 C108.374,98.608 110.502,97.848 112.288,96.29 C113.086,97.734 114.758,98.608 117.076,98.608 Z M106.398,94.162 C103.51,94.162 101.496,91.958 101.496,88.804 C101.496,85.612 103.51,83.408 106.398,83.408 C109.248,83.408 111.186,85.612 111.186,88.804 C111.186,91.958 109.248,94.162 106.398,94.162 Z M130.566,98 C131.022,98 131.288,97.734 131.288,97.278 L131.288,87.93 C131.288,85.422 132.998,83.826 135.506,83.826 C137.938,83.826 139.496,85.536 139.496,88.12 L139.496,97.278 C139.496,97.734 139.8,98 140.256,98 L144.512,98 C144.968,98 145.234,97.734 145.234,97.278 L145.234,87.36 C145.234,82.306 141.928,78.962 136.95,78.962 C134.176,78.962 131.82,79.836 130.3,81.356 C129.502,79.874 127.868,78.962 125.74,78.962 C124.866,78.962 123.878,79.076 123.004,79.418 C122.586,79.57 122.434,79.798 122.434,80.254 L122.434,83.37 C122.434,83.864 122.776,83.978 123.27,83.978 C123.498,83.94 123.878,83.864 124.106,83.864 C125.17,83.864 125.588,84.32 125.588,85.346 L125.588,97.278 C125.588,97.734 125.854,98 126.31,98 L130.566,98 Z M179.548,98.608 C180.498,98.608 181.448,98.456 182.474,98.152 C182.93,98.038 183.12,97.772 183.044,97.354 L182.702,94.2 C182.664,93.706 182.36,93.554 181.866,93.592 C181.41,93.706 181.106,93.706 180.726,93.706 C179.928,93.706 179.472,93.212 179.472,92.262 L179.472,70.602 C179.472,70.146 179.206,69.88 178.75,69.88 L174.456,69.88 C174,69.88 173.734,70.146 173.734,70.602 L173.734,80.596 C172.176,79.456 170.39,78.962 168.452,78.962 C162.562,78.962 158.458,82.99 158.458,88.804 C158.458,94.58 162.562,98.608 168.452,98.608 C170.998,98.608 173.088,97.81 174.76,96.214 C175.558,97.734 177.306,98.608 179.548,98.608 Z M168.946,94.162 C166.058,94.162 164.044,91.958 164.044,88.804 C164.044,85.612 166.058,83.408 168.946,83.408 C171.796,83.408 173.734,85.612 173.734,88.804 C173.734,91.958 171.796,94.162 168.946,94.162 Z M195.964,98.608 C200.258,98.608 203.678,96.67 204.97,93.516 C205.16,93.06 204.894,92.756 204.362,92.756 L200.106,92.756 C199.726,92.756 199.498,92.908 199.194,93.136 C198.548,93.858 197.408,94.276 196.078,94.276 C193.57,94.276 191.67,92.87 191.062,90.59 L204.704,90.59 C205.122,90.59 205.426,90.4 205.502,89.944 C205.502,89.526 205.54,89.07 205.54,88.652 C205.54,82.876 201.778,78.962 195.622,78.962 C189.58,78.962 185.514,82.876 185.514,88.804 C185.514,94.694 189.732,98.608 195.964,98.608 Z M200.106,87.208 L191.024,87.208 C191.366,84.814 193.266,83.18 195.774,83.18 C198.32,83.18 199.992,84.852 200.106,87.208 Z M11.93,138 C12.386,138 12.652,137.734 12.652,137.278 L12.652,112.122 C12.652,111.666 12.386,111.4 11.93,111.4 L0.834,111.4 C0.416,111.4 0.226,111.628 0.226,112.046 L0.226,115.58 C0.226,116.036 0.53,116.226 0.986,116.226 L6.838,116.226 L6.838,137.278 C6.838,137.734 7.142,138 7.598,138 L11.93,138 Z M28.992,138.608 C35.794,138.608 40.354,134.352 40.354,127.93 L40.354,121.47 C40.354,115.048 35.794,110.792 28.992,110.792 C22.152,110.792 17.63,115.048 17.63,121.47 L17.63,127.93 C17.63,134.352 22.152,138.608 28.992,138.608 Z M28.992,133.706 C25.572,133.706 23.292,131.388 23.292,127.93 L23.292,121.47 C23.292,118.012 25.572,115.694 28.992,115.694 C32.374,115.694 34.654,118.012 34.654,121.47 L34.654,127.93 C34.654,131.388 32.374,133.706 28.992,133.706 Z M55.326,138.608 C62.128,138.608 66.688,134.352 66.688,127.93 L66.688,121.47 C66.688,115.048 62.128,110.792 55.326,110.792 C48.486,110.792 43.964,115.048 43.964,121.47 L43.964,127.93 C43.964,134.352 48.486,138.608 55.326,138.608 Z M55.326,133.706 C51.906,133.706 49.626,131.388 49.626,127.93 L49.626,121.47 C49.626,118.012 51.906,115.694 55.326,115.694 C58.708,115.694 60.988,118.012 60.988,121.47 L60.988,127.93 C60.988,131.388 58.708,133.706 55.326,133.706 Z M90.096,138.608 C95.15,138.608 98.874,135.91 99.672,131.73 C99.748,131.274 99.482,130.97 99.026,130.97 L94.96,130.97 C94.542,130.97 94.352,131.198 94.162,131.578 C93.63,133.098 92.072,134.01 90.096,134.01 C87.094,134.01 85.118,131.958 85.118,128.804 C85.118,125.65 87.094,123.56 90.096,123.56 C92.072,123.56 93.63,124.51 94.162,125.992 C94.352,126.41 94.542,126.6 94.96,126.6 L99.026,126.6 C99.482,126.6 99.748,126.334 99.672,125.84 C98.874,121.66 95.15,118.962 90.096,118.962 C83.826,118.962 79.646,122.876 79.646,128.804 C79.646,134.694 83.826,138.608 90.096,138.608 Z M123.802,138.608 C124.714,138.608 125.626,138.456 126.652,138.152 C127.108,138.038 127.298,137.772 127.26,137.354 L126.88,134.2 C126.842,133.706 126.538,133.554 126.082,133.592 C125.588,133.706 125.284,133.706 124.904,133.706 C124.106,133.706 123.65,133.212 123.65,132.224 L123.65,120.292 C123.65,119.836 123.384,119.57 122.928,119.57 L118.748,119.57 C118.292,119.57 118.026,119.836 118.026,120.292 L118.026,120.71 C116.506,119.532 114.644,118.962 112.63,118.962 C106.74,118.962 102.636,122.99 102.636,128.804 C102.636,134.58 106.74,138.608 112.63,138.608 C115.1,138.608 117.228,137.848 119.014,136.29 C119.812,137.734 121.484,138.608 123.802,138.608 Z M113.124,134.162 C110.236,134.162 108.222,131.958 108.222,128.804 C108.222,125.612 110.236,123.408 113.124,123.408 C115.974,123.408 117.912,125.612 117.912,128.804 C117.912,131.958 115.974,134.162 113.124,134.162 Z M150.782,138.608 C151.732,138.608 152.682,138.456 153.708,138.152 C154.164,138.038 154.354,137.772 154.278,137.354 L153.936,134.2 C153.898,133.706 153.594,133.554 153.1,133.592 C152.644,133.706 152.34,133.706 151.96,133.706 C151.162,133.706 150.706,133.212 150.706,132.262 L150.706,110.602 C150.706,110.146 150.44,109.88 149.984,109.88 L145.69,109.88 C145.234,109.88 144.968,110.146 144.968,110.602 L144.968,120.596 C143.41,119.456 141.624,118.962 139.686,118.962 C133.796,118.962 129.692,122.99 129.692,128.804 C129.692,134.58 133.796,138.608 139.686,138.608 C142.232,138.608 144.322,137.81 145.994,136.214 C146.792,137.734 148.54,138.608 150.782,138.608 Z M140.18,134.162 C137.292,134.162 135.278,131.958 135.278,128.804 C135.278,125.612 137.292,123.408 140.18,123.408 C143.03,123.408 144.968,125.612 144.968,128.804 C144.968,131.958 143.03,134.162 140.18,134.162 Z M167.198,138.608 C171.492,138.608 174.912,136.67 176.204,133.516 C176.394,133.06 176.128,132.756 175.596,132.756 L171.34,132.756 C170.96,132.756 170.732,132.908 170.428,133.136 C169.782,133.858 168.642,134.276 167.312,134.276 C164.804,134.276 162.904,132.87 162.296,130.59 L175.938,130.59 C176.356,130.59 176.66,130.4 176.736,129.944 C176.736,129.526 176.774,129.07 176.774,128.652 C176.774,122.876 173.012,118.962 166.856,118.962 C160.814,118.962 156.748,122.876 156.748,128.804 C156.748,134.694 160.966,138.608 167.198,138.608 Z M171.34,127.208 L162.258,127.208 C162.6,124.814 164.5,123.18 167.008,123.18 C169.554,123.18 171.226,124.852 171.34,127.208 Z M200.942,138.608 C201.854,138.608 202.766,138.456 203.792,138.152 C204.248,138.038 204.438,137.772 204.4,137.354 L204.02,134.2 C203.982,133.706 203.678,133.554 203.222,133.592 C202.728,133.706 202.424,133.706 202.044,133.706 C201.246,133.706 200.79,133.212 200.79,132.224 L200.79,120.292 C200.79,119.836 200.524,119.57 200.068,119.57 L195.888,119.57 C195.432,119.57 195.166,119.836 195.166,120.292 L195.166,120.71 C193.646,119.532 191.784,118.962 189.77,118.962 C183.88,118.962 179.776,122.99 179.776,128.804 C179.776,134.58 183.88,138.608 189.77,138.608 C192.24,138.608 194.368,137.848 196.154,136.29 C196.952,137.734 198.624,138.608 200.942,138.608 Z M190.264,134.162 C187.376,134.162 185.362,131.958 185.362,128.804 C185.362,125.612 187.376,123.408 190.264,123.408 C193.114,123.408 195.052,125.612 195.052,128.804 C195.052,131.958 193.114,134.162 190.264,134.162 Z M227.162,138.608 C228.074,138.608 228.986,138.456 230.05,138.152 C230.468,138.038 230.658,137.772 230.62,137.354 L230.278,134.2 C230.202,133.706 229.898,133.554 229.442,133.592 C228.948,133.706 228.644,133.706 228.264,133.706 C227.466,133.706 227.01,133.212 227.01,132.224 L227.01,120.292 C227.01,119.836 226.706,119.57 226.288,119.57 L221.994,119.57 C221.576,119.57 221.272,119.836 221.272,120.292 L221.272,129.64 C221.272,132.148 219.638,133.744 217.092,133.744 C214.66,133.744 213.102,132.034 213.102,129.45 L213.102,120.292 C213.102,119.836 212.836,119.57 212.38,119.57 L208.124,119.57 C207.668,119.57 207.402,119.836 207.402,120.292 L207.402,130.21 C207.402,135.264 210.67,138.608 215.61,138.608 C218.308,138.608 220.55,137.81 222.07,136.404 C222.944,137.772 224.73,138.608 227.162,138.608 Z M248.708,130.666 C249.126,130.666 249.43,130.4 249.43,129.982 L249.43,126.22 C249.43,125.764 249.126,125.498 248.708,125.498 L235.826,125.498 C235.408,125.498 235.142,125.764 235.142,126.22 L235.142,129.982 C235.142,130.4 235.408,130.666 235.826,130.666 L248.708,130.666 Z M52.001,178 C52.419,178 52.685,177.734 52.685,177.278 L52.685,169.374 L60.627,177.582 C60.893,177.886 61.083,178 61.463,178 L66.859,178 C67.429,178 67.695,177.62 67.315,177.164 L59.145,168.804 L66.251,160.444 C66.669,159.912 66.517,159.57 65.909,159.57 L61.083,159.57 C60.741,159.57 60.437,159.646 60.209,159.95 L52.685,168.804 L52.685,150.602 C52.685,150.146 52.419,149.88 52.001,149.88 L47.669,149.88 C47.251,149.88 46.985,150.146 46.985,150.602 L46.985,177.278 C46.985,177.734 47.251,178 47.669,178 L52.001,178 Z M90.419,178.608 C91.331,178.608 92.243,178.456 93.269,178.152 C93.725,178.038 93.915,177.772 93.877,177.354 L93.497,174.2 C93.459,173.706 93.155,173.554 92.699,173.592 C92.205,173.706 91.901,173.706 91.521,173.706 C90.723,173.706 90.267,173.212 90.267,172.224 L90.267,160.292 C90.267,159.836 90.001,159.57 89.545,159.57 L85.365,159.57 C84.909,159.57 84.643,159.836 84.643,160.292 L84.643,160.71 C83.123,159.532 81.261,158.962 79.247,158.962 C73.357,158.962 69.253,162.99 69.253,168.804 C69.253,174.58 73.357,178.608 79.247,178.608 C81.717,178.608 83.845,177.848 85.631,176.29 C86.429,177.734 88.101,178.608 90.419,178.608 Z M79.741,174.162 C76.853,174.162 74.839,171.958 74.839,168.804 C74.839,165.612 76.853,163.408 79.741,163.408 C82.591,163.408 84.529,165.612 84.529,168.804 C84.529,171.958 82.591,174.162 79.741,174.162 Z M117.475,178.608 C118.387,178.608 119.299,178.456 120.325,178.152 C120.781,178.038 120.971,177.772 120.933,177.354 L120.553,174.2 C120.515,173.706 120.211,173.554 119.755,173.592 C119.261,173.706 118.957,173.706 118.577,173.706 C117.779,173.706 117.323,173.212 117.323,172.224 L117.323,160.292 C117.323,159.836 117.057,159.57 116.601,159.57 L112.421,159.57 C111.965,159.57 111.699,159.836 111.699,160.292 L111.699,160.71 C110.179,159.532 108.317,158.962 106.303,158.962 C100.413,158.962 96.309,162.99 96.309,168.804 C96.309,174.58 100.413,178.608 106.303,178.608 C108.773,178.608 110.901,177.848 112.687,176.29 C113.485,177.734 115.157,178.608 117.475,178.608 Z M106.797,174.162 C103.909,174.162 101.895,171.958 101.895,168.804 C101.895,165.612 103.909,163.408 106.797,163.408 C109.647,163.408 111.585,165.612 111.585,168.804 C111.585,171.958 109.647,174.162 106.797,174.162 Z M130.965,178 C131.421,178 131.687,177.734 131.687,177.278 L131.687,169.108 C131.687,165.992 133.815,164.168 136.703,164.168 C137.425,164.168 138.223,164.244 138.793,164.358 C139.249,164.434 139.553,164.244 139.629,163.788 L140.123,160.14 C140.161,159.722 140.009,159.418 139.553,159.304 C138.869,159.076 137.843,158.962 136.931,158.962 C134.423,158.962 132.257,159.874 130.737,161.546 C130.015,159.95 128.343,158.962 126.139,158.962 C125.265,158.962 124.277,159.114 123.403,159.418 C122.985,159.57 122.833,159.798 122.833,160.254 L122.833,163.37 C122.833,163.864 123.175,163.978 123.669,163.978 C123.897,163.94 124.277,163.864 124.505,163.864 C125.569,163.864 125.987,164.32 125.987,165.346 L125.987,177.278 C125.987,177.734 126.253,178 126.709,178 L130.965,178 Z M153.537,178.608 C154.715,178.608 156.463,178.38 157.983,178 C158.439,177.848 158.591,177.582 158.553,177.164 L158.059,173.896 C157.983,173.478 157.679,173.25 157.223,173.326 C156.311,173.554 155.209,173.668 154.373,173.668 C152.473,173.668 151.219,172.49 151.219,170.552 L151.219,164.168 L157.185,164.168 C157.603,164.168 157.907,163.902 157.907,163.446 L157.907,160.292 C157.907,159.836 157.603,159.57 157.185,159.57 L151.219,159.57 L151.219,154.744 C151.219,154.288 150.953,154.022 150.497,154.022 L146.241,154.022 C145.785,154.022 145.519,154.288 145.519,154.744 L145.519,159.57 L142.023,159.57 C141.567,159.57 141.301,159.836 141.301,160.292 L141.301,163.446 C141.301,163.902 141.567,164.168 142.023,164.168 L145.519,164.168 L145.519,170.742 C145.519,175.606 148.597,178.608 153.537,178.608 Z M171.511,178.608 C175.805,178.608 179.225,176.67 180.517,173.516 C180.707,173.06 180.441,172.756 179.909,172.756 L175.653,172.756 C175.273,172.756 175.045,172.908 174.741,173.136 C174.095,173.858 172.955,174.276 171.625,174.276 C169.117,174.276 167.217,172.87 166.609,170.59 L180.251,170.59 C180.669,170.59 180.973,170.4 181.049,169.944 C181.049,169.526 181.087,169.07 181.087,168.652 C181.087,162.876 177.325,158.962 171.169,158.962 C165.127,158.962 161.061,162.876 161.061,168.804 C161.061,174.694 165.279,178.608 171.511,178.608 Z M175.653,167.208 L166.571,167.208 C166.913,164.814 168.813,163.18 171.321,163.18 C173.867,163.18 175.539,164.852 175.653,167.208 Z M191.689,178 C192.145,178 192.411,177.734 192.411,177.278 L192.411,167.93 C192.411,165.422 194.121,163.826 196.629,163.826 C199.061,163.826 200.619,165.536 200.619,168.12 L200.619,177.278 C200.619,177.734 200.923,178 201.379,178 L205.635,178 C206.091,178 206.357,177.734 206.357,177.278 L206.357,167.36 C206.357,162.306 203.051,158.962 198.073,158.962 C195.299,158.962 192.943,159.836 191.423,161.356 C190.625,159.874 188.991,158.962 186.863,158.962 C185.989,158.962 185.001,159.076 184.127,159.418 C183.709,159.57 183.557,159.798 183.557,160.254 L183.557,163.37 C183.557,163.864 183.899,163.978 184.393,163.978 C184.621,163.94 185.001,163.864 185.229,163.864 C186.293,163.864 186.711,164.32 186.711,165.346 L186.711,177.278 C186.711,177.734 186.977,178 187.433,178 L191.689,178 Z" id="1vande100cadeau-kaarten" fill="#FFFFFF" fill-rule="nonzero"></path>
            </g>
        </g>
    </g>
</svg>