<?xml version="1.0" encoding="UTF-8"?>
<svg width="114px" height="91px" viewBox="0 0 114 91" version="1.1" xmlns="http://www.w3.org/2000/svg" xmlns:xlink="http://www.w3.org/1999/xlink">
    <title>Text Copy</title>
    <defs>
        <rect id="path-1" x="0" y="0" width="109.61" height="23.2525712" rx="11.6262856"></rect>
        <filter x="-2.7%" y="-12.9%" width="105.5%" height="125.8%" filterUnits="objectBoundingBox" id="filter-2">
            <feOffset dx="0" dy="0" in="SourceAlpha" result="shadowOffsetOuter1"></feOffset>
            <feGaussianBlur stdDeviation="1" in="shadowOffsetOuter1" result="shadowBlurOuter1"></feGaussianBlur>
            <feColorMatrix values="0 0 0 0 0   0 0 0 0 0.368045807   0 0 0 0 0.361608624  0 0 0 0.5 0" type="matrix" in="shadowBlurOuter1"></feColorMatrix>
        </filter>
    </defs>
    <g id="Spotlight-3---Okt_Dec----HTML-5-banners" stroke="none" stroke-width="1" fill="none" fill-rule="evenodd">
        <g id="120x600px_1" transform="translate(-3.000000, -211.000000)">
            <g id="Text-Copy" transform="translate(5.000000, 213.000000)">
                <g id="Group">
                    <g id="Rectangle">
                        <use fill="black" fill-opacity="1" filter="url(#filter-2)" xlink:href="#path-1"></use>
                        <use fill="#F78E1E" fill-rule="evenodd" xlink:href="#path-1"></use>
                    </g>
                    <g id="B" transform="translate(9.082399, 4.630834)" fill="#FFFFFF" fill-rule="nonzero">
                        <path d="M0.375141483,13.4300651 L6.80881792,13.4300651 C9.77243563,13.4300651 11.7044143,12.0420416 11.7044143,9.90373515 C11.7044143,8.25311263 10.7102893,7.01514573 9.07842389,6.6775184 L9.07842389,6.6024901 C10.372662,6.13356325 11.0666737,5.0081388 11.0666737,3.69514361 C11.0666737,1.65062253 9.30350878,0.300113186 6.56497595,0.300113186 L0.375141483,0.300113186 C0.150056593,0.300113186 0,0.431412705 0,0.656497595 L0,13.0736807 C0,13.2987656 0.150056593,13.4300651 0.375141483,13.4300651 Z M2.94486064,5.75842176 L2.94486064,2.60723331 L6.13356325,2.60723331 C7.54034381,2.60723331 8.2718697,3.20745968 8.2718697,4.05152802 C8.2718697,5.04565295 7.37153014,5.75842176 5.98350665,5.75842176 L2.94486064,5.75842176 Z M2.94486064,11.1041879 L2.94486064,7.95299944 L6.75254669,7.95299944 C7.99051359,7.95299944 8.81582485,8.57198289 8.81582485,9.52859367 C8.81582485,10.4852044 7.91548529,11.1041879 6.54621888,11.1041879 L2.94486064,11.1041879 Z" id="Shape"></path>
                        <path d="M23.7652129,2.40090549 L23.7652129,0.656497595 C23.7652129,0.431412705 23.6339134,0.300113186 23.4088285,0.300113186 L14.0865627,0.300113186 C13.8614778,0.300113186 13.7114212,0.431412705 13.7114212,0.656497595 L13.7114212,13.0736807 C13.7114212,13.2987656 13.8614778,13.4300651 14.0865627,13.4300651 L23.4088285,13.4300651 C23.6339134,13.4300651 23.7652129,13.2987656 23.7652129,13.0736807 L23.7652129,11.3292728 C23.7652129,11.122945 23.6339134,10.9916455 23.4088285,10.9916455 L16.6562818,10.9916455 L16.6562818,8.14057018 L22.5272461,8.14057018 C22.7523309,8.14057018 22.8836305,8.00927066 22.8836305,7.78418577 L22.8836305,6.05853495 C22.8836305,5.85220713 22.7523309,5.72090762 22.5272461,5.72090762 L16.6562818,5.72090762 L16.6562818,2.73853283 L23.4088285,2.73853283 C23.6339134,2.73853283 23.7652129,2.60723331 23.7652129,2.40090549 Z" id="Path"></path>
                        <path d="M31.3055568,13.7114212 C34.5692877,13.7114212 36.7451083,12.0983128 36.7451083,9.64113611 C36.7451083,4.37039828 29.0171937,6.84633206 29.0171937,3.88271435 C29.0171937,2.92610357 29.9362903,2.32587719 31.2492855,2.32587719 C32.5060095,2.32587719 33.4063491,2.86983234 33.6877052,3.8452002 C33.7814905,4.05152802 33.894033,4.12655631 34.1003608,4.12655631 L36.3512097,4.12655631 C36.5950517,4.12655631 36.7451083,3.99525679 36.688837,3.7701719 C36.2761814,1.42553764 33.9690613,0 31.0804719,0 C27.9480405,0 25.8284911,1.63186545 25.8284911,4.07028509 C25.8284911,9.54735074 33.631434,7.01514573 33.631434,9.88497808 C33.631434,10.7853176 32.7498515,11.3480299 31.3805851,11.3480299 C29.7674767,11.3480299 28.585781,10.635261 28.2856678,9.54735074 C28.2106395,9.35978 28.0980971,9.24723756 27.8917693,9.24723756 L25.6596774,9.24723756 C25.4345925,9.24723756 25.284536,9.37853707 25.3220501,9.62237904 C25.6784345,12.0983128 28.0605829,13.7114212 31.3055568,13.7114212 Z" id="Path"></path>
                        <path d="M39.3523416,13.4300651 L41.5656763,13.4300651 C41.7907612,13.4300651 41.9220607,13.2987656 41.9220607,13.0736807 L41.9220607,9.67865026 L44.3604804,9.67865026 C47.6617254,9.67865026 49.8938172,7.7654287 49.8938172,4.91435343 C49.8938172,2.15706353 47.7179966,0.300113186 44.4917799,0.300113186 L39.3523416,0.300113186 C39.1272567,0.300113186 38.9772001,0.431412705 38.9772001,0.656497595 L38.9772001,13.0736807 C38.9772001,13.2987656 39.1272567,13.4300651 39.3523416,13.4300651 Z M41.9220607,7.24023062 L41.9220607,2.7572899 L44.2104238,2.7572899 C45.8235321,2.7572899 46.9489566,3.63887239 46.9489566,4.91435343 C46.9489566,6.28361984 45.8235321,7.24023062 44.2104238,7.24023062 L41.9220607,7.24023062 Z" id="Shape"></path>
                        <path d="M50.8879422,13.4300651 L53.2888477,13.4300651 C53.4764184,13.4300651 53.626475,13.3550368 53.7015033,13.1674661 L54.7143853,10.7478035 L60.6228637,10.7478035 L61.6545027,13.1674661 C61.729531,13.3550368 61.8608305,13.4300651 62.0671584,13.4300651 L64.4493068,13.4300651 C64.6931487,13.4300651 64.8244483,13.2612514 64.7119058,13.0174095 L59.1785689,0.562712224 C59.1035406,0.375141483 58.9722411,0.300113186 58.7659133,0.300113186 L56.5713356,0.300113186 C56.3837649,0.300113186 56.2524654,0.393898557 56.1774371,0.562712224 L50.6065861,13.0174095 C50.5128007,13.2612514 50.6253431,13.4300651 50.8879422,13.4300651 Z M55.7085102,8.32814092 L57.6592459,3.65762946 L59.6474958,8.32814092 L55.7085102,8.32814092 Z" id="Shape"></path>
                        <path d="M65.6310024,13.4300651 L68.0319079,13.4300651 C68.2194787,13.4300651 68.3695353,13.3550368 68.4445636,13.1674661 L69.4574456,10.7478035 L75.3659239,10.7478035 L76.397563,13.1674661 C76.4725913,13.3550368 76.6038908,13.4300651 76.8102186,13.4300651 L79.1923671,13.4300651 C79.436209,13.4300651 79.5675085,13.2612514 79.4549661,13.0174095 L73.9216292,0.562712224 C73.8466009,0.375141483 73.7153014,0.300113186 73.5089736,0.300113186 L71.3143959,0.300113186 C71.1268252,0.300113186 70.9955257,0.393898557 70.9204974,0.562712224 L65.3496463,13.0174095 C65.255861,13.2612514 65.3684034,13.4300651 65.6310024,13.4300651 Z M70.4515705,8.32814092 L72.4023062,3.65762946 L74.3905561,8.32814092 L70.4515705,8.32814092 Z" id="Shape"></path>
                        <path d="M92.8850312,13.0174095 L89.4149725,8.74079655 C91.1593804,8.10305603 92.1910194,6.77130377 92.1910194,4.72678269 C92.1910194,1.98824986 90.1089842,0.300113186 86.8640104,0.300113186 L81.3869447,0.300113186 C81.1618598,0.300113186 81.0118033,0.431412705 81.0118033,0.656497595 L81.0118033,13.0736807 C81.0118033,13.2987656 81.1618598,13.4300651 81.3869447,13.4300651 L83.6002795,13.4300651 C83.8253644,13.4300651 83.9566639,13.2987656 83.9566639,13.0736807 L83.9566639,9.17220926 L86.3012982,9.17220926 L89.5275149,13.2049802 C89.6400574,13.3550368 89.7713569,13.4300651 89.9589276,13.4300651 L92.6599463,13.4300651 C92.9600595,13.4300651 93.0538449,13.2424943 92.8850312,13.0174095 Z M83.9566639,2.7572899 L86.6014113,2.7572899 C88.1957627,2.7572899 89.2649159,3.50757287 89.2649159,4.72678269 C89.2649159,5.98350665 88.1394914,6.69627547 86.4513548,6.69627547 L83.9566639,6.69627547 L83.9566639,2.7572899 Z" id="Shape"></path>
                    </g>
                </g>
                <g id="tot-maar-liefst-€-30" transform="translate(10.003728, 30.297078)" fill="#FFFFFF" fill-rule="nonzero">
                    <path d="M6.03977788,12.135827 C6.62124717,12.135827 7.48407259,12.0232845 8.23435555,11.8357138 C8.45944044,11.7606855 8.53446874,11.629386 8.51571166,11.4230582 L8.2718697,9.80994978 C8.23435555,9.60362196 8.08429896,9.49107952 7.85921407,9.52859367 C7.40904429,9.64113611 6.86508914,9.69740734 6.45243351,9.69740734 C5.5145798,9.69740734 4.89559635,9.11593804 4.89559635,8.15932726 L4.89559635,5.0081388 L7.84045699,5.0081388 C8.04678481,5.0081388 8.1968414,4.87683928 8.1968414,4.65175439 L8.1968414,3.09491723 C8.1968414,2.86983234 8.04678481,2.73853283 7.84045699,2.73853283 L4.89559635,2.73853283 L4.89559635,0.356384409 C4.89559635,0.131299519 4.76429683,0 4.53921194,0 L2.43841964,0 C2.21333475,0 2.08203523,0.131299519 2.08203523,0.356384409 L2.08203523,2.73853283 L0.356384409,2.73853283 C0.131299519,2.73853283 0,2.86983234 0,3.09491723 L0,4.65175439 C0,4.87683928 0.131299519,5.0081388 0.356384409,5.0081388 L2.08203523,5.0081388 L2.08203523,8.25311263 C2.08203523,10.6540181 3.60135824,12.135827 6.03977788,12.135827 Z" id="Path"></path>
                    <path d="M14.8931169,12.135827 C17.9880341,12.135827 20.0513123,10.2038483 20.0513123,7.29650184 C20.0513123,4.37039828 17.9880341,2.43841964 14.8931169,2.43841964 C11.7981996,2.43841964 9.73492148,4.37039828 9.73492148,7.29650184 C9.73492148,10.2038483 11.7981996,12.135827 14.8931169,12.135827 Z M14.8931169,9.80994978 C13.411308,9.80994978 12.4171831,8.81582485 12.4171831,7.29650184 C12.4171831,5.77717884 13.411308,4.76429683 14.8931169,4.76429683 C16.3749257,4.76429683 17.3690507,5.77717884 17.3690507,7.29650184 C17.3690507,8.81582485 16.3749257,9.80994978 14.8931169,9.80994978 Z" id="Shape"></path>
                    <path d="M26.9164014,12.135827 C27.4978707,12.135827 28.3606961,12.0232845 29.1109791,11.8357138 C29.336064,11.7606855 29.4110923,11.629386 29.3923352,11.4230582 L29.1484932,9.80994978 C29.1109791,9.60362196 28.9609225,9.49107952 28.7358376,9.52859367 C28.2856678,9.64113611 27.7417127,9.69740734 27.329057,9.69740734 C26.3912033,9.69740734 25.7722199,9.11593804 25.7722199,8.15932726 L25.7722199,5.0081388 L28.7170805,5.0081388 C28.9234083,5.0081388 29.0734649,4.87683928 29.0734649,4.65175439 L29.0734649,3.09491723 C29.0734649,2.86983234 28.9234083,2.73853283 28.7170805,2.73853283 L25.7722199,2.73853283 L25.7722199,0.356384409 C25.7722199,0.131299519 25.6409204,0 25.4158355,0 L23.3150432,0 C23.0899583,0 22.9586588,0.131299519 22.9586588,0.356384409 L22.9586588,2.73853283 L21.2330079,2.73853283 C21.007923,2.73853283 20.8766235,2.86983234 20.8766235,3.09491723 L20.8766235,4.65175439 C20.8766235,4.87683928 21.007923,5.0081388 21.2330079,5.0081388 L22.9586588,5.0081388 L22.9586588,8.25311263 C22.9586588,10.6540181 24.4779818,12.135827 26.9164014,12.135827 Z" id="Path"></path>
                    <path d="M48.4120084,2.43841964 C47.0239849,2.43841964 45.8610463,2.92610357 45.1295204,3.7701719 C44.4542657,2.92610357 43.4413837,2.43841964 42.1659027,2.43841964 C40.8341504,2.43841964 39.708726,2.85107527 38.9772001,3.58260116 C38.6020586,2.86983234 37.8142615,2.43841964 36.7638653,2.43841964 C36.3324526,2.43841964 35.8447687,2.49469086 35.413356,2.66350453 C35.2070282,2.73853283 35.1319999,2.85107527 35.1319999,3.07616016 L35.1319999,4.61424024 C35.1319999,4.8580822 35.3008135,4.91435343 35.5446555,4.91435343 C35.657198,4.89559635 35.8447687,4.8580822 35.9573111,4.8580822 C36.4825092,4.8580822 36.688837,5.08316709 36.688837,5.5896081 L36.688837,11.4793294 C36.688837,11.7044143 36.8201366,11.8357138 37.0452214,11.8357138 L39.1460138,11.8357138 C39.3710986,11.8357138 39.5023982,11.7044143 39.5023982,11.4793294 L39.5023982,6.86508914 C39.5023982,5.62712224 40.2526811,4.83932513 41.3968626,4.83932513 C42.4847729,4.83932513 43.1787847,5.68339347 43.1787847,6.95887451 L43.1787847,11.4793294 C43.1787847,11.7044143 43.3288413,11.8357138 43.5351691,11.8357138 L45.6547185,11.8357138 C45.8610463,11.8357138 46.0111029,11.7044143 46.0111029,11.4793294 L46.0111029,6.86508914 C46.0111029,5.62712224 46.6863576,4.83932513 47.7179966,4.83932513 C48.8996923,4.83932513 49.6499753,5.68339347 49.6499753,6.95887451 L49.6499753,11.4793294 C49.6499753,11.7044143 49.8000319,11.8357138 50.0063597,11.8357138 L52.107152,11.8357138 C52.3322369,11.8357138 52.4822935,11.7044143 52.4822935,11.4793294 L52.4822935,6.58373303 C52.4822935,4.08904216 50.850428,2.43841964 48.4120084,2.43841964 Z" id="Path"></path>
                    <path d="M66.3812854,11.5168435 L66.1937147,9.96000637 C66.1749576,9.71616441 66.024901,9.64113611 65.7998161,9.65989319 C65.5559742,9.71616441 65.4059176,9.71616441 65.2183468,9.71616441 C64.8244483,9.71616441 64.5993634,9.47232245 64.5993634,8.98463852 L64.5993634,3.09491723 C64.5993634,2.86983234 64.4680639,2.73853283 64.242979,2.73853283 L62.1797008,2.73853283 C61.9546159,2.73853283 61.8233164,2.86983234 61.8233164,3.09491723 L61.8233164,3.30124505 C61.0730334,2.71977575 60.1539368,2.43841964 59.1598119,2.43841964 C56.2524654,2.43841964 54.2267014,4.4266695 54.2267014,7.29650184 C54.2267014,10.1475771 56.2524654,12.135827 59.1598119,12.135827 C60.3790217,12.135827 61.4294178,11.7606855 62.3110003,10.9916455 C62.7048989,11.7044143 63.5302101,12.135827 64.6743917,12.135827 C65.1245614,12.135827 65.5747312,12.0607987 66.0811722,11.9107421 C66.3062571,11.8544709 66.4000425,11.7231713 66.3812854,11.5168435 Z M59.4036538,9.9412493 C57.9781162,9.9412493 56.9839913,8.853339 56.9839913,7.29650184 C56.9839913,5.72090762 57.9781162,4.63299731 59.4036538,4.63299731 C60.8104344,4.63299731 61.7670452,5.72090762 61.7670452,7.29650184 C61.7670452,8.853339 60.8104344,9.9412493 59.4036538,9.9412493 Z" id="Shape"></path>
                    <path d="M79.7363222,11.5168435 L79.5487515,9.96000637 C79.5299944,9.71616441 79.3799378,9.64113611 79.1548529,9.65989319 C78.9110109,9.71616441 78.7609544,9.71616441 78.5733836,9.71616441 C78.1794851,9.71616441 77.9544002,9.47232245 77.9544002,8.98463852 L77.9544002,3.09491723 C77.9544002,2.86983234 77.8231006,2.73853283 77.5980158,2.73853283 L75.5347376,2.73853283 C75.3096527,2.73853283 75.1783532,2.86983234 75.1783532,3.09491723 L75.1783532,3.30124505 C74.4280702,2.71977575 73.5089736,2.43841964 72.5148487,2.43841964 C69.6075022,2.43841964 67.5817382,4.4266695 67.5817382,7.29650184 C67.5817382,10.1475771 69.6075022,12.135827 72.5148487,12.135827 C73.7340585,12.135827 74.7844546,11.7606855 75.6660371,10.9916455 C76.0599357,11.7044143 76.8852469,12.135827 78.0294285,12.135827 C78.4795982,12.135827 78.929768,12.0607987 79.436209,11.9107421 C79.6612939,11.8544709 79.7550793,11.7231713 79.7363222,11.5168435 Z M72.7586906,9.9412493 C71.333153,9.9412493 70.3390281,8.853339 70.3390281,7.29650184 C70.3390281,5.72090762 71.333153,4.63299731 72.7586906,4.63299731 C74.1654712,4.63299731 75.122082,5.72090762 75.122082,7.29650184 C75.122082,8.853339 74.1654712,9.9412493 72.7586906,9.9412493 Z" id="Shape"></path>
                    <path d="M88.9272885,2.60723331 C88.5896612,2.49469086 88.0832202,2.43841964 87.6330504,2.43841964 C86.3950835,2.43841964 85.3259303,2.88858942 84.5756473,3.71390068 C84.2192629,2.92610357 83.3939517,2.43841964 82.3060414,2.43841964 C81.8746287,2.43841964 81.3869447,2.51344794 80.955532,2.66350453 C80.7492042,2.73853283 80.6741759,2.85107527 80.6741759,3.07616016 L80.6741759,4.61424024 C80.6741759,4.8580822 80.8429896,4.91435343 81.0868315,4.91435343 C81.199374,4.89559635 81.3869447,4.8580822 81.4994872,4.8580822 C82.0246853,4.8580822 82.2310131,5.08316709 82.2310131,5.5896081 L82.2310131,11.4793294 C82.2310131,11.7044143 82.3623126,11.8357138 82.5873975,11.8357138 L84.6881898,11.8357138 C84.9132747,11.8357138 85.0445742,11.7044143 85.0445742,11.4793294 L85.0445742,7.44655844 C85.0445742,5.90847836 86.0949703,5.0081388 87.520508,5.0081388 C87.8768924,5.0081388 88.2707909,5.04565295 88.5521471,5.10192417 C88.777232,5.13943832 88.9272885,5.04565295 88.9648027,4.82056806 L89.2086447,3.01988894 C89.2274017,2.81356112 89.1523734,2.66350453 88.9272885,2.60723331 Z" id="Path"></path>
                    <path d="M23.3713144,34.135827 C23.8214842,34.135827 24.290411,34.0607987 24.796852,33.9107421 C25.0219369,33.8544709 25.1157223,33.7231713 25.0969652,33.5168435 L24.9093945,31.9600064 C24.8906374,31.7161644 24.7405808,31.6411361 24.5154959,31.6598932 C24.2716539,31.7161644 24.1215974,31.7161644 23.9527837,31.7161644 C23.5401281,31.7161644 23.3150432,31.4723224 23.3150432,31.0033956 L23.3150432,20.3118633 C23.3150432,20.0867784 23.1837436,19.9554789 22.9586588,19.9554789 L20.8578665,19.9554789 C20.6327816,19.9554789 20.501482,20.0867784 20.501482,20.3118633 L20.501482,31.9037352 C20.501482,33.2730016 21.6269065,34.135827 23.3713144,34.135827 Z" id="Path"></path>
                    <path d="M28.1543683,23.0691532 C29.092222,23.0691532 29.8237479,22.3938986 29.8237479,21.5123161 C29.8237479,20.6307336 29.092222,19.974236 28.1543683,19.974236 C27.2165146,19.974236 26.4849887,20.6307336 26.4849887,21.5123161 C26.4849887,22.3938986 27.2165146,23.0691532 28.1543683,23.0691532 Z M27.1039721,33.8357138 L29.2047645,33.8357138 C29.4298493,33.8357138 29.5611489,33.7044143 29.5611489,33.4793294 L29.5611489,25.0949172 C29.5611489,24.8698323 29.4298493,24.7385328 29.2047645,24.7385328 L27.1039721,24.7385328 C26.8788873,24.7385328 26.7475877,24.8698323 26.7475877,25.0949172 L26.7475877,33.4793294 C26.7475877,33.7044143 26.8788873,33.8357138 27.1039721,33.8357138 Z" id="Shape"></path>
                    <path d="M36.6513229,34.135827 C38.7708723,34.135827 40.4590089,33.1792162 41.0967495,31.622379 C41.1905348,31.3972941 41.0592353,31.2472376 40.7966363,31.2472376 L38.695844,31.2472376 C38.5082732,31.2472376 38.3957308,31.3222659 38.2456742,31.4348083 C37.9268039,31.7911927 37.3640917,31.9975205 36.7075941,31.9975205 C35.4696272,31.9975205 34.5317735,31.3035088 34.2316603,30.1780843 L40.9654499,30.1780843 C41.1717778,30.1780843 41.3218344,30.084299 41.3593485,29.8592141 C41.3593485,29.6528863 41.3781056,29.4278014 41.3781056,29.2214735 C41.3781056,26.3703983 39.5211552,24.4384196 36.4825092,24.4384196 C33.5001344,24.4384196 31.4931275,26.3703983 31.4931275,29.2965018 C31.4931275,32.2038483 33.5751627,34.135827 36.6513229,34.135827 Z M34.2129032,28.5087047 C34.3817169,27.3270091 35.3195706,26.5204549 36.5575375,26.5204549 C37.8142615,26.5204549 38.6395727,27.3457661 38.695844,28.5087047 L34.2129032,28.5087047 Z" id="Shape"></path>
                    <path d="M44.9794638,33.8357138 L47.0990132,33.8357138 C47.305341,33.8357138 47.4553976,33.7044143 47.4553976,33.4793294 L47.4553976,27.0081388 L50.587829,27.0081388 C50.7941568,27.0081388 50.9442134,26.8768393 50.9442134,26.6517544 L50.9442134,25.0949172 C50.9442134,24.8698323 50.7941568,24.7385328 50.587829,24.7385328 L47.4553976,24.7385328 L47.4553976,23.6506225 C47.4553976,22.6564976 48.1869235,22.0375141 49.2748338,22.0375141 C49.6874894,22.0375141 50.3064729,22.1125424 50.7191285,22.2250849 C50.9442134,22.2813561 51.09427,22.1500566 51.1317841,21.9249717 L51.3756261,20.3681345 C51.4131402,20.1430497 51.3193549,20.0305072 51.1130271,19.974236 C50.4002582,19.7491511 49.4624045,19.6553657 48.824664,19.6553657 C46.2361878,19.6553657 44.6230794,21.1934458 44.6230794,23.6506225 L44.6230794,24.7385328 L42.5598012,24.7385328 C42.3347164,24.7385328 42.2034168,24.8698323 42.2034168,25.0949172 L42.2034168,26.6517544 C42.2034168,26.8768393 42.3347164,27.0081388 42.5598012,27.0081388 L44.6230794,27.0081388 L44.6230794,33.4793294 C44.6230794,33.7044143 44.773136,33.8357138 44.9794638,33.8357138 Z" id="Path"></path>
                    <path d="M56.1399229,34.135827 C58.8034275,34.135827 60.4728071,32.9916455 60.4728071,31.1534522 C60.4728071,27.2707378 54.5643287,29.0339028 54.5643287,27.1581954 C54.5643287,26.6705115 55.1645551,26.3703983 56.0273805,26.3703983 C56.8339347,26.3703983 57.5279464,26.7267827 57.7530313,27.2894949 C57.8280596,27.4207944 57.921845,27.5145798 58.1281728,27.5145798 L59.9851231,27.5145798 C60.210208,27.5145798 60.3602646,27.3832803 60.3227505,27.1394383 C60.0601514,25.5075729 58.3345006,24.4384196 55.9898663,24.4384196 C53.4951755,24.4384196 51.8257959,25.6201153 51.8257959,27.3832803 C51.8257959,31.3035088 57.678003,29.5028297 57.678003,31.2847517 C57.678003,31.7724356 57.0590196,32.110063 56.1399229,32.110063 C55.0520126,32.110063 54.3392438,31.7349215 54.0954018,31.097181 C53.9828594,30.9283673 53.9078311,30.8345819 53.6827462,30.8345819 L51.8445529,30.8158249 C51.600711,30.8158249 51.4506544,30.9471244 51.4881685,31.1909663 C51.7695247,33.0291596 53.5139325,34.135827 56.1399229,34.135827 Z" id="Path"></path>
                    <path d="M67.3191391,34.135827 C67.9006084,34.135827 68.7634338,34.0232845 69.5137168,33.8357138 C69.7388017,33.7606855 69.81383,33.629386 69.7950729,33.4230582 L69.5512309,31.8099498 C69.5137168,31.603622 69.3636602,31.4910795 69.1385753,31.5285937 C68.6884055,31.6411361 68.1444504,31.6974073 67.7317948,31.6974073 C66.793941,31.6974073 66.1749576,31.115938 66.1749576,30.1593273 L66.1749576,27.0081388 L69.1198182,27.0081388 C69.3261461,27.0081388 69.4762027,26.8768393 69.4762027,26.6517544 L69.4762027,25.0949172 C69.4762027,24.8698323 69.3261461,24.7385328 69.1198182,24.7385328 L66.1749576,24.7385328 L66.1749576,22.3563844 C66.1749576,22.1312995 66.0436581,22 65.8185732,22 L63.7177809,22 C63.492696,22 63.3613965,22.1312995 63.3613965,22.3563844 L63.3613965,24.7385328 L61.6357457,24.7385328 C61.4106608,24.7385328 61.2793612,24.8698323 61.2793612,25.0949172 L61.2793612,26.6517544 C61.2793612,26.8768393 61.4106608,27.0081388 61.6357457,27.0081388 L63.3613965,27.0081388 L63.3613965,30.2531126 C63.3613965,32.6540181 64.8807195,34.135827 67.3191391,34.135827 Z" id="Path"></path>
                    <path d="M23.5026139,50.6962755 L21.1767367,50.6962755 C20.989166,50.6962755 20.8578665,50.8088179 20.7828382,51.0151457 C20.2763972,52.59074 18.9258878,53.5098366 17.1814799,53.5098366 C15.4745862,53.5098366 14.161591,52.7032824 13.5050934,51.3715301 L17.0689375,51.3715301 C17.2752653,51.3715301 17.4065648,51.2777448 17.444079,51.071417 L17.6879209,50.2273486 C17.7441921,49.9835067 17.6316497,49.8334501 17.3878077,49.8334501 L13.0924378,49.8334501 C13.0736807,49.6458793 13.0549236,49.4583086 13.0549236,49.2519808 C13.0549236,49.06441 13.0736807,48.8768393 13.0924378,48.6892685 L17.7629492,48.6892685 C17.969277,48.6892685 18.1193336,48.5954832 18.1568478,48.3891554 L18.3819327,47.5638441 C18.456961,47.3200021 18.3444185,47.1699455 18.1005766,47.1699455 L13.5050934,47.1699455 C14.1428339,45.8381933 15.4745862,45.012882 17.1814799,45.012882 C18.9446449,45.012882 20.2013689,45.9507357 20.7828382,47.5263299 C20.8578665,47.7326578 20.989166,47.8264431 21.1767367,47.8264431 L23.5026139,47.8264431 C23.7464559,47.8264431 23.8777554,47.6763865 23.8402412,47.4513016 C23.2587719,44.3563844 20.6140245,42.4056487 17.1627228,42.4056487 C13.65515,42.4056487 11.122945,44.243842 10.3163908,47.1699455 L8.9283673,47.1699455 C8.72203948,47.1699455 8.57198289,47.3012451 8.57198289,47.5075729 L8.57198289,48.3516412 C8.57198289,48.557969 8.72203948,48.6892685 8.9283673,48.6892685 L10.0725488,48.6892685 C10.0537917,48.8768393 10.0537917,49.06441 10.0537917,49.2519808 C10.0537917,49.4583086 10.0537917,49.6458793 10.0725488,49.8334501 L8.9283673,49.8334501 C8.72203948,49.8334501 8.57198289,49.9835067 8.57198289,50.1898345 L8.57198289,51.0151457 C8.57198289,51.2402306 8.72203948,51.3715301 8.9283673,51.3715301 L10.3351479,51.3715301 C11.141702,54.2976337 13.6739071,56.1170699 17.1627228,56.1170699 C20.6140245,56.1170699 23.2587719,54.1850913 23.8402412,51.071417 C23.8777554,50.8463321 23.7464559,50.6962755 23.5026139,50.6962755 Z" id="Path"></path>
                    <path d="M35.2257853,56.135827 C38.1706459,56.135827 40.1401387,54.5602327 40.1401387,52.1968414 C40.1401387,50.8650891 39.5023982,49.7771788 38.3394596,49.1769525 C39.2585562,48.5767261 39.7462401,47.545087 39.7462401,46.269606 C39.7462401,43.9437288 37.9268039,42.4056487 35.1882711,42.4056487 C32.5997949,42.4056487 30.7616016,43.7749151 30.4614884,45.8944645 C30.4052172,46.1383065 30.5552738,46.269606 30.7991158,46.269606 L32.8623939,46.269606 C33.0687217,46.269606 33.1812642,46.1570635 33.2375354,45.9507357 C33.4626203,45.1629386 34.1941462,44.6564976 35.1882711,44.6564976 C36.3324526,44.6564976 37.1014927,45.3317523 37.1014927,46.3633913 C37.1014927,47.545087 36.3324526,48.2390988 35.1319999,48.2390988 L34.0253325,48.2390988 C33.8002476,48.2390988 33.6689481,48.3703983 33.6689481,48.5954832 L33.6689481,49.9647496 C33.6689481,50.1710774 33.8002476,50.321134 34.0253325,50.321134 L35.1132428,50.321134 C36.5387804,50.321134 37.4203629,51.0151457 37.4203629,52.1780843 C37.4203629,53.2097234 36.5387804,53.8849781 35.2070282,53.8849781 C34.1191179,53.8849781 33.2750495,53.3785371 32.9749364,52.5532258 C32.8999081,52.346898 32.7873656,52.2531126 32.5810378,52.2531126 L30.4990026,52.2531126 C30.2739177,52.2531126 30.1238611,52.3844121 30.1613752,52.6282541 C30.5177596,54.7478035 32.4872524,56.135827 35.2257853,56.135827 Z" id="Path"></path>
                    <path d="M47.2490698,42.4056487 C43.8727964,42.4056487 41.6407046,44.506441 41.6407046,47.6763865 L41.6407046,50.8650891 C41.6407046,54.0350347 43.8727964,56.135827 47.2490698,56.135827 C50.6065861,56.135827 52.857435,54.0350347 52.857435,50.8650891 L52.857435,47.6763865 C52.857435,44.506441 50.6065861,42.4056487 47.2490698,42.4056487 Z M50.0438738,50.8650891 C50.0438738,52.5719829 48.9184494,53.7161644 47.2490698,53.7161644 C45.5609331,53.7161644 44.4355087,52.5719829 44.4355087,50.8650891 L44.4355087,47.6763865 C44.4355087,45.9694928 45.5609331,44.8253113 47.2490698,44.8253113 C48.9184494,44.8253113 50.0438738,45.9694928 50.0438738,47.6763865 L50.0438738,50.8650891 Z" id="Shape"></path>
                    <path d="M60.2477222,42.4056487 C56.8714488,42.4056487 54.639357,44.506441 54.639357,47.6763865 L54.639357,50.8650891 C54.639357,54.0350347 56.8714488,56.135827 60.2477222,56.135827 C63.6052384,56.135827 65.8560873,54.0350347 65.8560873,50.8650891 L65.8560873,47.6763865 C65.8560873,44.506441 63.6052384,42.4056487 60.2477222,42.4056487 Z M63.0425262,50.8650891 C63.0425262,52.5719829 61.9171018,53.7161644 60.2477222,53.7161644 C58.5595855,53.7161644 57.434161,52.5719829 57.434161,50.8650891 L57.434161,47.6763865 C57.434161,45.9694928 58.5595855,44.8253113 60.2477222,44.8253113 C61.9171018,44.8253113 63.0425262,45.9694928 63.0425262,47.6763865 L63.0425262,50.8650891 Z" id="Shape"></path>
                    <path d="M68.9322475,53.2472376 C68.050665,53.2472376 67.3191391,53.8849781 67.3191391,54.6915323 C67.3191391,55.2730016 67.7130377,55.7419284 68.2569928,55.9482562 L67.4504386,57.7676924 C67.3378962,58.0302915 67.4504386,58.1803481 67.7130377,58.1803481 L68.5383489,58.1803481 C68.7259197,58.1803481 68.8759763,58.1240768 68.9697616,57.9552632 L70.0951861,55.9107421 C70.3577851,55.4605723 70.5453559,55.0854308 70.5453559,54.6915323 C70.5453559,53.8849781 69.81383,53.2472376 68.9322475,53.2472376 Z" id="Path"></path>
                    <path d="M73.2463746,52.2155985 L79.6050227,52.2155985 C79.8113505,52.2155985 79.9614071,52.084299 79.9614071,51.8779711 L79.9614071,50.0210208 C79.9614071,49.7959359 79.8113505,49.6646364 79.6050227,49.6646364 L73.2463746,49.6646364 C73.0400467,49.6646364 72.9087472,49.7959359 72.9087472,50.0210208 L72.9087472,51.8779711 C72.9087472,52.084299 73.0400467,52.2155985 73.2463746,52.2155985 Z" id="Path"></path>
                </g>
            </g>
        </g>
    </g>
</svg>