<?xml version="1.0" encoding="UTF-8"?>
<svg width="114px" height="110px" viewBox="0 0 114 110" version="1.1" xmlns="http://www.w3.org/2000/svg" xmlns:xlink="http://www.w3.org/1999/xlink">
    <title>Text Copy</title>
    <defs>
        <rect id="path-1" x="0" y="0" width="108.445796" height="20.2293008" rx="10.1146504"></rect>
        <filter x="-2.8%" y="-14.8%" width="105.5%" height="129.7%" filterUnits="objectBoundingBox" id="filter-2">
            <feOffset dx="0" dy="0" in="SourceAlpha" result="shadowOffsetOuter1"></feOffset>
            <feGaussianBlur stdDeviation="1" in="shadowOffsetOuter1" result="shadowBlurOuter1"></feGaussianBlur>
            <feColorMatrix values="0 0 0 0 0   0 0 0 0 0.368045807   0 0 0 0 0.361608624  0 0 0 0.5 0" type="matrix" in="shadowBlurOuter1"></feColorMatrix>
        </filter>
    </defs>
    <g id="HTML5-banners" stroke="none" stroke-width="1" fill="none" fill-rule="evenodd">
        <g id="120x600px_3" transform="translate(-4.000000, -208.000000)">
            <g id="Text-Copy" transform="translate(5.000000, 208.000000)">
                <g id="Button-Copy" transform="translate(1.077099, 87.000000)">
                    <g id="Group" transform="translate(0.000000, 0.088601)">
                        <g id="Rectangle">
                            <use fill="black" fill-opacity="1" filter="url(#filter-2)" xlink:href="#path-1"></use>
                            <use fill="#F78E1E" fill-rule="evenodd" xlink:href="#path-1"></use>
                        </g>
                        <path d="M13.881324,16.0529815 C16.4596158,16.0529815 18.140401,14.8454271 18.140401,12.9851406 C18.140401,11.5491299 17.275531,10.472122 15.8558386,10.1783925 L15.8558386,10.1131193 C16.9818015,9.70516174 17.5855787,8.72606357 17.5855787,7.58378239 C17.5855787,5.80508739 16.0516583,4.6301696 13.6691861,4.6301696 L8.28414619,4.6301696 C8.08832656,4.6301696 7.95778014,4.74439772 7.95778014,4.94021735 L7.95778014,15.7429337 C7.95778014,15.9387534 8.08832656,16.0529815 8.28414619,16.0529815 L13.881324,16.0529815 Z M13.1633187,9.37879568 L10.5197537,9.37879568 L10.5197537,6.63732083 L13.2938651,6.63732083 C14.5177378,6.63732083 15.1541516,7.15950652 15.1541516,7.89383014 C15.1541516,8.75870018 14.3708731,9.37879568 13.1633187,9.37879568 Z M13.6528678,14.029512 L10.5197537,14.029512 L10.5197537,11.2880371 L13.8323691,11.2880371 C14.9093771,11.2880371 15.6273824,11.8265411 15.6273824,12.6587745 C15.6273824,13.491008 14.8441039,14.029512 13.6528678,14.029512 Z M28.3230219,16.0529815 C28.5188415,16.0529815 28.6330697,15.9387534 28.6330697,15.7429337 L28.6330697,14.2253316 C28.6330697,14.0458303 28.5188415,13.9316021 28.3230219,13.9316021 L22.4484329,13.9316021 L22.4484329,11.4512201 L27.5560617,11.4512201 C27.7518813,11.4512201 27.8661094,11.336992 27.8661094,11.1411724 L27.8661094,9.63988853 C27.8661094,9.4603872 27.7518813,9.34615908 27.5560617,9.34615908 L22.4484329,9.34615908 L22.4484329,6.75154895 L28.3230219,6.75154895 C28.5188415,6.75154895 28.6330697,6.63732083 28.6330697,6.4578195 L28.6330697,4.94021735 C28.6330697,4.74439772 28.5188415,4.6301696 28.3230219,4.6301696 L20.2128255,4.6301696 C20.0170058,4.6301696 19.8864594,4.74439772 19.8864594,4.94021735 L19.8864594,15.7429337 C19.8864594,15.9387534 20.0170058,16.0529815 20.2128255,16.0529815 L28.3230219,16.0529815 Z M35.1930273,16.297756 C38.032412,16.297756 39.9253351,14.894382 39.9253351,12.7566843 C39.9253351,8.17124128 33.2021944,10.3252572 33.2021944,7.74696541 C33.2021944,6.91473198 34.0017912,6.39254629 35.1440724,6.39254629 C36.2373987,6.39254629 37.0206772,6.86577707 37.2654518,7.71432881 C37.3470433,7.89383014 37.4449531,7.95910335 37.6244544,7.95910335 L39.5826508,7.95910335 C39.7947887,7.95910335 39.9253351,7.84487523 39.8763802,7.6490556 C39.5173775,5.60926776 37.5102263,4.36907676 34.9972077,4.36907676 C32.2720512,4.36907676 30.4280829,5.78876909 30.4280829,7.91014844 C30.4280829,12.6750928 37.2164969,10.472122 37.2164969,12.9688223 C37.2164969,13.7521008 36.4495366,14.2416499 35.2583005,14.2416499 C33.8549265,14.2416499 32.8268734,13.6215544 32.5657806,12.6750928 C32.5005074,12.5119098 32.4025976,12.414 32.2230962,12.414 L30.2812182,12.414 C30.0853986,12.414 29.9548522,12.5282281 29.9874888,12.740366 C30.2975365,14.894382 32.369961,16.297756 35.1930273,16.297756 Z M47.3501628,16.0529815 C47.5296642,16.0529815 47.6602106,15.9387534 47.6602106,15.7429337 L47.6602106,6.80050386 L51.2339189,6.80050386 C51.4297385,6.80050386 51.5439666,6.68627574 51.5439666,6.49045611 L51.5439666,4.94021735 C51.5439666,4.74439772 51.4297385,4.6301696 51.2339189,4.6301696 L41.5245288,4.6301696 C41.3450274,4.6301696 41.214481,4.74439772 41.214481,4.94021735 L41.214481,6.49045611 C41.214481,6.68627574 41.3450274,6.80050386 41.5245288,6.80050386 L45.0982371,6.80050386 L45.0982371,15.7429337 C45.0982371,15.9387534 45.2287835,16.0529815 45.4082848,16.0529815 L47.3501628,16.0529815 Z M61.4981313,16.0529815 C61.6939509,16.0529815 61.808179,15.9387534 61.808179,15.7429337 L61.808179,14.2253316 C61.808179,14.0458303 61.6939509,13.9316021 61.4981313,13.9316021 L55.6235423,13.9316021 L55.6235423,11.4512201 L60.7311711,11.4512201 C60.9269907,11.4512201 61.0412188,11.336992 61.0412188,11.1411724 L61.0412188,9.63988853 C61.0412188,9.4603872 60.9269907,9.34615908 60.7311711,9.34615908 L55.6235423,9.34615908 L55.6235423,6.75154895 L61.4981313,6.75154895 C61.6939509,6.75154895 61.808179,6.63732083 61.808179,6.4578195 L61.808179,4.94021735 C61.808179,4.74439772 61.6939509,4.6301696 61.4981313,4.6301696 L53.3879348,4.6301696 C53.1921152,4.6301696 53.0615688,4.74439772 53.0615688,4.94021735 L53.0615688,15.7429337 C53.0615688,15.9387534 53.1921152,16.0529815 53.3879348,16.0529815 L61.4981313,16.0529815 Z M71.7623437,16.0529815 C71.9581633,16.0529815 72.0723914,15.9387534 72.0723914,15.7429337 L72.0723914,14.2253316 C72.0723914,14.0458303 71.9581633,13.9316021 71.7623437,13.9316021 L66.0998926,13.9316021 L66.0998926,4.94021735 C66.0998926,4.74439772 65.9856645,4.6301696 65.7898449,4.6301696 L63.8642852,4.6301696 C63.6684655,4.6301696 63.5379191,4.74439772 63.5379191,4.94021735 L63.5379191,15.7429337 C63.5379191,15.9387534 63.6684655,16.0529815 63.8642852,16.0529815 L71.7623437,16.0529815 Z M79.9378133,16.0529815 C80.133633,16.0529815 80.2478611,15.9387534 80.2478611,15.7429337 L80.2478611,9.05242963 L86.12245,15.8897985 C86.2203599,16.0040266 86.3509063,16.0529815 86.497771,16.0529815 L88.0153732,16.0529815 C88.1948745,16.0529815 88.3254209,15.9387534 88.3254209,15.7429337 L88.3254209,4.94021735 C88.3254209,4.74439772 88.1948745,4.6301696 88.0153732,4.6301696 L86.0734951,4.6301696 C85.8939938,4.6301696 85.7634474,4.74439772 85.7634474,4.94021735 L85.7634474,11.7939045 L79.8399035,4.79335263 C79.7419937,4.67912451 79.6277656,4.6301696 79.4645825,4.6301696 L78.0122536,4.6301696 C77.816434,4.6301696 77.6858875,4.74439772 77.6858875,4.94021735 L77.6858875,15.7429337 C77.6858875,15.9387534 77.816434,16.0529815 78.0122536,16.0529815 L79.9378133,16.0529815 Z M95.6849754,16.3140743 C98.9975909,16.3140743 101.070015,14.2742865 101.070015,11.0432626 L101.070015,4.94021735 C101.070015,4.74439772 100.939469,4.6301696 100.759968,4.6301696 L98.8017712,4.6301696 C98.6059516,4.6301696 98.4917235,4.74439772 98.4917235,4.94021735 L98.4917235,11.0758992 C98.4917235,12.8872308 97.3820789,14.0621486 95.6849754,14.0621486 C94.0041902,14.0621486 92.8945457,12.8872308 92.8945457,11.0758992 L92.8945457,4.94021735 C92.8945457,4.74439772 92.7803175,4.6301696 92.5844979,4.6301696 L90.6426199,4.6301696 C90.4468003,4.6301696 90.3162538,4.74439772 90.3162538,4.94021735 L90.3162538,11.0432626 C90.3162538,14.2742865 92.3886783,16.3140743 95.6849754,16.3140743 Z" id="BESTELNU" fill="#FFFFFF" fill-rule="nonzero"></path>
                    </g>
                </g>
                <path d="M16.1125,19 C16.4125,19 16.5875,18.825 16.5875,18.525 L16.5875,12.375 C16.5875,10.725 17.5875,9.675 19.1125,9.675 C20.5625,9.675 21.4875,10.8 21.4875,12.5 L21.4875,18.525 C21.4875,18.825 21.6875,19 21.9625,19 L24.7875,19 C25.0625,19 25.2625,18.825 25.2625,18.525 L25.2625,12.375 C25.2625,10.725 26.1625,9.675 27.5375,9.675 C29.1125,9.675 30.1125,10.8 30.1125,12.5 L30.1125,18.525 C30.1125,18.825 30.3125,19 30.5875,19 L33.3875,19 C33.6875,19 33.8875,18.825 33.8875,18.525 L33.8875,12 C33.8875,8.675 31.7125,6.475 28.4625,6.475 C26.6125,6.475 25.0625,7.125 24.0875,8.25 C23.1875,7.125 21.8375,6.475 20.1375,6.475 C18.3625,6.475 16.8625,7.025 15.8875,8 C15.3875,7.05 14.3375,6.475 12.9375,6.475 C12.3625,6.475 11.7125,6.55 11.1375,6.775 C10.8625,6.875 10.7625,7.025 10.7625,7.325 L10.7625,9.375 C10.7625,9.7 10.9875,9.775 11.3125,9.775 C11.4625,9.75 11.7125,9.7 11.8625,9.7 C12.5625,9.7 12.8375,10 12.8375,10.675 L12.8375,18.525 C12.8375,18.825 13.0125,19 13.3125,19 L16.1125,19 Z M43.1125,19.4 C45.9375,19.4 48.1875,18.125 49.0375,16.05 C49.1625,15.75 48.9875,15.55 48.6375,15.55 L45.8375,15.55 C45.5875,15.55 45.4375,15.65 45.2375,15.8 C44.8125,16.275 44.0625,16.55 43.1875,16.55 C41.5375,16.55 40.2875,15.625 39.8875,14.125 L48.8625,14.125 C49.1375,14.125 49.3375,14 49.3875,13.7 C49.3875,13.425 49.4125,13.125 49.4125,12.85 C49.4125,9.05 46.9375,6.475 42.8875,6.475 C38.9125,6.475 36.2375,9.05 36.2375,12.95 C36.2375,16.825 39.0125,19.4 43.1125,19.4 Z M45.8375,11.9 L39.8625,11.9 C40.0875,10.325 41.3375,9.25 42.9875,9.25 C44.6625,9.25 45.7625,10.35 45.8375,11.9 Z M58.5875,19.4 C59.3625,19.4 60.5125,19.25 61.5125,19 C61.8125,18.9 61.9125,18.725 61.8875,18.45 L61.5625,16.3 C61.5125,16.025 61.3125,15.875 61.0125,15.925 C60.4125,16.075 59.6875,16.15 59.1375,16.15 C57.8875,16.15 57.0625,15.375 57.0625,14.1 L57.0625,9.9 L60.9875,9.9 C61.2625,9.9 61.4625,9.725 61.4625,9.425 L61.4625,7.35 C61.4625,7.05 61.2625,6.875 60.9875,6.875 L57.0625,6.875 L57.0625,3.7 C57.0625,3.4 56.8875,3.225 56.5875,3.225 L53.7875,3.225 C53.4875,3.225 53.3125,3.4 53.3125,3.7 L53.3125,6.875 L51.0125,6.875 C50.7125,6.875 50.5375,7.05 50.5375,7.35 L50.5375,9.425 C50.5375,9.725 50.7125,9.9 51.0125,9.9 L53.3125,9.9 L53.3125,14.225 C53.3125,17.425 55.3375,19.4 58.5875,19.4 Z M83.7625,19.4 C84.3875,19.4 85.0125,19.3 85.6875,19.1 C85.9875,19.025 86.1125,18.85 86.0625,18.575 L85.8375,16.5 C85.8125,16.175 85.6125,16.075 85.2875,16.1 C84.9875,16.175 84.7875,16.175 84.5375,16.175 C84.0125,16.175 83.7125,15.85 83.7125,15.225 L83.7125,0.975 C83.7125,0.675 83.5375,0.5 83.2375,0.5 L80.4125,0.5 C80.1125,0.5 79.9375,0.675 79.9375,0.975 L79.9375,7.55 C78.9125,6.8 77.7375,6.475 76.4625,6.475 C72.5875,6.475 69.8875,9.125 69.8875,12.95 C69.8875,16.75 72.5875,19.4 76.4625,19.4 C78.1375,19.4 79.5125,18.875 80.6125,17.825 C81.1375,18.825 82.2875,19.4 83.7625,19.4 Z M76.7875,16.475 C74.8875,16.475 73.5625,15.025 73.5625,12.95 C73.5625,10.85 74.8875,9.4 76.7875,9.4 C78.6625,9.4 79.9375,10.85 79.9375,12.95 C79.9375,15.025 78.6625,16.475 76.7875,16.475 Z M94.5625,19.4 C97.3875,19.4 99.6375,18.125 100.4875,16.05 C100.6125,15.75 100.4375,15.55 100.0875,15.55 L97.2875,15.55 C97.0375,15.55 96.8875,15.65 96.6875,15.8 C96.2625,16.275 95.5125,16.55 94.6375,16.55 C92.9875,16.55 91.7375,15.625 91.3375,14.125 L100.3125,14.125 C100.5875,14.125 100.7875,14 100.8375,13.7 C100.8375,13.425 100.8625,13.125 100.8625,12.85 C100.8625,9.05 98.3875,6.475 94.3375,6.475 C90.3625,6.475 87.6875,9.05 87.6875,12.95 C87.6875,16.825 90.4625,19.4 94.5625,19.4 Z M97.2875,11.9 L91.3125,11.9 C91.5375,10.325 92.7875,9.25 94.4375,9.25 C96.1125,9.25 97.2125,10.35 97.2875,11.9 Z M9.9375,44.375 C15.5375,44.375 19.4625,40.625 19.4625,35.25 C19.4625,29.875 15.5375,26.125 9.9375,26.125 C4.3125,26.125 0.4125,29.875 0.4125,35.25 C0.4125,40.625 4.3125,44.375 9.9375,44.375 Z M9.9375,40.975 C6.6625,40.975 4.3875,38.625 4.3875,35.25 C4.3875,31.875 6.6625,29.525 9.9375,29.525 C13.1875,29.525 15.4875,31.875 15.4875,35.25 C15.4875,38.625 13.1875,40.975 9.9375,40.975 Z M26.6125,44 C26.9125,44 27.0875,43.825 27.0875,43.525 L27.0875,37.375 C27.0875,35.725 28.0875,34.675 29.6125,34.675 C31.0625,34.675 31.9875,35.8 31.9875,37.5 L31.9875,43.525 C31.9875,43.825 32.1875,44 32.4625,44 L35.2875,44 C35.5625,44 35.7625,43.825 35.7625,43.525 L35.7625,37.375 C35.7625,35.725 36.6625,34.675 38.0375,34.675 C39.6125,34.675 40.6125,35.8 40.6125,37.5 L40.6125,43.525 C40.6125,43.825 40.8125,44 41.0875,44 L43.8875,44 C44.1875,44 44.3875,43.825 44.3875,43.525 L44.3875,37 C44.3875,33.675 42.2125,31.475 38.9625,31.475 C37.1125,31.475 35.5625,32.125 34.5875,33.25 C33.6875,32.125 32.3375,31.475 30.6375,31.475 C28.8625,31.475 27.3625,32.025 26.3875,33 C25.8875,32.05 24.8375,31.475 23.4375,31.475 C22.8625,31.475 22.2125,31.55 21.6375,31.775 C21.3625,31.875 21.2625,32.025 21.2625,32.325 L21.2625,34.375 C21.2625,34.7 21.4875,34.775 21.8125,34.775 C21.9625,34.75 22.2125,34.7 22.3625,34.7 C23.0625,34.7 23.3375,35 23.3375,35.675 L23.3375,43.525 C23.3375,43.825 23.5125,44 23.8125,44 L26.6125,44 Z M51.7125,44 C52.0125,44 52.1875,43.825 52.1875,43.525 L52.1875,38.15 C52.1875,36.1 53.5875,34.9 55.4875,34.9 C55.9625,34.9 56.4875,34.95 56.8625,35.025 C57.1625,35.075 57.3625,34.95 57.4125,34.65 L57.7375,32.25 C57.7625,31.975 57.6625,31.775 57.3625,31.7 C56.9125,31.55 56.2375,31.475 55.6375,31.475 C53.9875,31.475 52.5625,32.075 51.5625,33.175 C51.0875,32.125 49.9875,31.475 48.5375,31.475 C47.9625,31.475 47.3125,31.575 46.7375,31.775 C46.4625,31.875 46.3625,32.025 46.3625,32.325 L46.3625,34.375 C46.3625,34.7 46.5875,34.775 46.9125,34.775 C47.0625,34.75 47.3125,34.7 47.4625,34.7 C48.1625,34.7 48.4375,35 48.4375,35.675 L48.4375,43.525 C48.4375,43.825 48.6125,44 48.9125,44 L51.7125,44 Z M61.8375,29.65 C63.0875,29.65 64.0625,28.75 64.0625,27.575 C64.0625,26.4 63.0875,25.525 61.8375,25.525 C60.5875,25.525 59.6125,26.4 59.6125,27.575 C59.6125,28.75 60.5875,29.65 61.8375,29.65 Z M63.2375,44 C63.5375,44 63.7125,43.825 63.7125,43.525 L63.7125,32.35 C63.7125,32.05 63.5375,31.875 63.2375,31.875 L60.4375,31.875 C60.1375,31.875 59.9625,32.05 59.9625,32.35 L59.9625,43.525 C59.9625,43.825 60.1375,44 60.4375,44 L63.2375,44 Z M71.2625,44 C71.5625,44 71.7375,43.825 71.7375,43.525 L71.7375,37.375 C71.7375,35.725 72.8625,34.675 74.5125,34.675 C76.1125,34.675 77.1375,35.8 77.1375,37.5 L77.1375,43.525 C77.1375,43.825 77.3375,44 77.6375,44 L80.4375,44 C80.7375,44 80.9125,43.825 80.9125,43.525 L80.9125,37 C80.9125,33.675 78.7375,31.475 75.4625,31.475 C73.6375,31.475 72.0875,32.05 71.0875,33.05 C70.5625,32.075 69.4875,31.475 68.0875,31.475 C67.5125,31.475 66.8625,31.55 66.2875,31.775 C66.0125,31.875 65.9125,32.025 65.9125,32.325 L65.9125,34.375 C65.9125,34.7 66.1375,34.775 66.4625,34.775 C66.6125,34.75 66.8625,34.7 67.0125,34.7 C67.7125,34.7 67.9875,35 67.9875,35.675 L67.9875,43.525 C67.9875,43.825 68.1625,44 68.4625,44 L71.2625,44 Z M90.4625,50.225 C94.4625,50.225 97.1625,47.85 97.1625,44.3 L97.1625,32.35 C97.1625,32.05 96.9625,31.875 96.6875,31.875 L93.9375,31.875 C93.6375,31.875 93.4625,32.05 93.4625,32.35 L93.4625,32.625 C92.4625,31.85 91.2375,31.475 89.9125,31.475 C86.0625,31.475 83.3375,34.15 83.3375,37.9 C83.3375,41.675 86.0625,44.35 89.9125,44.35 C91.1625,44.35 92.3875,44.025 93.3875,43.275 L93.3875,44.325 C93.3875,46.05 92.2375,47.175 90.4375,47.175 C88.9875,47.175 87.8875,46.55 87.5625,45.55 C87.4375,45.3 87.2875,45.175 87.0125,45.175 L84.2125,45.175 C83.8875,45.175 83.6875,45.35 83.7625,45.65 C84.2625,48.425 86.8625,50.225 90.4625,50.225 Z M90.2375,41.4 C88.3625,41.4 87.0125,39.975 87.0125,37.9 C87.0125,35.85 88.3625,34.4 90.2375,34.4 C92.0875,34.4 93.3875,35.85 93.3875,37.9 C93.3875,39.975 92.0875,41.4 90.2375,41.4 Z M109.9875,39.175 C110.2625,39.175 110.4625,39 110.4625,38.725 L110.4625,36.25 C110.4625,35.95 110.2625,35.775 109.9875,35.775 L101.5125,35.775 C101.2375,35.775 101.0625,35.95 101.0625,36.25 L101.0625,38.725 C101.0625,39 101.2375,39.175 101.5125,39.175 L109.9875,39.175 Z M37.5125,74.8 C37.8125,74.8 37.9875,74.625 37.9875,74.35 L37.9875,68.325 C39.0125,69.075 40.2125,69.4 41.4625,69.4 C45.3625,69.4 48.0625,66.75 48.0625,62.95 C48.0625,59.125 45.3625,56.475 41.4625,56.475 C39.9375,56.475 38.4625,57 37.3625,58.075 C36.8625,57.1 35.7625,56.475 34.3375,56.475 C33.7625,56.475 33.1125,56.55 32.5375,56.775 C32.2625,56.875 32.1625,57.025 32.1625,57.325 L32.1625,59.375 C32.1625,59.7 32.3875,59.775 32.7125,59.775 C32.8625,59.75 33.1125,59.7 33.2625,59.7 C33.9625,59.7 34.2375,60 34.2375,60.675 L34.2375,74.35 C34.2375,74.625 34.4125,74.8 34.7125,74.8 L37.5125,74.8 Z M41.1625,66.475 C39.2875,66.475 37.9875,65.025 37.9875,62.95 C37.9875,60.85 39.2875,59.4 41.1625,59.4 C43.0375,59.4 44.3875,60.85 44.3875,62.95 C44.3875,65.025 43.0375,66.475 41.1625,66.475 Z M63.9375,69.4 C64.5375,69.4 65.1375,69.3 65.8125,69.1 C66.1125,69.025 66.2375,68.85 66.2125,68.575 L65.9625,66.5 C65.9375,66.175 65.7375,66.075 65.4375,66.1 C65.1125,66.175 64.9125,66.175 64.6625,66.175 C64.1375,66.175 63.8375,65.85 63.8375,65.2 L63.8375,57.35 C63.8375,57.05 63.6625,56.875 63.3625,56.875 L60.6125,56.875 C60.3125,56.875 60.1375,57.05 60.1375,57.35 L60.1375,57.625 C59.1375,56.85 57.9125,56.475 56.5875,56.475 C52.7125,56.475 50.0125,59.125 50.0125,62.95 C50.0125,66.75 52.7125,69.4 56.5875,69.4 C58.2125,69.4 59.6125,68.9 60.7875,67.875 C61.3125,68.825 62.4125,69.4 63.9375,69.4 Z M56.9125,66.475 C55.0125,66.475 53.6875,65.025 53.6875,62.95 C53.6875,60.85 55.0125,59.4 56.9125,59.4 C58.7875,59.4 60.0625,60.85 60.0625,62.95 C60.0625,65.025 58.7875,66.475 56.9125,66.475 Z M73.7375,69.4 C77.2875,69.4 79.5125,67.875 79.5125,65.425 C79.5125,60.25 71.6375,62.6 71.6375,60.1 C71.6375,59.45 72.4375,59.05 73.5875,59.05 C74.6625,59.05 75.5875,59.525 75.8875,60.275 C75.9875,60.45 76.1125,60.575 76.3875,60.575 L78.8625,60.575 C79.1625,60.575 79.3625,60.4 79.3125,60.075 C78.9625,57.9 76.6625,56.475 73.5375,56.475 C70.2125,56.475 67.9875,58.05 67.9875,60.4 C67.9875,65.625 75.7875,63.225 75.7875,65.6 C75.7875,66.25 74.9625,66.7 73.7375,66.7 C72.2875,66.7 71.3375,66.2 71.0125,65.35 C70.8625,65.125 70.7625,65 70.4625,65 L68.0125,64.975 C67.6875,64.975 67.4875,65.15 67.5375,65.475 C67.9125,67.925 70.2375,69.4 73.7375,69.4 Z" id="metdeOmring-pas" fill="#FFFFFF" fill-rule="nonzero"></path>
            </g>
        </g>
    </g>
</svg>