<?xml version="1.0" encoding="UTF-8"?>
<svg width="98px" height="30px" viewBox="0 0 98 30" version="1.1" xmlns="http://www.w3.org/2000/svg" xmlns:xlink="http://www.w3.org/1999/xlink">
    <title>t.w.v. € 10,- voor u</title>
    <g id="Spotlight-3---Okt_Dec----HTML-5-banners" stroke="none" stroke-width="1" fill="none" fill-rule="evenodd">
        <g id="120x600px_2" transform="translate(-10.000000, -332.000000)" fill="#FFFFFF" fill-rule="nonzero">
            <g id="t.w.v.-€-10,--voor-u" transform="translate(10.726562, 332.891074)">
                <path d="M5.2402314,12.3798347 C5.73203306,12.3798347 6.4612562,12.2780826 7.12264463,12.1084959 C7.27527273,12.0576198 7.34310744,11.9558678 7.32614876,11.8032397 L7.12264463,10.6161322 C7.08872727,10.4635041 6.98697521,10.3787107 6.81738843,10.4126281 C6.39342149,10.5143802 5.88466116,10.5652562 5.47765289,10.5652562 C4.59580165,10.5652562 4.01920661,9.9547438 4.01920661,9.03897521 L4.01920661,5.63028099 L6.90218182,5.63028099 C7.05480992,5.63028099 7.15656198,5.52852893 7.15656198,5.37590083 L7.15656198,4.23966942 C7.15656198,4.08704132 7.05480992,3.98528926 6.90218182,3.98528926 L4.01920661,3.98528926 L4.01920661,1.72978512 C4.01920661,1.57715702 3.91745455,1.47540496 3.76482645,1.47540496 L2.2046281,1.47540496 C2.052,1.47540496 1.95024793,1.57715702 1.95024793,1.72978512 L1.95024793,3.98528926 L0.254380165,3.98528926 C0.101752066,3.98528926 0,4.08704132 0,4.23966942 L0,5.37590083 C0,5.52852893 0.101752066,5.63028099 0.254380165,5.63028099 L1.95024793,5.63028099 L1.95024793,9.10680992 C1.95024793,11.0740165 3.27302479,12.3798347 5.2402314,12.3798347 Z" id="Path"></path>
                <path d="M9.63252893,12.3798347 C10.310876,12.3798347 10.8535537,11.8710744 10.8535537,11.2266446 C10.8535537,10.5822149 10.310876,10.0734545 9.63252893,10.0734545 C8.9711405,10.0734545 8.42846281,10.5822149 8.42846281,11.2266446 C8.42846281,11.8710744 8.9711405,12.3798347 9.63252893,12.3798347 Z" id="Path"></path>
                <path d="M15.0932231,12.1254545 L16.466876,12.1254545 C16.6025455,12.1254545 16.7042975,12.0745785 16.7551736,11.9219504 L18.4510413,7.15656198 L20.1469091,11.9219504 C20.1977851,12.0745785 20.2995372,12.1254545 20.4352066,12.1254545 L21.8088595,12.1254545 C21.9445289,12.1254545 22.0632397,12.0576198 22.1141157,11.9219504 L25.0818843,4.27358678 C25.149719,4.08704132 25.0649256,3.98528926 24.8783802,3.98528926 L23.1825124,3.98528926 C23.046843,3.98528926 22.9450909,4.03616529 22.8942149,4.18879339 L21.1135537,9.02201653 L19.4007273,4.18879339 C19.3498512,4.03616529 19.2480992,3.98528926 19.1124298,3.98528926 L17.7896529,3.98528926 C17.6539835,3.98528926 17.5522314,4.03616529 17.5013554,4.18879339 L15.7715702,9.00505785 L14.0078678,4.18879339 C13.9569917,4.03616529 13.8552397,3.98528926 13.7195702,3.98528926 L12.0067438,3.98528926 C11.8201983,3.98528926 11.735405,4.08704132 11.8032397,4.27358678 L14.7879669,11.9219504 C14.838843,12.0576198 14.9575537,12.1254545 15.0932231,12.1254545 Z" id="Path"></path>
                <path d="M27.2356364,12.3798347 C27.9139835,12.3798347 28.4566612,11.8710744 28.4566612,11.2266446 C28.4566612,10.5822149 27.9139835,10.0734545 27.2356364,10.0734545 C26.5742479,10.0734545 26.0315702,10.5822149 26.0315702,11.2266446 C26.0315702,11.8710744 26.5742479,12.3798347 27.2356364,12.3798347 Z" id="Path"></path>
                <path d="M33.3916364,12.1254545 L34.8161653,12.1254545 C34.9518347,12.1254545 35.0535868,12.0576198 35.1044628,11.9389091 L38.7844959,4.29054545 C38.8692893,4.104 38.7844959,3.98528926 38.5979504,3.98528926 L36.9529587,3.98528926 C36.8172893,3.98528926 36.7155372,4.05312397 36.6646612,4.17183471 L34.1039008,9.63252893 L31.5770579,4.17183471 C31.5261818,4.05312397 31.4244298,3.98528926 31.2887603,3.98528926 L29.6098512,3.98528926 C29.4233058,3.98528926 29.3385124,4.104 29.4233058,4.29054545 L33.1033388,11.9389091 C33.1542149,12.0576198 33.2559669,12.1254545 33.3916364,12.1254545 Z" id="Path"></path>
                <path d="M40.9552066,12.3798347 C41.6335537,12.3798347 42.1762314,11.8710744 42.1762314,11.2266446 C42.1762314,10.5822149 41.6335537,10.0734545 40.9552066,10.0734545 C40.2938182,10.0734545 39.7511405,10.5822149 39.7511405,11.2266446 C39.7511405,11.8710744 40.2938182,12.3798347 40.9552066,12.3798347 Z" id="Path"></path>
                <path d="M61.3904132,7.64836364 L59.6775868,7.64836364 C59.5419174,7.64836364 59.4401653,7.71619835 59.3892893,7.86882645 C58.8635702,9.46294215 57.506876,10.4126281 55.7431736,10.4126281 C53.9625124,10.4126281 52.6058182,9.54773554 51.9613884,8.14016529 L55.6753388,8.14016529 C55.8279669,8.14016529 55.929719,8.0553719 55.9636364,7.91970248 L56.2010579,7.03785124 C56.2519339,6.85130579 56.1671405,6.74955372 55.9975537,6.74955372 L51.6052562,6.74955372 C51.5882975,6.56300826 51.5713388,6.37646281 51.5713388,6.17295868 C51.5713388,5.96945455 51.5882975,5.78290909 51.6052562,5.59636364 L56.3367273,5.59636364 C56.4893554,5.59636364 56.5911074,5.51157025 56.6250248,5.37590083 L56.8624463,4.49404959 C56.9133223,4.30750413 56.8285289,4.20575207 56.6589421,4.20575207 L51.9783471,4.20575207 C52.6058182,2.79818182 53.9625124,1.95024793 55.7431736,1.95024793 C57.5238347,1.95024793 58.7957355,2.91689256 59.3892893,4.51100826 C59.4401653,4.64667769 59.5419174,4.7145124 59.6775868,4.7145124 L61.3904132,4.7145124 C61.56,4.7145124 61.6617521,4.61276033 61.6278347,4.44317355 C61.085157,1.7467438 58.7109421,0 55.7431736,0 C52.6397355,0 50.3842314,1.62803306 49.6380496,4.20575207 L48.1117686,4.20575207 C47.9591405,4.20575207 47.8573884,4.30750413 47.8573884,4.46013223 L47.8573884,5.34198347 C47.8573884,5.49461157 47.9591405,5.59636364 48.1117686,5.59636364 L49.3836694,5.59636364 C49.3667107,5.78290909 49.3667107,5.96945455 49.3667107,6.17295868 C49.3667107,6.37646281 49.3667107,6.56300826 49.3836694,6.74955372 L48.1117686,6.74955372 C47.9591405,6.74955372 47.8573884,6.85130579 47.8573884,7.00393388 L47.8573884,7.88578512 C47.8573884,8.03841322 47.9591405,8.14016529 48.1117686,8.14016529 L49.6380496,8.14016529 C50.3672727,10.734843 52.6397355,12.362876 55.7431736,12.362876 C58.7109421,12.362876 61.085157,10.6161322 61.6278347,7.91970248 C61.6617521,7.7501157 61.56,7.64836364 61.3904132,7.64836364 Z" id="Path"></path>
                <path d="M72.0065455,0.254380165 L67.2581157,0.254380165 C67.1054876,0.254380165 67.0546116,0.339173554 67.0546116,0.474842975 L67.0546116,1.84849587 C67.0546116,2.01808264 67.1733223,2.06895868 67.3429091,2.06895868 L70.1071736,2.06895868 L70.1071736,11.8710744 C70.1071736,12.0237025 70.2089256,12.1254545 70.3615537,12.1254545 L72.0065455,12.1254545 C72.1591736,12.1254545 72.2609256,12.0237025 72.2609256,11.8710744 L72.2609256,0.508760331 C72.2609256,0.356132231 72.1591736,0.254380165 72.0065455,0.254380165 Z" id="Path"></path>
                <path d="M79.6379504,0 C76.6871405,0 74.7199339,1.84849587 74.7199339,4.62971901 L74.7199339,7.7501157 C74.7199339,10.5313388 76.6871405,12.3798347 79.6379504,12.3798347 C82.5887603,12.3798347 84.5559669,10.5313388 84.5559669,7.7501157 L84.5559669,4.62971901 C84.5559669,1.84849587 82.5887603,0 79.6379504,0 Z M82.4022149,7.7501157 C82.4022149,9.42902479 81.2999008,10.5482975 79.6379504,10.5482975 C77.976,10.5482975 76.873686,9.42902479 76.873686,7.7501157 L76.873686,4.62971901 C76.873686,2.95080992 77.976,1.83153719 79.6379504,1.83153719 C81.2999008,1.83153719 82.4022149,2.95080992 82.4022149,4.62971901 L82.4022149,7.7501157 Z" id="Shape"></path>
                <path d="M87.3371901,10.1073719 C86.658843,10.1073719 86.0822479,10.6161322 86.0822479,11.260562 C86.0822479,11.735405 86.4044628,12.1084959 86.8453884,12.261124 L86.133124,13.7704463 C86.0483306,13.9569917 86.133124,14.0757025 86.3196694,14.0757025 L87.0319339,14.0757025 C87.1676033,14.0757025 87.2693554,14.0417851 87.3371901,13.9061157 L88.3207934,12.1254545 C88.4734215,11.837157 88.6260496,11.5319008 88.6260496,11.260562 C88.6260496,10.6161322 88.0494545,10.1073719 87.3371901,10.1073719 Z" id="Path"></path>
                <path d="M91.0850579,8.64892562 L96.7662149,8.64892562 C96.918843,8.64892562 97.020595,8.54717355 97.020595,8.39454545 L97.020595,6.95305785 C97.020595,6.80042975 96.918843,6.69867769 96.7662149,6.69867769 L91.0850579,6.69867769 C90.9324298,6.69867769 90.8306777,6.80042975 90.8306777,6.95305785 L90.8306777,8.39454545 C90.8306777,8.54717355 90.9324298,8.64892562 91.0850579,8.64892562 Z" id="Path"></path>
                <path d="M9.5392562,28.1419835 L10.9637851,28.1419835 C11.0994545,28.1419835 11.2012066,28.0741488 11.2520826,27.955438 L14.9321157,20.3070744 C15.0169091,20.1205289 14.9321157,20.0018182 14.7455702,20.0018182 L13.1005785,20.0018182 C12.9649091,20.0018182 12.863157,20.0696529 12.812281,20.1883636 L10.2515207,25.6490579 L7.72467769,20.1883636 C7.67380165,20.0696529 7.57204959,20.0018182 7.43638017,20.0018182 L5.75747107,20.0018182 C5.57092562,20.0018182 5.48613223,20.1205289 5.57092562,20.3070744 L9.25095868,27.955438 C9.30183471,28.0741488 9.40358678,28.1419835 9.5392562,28.1419835 Z" id="Path"></path>
                <path d="M20.596314,28.3963636 C23.3097025,28.3963636 25.124281,26.6665785 25.124281,24.0719008 C25.124281,21.4772231 23.3097025,19.747438 20.596314,19.747438 C17.8829256,19.747438 16.0683471,21.4772231 16.0683471,24.0719008 C16.0683471,26.6665785 17.8829256,28.3963636 20.596314,28.3963636 Z M20.596314,26.6157025 C19.1209091,26.6157025 18.1373058,25.5981818 18.1373058,24.0719008 C18.1373058,22.5456198 19.1209091,21.5280992 20.596314,21.5280992 C22.071719,21.5280992 23.0553223,22.5456198 23.0553223,24.0719008 C23.0553223,25.5981818 22.071719,26.6157025 20.596314,26.6157025 Z" id="Shape"></path>
                <path d="M31.1785289,28.3963636 C33.8919174,28.3963636 35.7064959,26.6665785 35.7064959,24.0719008 C35.7064959,21.4772231 33.8919174,19.747438 31.1785289,19.747438 C28.4651405,19.747438 26.650562,21.4772231 26.650562,24.0719008 C26.650562,26.6665785 28.4651405,28.3963636 31.1785289,28.3963636 Z M31.1785289,26.6157025 C29.703124,26.6157025 28.7195207,25.5981818 28.7195207,24.0719008 C28.7195207,22.5456198 29.703124,21.5280992 31.1785289,21.5280992 C32.6539339,21.5280992 33.6375372,22.5456198 33.6375372,24.0719008 C33.6375372,25.5981818 32.6539339,26.6157025 31.1785289,26.6157025 Z" id="Shape"></path>
                <path d="M44.2875868,19.9170248 C43.9484132,19.8152727 43.4566116,19.747438 43.015686,19.747438 C41.8794545,19.747438 40.9128099,20.1883636 40.2005455,20.9684628 C39.9292066,20.2053223 39.1999835,19.747438 38.2163802,19.747438 C37.8941653,19.747438 37.5041157,19.8152727 37.1819008,19.9170248 C37.0292727,19.9679008 36.9783967,20.0696529 36.9783967,20.222281 L36.9783967,21.4093884 C36.9783967,21.5789752 37.1140661,21.6298512 37.2836529,21.6128926 C37.4023636,21.5959339 37.6397851,21.5620165 37.7584959,21.5620165 C38.2502975,21.5620165 38.4707603,21.7655207 38.4707603,22.1894876 L38.4707603,27.8876033 C38.4707603,28.0402314 38.5725124,28.1419835 38.7251405,28.1419835 L40.2853388,28.1419835 C40.4379669,28.1419835 40.539719,28.0402314 40.539719,27.8876033 L40.539719,24.0719008 C40.539719,22.5964959 41.5572397,21.6128926 42.9987273,21.6128926 C43.3379008,21.6128926 43.6770744,21.6468099 43.9653719,21.697686 C44.1349587,21.7316033 44.2367107,21.6637686 44.2706281,21.4941818 L44.4741322,20.222281 C44.4910909,20.0696529 44.4402149,19.9679008 44.2875868,19.9170248 Z" id="Path"></path>
                <path d="M60.5000826,27.8876033 L60.3644132,26.7174545 C60.3474545,26.5478678 60.2287438,26.4800331 60.059157,26.5139504 C59.7878182,26.5648264 59.6351901,26.5817851 59.431686,26.5817851 C59.0755537,26.5817851 58.8381322,26.327405 58.8381322,25.954314 L58.8381322,20.2561983 C58.8381322,20.1035702 58.7363802,20.0018182 58.5837521,20.0018182 L57.0235537,20.0018182 C56.8709256,20.0018182 56.7691736,20.1035702 56.7691736,20.2561983 L56.7691736,24.5467438 C56.7691736,25.7847273 55.8703636,26.6157025 54.5645455,26.6157025 C53.3096033,26.6157025 52.4786281,25.7338512 52.4786281,24.4280331 L52.4786281,20.2561983 C52.4786281,20.1035702 52.376876,20.0018182 52.2242479,20.0018182 L50.6640496,20.0018182 C50.5114215,20.0018182 50.4096694,20.1035702 50.4096694,20.2561983 L50.4096694,24.5467438 C50.4096694,26.853124 51.9020331,28.3963636 54.1236198,28.3963636 C55.327686,28.3963636 56.3282479,28.0571901 57.0405124,27.4466777 C57.4136033,28.0402314 58.1597851,28.3963636 59.1433884,28.3963636 C59.5164793,28.3963636 59.8726116,28.3285289 60.2965785,28.1928595 C60.4492066,28.1419835 60.5170413,28.0402314 60.5000826,27.8876033 Z" id="Path"></path>
                <path d="M69.0133388,20.0018182 L62.009405,20.0018182 C61.8567769,20.0018182 61.7550248,20.1035702 61.7550248,20.2561983 L61.7550248,21.3754711 C61.7550248,21.5280992 61.8567769,21.6298512 62.009405,21.6298512 L66.2999504,21.6298512 L61.7211074,27.0905455 C61.636314,27.1753388 61.6023967,27.2940496 61.6023967,27.4127603 L61.6023967,27.8876033 C61.6023967,28.0402314 61.7041488,28.1419835 61.8567769,28.1419835 L68.9963802,28.1419835 C69.1490083,28.1419835 69.2507603,28.0402314 69.2507603,27.8876033 L69.2507603,26.7683306 C69.2507603,26.6157025 69.1490083,26.5139504 68.9963802,26.5139504 L64.6549587,26.5139504 L69.1490083,21.1889256 C69.2338017,21.1041322 69.267719,20.9854215 69.267719,20.8667107 L69.267719,20.2561983 C69.267719,20.1035702 69.1659669,20.0018182 69.0133388,20.0018182 Z" id="Path"></path>
                <path d="M75.1354215,28.3963636 C76.9160826,28.3963636 78.425405,27.5653884 79.002,26.2765289 C79.0867934,26.1069421 78.9850413,25.9882314 78.7984959,25.9882314 L77.1195868,25.9882314 C76.9839174,25.9882314 76.899124,26.0391074 76.7973719,26.1408595 C76.4921157,26.4969917 75.8816033,26.7344132 75.1862975,26.7344132 C73.9652727,26.7344132 73.0155868,26.0221488 72.7103306,24.902876 L78.9680826,24.902876 C79.1207107,24.902876 79.2224628,24.8350413 79.2563802,24.6824132 C79.2733388,24.4619504 79.2902975,24.2245289 79.2902975,24.0040661 C79.2902975,21.4433058 77.5774711,19.747438 75.0167107,19.747438 C72.3881157,19.747438 70.6244132,21.4772231 70.6244132,24.0719008 C70.6244132,26.6665785 72.4389917,28.3963636 75.1354215,28.3963636 Z M72.6594545,23.4444298 C72.8290413,22.223405 73.795686,21.4093884 75.0675868,21.4093884 C76.3394876,21.4093884 77.1535041,22.2573223 77.1874215,23.4444298 L72.6594545,23.4444298 Z" id="Shape"></path>
                <path d="M83.6147603,28.3963636 C83.9878512,28.3963636 84.3439835,28.3285289 84.7679504,28.1928595 C84.9205785,28.1419835 84.9884132,28.0402314 84.9714545,27.8876033 L84.8357851,26.7174545 C84.8188264,26.5478678 84.7001157,26.4800331 84.5305289,26.5139504 C84.2591901,26.5648264 84.106562,26.5817851 83.9030579,26.5817851 C83.5469256,26.5817851 83.3095041,26.327405 83.3095041,25.954314 L83.3095041,15.8469421 C83.3095041,15.694314 83.2077521,15.592562 83.055124,15.592562 L81.4949256,15.592562 C81.3422975,15.592562 81.2405455,15.694314 81.2405455,15.8469421 L81.2405455,26.5139504 C81.2405455,27.6501818 82.1902314,28.3963636 83.6147603,28.3963636 Z" id="Path"></path>
                <path d="M88.1936033,28.1419835 L89.7538017,28.1419835 C89.9064298,28.1419835 90.0081818,28.0402314 90.0081818,27.8876033 L90.0081818,21.6468099 L93.0946612,21.6468099 C93.2472893,21.6468099 93.3490413,21.5450579 93.3490413,21.3924298 L93.3490413,20.2561983 C93.3490413,20.1035702 93.2472893,20.0018182 93.0946612,20.0018182 L90.0081818,20.0018182 L90.0081818,18.7638347 C90.0081818,17.7802314 90.737405,17.1358017 91.788843,17.1358017 C92.2128099,17.1358017 92.7554876,17.2036364 93.1455372,17.3223471 C93.315124,17.3732231 93.416876,17.2545124 93.4507934,17.1018843 L93.6542975,15.8978182 C93.6882149,15.7282314 93.6203802,15.6603967 93.4677521,15.6095207 C92.8572397,15.4229752 92.0601818,15.3381818 91.5175041,15.3381818 C89.3637521,15.3381818 87.9392231,16.7118347 87.9392231,18.7638347 L87.9392231,20.0018182 L85.8193884,20.0018182 C85.6667603,20.0018182 85.5650083,20.1035702 85.5650083,20.2561983 L85.5650083,21.3924298 C85.5650083,21.5450579 85.6667603,21.6468099 85.8193884,21.6468099 L87.9392231,21.6468099 L87.9392231,27.8876033 C87.9392231,28.0402314 88.0409752,28.1419835 88.1936033,28.1419835 Z" id="Path"></path>
            </g>
        </g>
    </g>
</svg>