<?xml version="1.0" encoding="UTF-8"?>
<svg width="120px" height="27px" viewBox="0 0 120 27" version="1.1" xmlns="http://www.w3.org/2000/svg" xmlns:xlink="http://www.w3.org/1999/xlink">
    <!-- Generator: Sketch 52.5 (67469) - http://www.bohemiancoding.com/sketch -->
    <title>Devani_logo</title>
    <desc>Created with Sketch.</desc>
    <g id="Symbols" stroke="none" stroke-width="1" fill="none" fill-rule="evenodd">
        <g id="Menu-hoofd" transform="translate(-150.000000, -36.000000)" fill="#00FF42">
            <g id="Devani_logo_GROEN" transform="translate(150.000000, 36.000000)">
                <g>
                    <polygon id="Path" points="119.869362 11.5979113 113.981537 0.311924264 119.81302 0.311924264"></polygon>
                    <polygon id="Path" points="68.9636191 0.283567513 63.5547078 0.283567513 63.498365 0.396994518 54.3426557 19.5661584 44.6798611 0.396994518 44.6235182 0.283567513 38.7075215 0.283567513 38.87655 0.595491777 44.3699755 11.3710573 52.1171141 26.5419192 52.1734569 26.6553462 56.0611119 26.6553462 56.1174547 26.5419192 68.7945906 0.595491777"></polygon>
                    <polygon id="SVGID_2_" points="113.953366 4.28186944 113.953366 26.6269894 119.869362 26.6269894 119.841191 15.7096402"></polygon>
                    <polygon id="Path" points="48.2294591 26.7404164 45.7503748 21.8630552 32.5098106 21.8630552 32.5098106 15.3977159 42.4543194 15.3977159 40.1442636 10.8606357 32.5098106 10.8606357 32.5098106 5.16092873 37.2144366 5.16092873 34.8198665 0.482064772 26.7628424 0.482064772 26.7628424 26.79713 48.2576305 26.79713"></polygon>
                    <path d="M89.8104647,26.3717787 L76.6825863,0.425351269 L76.6262434,0.311924264 L72.7385884,0.311924264 L72.6822456,0.425351269 L60.0051097,26.3717787 L59.8642527,26.6837029 L65.3576782,26.6837029 L65.414021,26.5702759 L67.9776196,20.9839959 L81.8661263,20.9839959 L84.4297248,26.5702759 L84.4860677,26.6837029 L89.9794932,26.6837029 L89.8104647,26.3717787 Z M70.3440183,15.851424 L74.8796158,5.84149076 L79.5842418,15.8230672 L70.3440183,15.851424 Z" id="Shape" fill-rule="nonzero"></path>
                    <polygon id="Path" points="104.797656 0.22685401 104.797656 16.75884 90.035836 0.340281015 89.9231504 0.22685401 85.8101241 0.22685401 85.8101241 10.4636412 91.331721 21.2959202 91.331721 9.78307919 106.037199 26.4568489 106.121713 26.5419192 110.291082 26.5419192 110.291082 0.22685401"></polygon>
                    <path d="M10.8178226,0.425351269 L0.112685652,0.425351269 L0.112685652,26.7404164 L9.43742336,26.7404164 C19.4101036,26.7404164 24.4527865,22.4018335 24.4527865,13.4978136 C24.4246151,5.33106924 19.7763319,0.425351269 10.8178226,0.425351269 Z M8.2260526,21.8063417 L5.66245402,21.8063417 L5.66245402,5.13257198 L10.845994,5.13257198 C16.1140483,5.13257198 18.7339897,7.68467959 18.7339897,13.1575326 C18.7621611,19.9915096 15.2689059,21.8063417 8.2260526,21.8063417 Z" id="Shape" fill-rule="nonzero"></path>
                </g>
            </g>
        </g>
    </g>
</svg>