<?xml version="1.0" encoding="UTF-8"?>
<svg width="113px" height="110px" viewBox="0 0 113 110" version="1.1" xmlns="http://www.w3.org/2000/svg" xmlns:xlink="http://www.w3.org/1999/xlink">
    <title>Text Copy</title>
    <defs>
        <rect id="path-1" x="0" y="0" width="108.445796" height="20.2293008" rx="10.1146504"></rect>
        <filter x="-2.8%" y="-14.8%" width="105.5%" height="129.7%" filterUnits="objectBoundingBox" id="filter-2">
            <feOffset dx="0" dy="0" in="SourceAlpha" result="shadowOffsetOuter1"></feOffset>
            <feGaussianBlur stdDeviation="1" in="shadowOffsetOuter1" result="shadowBlurOuter1"></feGaussianBlur>
            <feColorMatrix values="0 0 0 0 0   0 0 0 0 0.368045807   0 0 0 0 0.361608624  0 0 0 0.5 0" type="matrix" in="shadowBlurOuter1"></feColorMatrix>
        </filter>
    </defs>
    <g id="Spotlight-3---Okt_Dec----HTML-5-banners" stroke="none" stroke-width="1" fill="none" fill-rule="evenodd">
        <g id="120x600px_4" transform="translate(-4.000000, -211.000000)">
            <g id="Text-Copy" transform="translate(6.077099, 213.085349)">
                <g id="Group">
                    <g id="Rectangle">
                        <use fill="black" fill-opacity="1" filter="url(#filter-2)" xlink:href="#path-1"></use>
                        <use fill="#F78E1E" fill-rule="evenodd" xlink:href="#path-1"></use>
                    </g>
                    <g id="B" transform="translate(7.957780, 4.369077)" fill="#FFFFFF" fill-rule="nonzero">
                        <path d="M0.326366054,11.6839047 L5.92354388,11.6839047 C8.5018357,11.6839047 10.1826209,10.4763503 10.1826209,8.61606382 C10.1826209,7.18005319 9.31775084,6.10304521 7.8980585,5.80931576 L7.8980585,5.74404255 C9.02402139,5.33608498 9.62779859,4.35698682 9.62779859,3.21470563 C9.62779859,1.43601064 8.09387814,0.261092843 5.71140594,0.261092843 L0.326366054,0.261092843 C0.130546422,0.261092843 0,0.375320962 0,0.571140594 L0,11.373857 C0,11.5696766 0.130546422,11.6839047 0.326366054,11.6839047 Z M2.56197352,5.00971893 L2.56197352,2.26824407 L5.33608498,2.26824407 C6.55995768,2.26824407 7.19637149,2.79042976 7.19637149,3.52475338 C7.19637149,4.38962342 6.41309296,5.00971893 5.20553856,5.00971893 L2.56197352,5.00971893 Z M2.56197352,9.66043519 L2.56197352,6.91896034 L5.87458897,6.91896034 C6.95159695,6.91896034 7.66960227,7.45746433 7.66960227,8.28969777 C7.66960227,9.12193121 6.88632374,9.66043519 5.69508764,9.66043519 L2.56197352,9.66043519 Z" id="Shape"></path>
                        <path d="M20.6752895,2.08874274 L20.6752895,0.571140594 C20.6752895,0.375320962 20.5610614,0.261092843 20.3652418,0.261092843 L12.2550453,0.261092843 C12.0592257,0.261092843 11.9286793,0.375320962 11.9286793,0.571140594 L11.9286793,11.373857 C11.9286793,11.5696766 12.0592257,11.6839047 12.2550453,11.6839047 L20.3652418,11.6839047 C20.5610614,11.6839047 20.6752895,11.5696766 20.6752895,11.373857 L20.6752895,9.85625483 C20.6752895,9.6767535 20.5610614,9.56252538 20.3652418,9.56252538 L14.4906528,9.56252538 L14.4906528,7.08214337 L19.5982815,7.08214337 C19.7941012,7.08214337 19.9083293,6.96791525 19.9083293,6.77209562 L19.9083293,5.27081177 C19.9083293,5.09131044 19.7941012,4.97708232 19.5982815,4.97708232 L14.4906528,4.97708232 L14.4906528,2.38247219 L20.3652418,2.38247219 C20.5610614,2.38247219 20.6752895,2.26824407 20.6752895,2.08874274 Z" id="Path"></path>
                        <path d="M27.2352472,11.9286793 C30.0746319,11.9286793 31.967555,10.5253052 31.967555,8.38760758 C31.967555,3.80216453 25.2444143,5.95618048 25.2444143,3.37788866 C25.2444143,2.54565522 26.0440111,2.02346953 27.1862923,2.02346953 C28.2796186,2.02346953 29.0628971,2.49670031 29.3076716,3.34525205 C29.3892632,3.52475338 29.487173,3.59002659 29.6666743,3.59002659 L31.6248706,3.59002659 C31.8370086,3.59002659 31.967555,3.47579847 31.9186001,3.27997884 C31.5595974,1.240191 29.5524462,0 27.0394276,0 C24.314271,0 22.4703028,1.41969233 22.4703028,3.54107168 C22.4703028,8.30601607 29.2587167,6.10304521 29.2587167,8.59974552 C29.2587167,9.38302405 28.4917565,9.87257313 27.3005204,9.87257313 C25.8971464,9.87257313 24.8690933,9.25247763 24.6080005,8.30601607 C24.5427273,8.14283304 24.4448174,8.04492323 24.2653161,8.04492323 L22.3234381,8.04492323 C22.1276185,8.04492323 21.997072,8.15915135 22.0297086,8.37128928 C22.3397564,10.5253052 24.4121808,11.9286793 27.2352472,11.9286793 Z" id="Path"></path>
                        <path d="M43.2761387,0.261092843 L33.5667486,0.261092843 C33.3872473,0.261092843 33.2567009,0.375320962 33.2567009,0.571140594 L33.2567009,2.12137935 C33.2567009,2.31719898 33.3872473,2.4314271 33.5667486,2.4314271 L37.1404569,2.4314271 L37.1404569,11.373857 C37.1404569,11.5696766 37.2710034,11.6839047 37.4505047,11.6839047 L39.3923827,11.6839047 C39.571884,11.6839047 39.7024305,11.5696766 39.7024305,11.373857 L39.7024305,2.4314271 L43.2761387,2.4314271 C43.4719584,2.4314271 43.5861865,2.31719898 43.5861865,2.12137935 L43.5861865,0.571140594 C43.5861865,0.375320962 43.4719584,0.261092843 43.2761387,0.261092843 Z" id="Path"></path>
                        <path d="M53.8503989,2.08874274 L53.8503989,0.571140594 C53.8503989,0.375320962 53.7361708,0.261092843 53.5403511,0.261092843 L45.4301547,0.261092843 C45.2343351,0.261092843 45.1037886,0.375320962 45.1037886,0.571140594 L45.1037886,11.373857 C45.1037886,11.5696766 45.2343351,11.6839047 45.4301547,11.6839047 L53.5403511,11.6839047 C53.7361708,11.6839047 53.8503989,11.5696766 53.8503989,11.373857 L53.8503989,9.85625483 C53.8503989,9.6767535 53.7361708,9.56252538 53.5403511,9.56252538 L47.6657622,9.56252538 L47.6657622,7.08214337 L52.7733909,7.08214337 C52.9692105,7.08214337 53.0834387,6.96791525 53.0834387,6.77209562 L53.0834387,5.27081177 C53.0834387,5.09131044 52.9692105,4.97708232 52.7733909,4.97708232 L47.6657622,4.97708232 L47.6657622,2.38247219 L53.5403511,2.38247219 C53.7361708,2.38247219 53.8503989,2.26824407 53.8503989,2.08874274 Z" id="Path"></path>
                        <path d="M58.1421125,9.56252538 L58.1421125,0.571140594 C58.1421125,0.375320962 58.0278844,0.261092843 57.8320647,0.261092843 L55.906505,0.261092843 C55.7106854,0.261092843 55.580139,0.375320962 55.580139,0.571140594 L55.580139,11.373857 C55.580139,11.5696766 55.7106854,11.6839047 55.906505,11.6839047 L63.8045635,11.6839047 C64.0003832,11.6839047 64.1146113,11.5696766 64.1146113,11.373857 L64.1146113,9.85625483 C64.1146113,9.6767535 64.0003832,9.56252538 63.8045635,9.56252538 L58.1421125,9.56252538 Z" id="Path"></path>
                        <path d="M77.8056672,0.571140594 L77.8056672,7.42482773 L71.8821234,0.42427587 C71.7842136,0.310047751 71.6699854,0.261092843 71.5068024,0.261092843 L70.0544735,0.261092843 C69.8586538,0.261092843 69.7281074,0.375320962 69.7281074,0.571140594 L69.7281074,11.373857 C69.7281074,11.5696766 69.8586538,11.6839047 70.0544735,11.6839047 L71.9800332,11.6839047 C72.1758528,11.6839047 72.2900809,11.5696766 72.2900809,11.373857 L72.2900809,4.68335287 L78.1646699,11.5207217 C78.2625797,11.6349498 78.3931261,11.6839047 78.5399909,11.6839047 L80.057593,11.6839047 C80.2370943,11.6839047 80.3676408,11.5696766 80.3676408,11.373857 L80.3676408,0.571140594 C80.3676408,0.375320962 80.2370943,0.261092843 80.057593,0.261092843 L78.115715,0.261092843 C77.9362137,0.261092843 77.8056672,0.375320962 77.8056672,0.571140594 Z" id="Path"></path>
                        <path d="M87.7271953,11.9449976 C91.0398107,11.9449976 93.1122352,9.90520974 93.1122352,6.6741858 L93.1122352,0.571140594 C93.1122352,0.375320962 92.9816888,0.261092843 92.8021874,0.261092843 L90.8439911,0.261092843 C90.6481715,0.261092843 90.5339433,0.375320962 90.5339433,0.571140594 L90.5339433,6.70682241 C90.5339433,8.51815401 89.4242988,9.6930718 87.7271953,9.6930718 C86.0464101,9.6930718 84.9367655,8.51815401 84.9367655,6.70682241 L84.9367655,0.571140594 C84.9367655,0.375320962 84.8225374,0.261092843 84.6267178,0.261092843 L82.6848398,0.261092843 C82.4890201,0.261092843 82.3584737,0.375320962 82.3584737,0.571140594 L82.3584737,6.6741858 C82.3584737,9.90520974 84.4308981,11.9449976 87.7271953,11.9449976 Z" id="Path"></path>
                    </g>
                </g>
                <g id="de-Omring-pas" transform="translate(0.558901, 36.154651)" fill="#FFFFFF" fill-rule="nonzero">
                    <path d="M54.012,17.352 L53.796,15.36 C53.772,15.048 53.58,14.952 53.268,14.976 C52.98,15.048 52.788,15.048 52.548,15.048 C52.044,15.048 51.756,14.736 51.756,14.136 L51.756,0.456 C51.756,0.168 51.588,0 51.3,0 L48.588,0 C48.3,0 48.132,0.168 48.132,0.456 L48.132,6.768 C47.148,6.048 46.02,5.736 44.796,5.736 C41.076,5.736 38.484,8.28 38.484,11.952 C38.484,15.6 41.076,18.144 44.796,18.144 C46.404,18.144 47.724,17.64 48.78,16.632 C49.284,17.592 50.388,18.144 51.804,18.144 C52.404,18.144 53.004,18.048 53.652,17.856 C53.94,17.784 54.06,17.616 54.012,17.352 Z M45.108,15.336 C43.284,15.336 42.012,13.944 42.012,11.952 C42.012,9.936 43.284,8.544 45.108,8.544 C46.908,8.544 48.132,9.936 48.132,11.952 C48.132,13.944 46.908,15.336 45.108,15.336 Z" id="Shape"></path>
                    <path d="M62.172,18.144 C64.884,18.144 67.044,16.92 67.86,14.928 C67.98,14.64 67.812,14.448 67.476,14.448 L64.788,14.448 C64.548,14.448 64.404,14.544 64.212,14.688 C63.804,15.144 63.084,15.408 62.244,15.408 C60.66,15.408 59.46,14.52 59.076,13.08 L67.692,13.08 C67.956,13.08 68.148,12.96 68.196,12.672 C68.196,12.408 68.22,12.12 68.22,11.856 C68.22,8.208 65.844,5.736 61.956,5.736 C58.14,5.736 55.572,8.208 55.572,11.952 C55.572,15.672 58.236,18.144 62.172,18.144 Z M59.052,10.944 C59.268,9.432 60.468,8.4 62.052,8.4 C63.66,8.4 64.716,9.456 64.788,10.944 L59.052,10.944 Z" id="Shape"></path>
                    <path d="M9.144,42.12 C14.52,42.12 18.288,38.52 18.288,33.36 C18.288,28.2 14.52,24.6 9.144,24.6 C3.744,24.6 0,28.2 0,33.36 C0,38.52 3.744,42.12 9.144,42.12 Z M9.144,38.856 C6,38.856 3.816,36.6 3.816,33.36 C3.816,30.12 6,27.864 9.144,27.864 C12.264,27.864 14.472,30.12 14.472,33.36 C14.472,36.6 12.264,38.856 9.144,38.856 Z" id="Shape"></path>
                    <path d="M37.008,29.736 C35.232,29.736 33.744,30.36 32.808,31.44 C31.944,30.36 30.648,29.736 29.016,29.736 C27.312,29.736 25.872,30.264 24.936,31.2 C24.456,30.288 23.448,29.736 22.104,29.736 C21.552,29.736 20.928,29.808 20.376,30.024 C20.112,30.12 20.016,30.264 20.016,30.552 L20.016,32.52 C20.016,32.832 20.232,32.904 20.544,32.904 C20.688,32.88 20.928,32.832 21.072,32.832 C21.744,32.832 22.008,33.12 22.008,33.768 L22.008,41.304 C22.008,41.592 22.176,41.76 22.464,41.76 L25.152,41.76 C25.44,41.76 25.608,41.592 25.608,41.304 L25.608,35.4 C25.608,33.816 26.568,32.808 28.032,32.808 C29.424,32.808 30.312,33.888 30.312,35.52 L30.312,41.304 C30.312,41.592 30.504,41.76 30.768,41.76 L33.48,41.76 C33.744,41.76 33.936,41.592 33.936,41.304 L33.936,35.4 C33.936,33.816 34.8,32.808 36.12,32.808 C37.632,32.808 38.592,33.888 38.592,35.52 L38.592,41.304 C38.592,41.592 38.784,41.76 39.048,41.76 L41.736,41.76 C42.024,41.76 42.216,41.592 42.216,41.304 L42.216,35.04 C42.216,31.848 40.128,29.736 37.008,29.736 Z" id="Path"></path>
                    <path d="M54.672,29.952 C54.24,29.808 53.592,29.736 53.016,29.736 C51.432,29.736 50.064,30.312 49.104,31.368 C48.648,30.36 47.592,29.736 46.2,29.736 C45.648,29.736 45.024,29.832 44.472,30.024 C44.208,30.12 44.112,30.264 44.112,30.552 L44.112,32.52 C44.112,32.832 44.328,32.904 44.64,32.904 C44.784,32.88 45.024,32.832 45.168,32.832 C45.84,32.832 46.104,33.12 46.104,33.768 L46.104,41.304 C46.104,41.592 46.272,41.76 46.56,41.76 L49.248,41.76 C49.536,41.76 49.704,41.592 49.704,41.304 L49.704,36.144 C49.704,34.176 51.048,33.024 52.872,33.024 C53.328,33.024 53.832,33.072 54.192,33.144 C54.48,33.192 54.672,33.072 54.72,32.784 L55.032,30.48 C55.056,30.216 54.96,30.024 54.672,29.952 Z" id="Path"></path>
                    <path d="M58.968,27.984 C60.168,27.984 61.104,27.12 61.104,25.992 C61.104,24.864 60.168,24.024 58.968,24.024 C57.768,24.024 56.832,24.864 56.832,25.992 C56.832,27.12 57.768,27.984 58.968,27.984 Z M57.624,41.76 L60.312,41.76 C60.6,41.76 60.768,41.592 60.768,41.304 L60.768,30.576 C60.768,30.288 60.6,30.12 60.312,30.12 L57.624,30.12 C57.336,30.12 57.168,30.288 57.168,30.576 L57.168,41.304 C57.168,41.592 57.336,41.76 57.624,41.76 Z" id="Shape"></path>
                    <path d="M72.048,29.736 C70.296,29.736 68.808,30.288 67.848,31.248 C67.344,30.312 66.312,29.736 64.968,29.736 C64.416,29.736 63.792,29.808 63.24,30.024 C62.976,30.12 62.88,30.264 62.88,30.552 L62.88,32.52 C62.88,32.832 63.096,32.904 63.408,32.904 C63.552,32.88 63.792,32.832 63.936,32.832 C64.608,32.832 64.872,33.12 64.872,33.768 L64.872,41.304 C64.872,41.592 65.04,41.76 65.328,41.76 L68.016,41.76 C68.304,41.76 68.472,41.592 68.472,41.304 L68.472,35.4 C68.472,33.816 69.552,32.808 71.136,32.808 C72.672,32.808 73.656,33.888 73.656,35.52 L73.656,41.304 C73.656,41.592 73.848,41.76 74.136,41.76 L76.824,41.76 C77.112,41.76 77.28,41.592 77.28,41.304 L77.28,35.04 C77.28,31.848 75.192,29.736 72.048,29.736 Z" id="Path"></path>
                    <path d="M92.424,30.12 L89.784,30.12 C89.496,30.12 89.328,30.288 89.328,30.576 L89.328,30.84 C88.368,30.096 87.192,29.736 85.92,29.736 C82.224,29.736 79.608,32.304 79.608,35.904 C79.608,39.528 82.224,42.096 85.92,42.096 C87.12,42.096 88.296,41.784 89.256,41.064 L89.256,42.072 C89.256,43.728 88.152,44.808 86.424,44.808 C85.032,44.808 83.976,44.208 83.664,43.248 C83.544,43.008 83.4,42.888 83.136,42.888 L80.448,42.888 C80.136,42.888 79.944,43.056 80.016,43.344 C80.496,46.008 82.992,47.736 86.448,47.736 C90.288,47.736 92.88,45.456 92.88,42.048 L92.88,30.576 C92.88,30.288 92.688,30.12 92.424,30.12 Z M86.232,39.264 C84.432,39.264 83.136,37.896 83.136,35.904 C83.136,33.936 84.432,32.544 86.232,32.544 C88.008,32.544 89.256,33.936 89.256,35.904 C89.256,37.896 88.008,39.264 86.232,39.264 Z" id="Shape"></path>
                    <path d="M97.056,37.128 L105.192,37.128 C105.456,37.128 105.648,36.96 105.648,36.696 L105.648,34.32 C105.648,34.032 105.456,33.864 105.192,33.864 L97.056,33.864 C96.792,33.864 96.624,34.032 96.624,34.32 L96.624,36.696 C96.624,36.96 96.792,37.128 97.056,37.128 Z" id="Path"></path>
                    <path d="M39.408,53.736 C37.944,53.736 36.528,54.24 35.472,55.272 C34.992,54.336 33.936,53.736 32.568,53.736 C32.016,53.736 31.392,53.808 30.84,54.024 C30.576,54.12 30.48,54.264 30.48,54.552 L30.48,56.52 C30.48,56.832 30.696,56.904 31.008,56.904 C31.152,56.88 31.392,56.832 31.536,56.832 C32.208,56.832 32.472,57.12 32.472,57.768 L32.472,70.896 C32.472,71.16 32.64,71.328 32.928,71.328 L35.616,71.328 C35.904,71.328 36.072,71.16 36.072,70.896 L36.072,65.112 C37.056,65.832 38.208,66.144 39.408,66.144 C43.152,66.144 45.744,63.6 45.744,59.952 C45.744,56.28 43.152,53.736 39.408,53.736 Z M39.12,63.336 C37.32,63.336 36.072,61.944 36.072,59.952 C36.072,57.936 37.32,56.544 39.12,56.544 C40.92,56.544 42.216,57.936 42.216,59.952 C42.216,61.944 40.92,63.336 39.12,63.336 Z" id="Shape"></path>
                    <path d="M63.168,65.352 L62.928,63.36 C62.904,63.048 62.712,62.952 62.424,62.976 C62.112,63.048 61.92,63.048 61.68,63.048 C61.176,63.048 60.888,62.736 60.888,62.112 L60.888,54.576 C60.888,54.288 60.72,54.12 60.432,54.12 L57.792,54.12 C57.504,54.12 57.336,54.288 57.336,54.576 L57.336,54.84 C56.376,54.096 55.2,53.736 53.928,53.736 C50.208,53.736 47.616,56.28 47.616,59.952 C47.616,63.6 50.208,66.144 53.928,66.144 C55.488,66.144 56.832,65.664 57.96,64.68 C58.464,65.592 59.52,66.144 60.984,66.144 C61.56,66.144 62.136,66.048 62.784,65.856 C63.072,65.784 63.192,65.616 63.168,65.352 Z M54.24,63.336 C52.416,63.336 51.144,61.944 51.144,59.952 C51.144,57.936 52.416,56.544 54.24,56.544 C56.04,56.544 57.264,57.936 57.264,59.952 C57.264,61.944 56.04,63.336 54.24,63.336 Z" id="Shape"></path>
                    <path d="M70.392,66.144 C73.8,66.144 75.936,64.68 75.936,62.328 C75.936,57.36 68.376,59.616 68.376,57.216 C68.376,56.592 69.144,56.208 70.248,56.208 C71.28,56.208 72.168,56.664 72.456,57.384 C72.552,57.552 72.672,57.672 72.936,57.672 L75.312,57.672 C75.6,57.672 75.792,57.504 75.744,57.192 C75.408,55.104 73.2,53.736 70.2,53.736 C67.008,53.736 64.872,55.248 64.872,57.504 C64.872,62.52 72.36,60.216 72.36,62.496 C72.36,63.12 71.568,63.552 70.392,63.552 C69,63.552 68.088,63.072 67.776,62.256 C67.632,62.04 67.536,61.92 67.248,61.92 L64.896,61.896 C64.584,61.896 64.392,62.064 64.44,62.376 C64.8,64.728 67.032,66.144 70.392,66.144 Z" id="Path"></path>
                </g>
            </g>
        </g>
    </g>
</svg>