<?xml version="1.0" encoding="UTF-8"?>
<svg width="105px" height="88px" viewBox="0 0 105 88" version="1.1" xmlns="http://www.w3.org/2000/svg" xmlns:xlink="http://www.w3.org/1999/xlink">
    <title>Group</title>
    <defs>
        <rect id="path-1" x="0" y="0" width="101" height="21.8159139" rx="10.9079569"></rect>
        <filter x="-3.0%" y="-13.8%" width="105.9%" height="127.5%" filterUnits="objectBoundingBox" id="filter-2">
            <feOffset dx="0" dy="0" in="SourceAlpha" result="shadowOffsetOuter1"></feOffset>
            <feGaussianBlur stdDeviation="1" in="shadowOffsetOuter1" result="shadowBlurOuter1"></feGaussianBlur>
            <feColorMatrix values="0 0 0 0 0   0 0 0 0 0.368045807   0 0 0 0 0.361608624  0 0 0 0.5 0" type="matrix" in="shadowBlurOuter1"></feColorMatrix>
        </filter>
    </defs>
    <g id="Spotlight-3---Okt_Dec----HTML-5-banners" stroke="none" stroke-width="1" fill="none" fill-rule="evenodd">
        <g id="120x600px_2" transform="translate(-8.000000, -211.000000)">
            <g id="Group" transform="translate(10.000000, 213.092043)">
                <g id="AH-tegoed" transform="translate(3.925000, 36.407957)" fill="#FFFFFF" fill-rule="nonzero">
                    <path d="M27.425,17.5 L30.625,17.5 C30.875,17.5 31.075,17.4 31.175,17.15 L32.525,13.925 L40.4,13.925 L41.775,17.15 C41.875,17.4 42.05,17.5 42.325,17.5 L45.5,17.5 C45.825,17.5 46,17.275 45.85,16.95 L38.475,0.35 C38.375,0.1 38.2,0 37.925,0 L35,0 C34.75,0 34.575,0.125 34.475,0.35 L27.05,16.95 C26.925,17.275 27.075,17.5 27.425,17.5 Z M33.85,10.7 L36.45,4.475 L39.1,10.7 L33.85,10.7 Z" id="Shape"></path>
                    <path d="M48.425,17.5 L51.375,17.5 C51.675,17.5 51.85,17.325 51.85,17.025 L51.85,10.5 L59.95,10.5 L59.95,17.025 C59.95,17.325 60.15,17.5 60.425,17.5 L63.375,17.5 C63.675,17.5 63.875,17.325 63.875,17.025 L63.875,0.475 C63.875,0.175 63.675,0 63.375,0 L60.425,0 C60.15,0 59.95,0.175 59.95,0.475 L59.95,7.175 L51.85,7.175 L51.85,0.475 C51.85,0.175 51.675,0 51.375,0 L48.425,0 C48.125,0 47.925,0.175 47.925,0.475 L47.925,17.025 C47.925,17.325 48.125,17.5 48.425,17.5 Z" id="Path"></path>
                    <path d="M8.05,42.9 C8.825,42.9 9.975,42.75 10.975,42.5 C11.275,42.4 11.375,42.225 11.35,41.95 L11.025,39.8 C10.975,39.525 10.775,39.375 10.475,39.425 C9.875,39.575 9.15,39.65 8.6,39.65 C7.35,39.65 6.525,38.875 6.525,37.6 L6.525,33.4 L10.45,33.4 C10.725,33.4 10.925,33.225 10.925,32.925 L10.925,30.85 C10.925,30.55 10.725,30.375 10.45,30.375 L6.525,30.375 L6.525,27.2 C6.525,26.9 6.35,26.725 6.05,26.725 L3.25,26.725 C2.95,26.725 2.775,26.9 2.775,27.2 L2.775,30.375 L0.475,30.375 C0.175,30.375 0,30.55 0,30.85 L0,32.925 C0,33.225 0.175,33.4 0.475,33.4 L2.775,33.4 L2.775,37.725 C2.775,40.925 4.8,42.9 8.05,42.9 Z" id="Path"></path>
                    <path d="M19.875,42.9 C22.7,42.9 24.95,41.625 25.8,39.55 C25.925,39.25 25.75,39.05 25.4,39.05 L22.6,39.05 C22.35,39.05 22.2,39.15 22,39.3 C21.575,39.775 20.825,40.05 19.95,40.05 C18.3,40.05 17.05,39.125 16.65,37.625 L25.625,37.625 C25.9,37.625 26.1,37.5 26.15,37.2 C26.15,36.925 26.175,36.625 26.175,36.35 C26.175,32.55 23.7,29.975 19.65,29.975 C15.675,29.975 13,32.55 13,36.45 C13,40.325 15.775,42.9 19.875,42.9 Z M16.625,35.4 C16.85,33.825 18.1,32.75 19.75,32.75 C21.425,32.75 22.525,33.85 22.6,35.4 L16.625,35.4 Z" id="Shape"></path>
                    <path d="M41.6,30.375 L38.85,30.375 C38.55,30.375 38.375,30.55 38.375,30.85 L38.375,31.125 C37.375,30.35 36.15,29.975 34.825,29.975 C30.975,29.975 28.25,32.65 28.25,36.4 C28.25,40.175 30.975,42.85 34.825,42.85 C36.075,42.85 37.3,42.525 38.3,41.775 L38.3,42.825 C38.3,44.55 37.15,45.675 35.35,45.675 C33.9,45.675 32.8,45.05 32.475,44.05 C32.35,43.8 32.2,43.675 31.925,43.675 L29.125,43.675 C28.8,43.675 28.6,43.85 28.675,44.15 C29.175,46.925 31.775,48.725 35.375,48.725 C39.375,48.725 42.075,46.35 42.075,42.8 L42.075,30.85 C42.075,30.55 41.875,30.375 41.6,30.375 Z M35.15,39.9 C33.275,39.9 31.925,38.475 31.925,36.4 C31.925,34.35 33.275,32.9 35.15,32.9 C37,32.9 38.3,34.35 38.3,36.4 C38.3,38.475 37,39.9 35.15,39.9 Z" id="Shape"></path>
                    <path d="M51.475,42.9 C55.6,42.9 58.35,40.325 58.35,36.45 C58.35,32.55 55.6,29.975 51.475,29.975 C47.35,29.975 44.6,32.55 44.6,36.45 C44.6,40.325 47.35,42.9 51.475,42.9 Z M51.475,39.8 C49.5,39.8 48.175,38.475 48.175,36.45 C48.175,34.425 49.5,33.075 51.475,33.075 C53.45,33.075 54.775,34.425 54.775,36.45 C54.775,38.475 53.45,39.8 51.475,39.8 Z" id="Shape"></path>
                    <path d="M67.2,42.9 C70.025,42.9 72.275,41.625 73.125,39.55 C73.25,39.25 73.075,39.05 72.725,39.05 L69.925,39.05 C69.675,39.05 69.525,39.15 69.325,39.3 C68.9,39.775 68.15,40.05 67.275,40.05 C65.625,40.05 64.375,39.125 63.975,37.625 L72.95,37.625 C73.225,37.625 73.425,37.5 73.475,37.2 C73.475,36.925 73.5,36.625 73.5,36.35 C73.5,32.55 71.025,29.975 66.975,29.975 C63,29.975 60.325,32.55 60.325,36.45 C60.325,40.325 63.1,42.9 67.2,42.9 Z M63.95,35.4 C64.175,33.825 65.425,32.75 67.075,32.75 C68.75,32.75 69.85,33.85 69.925,35.4 L63.95,35.4 Z" id="Shape"></path>
                    <path d="M91.65,42.075 L91.425,40 C91.4,39.675 91.2,39.575 90.875,39.6 C90.575,39.675 90.375,39.675 90.125,39.675 C89.6,39.675 89.3,39.35 89.3,38.725 L89.3,24.475 C89.3,24.175 89.125,24 88.825,24 L86,24 C85.7,24 85.525,24.175 85.525,24.475 L85.525,31.05 C84.5,30.3 83.325,29.975 82.05,29.975 C78.175,29.975 75.475,32.625 75.475,36.45 C75.475,40.25 78.175,42.9 82.05,42.9 C83.725,42.9 85.1,42.375 86.2,41.325 C86.725,42.325 87.875,42.9 89.35,42.9 C89.975,42.9 90.6,42.8 91.275,42.6 C91.575,42.525 91.7,42.35 91.65,42.075 Z M82.375,39.975 C80.475,39.975 79.15,38.525 79.15,36.45 C79.15,34.35 80.475,32.9 82.375,32.9 C84.25,32.9 85.525,34.35 85.525,36.45 C85.525,38.525 84.25,39.975 82.375,39.975 Z" id="Shape"></path>
                </g>
                <g id="Group">
                    <g id="Rectangle">
                        <use fill="black" fill-opacity="1" filter="url(#filter-2)" xlink:href="#path-1"></use>
                        <use fill="#F78E1E" fill-rule="evenodd" xlink:href="#path-1"></use>
                    </g>
                    <g id="B" transform="translate(9.312776, 4.456847)" fill="#FFFFFF" fill-rule="nonzero">
                        <path d="M3.64282132,10.8404731 L5.22665667,10.8404731 C5.42023655,10.8404731 5.54342375,10.7172859 5.54342375,10.523706 L5.54342375,7.8487841 L8.53511275,7.8487841 C8.72869263,7.8487841 8.85187982,7.7255969 8.85187982,7.51441886 L8.85187982,6.15935972 C8.85187982,5.94818167 8.72869263,5.82499448 8.53511275,5.82499448 L5.54342375,5.82499448 L5.54342375,3.15007254 C5.54342375,2.95649266 5.42023655,2.83330547 5.22665667,2.83330547 L3.64282132,2.83330547 C3.44924144,2.83330547 3.32605425,2.95649266 3.32605425,3.15007254 L3.32605425,5.82499448 L0.334365242,5.82499448 C0.140785365,5.82499448 0,5.94818167 0,6.15935972 L0,7.51441886 C0,7.7255969 0.140785365,7.8487841 0.334365242,7.8487841 L3.32605425,7.8487841 L3.32605425,10.523706 C3.32605425,10.7172859 3.44924144,10.8404731 3.64282132,10.8404731 Z" id="Path"></path>
                        <path d="M18.1261157,12.8642627 C22.1209005,12.8642627 24.6198407,10.312528 24.6198407,6.28254691 C24.6198407,6.07136886 24.4966535,5.94818167 24.3030736,5.94818167 L18.3724901,5.94818167 C18.1613121,5.94818167 18.0381249,6.07136886 18.0381249,6.28254691 L18.0381249,7.77839141 C18.0381249,7.98956946 18.1613121,8.11275666 18.3724901,8.11275666 L21.5225627,8.11275666 C21.0826084,9.50301214 19.7451474,10.4357152 18.1613121,10.4357152 C15.8559517,10.4357152 14.2897145,8.83428165 14.2897145,6.42333228 C14.2897145,4.04757924 15.8383536,2.44614572 18.1613121,2.44614572 C19.7275493,2.44614572 20.9946176,3.16767071 21.5049645,4.29395363 C21.5753572,4.46993534 21.6985444,4.55792619 21.8921243,4.55792619 L24.1446901,4.55792619 C24.3734663,4.55792619 24.4966535,4.41714083 24.4262608,4.18836461 C23.6695395,1.63662987 21.2057956,0 18.1261157,0 C14.1489292,0 11.4916054,2.56933291 11.4916054,6.42333228 C11.4916054,10.2773316 14.1489292,12.8642627 18.1261157,12.8642627 Z" id="Path"></path>
                        <path d="M37.959254,12.2131304 L34.7035925,8.20074751 C36.3402223,7.60240971 37.3081217,6.35293959 37.3081217,4.434739 C37.3081217,1.86540609 35.3547248,0.28157073 32.3102413,0.28157073 L27.1715754,0.28157073 C26.9603974,0.28157073 26.819612,0.404757924 26.819612,0.615935972 L26.819612,12.2659249 C26.819612,12.477103 26.9603974,12.6002902 27.1715754,12.6002902 L29.2481596,12.6002902 C29.4593376,12.6002902 29.5825248,12.477103 29.5825248,12.2659249 L29.5825248,8.60550543 L31.7822961,8.60550543 L34.8091815,12.3891121 C34.9147705,12.5298975 35.0379577,12.6002902 35.2139394,12.6002902 L37.748076,12.6002902 C38.0296467,12.6002902 38.1176376,12.4243085 37.959254,12.2131304 Z M29.5825248,2.58693108 L32.0638669,2.58693108 C33.5597114,2.58693108 34.5628071,3.29085791 34.5628071,4.434739 C34.5628071,5.61381643 33.5069169,6.28254691 31.9230815,6.28254691 L29.5825248,6.28254691 L29.5825248,2.58693108 Z" id="Shape"></path>
                        <path d="M38.9799479,12.6002902 L41.2325138,12.6002902 C41.4084955,12.6002902 41.5492808,12.5298975 41.6196735,12.3539158 L42.5699747,10.0837518 L48.1133985,10.0837518 L49.0812979,12.3539158 C49.1516905,12.5298975 49.2748777,12.6002902 49.4684576,12.6002902 L51.7034253,12.6002902 C51.9322015,12.6002902 52.0553887,12.4419066 51.9497997,12.2131304 L46.7583393,0.527945119 C46.6879467,0.351963412 46.5647595,0.28157073 46.3711796,0.28157073 L44.3121936,0.28157073 C44.1362119,0.28157073 44.0130247,0.369561583 43.942632,0.527945119 L38.7159754,12.2131304 C38.6279845,12.4419066 38.7335735,12.6002902 38.9799479,12.6002902 Z M43.5026778,7.81358776 L45.3328875,3.43164327 L47.1982936,7.81358776 L43.5026778,7.81358776 Z" id="Shape"></path>
                        <path d="M63.5117978,0.28157073 L53.0408863,0.28157073 C52.8473064,0.28157073 52.706521,0.404757924 52.706521,0.615935972 L52.706521,2.28776218 C52.706521,2.49894023 52.8473064,2.62212742 53.0408863,2.62212742 L56.8948856,2.62212742 L56.8948856,12.2659249 C56.8948856,12.477103 57.035671,12.6002902 57.2292509,12.6002902 L59.3234332,12.6002902 C59.517013,12.6002902 59.6577984,12.477103 59.6577984,12.2659249 L59.6577984,2.62212742 L63.5117978,2.62212742 C63.7229758,2.62212742 63.846163,2.49894023 63.846163,2.28776218 L63.846163,0.615935972 C63.846163,0.404757924 63.7229758,0.28157073 63.5117978,0.28157073 Z" id="Path"></path>
                        <path d="M65.1660258,12.6002902 L71.4133764,12.6002902 C71.6245544,12.6002902 71.7653398,12.477103 71.7653398,12.2659249 L71.7653398,10.5940987 C71.7653398,10.3829207 71.6245544,10.2597335 71.4133764,10.2597335 L69.6711575,10.2597335 L69.6711575,2.62212742 L71.4133764,2.62212742 C71.6245544,2.62212742 71.7653398,2.49894023 71.7653398,2.28776218 L71.7653398,0.615935972 C71.7653398,0.404757924 71.6245544,0.28157073 71.4133764,0.28157073 L65.1660258,0.28157073 C64.9548478,0.28157073 64.8316606,0.404757924 64.8316606,0.615935972 L64.8316606,2.28776218 C64.8316606,2.49894023 64.9548478,2.62212742 65.1660258,2.62212742 L66.9082447,2.62212742 L66.9082447,10.2597335 L65.1660258,10.2597335 C64.9548478,10.2597335 64.8316606,10.3829207 64.8316606,10.5940987 L64.8316606,12.2659249 C64.8316606,12.477103 64.9548478,12.6002902 65.1660258,12.6002902 Z" id="Path"></path>
                        <path d="M78.6286263,12.8642627 C81.690708,12.8642627 83.7320958,11.3508201 83.7320958,9.0454597 C83.7320958,4.10037375 76.4816495,6.42333228 76.4816495,3.64282132 C76.4816495,2.74531462 77.3439599,2.18217316 78.5758318,2.18217316 C79.7549093,2.18217316 80.5996214,2.69252011 80.863594,3.60762498 C80.9515849,3.80120485 81.0571739,3.87159754 81.2507538,3.87159754 L83.3625342,3.87159754 C83.5913104,3.87159754 83.7320958,3.74841034 83.6793013,3.53723229 C83.2921415,1.33746097 81.1275666,0 78.4174483,0 C75.4785538,0 73.4899605,1.53104084 73.4899605,3.81880302 C73.4899605,8.95746885 80.8107995,6.58171581 80.8107995,9.27423592 C80.8107995,10.1189481 79.9836855,10.6468932 78.699019,10.6468932 C77.1855763,10.6468932 76.0768916,9.97816274 75.7953209,8.95746885 C75.7249282,8.78148714 75.6193392,8.67589812 75.4257593,8.67589812 L73.331577,8.67589812 C73.1203989,8.67589812 72.9796136,8.79908531 73.0148099,9.02786153 C73.3491751,11.3508201 75.5841428,12.8642627 78.6286263,12.8642627 Z" id="Path"></path>
                    </g>
                </g>
            </g>
        </g>
    </g>
</svg>