<?xml version="1.0" encoding="UTF-8"?>
<svg width="75px" height="83px" viewBox="0 0 75 83" version="1.1" xmlns="http://www.w3.org/2000/svg" xmlns:xlink="http://www.w3.org/1999/xlink">
    <title>Logo_Omring_FC</title>
    <defs>
        <polygon id="path-1" points="0.0158450704 0.0945051784 74.8581866 0.0945051784 74.8581866 82.9545455 0.0158450704 82.9545455"></polygon>
    </defs>
    <g id="HTML5-banners" stroke="none" stroke-width="1" fill="none" fill-rule="evenodd">
        <g id="336x280px" transform="translate(-246.000000, -16.000000)">
            <g id="Logo_Omring_RGB" transform="translate(246.000000, 16.000000)">
                <g id="Group-3">
                    <mask id="mask-2" fill="white">
                        <use xlink:href="#path-1"></use>
                    </mask>
                    <g id="Clip-2"></g>
                    <path d="M73.2990317,82.9545455 L1.55915493,82.9545455 C0.698239437,82.9545455 0,82.2607199 0,81.4046605 L0,1.64386507 C0,0.787805667 0.698239437,0.0945051784 1.55915493,0.0945051784 L73.2990317,0.0945051784 C74.1602113,0.0945051784 74.8584507,0.787805667 74.8584507,1.64386507 L74.8584507,81.4046605 C74.8584507,82.2607199 74.1602113,82.9545455 73.2990317,82.9545455" id="Fill-1" fill="#007B85" mask="url(#mask-2)"></path>
                </g>
                <path d="M12.2268486,46.6642944 C12.2786092,46.7370109 12.3327465,46.8073648 12.3884683,46.8766686 C12.4058979,46.8984573 12.4230634,46.920246 12.440757,46.9417722 C12.4523768,46.9554229 12.4639965,46.9688111 12.4761444,46.9824619 C12.5028169,47.0142261 12.5300176,47.0462529 12.5580106,47.0769671 C12.5651408,47.0853675 12.5730634,47.0929804 12.5801937,47.1011184 C12.6134683,47.1373454 12.6472711,47.1733098 12.6818662,47.2087493 C12.6852993,47.2129495 12.6895246,47.2166247 12.69375,47.2205624 C12.7323063,47.2602021 12.7708627,47.2985292 12.8112676,47.3371188 C12.8120599,47.3379064 12.812588,47.3381689 12.8131162,47.3386939 C15.2149648,49.6244066 20.521743,49.6524957 26.6316021,47.7395534 L26.6316021,47.7400784 C26.6326585,47.7395534 26.6339789,47.7390283 26.6352993,47.7385033 C26.8980634,47.6560738 26.9984155,47.6248346 27.2643486,47.5340046 C27.5099472,47.450525 27.4721831,47.4665384 27.7204225,47.3741333 C27.9897887,47.2743779 28.1057218,47.0005754 27.9541373,46.7146972 L27.7370599,46.2138198 C27.5751761,45.8231984 27.4373239,45.8029848 26.7647007,45.9838572 C26.7647007,45.9838572 26.446743,46.0644491 26.428257,46.0691743 C26.3466549,46.090438 26.0939261,46.1489787 25.9584507,46.1789054 C21.8054577,47.1166067 18.6496479,46.7685127 17.1417254,44.9600511 C17.0757042,44.8807717 17.012588,44.7988672 16.9529049,44.7135501 C13.85625,40.2715442 21.1346831,29.7024525 33.2107394,21.1072066 C39.6520246,16.5218678 46.156162,13.4262982 51.2939261,12.208494 C51.2939261,12.208494 51.493838,12.1565161 51.6583627,12.1150388 C52.0259683,12.0239463 52.0740317,11.9039773 52.0103873,11.6965909 L51.7666373,11.1285098 C51.6768486,10.9387119 51.6382923,10.7903913 51.3034331,10.8473569 C51.2474472,10.8536572 51.1785211,10.867308 51.0863556,10.8814837 C50.747007,10.9339866 50.5309859,10.9647008 50.5270246,10.9652258 L50.5270246,10.9660134 C44.6392606,11.9614679 37.0259683,15.2948756 29.5626761,20.5136615 C16.3043134,29.7851446 8.54234155,41.4932861 12.2268486,46.6642944" id="Fill-4" fill="#FFFFFE"></path>
                <path d="M62.4068662,18.4791751 C62.3553697,18.4064586 62.3012324,18.3361047 62.2452465,18.2670634 C62.2278169,18.2450122 62.2106514,18.2240111 62.1929577,18.2024849 C62.1816021,18.1883091 62.1697183,18.1749209 62.1578345,18.1610076 C62.1308979,18.1292434 62.1036972,18.0972166 62.0757042,18.066765 C62.0685739,18.0588895 62.0609155,18.0507516 62.0535211,18.0423511 C62.0202465,18.0063867 61.9864437,17.9701597 61.9518486,17.9347202 C61.9484155,17.93052 61.9441901,17.9271073 61.940493,17.9229071 C61.9019366,17.8832674 61.8628521,17.8449403 61.8224472,17.8066132 L61.8203345,17.8047756 C59.4190141,15.5188003 54.1122359,15.4909738 48.0021127,17.4039161 L48.0021127,17.4033911 C48.0007923,17.4039161 47.9997359,17.4047037 47.9986796,17.4052287 C47.7356514,17.4873957 47.6352993,17.51916 47.3696303,17.6097274 C47.1237676,17.6929445 47.1620599,17.6769311 46.9132923,17.7693362 C46.6441901,17.8690916 46.527993,18.1428941 46.6795775,18.4295598 L46.896919,18.9296497 C47.0585387,19.3205337 47.1963908,19.3404848 47.8690141,19.1596123 C47.8690141,19.1596123 48.1869718,19.0790204 48.2054577,19.0742952 C48.2867958,19.0530315 48.5395246,18.9947533 48.6752641,18.9643016 C52.8290493,18.0271253 55.984331,18.3752194 57.4922535,20.1834184 C57.5582746,20.2624353 57.6211268,20.3446023 57.6808099,20.4299194 C60.7774648,24.8719253 53.4990317,35.441017 41.4229754,44.0362629 C34.9816901,48.6216017 28.4783451,51.7174338 23.3397887,52.9352381 C23.3397887,52.9352381 23.140669,52.9872159 22.9753521,53.0284307 C22.6077465,53.1195232 22.5596831,53.2394922 22.6233275,53.4468786 L22.8670775,54.0149597 C22.9568662,54.2047576 22.9954225,54.3530783 23.3302817,54.2961126 C23.3862676,54.2898123 23.4551937,54.2761615 23.5473592,54.2619858 C23.8869718,54.2094829 24.1035211,54.1787687 24.1069542,54.1782437 L24.1069542,54.1774561 C29.9944542,53.1825266 37.6077465,49.8493815 45.0713028,44.629808 C58.3301937,35.3583249 66.0913732,23.6501834 62.4068662,18.4791751" id="Fill-5" fill="#FFFFFE"></path>
                <path d="M16.1978873,58.6110616 C17.6400528,58.6110616 18.9417254,59.0993383 19.8623239,59.9853244 C20.7826585,60.8707854 21.2899648,62.1221915 21.2899648,63.5090549 C21.2899648,64.8956559 20.7826585,66.1478495 19.8623239,67.0333106 C18.9417254,67.9187716 17.6400528,68.4067858 16.1978873,68.4067858 C14.7559859,68.4067858 13.4540493,67.9187716 12.5337148,67.0333106 C11.6133803,66.1478495 11.1060739,64.8956559 11.1060739,63.5090549 C11.1060739,62.1221915 11.6133803,60.8707854 12.5337148,59.9853244 C13.4540493,59.0993383 14.7559859,58.6110616 16.1978873,58.6110616 M16.1978873,67.0012838 C17.1755282,67.0012838 18.05625,66.6537148 18.678169,66.0228927 C19.3003521,65.3928582 19.6420775,64.4997842 19.6420775,63.5090549 C19.6420775,62.5191132 19.3003521,61.6255142 18.678169,60.9949547 C18.05625,60.3643951 17.1755282,60.0165636 16.1978873,60.0165636 C15.2202465,60.0165636 14.3397887,60.3643951 13.7178697,60.9949547 C13.0956866,61.6255142 12.753169,62.5191132 12.753169,63.5090549 C12.753169,64.4997842 13.0956866,65.3928582 13.7178697,66.0228927 C14.3397887,66.6537148 15.2202465,67.0012838 16.1978873,67.0012838" id="Fill-6" fill="#FFFFFE"></path>
                <path d="M22.5208627,62.9254855 C22.5198063,62.9215478 22.5179577,62.9173475 22.5166373,62.9134098 C22.5179577,62.9173475 22.5198063,62.9215478 22.5208627,62.9254855" id="Fill-7" fill="#FFFFFE"></path>
                <path d="M22.578169,63.0021397 C22.5821303,63.0045023 22.5863556,63.0071274 22.590581,63.0100151 C22.5863556,63.0071274 22.5821303,63.0045023 22.578169,63.0021397" id="Fill-8" fill="#FFFFFE"></path>
                <path d="M32.0487676,61.5940125 C31.0415493,61.5940125 30.1769366,61.9400065 29.6136444,62.5682034 L29.5661092,62.6207063 L29.5222711,62.5658408 C29.0070423,61.9297684 28.2649648,61.5940125 27.3765845,61.5940125 C26.4520246,61.5940125 25.6444542,61.8833034 25.1028169,62.4083321 L25.0439261,62.4650352 L25.0069542,62.3915312 C24.7518486,61.885141 24.2073063,61.5940125 23.5125,61.5940125 C23.2241197,61.5940125 22.9272887,61.6425777 22.6972711,61.7265823 C22.6058979,61.7565089 22.5726232,61.8082243 22.5726232,61.9158551 L22.5726232,62.8693074 C22.5726232,62.9005466 22.5726232,62.9751007 22.7110035,62.9751007 C22.7242077,62.9751007 22.7384683,62.9745757 22.7524648,62.9724755 C22.8448944,62.9596123 23.0416373,62.9317858 23.1427817,62.9317858 C23.5703345,62.9317858 23.7784331,63.1163334 23.7784331,63.4951417 L23.7784331,68.07208 C23.7784331,68.1608098 23.8336268,68.2164629 23.9234155,68.2164629 L25.1841549,68.2164629 C25.2739437,68.2164629 25.3294014,68.1608098 25.3294014,68.07208 L25.3294014,64.6260537 C25.3294014,63.5962097 26.0088908,62.9044843 27.0203345,62.9044843 C27.9742077,62.9044843 28.6146127,63.6347993 28.6146127,64.7216089 L28.6146127,68.07208 C28.6146127,68.1608098 28.6705986,68.2164629 28.7603873,68.2164629 L30.0211268,68.2164629 C30.1103873,68.2164629 30.1661092,68.1608098 30.1661092,68.07208 L30.1661092,64.6260537 C30.1661092,63.5962097 30.7790493,62.9044843 31.6925176,62.9044843 C32.7367077,62.9044843 33.4378521,63.6347993 33.4378521,64.7216089 L33.4378521,68.07208 C33.4378521,68.1608098 33.493838,68.2164629 33.5836268,68.2164629 L34.8435739,68.2164629 C34.9333627,68.2164629 34.9893486,68.1608098 34.9893486,68.07208 L34.9893486,64.6260537 C34.9893486,62.8126043 33.8078345,61.5940125 32.0487676,61.5940125" id="Fill-9" fill="#FFFFFE"></path>
                <path d="M22.5375,62.9617125 C22.5351232,62.9577747 22.5322183,62.9540995 22.5298415,62.9498993 C22.5322183,62.9540995 22.5351232,62.9577747 22.5375,62.9617125" id="Fill-10" fill="#FFFFFE"></path>
                <path d="M22.5504401,62.9795634 C22.5541373,62.9829761 22.5570423,62.9858638 22.5607394,62.989539 C22.5570423,62.9858638 22.5541373,62.9829761 22.5504401,62.9795634" id="Fill-11" fill="#FFFFFE"></path>
                <path d="M22.6259683,63.0236659 C22.6212148,63.0220908 22.6164613,63.0202532 22.6119718,63.0192031 C22.6164613,63.0202532 22.6212148,63.0220908 22.6259683,63.0236659" id="Fill-12" fill="#FFFFFE"></path>
                <path d="M22.7012324,63.0344289 C22.7041373,63.0344289 22.7070423,63.0346915 22.7099472,63.0346915 C22.7070423,63.0346915 22.7041373,63.0344289 22.7012324,63.0344289" id="Fill-13" fill="#FFFFFE"></path>
                <path d="M22.6661092,63.0320663 C22.6613556,63.0312788 22.6566021,63.0302287 22.6515845,63.0297037 C22.6566021,63.0302287 22.6613556,63.0312788 22.6661092,63.0320663" id="Fill-14" fill="#FFFFFE"></path>
                <path d="M42.3375,61.9061421 L42.1732394,62.925223 C42.1518486,63.0328539 42.0990317,63.0475547 42.0493838,63.0475547 C42.034331,63.0475547 42.0169014,63.0457171 41.9960387,63.0417793 C41.8164613,63.0097526 41.5333627,62.9724755 41.2045775,62.9724755 C40.6140845,62.9724755 40.1049296,63.1662112 39.7323063,63.5329438 C39.3565141,63.9028265 39.1579225,64.412892 39.1579225,65.0077496 L39.1579225,68.07208 C39.1579225,68.1613349 39.1019366,68.2169879 39.0126761,68.2169879 L37.7522007,68.2169879 C37.6621479,68.2169879 37.6064261,68.1613349 37.6064261,68.07208 L37.6064261,63.4956667 C37.6064261,63.1160709 37.3988556,62.9317858 36.9707746,62.9317858 C36.8696303,62.9317858 36.6734155,62.9593498 36.58125,62.9730006 C36.5661972,62.9743131 36.5527289,62.9748382 36.5389965,62.9748382 C36.4008803,62.9748382 36.4008803,62.9005466 36.4008803,62.8690449 L36.4008803,61.9155926 C36.4008803,61.8082243 36.4341549,61.7565089 36.5228873,61.7276323 C36.7893486,61.6436277 37.0948944,61.5940125 37.340493,61.5940125 C38.0981514,61.5940125 38.6767606,61.9457818 38.8875,62.534339 L38.9207746,62.6285817 L38.9881162,62.5550777 C39.565669,61.9260932 40.3370599,61.5940125 41.2183099,61.5940125 C41.5602993,61.5940125 41.9569542,61.6465154 42.2273768,61.7271073 C42.3171655,61.7570339 42.3480634,61.8082243 42.3375,61.9061421" id="Fill-15" fill="#FFFFFE"></path>
                <path d="M45.2899648,61.7982487 C45.3797535,61.7982487 45.4349472,61.8536392 45.4349472,61.9423691 L45.4349472,68.0718175 C45.4349472,68.1610724 45.3797535,68.2167254 45.2899648,68.2167254 L44.0292254,68.2167254 C43.9394366,68.2167254 43.8834507,68.1610724 43.8834507,68.0718175 L43.8834507,61.9423691 C43.8834507,61.8536392 43.9394366,61.7982487 44.0292254,61.7982487 L45.2899648,61.7982487" id="Fill-16" fill="#FFFFFE"></path>
                <path d="M44.6595951,58.4614284 C45.2004401,58.4614284 45.640669,58.8620253 45.640669,59.3550273 C45.640669,59.8475043 45.2004401,60.2486263 44.6595951,60.2486263 C44.1182218,60.2486263 43.678257,59.8475043 43.678257,59.3550273 C43.678257,58.8620253 44.1182218,58.4614284 44.6595951,58.4614284" id="Fill-17" fill="#FFFFFE"></path>
                <path d="M52.0320423,61.5940125 C53.7903169,61.5940125 54.9726232,62.8126043 54.9726232,64.6260537 L54.9726232,68.07208 C54.9726232,68.1608098 54.9166373,68.2164629 54.8276408,68.2164629 L53.5666373,68.2164629 C53.4765845,68.2164629 53.4211268,68.1608098 53.4211268,68.07208 L53.4211268,64.7216089 C53.4211268,63.6347993 52.7199824,62.9044843 51.6757923,62.9044843 C51.1412852,62.9044843 50.6823063,63.0682933 50.3485035,63.3788478 C50.0120599,63.6912399 49.834331,64.1222886 49.834331,64.6260537 L49.834331,68.07208 C49.834331,68.1608098 49.7783451,68.2164629 49.6890845,68.2164629 L48.4283451,68.2164629 C48.3388204,68.2164629 48.2836268,68.1608098 48.2836268,68.07208 L48.2836268,63.4951417 C48.2836268,63.1163334 48.0752641,62.9317858 47.646919,62.9317858 C47.5463028,62.9317858 47.3495599,62.9596123 47.2576585,62.9724755 C47.2426056,62.9745757 47.2288732,62.9751007 47.2154049,62.9751007 C47.0772887,62.9751007 47.0772887,62.9005466 47.0772887,62.8693074 L47.0772887,61.9158551 C47.0772887,61.8082243 47.1108275,61.7565089 47.2024648,61.7265823 C47.4319542,61.6425777 47.7290493,61.5940125 48.0176937,61.5940125 C48.7185739,61.5940125 49.2681338,61.8945915 49.525088,62.4188327 L49.5612676,62.4920742 L49.6206866,62.4358961 C50.2022007,61.885141 51.0359155,61.5940125 52.0320423,61.5940125" id="Fill-18" fill="#FFFFFE"></path>
                <path d="M63.4180458,61.7982487 L62.1580986,61.7982487 C62.0683099,61.7982487 62.0128521,61.8536392 62.0128521,61.9428941 L62.0128521,62.2502985 L61.9172535,62.1817822 C61.3724472,61.7916858 60.734419,61.594275 60.0203345,61.594275 C59.0086268,61.594275 58.096743,61.9347562 57.4502641,62.5529776 C56.8051056,63.1701489 56.4493838,64.0419591 56.4493838,65.0072245 C56.4493838,65.9727524 56.8051056,66.8445627 57.4502641,67.4622591 C58.096743,68.0804804 59.0086268,68.4209616 60.0203345,68.4209616 C60.734419,68.4209616 61.3724472,68.2230257 61.9172535,67.8329294 L62.0128521,67.7641506 L62.0128521,68.3991729 C62.0128521,69.5019958 61.2559859,70.2428114 60.1296655,70.2428114 C59.2270246,70.2428114 58.5253521,69.8448396 58.2992958,69.2053546 C58.2911092,69.1822533 58.302993,69.2250432 58.2963908,69.2019419 C58.2631162,69.1032365 58.2174296,69.0675345 58.1210387,69.0675345 L56.8330986,69.0675345 C56.7805458,69.0675345 56.7396127,69.0824978 56.7169014,69.1095368 C56.6912852,69.1410386 56.6931338,69.1846159 56.6992077,69.2161177 C56.7010563,69.2250432 56.7015845,69.2266182 56.7023768,69.2302934 L56.7044894,69.2415816 C56.9738556,70.5974684 58.3420775,71.5540708 60.1296655,71.5540708 C61.1434859,71.5540708 62.0059859,71.2542793 62.6223592,70.6875108 C63.2379401,70.1217923 63.5638204,69.3300489 63.5638204,68.3991729 L63.5638204,61.9428941 C63.5638204,61.8536392 63.5078345,61.7982487 63.4180458,61.7982487 M61.459331,66.5678726 C61.1014965,66.9613816 60.5947183,67.178481 60.0340669,67.178481 C59.459419,67.178481 58.940493,66.9613816 58.5723592,66.5683976 C58.2036972,66.1754136 58.0008803,65.6209832 58.0008803,65.0072245 C58.0008803,64.3937284 58.2036972,63.839298 58.5723592,63.446314 C58.940493,63.0530675 59.459419,62.8362306 60.0340669,62.8362306 C60.5947183,62.8362306 61.1014965,63.0530675 61.459331,63.446839 C61.8161092,63.839298 62.0128521,64.3932034 62.0128521,65.0072245 C62.0128521,65.6215082 61.8161092,66.1754136 61.459331,66.5678726" id="Fill-19" fill="#FFFFFE"></path>
            </g>
        </g>
    </g>
</svg>