<?xml version="1.0" encoding="UTF-8"?>
<svg width="102px" height="82px" viewBox="0 0 102 82" version="1.1" xmlns="http://www.w3.org/2000/svg" xmlns:xlink="http://www.w3.org/1999/xlink">
    <title>Button Copy</title>
    <defs>
        <rect id="path-1" x="0" y="0" width="40.0101791" height="21.8159139" rx="10.9079569"></rect>
        <filter x="-7.5%" y="-13.8%" width="115.0%" height="127.5%" filterUnits="objectBoundingBox" id="filter-2">
            <feOffset dx="0" dy="0" in="SourceAlpha" result="shadowOffsetOuter1"></feOffset>
            <feGaussianBlur stdDeviation="1" in="shadowOffsetOuter1" result="shadowBlurOuter1"></feGaussianBlur>
            <feColorMatrix values="0 0 0 0 0   0 0 0 0 0.368045807   0 0 0 0 0.361608624  0 0 0 0.5 0" type="matrix" in="shadowBlurOuter1"></feColorMatrix>
        </filter>
    </defs>
    <g id="Spotlight-3---Okt_Dec----HTML-5-banners" stroke="none" stroke-width="1" fill="none" fill-rule="evenodd">
        <g id="120x600px_3" transform="translate(-9.000000, -49.000000)">
            <g id="Button-Copy" transform="translate(9.750000, 51.000000)">
                <g id="Group" transform="translate(30.744910, 0.000000)">
                    <g id="Rectangle">
                        <use fill="black" fill-opacity="1" filter="url(#filter-2)" xlink:href="#path-1"></use>
                        <use fill="#F78E1E" fill-rule="evenodd" xlink:href="#path-1"></use>
                    </g>
                    <g id="B" transform="translate(8.154041, 4.474445)" fill="#FFFFFF" fill-rule="nonzero">
                        <path d="M6.70490301,12.8466646 C10.6468932,12.8466646 13.409806,10.206939 13.409806,6.42333228 C13.409806,2.63972559 10.6468932,0 6.70490301,0 C2.74531462,0 0,2.63972559 0,6.42333228 C0,10.206939 2.74531462,12.8466646 6.70490301,12.8466646 Z M6.70490301,10.4533133 C4.39954266,10.4533133 2.79810913,8.79908531 2.79810913,6.42333228 C2.79810913,4.04757924 4.39954266,2.3933512 6.70490301,2.3933512 C8.99266519,2.3933512 10.6116969,4.04757924 10.6116969,6.42333228 C10.6116969,8.79908531 8.99266519,10.4533133 6.70490301,10.4533133 Z" id="Shape"></path>
                        <path d="M15.7503627,12.582692 L17.8269468,12.582692 C18.0381249,12.582692 18.1613121,12.4595048 18.1613121,12.2483268 L18.1613121,7.98956946 L23.4935578,7.98956946 C23.7047358,7.98956946 23.827923,7.86638227 23.827923,7.65520422 L23.827923,6.05377069 C23.827923,5.84259265 23.7047358,5.71940545 23.4935578,5.71940545 L18.1613121,5.71940545 L18.1613121,2.55173474 L24.3734663,2.55173474 C24.5670462,2.55173474 24.7078316,2.42854755 24.7078316,2.23496767 L24.7078316,0.598337801 C24.7078316,0.387159754 24.5670462,0.263972559 24.3734663,0.263972559 L15.7503627,0.263972559 C15.5391847,0.263972559 15.3983993,0.387159754 15.3983993,0.598337801 L15.3983993,12.2483268 C15.3983993,12.4595048 15.5567828,12.582692 15.7503627,12.582692 Z" id="Path"></path>
                    </g>
                </g>
                <g id="€-10,--donatie" transform="translate(0.000000, 36.100000)" fill="#FFFFFF" fill-rule="nonzero">
                    <path d="M32.825,11.05 L29.725,11.05 C29.475,11.05 29.3,11.2 29.2,11.475 C28.525,13.575 26.725,14.8 24.4,14.8 C22.125,14.8 20.375,13.725 19.5,11.95 L24.25,11.95 C24.525,11.95 24.7,11.825 24.75,11.55 L25.075,10.425 C25.15,10.1 25,9.9 24.675,9.9 L18.95,9.9 C18.925,9.65 18.9,9.4 18.9,9.125 C18.9,8.875 18.925,8.625 18.95,8.375 L25.175,8.375 C25.45,8.375 25.65,8.25 25.7,7.975 L26,6.875 C26.1,6.55 25.95,6.35 25.625,6.35 L19.5,6.35 C20.35,4.575 22.125,3.475 24.4,3.475 C26.75,3.475 28.425,4.725 29.2,6.825 C29.3,7.1 29.475,7.225 29.725,7.225 L32.825,7.225 C33.15,7.225 33.325,7.025 33.275,6.725 C32.5,2.6 28.975,0 24.375,0 C19.7,0 16.325,2.45 15.25,6.35 L13.4,6.35 C13.125,6.35 12.925,6.525 12.925,6.8 L12.925,7.925 C12.925,8.2 13.125,8.375 13.4,8.375 L14.925,8.375 C14.9,8.625 14.9,8.875 14.9,9.125 C14.9,9.4 14.9,9.65 14.925,9.9 L13.4,9.9 C13.125,9.9 12.925,10.1 12.925,10.375 L12.925,11.475 C12.925,11.775 13.125,11.95 13.4,11.95 L15.275,11.95 C16.35,15.85 19.725,18.275 24.375,18.275 C28.975,18.275 32.5,15.7 33.275,11.55 C33.325,11.25 33.15,11.05 32.825,11.05 Z" id="Path"></path>
                    <path d="M48.65,0.4 L41.35,0.4 C41.075,0.4 40.95,0.55 40.95,0.825 L40.95,3.15 C40.95,3.45 41.15,3.575 41.45,3.575 L45.3,3.575 L45.3,17.425 C45.3,17.725 45.5,17.9 45.8,17.9 L48.65,17.9 C48.95,17.9 49.125,17.725 49.125,17.425 L49.125,0.875 C49.125,0.575 48.95,0.4 48.65,0.4 Z" id="Path"></path>
                    <path d="M59.875,0 C55.375,0 52.4,2.8 52.4,7.025 L52.4,11.275 C52.4,15.5 55.375,18.3 59.875,18.3 C64.35,18.3 67.35,15.5 67.35,11.275 L67.35,7.025 C67.35,2.8 64.35,0 59.875,0 Z M63.6,11.275 C63.6,13.55 62.1,15.075 59.875,15.075 C57.625,15.075 56.125,13.55 56.125,11.275 L56.125,7.025 C56.125,4.75 57.625,3.225 59.875,3.225 C62.1,3.225 63.6,4.75 63.6,7.025 L63.6,11.275 Z" id="Shape"></path>
                    <path d="M71.45,14.45 C70.275,14.45 69.3,15.3 69.3,16.375 C69.3,17.15 69.825,17.775 70.55,18.05 L69.475,20.475 C69.325,20.825 69.475,21.025 69.825,21.025 L70.925,21.025 C71.175,21.025 71.375,20.95 71.5,20.725 L73,18 C73.35,17.4 73.6,16.9 73.6,16.375 C73.6,15.3 72.625,14.45 71.45,14.45 Z" id="Path"></path>
                    <path d="M77.2,13.075 L85.675,13.075 C85.95,13.075 86.15,12.9 86.15,12.625 L86.15,10.15 C86.15,9.85 85.95,9.675 85.675,9.675 L77.2,9.675 C76.925,9.675 76.75,9.85 76.75,10.15 L76.75,12.625 C76.75,12.9 76.925,13.075 77.2,13.075 Z" id="Path"></path>
                    <path d="M16.175,42.475 L15.95,40.4 C15.925,40.075 15.725,39.975 15.4,40 C15.1,40.075 14.9,40.075 14.65,40.075 C14.125,40.075 13.825,39.75 13.825,39.125 L13.825,24.875 C13.825,24.575 13.65,24.4 13.35,24.4 L10.525,24.4 C10.225,24.4 10.05,24.575 10.05,24.875 L10.05,31.45 C9.025,30.7 7.85,30.375 6.575,30.375 C2.7,30.375 0,33.025 0,36.85 C0,40.65 2.7,43.3 6.575,43.3 C8.25,43.3 9.625,42.775 10.725,41.725 C11.25,42.725 12.4,43.3 13.875,43.3 C14.5,43.3 15.125,43.2 15.8,43 C16.1,42.925 16.225,42.75 16.175,42.475 Z M6.9,40.375 C5,40.375 3.675,38.925 3.675,36.85 C3.675,34.75 5,33.3 6.9,33.3 C8.775,33.3 10.05,34.75 10.05,36.85 C10.05,38.925 8.775,40.375 6.9,40.375 Z" id="Shape"></path>
                    <path d="M24.65,43.3 C28.775,43.3 31.525,40.725 31.525,36.85 C31.525,32.95 28.775,30.375 24.65,30.375 C20.525,30.375 17.775,32.95 17.775,36.85 C17.775,40.725 20.525,43.3 24.65,43.3 Z M24.65,40.2 C22.675,40.2 21.35,38.875 21.35,36.85 C21.35,34.825 22.675,33.475 24.65,33.475 C26.625,33.475 27.95,34.825 27.95,36.85 C27.95,38.875 26.625,40.2 24.65,40.2 Z" id="Shape"></path>
                    <path d="M42.675,30.375 C40.85,30.375 39.3,30.95 38.3,31.95 C37.775,30.975 36.7,30.375 35.3,30.375 C34.725,30.375 34.075,30.45 33.5,30.675 C33.225,30.775 33.125,30.925 33.125,31.225 L33.125,33.275 C33.125,33.6 33.35,33.675 33.675,33.675 C33.825,33.65 34.075,33.6 34.225,33.6 C34.925,33.6 35.2,33.9 35.2,34.575 L35.2,42.425 C35.2,42.725 35.375,42.9 35.675,42.9 L38.475,42.9 C38.775,42.9 38.95,42.725 38.95,42.425 L38.95,36.275 C38.95,34.625 40.075,33.575 41.725,33.575 C43.325,33.575 44.35,34.7 44.35,36.4 L44.35,42.425 C44.35,42.725 44.55,42.9 44.85,42.9 L47.65,42.9 C47.95,42.9 48.125,42.725 48.125,42.425 L48.125,35.9 C48.125,32.575 45.95,30.375 42.675,30.375 Z" id="Path"></path>
                    <path d="M66.65,42.475 L66.4,40.4 C66.375,40.075 66.175,39.975 65.875,40 C65.55,40.075 65.35,40.075 65.1,40.075 C64.575,40.075 64.275,39.75 64.275,39.1 L64.275,31.25 C64.275,30.95 64.1,30.775 63.8,30.775 L61.05,30.775 C60.75,30.775 60.575,30.95 60.575,31.25 L60.575,31.525 C59.575,30.75 58.35,30.375 57.025,30.375 C53.15,30.375 50.45,33.025 50.45,36.85 C50.45,40.65 53.15,43.3 57.025,43.3 C58.65,43.3 60.05,42.8 61.225,41.775 C61.75,42.725 62.85,43.3 64.375,43.3 C64.975,43.3 65.575,43.2 66.25,43 C66.55,42.925 66.675,42.75 66.65,42.475 Z M57.35,40.375 C55.45,40.375 54.125,38.925 54.125,36.85 C54.125,34.75 55.45,33.3 57.35,33.3 C59.225,33.3 60.5,34.75 60.5,36.85 C60.5,38.925 59.225,40.375 57.35,40.375 Z" id="Shape"></path>
                    <path d="M75.45,43.3 C76.225,43.3 77.375,43.15 78.375,42.9 C78.675,42.8 78.775,42.625 78.75,42.35 L78.425,40.2 C78.375,39.925 78.175,39.775 77.875,39.825 C77.275,39.975 76.55,40.05 76,40.05 C74.75,40.05 73.925,39.275 73.925,38 L73.925,33.8 L77.85,33.8 C78.125,33.8 78.325,33.625 78.325,33.325 L78.325,31.25 C78.325,30.95 78.125,30.775 77.85,30.775 L73.925,30.775 L73.925,27.6 C73.925,27.3 73.75,27.125 73.45,27.125 L70.65,27.125 C70.35,27.125 70.175,27.3 70.175,27.6 L70.175,30.775 L67.875,30.775 C67.575,30.775 67.4,30.95 67.4,31.25 L67.4,33.325 C67.4,33.625 67.575,33.8 67.875,33.8 L70.175,33.8 L70.175,38.125 C70.175,41.325 72.2,43.3 75.45,43.3 Z" id="Path"></path>
                    <path d="M82.85,28.55 C84.1,28.55 85.075,27.65 85.075,26.475 C85.075,25.3 84.1,24.425 82.85,24.425 C81.6,24.425 80.625,25.3 80.625,26.475 C80.625,27.65 81.6,28.55 82.85,28.55 Z M81.45,42.9 L84.25,42.9 C84.55,42.9 84.725,42.725 84.725,42.425 L84.725,31.25 C84.725,30.95 84.55,30.775 84.25,30.775 L81.45,30.775 C81.15,30.775 80.975,30.95 80.975,31.25 L80.975,42.425 C80.975,42.725 81.15,42.9 81.45,42.9 Z" id="Shape"></path>
                    <path d="M94.175,43.3 C97,43.3 99.25,42.025 100.1,39.95 C100.225,39.65 100.05,39.45 99.7,39.45 L96.9,39.45 C96.65,39.45 96.5,39.55 96.3,39.7 C95.875,40.175 95.125,40.45 94.25,40.45 C92.6,40.45 91.35,39.525 90.95,38.025 L99.925,38.025 C100.2,38.025 100.4,37.9 100.45,37.6 C100.45,37.325 100.475,37.025 100.475,36.75 C100.475,32.95 98,30.375 93.95,30.375 C89.975,30.375 87.3,32.95 87.3,36.85 C87.3,40.725 90.075,43.3 94.175,43.3 Z M90.925,35.8 C91.15,34.225 92.4,33.15 94.05,33.15 C95.725,33.15 96.825,34.25 96.9,35.8 L90.925,35.8 Z" id="Shape"></path>
                </g>
            </g>
        </g>
    </g>
</svg>