<?xml version="1.0" encoding="UTF-8"?>
<svg width="141px" height="144px" viewBox="0 0 141 144" version="1.1" xmlns="http://www.w3.org/2000/svg" xmlns:xlink="http://www.w3.org/1999/xlink">
    <title>Text Copy</title>
    <defs>
        <rect id="path-1" x="0" y="0" width="136.641702" height="25.4889188" rx="12.7444594"></rect>
        <filter x="-2.2%" y="-11.8%" width="104.4%" height="123.5%" filterUnits="objectBoundingBox" id="filter-2">
            <feOffset dx="0" dy="0" in="SourceAlpha" result="shadowOffsetOuter1"></feOffset>
            <feGaussianBlur stdDeviation="1" in="shadowOffsetOuter1" result="shadowBlurOuter1"></feGaussianBlur>
            <feColorMatrix values="0 0 0 0 0   0 0 0 0 0.368045807   0 0 0 0 0.361608624  0 0 0 0.5 0" type="matrix" in="shadowBlurOuter1"></feColorMatrix>
        </filter>
    </defs>
    <g id="Spotlight-3---Okt_Dec----HTML-5-banners" stroke="none" stroke-width="1" fill="none" fill-rule="evenodd">
        <g id="160x600px_4" transform="translate(-9.000000, -195.000000)">
            <g id="Text-Copy" transform="translate(10.459751, 197.107540)">
                <g id="Group" transform="translate(0.637394, 0.000000)">
                    <g id="Rectangle">
                        <use fill="black" fill-opacity="1" filter="url(#filter-2)" xlink:href="#path-1"></use>
                        <use fill="#F78E1E" fill-rule="evenodd" xlink:href="#path-1"></use>
                    </g>
                    <g id="B" transform="translate(10.473903, 5.345037)" fill="#FFFFFF" fill-rule="nonzero">
                        <path d="M0.411221225,14.7217198 L7.46366523,14.7217198 C10.7123129,14.7217198 12.8301022,13.2002013 12.8301022,10.8562403 C12.8301022,9.04686695 11.740366,7.6898369 9.95155364,7.3197378 L9.95155364,7.23749356 C11.3702669,6.72346703 12.1310261,5.48980335 12.1310261,4.05052906 C12.1310261,1.80937339 10.1982864,0.32897698 7.19637143,0.32897698 L0.411221225,0.32897698 C0.16448849,0.32897698 0,0.472904408 0,0.719637143 L0,14.3310597 C0,14.5777924 0.16448849,14.7217198 0.411221225,14.7217198 Z M3.22808661,6.3122458 L3.22808661,2.85798751 L6.72346703,2.85798751 C8.26554662,2.85798751 9.06742801,3.51594147 9.06742801,4.44118923 C9.06742801,5.53092547 8.08049707,6.3122458 6.55897854,6.3122458 L3.22808661,6.3122458 Z M3.22808661,12.1721483 L3.22808661,8.71788997 L7.40198205,8.71788997 C8.75901209,8.71788997 9.66369878,9.39640499 9.66369878,10.4450191 C9.66369878,11.4936332 8.67676784,12.1721483 7.17581037,12.1721483 L3.22808661,12.1721483 Z" id="Shape"></path>
                        <path d="M26.0508646,2.63181584 L26.0508646,0.719637143 C26.0508646,0.472904408 25.9069372,0.32897698 25.6602044,0.32897698 L15.441357,0.32897698 C15.1946243,0.32897698 15.0301358,0.472904408 15.0301358,0.719637143 L15.0301358,14.3310597 C15.0301358,14.5777924 15.1946243,14.7217198 15.441357,14.7217198 L25.6602044,14.7217198 C25.9069372,14.7217198 26.0508646,14.5777924 26.0508646,14.3310597 L26.0508646,12.418881 C26.0508646,12.1927093 25.9069372,12.0487819 25.6602044,12.0487819 L18.2582224,12.0487819 L18.2582224,8.92350058 L24.6938345,8.92350058 C24.9405673,8.92350058 25.0844947,8.77957315 25.0844947,8.53284041 L25.0844947,6.64122278 C25.0844947,6.41505111 24.9405673,6.27112368 24.6938345,6.27112368 L18.2582224,6.27112368 L18.2582224,3.00191494 L25.6602044,3.00191494 C25.9069372,3.00191494 26.0508646,2.85798751 26.0508646,2.63181584 Z" id="Path"></path>
                        <path d="M34.3164112,15.0301358 C37.8940359,15.0301358 40.279119,13.2618845 40.279119,10.5683855 C40.279119,4.79072727 31.8079617,7.50478735 31.8079617,4.25613968 C31.8079617,3.20752555 32.8154537,2.54957159 34.254728,2.54957159 C35.6323191,2.54957159 36.6192501,3.14584237 36.927666,4.21501755 C37.0304713,4.44118923 37.1538377,4.52343347 37.3800093,4.52343347 L39.8473367,4.52343347 C40.1146305,4.52343347 40.279119,4.37950604 40.2174358,4.13277331 C39.7650924,1.56264065 37.2360819,0 34.0696785,0 C30.6359812,0 28.3125813,1.78881233 28.3125813,4.46175029 C28.3125813,10.4655802 36.8659828,7.6898369 36.8659828,10.8356793 C36.8659828,11.8226102 35.8996129,12.439442 34.3986555,12.439442 C32.6304042,12.439442 31.3350573,11.6581217 31.0060803,10.4655802 C30.9238361,10.2599696 30.8004697,10.1366032 30.5742981,10.1366032 L28.1275318,10.1366032 C27.880799,10.1366032 27.7163105,10.2805306 27.7574327,10.5478244 C28.1480928,13.2618845 30.7593476,15.0301358 34.3164112,15.0301358 Z" id="Path"></path>
                        <path d="M54.5279344,0.32897698 L42.294103,0.32897698 C42.0679313,0.32897698 41.9034428,0.472904408 41.9034428,0.719637143 L41.9034428,2.67293796 C41.9034428,2.9196707 42.0679313,3.06359812 42.294103,3.06359812 L46.7969754,3.06359812 L46.7969754,14.3310597 C46.7969754,14.5777924 46.9614639,14.7217198 47.1876355,14.7217198 L49.6344018,14.7217198 C49.8605735,14.7217198 50.025062,14.5777924 50.025062,14.3310597 L50.025062,3.06359812 L54.5279344,3.06359812 C54.7746671,3.06359812 54.9185946,2.9196707 54.9185946,2.67293796 L54.9185946,0.719637143 C54.9185946,0.472904408 54.7746671,0.32897698 54.5279344,0.32897698 Z" id="Path"></path>
                        <path d="M67.8515021,2.63181584 L67.8515021,0.719637143 C67.8515021,0.472904408 67.7075747,0.32897698 67.4608419,0.32897698 L57.2419945,0.32897698 C56.9952618,0.32897698 56.8307733,0.472904408 56.8307733,0.719637143 L56.8307733,14.3310597 C56.8307733,14.5777924 56.9952618,14.7217198 57.2419945,14.7217198 L67.4608419,14.7217198 C67.7075747,14.7217198 67.8515021,14.5777924 67.8515021,14.3310597 L67.8515021,12.418881 C67.8515021,12.1927093 67.7075747,12.0487819 67.4608419,12.0487819 L60.0588599,12.0487819 L60.0588599,8.92350058 L66.494472,8.92350058 C66.7412048,8.92350058 66.8851322,8.77957315 66.8851322,8.53284041 L66.8851322,6.64122278 C66.8851322,6.41505111 66.7412048,6.27112368 66.494472,6.27112368 L60.0588599,6.27112368 L60.0588599,3.00191494 L67.4608419,3.00191494 C67.7075747,3.00191494 67.8515021,2.85798751 67.8515021,2.63181584 Z" id="Path"></path>
                        <path d="M73.2590612,12.0487819 L73.2590612,0.719637143 C73.2590612,0.472904408 73.1151338,0.32897698 72.868401,0.32897698 L70.4421958,0.32897698 C70.1954631,0.32897698 70.0309746,0.472904408 70.0309746,0.719637143 L70.0309746,14.3310597 C70.0309746,14.5777924 70.1954631,14.7217198 70.4421958,14.7217198 L80.3937494,14.7217198 C80.6404822,14.7217198 80.7844096,14.5777924 80.7844096,14.3310597 L80.7844096,12.418881 C80.7844096,12.1927093 80.6404822,12.0487819 80.3937494,12.0487819 L73.2590612,12.0487819 Z" id="Path"></path>
                        <path d="M98.03514,0.719637143 L98.03514,9.35528286 L90.5714748,0.534587592 C90.4481084,0.390660164 90.304181,0.32897698 90.0985703,0.32897698 L88.2686359,0.32897698 C88.0219032,0.32897698 87.8574147,0.472904408 87.8574147,0.719637143 L87.8574147,14.3310597 C87.8574147,14.5777924 88.0219032,14.7217198 88.2686359,14.7217198 L90.6948411,14.7217198 C90.9415739,14.7217198 91.0855013,14.5777924 91.0855013,14.3310597 L91.0855013,5.90102458 L98.4874833,14.5161092 C98.6108497,14.6600367 98.7753382,14.7217198 98.9603877,14.7217198 L100.872566,14.7217198 C101.098738,14.7217198 101.263227,14.5777924 101.263227,14.3310597 L101.263227,0.719637143 C101.263227,0.472904408 101.098738,0.32897698 100.872566,0.32897698 L98.4258002,0.32897698 C98.1996285,0.32897698 98.03514,0.472904408 98.03514,0.719637143 Z" id="Path"></path>
                        <path d="M110.536265,15.0506968 C114.710161,15.0506968 117.321415,12.4805642 117.321415,8.40947405 L117.321415,0.719637143 C117.321415,0.472904408 117.156927,0.32897698 116.930755,0.32897698 L114.463428,0.32897698 C114.216695,0.32897698 114.072768,0.472904408 114.072768,0.719637143 L114.072768,8.45059617 C114.072768,10.732874 112.674616,12.2132704 110.536265,12.2132704 C108.418476,12.2132704 107.020324,10.732874 107.020324,8.45059617 L107.020324,0.719637143 C107.020324,0.472904408 106.876396,0.32897698 106.629664,0.32897698 L104.182897,0.32897698 C103.936165,0.32897698 103.771676,0.472904408 103.771676,0.719637143 L103.771676,8.40947405 C103.771676,12.4805642 106.382931,15.0506968 110.536265,15.0506968 Z" id="Path"></path>
                    </g>
                </g>
                <g id="de-Omring-pas" transform="translate(0.000000, 48.082460)" fill="#FFFFFF" fill-rule="nonzero">
                    <path d="M70.8907495,22.7744998 L70.6072495,20.1599998 C70.5757495,19.7504999 70.3237495,19.6244999 69.9142495,19.6559999 C69.5362495,19.7504999 69.2842495,19.7504999 68.9692495,19.7504999 C68.3077495,19.7504999 67.9297495,19.3409999 67.9297495,18.5534999 L67.9297495,0.598499995 C67.9297495,0.220499998 67.7092495,0 67.3312495,0 L63.7717495,0 C63.3937495,0 63.1732495,0.220499998 63.1732495,0.598499995 L63.1732495,8.88299993 C61.8817495,7.93799994 60.4012495,7.52849994 58.7947496,7.52849994 C53.9122496,7.52849994 50.5102496,10.8674999 50.5102496,15.6869999 C50.5102496,20.4749998 53.9122496,23.8139998 58.7947496,23.8139998 C60.9052495,23.8139998 62.6377495,23.1524998 64.0237495,21.8294998 C64.6852495,23.0894998 66.1342495,23.8139998 67.9927495,23.8139998 C68.7802495,23.8139998 69.5677495,23.6879998 70.4182495,23.4359998 C70.7962495,23.3414998 70.9537495,23.1209998 70.8907495,22.7744998 Z M59.2042496,20.1284998 C56.8102496,20.1284998 55.1407496,18.3014999 55.1407496,15.6869999 C55.1407496,13.0409999 56.8102496,11.2139999 59.2042496,11.2139999 C61.5667495,11.2139999 63.1732495,13.0409999 63.1732495,15.6869999 C63.1732495,18.3014999 61.5667495,20.1284998 59.2042496,20.1284998 Z" id="Shape"></path>
                    <path d="M81.6007494,23.8139998 C85.1602494,23.8139998 87.9952493,22.2074998 89.0662493,19.5929999 C89.2237493,19.2149999 89.0032493,18.9629999 88.5622493,18.9629999 L85.0342494,18.9629999 C84.7192494,18.9629999 84.5302494,19.0889999 84.2782494,19.2779999 C83.7427494,19.8764998 82.7977494,20.2229998 81.6952494,20.2229998 C79.6162494,20.2229998 78.0412494,19.0574999 77.5372494,17.1674999 L88.8457493,17.1674999 C89.1922493,17.1674999 89.4442493,17.0099999 89.5072493,16.6319999 C89.5072493,16.2854999 89.5387493,15.9074999 89.5387493,15.5609999 C89.5387493,10.7729999 86.4202493,7.52849994 81.3172494,7.52849994 C76.3087494,7.52849994 72.9382494,10.7729999 72.9382494,15.6869999 C72.9382494,20.5694998 76.4347494,23.8139998 81.6007494,23.8139998 Z M77.5057494,14.3639999 C77.7892494,12.3794999 79.3642494,11.0249999 81.4432494,11.0249999 C83.5537494,11.0249999 84.9397494,12.4109999 85.0342494,14.3639999 L77.5057494,14.3639999 Z" id="Shape"></path>
                    <path d="M12.0014999,55.2824996 C19.0574999,55.2824996 24.0029998,50.5574996 24.0029998,43.7849997 C24.0029998,37.0124997 19.0574999,32.2874998 12.0014999,32.2874998 C4.91399996,32.2874998 0,37.0124997 0,43.7849997 C0,50.5574996 4.91399996,55.2824996 12.0014999,55.2824996 Z M12.0014999,50.9984996 C7.87499994,50.9984996 5.00849996,48.0374996 5.00849996,43.7849997 C5.00849996,39.5324997 7.87499994,36.5714997 12.0014999,36.5714997 C16.0964999,36.5714997 18.9944999,39.5324997 18.9944999,43.7849997 C18.9944999,48.0374996 16.0964999,50.9984996 12.0014999,50.9984996 Z" id="Shape"></path>
                    <path d="M48.5729996,39.0284997 C46.2419997,39.0284997 44.2889997,39.8474997 43.0604997,41.2649997 C41.9264997,39.8474997 40.2254997,39.0284997 38.0834997,39.0284997 C35.8469997,39.0284997 33.9569997,39.7214997 32.7284998,40.9499997 C32.0984998,39.7529997 30.7754998,39.0284997 29.0114998,39.0284997 C28.2869998,39.0284997 27.4679998,39.1229997 26.7434998,39.4064997 C26.3969998,39.5324997 26.2709998,39.7214997 26.2709998,40.0994997 L26.2709998,42.6824997 C26.2709998,43.0919997 26.5544998,43.1864997 26.9639998,43.1864997 C27.1529998,43.1549997 27.4679998,43.0919997 27.6569998,43.0919997 C28.5389998,43.0919997 28.8854998,43.4699997 28.8854998,44.3204997 L28.8854998,54.2114996 C28.8854998,54.5894996 29.1059998,54.8099996 29.4839998,54.8099996 L33.0119998,54.8099996 C33.3899997,54.8099996 33.6104997,54.5894996 33.6104997,54.2114996 L33.6104997,46.4624996 C33.6104997,44.3834997 34.8704997,43.0604997 36.7919997,43.0604997 C38.6189997,43.0604997 39.7844997,44.4779997 39.7844997,46.6199996 L39.7844997,54.2114996 C39.7844997,54.5894996 40.0364997,54.8099996 40.3829997,54.8099996 L43.9424997,54.8099996 C44.2889997,54.8099996 44.5409997,54.5894996 44.5409997,54.2114996 L44.5409997,46.4624996 C44.5409997,44.3834997 45.6749997,43.0604997 47.4074996,43.0604997 C49.3919996,43.0604997 50.6519996,44.4779997 50.6519996,46.6199996 L50.6519996,54.2114996 C50.6519996,54.5894996 50.9039996,54.8099996 51.2504996,54.8099996 L54.7784996,54.8099996 C55.1564996,54.8099996 55.4084996,54.5894996 55.4084996,54.2114996 L55.4084996,45.9899997 C55.4084996,41.8004997 52.6679996,39.0284997 48.5729996,39.0284997 Z" id="Path"></path>
                    <path d="M71.7569995,39.3119997 C71.1899995,39.1229997 70.3394995,39.0284997 69.5834995,39.0284997 C67.5044995,39.0284997 65.7089995,39.7844997 64.4489995,41.1704997 C63.8504995,39.8474997 62.4644995,39.0284997 60.6374995,39.0284997 C59.9129995,39.0284997 59.0939996,39.1544997 58.3694996,39.4064997 C58.0229996,39.5324997 57.8969996,39.7214997 57.8969996,40.0994997 L57.8969996,42.6824997 C57.8969996,43.0919997 58.1804996,43.1864997 58.5899996,43.1864997 C58.7789996,43.1549997 59.0939996,43.0919997 59.2829996,43.0919997 C60.1649995,43.0919997 60.5114995,43.4699997 60.5114995,44.3204997 L60.5114995,54.2114996 C60.5114995,54.5894996 60.7319995,54.8099996 61.1099995,54.8099996 L64.6379995,54.8099996 C65.0159995,54.8099996 65.2364995,54.5894996 65.2364995,54.2114996 L65.2364995,47.4389996 C65.2364995,44.8559997 67.0004995,43.3439997 69.3944995,43.3439997 C69.9929995,43.3439997 70.6544995,43.4069997 71.1269995,43.5014997 C71.5049995,43.5644997 71.7569995,43.4069997 71.8199995,43.0289997 L72.2294995,40.0049997 C72.2609995,39.6584997 72.1349995,39.4064997 71.7569995,39.3119997 Z" id="Path"></path>
                    <path d="M77.3954994,36.7289997 C78.9704994,36.7289997 80.1989994,35.5949997 80.1989994,34.1144997 C80.1989994,32.6339998 78.9704994,31.5314998 77.3954994,31.5314998 C75.8204994,31.5314998 74.5919994,32.6339998 74.5919994,34.1144997 C74.5919994,35.5949997 75.8204994,36.7289997 77.3954994,36.7289997 Z M75.6314994,54.8099996 L79.1594994,54.8099996 C79.5374994,54.8099996 79.7579994,54.5894996 79.7579994,54.2114996 L79.7579994,40.1309997 C79.7579994,39.7529997 79.5374994,39.5324997 79.1594994,39.5324997 L75.6314994,39.5324997 C75.2534994,39.5324997 75.0329994,39.7529997 75.0329994,40.1309997 L75.0329994,54.2114996 C75.0329994,54.5894996 75.2534994,54.8099996 75.6314994,54.8099996 Z" id="Shape"></path>
                    <path d="M94.5629993,39.0284997 C92.2634993,39.0284997 90.3104993,39.7529997 89.0504993,41.0129997 C88.3889993,39.7844997 87.0344993,39.0284997 85.2704994,39.0284997 C84.5459994,39.0284997 83.7269994,39.1229997 83.0024994,39.4064997 C82.6559994,39.5324997 82.5299994,39.7214997 82.5299994,40.0994997 L82.5299994,42.6824997 C82.5299994,43.0919997 82.8134994,43.1864997 83.2229994,43.1864997 C83.4119994,43.1549997 83.7269994,43.0919997 83.9159994,43.0919997 C84.7979994,43.0919997 85.1444994,43.4699997 85.1444994,44.3204997 L85.1444994,54.2114996 C85.1444994,54.5894996 85.3649994,54.8099996 85.7429994,54.8099996 L89.2709993,54.8099996 C89.6489993,54.8099996 89.8694993,54.5894996 89.8694993,54.2114996 L89.8694993,46.4624996 C89.8694993,44.3834997 91.2869993,43.0604997 93.3659993,43.0604997 C95.3819993,43.0604997 96.6734993,44.4779997 96.6734993,46.6199996 L96.6734993,54.2114996 C96.6734993,54.5894996 96.9254993,54.8099996 97.3034993,54.8099996 L100.831499,54.8099996 C101.209499,54.8099996 101.429999,54.5894996 101.429999,54.2114996 L101.429999,45.9899997 C101.429999,41.8004997 98.6894993,39.0284997 94.5629993,39.0284997 Z" id="Path"></path>
                    <path d="M121.306499,39.5324997 L117.841499,39.5324997 C117.463499,39.5324997 117.242999,39.7529997 117.242999,40.1309997 L117.242999,40.4774997 C115.982999,39.5009997 114.439499,39.0284997 112.769999,39.0284997 C107.918999,39.0284997 104.485499,42.3989997 104.485499,47.1239996 C104.485499,51.8804996 107.918999,55.2509996 112.769999,55.2509996 C114.344999,55.2509996 115.888499,54.8414996 117.148499,53.8964996 L117.148499,55.2194996 C117.148499,57.3929996 115.699499,58.8104996 113.431499,58.8104996 C111.604499,58.8104996 110.218499,58.0229996 109.808999,56.7629996 C109.651499,56.4479996 109.462499,56.2904996 109.115999,56.2904996 L105.587999,56.2904996 C105.178499,56.2904996 104.926499,56.5109996 105.020999,56.8889996 C105.650999,60.3854995 108.926999,62.6534995 113.462999,62.6534995 C118.502999,62.6534995 121.904999,59.6609995 121.904999,55.1879996 L121.904999,40.1309997 C121.904999,39.7529997 121.652999,39.5324997 121.306499,39.5324997 Z M113.179499,51.5339996 C110.816999,51.5339996 109.115999,49.7384996 109.115999,47.1239996 C109.115999,44.5409997 110.816999,42.7139997 113.179499,42.7139997 C115.510499,42.7139997 117.148499,44.5409997 117.148499,47.1239996 C117.148499,49.7384996 115.510499,51.5339996 113.179499,51.5339996 Z" id="Shape"></path>
                    <path d="M127.385999,48.7304996 L138.064499,48.7304996 C138.410999,48.7304996 138.662999,48.5099996 138.662999,48.1634996 L138.662999,45.0449997 C138.662999,44.6669997 138.410999,44.4464997 138.064499,44.4464997 L127.385999,44.4464997 C127.039499,44.4464997 126.818999,44.6669997 126.818999,45.0449997 L126.818999,48.1634996 C126.818999,48.5099996 127.039499,48.7304996 127.385999,48.7304996 Z" id="Path"></path>
                    <path d="M51.7229996,70.5284995 C49.8014996,70.5284995 47.9429996,71.1899995 46.5569996,72.5444995 C45.9269997,71.3159995 44.5409997,70.5284995 42.7454997,70.5284995 C42.0209997,70.5284995 41.2019997,70.6229995 40.4774997,70.9064995 C40.1309997,71.0324995 40.0049997,71.2214995 40.0049997,71.5994995 L40.0049997,74.1824994 C40.0049997,74.5919994 40.2884997,74.6864994 40.6979997,74.6864994 C40.8869997,74.6549994 41.2019997,74.5919994 41.3909997,74.5919994 C42.2729997,74.5919994 42.6194997,74.9699994 42.6194997,75.8204994 L42.6194997,93.0509993 C42.6194997,93.3974993 42.8399997,93.6179993 43.2179997,93.6179993 L46.7459996,93.6179993 C47.1239996,93.6179993 47.3444996,93.3974993 47.3444996,93.0509993 L47.3444996,85.4594994 C48.6359996,86.4044993 50.1479996,86.8139993 51.7229996,86.8139993 C56.6369996,86.8139993 60.0389995,83.4749994 60.0389995,78.6869994 C60.0389995,73.8674994 56.6369996,70.5284995 51.7229996,70.5284995 Z M51.3449996,83.1284994 C48.9824996,83.1284994 47.3444996,81.3014994 47.3444996,78.6869994 C47.3444996,76.0409994 48.9824996,74.2139994 51.3449996,74.2139994 C53.7074996,74.2139994 55.4084996,76.0409994 55.4084996,78.6869994 C55.4084996,81.3014994 53.7074996,83.1284994 51.3449996,83.1284994 Z" id="Shape"></path>
                    <path d="M82.9079994,85.7744994 L82.5929994,83.1599994 C82.5614994,82.7504994 82.3094994,82.6244994 81.9314994,82.6559994 C81.5219994,82.7504994 81.2699994,82.7504994 80.9549994,82.7504994 C80.2934994,82.7504994 79.9154994,82.3409994 79.9154994,81.5219994 L79.9154994,71.6309995 C79.9154994,71.2529995 79.6949994,71.0324995 79.3169994,71.0324995 L75.8519994,71.0324995 C75.4739994,71.0324995 75.2534994,71.2529995 75.2534994,71.6309995 L75.2534994,71.9774995 C73.9934994,71.0009995 72.4499995,70.5284995 70.7804995,70.5284995 C65.8979995,70.5284995 62.4959995,73.8674994 62.4959995,78.6869994 C62.4959995,83.4749994 65.8979995,86.8139993 70.7804995,86.8139993 C72.8279994,86.8139993 74.5919994,86.1839993 76.0724994,84.8924994 C76.7339994,86.0894993 78.1199994,86.8139993 80.0414994,86.8139993 C80.7974994,86.8139993 81.5534994,86.6879993 82.4039994,86.4359993 C82.7819994,86.3414993 82.9394994,86.1209993 82.9079994,85.7744994 Z M71.1899995,83.1284994 C68.7959995,83.1284994 67.1264995,81.3014994 67.1264995,78.6869994 C67.1264995,76.0409994 68.7959995,74.2139994 71.1899995,74.2139994 C73.5524994,74.2139994 75.1589994,76.0409994 75.1589994,78.6869994 C75.1589994,81.3014994 73.5524994,83.1284994 71.1899995,83.1284994 Z" id="Shape"></path>
                    <path d="M92.3894993,86.8139993 C96.8624993,86.8139993 99.6659992,84.8924994 99.6659992,81.8054994 C99.6659992,75.2849994 89.7434993,78.2459994 89.7434993,75.0959994 C89.7434993,74.2769994 90.7514993,73.7729994 92.2004993,73.7729994 C93.5549993,73.7729994 94.7204993,74.3714994 95.0984993,75.3164994 C95.2244993,75.5369994 95.3819993,75.6944994 95.7284993,75.6944994 L98.8469993,75.6944994 C99.2249992,75.6944994 99.4769992,75.4739994 99.4139992,75.0644994 C98.9729993,72.3239995 96.0749993,70.5284995 92.1374993,70.5284995 C87.9479993,70.5284995 85.1444994,72.5129995 85.1444994,75.4739994 C85.1444994,82.0574994 94.9724993,79.0334994 94.9724993,82.0259994 C94.9724993,82.8449994 93.9329993,83.4119994 92.3894993,83.4119994 C90.5624993,83.4119994 89.3654993,82.7819994 88.9559993,81.7109994 C88.7669993,81.4274994 88.6409993,81.2699994 88.2629993,81.2699994 L85.1759994,81.2384994 C84.7664994,81.2384994 84.5144994,81.4589994 84.5774994,81.8684994 C85.0499994,84.9554994 87.9794993,86.8139993 92.3894993,86.8139993 Z" id="Path"></path>
                </g>
            </g>
        </g>
    </g>
</svg>