<?xml version="1.0" encoding="UTF-8"?>
<svg width="149px" height="69px" viewBox="0 0 149 69" version="1.1" xmlns="http://www.w3.org/2000/svg" xmlns:xlink="http://www.w3.org/1999/xlink">
    <title>Button Copy</title>
    <defs>
        <rect id="path-1" x="0" y="0" width="143" height="30.9568767" rx="15.4784383"></rect>
        <filter x="-3.1%" y="-14.5%" width="106.3%" height="129.1%" filterUnits="objectBoundingBox" id="filter-2">
            <feOffset dx="0" dy="0" in="SourceAlpha" result="shadowOffsetOuter1"></feOffset>
            <feGaussianBlur stdDeviation="1.5" in="shadowOffsetOuter1" result="shadowBlurOuter1"></feGaussianBlur>
            <feColorMatrix values="0 0 0 0 0   0 0 0 0 0.368045807   0 0 0 0 0.361608624  0 0 0 0.5 0" type="matrix" in="shadowBlurOuter1"></feColorMatrix>
        </filter>
    </defs>
    <g id="Spotlight-3---Okt_Dec----HTML-5-banners" stroke="none" stroke-width="1" fill="none" fill-rule="evenodd">
        <g id="160x600px_2" transform="translate(-7.000000, -225.000000)">
            <g id="Button-Copy" transform="translate(10.000000, 228.000000)">
                <g id="Group">
                    <g id="Rectangle">
                        <use fill="black" fill-opacity="1" filter="url(#filter-2)" xlink:href="#path-1"></use>
                        <use fill="#F78E1E" fill-rule="evenodd" xlink:href="#path-1"></use>
                    </g>
                    <g id="B" transform="translate(13.334684, 6.201211)" fill="#FFFFFF" fill-rule="nonzero">
                        <path d="M5.16917929,15.3826785 L7.41664855,15.3826785 C7.69133924,15.3826785 7.8661424,15.2078753 7.8661424,14.9331846 L7.8661424,11.1374588 L12.1113621,11.1374588 C12.3860528,11.1374588 12.560856,10.9626556 12.560856,10.662993 L12.560856,8.74015822 C12.560856,8.44049565 12.3860528,8.26569249 12.1113621,8.26569249 L7.8661424,8.26569249 L7.8661424,4.46996663 C7.8661424,4.19527595 7.69133924,4.02047278 7.41664855,4.02047278 L5.16917929,4.02047278 C4.8944886,4.02047278 4.71968544,4.19527595 4.71968544,4.46996663 L4.71968544,8.26569249 L0.474465732,8.26569249 C0.199775045,8.26569249 0,8.44049565 0,8.74015822 L0,10.662993 C0,10.9626556 0.199775045,11.1374588 0.474465732,11.1374588 L4.71968544,11.1374588 L4.71968544,14.9331846 C4.71968544,15.2078753 4.8944886,15.3826785 5.16917929,15.3826785 Z" id="+"></path>
                        <path d="M25.7210371,18.2544447 C31.389654,18.2544447 34.935661,14.6335221 34.935661,8.91496139 C34.935661,8.61529882 34.7608578,8.44049565 34.4861672,8.44049565 L26.0706434,8.44049565 C25.7709808,8.44049565 25.5961776,8.61529882 25.5961776,8.91496139 L25.5961776,11.0375712 C25.5961776,11.3372338 25.7709808,11.512037 26.0706434,11.512037 L30.54061,11.512037 C29.916313,13.4848155 28.0184501,14.8083252 25.7709808,14.8083252 C22.4996645,14.8083252 20.2771671,12.5358841 20.2771671,9.11473643 C20.2771671,5.74353255 22.4746926,3.47109141 25.7709808,3.47109141 C27.9934782,3.47109141 29.7914536,4.49493851 30.5156381,6.09313887 C30.6155257,6.34285768 30.7903288,6.46771708 31.0650195,6.46771708 L34.2614202,6.46771708 C34.5860547,6.46771708 34.7608578,6.26794204 34.6609703,5.94330759 C33.5871795,2.3223849 30.0911162,0 25.7210371,0 C20.077392,0 16.3066381,3.64589457 16.3066381,9.11473643 C16.3066381,14.5835783 20.077392,18.2544447 25.7210371,18.2544447 Z" id="G"></path>
                        <path d="M53.8643465,17.3304852 L49.2445486,11.6368964 C51.5669335,10.7878524 52.9403869,9.01484891 52.9403869,6.29291392 C52.9403869,2.64701935 50.1685082,0.39955009 45.8483728,0.39955009 L38.5565837,0.39955009 C38.2569211,0.39955009 38.0571461,0.574353255 38.0571461,0.874015822 L38.0571461,17.4054008 C38.0571461,17.7050634 38.2569211,17.8798665 38.5565837,17.8798665 L41.5032656,17.8798665 C41.8029282,17.8798665 41.9777313,17.7050634 41.9777313,17.4054008 L41.9777313,12.2112496 L45.0992164,12.2112496 L49.3943799,17.580204 C49.5442112,17.779979 49.7190143,17.8798665 49.9687331,17.8798665 L53.564684,17.8798665 C53.9642341,17.8798665 54.0890935,17.6301477 53.8643465,17.3304852 Z M41.9777313,3.67086645 L45.4987665,3.67086645 C47.6213764,3.67086645 49.0447736,4.66974168 49.0447736,6.29291392 C49.0447736,7.96602992 47.5464607,8.91496139 45.2989915,8.91496139 L41.9777313,8.91496139 L41.9777313,3.67086645 Z" id="R"></path>
                        <path d="M55.3127156,17.8798665 L58.5091163,17.8798665 C58.7588351,17.8798665 58.9586102,17.779979 59.0584977,17.5302602 L60.4069793,14.3088876 L68.2731217,14.3088876 L69.6465751,17.5302602 C69.7464626,17.779979 69.9212658,17.8798665 70.1959565,17.8798665 L73.3673853,17.8798665 C73.6920198,17.8798665 73.8668229,17.6551196 73.7169916,17.3304852 L66.3502868,0.749156419 C66.2503993,0.499437613 66.0755962,0.39955009 65.8009055,0.39955009 L62.8791954,0.39955009 C62.6294766,0.39955009 62.4546735,0.524409493 62.3547859,0.749156419 L54.9381374,17.3304852 C54.813278,17.6551196 54.9631093,17.8798665 55.3127156,17.8798665 Z M61.7304889,11.087515 L64.3275645,4.86951672 L66.9745839,11.087515 L61.7304889,11.087515 Z" id="A"></path>
                        <path d="M90.1235172,0.39955009 L75.2652482,0.39955009 C74.9905575,0.39955009 74.7907825,0.574353255 74.7907825,0.874015822 L74.7907825,3.24634448 C74.7907825,3.54600705 74.9905575,3.72081021 75.2652482,3.72081021 L80.7340901,3.72081021 L80.7340901,17.4054008 C80.7340901,17.7050634 80.9338651,17.8798665 81.2085558,17.8798665 L84.1802096,17.8798665 C84.4549003,17.8798665 84.6546753,17.7050634 84.6546753,17.4054008 L84.6546753,3.72081021 L90.1235172,3.72081021 C90.4231798,3.72081021 90.5979829,3.54600705 90.5979829,3.24634448 L90.5979829,0.874015822 C90.5979829,0.574353255 90.4231798,0.39955009 90.1235172,0.39955009 Z" id="T"></path>
                        <path d="M92.470874,17.8798665 L101.335892,17.8798665 C101.635554,17.8798665 101.835329,17.7050634 101.835329,17.4054008 L101.835329,15.0330721 C101.835329,14.7334096 101.635554,14.5586064 101.335892,14.5586064 L98.8636754,14.5586064 L98.8636754,3.72081021 L101.335892,3.72081021 C101.635554,3.72081021 101.835329,3.54600705 101.835329,3.24634448 L101.835329,0.874015822 C101.835329,0.574353255 101.635554,0.39955009 101.335892,0.39955009 L92.470874,0.39955009 C92.1712114,0.39955009 91.9964083,0.574353255 91.9964083,0.874015822 L91.9964083,3.24634448 C91.9964083,3.54600705 92.1712114,3.72081021 92.470874,3.72081021 L94.9430902,3.72081021 L94.9430902,14.5586064 L92.470874,14.5586064 C92.1712114,14.5586064 91.9964083,14.7334096 91.9964083,15.0330721 L91.9964083,17.4054008 C91.9964083,17.7050634 92.1712114,17.8798665 92.470874,17.8798665 Z" id="I"></path>
                        <path d="M111.574363,18.2544447 C115.91947,18.2544447 118.816208,16.106863 118.816208,12.8355466 C118.816208,5.81844819 108.527793,9.11473643 108.527793,5.16917929 C108.527793,3.89561338 109.751415,3.0965132 111.499447,3.0965132 C113.172563,3.0965132 114.371213,3.82069774 114.745792,5.11923553 C114.870651,5.39392622 115.020482,5.49381374 115.295173,5.49381374 L118.291799,5.49381374 C118.616433,5.49381374 118.816208,5.31901058 118.741292,5.01934801 C118.191911,1.89786293 115.12037,0 111.2747,0 C107.104396,0 104.282574,2.17255362 104.282574,5.4188981 C104.282574,12.7106872 114.670876,9.33948336 114.670876,13.1601811 C114.670876,14.3588314 113.497197,15.1079878 111.67425,15.1079878 C109.526668,15.1079878 107.95344,14.1590563 107.55389,12.7106872 C107.454002,12.4609684 107.304171,12.3111372 107.02948,12.3111372 L104.057827,12.3111372 C103.758164,12.3111372 103.558389,12.4859403 103.608333,12.8105748 C104.082798,16.106863 107.254227,18.2544447 111.574363,18.2544447 Z" id="S"></path>
                    </g>
                </g>
                <text id="AH-tegoed" font-family="Nutmeg-Bold, Nutmeg" font-size="24.4774555" font-weight="bold" fill="#FFFFFF">
                    <tspan x="3.60132628" y="59">AH tegoed</tspan>
                </text>
            </g>
        </g>
    </g>
</svg>