<?xml version="1.0" encoding="UTF-8"?>
<svg width="230px" height="142px" viewBox="0 0 230 142" version="1.1" xmlns="http://www.w3.org/2000/svg" xmlns:xlink="http://www.w3.org/1999/xlink">
    <title>Text</title>
    <defs>
        <rect id="path-1" x="0" y="0" width="222" height="41.4960024" rx="20.7480012"></rect>
        <filter x="-2.7%" y="-14.5%" width="105.4%" height="128.9%" filterUnits="objectBoundingBox" id="filter-2">
            <feOffset dx="0" dy="0" in="SourceAlpha" result="shadowOffsetOuter1"></feOffset>
            <feGaussianBlur stdDeviation="2" in="shadowOffsetOuter1" result="shadowBlurOuter1"></feGaussianBlur>
            <feColorMatrix values="0 0 0 0 0   0 0 0 0 0.368045807   0 0 0 0 0.361608624  0 0 0 0.5 0" type="matrix" in="shadowBlurOuter1"></feColorMatrix>
        </filter>
    </defs>
    <g id="HTML5-banners" stroke="none" stroke-width="1" fill="none" fill-rule="evenodd">
        <g id="300x600px_3" transform="translate(-35.000000, -364.000000)">
            <g id="Text" transform="translate(39.000000, 364.000000)">
                <g id="Button-Copy" transform="translate(0.000000, 96.000000)">
                    <g id="Group" transform="translate(0.000000, 0.255060)">
                        <g id="Rectangle">
                            <use fill="black" fill-opacity="1" filter="url(#filter-2)" xlink:href="#path-1"></use>
                            <use fill="#F78E1E" fill-rule="evenodd" xlink:href="#path-1"></use>
                        </g>
                        <path d="M28.4416804,32.10868 C33.7304842,32.10868 37.1782487,29.6316453 37.1782487,25.8156729 C37.1782487,22.87001 35.4041563,20.6607628 32.4919669,20.0582408 L32.4919669,19.9243471 C34.8016344,19.087511 36.0401517,17.0791045 36.0401517,14.7359635 C36.0401517,11.0873583 32.8936482,8.67727052 28.0065256,8.67727052 L16.9602897,8.67727052 C16.5586084,8.67727052 16.2908209,8.91158461 16.2908209,9.31326592 L16.2908209,31.4726846 C16.2908209,31.8743659 16.5586084,32.10868 16.9602897,32.10868 L28.4416804,32.10868 Z M26.9688489,18.4180422 L21.5461513,18.4180422 L21.5461513,12.7945039 L27.2366365,12.7945039 C29.7471446,12.7945039 31.0526088,13.865654 31.0526088,15.3719589 C31.0526088,17.1460514 29.4458836,18.4180422 26.9688489,18.4180422 Z M27.9730522,27.9579732 L21.5461513,27.9579732 L21.5461513,22.3344349 L28.34126,22.3344349 C30.5505072,22.3344349 32.0233387,23.4390585 32.0233387,25.146204 C32.0233387,26.8533496 30.4166134,27.9579732 27.9730522,27.9579732 Z M58.0656766,32.10868 C58.4673579,32.10868 58.701672,31.8743659 58.701672,31.4726846 L58.701672,28.3596545 C58.701672,27.9914466 58.4673579,27.7571325 58.0656766,27.7571325 L46.0152375,27.7571325 L46.0152375,22.6691693 L56.4924248,22.6691693 C56.8941061,22.6691693 57.1284202,22.4348552 57.1284202,22.0331739 L57.1284202,18.9536172 C57.1284202,18.5854094 56.8941061,18.3510953 56.4924248,18.3510953 L46.0152375,18.3510953 L46.0152375,13.028818 L58.0656766,13.028818 C58.4673579,13.028818 58.701672,12.7945039 58.701672,12.426296 L58.701672,9.31326592 C58.701672,8.91158461 58.4673579,8.67727052 58.0656766,8.67727052 L41.4293759,8.67727052 C41.0276946,8.67727052 40.759907,8.91158461 40.759907,9.31326592 L40.759907,31.4726846 C40.759907,31.8743659 41.0276946,32.10868 41.4293759,32.10868 L58.0656766,32.10868 Z M72.1579957,32.6107816 C77.9823746,32.6107816 81.8652939,29.7320656 81.8652939,25.3470447 C81.8652939,20.4200728 78.0813528,19.2862264 74.4775993,18.5634877 L73.9876676,18.467163 C70.8965555,17.8692219 68.0742358,17.4632521 68.0742358,15.070698 C68.0742358,13.3635524 69.7144344,12.2924023 72.0575754,12.2924023 C74.300296,12.2924023 75.9070212,13.2631321 76.4091229,15.0037511 C76.5764901,15.3719589 76.7773307,15.5058527 77.1455386,15.5058527 L81.1623516,15.5058527 C81.5975064,15.5058527 81.8652939,15.2715386 81.7648736,14.8698573 C81.0284579,10.685677 76.9112245,8.14169544 71.7563144,8.14169544 C66.1662496,8.14169544 62.3837506,11.0538849 62.3837506,15.4054324 C62.3837506,25.1796775 76.3087025,20.6607628 76.3087025,25.7821994 C76.3087025,27.3889246 74.7354508,28.3931279 72.2918895,28.3931279 C69.4131735,28.3931279 67.3043466,27.1211371 66.7687715,25.1796775 C66.6348778,24.844943 66.4340371,24.6441024 66.0658293,24.6441024 L62.0824897,24.6441024 C61.6808083,24.6441024 61.4130208,24.8784165 61.4799677,25.3135712 C62.1159631,29.7320656 66.3670902,32.6107816 72.1579957,32.6107816 Z M97.0957101,32.10868 C97.4639179,32.10868 97.7317055,31.8743659 97.7317055,31.4726846 L97.7317055,13.1292383 L105.062389,13.1292383 C105.464071,13.1292383 105.698385,12.8949242 105.698385,12.4932429 L105.698385,9.31326592 C105.698385,8.91158461 105.464071,8.67727052 105.062389,8.67727052 L85.1456912,8.67727052 C84.7774834,8.67727052 84.5096958,8.91158461 84.5096958,9.31326592 L84.5096958,12.4932429 C84.5096958,12.8949242 84.7774834,13.1292383 85.1456912,13.1292383 L92.4763751,13.1292383 L92.4763751,31.4726846 C92.4763751,31.8743659 92.7441626,32.10868 93.1123705,32.10868 L97.0957101,32.10868 Z M126.117184,32.10868 C126.518866,32.10868 126.75318,31.8743659 126.75318,31.4726846 L126.75318,28.3596545 C126.75318,27.9914466 126.518866,27.7571325 126.117184,27.7571325 L114.066745,27.7571325 L114.066745,22.6691693 L124.543933,22.6691693 C124.945614,22.6691693 125.179928,22.4348552 125.179928,22.0331739 L125.179928,18.9536172 C125.179928,18.5854094 124.945614,18.3510953 124.543933,18.3510953 L114.066745,18.3510953 L114.066745,13.028818 L126.117184,13.028818 C126.518866,13.028818 126.75318,12.7945039 126.75318,12.426296 L126.75318,9.31326592 C126.75318,8.91158461 126.518866,8.67727052 126.117184,8.67727052 L109.480884,8.67727052 C109.079202,8.67727052 108.811415,8.91158461 108.811415,9.31326592 L108.811415,31.4726846 C108.811415,31.8743659 109.079202,32.10868 109.480884,32.10868 L126.117184,32.10868 Z M147.171979,32.10868 C147.573661,32.10868 147.807975,31.8743659 147.807975,31.4726846 L147.807975,28.3596545 C147.807975,27.9914466 147.573661,27.7571325 147.171979,27.7571325 L135.556695,27.7571325 L135.556695,9.31326592 C135.556695,8.91158461 135.322381,8.67727052 134.9207,8.67727052 L130.970833,8.67727052 C130.569152,8.67727052 130.301365,8.91158461 130.301365,9.31326592 L130.301365,31.4726846 C130.301365,31.8743659 130.569152,32.10868 130.970833,32.10868 L147.171979,32.10868 Z M163.942174,32.10868 C164.343855,32.10868 164.578169,31.8743659 164.578169,31.4726846 L164.578169,17.7485733 L176.628608,31.7739455 C176.829449,32.0082596 177.097237,32.10868 177.398498,32.10868 L180.511528,32.10868 C180.879736,32.10868 181.147523,31.8743659 181.147523,31.4726846 L181.147523,9.31326592 C181.147523,8.91158461 180.879736,8.67727052 180.511528,8.67727052 L176.528188,8.67727052 C176.15998,8.67727052 175.892193,8.91158461 175.892193,9.31326592 L175.892193,23.3721116 L163.741333,9.01200494 C163.540493,8.77769084 163.306178,8.67727052 162.971444,8.67727052 L159.992308,8.67727052 C159.590626,8.67727052 159.322839,8.91158461 159.322839,9.31326592 L159.322839,31.4726846 C159.322839,31.8743659 159.590626,32.10868 159.992308,32.10868 L163.942174,32.10868 Z M196.244045,32.644255 C203.039154,32.644255 207.290281,28.4600748 207.290281,21.8323333 L207.290281,9.31326592 C207.290281,8.91158461 207.022494,8.67727052 206.654286,8.67727052 L202.637473,8.67727052 C202.235792,8.67727052 202.001478,8.91158461 202.001478,9.31326592 L202.001478,21.8992801 C202.001478,25.6148322 199.725283,28.02492 196.244045,28.02492 C192.796281,28.02492 190.520087,25.6148322 190.520087,21.8992801 L190.520087,9.31326592 C190.520087,8.91158461 190.285773,8.67727052 189.884091,8.67727052 L185.900752,8.67727052 C185.499071,8.67727052 185.231283,8.91158461 185.231283,9.31326592 L185.231283,21.8323333 C185.231283,28.4600748 189.48241,32.644255 196.244045,32.644255 Z" id="BESTELNU" fill="#FFFFFF" fill-rule="nonzero"></path>
                    </g>
                </g>
                <path d="M50.871,29 C51.327,29 51.593,28.734 51.593,28.278 L51.593,18.93 C51.593,16.422 53.113,14.826 55.431,14.826 C57.635,14.826 59.041,16.536 59.041,19.12 L59.041,28.278 C59.041,28.734 59.345,29 59.763,29 L64.057,29 C64.475,29 64.779,28.734 64.779,28.278 L64.779,18.93 C64.779,16.422 66.147,14.826 68.237,14.826 C70.631,14.826 72.151,16.536 72.151,19.12 L72.151,28.278 C72.151,28.734 72.455,29 72.873,29 L77.129,29 C77.585,29 77.889,28.734 77.889,28.278 L77.889,18.36 C77.889,13.306 74.583,9.962 69.643,9.962 C66.831,9.962 64.475,10.95 62.993,12.66 C61.625,10.95 59.573,9.962 56.989,9.962 C54.291,9.962 52.011,10.798 50.529,12.28 C49.769,10.836 48.173,9.962 46.045,9.962 C45.171,9.962 44.183,10.076 43.309,10.418 C42.891,10.57 42.739,10.798 42.739,11.254 L42.739,14.37 C42.739,14.864 43.081,14.978 43.575,14.978 C43.803,14.94 44.183,14.864 44.411,14.864 C45.475,14.864 45.893,15.32 45.893,16.346 L45.893,28.278 C45.893,28.734 46.159,29 46.615,29 L50.871,29 Z M91.911,29.608 C96.205,29.608 99.625,27.67 100.917,24.516 C101.107,24.06 100.841,23.756 100.309,23.756 L96.053,23.756 C95.673,23.756 95.445,23.908 95.141,24.136 C94.495,24.858 93.355,25.276 92.025,25.276 C89.517,25.276 87.617,23.87 87.009,21.59 L100.651,21.59 C101.069,21.59 101.373,21.4 101.449,20.944 C101.449,20.526 101.487,20.07 101.487,19.652 C101.487,13.876 97.725,9.962 91.569,9.962 C85.527,9.962 81.461,13.876 81.461,19.804 C81.461,25.694 85.679,29.608 91.911,29.608 Z M96.053,18.208 L86.971,18.208 C87.313,15.814 89.213,14.18 91.721,14.18 C94.267,14.18 95.939,15.852 96.053,18.208 Z M115.433,29.608 C116.611,29.608 118.359,29.38 119.879,29 C120.335,28.848 120.487,28.582 120.449,28.164 L119.955,24.896 C119.879,24.478 119.575,24.25 119.119,24.326 C118.207,24.554 117.105,24.668 116.269,24.668 C114.369,24.668 113.115,23.49 113.115,21.552 L113.115,15.168 L119.081,15.168 C119.499,15.168 119.803,14.902 119.803,14.446 L119.803,11.292 C119.803,10.836 119.499,10.57 119.081,10.57 L113.115,10.57 L113.115,5.744 C113.115,5.288 112.849,5.022 112.393,5.022 L108.137,5.022 C107.681,5.022 107.415,5.288 107.415,5.744 L107.415,10.57 L103.919,10.57 C103.463,10.57 103.197,10.836 103.197,11.292 L103.197,14.446 C103.197,14.902 103.463,15.168 103.919,15.168 L107.415,15.168 L107.415,21.742 C107.415,26.606 110.493,29.608 115.433,29.608 Z M153.699,29.608 C154.649,29.608 155.599,29.456 156.625,29.152 C157.081,29.038 157.271,28.772 157.195,28.354 L156.853,25.2 C156.815,24.706 156.511,24.554 156.017,24.592 C155.561,24.706 155.257,24.706 154.877,24.706 C154.079,24.706 153.623,24.212 153.623,23.262 L153.623,1.602 C153.623,1.146 153.357,0.88 152.901,0.88 L148.607,0.88 C148.151,0.88 147.885,1.146 147.885,1.602 L147.885,11.596 C146.327,10.456 144.541,9.962 142.603,9.962 C136.713,9.962 132.609,13.99 132.609,19.804 C132.609,25.58 136.713,29.608 142.603,29.608 C145.149,29.608 147.239,28.81 148.911,27.214 C149.709,28.734 151.457,29.608 153.699,29.608 Z M143.097,25.162 C140.209,25.162 138.195,22.958 138.195,19.804 C138.195,16.612 140.209,14.408 143.097,14.408 C145.947,14.408 147.885,16.612 147.885,19.804 C147.885,22.958 145.947,25.162 143.097,25.162 Z M170.115,29.608 C174.409,29.608 177.829,27.67 179.121,24.516 C179.311,24.06 179.045,23.756 178.513,23.756 L174.257,23.756 C173.877,23.756 173.649,23.908 173.345,24.136 C172.699,24.858 171.559,25.276 170.229,25.276 C167.721,25.276 165.821,23.87 165.213,21.59 L178.855,21.59 C179.273,21.59 179.577,21.4 179.653,20.944 C179.653,20.526 179.691,20.07 179.691,19.652 C179.691,13.876 175.929,9.962 169.773,9.962 C163.731,9.962 159.665,13.876 159.665,19.804 C159.665,25.694 163.883,29.608 170.115,29.608 Z M174.257,18.208 L165.175,18.208 C165.517,15.814 167.417,14.18 169.925,14.18 C172.471,14.18 174.143,15.852 174.257,18.208 Z M14.999,69.57 C23.511,69.57 29.477,63.87 29.477,55.7 C29.477,47.53 23.511,41.83 14.999,41.83 C6.449,41.83 0.521,47.53 0.521,55.7 C0.521,63.87 6.449,69.57 14.999,69.57 Z M14.999,64.402 C10.021,64.402 6.563,60.83 6.563,55.7 C6.563,50.57 10.021,46.998 14.999,46.998 C19.939,46.998 23.435,50.57 23.435,55.7 C23.435,60.83 19.939,64.402 14.999,64.402 Z M40.345,69 C40.801,69 41.067,68.734 41.067,68.278 L41.067,58.93 C41.067,56.422 42.587,54.826 44.905,54.826 C47.109,54.826 48.515,56.536 48.515,59.12 L48.515,68.278 C48.515,68.734 48.819,69 49.237,69 L53.531,69 C53.949,69 54.253,68.734 54.253,68.278 L54.253,58.93 C54.253,56.422 55.621,54.826 57.711,54.826 C60.105,54.826 61.625,56.536 61.625,59.12 L61.625,68.278 C61.625,68.734 61.929,69 62.347,69 L66.603,69 C67.059,69 67.363,68.734 67.363,68.278 L67.363,58.36 C67.363,53.306 64.057,49.962 59.117,49.962 C56.305,49.962 53.949,50.95 52.467,52.66 C51.099,50.95 49.047,49.962 46.463,49.962 C43.765,49.962 41.485,50.798 40.003,52.28 C39.243,50.836 37.647,49.962 35.519,49.962 C34.645,49.962 33.657,50.076 32.783,50.418 C32.365,50.57 32.213,50.798 32.213,51.254 L32.213,54.37 C32.213,54.864 32.555,54.978 33.049,54.978 C33.277,54.94 33.657,54.864 33.885,54.864 C34.949,54.864 35.367,55.32 35.367,56.346 L35.367,68.278 C35.367,68.734 35.633,69 36.089,69 L40.345,69 Z M78.497,69 C78.953,69 79.219,68.734 79.219,68.278 L79.219,60.108 C79.219,56.992 81.347,55.168 84.235,55.168 C84.957,55.168 85.755,55.244 86.325,55.358 C86.781,55.434 87.085,55.244 87.161,54.788 L87.655,51.14 C87.693,50.722 87.541,50.418 87.085,50.304 C86.401,50.076 85.375,49.962 84.463,49.962 C81.955,49.962 79.789,50.874 78.269,52.546 C77.547,50.95 75.875,49.962 73.671,49.962 C72.797,49.962 71.809,50.114 70.935,50.418 C70.517,50.57 70.365,50.798 70.365,51.254 L70.365,54.37 C70.365,54.864 70.707,54.978 71.201,54.978 C71.429,54.94 71.809,54.864 72.037,54.864 C73.101,54.864 73.519,55.32 73.519,56.346 L73.519,68.278 C73.519,68.734 73.785,69 74.241,69 L78.497,69 Z M93.887,47.188 C95.787,47.188 97.269,45.82 97.269,44.034 C97.269,42.248 95.787,40.918 93.887,40.918 C91.987,40.918 90.505,42.248 90.505,44.034 C90.505,45.82 91.987,47.188 93.887,47.188 Z M96.015,69 C96.471,69 96.737,68.734 96.737,68.278 L96.737,51.292 C96.737,50.836 96.471,50.57 96.015,50.57 L91.759,50.57 C91.303,50.57 91.037,50.836 91.037,51.292 L91.037,68.278 C91.037,68.734 91.303,69 91.759,69 L96.015,69 Z M108.213,69 C108.669,69 108.935,68.734 108.935,68.278 L108.935,58.93 C108.935,56.422 110.645,54.826 113.153,54.826 C115.585,54.826 117.143,56.536 117.143,59.12 L117.143,68.278 C117.143,68.734 117.447,69 117.903,69 L122.159,69 C122.615,69 122.881,68.734 122.881,68.278 L122.881,58.36 C122.881,53.306 119.575,49.962 114.597,49.962 C111.823,49.962 109.467,50.836 107.947,52.356 C107.149,50.874 105.515,49.962 103.387,49.962 C102.513,49.962 101.525,50.076 100.651,50.418 C100.233,50.57 100.081,50.798 100.081,51.254 L100.081,54.37 C100.081,54.864 100.423,54.978 100.917,54.978 C101.145,54.94 101.525,54.864 101.753,54.864 C102.817,54.864 103.235,55.32 103.235,56.346 L103.235,68.278 C103.235,68.734 103.501,69 103.957,69 L108.213,69 Z M137.397,78.462 C143.477,78.462 147.581,74.852 147.581,69.456 L147.581,51.292 C147.581,50.836 147.277,50.57 146.859,50.57 L142.679,50.57 C142.223,50.57 141.957,50.836 141.957,51.292 L141.957,51.71 C140.437,50.532 138.575,49.962 136.561,49.962 C130.709,49.962 126.567,54.028 126.567,59.728 C126.567,65.466 130.709,69.532 136.561,69.532 C138.461,69.532 140.323,69.038 141.843,67.898 L141.843,69.494 C141.843,72.116 140.095,73.826 137.359,73.826 C135.155,73.826 133.483,72.876 132.989,71.356 C132.799,70.976 132.571,70.786 132.153,70.786 L127.897,70.786 C127.403,70.786 127.099,71.052 127.213,71.508 C127.973,75.726 131.925,78.462 137.397,78.462 Z M137.055,65.048 C134.205,65.048 132.153,62.882 132.153,59.728 C132.153,56.612 134.205,54.408 137.055,54.408 C139.867,54.408 141.843,56.612 141.843,59.728 C141.843,62.882 139.867,65.048 137.055,65.048 Z M159.019,77.816 C159.475,77.816 159.741,77.55 159.741,77.132 L159.741,67.974 C161.299,69.114 163.123,69.608 165.023,69.608 C170.951,69.608 175.055,65.58 175.055,59.804 C175.055,53.99 170.951,49.962 165.023,49.962 C162.705,49.962 160.463,50.76 158.791,52.394 C158.031,50.912 156.359,49.962 154.193,49.962 C153.319,49.962 152.331,50.076 151.457,50.418 C151.039,50.57 150.887,50.798 150.887,51.254 L150.887,54.37 C150.887,54.864 151.229,54.978 151.723,54.978 C151.951,54.94 152.331,54.864 152.559,54.864 C153.623,54.864 154.041,55.32 154.041,56.346 L154.041,77.132 C154.041,77.55 154.307,77.816 154.763,77.816 L159.019,77.816 Z M164.567,65.162 C161.717,65.162 159.741,62.958 159.741,59.804 C159.741,56.612 161.717,54.408 164.567,54.408 C167.417,54.408 169.469,56.612 169.469,59.804 C169.469,62.958 167.417,65.162 164.567,65.162 Z M199.185,69.608 C200.097,69.608 201.009,69.456 202.035,69.152 C202.491,69.038 202.681,68.772 202.643,68.354 L202.263,65.2 C202.225,64.706 201.921,64.554 201.465,64.592 C200.971,64.706 200.667,64.706 200.287,64.706 C199.489,64.706 199.033,64.212 199.033,63.224 L199.033,51.292 C199.033,50.836 198.767,50.57 198.311,50.57 L194.131,50.57 C193.675,50.57 193.409,50.836 193.409,51.292 L193.409,51.71 C191.889,50.532 190.027,49.962 188.013,49.962 C182.123,49.962 178.019,53.99 178.019,59.804 C178.019,65.58 182.123,69.608 188.013,69.608 C190.483,69.608 192.611,68.848 194.397,67.29 C195.195,68.734 196.867,69.608 199.185,69.608 Z M188.507,65.162 C185.619,65.162 183.605,62.958 183.605,59.804 C183.605,56.612 185.619,54.408 188.507,54.408 C191.357,54.408 193.295,56.612 193.295,59.804 C193.295,62.958 191.357,65.162 188.507,65.162 Z M214.081,69.608 C219.477,69.608 222.859,67.29 222.859,63.566 C222.859,55.7 210.889,59.272 210.889,55.472 C210.889,54.484 212.105,53.876 213.853,53.876 C215.487,53.876 216.893,54.598 217.349,55.738 C217.501,56.004 217.691,56.194 218.109,56.194 L221.871,56.194 C222.327,56.194 222.631,55.928 222.555,55.434 C222.023,52.128 218.527,49.962 213.777,49.962 C208.723,49.962 205.341,52.356 205.341,55.928 C205.341,63.87 217.197,60.222 217.197,63.832 C217.197,64.82 215.943,65.504 214.081,65.504 C211.877,65.504 210.433,64.744 209.939,63.452 C209.711,63.11 209.559,62.92 209.103,62.92 L205.379,62.882 C204.885,62.882 204.581,63.148 204.657,63.642 C205.227,67.366 208.761,69.608 214.081,69.608 Z" id="metdeOmringpas" fill="#FFFFFF" fill-rule="nonzero"></path>
            </g>
        </g>
    </g>
</svg>