<?xml version="1.0" encoding="UTF-8"?>
<svg width="149px" height="158.395876px" viewBox="0 0 149 158.395876" version="1.1" xmlns="http://www.w3.org/2000/svg" xmlns:xlink="http://www.w3.org/1999/xlink">
    <title>Group 2</title>
    <defs>
        <rect id="path-1" x="0" y="0" width="143" height="31.1007778" rx="15.5503889"></rect>
        <filter x="-3.1%" y="-14.5%" width="106.3%" height="128.9%" filterUnits="objectBoundingBox" id="filter-2">
            <feOffset dx="0" dy="0" in="SourceAlpha" result="shadowOffsetOuter1"></feOffset>
            <feGaussianBlur stdDeviation="1.5" in="shadowOffsetOuter1" result="shadowBlurOuter1"></feGaussianBlur>
            <feColorMatrix values="0 0 0 0 0   0 0 0 0 0.368045807   0 0 0 0 0.361608624  0 0 0 0.5 0" type="matrix" in="shadowBlurOuter1"></feColorMatrix>
        </filter>
    </defs>
    <g id="Spotlight-4---HTML-5-" stroke="none" stroke-width="1" fill="none" fill-rule="evenodd">
        <g id="160x600px_3" transform="translate(-3.891042, -234.905591)">
            <g id="Group-2" transform="translate(6.891042, 237.905591)">
                <g id="VVV-cadeau--kaart-t." transform="translate(3.929401, 44.571996)" fill="#FFFFFF" fill-rule="nonzero">
                    <path d="M8.37937893,17.5615726 L11.515374,17.5615726 C11.7913416,17.5615726 11.9669573,17.4361328 12.0673092,17.2103412 L19.6187854,0.551935139 C19.7693132,0.225791648 19.6187854,0 19.242466,0 L15.9308552,0 C15.6548876,0 15.4792719,0.125439804 15.37892,0.351231452 L9.93483251,12.5941564 L4.51583296,0.351231452 C4.41548111,0.125439804 4.21477743,0 3.96389782,0 L0.627199022,0 C0.250879609,0 0.100351844,0.225791648 0.250879609,0.551935139 L7.82744379,17.2103412 C7.92779564,17.4361328 8.12849932,17.5615726 8.37937893,17.5615726 Z" id="Path"></path>
                    <path d="M27.8468343,17.5615726 L30.9828294,17.5615726 C31.258797,17.5615726 31.4344127,17.4361328 31.5347646,17.2103412 L39.0862408,0.551935139 C39.2367686,0.225791648 39.0862408,0 38.7099214,0 L35.3983106,0 C35.122343,0 34.9467273,0.125439804 34.8463754,0.351231452 L29.4022879,12.5941564 L23.9832884,0.351231452 C23.8829365,0.125439804 23.6822328,0 23.4313532,0 L20.0946544,0 C19.718335,0 19.5678072,0.225791648 19.718335,0.551935139 L27.2948992,17.2103412 C27.395251,17.4361328 27.5959547,17.5615726 27.8468343,17.5615726 Z" id="Path"></path>
                    <path d="M47.3142897,17.5615726 L50.4502849,17.5615726 C50.7262524,17.5615726 50.9018682,17.4361328 51.00222,17.2103412 L58.5536962,0.551935139 C58.704224,0.225791648 58.5536962,0 58.1773768,0 L54.865766,0 C54.5897984,0 54.4141827,0.125439804 54.3138308,0.351231452 L48.8697433,12.5941564 L43.4507438,0.351231452 C43.3503919,0.125439804 43.1496882,0 42.8988086,0 L39.5621098,0 C39.1857904,0 39.0352627,0.225791648 39.1857904,0.551935139 L46.7623546,17.2103412 C46.8627064,17.4361328 47.0634101,17.5615726 47.3142897,17.5615726 Z" id="Path"></path>
                    <path d="M7.75217991,48.0050841 C11.0888787,48.0050841 13.5474989,46.2238389 14.0743461,43.4641632 C14.124522,43.1631076 13.9489062,42.9624039 13.6478507,42.9624039 L10.9634389,42.9624039 C10.6874713,42.9624039 10.5620315,43.1129317 10.4365917,43.3638113 C10.0853603,44.3673298 9.05675388,44.9694408 7.75217991,44.9694408 C5.770231,44.9694408 4.46565704,43.6146909 4.46565704,41.5323902 C4.46565704,39.4500894 5.770231,38.0702516 7.75217991,38.0702516 C9.05675388,38.0702516 10.0853603,38.6974506 10.4365917,39.6758811 C10.5620315,39.9518486 10.6874713,40.0772884 10.9634389,40.0772884 L13.6478507,40.0772884 C13.9489062,40.0772884 14.124522,39.9016727 14.0743461,39.5755292 C13.5474989,36.8158535 11.0888787,35.0346083 7.75217991,35.0346083 C3.61266637,35.0346083 0.85299067,37.6186683 0.85299067,41.5323902 C0.85299067,45.4210241 3.61266637,48.0050841 7.75217991,48.0050841 Z" id="Path"></path>
                    <path d="M31.6351164,47.1771814 L31.3842368,45.0948806 C31.3591489,44.7687371 31.1584452,44.6683853 30.8573896,44.6934732 C30.5312462,44.7687371 30.3305425,44.7687371 30.0796629,44.7687371 C29.5528157,44.7687371 29.2517601,44.4425936 29.2517601,43.7903067 L29.2517601,35.9126869 C29.2517601,35.6116314 29.0761444,35.4360157 28.7750889,35.4360157 L26.0154132,35.4360157 C25.7143577,35.4360157 25.5387419,35.6116314 25.5387419,35.9126869 L25.5387419,36.1886545 C24.5352235,35.4109277 23.3059134,35.0346083 21.9762515,35.0346083 C18.0876176,35.0346083 15.3781178,37.6939322 15.3781178,41.5323902 C15.3781178,45.3457602 18.0876176,48.0050841 21.9762515,48.0050841 C23.606969,48.0050841 25.0118948,47.5033249 26.1910289,46.4747185 C26.7178761,47.428061 27.8217464,48.0050841 29.352112,48.0050841 C29.9542231,48.0050841 30.5563341,47.9047322 31.2337091,47.7040285 C31.5347646,47.6287647 31.6602044,47.4531489 31.6351164,47.1771814 Z M22.302395,45.0697927 C20.39571,45.0697927 19.066048,43.6146909 19.066048,41.5323902 C19.066048,39.4250015 20.39571,37.9698997 22.302395,37.9698997 C24.1839921,37.9698997 25.4634781,39.4250015 25.4634781,41.5323902 C25.4634781,43.6146909 24.1839921,45.0697927 22.302395,45.0697927 Z" id="Shape"></path>
                    <path d="M48.7693915,47.1771814 L48.5435998,45.0948806 C48.5185119,44.7687371 48.3178082,44.6683853 47.9916647,44.6934732 C47.6906092,44.7687371 47.4899055,44.7687371 47.2390259,44.7687371 C46.7121787,44.7687371 46.4111232,44.4425936 46.4111232,43.8153946 L46.4111232,29.5152569 C46.4111232,29.2142014 46.2355074,29.0385857 45.9344519,29.0385857 L43.0995123,29.0385857 C42.7984568,29.0385857 42.6228411,29.2142014 42.6228411,29.5152569 L42.6228411,36.1133906 C41.5942347,35.3607518 40.4151005,35.0346083 39.1356145,35.0346083 C35.2469806,35.0346083 32.5374808,37.6939322 32.5374808,41.5323902 C32.5374808,45.3457602 35.2469806,48.0050841 39.1356145,48.0050841 C40.8165079,48.0050841 42.1963457,47.4782369 43.300216,46.4245425 C43.8270632,47.428061 44.9811094,48.0050841 46.4612991,48.0050841 C47.0884981,48.0050841 47.7156971,47.9047322 48.3930721,47.7040285 C48.6941276,47.6287647 48.8195674,47.4531489 48.7693915,47.1771814 Z M39.461758,45.0697927 C37.555073,45.0697927 36.225411,43.6146909 36.225411,41.5323902 C36.225411,39.4250015 37.555073,37.9698997 39.461758,37.9698997 C41.3433551,37.9698997 42.6228411,39.4250015 42.6228411,41.5323902 C42.6228411,43.6146909 41.3433551,45.0697927 39.461758,45.0697927 Z" id="Shape"></path>
                    <path d="M56.646209,48.0050841 C59.4811485,48.0050841 61.739065,46.7255981 62.5920557,44.6432973 C62.7174955,44.3422418 62.5418798,44.1415381 62.1906483,44.1415381 L59.3807967,44.1415381 C59.1299171,44.1415381 58.9793893,44.2418899 58.7786856,44.3924177 C58.3521903,44.869089 57.5995515,45.1450565 56.7214728,45.1450565 C55.0656674,45.1450565 53.8112694,44.216802 53.409862,42.7115243 L62.41644,42.7115243 C62.6924075,42.7115243 62.8931112,42.5860845 62.9432871,42.285029 C62.9432871,42.0090614 62.9683751,41.7080059 62.9683751,41.4320383 C62.9683751,37.6186683 60.484667,35.0346083 56.4204173,35.0346083 C52.4314315,35.0346083 49.7470197,37.6186683 49.7470197,41.5323902 C49.7470197,45.4210241 52.5317834,48.0050841 56.646209,48.0050841 Z M53.384774,40.4786958 C53.6105657,38.8981543 54.8649637,37.819372 56.5207692,37.819372 C58.2016625,37.819372 59.3055328,38.9232422 59.3807967,40.4786958 L53.384774,40.4786958 Z" id="Shape"></path>
                    <path d="M80.5542334,47.1771814 L80.3033538,45.0948806 C80.2782659,44.7687371 80.0775622,44.6683853 79.7765067,44.6934732 C79.4503632,44.7687371 79.2496595,44.7687371 78.9987799,44.7687371 C78.4719327,44.7687371 78.1708772,44.4425936 78.1708772,43.7903067 L78.1708772,35.9126869 C78.1708772,35.6116314 77.9952614,35.4360157 77.6942059,35.4360157 L74.9345302,35.4360157 C74.6334747,35.4360157 74.4578589,35.6116314 74.4578589,35.9126869 L74.4578589,36.1886545 C73.4543405,35.4109277 72.2250304,35.0346083 70.8953685,35.0346083 C67.0067346,35.0346083 64.2972348,37.6939322 64.2972348,41.5323902 C64.2972348,45.3457602 67.0067346,48.0050841 70.8953685,48.0050841 C72.526086,48.0050841 73.9310118,47.5033249 75.1101459,46.4747185 C75.6369931,47.428061 76.7408634,48.0050841 78.271229,48.0050841 C78.8733401,48.0050841 79.4754511,47.9047322 80.1528261,47.7040285 C80.4538816,47.6287647 80.5793214,47.4531489 80.5542334,47.1771814 Z M71.221512,45.0697927 C69.314827,45.0697927 67.985165,43.6146909 67.985165,41.5323902 C67.985165,39.4250015 69.314827,37.9698997 71.221512,37.9698997 C73.1031091,37.9698997 74.3825951,39.4250015 74.3825951,41.5323902 C74.3825951,43.6146909 73.1031091,45.0697927 71.221512,45.0697927 Z" id="Shape"></path>
                    <path d="M97.2118372,47.1771814 L96.9860456,45.0948806 C96.9358697,44.7687371 96.735166,44.6683853 96.4341104,44.6934732 C96.1079669,44.7687371 95.9072633,44.7687371 95.6563837,44.7687371 C95.1295365,44.7687371 94.8284809,44.4425936 94.8284809,43.7903067 L94.8284809,35.9126869 C94.8284809,35.6116314 94.6277773,35.4360157 94.3518097,35.4360157 L91.5168701,35.4360157 C91.2409025,35.4360157 91.0401988,35.6116314 91.0401988,35.9126869 L91.0401988,42.0843253 C91.0401988,43.7401307 89.9614165,44.7938251 88.2805232,44.7938251 C86.6748937,44.7938251 85.6462873,43.6648668 85.6462873,41.9588855 L85.6462873,35.9126869 C85.6462873,35.6116314 85.4706715,35.4360157 85.169616,35.4360157 L82.3597644,35.4360157 C82.0587089,35.4360157 81.8830931,35.6116314 81.8830931,35.9126869 L81.8830931,42.4606447 C81.8830931,45.7973435 84.0406578,48.0050841 87.3020927,48.0050841 C89.0833379,48.0050841 90.5635276,47.4782369 91.567046,46.5499823 C92.1440691,47.4531489 93.3232033,48.0050841 94.9288328,48.0050841 C95.5309438,48.0050841 96.1330549,47.9047322 96.8355178,47.7040285 C97.1114854,47.6287647 97.2369252,47.4531489 97.2118372,47.1771814 Z" id="Path"></path>
                    <path d="M99.9957986,42.7617003 L108.500617,42.7617003 C108.776585,42.7617003 108.977289,42.5860845 108.977289,42.310117 L108.977289,39.8264088 C108.977289,39.5253533 108.776585,39.3497376 108.500617,39.3497376 L99.9957986,39.3497376 C99.7198311,39.3497376 99.5442154,39.5253533 99.5442154,39.8264088 L99.5442154,42.310117 C99.5442154,42.5860845 99.7198311,42.7617003 99.9957986,42.7617003 Z" id="Path"></path>
                    <path d="M14.8771608,77.0938457 L9.48324921,71.5744943 L14.1746979,66.0551429 C14.4506655,65.7039114 14.3503136,65.4781198 13.9489062,65.4781198 L10.7627352,65.4781198 C10.5369436,65.4781198 10.3362399,65.5282957 10.1857121,65.7289994 L5.21829586,71.5744943 L5.21829586,59.557361 C5.21829586,59.2563055 5.04268014,59.0806897 4.76671257,59.0806897 L1.90668503,59.0806897 C1.63071746,59.0806897 1.45510173,59.2563055 1.45510173,59.557361 L1.45510173,77.1691095 C1.45510173,77.4701651 1.63071746,77.6457808 1.90668503,77.6457808 L4.76671257,77.6457808 C5.04268014,77.6457808 5.21829586,77.4701651 5.21829586,77.1691095 L5.21829586,71.9508137 L10.4616797,77.3698132 C10.6372954,77.5705169 10.7627352,77.6457808 11.0136148,77.6457808 L14.5761053,77.6457808 C14.9524247,77.6457808 15.1280404,77.3949012 14.8771608,77.0938457 Z" id="Path"></path>
                    <path d="M31.258797,77.2192855 L31.0079174,75.1369847 C30.9828294,74.8108412 30.7821258,74.7104894 30.4810702,74.7355773 C30.1549267,74.8108412 29.9542231,74.8108412 29.7033434,74.8108412 C29.1764963,74.8108412 28.8754407,74.4846977 28.8754407,73.8324107 L28.8754407,65.954791 C28.8754407,65.6537355 28.699825,65.4781198 28.3987695,65.4781198 L25.6390938,65.4781198 C25.3380383,65.4781198 25.1624225,65.6537355 25.1624225,65.954791 L25.1624225,66.2307586 C24.1589041,65.4530318 22.929594,65.0767124 21.5999321,65.0767124 C17.7112981,65.0767124 15.0017984,67.7360362 15.0017984,71.5744943 C15.0017984,75.3878643 17.7112981,78.0471882 21.5999321,78.0471882 C23.2306495,78.0471882 24.6355753,77.545429 25.8147095,76.5168226 C26.3415567,77.4701651 27.445427,78.0471882 28.9757926,78.0471882 C29.5779036,78.0471882 30.1800147,77.9468363 30.8573896,77.7461326 C31.1584452,77.6708688 31.283885,77.495253 31.258797,77.2192855 Z M21.9260756,75.1118967 C20.0193905,75.1118967 18.6897286,73.656795 18.6897286,71.5744943 C18.6897286,69.4671056 20.0193905,68.0120038 21.9260756,68.0120038 C23.8076726,68.0120038 25.0871586,69.4671056 25.0871586,71.5744943 C25.0871586,73.656795 23.8076726,75.1118967 21.9260756,75.1118967 Z" id="Shape"></path>
                    <path d="M48.41816,77.2192855 L48.1672804,75.1369847 C48.1421925,74.8108412 47.9414888,74.7104894 47.6404332,74.7355773 C47.3142897,74.8108412 47.1135861,74.8108412 46.8627064,74.8108412 C46.3358593,74.8108412 46.0348037,74.4846977 46.0348037,73.8324107 L46.0348037,65.954791 C46.0348037,65.6537355 45.859188,65.4781198 45.5581325,65.4781198 L42.7984568,65.4781198 C42.4974013,65.4781198 42.3217855,65.6537355 42.3217855,65.954791 L42.3217855,66.2307586 C41.3182671,65.4530318 40.088957,65.0767124 38.7592951,65.0767124 C34.8706611,65.0767124 32.1611614,67.7360362 32.1611614,71.5744943 C32.1611614,75.3878643 34.8706611,78.0471882 38.7592951,78.0471882 C40.3900125,78.0471882 41.7949384,77.545429 42.9740725,76.5168226 C43.5009197,77.4701651 44.60479,78.0471882 46.1351556,78.0471882 C46.7372666,78.0471882 47.3393777,77.9468363 48.0167526,77.7461326 C48.3178082,77.6708688 48.443248,77.495253 48.41816,77.2192855 Z M39.0854386,75.1118967 C37.1787536,75.1118967 35.8490916,73.656795 35.8490916,71.5744943 C35.8490916,69.4671056 37.1787536,68.0120038 39.0854386,68.0120038 C40.9670356,68.0120038 42.2465216,69.4671056 42.2465216,71.5744943 C42.2465216,73.656795 40.9670356,75.1118967 39.0854386,75.1118967 Z" id="Shape"></path>
                    <path d="M60.0581716,65.302504 C59.6065883,65.1519763 58.9292134,65.0767124 58.3271023,65.0767124 C56.6712969,65.0767124 55.2412831,65.6788235 54.2377647,66.7826937 C53.7610935,65.7289994 52.6572232,65.0767124 51.2021214,65.0767124 C50.6250983,65.0767124 49.9728114,65.1770642 49.3957883,65.3777679 C49.1198207,65.4781198 49.0194688,65.6286475 49.0194688,65.9297031 L49.0194688,67.9869159 C49.0194688,68.3130594 49.2452605,68.3883232 49.571404,68.3883232 C49.7219318,68.3632353 49.9728114,68.3130594 50.1233391,68.3130594 C50.825802,68.3130594 51.1017696,68.6141149 51.1017696,69.2914898 L51.1017696,77.1691095 C51.1017696,77.4701651 51.2773853,77.6457808 51.5784409,77.6457808 L54.3882925,77.6457808 C54.689348,77.6457808 54.8649637,77.4701651 54.8649637,77.1691095 L54.8649637,71.775198 C54.8649637,69.7179852 56.2698895,68.513763 58.1765746,68.513763 C58.6532458,68.513763 59.180093,68.563939 59.5564124,68.6392028 C59.8574679,68.6893788 60.0581716,68.563939 60.1083476,68.2628834 L60.434491,65.8544392 C60.459579,65.5784716 60.3592272,65.3777679 60.0581716,65.302504 Z" id="Path"></path>
                    <path d="M68.637452,78.0471882 C69.4151788,78.0471882 70.569225,77.8966604 71.5727434,77.6457808 C71.873799,77.545429 71.9741508,77.3698132 71.9490629,77.0938457 L71.6229194,74.936281 C71.5727434,74.6603135 71.3720398,74.5097857 71.0709842,74.5599616 C70.4688732,74.7104894 69.7413223,74.7857533 69.1893872,74.7857533 C67.9349891,74.7857533 67.1070864,74.0080265 67.1070864,72.7285405 L67.1070864,68.513763 L71.0458963,68.513763 C71.3218638,68.513763 71.5225675,68.3381473 71.5225675,68.0370918 L71.5225675,65.954791 C71.5225675,65.6537355 71.3218638,65.4781198 71.0458963,65.4781198 L67.1070864,65.4781198 L67.1070864,62.2919487 C67.1070864,61.9908932 66.9314707,61.8152775 66.6304151,61.8152775 L63.8205635,61.8152775 C63.519508,61.8152775 63.3438923,61.9908932 63.3438923,62.2919487 L63.3438923,65.4781198 L61.0357999,65.4781198 C60.7347443,65.4781198 60.5591286,65.6537355 60.5591286,65.954791 L60.5591286,68.0370918 C60.5591286,68.3381473 60.7347443,68.513763 61.0357999,68.513763 L63.3438923,68.513763 L63.3438923,72.8539803 C63.3438923,76.0652393 65.3760171,78.0471882 68.637452,78.0471882 Z" id="Path"></path>
                    <path d="M8.0783234,108.089292 C8.85605019,108.089292 10.0100964,107.938764 11.0136148,107.687885 C11.3146704,107.587533 11.4150222,107.411917 11.3899342,107.13595 L11.0637907,104.978385 C11.0136148,104.702418 10.8129111,104.55189 10.5118556,104.602066 C9.90974455,104.752593 9.18219368,104.827857 8.63025854,104.827857 C7.3758605,104.827857 6.54795779,104.050131 6.54795779,102.770645 L6.54795779,98.5558671 L10.4867676,98.5558671 C10.7627352,98.5558671 10.9634389,98.3802514 10.9634389,98.0791959 L10.9634389,95.9968951 C10.9634389,95.6958396 10.7627352,95.5202239 10.4867676,95.5202239 L6.54795779,95.5202239 L6.54795779,92.3340528 C6.54795779,92.0329973 6.37234206,91.8573816 6.07128653,91.8573816 L3.26143491,91.8573816 C2.96037938,91.8573816 2.78476366,92.0329973 2.78476366,92.3340528 L2.78476366,95.5202239 L0.476671257,95.5202239 C0.175615726,95.5202239 0,95.6958396 0,95.9968951 L0,98.0791959 C0,98.3802514 0.175615726,98.5558671 0.476671257,98.5558671 L2.78476366,98.5558671 L2.78476366,102.896084 C2.78476366,106.107343 4.81688849,108.089292 8.0783234,108.089292 Z" id="Path"></path>
                    <path d="M14.2742475,108.089292 C15.4282937,108.089292 16.3565483,107.236302 16.3565483,106.132431 C16.3565483,105.053649 15.4282937,104.17557 14.2742475,104.17557 C13.1202013,104.17557 12.1668588,105.053649 12.1668588,106.132431 C12.1668588,107.236302 13.1202013,108.089292 14.2742475,108.089292 Z" id="Path"></path>
                    <path d="M20.4450836,107.687885 L23.0291436,107.687885 C23.3051112,107.687885 23.4807269,107.587533 23.5559908,107.311565 L25.7637314,100.964311 L27.9463839,107.311565 C28.0216478,107.587533 28.2223515,107.687885 28.4732311,107.687885 L31.0572911,107.687885 C31.3081707,107.687885 31.5088744,107.562445 31.6092262,107.311565 L35.7487398,96.047071 C35.8741796,95.7209275 35.6985639,95.5202239 35.3724204,95.5202239 L32.412041,95.5202239 C32.1360734,95.5202239 31.9604577,95.6456637 31.8851938,95.9216312 L29.6272773,102.369237 L27.3944488,95.8965433 C27.294097,95.6205757 27.1184812,95.5202239 26.8425137,95.5202239 L24.6347731,95.5202239 C24.3838935,95.5202239 24.2082778,95.6205757 24.1079259,95.8965433 L21.8500095,102.344149 L19.6171809,95.9216312 C19.5419171,95.6456637 19.3663013,95.5202239 19.0903338,95.5202239 L16.1048664,95.5202239 C15.7787229,95.5202239 15.6031072,95.7209275 15.728547,96.047071 L19.8931485,107.311565 C19.9684124,107.562445 20.194204,107.687885 20.4450836,107.687885 Z" id="Path"></path>
                    <path d="M37.2030393,108.089292 C38.3570855,108.089292 39.28534,107.236302 39.28534,106.132431 C39.28534,105.053649 38.3570855,104.17557 37.2030393,104.17557 C36.0489931,104.17557 35.0956506,105.053649 35.0956506,106.132431 C35.0956506,107.236302 36.0489931,108.089292 37.2030393,108.089292 Z" id="Path"></path>
                    <path d="M44.3773938,107.687885 L47.1872455,107.687885 C47.4381251,107.687885 47.6137408,107.562445 47.7140926,107.336653 L52.9574765,96.072159 C53.1080042,95.7460155 52.9323885,95.5202239 52.5811571,95.5202239 L49.6207777,95.5202239 C49.3698981,95.5202239 49.1942823,95.6456637 49.0939305,95.8714553 L45.7823197,103.146964 L42.5208847,95.8714553 C42.4205329,95.6456637 42.2449172,95.5202239 41.9689496,95.5202239 L38.9834823,95.5202239 C38.6322508,95.5202239 38.481723,95.7460155 38.6071628,96.072159 L43.8505467,107.336653 C43.9508985,107.562445 44.1265142,107.687885 44.3773938,107.687885 Z" id="Path"></path>
                    <path d="M54.3616,108.089292 C55.5156462,108.089292 56.4439008,107.236302 56.4439008,106.132431 C56.4439008,105.053649 55.5156462,104.17557 54.3616,104.17557 C53.2075538,104.17557 52.2542113,105.053649 52.2542113,106.132431 C52.2542113,107.236302 53.2075538,108.089292 54.3616,108.089292 Z" id="Path"></path>
                    <path d="M83.2111506,100.813784 L80.1002434,100.813784 C79.8493638,100.813784 79.6737481,100.964311 79.5733963,101.240279 C78.8960213,103.347668 77.0896881,104.576978 74.7565078,104.576978 C72.4735033,104.576978 70.7173461,103.498195 69.8392674,101.71695 L74.60598,101.71695 C74.8819476,101.71695 75.0575633,101.59151 75.1077392,101.315543 L75.4338827,100.186585 C75.5091466,99.8604411 75.3586188,99.6597374 75.0324753,99.6597374 L69.2873323,99.6597374 C69.2622443,99.4088578 69.2371564,99.1579782 69.2371564,98.8820106 C69.2371564,98.631131 69.2622443,98.3802514 69.2873323,98.1293718 L75.5342346,98.1293718 C75.8102021,98.1293718 76.0109058,98.003932 76.0610817,97.7279644 L76.3621373,96.6240941 C76.4624891,96.2979506 76.3119613,96.097247 75.9858178,96.097247 L69.8392674,96.097247 C70.6922581,94.3160017 72.4735033,93.2121315 74.7565078,93.2121315 C77.1147761,93.2121315 78.7956695,94.4665295 79.5733963,96.5739182 C79.6737481,96.8498858 79.8493638,96.9753256 80.1002434,96.9753256 L83.2111506,96.9753256 C83.5372941,96.9753256 83.7129098,96.7746219 83.6627339,96.4735664 C82.8850071,92.3340528 79.3476046,89.7249049 74.7314198,89.7249049 C70.0399711,89.7249049 66.6530964,92.1835251 65.5743141,96.097247 L63.717805,96.097247 C63.4418374,96.097247 63.2411337,96.2728627 63.2411337,96.5488303 L63.2411337,97.6777885 C63.2411337,97.9537561 63.4418374,98.1293718 63.717805,98.1293718 L65.2481706,98.1293718 C65.2230826,98.3802514 65.2230826,98.631131 65.2230826,98.8820106 C65.2230826,99.1579782 65.2230826,99.4088578 65.2481706,99.6597374 L63.717805,99.6597374 C63.4418374,99.6597374 63.2411337,99.8604411 63.2411337,100.136409 L63.2411337,101.240279 C63.2411337,101.541334 63.4418374,101.71695 63.717805,101.71695 L65.599402,101.71695 C66.6781844,105.630672 70.0650591,108.064204 74.7314198,108.064204 C79.3476046,108.064204 82.8850071,105.480144 83.6627339,101.315543 C83.7129098,101.014487 83.5372941,100.813784 83.2111506,100.813784 Z" id="Path"></path>
                    <path d="M97.7856514,90.1263123 L90.4599668,90.1263123 C90.1839992,90.1263123 90.0585594,90.27684 90.0585594,90.5528076 L90.0585594,92.885988 C90.0585594,93.1870435 90.2592631,93.3124833 90.5603186,93.3124833 L94.4238646,93.3124833 L94.4238646,107.211214 C94.4238646,107.512269 94.6245683,107.687885 94.9256238,107.687885 L97.7856514,107.687885 C98.0867069,107.687885 98.2623226,107.512269 98.2623226,107.211214 L98.2623226,90.6029835 C98.2623226,90.301928 98.0867069,90.1263123 97.7856514,90.1263123 Z" id="Path"></path>
                    <path d="M108.397057,89.7249049 C103.881224,89.7249049 100.895756,92.5347565 100.895756,96.7746219 L100.895756,101.039575 C100.895756,105.279441 103.881224,108.089292 108.397057,108.089292 C112.887802,108.089292 115.898357,105.279441 115.898357,101.039575 L115.898357,96.7746219 C115.898357,92.5347565 112.887802,89.7249049 108.397057,89.7249049 Z M112.135163,101.039575 C112.135163,103.32258 110.629885,104.852945 108.397057,104.852945 C106.13914,104.852945 104.633862,103.32258 104.633862,101.039575 L104.633862,96.7746219 C104.633862,94.4916175 106.13914,92.9612519 108.397057,92.9612519 C110.629885,92.9612519 112.135163,94.4916175 112.135163,96.7746219 L112.135163,101.039575 Z" id="Shape"></path>
                    <path d="M118.65723,104.225746 C117.478096,104.225746 116.499666,105.078737 116.499666,106.157519 C116.499666,106.935246 117.026513,107.562445 117.754064,107.838413 L116.675281,110.271945 C116.524754,110.623176 116.675281,110.82388 117.026513,110.82388 L118.130383,110.82388 C118.381263,110.82388 118.581966,110.748616 118.707406,110.522824 L120.212684,107.788237 C120.563915,107.186126 120.814795,106.684366 120.814795,106.157519 C120.814795,105.078737 119.836365,104.225746 118.65723,104.225746 Z" id="Path"></path>
                    <path d="M123.774372,102.845908 L132.279191,102.845908 C132.555158,102.845908 132.755862,102.670293 132.755862,102.394325 L132.755862,99.910617 C132.755862,99.6095615 132.555158,99.4339458 132.279191,99.4339458 L123.774372,99.4339458 C123.498405,99.4339458 123.322789,99.6095615 123.322789,99.910617 L123.322789,102.394325 C123.322789,102.670293 123.498405,102.845908 123.774372,102.845908 Z" id="Path"></path>
                </g>
                <g id="Group">
                    <g id="Rectangle">
                        <use fill="black" fill-opacity="1" filter="url(#filter-2)" xlink:href="#path-1"></use>
                        <use fill="#F78E1E" fill-rule="evenodd" xlink:href="#path-1"></use>
                    </g>
                    <g id="B" transform="translate(13.014994, 6.118474)" fill="#FFFFFF" fill-rule="nonzero">
                        <path d="M5.1932079,15.4541839 L7.45112438,15.4541839 C7.72709195,15.4541839 7.90270768,15.2785682 7.90270768,15.0026006 L7.90270768,11.1892306 L12.167661,11.1892306 C12.4436286,11.1892306 12.6192443,11.0136148 12.6192443,10.7125593 L12.6192443,8.78078631 C12.6192443,8.47973078 12.4436286,8.30411505 12.167661,8.30411505 L7.90270768,8.30411505 L7.90270768,4.490745 C7.90270768,4.21477743 7.72709195,4.0391617 7.45112438,4.0391617 L5.1932079,4.0391617 C4.91724033,4.0391617 4.74162461,4.21477743 4.74162461,4.490745 L4.74162461,8.30411505 L0.476671257,8.30411505 C0.200703687,8.30411505 0,8.47973078 0,8.78078631 L0,10.7125593 C0,11.0136148 0.200703687,11.1892306 0.476671257,11.1892306 L4.74162461,11.1892306 L4.74162461,15.0026006 C4.74162461,15.2785682 4.91724033,15.4541839 5.1932079,15.4541839 Z" id="Path"></path>
                        <path d="M25.8405997,18.3392994 C31.5355668,18.3392994 35.0980573,14.7015451 35.0980573,8.95640203 C35.0980573,8.6553465 34.9224415,8.47973078 34.646474,8.47973078 L26.1918312,8.47973078 C25.8907756,8.47973078 25.7151599,8.6553465 25.7151599,8.95640203 L25.7151599,11.0888787 C25.7151599,11.3899342 25.8907756,11.56555 26.1918312,11.56555 L30.6825762,11.56555 C30.0553771,13.5474989 28.1486921,14.8771608 25.8907756,14.8771608 C22.6042528,14.8771608 20.3714242,12.5941564 20.3714242,9.15710572 C20.3714242,5.770231 22.5791648,3.48722656 25.8907756,3.48722656 C28.1236041,3.48722656 29.9299373,4.51583296 30.6574882,6.12146245 C30.75784,6.37234206 30.9334558,6.49778187 31.2094233,6.49778187 L34.4206823,6.49778187 C34.7468258,6.49778187 34.9224415,6.29707818 34.8220897,5.97093469 C33.7433074,2.33318036 30.2309929,0 25.8405997,0 C20.1707205,0 16.3824385,3.66284229 16.3824385,9.15710572 C16.3824385,14.6513692 20.1707205,18.3392994 25.8405997,18.3392994 Z" id="Path"></path>
                        <path d="M54.1147316,17.4110449 L49.4734589,11.6909898 C51.8066392,10.8379991 53.1864771,9.05675388 53.1864771,6.32216614 C53.1864771,2.65932385 50.4017134,0.401407374 46.0614962,0.401407374 L38.7358116,0.401407374 C38.4347561,0.401407374 38.2340524,0.5770231 38.2340524,0.878078631 L38.2340524,17.4863087 C38.2340524,17.7873643 38.4347561,17.96298 38.7358116,17.96298 L41.696191,17.96298 C41.9972465,17.96298 42.1728622,17.7873643 42.1728622,17.4863087 L42.1728622,12.2680129 L45.3088573,12.2680129 L49.6239866,17.6619245 C49.7745144,17.8626281 49.9501301,17.96298 50.2010097,17.96298 L53.8136761,17.96298 C54.2150835,17.96298 54.3405233,17.7121004 54.1147316,17.4110449 Z M42.1728622,3.68793025 L45.7102647,3.68793025 C47.8427414,3.68793025 49.2727552,4.69144868 49.2727552,6.32216614 C49.2727552,8.00305952 47.7674775,8.95640203 45.509561,8.95640203 L42.1728622,8.95640203 L42.1728622,3.68793025 Z" id="Shape"></path>
                        <path d="M55.5698333,17.96298 L58.7810923,17.96298 C59.0319719,17.96298 59.2326756,17.8626281 59.3330275,17.6117485 L60.6877774,14.3754016 L68.590485,14.3754016 L69.9703229,17.6117485 C70.0706747,17.8626281 70.2462905,17.96298 70.522258,17.96298 L73.7084291,17.96298 C74.0345726,17.96298 74.2101883,17.7371883 74.0596605,17.4110449 L66.6587121,0.752638826 C66.5583602,0.501759218 66.3827445,0.401407374 66.1067769,0.401407374 L63.1714855,0.401407374 C62.9206059,0.401407374 62.7449902,0.526847178 62.6446383,0.752638826 L55.1935139,17.4110449 C55.0680741,17.7371883 55.2186019,17.96298 55.5698333,17.96298 Z M62.0174393,11.1390546 L64.6265872,4.89215237 L67.2859111,11.1390546 L62.0174393,11.1390546 Z" id="Shape"></path>
                        <path d="M90.5424508,0.401407374 L75.6151141,0.401407374 C75.3391465,0.401407374 75.1384428,0.5770231 75.1384428,0.878078631 L75.1384428,3.26143491 C75.1384428,3.56249044 75.3391465,3.73810617 75.6151141,3.73810617 L81.1093775,3.73810617 L81.1093775,17.4863087 C81.1093775,17.7873643 81.3100812,17.96298 81.5860488,17.96298 L84.5715161,17.96298 C84.8474837,17.96298 85.0481874,17.7873643 85.0481874,17.4863087 L85.0481874,3.73810617 L90.5424508,3.73810617 C90.8435063,3.73810617 91.0191221,3.56249044 91.0191221,3.26143491 L91.0191221,0.878078631 C91.0191221,0.5770231 90.8435063,0.401407374 90.5424508,0.401407374 Z" id="Path"></path>
                        <path d="M92.9007191,17.96298 L101.806945,17.96298 C102.108001,17.96298 102.308704,17.7873643 102.308704,17.4863087 L102.308704,15.1029524 C102.308704,14.8018969 102.108001,14.6262812 101.806945,14.6262812 L99.3232371,14.6262812 L99.3232371,3.73810617 L101.806945,3.73810617 C102.108001,3.73810617 102.308704,3.56249044 102.308704,3.26143491 L102.308704,0.878078631 C102.308704,0.5770231 102.108001,0.401407374 101.806945,0.401407374 L92.9007191,0.401407374 C92.5996636,0.401407374 92.4240479,0.5770231 92.4240479,0.878078631 L92.4240479,3.26143491 C92.4240479,3.56249044 92.5996636,3.73810617 92.9007191,3.73810617 L95.3844273,3.73810617 L95.3844273,14.6262812 L92.9007191,14.6262812 C92.5996636,14.6262812 92.4240479,14.8018969 92.4240479,15.1029524 L92.4240479,17.4863087 C92.4240479,17.7873643 92.5996636,17.96298 92.9007191,17.96298 Z" id="Path"></path>
                        <path d="M112.093009,18.3392994 C116.458314,18.3392994 119.368518,16.1817348 119.368518,12.8952119 C119.368518,5.84549488 109.032278,9.15710572 109.032278,5.1932079 C109.032278,3.9137219 110.261588,3.11090715 112.017745,3.11090715 C113.698639,3.11090715 114.902861,3.83845801 115.27918,5.14303198 C115.40462,5.41899955 115.555148,5.51935139 115.831115,5.51935139 L118.841671,5.51935139 C119.167814,5.51935139 119.368518,5.34373567 119.293254,5.04268014 C118.741319,1.90668503 115.6555,0 111.791954,0 C107.602264,0 104.767325,2.1826526 104.767325,5.44408751 C104.767325,12.7697721 115.203916,9.38289737 115.203916,13.2213554 C115.203916,14.4255775 114.024782,15.1782163 112.193361,15.1782163 C110.035796,15.1782163 108.455255,14.2248738 108.053848,12.7697721 C107.953496,12.5188925 107.802968,12.3683647 107.527,12.3683647 L104.541533,12.3683647 C104.240477,12.3683647 104.039774,12.5439804 104.08995,12.8701239 C104.566621,16.1817348 107.752792,18.3392994 112.093009,18.3392994 Z" id="Path"></path>
                    </g>
                </g>
            </g>
        </g>
    </g>
</svg>