<?xml version="1.0" encoding="UTF-8"?>
<svg width="150px" height="176.56099px" viewBox="0 0 150 176.56099" version="1.1" xmlns="http://www.w3.org/2000/svg" xmlns:xlink="http://www.w3.org/1999/xlink">
    <title>Group 2</title>
    <defs>
        <rect id="path-1" x="0" y="0" width="144" height="30.5148109" rx="15.2574054"></rect>
        <filter x="-3.1%" y="-14.7%" width="106.2%" height="129.5%" filterUnits="objectBoundingBox" id="filter-2">
            <feOffset dx="0" dy="0" in="SourceAlpha" result="shadowOffsetOuter1"></feOffset>
            <feGaussianBlur stdDeviation="1.5" in="shadowOffsetOuter1" result="shadowBlurOuter1"></feGaussianBlur>
            <feColorMatrix values="0 0 0 0 0   0 0 0 0 0.368045807   0 0 0 0 0.361608624  0 0 0 0.5 0" type="matrix" in="shadowBlurOuter1"></feColorMatrix>
        </filter>
    </defs>
    <g id="Spotlight-4---HTML-5-" stroke="none" stroke-width="1" fill="none" fill-rule="evenodd">
        <g id="160x600px_2" transform="translate(-5.318859, -156.125605)">
            <g id="Group-2" transform="translate(8.318859, 156.125605)">
                <g id="Group" transform="translate(0.000000, 79.581915)">
                    <g id="Rectangle">
                        <use fill="black" fill-opacity="1" filter="url(#filter-2)" xlink:href="#path-1"></use>
                        <use fill="#F78E1E" fill-rule="evenodd" xlink:href="#path-1"></use>
                    </g>
                    <g id="B" transform="translate(11.810383, 6.455379)" fill="#FFFFFF" fill-rule="nonzero">
                        <path d="M0.492305618,17.6245411 L8.93534696,17.6245411 C12.8245613,17.6245411 15.3599353,15.8030103 15.3599353,12.9968683 C15.3599353,10.8307236 14.0553254,9.20611505 11.9137959,8.76304 L11.9137959,8.66457887 C13.6122503,8.04919685 14.5230157,6.57228 14.5230157,4.84921033 C14.5230157,2.16614472 12.2091793,0.393844494 8.61534831,0.393844494 L0.492305618,0.393844494 C0.196922247,0.393844494 0,0.56615146 0,0.861534831 L0,17.1568508 C0,17.4522341 0.196922247,17.6245411 0.492305618,17.6245411 Z M3.8645991,7.55689123 L3.8645991,3.42152404 L8.04919685,3.42152404 C9.89534292,3.42152404 10.8553389,4.20921303 10.8553389,5.31690067 C10.8553389,6.62151056 9.67380539,7.55689123 7.8522746,7.55689123 L3.8645991,7.55689123 Z M3.8645991,14.5722463 L3.8645991,10.4368791 L8.86150112,10.4368791 C10.4861097,10.4368791 11.569182,11.2491834 11.569182,12.5045627 C11.569182,13.759942 10.3876485,14.5722463 8.59073303,14.5722463 L3.8645991,14.5722463 Z" id="Shape"></path>
                        <path d="M31.1875609,3.15075595 L31.1875609,0.861534831 C31.1875609,0.56615146 31.0152539,0.393844494 30.7198705,0.393844494 L18.4860759,0.393844494 C18.1906926,0.393844494 17.9937703,0.56615146 17.9937703,0.861534831 L17.9937703,17.1568508 C17.9937703,17.4522341 18.1906926,17.6245411 18.4860759,17.6245411 L30.7198705,17.6245411 C31.0152539,17.6245411 31.1875609,17.4522341 31.1875609,17.1568508 L31.1875609,14.8676297 C31.1875609,14.5968616 31.0152539,14.4245546 30.7198705,14.4245546 L21.8583694,14.4245546 L21.8583694,10.6830319 L29.5629523,10.6830319 C29.8583357,10.6830319 30.0306427,10.5107249 30.0306427,10.2153416 L30.0306427,7.95073573 C30.0306427,7.67996764 29.8583357,7.50766067 29.5629523,7.50766067 L21.8583694,7.50766067 L21.8583694,3.59383101 L30.7198705,3.59383101 C31.0152539,3.59383101 31.1875609,3.42152404 31.1875609,3.15075595 Z" id="Path"></path>
                        <path d="M41.0829038,17.9937703 C45.3659627,17.9937703 48.2213353,15.8768562 48.2213353,12.6522544 C48.2213353,5.73536045 38.0798395,8.98457752 38.0798395,5.09536314 C38.0798395,3.83998382 39.2859883,3.05229483 41.009058,3.05229483 C42.6582818,3.05229483 43.8398153,3.76613798 44.2090445,5.04613258 C44.3321209,5.31690067 44.4798126,5.4153618 44.7505807,5.4153618 L47.7044144,5.4153618 C48.024413,5.4153618 48.2213353,5.24305483 48.1474894,4.94767146 C47.6059532,1.87076135 44.5782737,0 40.7875204,0 C36.6767685,0 33.8952418,2.14152944 33.8952418,5.34151595 C33.8952418,12.529178 44.1351986,9.20611505 44.1351986,12.972253 C44.1351986,14.1537865 42.9782804,14.8922449 41.1813649,14.8922449 C39.0644508,14.8922449 37.5136881,13.9568643 37.1198436,12.529178 C37.0213825,12.2830252 36.8736908,12.1353335 36.6029227,12.1353335 L33.6737043,12.1353335 C33.3783209,12.1353335 33.1813986,12.3076404 33.2306292,12.6276391 C33.6983195,15.8768562 36.8244602,17.9937703 41.0829038,17.9937703 Z" id="Path"></path>
                        <path d="M51.6428593,17.6245411 L54.5474624,17.6245411 C54.8428458,17.6245411 55.0151528,17.4522341 55.0151528,17.1568508 L55.0151528,12.7014849 L58.2151393,12.7014849 C62.5474287,12.7014849 65.4766472,10.1907263 65.4766472,6.44920359 C65.4766472,2.8307573 62.6212746,0.393844494 58.3874463,0.393844494 L51.6428593,0.393844494 C51.3474759,0.393844494 51.1505537,0.56615146 51.1505537,0.861534831 L51.1505537,17.1568508 C51.1505537,17.4522341 51.3474759,17.6245411 51.6428593,17.6245411 Z M55.0151528,9.50149842 L55.0151528,3.61844629 L58.0182171,3.61844629 C60.1351312,3.61844629 61.6120481,4.77536449 61.6120481,6.44920359 C61.6120481,8.2461191 60.1351312,9.50149842 58.0182171,9.50149842 L55.0151528,9.50149842 Z" id="Shape"></path>
                        <path d="M66.781257,17.6245411 L69.932013,17.6245411 C70.1781658,17.6245411 70.3750881,17.52608 70.4735492,17.2799272 L71.8027743,14.1045559 L79.5565878,14.1045559 L80.9104283,17.2799272 C81.0088894,17.52608 81.1811964,17.6245411 81.4519645,17.6245411 L84.5781051,17.6245411 C84.8981038,17.6245411 85.0704107,17.4030036 84.9227191,17.0830049 L77.6612112,0.738458427 C77.5627501,0.492305618 77.3904431,0.393844494 77.119675,0.393844494 L74.2396872,0.393844494 C73.9935343,0.393844494 73.8212274,0.516920899 73.7227663,0.738458427 L66.4120278,17.0830049 C66.2889514,17.4030036 66.4366431,17.6245411 66.781257,17.6245411 Z M73.1073842,10.9291847 L75.6673734,4.79997977 L78.2765932,10.9291847 L73.1073842,10.9291847 Z" id="Shape"></path>
                        <path d="M86.1288678,17.6245411 L89.2796238,17.6245411 C89.5257766,17.6245411 89.7226988,17.52608 89.82116,17.2799272 L91.1503851,14.1045559 L98.9041986,14.1045559 L100.258039,17.2799272 C100.3565,17.52608 100.528807,17.6245411 100.799575,17.6245411 L103.925716,17.6245411 C104.245715,17.6245411 104.418022,17.4030036 104.27033,17.0830049 L97.008822,0.738458427 C96.9103609,0.492305618 96.7380539,0.393844494 96.4672858,0.393844494 L93.5872979,0.393844494 C93.3411451,0.393844494 93.1688382,0.516920899 93.070377,0.738458427 L85.7596386,17.0830049 C85.6365622,17.4030036 85.7842539,17.6245411 86.1288678,17.6245411 Z M92.454995,10.9291847 L95.0149842,4.79997977 L97.624204,10.9291847 L92.454995,10.9291847 Z" id="Shape"></path>
                        <path d="M121.894871,17.0830049 L117.341044,11.4707209 C119.630265,10.6338013 120.984106,8.8861164 120.984106,6.20305078 C120.984106,2.60921977 118.251809,0.393844494 113.993366,0.393844494 L106.805704,0.393844494 C106.51032,0.393844494 106.313398,0.56615146 106.313398,0.861534831 L106.313398,17.1568508 C106.313398,17.4522341 106.51032,17.6245411 106.805704,17.6245411 L109.710307,17.6245411 C110.00569,17.6245411 110.177997,17.4522341 110.177997,17.1568508 L110.177997,12.0368724 L113.254907,12.0368724 L117.488736,17.3291577 C117.636427,17.52608 117.808734,17.6245411 118.054887,17.6245411 L121.599488,17.6245411 C121.993332,17.6245411 122.116408,17.3783883 121.894871,17.0830049 Z M110.177997,3.61844629 L113.648752,3.61844629 C115.741051,3.61844629 117.144122,4.60305753 117.144122,6.20305078 C117.144122,7.8522746 115.667205,8.78765528 113.45183,8.78765528 L110.177997,8.78765528 L110.177997,3.61844629 Z" id="Shape"></path>
                    </g>
                </g>
                <g id="tot-€-300,--per-jaar" transform="translate(6.125641, 122.807244)" fill="#FFFFFF" fill-rule="nonzero">
                    <path d="M7.92612045,18.0183856 C8.68919415,18.0183856 9.82149707,17.8706939 10.8061083,17.6245411 C11.1014917,17.52608 11.1999528,17.353773 11.1753375,17.0830049 L10.8553389,14.9660908 C10.8061083,14.6953227 10.6091861,14.547631 10.3138027,14.5968616 C9.72303595,14.7445533 9.0091928,14.8183991 8.46765663,14.8183991 C7.23689258,14.8183991 6.42458831,14.0553254 6.42458831,12.7999461 L6.42458831,8.66457887 L10.2891874,8.66457887 C10.5599555,8.66457887 10.7568777,8.49227191 10.7568777,8.19688854 L10.7568777,6.15382022 C10.7568777,5.85843685 10.5599555,5.68612989 10.2891874,5.68612989 L6.42458831,5.68612989 L6.42458831,2.55998921 C6.42458831,2.26460584 6.25228135,2.09229888 5.95689797,2.09229888 L3.19998652,2.09229888 C2.90460314,2.09229888 2.73229618,2.26460584 2.73229618,2.55998921 L2.73229618,5.68612989 L0.467690337,5.68612989 C0.172306966,5.68612989 0,5.85843685 0,6.15382022 L0,8.19688854 C0,8.49227191 0.172306966,8.66457887 0.467690337,8.66457887 L2.73229618,8.66457887 L2.73229618,12.9230225 C2.73229618,16.0737784 4.72613393,18.0183856 7.92612045,18.0183856 Z" id="Path"></path>
                    <path d="M18.854518,18.0183856 C22.9160394,18.0183856 25.6237203,15.4830117 25.6237203,11.6676431 C25.6237203,7.82765932 22.9160394,5.29228539 18.854518,5.29228539 C14.7929967,5.29228539 12.0853158,7.82765932 12.0853158,11.6676431 C12.0853158,15.4830117 14.7929967,18.0183856 18.854518,18.0183856 Z M18.854518,14.9660908 C16.9099108,14.9660908 15.605301,13.6614809 15.605301,11.6676431 C15.605301,9.67380539 16.9099108,8.34458022 18.854518,8.34458022 C20.7991252,8.34458022 22.1037351,9.67380539 22.1037351,11.6676431 C22.1037351,13.6614809 20.7991252,14.9660908 18.854518,14.9660908 Z" id="Shape"></path>
                    <path d="M33.9921287,18.0183856 C34.7552024,18.0183856 35.8875053,17.8706939 36.8721165,17.6245411 C37.1674999,17.52608 37.265961,17.353773 37.2413457,17.0830049 L36.9213471,14.9660908 C36.8721165,14.6953227 36.6751943,14.547631 36.3798109,14.5968616 C35.7890442,14.7445533 35.075201,14.8183991 34.5336648,14.8183991 C33.3029008,14.8183991 32.4905965,14.0553254 32.4905965,12.7999461 L32.4905965,8.66457887 L36.3551956,8.66457887 C36.6259637,8.66457887 36.822886,8.49227191 36.822886,8.19688854 L36.822886,6.15382022 C36.822886,5.85843685 36.6259637,5.68612989 36.3551956,5.68612989 L32.4905965,5.68612989 L32.4905965,2.55998921 C32.4905965,2.26460584 32.3182896,2.09229888 32.0229062,2.09229888 L29.2659947,2.09229888 C28.9706114,2.09229888 28.7983044,2.26460584 28.7983044,2.55998921 L28.7983044,5.68612989 L26.5336986,5.68612989 C26.2383152,5.68612989 26.0660082,5.85843685 26.0660082,6.15382022 L26.0660082,8.19688854 C26.0660082,8.49227191 26.2383152,8.66457887 26.5336986,8.66457887 L28.7983044,8.66457887 L28.7983044,12.9230225 C28.7983044,16.0737784 30.7921421,18.0183856 33.9921287,18.0183856 Z" id="Path"></path>
                    <path d="M63.3565845,10.8799542 L60.3042897,10.8799542 C60.0581369,10.8799542 59.8858299,11.0276458 59.7873688,11.2984139 C59.1227562,13.3660975 57.350456,14.5722463 55.0612349,14.5722463 C52.8212443,14.5722463 51.0981746,13.5137892 50.2366398,11.7661043 L54.9135432,11.7661043 C55.1843113,11.7661043 55.3566182,11.6430279 55.4058488,11.3722598 L55.7258474,10.2645721 C55.7996933,9.94457348 55.6520016,9.74765123 55.3320029,9.74765123 L49.6951036,9.74765123 C49.6704883,9.50149842 49.6458731,9.25534561 49.6458731,8.98457752 C49.6458731,8.73842472 49.6704883,8.49227191 49.6951036,8.2461191 L55.8243086,8.2461191 C56.0950767,8.2461191 56.2919989,8.12304269 56.3412295,7.8522746 L56.6366128,6.76920224 C56.735074,6.44920359 56.5873823,6.25228135 56.2673836,6.25228135 L50.2366398,6.25228135 C51.0735594,4.5045964 52.8212443,3.42152404 55.0612349,3.42152404 C57.3750713,3.42152404 59.0242951,4.65228809 59.7873688,6.71997168 C59.8858299,6.99073977 60.0581369,7.11381618 60.3042897,7.11381618 L63.3565845,7.11381618 C63.6765832,7.11381618 63.8488901,6.91689393 63.7996596,6.62151056 C63.0365859,2.55998921 59.5658313,0 55.0366196,0 C50.4335621,0 47.1104991,2.41229753 46.0520421,6.25228135 L44.2305113,6.25228135 C43.9597432,6.25228135 43.7628209,6.42458831 43.7628209,6.6953564 L43.7628209,7.80304404 C43.7628209,8.07381213 43.9597432,8.2461191 44.2305113,8.2461191 L45.7320434,8.2461191 C45.7074281,8.49227191 45.7074281,8.73842472 45.7074281,8.98457752 C45.7074281,9.25534561 45.7074281,9.50149842 45.7320434,9.74765123 L44.2305113,9.74765123 C43.9597432,9.74765123 43.7628209,9.94457348 43.7628209,10.2153416 L43.7628209,11.2984139 C43.7628209,11.5937973 43.9597432,11.7661043 44.2305113,11.7661043 L46.0766573,11.7661043 C47.1351144,15.6060881 50.4581773,17.9937703 55.0366196,17.9937703 C59.5658313,17.9937703 63.0365859,15.4583964 63.7996596,11.3722598 C63.8488901,11.0768764 63.6765832,10.8799542 63.3565845,10.8799542 Z" id="Path"></path>
                    <path d="M77.4595662,18.0183856 C81.3241653,18.0183856 83.9087698,15.950702 83.9087698,12.8491766 C83.9087698,11.1014917 83.0718503,9.67380539 81.5457029,8.8861164 C82.7518516,8.09842741 83.3918489,6.74458696 83.3918489,5.07074786 C83.3918489,2.01845303 81.0041667,0 77.4103357,0 C74.0134269,0 71.6011294,1.7969155 71.2072849,4.57844225 C71.133439,4.8984409 71.3303613,5.07074786 71.6503599,5.07074786 L74.3580408,5.07074786 C74.6288089,5.07074786 74.7765006,4.92305618 74.8503465,4.65228809 C75.1457298,3.61844629 76.1057258,2.95383371 77.4103357,2.95383371 C78.9118678,2.95383371 79.9210943,3.83998382 79.9210943,5.19382427 C79.9210943,6.74458696 78.9118678,7.65535236 77.3364898,7.65535236 L75.8841882,7.65535236 C75.5888049,7.65535236 75.4164979,7.82765932 75.4164979,8.12304269 L75.4164979,9.9199582 C75.4164979,10.1907263 75.5888049,10.3876485 75.8841882,10.3876485 L77.3118745,10.3876485 C79.1826359,10.3876485 80.3395541,11.2984139 80.3395541,12.8245613 C80.3395541,14.1784018 79.1826359,15.0645519 77.4349509,15.0645519 C76.0072647,15.0645519 74.899577,14.3999393 74.5057325,13.316867 C74.4072714,13.0460989 74.2595797,12.9230225 73.9888116,12.9230225 L71.2565154,12.9230225 C70.9611321,12.9230225 70.7642098,13.0953294 70.8134404,13.4153281 C71.2811307,16.1968548 73.8657352,18.0183856 77.4595662,18.0183856 Z" id="Path"></path>
                    <path d="M92.5971768,0 C88.1664263,0 85.2372079,2.75691146 85.2372079,6.91689393 L85.2372079,11.1014917 C85.2372079,15.2614742 88.1664263,18.0183856 92.5971768,18.0183856 C97.0033121,18.0183856 99.9571458,15.2614742 99.9571458,11.1014917 L99.9571458,6.91689393 C99.9571458,2.75691146 97.0033121,0 92.5971768,0 Z M96.2648537,11.1014917 C96.2648537,13.3414822 94.7879368,14.8430144 92.5971768,14.8430144 C90.3818016,14.8430144 88.9048847,13.3414822 88.9048847,11.1014917 L88.9048847,6.91689393 C88.9048847,4.67690337 90.3818016,3.17537123 92.5971768,3.17537123 C94.7879368,3.17537123 96.2648537,4.67690337 96.2648537,6.91689393 L96.2648537,11.1014917 Z" id="Shape"></path>
                    <path d="M109.014782,0 C104.584032,0 101.654813,2.75691146 101.654813,6.91689393 L101.654813,11.1014917 C101.654813,15.2614742 104.584032,18.0183856 109.014782,18.0183856 C113.420917,18.0183856 116.374751,15.2614742 116.374751,11.1014917 L116.374751,6.91689393 C116.374751,2.75691146 113.420917,0 109.014782,0 Z M112.682459,11.1014917 C112.682459,13.3414822 111.205542,14.8430144 109.014782,14.8430144 C106.799407,14.8430144 105.32249,13.3414822 105.32249,11.1014917 L105.32249,6.91689393 C105.32249,4.67690337 106.799407,3.17537123 109.014782,3.17537123 C111.205542,3.17537123 112.682459,4.67690337 112.682459,6.91689393 L112.682459,11.1014917 Z" id="Shape"></path>
                    <path d="M119.081645,14.2276324 C117.924727,14.2276324 116.964731,15.0645519 116.964731,16.123009 C116.964731,16.8860827 117.481652,17.5014647 118.195495,17.7722328 L117.137038,20.159915 C116.989346,20.504529 117.137038,20.7014512 117.481652,20.7014512 L118.564724,20.7014512 C118.810877,20.7014512 119.007799,20.6276054 119.130875,20.4060679 L120.607792,17.7230022 C120.952406,17.1322355 121.198559,16.6399299 121.198559,16.123009 C121.198559,15.0645519 120.238563,14.2276324 119.081645,14.2276324 Z" id="Path"></path>
                    <path d="M124.102375,12.8737919 L132.446955,12.8737919 C132.717723,12.8737919 132.914646,12.7014849 132.914646,12.4307168 L132.914646,9.99380404 C132.914646,9.69842067 132.717723,9.5261137 132.446955,9.5261137 L124.102375,9.5261137 C123.831607,9.5261137 123.6593,9.69842067 123.6593,9.99380404 L123.6593,12.4307168 C123.6593,12.7014849 123.831607,12.8737919 124.102375,12.8737919 Z" id="Path"></path>
                    <path d="M9.64919011,35.2922854 C8.14765797,35.2922854 6.6953564,35.8092063 5.61228404,36.8676634 C5.11997842,35.9076674 4.03690607,35.2922854 2.63383505,35.2922854 C2.06768359,35.2922854 1.42768629,35.3661312 0.861534831,35.5876688 C0.590766741,35.6861299 0.492305618,35.8338216 0.492305618,36.1292049 L0.492305618,38.147658 C0.492305618,38.4676566 0.713843146,38.5415025 1.0338418,38.5415025 C1.18153348,38.5168872 1.42768629,38.4676566 1.57537798,38.4676566 C2.26460584,38.4676566 2.53537393,38.76304 2.53537393,39.4276526 L2.53537393,52.8922112 C2.53537393,53.1629793 2.7076809,53.3352863 3.00306427,53.3352863 L5.75997573,53.3352863 C6.0553591,53.3352863 6.22766606,53.1629793 6.22766606,52.8922112 L6.22766606,46.9599285 C7.23689258,47.698387 8.41842606,48.0183856 9.64919011,48.0183856 C13.4891739,48.0183856 16.1476243,45.4091658 16.1476243,41.6676431 C16.1476243,37.9015052 13.4891739,35.2922854 9.64919011,35.2922854 Z M9.35380674,45.1383977 C7.50766067,45.1383977 6.22766606,43.7107115 6.22766606,41.6676431 C6.22766606,39.5999595 7.50766067,38.1722733 9.35380674,38.1722733 C11.1999528,38.1722733 12.529178,39.5999595 12.529178,41.6676431 C12.529178,43.7107115 11.1999528,45.1383977 9.35380674,45.1383977 Z" id="Shape"></path>
                    <path d="M24.2206493,48.0183856 C27.002176,48.0183856 29.2175513,46.7630063 30.0544708,44.719938 C30.1775472,44.4245546 30.0052403,44.2276324 29.6606263,44.2276324 L26.9037149,44.2276324 C26.6575621,44.2276324 26.5098704,44.3260935 26.3129481,44.4737852 C25.8944884,44.9414755 25.1560299,45.2122436 24.2944951,45.2122436 C22.6698866,45.2122436 21.4391225,44.3014782 21.045278,42.8245613 L29.8821639,42.8245613 C30.152932,42.8245613 30.3498542,42.7014849 30.3990848,42.4061016 C30.3990848,42.1353335 30.4237001,41.8399501 30.4237001,41.569182 C30.4237001,37.8276593 27.9867872,35.2922854 23.9991117,35.2922854 C20.0852821,35.2922854 17.451447,37.8276593 17.451447,41.6676431 C17.451447,45.4830117 20.1837432,48.0183856 24.2206493,48.0183856 Z M21.0206628,40.6338013 C21.2422003,39.0830386 22.4729643,38.0245816 24.0975729,38.0245816 C25.7467967,38.0245816 26.829869,39.1076539 26.9037149,40.6338013 L21.0206628,40.6338013 Z" id="Shape"></path>
                    <path d="M42.2136325,35.5138229 C41.7705574,35.3661312 41.1059448,35.2922854 40.5151781,35.2922854 C38.8905696,35.2922854 37.4874985,35.8830521 36.5028873,36.9661245 C36.035197,35.9322827 34.9521246,35.2922854 33.5244383,35.2922854 C32.9582869,35.2922854 32.3182896,35.3907465 31.7521381,35.5876688 C31.48137,35.6861299 31.3829089,35.8338216 31.3829089,36.1292049 L31.3829089,38.147658 C31.3829089,38.4676566 31.6044464,38.5415025 31.9244451,38.5415025 C32.0721368,38.5168872 32.3182896,38.4676566 32.4659812,38.4676566 C33.1552091,38.4676566 33.4259772,38.76304 33.4259772,39.4276526 L33.4259772,47.1568508 C33.4259772,47.4522341 33.5982842,47.6245411 33.8936675,47.6245411 L36.650579,47.6245411 C36.9459624,47.6245411 37.1182693,47.4522341 37.1182693,47.1568508 L37.1182693,41.8645654 C37.1182693,39.8461124 38.4967251,38.6645789 40.3674864,38.6645789 C40.8351767,38.6645789 41.3520976,38.7138094 41.7213269,38.7876553 C42.0167102,38.8368858 42.2136325,38.7138094 42.262863,38.4184261 L42.5828617,36.0553591 C42.607477,35.784591 42.5090159,35.5876688 42.2136325,35.5138229 Z" id="Path"></path>
                    <path d="M51.7135567,33.4953699 C52.9197054,33.4953699 53.9043167,32.6092198 53.9043167,31.4523016 C53.9043167,30.2953834 52.9197054,29.4338485 51.7135567,29.4338485 C50.4581773,29.4338485 49.4981814,30.2953834 49.4981814,31.4523016 C49.4981814,32.6092198 50.4581773,33.4953699 51.7135567,33.4953699 Z M48.2181868,53.7537461 C51.8858636,53.6799002 53.5597027,51.8337541 53.5597027,48.141462 L53.5597027,36.1538202 C53.5597027,35.8584369 53.3627805,35.6861299 53.0920124,35.6861299 L50.3104856,35.6861299 C50.0397176,35.6861299 49.8427953,35.8584369 49.8427953,36.1538202 L49.8427953,48.5599218 C49.8427953,49.9629928 49.3504897,50.5291443 47.8735728,50.7260665 C47.5043436,50.7999124 47.3320367,50.9722193 47.3812672,51.2676027 L47.7012659,53.310671 C47.7504964,53.6060544 47.9474187,53.7537461 48.2181868,53.7537461 Z" id="Shape"></path>
                    <path d="M71.3557637,47.2060813 L71.1096109,45.163013 C71.0849956,44.8430144 70.8880733,44.7445533 70.59269,44.7691685 C70.2726913,44.8430144 70.0757691,44.8430144 69.8296163,44.8430144 C69.3126954,44.8430144 69.017312,44.5230157 69.017312,43.8830184 L69.017312,36.1538202 C69.017312,35.8584369 68.845005,35.6861299 68.5496217,35.6861299 L65.8419408,35.6861299 C65.5465574,35.6861299 65.3742504,35.8584369 65.3742504,36.1538202 L65.3742504,36.4245883 C64.3896392,35.6615146 63.1834904,35.2922854 61.8788805,35.2922854 C58.063512,35.2922854 55.4050617,37.9015052 55.4050617,41.6676431 C55.4050617,45.4091658 58.063512,48.0183856 61.8788805,48.0183856 C63.4788738,48.0183856 64.8573295,47.52608 66.0142477,46.5168535 C66.5311686,47.4522341 67.614241,48.0183856 69.1157731,48.0183856 C69.7065399,48.0183856 70.2973066,47.9199245 70.9619192,47.7230022 C71.2573026,47.6491564 71.380379,47.4768494 71.3557637,47.2060813 Z M62.1988792,45.1383977 C60.3281178,45.1383977 59.023508,43.7107115 59.023508,41.6676431 C59.023508,39.5999595 60.3281178,38.1722733 62.1988792,38.1722733 C64.0450253,38.1722733 65.3004046,39.5999595 65.3004046,41.6676431 C65.3004046,43.7107115 64.0450253,45.1383977 62.1988792,45.1383977 Z" id="Shape"></path>
                    <path d="M88.1918287,47.2060813 L87.9456759,45.163013 C87.9210606,44.8430144 87.7241384,44.7445533 87.428755,44.7691685 C87.1087563,44.8430144 86.9118341,44.8430144 86.6656813,44.8430144 C86.1487604,44.8430144 85.853377,44.5230157 85.853377,43.8830184 L85.853377,36.1538202 C85.853377,35.8584369 85.68107,35.6861299 85.3856867,35.6861299 L82.6780058,35.6861299 C82.3826224,35.6861299 82.2103154,35.8584369 82.2103154,36.1538202 L82.2103154,36.4245883 C81.2257042,35.6615146 80.0195554,35.2922854 78.7149455,35.2922854 C74.899577,35.2922854 72.2411267,37.9015052 72.2411267,41.6676431 C72.2411267,45.4091658 74.899577,48.0183856 78.7149455,48.0183856 C80.3149388,48.0183856 81.6933945,47.52608 82.8503127,46.5168535 C83.3672336,47.4522341 84.450306,48.0183856 85.9518381,48.0183856 C86.5426049,48.0183856 87.1333716,47.9199245 87.7979842,47.7230022 C88.0933676,47.6491564 88.216444,47.4768494 88.1918287,47.2060813 Z M79.0349442,45.1383977 C77.1641829,45.1383977 75.859573,43.7107115 75.859573,41.6676431 C75.859573,39.5999595 77.1641829,38.1722733 79.0349442,38.1722733 C80.8810903,38.1722733 82.1364696,39.5999595 82.1364696,41.6676431 C82.1364696,43.7107115 80.8810903,45.1383977 79.0349442,45.1383977 Z" id="Shape"></path>
                    <path d="M99.6125319,35.5138229 C99.1694568,35.3661312 98.5048443,35.2922854 97.9140775,35.2922854 C96.289469,35.2922854 94.886398,35.8830521 93.9017867,36.9661245 C93.4340964,35.9322827 92.351024,35.2922854 90.9233377,35.2922854 C90.3571863,35.2922854 89.717189,35.3907465 89.1510375,35.5876688 C88.8802694,35.6861299 88.7818083,35.8338216 88.7818083,36.1292049 L88.7818083,38.147658 C88.7818083,38.4676566 89.0033458,38.5415025 89.3233445,38.5415025 C89.4710362,38.5168872 89.717189,38.4676566 89.8648807,38.4676566 C90.5541085,38.4676566 90.8248766,38.76304 90.8248766,39.4276526 L90.8248766,47.1568508 C90.8248766,47.4522341 90.9971836,47.6245411 91.292567,47.6245411 L94.0494784,47.6245411 C94.3448618,47.6245411 94.5171688,47.4522341 94.5171688,47.1568508 L94.5171688,41.8645654 C94.5171688,39.8461124 95.8956245,38.6645789 97.7663858,38.6645789 C98.2340762,38.6645789 98.7509971,38.7138094 99.1202263,38.7876553 C99.4156097,38.8368858 99.6125319,38.7138094 99.6617625,38.4184261 L99.9817611,36.0553591 C100.006376,35.784591 99.9079153,35.5876688 99.6125319,35.5138229 Z" id="Path"></path>
                </g>
                <g id="Profiteer-van-100+-v" transform="translate(6.113282, 0.000000)" fill="#FFFFFF" fill-rule="nonzero">
                    <path d="M1.36796062,14.7665158 L3.26511562,14.7665158 C3.44114031,14.7665158 3.55849011,14.649166 3.55849011,14.4731413 L3.55849011,10.4832483 L6.37488517,10.4832483 C9.6411211,10.4832483 11.9490004,8.48830178 11.9490004,5.67190672 C11.9490004,2.97286145 9.7193543,1.07570645 6.57046816,1.07570645 L1.36796062,1.07570645 C1.19193592,1.07570645 1.07458613,1.19305624 1.07458613,1.36908093 L1.07458613,14.4731413 C1.07458613,14.649166 1.19193592,14.7665158 1.36796062,14.7665158 Z M3.55849011,8.33183539 L3.55849011,3.24667764 L6.29665197,3.24667764 C8.15469038,3.24667764 9.48465471,4.24415089 9.48465471,5.67190672 C9.48465471,7.23657064 8.15469038,8.33183539 6.29665197,8.33183539 L3.55849011,8.33183539 Z" id="Shape"></path>
                    <path d="M21.4543337,5.28074074 C21.0631677,5.16339094 20.4959771,5.08515775 19.9874613,5.08515775 C18.6770553,5.08515775 17.5622322,5.59367352 16.7407837,6.49335528 C16.4278509,5.61323182 15.586844,5.08515775 14.4524627,5.08515775 C14.080855,5.08515775 13.6310141,5.16339094 13.2594064,5.28074074 C13.0833817,5.33941564 13.0247068,5.45676543 13.0247068,5.63279012 L13.0247068,7.00187105 C13.0247068,7.19745404 13.1811732,7.25612894 13.3767562,7.23657064 C13.5136643,7.21701234 13.7874805,7.17789574 13.9243886,7.17789574 C14.4915793,7.17789574 14.7458372,7.41259533 14.7458372,7.90155281 L14.7458372,14.4731413 C14.7458372,14.649166 14.8631869,14.7665158 15.0392116,14.7665158 L16.8385751,14.7665158 C17.0145998,14.7665158 17.1319496,14.649166 17.1319496,14.4731413 L17.1319496,10.072524 C17.1319496,8.37095198 18.3054476,7.23657064 19.967903,7.23657064 C20.359069,7.23657064 20.750235,7.27568724 21.082726,7.33436214 C21.278309,7.37347873 21.3956588,7.29524554 21.4347754,7.09966255 L21.669475,5.63279012 C21.6890333,5.45676543 21.6303584,5.33941564 21.4543337,5.28074074 Z" id="Path"></path>
                    <path d="M28.3584133,15.0598903 C31.4877411,15.0598903 33.5804791,13.0649438 33.5804791,10.072524 C33.5804791,7.08010425 31.4877411,5.08515775 28.3584133,5.08515775 C25.2290854,5.08515775 23.1363474,7.08010425 23.1363474,10.072524 C23.1363474,13.0649438 25.2290854,15.0598903 28.3584133,15.0598903 Z M28.3584133,13.0062689 C26.6568413,13.0062689 25.5224599,11.8327709 25.5224599,10.072524 C25.5224599,8.31227709 26.6568413,7.13877915 28.3584133,7.13877915 C30.0599853,7.13877915 31.1943666,8.31227709 31.1943666,10.072524 C31.1943666,11.8327709 30.0599853,13.0062689 28.3584133,13.0062689 Z" id="Shape"></path>
                    <path d="M37.5899304,14.7665158 L39.3892939,14.7665158 C39.5653186,14.7665158 39.6826684,14.649166 39.6826684,14.4731413 L39.6826684,7.27568724 L44.7091513,7.27568724 L44.7091513,14.4731413 C44.7091513,14.649166 44.8265011,14.7665158 45.0025258,14.7665158 L46.8018893,14.7665158 C46.977914,14.7665158 47.0952637,14.649166 47.0952637,14.4731413 L47.0952637,5.67190672 C47.0952637,5.49588203 46.977914,5.37853223 46.8018893,5.37853223 L39.6826684,5.37853223 L39.6826684,3.9507764 C39.6826684,2.81639506 40.5236753,2.0731797 41.7362898,2.0731797 C42.2252473,2.0731797 42.8511129,2.15141289 43.3009537,2.28832099 C43.4965367,2.34699588 43.6138865,2.21008779 43.6530031,2.0340631 L43.8877027,0.645423868 C43.9268193,0.449840878 43.8485861,0.371607682 43.6725614,0.312932784 C42.9684627,0.0977914952 42.0492226,2.27373675e-13 41.423357,2.27373675e-13 C38.9394531,2.27373675e-13 37.2965559,1.58422222 37.2965559,3.9507764 L37.2965559,5.37853223 L34.8517686,5.37853223 C34.6757439,5.37853223 34.5583941,5.49588203 34.5583941,5.67190672 L34.5583941,6.98231275 C34.5583941,7.15833745 34.6757439,7.27568724 34.8517686,7.27568724 L37.2965559,7.27568724 L37.2965559,14.4731413 C37.2965559,14.649166 37.4139057,14.7665158 37.5899304,14.7665158 Z M45.9022075,3.32491084 C46.7040978,3.32491084 47.3886382,2.71860357 47.3886382,1.9558299 C47.3886382,1.19305624 46.7040978,0.586748971 45.9022075,0.586748971 C45.0807589,0.586748971 44.4157768,1.19305624 44.4157768,1.9558299 C44.4157768,2.71860357 45.0807589,3.32491084 45.9022075,3.32491084 Z" id="Shape"></path>
                    <path d="M54.6056506,15.0598903 C55.1728412,15.0598903 56.0138481,14.9425405 56.7766218,14.7469575 C56.9526465,14.6882826 57.0308797,14.5709328 57.0113214,14.3949081 L56.7766218,13.0258272 C56.7375052,12.8498025 56.6201554,12.752011 56.4245724,12.7911276 C55.9356149,12.9084774 55.3488659,12.9671523 54.8794668,12.9671523 C53.8624352,12.9671523 53.197453,12.2630535 53.197453,11.2069053 L53.197453,7.27568724 L56.5223639,7.27568724 C56.6983886,7.27568724 56.8157384,7.15833745 56.8157384,6.98231275 L56.8157384,5.67190672 C56.8157384,5.49588203 56.6983886,5.37853223 56.5223639,5.37853223 L53.197453,5.37853223 L53.197453,2.77727846 C53.197453,2.60125377 53.0801033,2.48390398 52.9040786,2.48390398 L51.104715,2.48390398 C50.9286904,2.48390398 50.8113406,2.60125377 50.8113406,2.77727846 L50.8113406,5.37853223 L48.8555107,5.37853223 C48.679486,5.37853223 48.5621362,5.49588203 48.5621362,5.67190672 L48.5621362,6.98231275 C48.5621362,7.15833745 48.679486,7.27568724 48.8555107,7.27568724 L50.8113406,7.27568724 L50.8113406,11.2851385 C50.8113406,13.5539012 52.3368879,15.0598903 54.6056506,15.0598903 Z" id="Path"></path>
                    <path d="M63.6807013,15.0598903 C65.7343227,15.0598903 67.4750113,14.1015336 68.1399935,12.6151029 C68.237785,12.4195199 68.1204352,12.2826118 67.9052939,12.2826118 L65.9690223,12.2826118 C65.8125559,12.2826118 65.7147644,12.3412867 65.5974146,12.4586365 C65.2453652,12.8693608 64.5412665,13.1431769 63.7393762,13.1431769 C62.3311787,13.1431769 61.2359139,12.3217284 60.8838646,11.0308807 L68.1008769,11.0308807 C68.2769016,11.0308807 68.3942514,10.9526475 68.433368,10.7766228 C68.4529263,10.5223649 68.4724846,10.2485487 68.4724846,9.9942908 C68.4724846,7.04098765 66.4970964,5.08515775 63.5437932,5.08515775 C60.5122569,5.08515775 58.4781938,7.08010425 58.4781938,10.072524 C58.4781938,13.0649438 60.5709318,15.0598903 63.6807013,15.0598903 Z M60.8251897,9.34886694 C61.0207727,7.94066941 62.1355957,7.00187105 63.6024681,7.00187105 C65.0693406,7.00187105 66.0081389,7.979786 66.0472555,9.34886694 L60.8251897,9.34886694 Z" id="Shape"></path>
                    <path d="M75.435239,15.0598903 C77.4888604,15.0598903 79.2295491,14.1015336 79.8945312,12.6151029 C79.9923227,12.4195199 79.8749729,12.2826118 79.6598316,12.2826118 L77.72356,12.2826118 C77.5670936,12.2826118 77.4693021,12.3412867 77.3519523,12.4586365 C76.999903,12.8693608 76.2958042,13.1431769 75.4939139,13.1431769 C74.0857164,13.1431769 72.9904517,12.3217284 72.6384023,11.0308807 L79.8554146,11.0308807 C80.0314393,11.0308807 80.1487891,10.9526475 80.1879057,10.7766228 C80.207464,10.5223649 80.2270223,10.2485487 80.2270223,9.9942908 C80.2270223,7.04098765 78.2516341,5.08515775 75.2983309,5.08515775 C72.2667946,5.08515775 70.2327315,7.08010425 70.2327315,10.072524 C70.2327315,13.0649438 72.3254695,15.0598903 75.435239,15.0598903 Z M72.5797274,9.34886694 C72.7753104,7.94066941 73.8901334,7.00187105 75.3570058,7.00187105 C76.8238783,7.00187105 77.7626766,7.979786 77.8017932,9.34886694 L72.5797274,9.34886694 Z" id="Shape"></path>
                    <path d="M90.1235216,5.28074074 C89.7323556,5.16339094 89.165165,5.08515775 88.6566492,5.08515775 C87.3462432,5.08515775 86.2314201,5.59367352 85.4099715,6.49335528 C85.0970388,5.61323182 84.2560319,5.08515775 83.1216506,5.08515775 C82.7500429,5.08515775 82.300202,5.16339094 81.9285943,5.28074074 C81.7525696,5.33941564 81.6938947,5.45676543 81.6938947,5.63279012 L81.6938947,7.00187105 C81.6938947,7.19745404 81.8503611,7.25612894 82.0459441,7.23657064 C82.1828522,7.21701234 82.4566684,7.17789574 82.5935765,7.17789574 C83.1607672,7.17789574 83.415025,7.41259533 83.415025,7.90155281 L83.415025,14.4731413 C83.415025,14.649166 83.5323748,14.7665158 83.7083995,14.7665158 L85.507763,14.7665158 C85.6837877,14.7665158 85.8011375,14.649166 85.8011375,14.4731413 L85.8011375,10.072524 C85.8011375,8.37095198 86.9746355,7.23657064 88.6370909,7.23657064 C89.0282569,7.23657064 89.4194228,7.27568724 89.7519139,7.33436214 C89.9474969,7.37347873 90.0648467,7.29524554 90.1039633,7.09966255 L90.3386629,5.63279012 C90.3582212,5.45676543 90.2995463,5.33941564 90.1235216,5.28074074 Z" id="Path"></path>
                    <path d="M4.61463825,37.7665158 L6.25753537,37.7665158 C6.41400176,37.7665158 6.53135156,37.6882826 6.59002646,37.5513745 L10.8341773,28.7305816 C10.9319688,28.5154403 10.8341773,28.3785322 10.6190361,28.3785322 L8.72188105,28.3785322 C8.56541466,28.3785322 8.44806486,28.4567654 8.38938997,28.5936735 L5.43608681,34.8914458 L2.52190026,28.5936735 C2.46322536,28.4567654 2.34587557,28.3785322 2.18940917,28.3785322 L0.25313757,28.3785322 C0.0379962811,28.3785322 -0.0597952141,28.5154403 0.0379962811,28.7305816 L4.28214717,37.5513745 C4.34082207,37.6882826 4.45817186,37.7665158 4.61463825,37.7665158 Z" id="Path"></path>
                    <path d="M24.3880786,37.4731413 L24.2316122,36.1236186 C24.2120539,35.9280357 24.0751458,35.8498025 23.8795628,35.8889191 C23.56663,35.947594 23.3906053,35.9671523 23.1559057,35.9671523 C22.7451815,35.9671523 22.4713653,35.6737778 22.4713653,35.2434952 L22.4713653,28.6719067 C22.4713653,28.495882 22.3540155,28.3785322 22.1779908,28.3785322 L20.3786273,28.3785322 C20.2026026,28.3785322 20.0852528,28.495882 20.0852528,28.6719067 L20.0852528,28.9457229 C19.2442459,28.3394156 18.2858893,28.0851577 17.3275326,28.0851577 C14.2959963,28.0851577 12.1445834,30.1583374 12.1445834,33.072524 C12.1445834,35.9867106 14.2959963,38.0598903 17.3275326,38.0598903 C18.5792638,38.0598903 19.5962953,37.6882826 20.554652,36.8472757 C20.9262596,37.6100494 21.7477082,38.0598903 22.8234147,38.0598903 C23.2536972,38.0598903 23.6644215,37.9816571 24.153379,37.8251907 C24.3294037,37.7665158 24.4076369,37.649166 24.3880786,37.4731413 Z M17.3470909,36.1040604 C15.7041938,36.1040604 14.5306959,34.8523292 14.5306959,33.072524 C14.5306959,31.2927188 15.7041938,30.0409877 17.3470909,30.0409877 C18.9508714,30.0409877 20.0852528,31.2927188 20.0852528,33.072524 C20.0852528,34.8523292 18.9508714,36.1040604 17.3470909,36.1040604 Z" id="Shape"></path>
                    <path d="M32.719914,28.0851577 C31.2530415,28.0851577 30.040427,28.5349986 29.2189784,29.3173306 C28.8473708,28.5545569 28.0454805,28.0851577 26.9893323,28.0851577 C26.6177247,28.0851577 26.1678838,28.1438326 25.7962761,28.2807407 C25.6202514,28.3394156 25.5615765,28.4567654 25.5615765,28.6327901 L25.5615765,30.0018711 C25.5615765,30.197454 25.7180429,30.2561289 25.9136259,30.2365706 C26.050534,30.2170123 26.3243502,30.1778957 26.4612583,30.1778957 C27.0284489,30.1778957 27.2827068,30.4125953 27.2827068,30.9015528 L27.2827068,37.4731413 C27.2827068,37.649166 27.4000566,37.7665158 27.5760813,37.7665158 L29.3754448,37.7665158 C29.5514695,37.7665158 29.6688193,37.649166 29.6688193,37.4731413 L29.6688193,32.5248916 C29.6688193,31.0971358 30.7054092,30.1387791 32.2113982,30.1387791 C33.6587123,30.1387791 34.617069,31.1558107 34.617069,32.6617997 L34.617069,37.4731413 C34.617069,37.649166 34.7344188,37.7665158 34.9104435,37.7665158 L36.709807,37.7665158 C36.8858317,37.7665158 37.0031814,37.649166 37.0031814,37.4731413 L37.0031814,32.5248916 C37.0031814,29.864963 35.2820511,28.0851577 32.719914,28.0851577 Z" id="Path"></path>
                    <path d="M49.0706519,24.0757064 L43.5943282,24.0757064 C43.4183035,24.0757064 43.3596286,24.1734979 43.3596286,24.3299643 L43.3596286,25.9141866 C43.3596286,26.1097695 43.4965367,26.1684444 43.6921197,26.1684444 L46.8801225,26.1684444 L46.8801225,37.4731413 C46.8801225,37.649166 46.9974723,37.7665158 47.1734969,37.7665158 L49.0706519,37.7665158 C49.2466766,37.7665158 49.3640264,37.649166 49.3640264,37.4731413 L49.3640264,24.3690809 C49.3640264,24.1930562 49.2466766,24.0757064 49.0706519,24.0757064 Z" id="Path"></path>
                    <path d="M57.8718865,23.782332 C54.4687425,23.782332 52.1999798,25.9141866 52.1999798,29.1217476 L52.1999798,32.7204746 C52.1999798,35.9280357 54.4687425,38.0598903 57.8718865,38.0598903 C61.2750305,38.0598903 63.5437932,35.9280357 63.5437932,32.7204746 L63.5437932,29.1217476 C63.5437932,25.9141866 61.2750305,23.782332 57.8718865,23.782332 Z M61.0598893,32.7204746 C61.0598893,34.6567462 59.7885998,35.947594 57.8718865,35.947594 C55.9551732,35.947594 54.6838838,34.6567462 54.6838838,32.7204746 L54.6838838,29.1217476 C54.6838838,27.185476 55.9551732,25.8946283 57.8718865,25.8946283 C59.7885998,25.8946283 61.0598893,27.185476 61.0598893,29.1217476 L61.0598893,32.7204746 Z" id="Shape"></path>
                    <path d="M71.3671128,23.782332 C67.9639688,23.782332 65.6952061,25.9141866 65.6952061,29.1217476 L65.6952061,32.7204746 C65.6952061,35.9280357 67.9639688,38.0598903 71.3671128,38.0598903 C74.7702569,38.0598903 77.0390196,35.9280357 77.0390196,32.7204746 L77.0390196,29.1217476 C77.0390196,25.9141866 74.7702569,23.782332 71.3671128,23.782332 Z M74.5551156,32.7204746 C74.5551156,34.6567462 73.2838261,35.947594 71.3671128,35.947594 C69.4503995,35.947594 68.1791101,34.6567462 68.1791101,32.7204746 L68.1791101,29.1217476 C68.1791101,27.185476 69.4503995,25.8946283 71.3671128,25.8946283 C73.2838261,25.8946283 74.5551156,27.185476 74.5551156,29.1217476 L74.5551156,32.7204746 Z" id="Shape"></path>
                    <path d="M84.2755902,35.8106859 L85.9771622,35.8106859 C86.1531869,35.8106859 86.2705367,35.6933361 86.2705367,35.5173114 L86.2705367,32.3488669 L89.7910305,32.3488669 C89.9670552,32.3488669 90.084405,32.2315171 90.084405,32.0554925 L90.084405,30.5690617 C90.084405,30.393037 89.9670552,30.2756872 89.7910305,30.2756872 L86.2705367,30.2756872 L86.2705367,27.1072428 C86.2705367,26.9312181 86.1531869,26.8138683 85.9771622,26.8138683 L84.2755902,26.8138683 C84.0995655,26.8138683 83.9822157,26.9312181 83.9822157,27.1072428 L83.9822157,30.2756872 L80.4617219,30.2756872 C80.2856972,30.2756872 80.1683474,30.393037 80.1683474,30.5690617 L80.1683474,32.0554925 C80.1683474,32.2315171 80.2856972,32.3488669 80.4617219,32.3488669 L83.9822157,32.3488669 L83.9822157,35.5173114 C83.9822157,35.6933361 84.0995655,35.8106859 84.2755902,35.8106859 Z" id="Path"></path>
                    <path d="M4.61463825,60.7665158 L6.25753537,60.7665158 C6.41400176,60.7665158 6.53135156,60.6882826 6.59002646,60.5513745 L10.8341773,51.7305816 C10.9319688,51.5154403 10.8341773,51.3785322 10.6190361,51.3785322 L8.72188105,51.3785322 C8.56541466,51.3785322 8.44806486,51.4567654 8.38938997,51.5936735 L5.43608681,57.8914458 L2.52190026,51.5936735 C2.46322536,51.4567654 2.34587557,51.3785322 2.18940917,51.3785322 L0.25313757,51.3785322 C0.0379962811,51.3785322 -0.0597952141,51.5154403 0.0379962811,51.7305816 L4.28214717,60.5513745 C4.34082207,60.6882826 4.45817186,60.7665158 4.61463825,60.7665158 Z" id="Path"></path>
                    <path d="M17.3666492,61.0598903 C20.4959771,61.0598903 22.5887151,59.0649438 22.5887151,56.072524 C22.5887151,53.0801042 20.4959771,51.0851577 17.3666492,51.0851577 C14.2373214,51.0851577 12.1445834,53.0801042 12.1445834,56.072524 C12.1445834,59.0649438 14.2373214,61.0598903 17.3666492,61.0598903 Z M17.3666492,59.0062689 C15.6650772,59.0062689 14.5306959,57.8327709 14.5306959,56.072524 C14.5306959,54.3122771 15.6650772,53.1387791 17.3666492,53.1387791 C19.0682212,53.1387791 20.2026026,54.3122771 20.2026026,56.072524 C20.2026026,57.8327709 19.0682212,59.0062689 17.3666492,59.0062689 Z" id="Shape"></path>
                    <path d="M29.5710278,61.0598903 C32.7003557,61.0598903 34.7930937,59.0649438 34.7930937,56.072524 C34.7930937,53.0801042 32.7003557,51.0851577 29.5710278,51.0851577 C26.4417,51.0851577 24.348962,53.0801042 24.348962,56.072524 C24.348962,59.0649438 26.4417,61.0598903 29.5710278,61.0598903 Z M29.5710278,59.0062689 C27.8694558,59.0062689 26.7350745,57.8327709 26.7350745,56.072524 C26.7350745,54.3122771 27.8694558,53.1387791 29.5710278,53.1387791 C31.2725998,53.1387791 32.4069812,54.3122771 32.4069812,56.072524 C32.4069812,57.8327709 31.2725998,59.0062689 29.5710278,59.0062689 Z" id="Shape"></path>
                    <path d="M44.689593,51.2807407 C44.298427,51.1633909 43.7312363,51.0851577 43.2227205,51.0851577 C41.9123145,51.0851577 40.7974915,51.5936735 39.9760429,52.4933553 C39.6631101,51.6132318 38.8221033,51.0851577 37.6877219,51.0851577 C37.3161142,51.0851577 36.8662734,51.1633909 36.4946657,51.2807407 C36.318641,51.3394156 36.2599661,51.4567654 36.2599661,51.6327901 L36.2599661,53.0018711 C36.2599661,53.197454 36.4164325,53.2561289 36.6120155,53.2365706 C36.7489236,53.2170123 37.0227397,53.1778957 37.1596478,53.1778957 C37.7268385,53.1778957 37.9810964,53.4125953 37.9810964,53.9015528 L37.9810964,60.4731413 C37.9810964,60.649166 38.0984462,60.7665158 38.2744709,60.7665158 L40.0738344,60.7665158 C40.2498591,60.7665158 40.3672089,60.649166 40.3672089,60.4731413 L40.3672089,56.072524 C40.3672089,54.370952 41.5407068,53.2365706 43.2031622,53.2365706 C43.5943282,53.2365706 43.9854942,53.2756872 44.3179853,53.3343621 C44.5135683,53.3734787 44.6309181,53.2952455 44.6700347,53.0996625 L44.9047343,51.6327901 C44.9242926,51.4567654 44.8656177,51.3394156 44.689593,51.2807407 Z" id="Path"></path>
                    <path d="M58.6151019,60.4731413 L58.4586355,59.1236186 C58.4390772,58.9280357 58.3021691,58.8498025 58.1065861,58.8889191 C57.7936533,58.947594 57.6176286,58.9671523 57.382929,58.9671523 C56.9722048,58.9671523 56.6983886,58.6737778 56.6983886,58.2434952 L56.6983886,46.586749 C56.6983886,46.4107243 56.5810388,46.2933745 56.4050141,46.2933745 L54.5860923,46.2933745 C54.4100676,46.2933745 54.2927178,46.4107243 54.2927178,46.586749 L54.2927178,51.9261646 C53.4517109,51.3394156 52.5129126,51.0851577 51.5545559,51.0851577 C48.5230196,51.0851577 46.3716067,53.1583374 46.3716067,56.072524 C46.3716067,58.9867106 48.5230196,61.0598903 51.5545559,61.0598903 C52.8062871,61.0598903 53.8233186,60.6882826 54.7816753,59.8472757 C55.1532829,60.6100494 55.9747315,61.0598903 57.050438,61.0598903 C57.4807205,61.0598903 57.8914448,60.9816571 58.3804023,60.8251907 C58.556427,60.7665158 58.6346602,60.649166 58.6151019,60.4731413 Z M51.5741142,59.1040604 C49.9312171,59.1040604 48.7577192,57.8523292 48.7577192,56.072524 C48.7577192,54.2927188 49.9312171,53.0409877 51.5741142,53.0409877 C53.1778947,53.0409877 54.3122761,54.2927188 54.3122761,56.072524 C54.3122761,57.8523292 53.1778947,59.1040604 51.5741142,59.1040604 Z" id="Shape"></path>
                    <path d="M65.2844818,61.0598903 C67.3381032,61.0598903 69.0787919,60.1015336 69.743774,58.6151029 C69.8415655,58.4195199 69.7242157,58.2826118 69.5090744,58.2826118 L67.5728028,58.2826118 C67.4163364,58.2826118 67.3185449,58.3412867 67.2011952,58.4586365 C66.8491458,58.8693608 66.145047,59.1431769 65.3431567,59.1431769 C63.9349592,59.1431769 62.8396945,58.3217284 62.4876451,57.0308807 L69.7046574,57.0308807 C69.8806821,57.0308807 69.9980319,56.9526475 70.0371485,56.7766228 C70.0567068,56.5223649 70.0762651,56.2485487 70.0762651,55.9942908 C70.0762651,53.0409877 68.1008769,51.0851577 65.1475738,51.0851577 C62.1160374,51.0851577 60.0819743,53.0801042 60.0819743,56.072524 C60.0819743,59.0649438 62.1747123,61.0598903 65.2844818,61.0598903 Z M62.4289702,55.3488669 C62.6245532,53.9406694 63.7393762,53.0018711 65.2062486,53.0018711 C66.6731211,53.0018711 67.6119194,53.979786 67.651036,55.3488669 L62.4289702,55.3488669 Z" id="Shape"></path>
                    <path d="M75.0636314,61.0598903 C75.4939139,61.0598903 75.9046382,60.9816571 76.3935957,60.8251907 C76.5696204,60.7665158 76.6478536,60.649166 76.6282953,60.4731413 L76.4718289,59.1236186 C76.4522706,58.9280357 76.3153625,58.8498025 76.1197795,58.8889191 C75.8068467,58.947594 75.630822,58.9671523 75.3961224,58.9671523 C74.9853982,58.9671523 74.711582,58.6737778 74.711582,58.2434952 L74.711582,46.586749 C74.711582,46.4107243 74.5942322,46.2933745 74.4182075,46.2933745 L72.618844,46.2933745 C72.4428193,46.2933745 72.3254695,46.4107243 72.3254695,46.586749 L72.3254695,58.8889191 C72.3254695,60.1993251 73.4207342,61.0598903 75.0636314,61.0598903 Z" id="Path"></path>
                    <path d="M83.2976753,61.0598903 C85.3512967,61.0598903 87.0919853,60.1015336 87.7569674,58.6151029 C87.8547589,58.4195199 87.7374091,58.2826118 87.5222678,58.2826118 L85.5859962,58.2826118 C85.4295298,58.2826118 85.3317384,58.3412867 85.2143886,58.4586365 C84.8623392,58.8693608 84.1582404,59.1431769 83.3563501,59.1431769 C81.9481526,59.1431769 80.8528879,58.3217284 80.5008385,57.0308807 L87.7178508,57.0308807 C87.8938755,57.0308807 88.0112253,56.9526475 88.0503419,56.7766228 C88.0699002,56.5223649 88.0894585,56.2485487 88.0894585,55.9942908 C88.0894585,53.0409877 86.1140703,51.0851577 83.1607672,51.0851577 C80.1292308,51.0851577 78.0951677,53.0801042 78.0951677,56.072524 C78.0951677,59.0649438 80.1879057,61.0598903 83.2976753,61.0598903 Z M80.4421636,55.3488669 C80.6377466,53.9406694 81.7525696,53.0018711 83.2194421,53.0018711 C84.6863145,53.0018711 85.6251128,53.979786 85.6642294,55.3488669 L80.4421636,55.3488669 Z" id="Shape"></path>
                    <path d="M96.7146684,51.0851577 C95.247796,51.0851577 94.0351814,51.5349986 93.2137329,52.3173306 C92.8421252,51.5545569 92.0402349,51.0851577 90.9840868,51.0851577 C90.6124791,51.0851577 90.1626382,51.1438326 89.7910305,51.2807407 C89.6150058,51.3394156 89.5563309,51.4567654 89.5563309,51.6327901 L89.5563309,53.0018711 C89.5563309,53.197454 89.7127973,53.2561289 89.9083803,53.2365706 C90.0452884,53.2170123 90.3191046,53.1778957 90.4560127,53.1778957 C91.0232034,53.1778957 91.2774613,53.4125953 91.2774613,53.9015528 L91.2774613,60.4731413 C91.2774613,60.649166 91.3948111,60.7665158 91.5708357,60.7665158 L93.3701993,60.7665158 C93.5462239,60.7665158 93.6635737,60.649166 93.6635737,60.4731413 L93.6635737,55.5248916 C93.6635737,54.0971358 94.7001636,53.1387791 96.2061526,53.1387791 C97.6534667,53.1387791 98.6118234,54.1558107 98.6118234,55.6617997 L98.6118234,60.4731413 C98.6118234,60.649166 98.7291732,60.7665158 98.9051979,60.7665158 L100.704561,60.7665158 C100.880586,60.7665158 100.997936,60.649166 100.997936,60.4731413 L100.997936,55.5248916 C100.997936,52.864963 99.2768056,51.0851577 96.7146684,51.0851577 Z" id="Path"></path>
                    <path d="M113.339223,61.0598903 C115.392844,61.0598903 117.133533,60.1015336 117.798515,58.6151029 C117.896306,58.4195199 117.778956,58.2826118 117.563815,58.2826118 L115.627544,58.2826118 C115.471077,58.2826118 115.373286,58.3412867 115.255936,58.4586365 C114.903886,58.8693608 114.199788,59.1431769 113.397897,59.1431769 C111.9897,59.1431769 110.894435,58.3217284 110.542386,57.0308807 L117.759398,57.0308807 C117.935423,57.0308807 118.052773,56.9526475 118.091889,56.7766228 C118.111448,56.5223649 118.131006,56.2485487 118.131006,55.9942908 C118.131006,53.0409877 116.155618,51.0851577 113.202314,51.0851577 C110.170778,51.0851577 108.136715,53.0801042 108.136715,56.072524 C108.136715,59.0649438 110.229453,61.0598903 113.339223,61.0598903 Z M110.483711,55.3488669 C110.679294,53.9406694 111.794117,53.0018711 113.260989,53.0018711 C114.727862,53.0018711 115.66666,53.979786 115.705777,55.3488669 L110.483711,55.3488669 Z" id="Shape"></path>
                    <path d="M126.756216,51.0851577 C125.289343,51.0851577 124.076729,51.5349986 123.25528,52.3173306 C122.883672,51.5545569 122.081782,51.0851577 121.025634,51.0851577 C120.654026,51.0851577 120.204186,51.1438326 119.832578,51.2807407 C119.656553,51.3394156 119.597878,51.4567654 119.597878,51.6327901 L119.597878,53.0018711 C119.597878,53.197454 119.754345,53.2561289 119.949928,53.2365706 C120.086836,53.2170123 120.360652,53.1778957 120.49756,53.1778957 C121.064751,53.1778957 121.319009,53.4125953 121.319009,53.9015528 L121.319009,60.4731413 C121.319009,60.649166 121.436358,60.7665158 121.612383,60.7665158 L123.411747,60.7665158 C123.587771,60.7665158 123.705121,60.649166 123.705121,60.4731413 L123.705121,55.5248916 C123.705121,54.0971358 124.741711,53.1387791 126.2477,53.1387791 C127.695014,53.1387791 128.653371,54.1558107 128.653371,55.6617997 L128.653371,60.4731413 C128.653371,60.649166 128.77072,60.7665158 128.946745,60.7665158 L130.746109,60.7665158 C130.922133,60.7665158 131.039483,60.649166 131.039483,60.4731413 L131.039483,55.5248916 C131.039483,52.864963 129.318353,51.0851577 126.756216,51.0851577 Z" id="Path"></path>
                </g>
            </g>
        </g>
    </g>
</svg>