<?xml version="1.0" encoding="UTF-8"?>
<svg width="140.673736px" height="95.9806258px" viewBox="0 0 140.673736 95.9806258" version="1.1" xmlns="http://www.w3.org/2000/svg" xmlns:xlink="http://www.w3.org/1999/xlink">
    <title>Winter- voordeel met</title>
    <g id="Spotlight-4---HTML-5-" stroke="none" stroke-width="1" fill="none" fill-rule="evenodd">
        <g id="160x600px_1" transform="translate(-8.867877, -282.182948)" fill="#FFFFFF" fill-rule="nonzero">
            <g id="Winter--voordeel-met" transform="translate(8.867877, 282.182948)">
                <path d="M22.1987808,1.30192258 L18.6787679,12.2477161 L14.8453292,1.39836129 C14.7488905,1.13315484 14.5801227,1.03671613 14.339026,1.03671613 L12.0003872,1.03671613 C11.7351808,1.03671613 11.5664131,1.13315484 11.4699743,1.39836129 L7.66064531,12.2236065 L4.14063241,1.30192258 C4.06830337,1.03671613 3.87542595,0.940277419 3.63432918,0.940277419 L0.596509825,0.940277419 C0.258974341,0.940277419 0.114316276,1.15726452 0.210754986,1.44658065 L5.61132273,17.4554065 C5.68365176,17.7206129 5.87652918,17.8170516 6.11762595,17.8170516 L9.01078724,17.8170516 C9.25188402,17.8170516 9.44476144,17.7206129 9.51709047,17.4554065 L13.1576518,6.87125806 L16.8464324,17.4554065 C16.9187614,17.7206129 17.1116389,17.8170516 17.3527356,17.8170516 L20.2217872,17.8170516 C20.462884,17.8170516 20.6557614,17.7206129 20.7522001,17.4554065 L26.1527679,1.44658065 C26.2250969,1.15726452 26.1045485,0.940277419 25.7670131,0.940277419 L22.705084,0.940277419 C22.4639872,0.940277419 22.2711098,1.03671613 22.1987808,1.30192258 Z" id="Path"></path>
                <path d="M30.034426,3.97809677 C31.2399098,3.97809677 32.1801872,3.11014839 32.1801872,1.97699355 C32.1801872,0.84383871 31.2399098,0 30.034426,0 C28.8289421,0 27.8886647,0.84383871 27.8886647,1.97699355 C27.8886647,3.11014839 28.8289421,3.97809677 30.034426,3.97809677 Z M28.684284,17.8170516 L31.3845679,17.8170516 C31.673884,17.8170516 31.8426518,17.6482839 31.8426518,17.3589677 L31.8426518,6.58194194 C31.8426518,6.29262581 31.673884,6.12385806 31.3845679,6.12385806 L28.684284,6.12385806 C28.3949679,6.12385806 28.2262001,6.29262581 28.2262001,6.58194194 L28.2262001,17.3589677 C28.2262001,17.6482839 28.3949679,17.8170516 28.684284,17.8170516 Z" id="Shape"></path>
                <path d="M43.1742001,5.73810323 C41.4141937,5.73810323 39.9193937,6.29262581 38.9550066,7.2570129 C38.4487034,6.31673548 37.4119872,5.73810323 36.0618453,5.73810323 C35.5073227,5.73810323 34.8804711,5.81043226 34.3259485,6.02741935 C34.0607421,6.12385806 33.9643034,6.26851613 33.9643034,6.55783226 L33.9643034,8.53482581 C33.9643034,8.84825161 34.1812905,8.92058065 34.4947163,8.92058065 C34.6393743,8.89647097 34.8804711,8.84825161 35.0251292,8.84825161 C35.7002001,8.84825161 35.9654066,9.13756774 35.9654066,9.78852903 L35.9654066,17.3589677 C35.9654066,17.6482839 36.1341743,17.8170516 36.4234905,17.8170516 L39.1237743,17.8170516 C39.4130905,17.8170516 39.5818582,17.6482839 39.5818582,17.3589677 L39.5818582,11.4279871 C39.5818582,9.83674839 40.6667937,8.82414194 42.2580324,8.82414194 C43.8010518,8.82414194 44.7895485,9.90907742 44.7895485,11.5485355 L44.7895485,17.3589677 C44.7895485,17.6482839 44.982426,17.8170516 45.2717421,17.8170516 L47.972026,17.8170516 C48.2613421,17.8170516 48.4301098,17.6482839 48.4301098,17.3589677 L48.4301098,11.0663419 C48.4301098,7.85975484 46.3325679,5.73810323 43.1742001,5.73810323 Z" id="Path"></path>
                <path d="M57.6158969,18.2028065 C58.3632969,18.2028065 59.4723421,18.0581484 60.4367292,17.8170516 C60.7260453,17.7206129 60.822484,17.5518452 60.7983743,17.2866387 L60.4849485,15.2132065 C60.4367292,14.948 60.2438518,14.8033419 59.9545356,14.8515613 C59.3759034,14.9962194 58.6767227,15.0685484 58.1463098,15.0685484 C56.940826,15.0685484 56.1452066,14.3211484 56.1452066,13.0915548 L56.1452066,9.04112903 L59.930426,9.04112903 C60.1956324,9.04112903 60.3885098,8.87236129 60.3885098,8.58304516 L60.3885098,6.58194194 C60.3885098,6.29262581 60.1956324,6.12385806 59.930426,6.12385806 L56.1452066,6.12385806 L56.1452066,3.06192903 C56.1452066,2.7726129 55.9764389,2.60384516 55.6871227,2.60384516 L52.9868389,2.60384516 C52.6975227,2.60384516 52.528755,2.7726129 52.528755,3.06192903 L52.528755,6.12385806 L50.3106647,6.12385806 C50.0213485,6.12385806 49.8525808,6.29262581 49.8525808,6.58194194 L49.8525808,8.58304516 C49.8525808,8.87236129 50.0213485,9.04112903 50.3106647,9.04112903 L52.528755,9.04112903 L52.528755,13.2121032 C52.528755,16.2981419 54.4816389,18.2028065 57.6158969,18.2028065 Z" id="Path"></path>
                <path d="M68.971555,18.2028065 C71.6959485,18.2028065 73.8658195,16.9732129 74.6855485,14.9721097 C74.8060969,14.6827935 74.6373292,14.4899161 74.2997937,14.4899161 L71.5995098,14.4899161 C71.3584131,14.4899161 71.213755,14.5863548 71.0208776,14.7310129 C70.6110131,15.1890968 69.8877227,15.4543032 69.043884,15.4543032 C67.4526453,15.4543032 66.2471614,14.5622452 65.8614066,13.1156645 L74.5167808,13.1156645 C74.7819872,13.1156645 74.9748647,12.9951161 75.023084,12.7058 C75.023084,12.4405935 75.0471937,12.1512774 75.0471937,11.886071 C75.0471937,8.2214 72.6603356,5.73810323 68.7545679,5.73810323 C64.9211292,5.73810323 62.3413937,8.2214 62.3413937,11.9825097 C62.3413937,15.7195097 65.0175679,18.2028065 68.971555,18.2028065 Z M65.8372969,10.9699032 C66.054284,9.45099355 67.2597679,8.41427742 68.8510066,8.41427742 C70.466355,8.41427742 71.5271808,9.47510323 71.5995098,10.9699032 L65.8372969,10.9699032 Z" id="Shape"></path>
                <path d="M87.2225808,5.95509032 C86.7886066,5.81043226 86.1376453,5.73810323 85.5590131,5.73810323 C83.9677743,5.73810323 82.5935227,6.31673548 81.6291356,7.37756129 C81.1710518,6.36495484 80.110226,5.73810323 78.7118647,5.73810323 C78.1573421,5.73810323 77.5304905,5.83454194 76.9759679,6.02741935 C76.7107614,6.12385806 76.6143227,6.26851613 76.6143227,6.55783226 L76.6143227,8.53482581 C76.6143227,8.84825161 76.8313098,8.92058065 77.1447356,8.92058065 C77.2893937,8.89647097 77.5304905,8.84825161 77.6751485,8.84825161 C78.3502195,8.84825161 78.615426,9.13756774 78.615426,9.78852903 L78.615426,17.3589677 C78.615426,17.6482839 78.7841937,17.8170516 79.0735098,17.8170516 L81.7737937,17.8170516 C82.0631098,17.8170516 82.2318776,17.6482839 82.2318776,17.3589677 L82.2318776,12.1753871 C82.2318776,10.1983935 83.5820195,9.04112903 85.414355,9.04112903 C85.8724389,9.04112903 86.3787421,9.08934839 86.7403872,9.16167742 C87.0297034,9.20989677 87.2225808,9.08934839 87.2708001,8.80003226 L87.584226,6.48550323 C87.6083356,6.22029677 87.5118969,6.02741935 87.2225808,5.95509032 Z" id="Path"></path>
                <path d="M89.9951937,13.1638839 L98.1683743,13.1638839 C98.4335808,13.1638839 98.6264582,12.9951161 98.6264582,12.7299097 L98.6264582,10.3430516 C98.6264582,10.0537355 98.4335808,9.88496774 98.1683743,9.88496774 L89.9951937,9.88496774 C89.7299872,9.88496774 89.5612195,10.0537355 89.5612195,10.3430516 L89.5612195,12.7299097 C89.5612195,12.9951161 89.7299872,13.1638839 89.9951937,13.1638839 Z" id="Path"></path>
                <path d="M5.58721305,41.926729 L8.28749692,41.926729 C8.5285937,41.926729 8.69736144,41.8061806 8.79380015,41.5891935 L13.8327227,30.7639484 C13.9773808,30.4505226 13.8086131,30.2335355 13.4710776,30.2335355 L10.6261356,30.2335355 C10.3850389,30.2335355 10.2162711,30.3540839 10.1198324,30.571071 L6.93735499,37.5628774 L3.80309692,30.571071 C3.70665821,30.3540839 3.53789047,30.2335355 3.27268402,30.2335355 L0.403632405,30.2335355 C0.0660969214,30.2335355 -0.0785611431,30.4505226 0.041987244,30.7639484 L5.08090982,41.5891935 C5.17734853,41.8061806 5.34611628,41.926729 5.58721305,41.926729 Z" id="Path"></path>
                <path d="M21.5719292,42.3124839 C25.550026,42.3124839 28.2020905,39.8291871 28.2020905,36.0921871 C28.2020905,32.3310774 25.550026,29.8477806 21.5719292,29.8477806 C17.5938324,29.8477806 14.9417679,32.3310774 14.9417679,36.0921871 C14.9417679,39.8291871 17.5938324,42.3124839 21.5719292,42.3124839 Z M21.5719292,39.3228839 C19.6672647,39.3228839 18.3894518,38.045071 18.3894518,36.0921871 C18.3894518,34.1393032 19.6672647,32.8373806 21.5719292,32.8373806 C23.4765937,32.8373806 24.7544066,34.1393032 24.7544066,36.0921871 C24.7544066,38.045071 23.4765937,39.3228839 21.5719292,39.3228839 Z" id="Shape"></path>
                <path d="M36.7128066,42.3124839 C40.6909034,42.3124839 43.3429679,39.8291871 43.3429679,36.0921871 C43.3429679,32.3310774 40.6909034,29.8477806 36.7128066,29.8477806 C32.7347098,29.8477806 30.0826453,32.3310774 30.0826453,36.0921871 C30.0826453,39.8291871 32.7347098,42.3124839 36.7128066,42.3124839 Z M36.7128066,39.3228839 C34.8081421,39.3228839 33.5303292,38.045071 33.5303292,36.0921871 C33.5303292,34.1393032 34.8081421,32.8373806 36.7128066,32.8373806 C38.6174711,32.8373806 39.895284,34.1393032 39.895284,36.0921871 C39.895284,38.045071 38.6174711,39.3228839 36.7128066,39.3228839 Z" id="Shape"></path>
                <path d="M55.4942453,30.0647677 C55.0602711,29.9201097 54.4093098,29.8477806 53.8306776,29.8477806 C52.2394389,29.8477806 50.8651872,30.4264129 49.9008001,31.4872387 C49.4427163,30.4746323 48.3818905,29.8477806 46.9835292,29.8477806 C46.4290066,29.8477806 45.802155,29.9442194 45.2476324,30.1370968 C44.982426,30.2335355 44.8859872,30.3781935 44.8859872,30.6675097 L44.8859872,32.6445032 C44.8859872,32.957929 45.1029743,33.0302581 45.4164001,33.0302581 C45.5610582,33.0061484 45.802155,32.957929 45.9468131,32.957929 C46.621884,32.957929 46.8870905,33.2472452 46.8870905,33.8982065 L46.8870905,41.4686452 C46.8870905,41.7579613 47.0558582,41.926729 47.3451743,41.926729 L50.0454582,41.926729 C50.3347743,41.926729 50.5035421,41.7579613 50.5035421,41.4686452 L50.5035421,36.2850645 C50.5035421,34.308071 51.853684,33.1508065 53.6860195,33.1508065 C54.1441034,33.1508065 54.6504066,33.1990258 55.0120518,33.2713548 C55.3013679,33.3195742 55.4942453,33.1990258 55.5424647,32.9097097 L55.8558905,30.5951806 C55.8800001,30.3299742 55.7835614,30.1370968 55.4942453,30.0647677 Z" id="Path"></path>
                <path d="M72.5880066,41.5168645 L72.3710195,39.5157613 C72.3469098,39.2023355 72.1540324,39.1058968 71.8406066,39.1300065 C71.5512905,39.2023355 71.3584131,39.2023355 71.1173163,39.2023355 C70.6110131,39.2023355 70.3216969,38.8889097 70.3216969,38.2861677 L70.3216969,24.5436516 C70.3216969,24.2543355 70.1529292,24.0855677 69.8636131,24.0855677 L67.1392195,24.0855677 C66.8499034,24.0855677 66.6811356,24.2543355 66.6811356,24.5436516 L66.6811356,30.8844968 C65.6926389,30.1612065 64.559484,29.8477806 63.3298905,29.8477806 C59.5928905,29.8477806 56.9890453,32.4034065 56.9890453,36.0921871 C56.9890453,39.7568581 59.5928905,42.3124839 63.3298905,42.3124839 C64.9452389,42.3124839 66.2712711,41.8061806 67.3320969,40.7935742 C67.8384001,41.7579613 68.9474453,42.3124839 70.3699163,42.3124839 C70.9726582,42.3124839 71.5754001,42.2160452 72.2263614,42.0231677 C72.5156776,41.9508387 72.636226,41.782071 72.5880066,41.5168645 Z M63.6433163,39.4916516 C61.8109808,39.4916516 60.5331679,38.0932903 60.5331679,36.0921871 C60.5331679,34.0669742 61.8109808,32.6686129 63.6433163,32.6686129 C65.4515421,32.6686129 66.6811356,34.0669742 66.6811356,36.0921871 C66.6811356,38.0932903 65.4515421,39.4916516 63.6433163,39.4916516 Z" id="Shape"></path>
                <path d="M80.7852969,42.3124839 C83.5096905,42.3124839 85.6795614,41.0828903 86.4992905,39.0817871 C86.6198389,38.792471 86.4510711,38.5995935 86.1135356,38.5995935 L83.4132518,38.5995935 C83.172155,38.5995935 83.0274969,38.6960323 82.8346195,38.8406903 C82.424755,39.2987742 81.7014647,39.5639806 80.857626,39.5639806 C79.2663872,39.5639806 78.0609034,38.6719226 77.6751485,37.2253419 L86.3305227,37.2253419 C86.5957292,37.2253419 86.7886066,37.1047935 86.836826,36.8154774 C86.836826,36.550271 86.8609356,36.2609548 86.8609356,35.9957484 C86.8609356,32.3310774 84.4740776,29.8477806 80.5683098,29.8477806 C76.7348711,29.8477806 74.1551356,32.3310774 74.1551356,36.0921871 C74.1551356,39.8291871 76.8313098,42.3124839 80.7852969,42.3124839 Z M77.6510389,35.0795806 C77.868026,33.560671 79.0735098,32.5239548 80.6647485,32.5239548 C82.2800969,32.5239548 83.3409227,33.5847806 83.4132518,35.0795806 L77.6510389,35.0795806 Z" id="Shape"></path>
                <path d="M95.4198711,42.3124839 C98.1442647,42.3124839 100.314136,41.0828903 101.133865,39.0817871 C101.254413,38.792471 101.085645,38.5995935 100.74811,38.5995935 L98.047826,38.5995935 C97.8067292,38.5995935 97.6620711,38.6960323 97.4691937,38.8406903 C97.0593292,39.2987742 96.3360389,39.5639806 95.4922001,39.5639806 C93.9009614,39.5639806 92.6954776,38.6719226 92.3097227,37.2253419 L100.965097,37.2253419 C101.230303,37.2253419 101.423181,37.1047935 101.4714,36.8154774 C101.4714,36.550271 101.49551,36.2609548 101.49551,35.9957484 C101.49551,32.3310774 99.1086518,29.8477806 95.202884,29.8477806 C91.3694453,29.8477806 88.7897098,32.3310774 88.7897098,36.0921871 C88.7897098,39.8291871 91.465884,42.3124839 95.4198711,42.3124839 Z M92.2856131,35.0795806 C92.5026001,33.560671 93.708084,32.5239548 95.2993227,32.5239548 C96.9146711,32.5239548 97.9754969,33.5847806 98.047826,35.0795806 L92.2856131,35.0795806 Z" id="Shape"></path>
                <path d="M107.667587,42.3124839 C108.24622,42.3124839 108.848961,42.2160452 109.499923,42.0231677 C109.789239,41.9508387 109.909787,41.782071 109.885678,41.5168645 L109.644581,39.5157613 C109.620471,39.2023355 109.427594,39.1058968 109.138278,39.1300065 C108.824852,39.2023355 108.631974,39.2023355 108.414987,39.2023355 C107.884574,39.2023355 107.595258,38.8889097 107.595258,38.2861677 L107.595258,24.5436516 C107.595258,24.2543355 107.42649,24.0855677 107.137174,24.0855677 L104.43689,24.0855677 C104.147574,24.0855677 103.978807,24.2543355 103.978807,24.5436516 L103.978807,39.4434323 C103.978807,41.2034387 105.425387,42.3124839 107.667587,42.3124839 Z" id="Path"></path>
                <path d="M17.328626,54.2949935 C15.2793034,54.2949935 13.6880647,55.1388323 12.8201163,56.6095226 C12.0727163,55.1388323 10.674355,54.2949935 8.79380015,54.2949935 C6.98557434,54.2949935 5.51488402,55.0423935 4.59871628,56.2719871 C4.3576195,55.0182839 3.46556144,54.2949935 2.1154195,54.2949935 C1.68144531,54.2949935 1.17514208,54.3673226 0.765277567,54.5119806 C0.596509825,54.5602 0.524180792,54.6566387 0.524180792,54.8495161 L0.54829047,55.9585613 C0.54829047,56.1514387 0.692948534,56.2237677 0.885825954,56.1996581 C1.12692273,56.1514387 1.48856789,56.1032194 1.70555499,56.1032194 C2.47706466,56.1032194 2.83870982,56.5371935 2.83870982,57.4292516 L2.83870982,65.7470903 C2.83870982,65.9158581 2.95925821,66.0364065 3.12802595,66.0364065 L4.59871628,66.0364065 C4.76748402,66.0364065 4.88803241,65.9158581 4.88803241,65.7470903 L4.88803241,59.9125484 C4.88803241,57.6462387 6.31050337,56.0791097 8.40804531,56.0791097 C10.3368195,56.0791097 11.5423034,57.4533613 11.5423034,59.5750129 L11.5423034,65.7470903 C11.5423034,65.9158581 11.6628518,66.0364065 11.8316195,66.0364065 L13.3264195,66.0364065 C13.4951872,66.0364065 13.6157356,65.9158581 13.6157356,65.7470903 L13.6157356,59.8402194 C13.6157356,57.5498 14.8935485,56.0791097 16.9187614,56.0791097 C19.0163034,56.0791097 20.2217872,57.4533613 20.2217872,59.5750129 L20.2217872,65.7470903 C20.2217872,65.9158581 20.3423356,66.0364065 20.5111034,66.0364065 L21.9817937,66.0364065 C22.1746711,66.0364065 22.2711098,65.9158581 22.2711098,65.7470903 L22.2711098,59.4785742 C22.2711098,56.3925355 20.390555,54.2949935 17.328626,54.2949935 Z" id="Path"></path>
                <path d="M31.3845679,66.3739419 C33.8196453,66.3739419 35.8689679,65.2648968 36.6645872,63.529 C36.761026,63.3120129 36.6404776,63.1914645 36.4234905,63.1914645 L34.8322518,63.1914645 C34.6875937,63.1914645 34.5670453,63.2637935 34.4706066,63.3602323 C33.916084,64.204071 32.7588195,64.7103742 31.4086776,64.7103742 C29.2146969,64.7103742 27.5511292,63.2637935 27.2377034,61.1662516 L36.8574647,61.1662516 C37.0021227,61.1662516 37.0985614,61.0939226 37.1467808,60.9492645 C37.1467808,60.7322774 37.1708905,60.5152903 37.1708905,60.3224129 C37.1708905,56.7782903 34.8322518,54.2949935 31.2640195,54.2949935 C27.6475679,54.2949935 25.1642711,56.730071 25.1642711,60.3465226 C25.1642711,63.9388645 27.6957872,66.3739419 31.3845679,66.3739419 Z M27.189484,59.6714516 C27.3823614,57.477471 29.0700389,55.9585613 31.3122389,55.9585613 C33.6267679,55.9585613 35.0251292,57.6462387 35.0733485,59.6714516 L27.189484,59.6714516 Z" id="Shape"></path>
                <path d="M45.8985937,66.3739419 C46.5977743,66.3739419 47.4657227,66.2533935 48.2854518,66.0364065 C48.4783292,65.9881871 48.5506582,65.8676387 48.5265485,65.698871 L48.3336711,64.5898258 C48.3095614,64.4210581 48.1890131,64.3246194 47.9961356,64.348729 C47.3933937,64.4933871 46.7183227,64.5657161 46.1155808,64.5657161 C44.5243421,64.5657161 43.7287227,63.6736581 43.7287227,61.9136516 L43.7287227,56.2960968 L47.8755872,56.2960968 C48.044355,56.2960968 48.1649034,56.1755484 48.1649034,56.0067806 L48.1649034,54.9218452 C48.1649034,54.7530774 48.044355,54.632529 47.8755872,54.632529 L43.7287227,54.632529 L43.7287227,51.1607355 C43.7287227,50.9678581 43.6081743,50.8714194 43.4394066,50.8714194 L41.9446066,50.8714194 C41.7758389,50.8714194 41.6552905,50.9678581 41.6552905,51.1607355 L41.6552905,54.632529 L38.8826776,54.632529 C38.7139098,54.632529 38.5933614,54.7530774 38.5933614,54.9218452 L38.5933614,56.0067806 C38.5933614,56.1755484 38.7139098,56.2960968 38.8826776,56.2960968 L41.6552905,56.2960968 L41.6552905,61.961871 C41.6552905,64.7827032 43.1983098,66.3739419 45.8985937,66.3739419 Z" id="Path"></path>
                <path d="M72.033484,65.7953097 L71.9129356,64.6862645 C71.888826,64.5174968 71.7441679,64.4210581 71.5512905,64.4692774 C71.1896453,64.5416065 70.9003292,64.5657161 70.6110131,64.5657161 C69.9600518,64.5657161 69.5742969,64.0835226 69.5742969,63.2396839 L69.5742969,48.4845613 C69.5742969,48.3157935 69.4778582,48.1952452 69.2849808,48.1952452 L67.7901808,48.1952452 C67.6214131,48.1952452 67.5008647,48.3157935 67.5008647,48.4845613 L67.5008647,56.1514387 C66.4882582,54.9700645 65.0175679,54.2949935 63.4504389,54.2949935 C59.930426,54.2949935 57.3024711,56.874729 57.3024711,60.3465226 C57.3024711,63.7942065 59.930426,66.3739419 63.4504389,66.3739419 C65.2104453,66.3739419 66.7052453,65.6265419 67.7901808,64.3246194 C68.0312776,65.6265419 68.9474453,66.3739419 70.3699163,66.3739419 C70.8280001,66.3739419 71.286084,66.3016129 71.8164969,66.1328452 C71.9852647,66.0846258 72.0575937,65.9881871 72.033484,65.7953097 Z M63.4745485,64.6621548 C61.1359098,64.6621548 59.3517937,62.8057097 59.3517937,60.3465226 C59.3517937,57.8632258 61.1359098,56.0067806 63.4745485,56.0067806 C65.7890776,56.0067806 67.5249743,57.8632258 67.5249743,60.3465226 C67.5249743,62.8057097 65.7890776,64.6621548 63.4745485,64.6621548 Z" id="Shape"></path>
                <path d="M80.5200905,66.3739419 C82.9551679,66.3739419 85.0044905,65.2648968 85.8001098,63.529 C85.8965485,63.3120129 85.7760001,63.1914645 85.5590131,63.1914645 L83.9677743,63.1914645 C83.8231163,63.1914645 83.7025679,63.2637935 83.6061292,63.3602323 C83.0516066,64.204071 81.8943421,64.7103742 80.5442001,64.7103742 C78.3502195,64.7103742 76.6866518,63.2637935 76.373226,61.1662516 L85.9929872,61.1662516 C86.1376453,61.1662516 86.234084,61.0939226 86.2823034,60.9492645 C86.2823034,60.7322774 86.3064131,60.5152903 86.3064131,60.3224129 C86.3064131,56.7782903 83.9677743,54.2949935 80.3995421,54.2949935 C76.7830905,54.2949935 74.2997937,56.730071 74.2997937,60.3465226 C74.2997937,63.9388645 76.8313098,66.3739419 80.5200905,66.3739419 Z M76.3250066,59.6714516 C76.517884,57.477471 78.2055614,55.9585613 80.4477614,55.9585613 C82.7622905,55.9585613 84.1606518,57.6462387 84.2088711,59.6714516 L76.3250066,59.6714516 Z" id="Shape"></path>
                <path d="M10.1921614,90.4836194 C15.4480711,90.4836194 19.2574001,86.7948387 19.2574001,81.7076968 C19.2574001,76.6205548 15.4480711,72.9317742 10.1921614,72.9317742 C4.93625176,72.9317742 1.12692273,76.6205548 1.12692273,81.7076968 C1.12692273,86.7948387 4.93625176,90.4836194 10.1921614,90.4836194 Z M10.1921614,88.5789548 C6.23817434,88.5789548 3.2967937,85.7340129 3.2967937,81.7076968 C3.2967937,77.6813806 6.23817434,74.8364387 10.1921614,74.8364387 C14.1461485,74.8364387 17.0875292,77.6813806 17.0875292,81.7076968 C17.0875292,85.7340129 14.1461485,88.5789548 10.1921614,88.5789548 Z" id="Shape"></path>
                <path d="M38.4487034,78.404671 C36.3993808,78.404671 34.8081421,79.2485097 33.9401937,80.7192 C33.1927937,79.2485097 31.7944324,78.404671 29.9138776,78.404671 C28.1056518,78.404671 26.6349614,79.152071 25.7187937,80.3816645 C25.4776969,79.1279613 24.5856389,78.404671 23.2354969,78.404671 C22.8015227,78.404671 22.2952195,78.477 21.885355,78.6216581 C21.7165872,78.6698774 21.6442582,78.7663161 21.6442582,78.9591935 L21.6683679,80.0682387 C21.6683679,80.2611161 21.813026,80.3334452 22.0059034,80.3093355 C22.2470001,80.2611161 22.6086453,80.2128968 22.8256324,80.2128968 C23.5971421,80.2128968 23.9587872,80.646871 23.9587872,81.538929 L23.9587872,89.8567677 C23.9587872,90.0255355 24.0793356,90.1460839 24.2481034,90.1460839 L25.7187937,90.1460839 C25.8875614,90.1460839 26.0081098,90.0255355 26.0081098,89.8567677 L26.0081098,84.0222258 C26.0081098,81.7559161 27.4305808,80.1887871 29.5281227,80.1887871 C31.4568969,80.1887871 32.6623808,81.5630387 32.6623808,83.6846903 L32.6623808,89.8567677 C32.6623808,90.0255355 32.7829292,90.1460839 32.9516969,90.1460839 L34.4464969,90.1460839 C34.6152647,90.1460839 34.7358131,90.0255355 34.7358131,89.8567677 L34.7358131,83.9498968 C34.7358131,81.6594774 36.013626,80.1887871 38.0388389,80.1887871 C40.1363808,80.1887871 41.3418647,81.5630387 41.3418647,83.6846903 L41.3418647,89.8567677 C41.3418647,90.0255355 41.4624131,90.1460839 41.6311808,90.1460839 L43.1018711,90.1460839 C43.2947485,90.1460839 43.3911872,90.0255355 43.3911872,89.8567677 L43.3911872,83.5882516 C43.3911872,80.5022129 41.5106324,78.404671 38.4487034,78.404671 Z" id="Path"></path>
                <path d="M56.1210969,78.7180968 C55.5424647,78.5011097 54.8191743,78.404671 54.1441034,78.404671 C52.3840969,78.404671 50.9134066,79.2002903 49.9490195,80.5504323 C49.7561421,79.2002903 48.8158647,78.404671 47.4175034,78.404671 C46.9835292,78.404671 46.477226,78.477 46.0673614,78.6216581 C45.8985937,78.6698774 45.8262647,78.7663161 45.8262647,78.9591935 L45.8503743,80.0682387 C45.8503743,80.2611161 45.9950324,80.3334452 46.1879098,80.3093355 C46.4290066,80.2611161 46.7906518,80.2128968 47.0076389,80.2128968 C47.7791485,80.2128968 48.1407937,80.646871 48.1407937,81.538929 L48.1407937,89.8567677 C48.1407937,90.0255355 48.2613421,90.1460839 48.4301098,90.1460839 L49.9008001,90.1460839 C50.0695679,90.1460839 50.1901163,90.0255355 50.1901163,89.8567677 L50.1901163,84.528529 C50.1901163,81.9729032 51.853684,80.2611161 54.1441034,80.2611161 C54.698626,80.2611161 55.2772582,80.3093355 55.7835614,80.4781032 C55.9764389,80.5263226 56.1210969,80.4539935 56.1452066,80.2611161 L56.338084,79.0556323 C56.3621937,78.8868645 56.3139743,78.7663161 56.1210969,78.7180968 Z" id="Path"></path>
                <path d="M60.1956324,75.8490452 C60.9430324,75.8490452 61.5939937,75.2945226 61.5939937,74.5712323 C61.5939937,73.8720516 60.9430324,73.2934194 60.1956324,73.2934194 C59.4482324,73.2934194 58.8213808,73.8720516 58.8213808,74.5712323 C58.8213808,75.2945226 59.4482324,75.8490452 60.1956324,75.8490452 Z M59.4723421,90.1460839 L60.9430324,90.1460839 C61.1118001,90.1460839 61.2323485,90.0255355 61.2323485,89.8567677 L61.2323485,79.0315226 C61.2323485,78.8627548 61.1118001,78.7422065 60.9430324,78.7422065 L59.4723421,78.7422065 C59.2794647,78.7422065 59.183026,78.8627548 59.183026,79.0315226 L59.183026,89.8567677 C59.183026,90.0255355 59.2794647,90.1460839 59.4723421,90.1460839 Z" id="Shape"></path>
                <path d="M72.8773227,78.404671 C70.9485485,78.404671 69.3573098,79.1279613 68.3929227,80.4057742 C68.1277163,79.152071 67.2115485,78.404671 65.8855163,78.404671 C65.4515421,78.404671 64.9452389,78.477 64.5353743,78.6216581 C64.3666066,78.6698774 64.2942776,78.7663161 64.2942776,78.9591935 L64.3183872,80.0682387 C64.3183872,80.2611161 64.4630453,80.3334452 64.6559227,80.3093355 C64.8970195,80.2611161 65.2586647,80.2128968 65.4756518,80.2128968 C66.2471614,80.2128968 66.6088066,80.646871 66.6088066,81.538929 L66.6088066,89.8567677 C66.6088066,90.0255355 66.729355,90.1460839 66.8981227,90.1460839 L68.3688131,90.1460839 C68.5375808,90.1460839 68.6581292,90.0255355 68.6581292,89.8567677 L68.6581292,84.0222258 C68.6581292,81.7318065 70.2493679,80.1887871 72.4674582,80.1887871 C74.5408905,80.1887871 75.8910324,81.5630387 75.8910324,83.6846903 L75.8910324,89.8567677 C75.8910324,90.0255355 76.0115808,90.1460839 76.1803485,90.1460839 L77.6510389,90.1460839 C77.8439163,90.1460839 77.9644647,90.0255355 77.9644647,89.8567677 L77.9644647,83.5882516 C77.9644647,80.5022129 75.9392518,78.404671 72.8773227,78.404671 Z" id="Path"></path>
                <path d="M92.816026,78.7422065 L91.3453356,78.7422065 C91.1765679,78.7422065 91.0560195,78.8627548 91.0560195,79.0315226 L91.0560195,80.3093355 C90.0434131,79.1038516 88.5486131,78.404671 86.9573743,78.404671 C83.4373614,78.404671 80.8335163,80.9844065 80.8335163,84.4562 C80.8335163,87.9038839 83.4373614,90.4836194 86.9573743,90.4836194 C88.5727227,90.4836194 90.0675227,89.760329 91.0560195,88.5307355 L91.0560195,90.4595097 C91.0560195,92.7258194 89.5130001,94.2206194 87.1743614,94.2206194 C85.2938066,94.2206194 83.8231163,93.3285613 83.3891421,91.9543097 C83.3409227,91.7855419 83.244484,91.7132129 83.0757163,91.7132129 L81.5568066,91.7132129 C81.3639292,91.7132129 81.2433808,91.8337613 81.2916001,92.0266387 C81.8461227,94.4376065 84.1124324,95.9806258 87.1743614,95.9806258 C90.7667034,95.9806258 93.1053421,93.7625355 93.1053421,90.4595097 L93.1053421,79.0315226 C93.1053421,78.8627548 92.9847937,78.7422065 92.816026,78.7422065 Z M87.0055937,88.7718323 C84.666955,88.7718323 82.8828389,86.9153871 82.8828389,84.4562 C82.8828389,81.9729032 84.666955,80.1164581 87.0055937,80.1164581 C89.2960131,80.1164581 91.0560195,81.9729032 91.0560195,84.4562 C91.0560195,86.9153871 89.2960131,88.7718323 87.0055937,88.7718323 Z" id="Shape"></path>
                <path d="M104.50922,78.404671 C102.845652,78.404671 101.230303,79.152071 100.169478,80.4781032 C99.9283808,79.2002903 99.0122131,78.404671 97.6379614,78.404671 C97.2039872,78.404671 96.697684,78.477 96.2878195,78.6216581 C96.1190518,78.6698774 96.0467227,78.7663161 96.0467227,78.9591935 L96.0708324,80.0682387 C96.0708324,80.2611161 96.2154905,80.3334452 96.4083679,80.3093355 C96.6494647,80.2611161 97.0111098,80.2128968 97.2280969,80.2128968 C97.9996066,80.2128968 98.3612518,80.646871 98.3612518,81.538929 L98.3612518,95.3537742 C98.3612518,95.5225419 98.4818001,95.6430903 98.6505679,95.6430903 L100.121258,95.6430903 C100.290026,95.6430903 100.410574,95.5225419 100.410574,95.3537742 L100.410574,88.5307355 C101.399071,89.760329 102.893871,90.4836194 104.50922,90.4836194 C108.005123,90.4836194 110.633078,87.9038839 110.633078,84.4562 C110.633078,80.9844065 108.005123,78.404671 104.50922,78.404671 Z M104.461,88.7718323 C102.170581,88.7718323 100.410574,86.9153871 100.410574,84.4562 C100.410574,81.9729032 102.170581,80.1164581 104.461,80.1164581 C106.799639,80.1164581 108.583755,81.9729032 108.583755,84.4562 C108.583755,86.9153871 106.799639,88.7718323 104.461,88.7718323 Z" id="Shape"></path>
                <path d="M128.064374,89.9049871 L127.943826,88.7959419 C127.919716,88.6271742 127.775058,88.5307355 127.60629,88.5789548 C127.220536,88.6512839 126.93122,88.6753935 126.641903,88.6753935 C125.990942,88.6753935 125.629297,88.2173097 125.629297,87.373471 L125.629297,79.0315226 C125.629297,78.8627548 125.508749,78.7422065 125.339981,78.7422065 L123.845181,78.7422065 C123.676413,78.7422065 123.555865,78.8627548 123.555865,79.0315226 L123.555865,80.2852258 C122.519149,79.1038516 121.048458,78.404671 119.481329,78.404671 C115.961316,78.404671 113.333361,80.9844065 113.333361,84.4562 C113.333361,87.9038839 115.961316,90.4836194 119.481329,90.4836194 C121.217226,90.4836194 122.712026,89.7362194 123.821071,88.4584065 C124.062168,89.760329 125.002445,90.4836194 126.400807,90.4836194 C126.85889,90.4836194 127.341084,90.4112903 127.847387,90.2425226 C128.016155,90.1943032 128.088484,90.0978645 128.064374,89.9049871 Z M119.505439,88.7718323 C117.1668,88.7718323 115.382684,86.9153871 115.382684,84.4562 C115.382684,81.9729032 117.1668,80.1164581 119.505439,80.1164581 C121.819968,80.1164581 123.555865,81.9729032 123.555865,84.4562 C123.555865,86.9153871 121.819968,88.7718323 119.505439,88.7718323 Z" id="Shape"></path>
                <path d="M135.731252,90.4836194 C138.672632,90.4836194 140.673736,89.0852581 140.673736,86.9636065 C140.673736,82.0934516 132.645213,84.7937355 132.645213,81.6112581 C132.645213,80.5986516 133.754258,79.9476903 135.441936,79.9476903 C137.033174,79.9476903 138.286878,80.5986516 138.600303,81.8282452 C138.648523,81.9487935 138.744961,82.0211226 138.913729,82.0211226 L140.263871,82.0211226 C140.456749,82.0211226 140.577297,81.9005742 140.553187,81.7076968 C140.239761,79.7548129 138.190439,78.404671 135.417826,78.404671 C132.548774,78.404671 130.62,79.7789226 130.62,81.8041355 C130.62,86.5537419 138.696742,83.9016774 138.696742,87.0841548 C138.696742,88.1449806 137.515368,88.8923806 135.731252,88.8923806 C133.778368,88.8923806 132.500555,88.1449806 132.09069,86.8430581 C132.018361,86.6742903 131.946032,86.5778516 131.777265,86.5778516 L130.427123,86.5778516 C130.210136,86.5778516 130.113697,86.6984 130.137807,86.8912774 C130.547671,89.1816968 132.548774,90.4836194 135.731252,90.4836194 Z" id="Path"></path>
            </g>
        </g>
    </g>
</svg>