<?xml version="1.0" encoding="UTF-8"?>
<svg width="234px" height="172px" viewBox="0 0 234 172" version="1.1" xmlns="http://www.w3.org/2000/svg" xmlns:xlink="http://www.w3.org/1999/xlink">
    <title>Text</title>
    <defs>
        <rect id="path-1" x="0" y="0" width="128" height="51.8700022" rx="25.9350011"></rect>
        <filter x="-5.9%" y="-14.5%" width="111.7%" height="128.9%" filterUnits="objectBoundingBox" id="filter-2">
            <feOffset dx="0" dy="0" in="SourceAlpha" result="shadowOffsetOuter1"></feOffset>
            <feGaussianBlur stdDeviation="2.5" in="shadowOffsetOuter1" result="shadowBlurOuter1"></feGaussianBlur>
            <feColorMatrix values="0 0 0 0 0   0 0 0 0 0.368045807   0 0 0 0 0.361608624  0 0 0 0.5 0" type="matrix" in="shadowBlurOuter1"></feColorMatrix>
        </filter>
    </defs>
    <g id="HTML5-banners" stroke="none" stroke-width="1" fill="none" fill-rule="evenodd">
        <g id="300x600px_1" transform="translate(-36.000000, -332.000000)">
            <g id="Text" transform="translate(36.000000, 337.000000)">
                <path d="M6.439,136.930001 C9.959,136.930001 12.313,134.686001 12.313,131.320001 C12.313,127.954001 9.959,125.710001 6.439,125.710001 C2.919,125.710001 0.565,127.954001 0.565,131.320001 C0.565,134.686001 2.919,136.930001 6.439,136.930001 Z M6.439,134.620001 C4.525,134.620001 3.249,133.300001 3.249,131.320001 C3.249,129.340001 4.525,128.020001 6.439,128.020001 C8.353,128.020001 9.629,129.340001 9.629,131.320001 C9.629,133.300001 8.353,134.620001 6.439,134.620001 Z M18.253,141.660001 C18.451,141.660001 18.583,141.528001 18.583,141.330001 L18.583,135.962001 C19.529,136.644001 20.607,136.930001 21.685,136.930001 C25.095,136.930001 27.515,134.598001 27.515,131.320001 C27.515,128.042001 25.095,125.710001 21.685,125.710001 C20.409,125.710001 19.089,126.128001 18.077,127.096001 C17.659,126.238001 16.757,125.710001 15.569,125.710001 C15.151,125.710001 14.645,125.776001 14.227,125.930001 C14.029,125.996001 13.963,126.128001 13.963,126.326001 L13.963,127.866001 C13.963,128.086001 14.139,128.152001 14.359,128.130001 C14.513,128.108001 14.821,128.064001 14.975,128.064001 C15.613,128.064001 15.899,128.328001 15.899,128.878001 L15.899,141.330001 C15.899,141.528001 16.031,141.660001 16.229,141.660001 L18.253,141.660001 Z M21.663,134.730001 C19.859,134.730001 18.583,133.322001 18.583,131.320001 C18.583,129.318001 19.859,127.910001 21.663,127.910001 C23.511,127.910001 24.831,129.318001 24.831,131.320001 C24.831,133.322001 23.511,134.730001 21.663,134.730001 Z M46.875,136.930001 C47.359,136.930001 47.821,136.842001 48.371,136.666001 C48.569,136.600001 48.657,136.468001 48.635,136.270001 L48.459,134.752001 C48.437,134.532001 48.283,134.444001 48.063,134.488001 C47.711,134.554001 47.513,134.576001 47.249,134.576001 C46.787,134.576001 46.479,134.246001 46.479,133.762001 L46.479,126.370001 C46.479,126.172001 46.347,126.040001 46.149,126.040001 L44.125,126.040001 C43.927,126.040001 43.795,126.172001 43.795,126.370001 L43.795,131.936001 C43.795,133.542001 42.629,134.620001 40.935,134.620001 C39.307,134.620001 38.229,133.476001 38.229,131.782001 L38.229,126.370001 C38.229,126.172001 38.097,126.040001 37.899,126.040001 L35.875,126.040001 C35.677,126.040001 35.545,126.172001 35.545,126.370001 L35.545,131.936001 C35.545,134.928001 37.481,136.930001 40.363,136.930001 C41.925,136.930001 43.223,136.490001 44.147,135.698001 C44.631,136.468001 45.599,136.930001 46.875,136.930001 Z M55.807,136.600001 C55.983,136.600001 56.115,136.534001 56.181,136.336001 L58.381,130.154001 L60.581,136.336001 C60.647,136.534001 60.779,136.600001 60.955,136.600001 L62.737,136.600001 C62.913,136.600001 63.067,136.512001 63.133,136.336001 L66.983,126.414001 C67.071,126.172001 66.961,126.040001 66.719,126.040001 L64.519,126.040001 C64.343,126.040001 64.211,126.106001 64.145,126.304001 L61.835,132.574001 L59.613,126.304001 C59.547,126.106001 59.415,126.040001 59.239,126.040001 L57.523,126.040001 C57.347,126.040001 57.215,126.106001 57.149,126.304001 L54.905,132.552001 L52.617,126.304001 C52.551,126.106001 52.419,126.040001 52.243,126.040001 L50.021,126.040001 C49.779,126.040001 49.669,126.172001 49.757,126.414001 L53.629,136.336001 C53.695,136.512001 53.849,136.600001 54.025,136.600001 L55.807,136.600001 Z M79.655,139.218001 L80.755,138.162001 C80.953,137.964001 80.975,137.744001 80.755,137.546001 C78.533,135.346001 77.235,133.124001 77.235,129.956001 C77.235,126.788001 78.533,124.566001 80.755,122.366001 C80.975,122.168001 80.953,121.948001 80.755,121.750001 L79.655,120.694001 C79.457,120.518001 79.237,120.496001 79.039,120.672001 C76.223,123.158001 74.485,126.018001 74.485,129.956001 C74.485,133.894001 76.223,136.754001 79.039,139.240001 C79.237,139.416001 79.457,139.394001 79.655,139.218001 Z M94.461,136.930001 C94.945,136.930001 95.407,136.842001 95.957,136.666001 C96.155,136.600001 96.243,136.468001 96.221,136.270001 L96.045,134.752001 C96.023,134.532001 95.869,134.444001 95.649,134.488001 C95.297,134.554001 95.099,134.576001 94.835,134.576001 C94.373,134.576001 94.065,134.246001 94.065,133.762001 L94.065,126.370001 C94.065,126.172001 93.933,126.040001 93.735,126.040001 L91.711,126.040001 C91.513,126.040001 91.381,126.172001 91.381,126.370001 L91.381,126.678001 C90.435,125.996001 89.357,125.710001 88.279,125.710001 C84.869,125.710001 82.449,128.042001 82.449,131.320001 C82.449,134.598001 84.869,136.930001 88.279,136.930001 C89.687,136.930001 90.831,136.512001 91.909,135.566001 C92.327,136.424001 93.251,136.930001 94.461,136.930001 Z M88.301,134.730001 C86.453,134.730001 85.133,133.322001 85.133,131.320001 C85.133,129.318001 86.453,127.910001 88.301,127.910001 C90.105,127.910001 91.381,129.318001 91.381,131.320001 C91.381,133.322001 90.105,134.730001 88.301,134.730001 Z M109.883,136.930001 C110.367,136.930001 110.829,136.842001 111.379,136.666001 C111.577,136.600001 111.665,136.468001 111.643,136.270001 L111.467,134.752001 C111.445,134.532001 111.291,134.444001 111.071,134.488001 C110.719,134.554001 110.521,134.576001 110.257,134.576001 C109.795,134.576001 109.487,134.246001 109.487,133.762001 L109.487,126.370001 C109.487,126.172001 109.355,126.040001 109.157,126.040001 L107.133,126.040001 C106.935,126.040001 106.803,126.172001 106.803,126.370001 L106.803,126.678001 C105.857,125.996001 104.779,125.710001 103.701,125.710001 C100.291,125.710001 97.871,128.042001 97.871,131.320001 C97.871,134.598001 100.291,136.930001 103.701,136.930001 C105.109,136.930001 106.253,136.512001 107.331,135.566001 C107.749,136.424001 108.673,136.930001 109.883,136.930001 Z M103.723,134.730001 C101.875,134.730001 100.555,133.322001 100.555,131.320001 C100.555,129.318001 101.875,127.910001 103.723,127.910001 C105.527,127.910001 106.803,129.318001 106.803,131.320001 C106.803,133.322001 105.527,134.730001 103.723,134.730001 Z M117.253,136.600001 C117.451,136.600001 117.583,136.468001 117.583,136.270001 L117.583,130.704001 C117.583,129.098001 118.749,128.020001 120.443,128.020001 C122.071,128.020001 123.149,129.164001 123.149,130.858001 L123.149,136.270001 C123.149,136.468001 123.281,136.600001 123.479,136.600001 L125.503,136.600001 C125.701,136.600001 125.833,136.468001 125.833,136.270001 L125.833,130.704001 C125.833,127.712001 123.897,125.710001 121.015,125.710001 C119.365,125.710001 118.001,126.216001 117.077,127.096001 C116.659,126.238001 115.757,125.710001 114.569,125.710001 C114.151,125.710001 113.645,125.776001 113.227,125.930001 C113.029,125.996001 112.963,126.128001 112.963,126.326001 L112.963,127.866001 C112.963,128.086001 113.139,128.152001 113.359,128.130001 C113.513,128.108001 113.821,128.064001 113.975,128.064001 C114.613,128.064001 114.899,128.328001 114.899,128.878001 L114.899,136.270001 C114.899,136.468001 115.031,136.600001 115.229,136.600001 L117.253,136.600001 Z M134.633,136.600001 C134.809,136.600001 134.941,136.512001 135.007,136.358001 L139.781,126.436001 C139.891,126.194001 139.781,126.040001 139.539,126.040001 L137.405,126.040001 C137.229,126.040001 137.097,126.128001 137.031,126.282001 L133.709,133.366001 L130.431,126.282001 C130.365,126.128001 130.233,126.040001 130.057,126.040001 L127.879,126.040001 C127.637,126.040001 127.527,126.194001 127.637,126.436001 L132.411,136.358001 C132.477,136.512001 132.609,136.600001 132.785,136.600001 L134.633,136.600001 Z M152.915,136.930001 C153.399,136.930001 153.861,136.842001 154.411,136.666001 C154.609,136.600001 154.697,136.468001 154.675,136.270001 L154.499,134.752001 C154.477,134.532001 154.323,134.444001 154.103,134.488001 C153.751,134.554001 153.553,134.576001 153.289,134.576001 C152.827,134.576001 152.519,134.246001 152.519,133.762001 L152.519,126.370001 C152.519,126.172001 152.387,126.040001 152.189,126.040001 L150.165,126.040001 C149.967,126.040001 149.835,126.172001 149.835,126.370001 L149.835,131.936001 C149.835,133.542001 148.669,134.620001 146.975,134.620001 C145.347,134.620001 144.269,133.476001 144.269,131.782001 L144.269,126.370001 C144.269,126.172001 144.137,126.040001 143.939,126.040001 L141.915,126.040001 C141.717,126.040001 141.585,126.172001 141.585,126.370001 L141.585,131.936001 C141.585,134.928001 143.521,136.930001 146.403,136.930001 C147.965,136.930001 149.263,136.490001 150.187,135.698001 C150.671,136.468001 151.639,136.930001 152.915,136.930001 Z M159.955,136.930001 C160.439,136.930001 160.901,136.842001 161.451,136.666001 C161.649,136.600001 161.737,136.468001 161.715,136.270001 L161.539,134.752001 C161.517,134.532001 161.363,134.444001 161.143,134.488001 C160.791,134.554001 160.593,134.576001 160.329,134.576001 C159.867,134.576001 159.559,134.246001 159.559,133.762001 L159.559,120.650001 C159.559,120.452001 159.427,120.320001 159.229,120.320001 L157.205,120.320001 C157.007,120.320001 156.875,120.452001 156.875,120.650001 L156.875,134.488001 C156.875,135.962001 158.107,136.930001 159.955,136.930001 Z M166.995,136.930001 C167.479,136.930001 167.941,136.842001 168.491,136.666001 C168.689,136.600001 168.777,136.468001 168.755,136.270001 L168.579,134.752001 C168.557,134.532001 168.403,134.444001 168.183,134.488001 C167.831,134.554001 167.633,134.576001 167.369,134.576001 C166.907,134.576001 166.599,134.246001 166.599,133.762001 L166.599,120.650001 C166.599,120.452001 166.467,120.320001 166.269,120.320001 L164.245,120.320001 C164.047,120.320001 163.915,120.452001 163.915,120.650001 L163.915,134.488001 C163.915,135.962001 165.147,136.930001 166.995,136.930001 Z M176.257,136.930001 C178.567,136.930001 180.525,135.852001 181.273,134.180001 C181.383,133.960001 181.251,133.806001 181.009,133.806001 L178.831,133.806001 C178.655,133.806001 178.545,133.872001 178.413,134.004001 C178.017,134.466001 177.225,134.774001 176.323,134.774001 C174.739,134.774001 173.507,133.850001 173.111,132.398001 L181.229,132.398001 C181.427,132.398001 181.559,132.310001 181.603,132.112001 C181.625,131.826001 181.647,131.518001 181.647,131.232001 C181.647,127.910001 179.425,125.710001 176.103,125.710001 C172.693,125.710001 170.405,127.954001 170.405,131.320001 C170.405,134.686001 172.759,136.930001 176.257,136.930001 Z M178.919,130.506001 L173.045,130.506001 C173.265,128.922001 174.519,127.866001 176.169,127.866001 C177.819,127.866001 178.875,128.966001 178.919,130.506001 Z M187.587,136.600001 C187.785,136.600001 187.917,136.468001 187.917,136.270001 L187.917,130.704001 C187.917,129.098001 189.083,128.020001 190.777,128.020001 C192.405,128.020001 193.483,129.164001 193.483,130.858001 L193.483,136.270001 C193.483,136.468001 193.615,136.600001 193.813,136.600001 L195.837,136.600001 C196.035,136.600001 196.167,136.468001 196.167,136.270001 L196.167,130.704001 C196.167,127.712001 194.231,125.710001 191.349,125.710001 C189.699,125.710001 188.335,126.216001 187.411,127.096001 C186.993,126.238001 186.091,125.710001 184.903,125.710001 C184.485,125.710001 183.979,125.776001 183.561,125.930001 C183.363,125.996001 183.297,126.128001 183.297,126.326001 L183.297,127.866001 C183.297,128.086001 183.473,128.152001 183.693,128.130001 C183.847,128.108001 184.155,128.064001 184.309,128.064001 C184.947,128.064001 185.233,128.328001 185.233,128.878001 L185.233,136.270001 C185.233,136.468001 185.365,136.600001 185.563,136.600001 L187.587,136.600001 Z M210.489,136.930001 C210.973,136.930001 211.435,136.842001 211.985,136.666001 C212.183,136.600001 212.271,136.468001 212.249,136.270001 L212.073,134.752001 C212.051,134.532001 211.897,134.444001 211.677,134.488001 C211.325,134.554001 211.127,134.576001 210.863,134.576001 C210.401,134.576001 210.093,134.246001 210.093,133.762001 L210.093,120.650001 C210.093,120.452001 209.961,120.320001 209.763,120.320001 L207.717,120.320001 C207.519,120.320001 207.387,120.452001 207.387,120.650001 L207.387,126.656001 C206.441,125.996001 205.385,125.710001 204.307,125.710001 C200.897,125.710001 198.477,128.042001 198.477,131.320001 C198.477,134.598001 200.897,136.930001 204.307,136.930001 C205.715,136.930001 206.859,136.512001 207.937,135.566001 C208.355,136.424001 209.279,136.930001 210.489,136.930001 Z M204.329,134.730001 C202.481,134.730001 201.161,133.322001 201.161,131.320001 C201.161,129.318001 202.481,127.910001 204.329,127.910001 C206.133,127.910001 207.409,129.318001 207.409,131.320001 C207.409,133.322001 206.133,134.730001 204.329,134.730001 Z M219.751,136.930001 C222.061,136.930001 224.019,135.852001 224.767,134.180001 C224.877,133.960001 224.745,133.806001 224.503,133.806001 L222.325,133.806001 C222.149,133.806001 222.039,133.872001 221.907,134.004001 C221.511,134.466001 220.719,134.774001 219.817,134.774001 C218.233,134.774001 217.001,133.850001 216.605,132.398001 L224.723,132.398001 C224.921,132.398001 225.053,132.310001 225.097,132.112001 C225.119,131.826001 225.141,131.518001 225.141,131.232001 C225.141,127.910001 222.919,125.710001 219.597,125.710001 C216.187,125.710001 213.899,127.954001 213.899,131.320001 C213.899,134.686001 216.253,136.930001 219.751,136.930001 Z M222.413,130.506001 L216.539,130.506001 C216.759,128.922001 218.013,127.866001 219.663,127.866001 C221.313,127.866001 222.369,128.966001 222.413,130.506001 Z M228.551,139.240001 C231.367,136.754001 233.105,133.894001 233.105,129.956001 C233.105,126.018001 231.367,123.158001 228.551,120.672001 C228.353,120.496001 228.133,120.518001 227.935,120.694001 L226.835,121.750001 C226.637,121.948001 226.615,122.168001 226.835,122.366001 C229.057,124.566001 230.355,126.788001 230.355,129.956001 C230.355,133.124001 229.057,135.346001 226.835,137.546001 C226.615,137.744001 226.637,137.964001 226.835,138.162001 L227.935,139.218001 C228.133,139.394001 228.353,139.416001 228.551,139.240001 Z M34.94,161.200002 C35.138,161.200002 35.27,161.068002 35.27,160.870002 L35.27,159.418002 C35.27,159.220002 35.138,159.088002 34.94,159.088002 L29.308,159.088002 L35.138,152.180002 C35.248,152.070002 35.292,151.916002 35.292,151.762002 L35.292,150.970002 C35.292,150.772002 35.16,150.640002 34.962,150.640002 L25.876,150.640002 C25.678,150.640002 25.546,150.772002 25.546,150.970002 L25.546,152.422002 C25.546,152.620002 25.678,152.752002 25.876,152.752002 L31.442,152.752002 L25.502,159.836002 C25.392,159.946002 25.348,160.100002 25.348,160.254002 L25.348,160.870002 C25.348,161.068002 25.48,161.200002 25.678,161.200002 L34.94,161.200002 Z M42.926,161.530002 C46.446,161.530002 48.8,159.286002 48.8,155.920002 C48.8,152.554002 46.446,150.310002 42.926,150.310002 C39.406,150.310002 37.052,152.554002 37.052,155.920002 C37.052,159.286002 39.406,161.530002 42.926,161.530002 Z M42.926,159.220002 C41.012,159.220002 39.736,157.900002 39.736,155.920002 C39.736,153.940002 41.012,152.620002 42.926,152.620002 C44.84,152.620002 46.116,153.940002 46.116,155.920002 C46.116,157.900002 44.84,159.220002 42.926,159.220002 Z M54.74,161.200002 C54.938,161.200002 55.07,161.068002 55.07,160.870002 L55.07,155.920002 C55.07,154.006002 56.39,152.730002 58.26,152.730002 C58.7,152.730002 59.14,152.774002 59.514,152.840002 C59.734,152.884002 59.866,152.796002 59.91,152.576002 L60.174,150.926002 C60.196,150.728002 60.13,150.596002 59.932,150.530002 C59.492,150.398002 58.854,150.310002 58.282,150.310002 C56.808,150.310002 55.554,150.882002 54.63,151.894002 C54.278,150.904002 53.332,150.310002 52.056,150.310002 C51.638,150.310002 51.132,150.398002 50.714,150.530002 C50.516,150.596002 50.45,150.728002 50.45,150.926002 L50.45,152.466002 C50.45,152.686002 50.626,152.752002 50.846,152.730002 C51,152.708002 51.308,152.664002 51.462,152.664002 C52.1,152.664002 52.386,152.928002 52.386,153.478002 L52.386,160.870002 C52.386,161.068002 52.518,161.200002 52.716,161.200002 L54.74,161.200002 Z M67.94,166.590002 C71.306,166.590002 73.55,164.522002 73.55,161.398002 L73.55,150.970002 C73.55,150.772002 73.418,150.640002 73.22,150.640002 L71.196,150.640002 C70.998,150.640002 70.866,150.772002 70.866,150.970002 L70.866,151.278002 C69.92,150.596002 68.842,150.310002 67.764,150.310002 C64.354,150.310002 61.934,152.642002 61.934,155.920002 C61.934,159.198002 64.354,161.530002 67.764,161.530002 C68.842,161.530002 69.92,161.244002 70.866,160.562002 L70.866,161.398002 C70.866,163.136002 69.7,164.280002 67.94,164.280002 C66.488,164.280002 65.366,163.620002 65.058,162.564002 C64.992,162.366002 64.882,162.278002 64.684,162.278002 L62.616,162.278002 C62.396,162.278002 62.264,162.410002 62.308,162.630002 C62.77,165.028002 64.97,166.590002 67.94,166.590002 Z M67.786,159.330002 C65.938,159.330002 64.618,157.922002 64.618,155.920002 C64.618,153.918002 65.938,152.510002 67.786,152.510002 C69.59,152.510002 70.866,153.918002 70.866,155.920002 C70.866,157.922002 69.59,159.330002 67.786,159.330002 Z M82.57,161.200002 C82.746,161.200002 82.878,161.112002 82.944,160.958002 L87.718,151.036002 C87.828,150.794002 87.718,150.640002 87.476,150.640002 L85.342,150.640002 C85.166,150.640002 85.034,150.728002 84.968,150.882002 L81.646,157.966002 L78.368,150.882002 C78.302,150.728002 78.17,150.640002 77.994,150.640002 L75.816,150.640002 C75.574,150.640002 75.464,150.794002 75.574,151.036002 L80.348,160.958002 C80.414,161.112002 80.546,161.200002 80.722,161.200002 L82.57,161.200002 Z M95.044,161.530002 C97.354,161.530002 99.312,160.452002 100.06,158.780002 C100.17,158.560002 100.038,158.406002 99.796,158.406002 L97.618,158.406002 C97.442,158.406002 97.332,158.472002 97.2,158.604002 C96.804,159.066002 96.012,159.374002 95.11,159.374002 C93.526,159.374002 92.294,158.450002 91.898,156.998002 L100.016,156.998002 C100.214,156.998002 100.346,156.910002 100.39,156.712002 C100.412,156.426002 100.434,156.118002 100.434,155.832002 C100.434,152.510002 98.212,150.310002 94.89,150.310002 C91.48,150.310002 89.192,152.554002 89.192,155.920002 C89.192,159.286002 91.546,161.530002 95.044,161.530002 Z M97.706,155.106002 L91.832,155.106002 C92.052,153.522002 93.306,152.466002 94.956,152.466002 C96.606,152.466002 97.662,153.566002 97.706,155.106002 Z M106.374,161.200002 C106.572,161.200002 106.704,161.068002 106.704,160.870002 L106.704,155.920002 C106.704,154.006002 108.024,152.730002 109.894,152.730002 C110.334,152.730002 110.774,152.774002 111.148,152.840002 C111.368,152.884002 111.5,152.796002 111.544,152.576002 L111.808,150.926002 C111.83,150.728002 111.764,150.596002 111.566,150.530002 C111.126,150.398002 110.488,150.310002 109.916,150.310002 C108.442,150.310002 107.188,150.882002 106.264,151.894002 C105.912,150.904002 104.966,150.310002 103.69,150.310002 C103.272,150.310002 102.766,150.398002 102.348,150.530002 C102.15,150.596002 102.084,150.728002 102.084,150.926002 L102.084,152.466002 C102.084,152.686002 102.26,152.752002 102.48,152.730002 C102.634,152.708002 102.942,152.664002 103.096,152.664002 C103.734,152.664002 104.02,152.928002 104.02,153.478002 L104.02,160.870002 C104.02,161.068002 104.152,161.200002 104.35,161.200002 L106.374,161.200002 Z M122.83,161.200002 C123.028,161.200002 123.16,161.068002 123.16,160.870002 L123.16,159.418002 C123.16,159.220002 123.028,159.088002 122.83,159.088002 L117.198,159.088002 L123.028,152.180002 C123.138,152.070002 123.182,151.916002 123.182,151.762002 L123.182,150.970002 C123.182,150.772002 123.05,150.640002 122.852,150.640002 L113.766,150.640002 C113.568,150.640002 113.436,150.772002 113.436,150.970002 L113.436,152.422002 C113.436,152.620002 113.568,152.752002 113.766,152.752002 L119.332,152.752002 L113.392,159.836002 C113.282,159.946002 113.238,160.100002 113.238,160.254002 L113.238,160.870002 C113.238,161.068002 113.37,161.200002 113.568,161.200002 L122.83,161.200002 Z M130.794,161.530002 C133.104,161.530002 135.062,160.452002 135.81,158.780002 C135.92,158.560002 135.788,158.406002 135.546,158.406002 L133.368,158.406002 C133.192,158.406002 133.082,158.472002 132.95,158.604002 C132.554,159.066002 131.762,159.374002 130.86,159.374002 C129.276,159.374002 128.044,158.450002 127.648,156.998002 L135.766,156.998002 C135.964,156.998002 136.096,156.910002 136.14,156.712002 C136.162,156.426002 136.184,156.118002 136.184,155.832002 C136.184,152.510002 133.962,150.310002 130.64,150.310002 C127.23,150.310002 124.942,152.554002 124.942,155.920002 C124.942,159.286002 127.296,161.530002 130.794,161.530002 Z M133.456,155.106002 L127.582,155.106002 C127.802,153.522002 129.056,152.466002 130.706,152.466002 C132.356,152.466002 133.412,153.566002 133.456,155.106002 Z M141.068,161.200002 C141.266,161.200002 141.398,161.068002 141.398,160.870002 L141.398,156.162002 L146.678,161.002002 C146.832,161.156002 146.898,161.200002 147.074,161.200002 L149.758,161.200002 C150.022,161.200002 150.176,161.002002 149.956,160.804002 L144.588,155.920002 L149.252,151.036002 C149.472,150.794002 149.384,150.640002 149.098,150.640002 L146.7,150.640002 C146.546,150.640002 146.414,150.662002 146.282,150.816002 L141.398,155.920002 L141.398,145.250002 C141.398,145.052002 141.266,144.920002 141.068,144.920002 L139.044,144.920002 C138.846,144.920002 138.714,145.052002 138.714,145.250002 L138.714,160.870002 C138.714,161.068002 138.846,161.200002 139.044,161.200002 L141.068,161.200002 Z M157.128,161.530002 C159.438,161.530002 161.396,160.452002 162.144,158.780002 C162.254,158.560002 162.122,158.406002 161.88,158.406002 L159.702,158.406002 C159.526,158.406002 159.416,158.472002 159.284,158.604002 C158.888,159.066002 158.096,159.374002 157.194,159.374002 C155.61,159.374002 154.378,158.450002 153.982,156.998002 L162.1,156.998002 C162.298,156.998002 162.43,156.910002 162.474,156.712002 C162.496,156.426002 162.518,156.118002 162.518,155.832002 C162.518,152.510002 160.296,150.310002 156.974,150.310002 C153.564,150.310002 151.276,152.554002 151.276,155.920002 C151.276,159.286002 153.63,161.530002 157.128,161.530002 Z M159.79,155.106002 L153.916,155.106002 C154.136,153.522002 155.39,152.466002 157.04,152.466002 C158.69,152.466002 159.746,153.566002 159.79,155.106002 Z M168.458,161.200002 C168.656,161.200002 168.788,161.068002 168.788,160.870002 L168.788,155.920002 C168.788,154.006002 170.108,152.730002 171.978,152.730002 C172.418,152.730002 172.858,152.774002 173.232,152.840002 C173.452,152.884002 173.584,152.796002 173.628,152.576002 L173.892,150.926002 C173.914,150.728002 173.848,150.596002 173.65,150.530002 C173.21,150.398002 172.572,150.310002 172,150.310002 C170.526,150.310002 169.272,150.882002 168.348,151.894002 C167.996,150.904002 167.05,150.310002 165.774,150.310002 C165.356,150.310002 164.85,150.398002 164.432,150.530002 C164.234,150.596002 164.168,150.728002 164.168,150.926002 L164.168,152.466002 C164.168,152.686002 164.344,152.752002 164.564,152.730002 C164.718,152.708002 165.026,152.664002 165.18,152.664002 C165.818,152.664002 166.104,152.928002 166.104,153.478002 L166.104,160.870002 C166.104,161.068002 166.236,161.200002 166.434,161.200002 L168.458,161.200002 Z M177.434,148.330002 C178.336,148.330002 179.106,147.648002 179.106,146.790002 C179.106,145.932002 178.336,145.250002 177.434,145.250002 C176.51,145.250002 175.762,145.932002 175.762,146.790002 C175.762,147.648002 176.51,148.330002 177.434,148.330002 Z M178.446,161.200002 C178.644,161.200002 178.776,161.068002 178.776,160.870002 L178.776,150.970002 C178.776,150.772002 178.644,150.640002 178.446,150.640002 L176.422,150.640002 C176.224,150.640002 176.092,150.772002 176.092,150.970002 L176.092,160.870002 C176.092,161.068002 176.224,161.200002 176.422,161.200002 L178.446,161.200002 Z M185.266,161.200002 C185.464,161.200002 185.596,161.068002 185.596,160.870002 L185.596,155.304002 C185.596,153.698002 186.762,152.620002 188.456,152.620002 C190.084,152.620002 191.162,153.764002 191.162,155.458002 L191.162,160.870002 C191.162,161.068002 191.294,161.200002 191.492,161.200002 L193.516,161.200002 C193.714,161.200002 193.846,161.068002 193.846,160.870002 L193.846,155.304002 C193.846,152.312002 191.91,150.310002 189.028,150.310002 C187.378,150.310002 186.014,150.816002 185.09,151.696002 C184.672,150.838002 183.77,150.310002 182.582,150.310002 C182.164,150.310002 181.658,150.376002 181.24,150.530002 C181.042,150.596002 180.976,150.728002 180.976,150.926002 L180.976,152.466002 C180.976,152.686002 181.152,152.752002 181.372,152.730002 C181.526,152.708002 181.834,152.664002 181.988,152.664002 C182.626,152.664002 182.912,152.928002 182.912,153.478002 L182.912,160.870002 C182.912,161.068002 183.044,161.200002 183.242,161.200002 L185.266,161.200002 Z M202.272,166.590002 C205.638,166.590002 207.882,164.522002 207.882,161.398002 L207.882,150.970002 C207.882,150.772002 207.75,150.640002 207.552,150.640002 L205.528,150.640002 C205.33,150.640002 205.198,150.772002 205.198,150.970002 L205.198,151.278002 C204.252,150.596002 203.174,150.310002 202.096,150.310002 C198.686,150.310002 196.266,152.642002 196.266,155.920002 C196.266,159.198002 198.686,161.530002 202.096,161.530002 C203.174,161.530002 204.252,161.244002 205.198,160.562002 L205.198,161.398002 C205.198,163.136002 204.032,164.280002 202.272,164.280002 C200.82,164.280002 199.698,163.620002 199.39,162.564002 C199.324,162.366002 199.214,162.278002 199.016,162.278002 L196.948,162.278002 C196.728,162.278002 196.596,162.410002 196.64,162.630002 C197.102,165.028002 199.302,166.590002 202.272,166.590002 Z M202.118,159.330002 C200.27,159.330002 198.95,157.922002 198.95,155.920002 C198.95,153.918002 200.27,152.510002 202.118,152.510002 C203.922,152.510002 205.198,153.918002 205.198,155.920002 C205.198,157.922002 203.922,159.330002 202.118,159.330002 Z" id="opuw(aanvullende)zorgverzekering" fill="#FFFFFF" fill-rule="nonzero"></path>
                <g id="Button-Copy" transform="translate(92.000000, 0.000000)">
                    <g id="Group" transform="translate(0.000000, 0.566415)">
                        <g id="Rectangle">
                            <use fill="black" fill-opacity="1" filter="url(#filter-2)" xlink:href="#path-1"></use>
                            <use fill="#F78E1E" fill-rule="evenodd" xlink:href="#path-1"></use>
                        </g>
                        <path d="M30.4903438,41.13585 C30.9924454,41.13585 31.285338,40.8429573 31.285338,40.3408557 L31.285338,12.6415828 C31.285338,12.1394812 30.9924454,11.8465886 30.4903438,11.8465886 L18.2725376,11.8465886 C17.8122778,11.8465886 17.6030688,12.0976394 17.6030688,12.5578992 L17.6030688,16.4491868 C17.6030688,16.9512884 17.9378032,17.1604974 18.4399048,17.1604974 L24.8835423,17.1604974 L24.8835423,40.3408557 C24.8835423,40.8429573 25.2182768,41.13585 25.7203784,41.13585 L30.4903438,41.13585 Z M49.2773129,41.8053188 C56.7669954,41.8053188 61.7880117,37.119037 61.7880117,30.0477724 L61.7880117,22.9346661 C61.7880117,15.8634016 56.7669954,11.1771197 49.2773129,11.1771197 C41.7457885,11.1771197 36.7666141,15.8634016 36.7666141,22.9346661 L36.7666141,30.0477724 C36.7666141,37.119037 41.7457885,41.8053188 49.2773129,41.8053188 Z M49.2773129,36.4077263 C45.5115507,36.4077263 43.0010426,33.8553764 43.0010426,30.0477724 L43.0010426,22.9346661 C43.0010426,19.1270621 45.5115507,16.5747122 49.2773129,16.5747122 C53.0012333,16.5747122 55.5117414,19.1270621 55.5117414,22.9346661 L55.5117414,30.0477724 C55.5117414,33.8553764 53.0012333,36.4077263 49.2773129,36.4077263 Z M75.6794899,27.8301569 C81.0770824,27.8301569 84.6754774,24.5246546 84.6754774,19.5036383 C84.6754774,14.4826221 81.0770824,11.1771197 75.6794899,11.1771197 C70.2818975,11.1771197 66.6835025,14.4826221 66.6835025,19.5036383 C66.6835025,24.5246546 70.2818975,27.8301569 75.6794899,27.8301569 Z M79.1523595,41.13585 C79.5707775,41.13585 79.8636701,41.0103246 80.1147209,40.6755901 L99.5711589,12.7671082 C99.9477351,12.2650066 99.6966843,11.8465886 99.0690572,11.8465886 L96.5585491,11.8465886 C96.1401311,11.8465886 95.8053967,11.972114 95.5961877,12.3068484 L76.1397498,40.2153303 C75.7631735,40.7174319 76.0142243,41.13585 76.6000096,41.13585 L79.1523595,41.13585 Z M75.6794899,23.8551857 C72.917931,23.8551857 71.0768917,22.0978301 71.0768917,19.5036383 C71.0768917,16.9094466 72.917931,15.1520909 75.6794899,15.1520909 C78.4410489,15.1520909 80.2820881,16.9094466 80.2820881,19.5036383 C80.2820881,22.0978301 78.4410489,23.8551857 75.6794899,23.8551857 Z M100.031419,41.8053188 C105.387169,41.8053188 108.985564,38.4998164 108.985564,33.4788002 C108.985564,28.457784 105.387169,25.1522816 100.031419,25.1522816 C94.6338262,25.1522816 91.0354313,28.457784 91.0354313,33.4788002 C91.0354313,38.4998164 94.6338262,41.8053188 100.031419,41.8053188 Z M100.031419,37.8303476 C97.2280179,37.8303476 95.3869787,36.0729919 95.3869787,33.4788002 C95.3869787,30.8846085 97.2280179,29.1272528 100.031419,29.1272528 C102.792978,29.1272528 104.634017,30.8846085 104.634017,33.4788002 C104.634017,36.0729919 102.792978,37.8303476 100.031419,37.8303476 Z" id="10%" fill="#FFFFFF" fill-rule="nonzero"></path>
                    </g>
                </g>
                <path d="M42.1591514,93 C42.6194112,93 42.9123038,92.7071074 42.9123038,92.2050058 L42.9123038,83.501911 L51.6572404,92.5397402 C51.950133,92.8744746 52.1593421,93 52.5777601,93 L58.519296,93 C59.146923,93 59.4398156,92.581582 59.0213976,92.0794804 L50.0254102,82.8742839 L57.8498271,73.6690875 C58.3100869,73.0833023 58.1427197,72.706726 57.4732509,72.706726 L52.1593421,72.706726 C51.7827658,72.706726 51.4480314,72.7904096 51.1969806,73.1251441 L42.9123038,82.8742839 L42.9123038,62.8320608 C42.9123038,62.3299592 42.6194112,62.0370665 42.1591514,62.0370665 L37.389186,62.0370665 C36.9289261,62.0370665 36.6360335,62.3299592 36.6360335,62.8320608 L36.6360335,92.2050058 C36.6360335,92.7071074 36.9289261,93 37.389186,93 L42.1591514,93 Z M72.661825,93.6694688 C79.5657223,93.6694688 84.1683206,89.3597632 84.1683206,82.8742839 C84.1683206,76.3469628 79.5657223,72.0372572 72.661825,72.0372572 C65.7579277,72.0372572 61.1553295,76.3469628 61.1553295,82.8742839 C61.1553295,89.3597632 65.7579277,93.6694688 72.661825,93.6694688 Z M72.661825,88.4810854 C69.3563227,88.4810854 67.1387072,86.2634699 67.1387072,82.8742839 C67.1387072,79.485098 69.3563227,77.2256407 72.661825,77.2256407 C75.9673274,77.2256407 78.1849429,79.485098 78.1849429,82.8742839 C78.1849429,86.2634699 75.9673274,88.4810854 72.661825,88.4810854 Z M95.8003415,93 C96.3024431,93 96.5953357,92.7071074 96.5953357,92.2050058 L96.5953357,83.2090183 C96.5953357,79.7779906 98.9384767,77.7695841 102.118454,77.7695841 C102.913448,77.7695841 103.792126,77.8532677 104.419753,77.9787931 C104.921854,78.0624767 105.256589,77.8532677 105.340272,77.3511661 L105.884216,73.3343531 C105.926058,72.8740933 105.75869,72.5393588 105.256589,72.4138334 C104.503436,72.1627826 103.373708,72.0372572 102.369504,72.0372572 C99.6079455,72.0372572 97.2229628,73.0414605 95.5492907,74.8824997 C94.7542965,73.1251441 92.9132572,72.0372572 90.4864327,72.0372572 C89.5240712,72.0372572 88.4361844,72.2046244 87.4738229,72.5393588 C87.0135631,72.706726 86.8461959,72.9577769 86.8461959,73.4598785 L86.8461959,76.8909062 C86.8461959,77.4348497 87.2227721,77.5603751 87.7667155,77.5603751 C88.0177663,77.5185333 88.4361844,77.4348497 88.6872352,77.4348497 C89.8588056,77.4348497 90.3190655,77.9369513 90.3190655,79.0666799 L90.3190655,92.2050058 C90.3190655,92.7071074 90.6119581,93 91.1140597,93 L95.8003415,93 Z M120.654372,93.6694688 C121.951468,93.6694688 123.876191,93.418418 125.549863,93 C126.051964,92.8326328 126.219332,92.5397402 126.17749,92.0794804 L125.633546,88.4810854 C125.549863,88.0208256 125.215128,87.7697748 124.713027,87.8534584 C123.708823,88.1045092 122.495411,88.2300346 121.574892,88.2300346 C119.482801,88.2300346 118.102022,86.9329387 118.102022,84.7990068 L118.102022,77.7695841 L124.671185,77.7695841 C125.131445,77.7695841 125.466179,77.4766915 125.466179,76.9745898 L125.466179,73.5017203 C125.466179,72.9996187 125.131445,72.706726 124.671185,72.706726 L118.102022,72.706726 L118.102022,67.3928172 C118.102022,66.8907156 117.809129,66.597823 117.307028,66.597823 L112.620746,66.597823 C112.118644,66.597823 111.825752,66.8907156 111.825752,67.3928172 L111.825752,72.706726 L107.976306,72.706726 C107.474204,72.706726 107.181312,72.9996187 107.181312,73.5017203 L107.181312,76.9745898 C107.181312,77.4766915 107.474204,77.7695841 107.976306,77.7695841 L111.825752,77.7695841 L111.825752,85.0082158 C111.825752,90.3639665 115.214938,93.6694688 120.654372,93.6694688 Z M133.039545,68.9828057 C135.131635,68.9828057 136.763466,67.4765008 136.763466,65.5099361 C136.763466,63.5433714 135.131635,62.0789083 133.039545,62.0789083 C130.947455,62.0789083 129.315625,63.5433714 129.315625,65.5099361 C129.315625,67.4765008 130.947455,68.9828057 133.039545,68.9828057 Z M135.382686,93 C135.884788,93 136.17768,92.7071074 136.17768,92.2050058 L136.17768,73.5017203 C136.17768,72.9996187 135.884788,72.706726 135.382686,72.706726 L130.696404,72.706726 C130.194303,72.706726 129.90141,72.9996187 129.90141,73.5017203 L129.90141,92.2050058 C129.90141,92.7071074 130.194303,93 130.696404,93 L135.382686,93 Z M148.813905,93 C149.316006,93 149.608899,92.7071074 149.608899,92.2050058 L149.608899,81.9119225 C149.608899,79.1503635 151.49178,77.3930079 154.253339,77.3930079 C156.931214,77.3930079 158.646728,79.275889 158.646728,82.1211315 L158.646728,92.2050058 C158.646728,92.7071074 158.981462,93 159.483564,93 L164.169846,93 C164.671948,93 164.96484,92.7071074 164.96484,92.2050058 L164.96484,81.2842954 C164.96484,75.7193358 161.324603,72.0372572 155.843327,72.0372572 C152.788876,72.0372572 150.194684,72.9996187 148.521012,74.6732907 C147.642334,73.0414605 145.843137,72.0372572 143.499996,72.0372572 C142.537634,72.0372572 141.449747,72.1627826 140.487386,72.5393588 C140.027126,72.706726 139.859759,72.9577769 139.859759,73.4598785 L139.859759,76.8909062 C139.859759,77.4348497 140.236335,77.5603751 140.780279,77.5603751 C141.031329,77.5185333 141.449747,77.4348497 141.700798,77.4348497 C142.872369,77.4348497 143.332629,77.9369513 143.332629,79.0666799 L143.332629,92.2050058 C143.332629,92.7071074 143.625521,93 144.127623,93 L148.813905,93 Z M180.948409,103.418609 C187.643097,103.418609 192.162011,99.4436375 192.162011,93.5021016 L192.162011,73.5017203 C192.162011,72.9996187 191.827277,72.706726 191.367017,72.706726 L186.764419,72.706726 C186.262317,72.706726 185.969425,72.9996187 185.969425,73.5017203 L185.969425,73.9619801 C184.295753,72.6648842 182.245504,72.0372572 180.027889,72.0372572 C173.584251,72.0372572 169.023495,76.51433 169.023495,82.7906003 C169.023495,89.1087124 173.584251,93.5857852 180.027889,93.5857852 C182.119979,93.5857852 184.170227,93.0418418 185.843899,91.7865877 L185.843899,93.5439434 C185.843899,96.4310278 183.919176,98.3139089 180.906567,98.3139089 C178.479742,98.3139089 176.638703,97.2678638 176.094759,95.5941917 C175.88555,95.1757737 175.6345,94.9665647 175.17424,94.9665647 L170.487958,94.9665647 C169.944015,94.9665647 169.60928,95.2594573 169.734806,95.7615589 C170.571642,100.405999 174.923189,103.418609 180.948409,103.418609 Z M180.571832,88.6484526 C177.433697,88.6484526 175.17424,86.2634699 175.17424,82.7906003 C175.17424,79.3595726 177.433697,76.932748 180.571832,76.932748 C183.668126,76.932748 185.843899,79.3595726 185.843899,82.7906003 C185.843899,86.2634699 183.668126,88.6484526 180.571832,88.6484526 Z" id="korting" fill="#FFFFFF" fill-rule="nonzero"></path>
                <path d="M25.8204044,45 C26.2806642,45 26.6153986,44.7071074 26.6153986,44.2050058 L26.6153986,21.2756983 L35.7787533,21.2756983 C36.2808549,21.2756983 36.5737475,20.9828057 36.5737475,20.480704 L36.5737475,16.5057329 C36.5737475,16.0036312 36.2808549,15.7107386 35.7787533,15.7107386 L10.8828811,15.7107386 C10.4226213,15.7107386 10.0878869,16.0036312 10.0878869,16.5057329 L10.0878869,20.480704 C10.0878869,20.9828057 10.4226213,21.2756983 10.8828811,21.2756983 L20.0462357,21.2756983 L20.0462357,44.2050058 C20.0462357,44.7071074 20.3809701,45 20.84123,45 L25.8204044,45 Z M50.841802,45.6694688 C57.7456993,45.6694688 62.3482975,41.3597632 62.3482975,34.8742839 C62.3482975,28.3469628 57.7456993,24.0372572 50.841802,24.0372572 C43.9379046,24.0372572 39.3353064,28.3469628 39.3353064,34.8742839 C39.3353064,41.3597632 43.9379046,45.6694688 50.841802,45.6694688 Z M50.841802,40.4810854 C47.5362996,40.4810854 45.3186841,38.2634699 45.3186841,34.8742839 C45.3186841,31.485098 47.5362996,29.2256407 50.841802,29.2256407 C54.1473043,29.2256407 56.3649198,31.485098 56.3649198,34.8742839 C56.3649198,38.2634699 54.1473043,40.4810854 50.841802,40.4810854 Z M77.662397,45.6694688 C78.9594929,45.6694688 80.8842158,45.418418 82.5578879,45 C83.0599895,44.8326328 83.2273567,44.5397402 83.1855149,44.0794804 L82.6415715,40.4810854 C82.5578879,40.0208256 82.2231534,39.7697748 81.7210518,39.8534584 C80.7168486,40.1045092 79.5034363,40.2300346 78.5829167,40.2300346 C76.4908266,40.2300346 75.1100471,38.9329387 75.1100471,36.7990068 L75.1100471,29.7695841 L81.67921,29.7695841 C82.1394698,29.7695841 82.4742043,29.4766915 82.4742043,28.9745898 L82.4742043,25.5017203 C82.4742043,24.9996187 82.1394698,24.706726 81.67921,24.706726 L75.1100471,24.706726 L75.1100471,19.3928172 C75.1100471,18.8907156 74.8171545,18.597823 74.3150529,18.597823 L69.6287711,18.597823 C69.1266694,18.597823 68.8337768,18.8907156 68.8337768,19.3928172 L68.8337768,24.706726 L64.984331,24.706726 C64.4822294,24.706726 64.1893368,24.9996187 64.1893368,25.5017203 L64.1893368,28.9745898 C64.1893368,29.4766915 64.4822294,29.7695841 64.984331,29.7695841 L68.8337768,29.7695841 L68.8337768,37.0082158 C68.8337768,42.3639665 72.2229628,45.6694688 77.662397,45.6694688 Z" id="Tot" fill="#FFFFFF" fill-rule="nonzero"></path>
            </g>
        </g>
    </g>
</svg>