<?xml version="1.0" encoding="UTF-8"?>
<svg width="141px" height="71px" viewBox="0 0 141 71" version="1.1" xmlns="http://www.w3.org/2000/svg" xmlns:xlink="http://www.w3.org/1999/xlink">
    <title>Text Copy</title>
    <defs>
        <rect id="path-1" x="0" y="0" width="83" height="33.7155033" rx="16.8577516"></rect>
        <filter x="-5.4%" y="-13.3%" width="110.8%" height="126.7%" filterUnits="objectBoundingBox" id="filter-2">
            <feOffset dx="0" dy="0" in="SourceAlpha" result="shadowOffsetOuter1"></feOffset>
            <feGaussianBlur stdDeviation="1.5" in="shadowOffsetOuter1" result="shadowBlurOuter1"></feGaussianBlur>
            <feColorMatrix values="0 0 0 0 0   0 0 0 0 0.368045807   0 0 0 0 0.361608624  0 0 0 0.5 0" type="matrix" in="shadowBlurOuter1"></feColorMatrix>
        </filter>
    </defs>
    <g id="HTML5-banners" stroke="none" stroke-width="1" fill="none" fill-rule="evenodd">
        <g id="160x600px_1" transform="translate(-14.000000, -236.000000)">
            <g id="Text-Copy" transform="translate(14.141171, 239.000000)">
                <g id="Button-Copy" transform="translate(54.000000, 0.000000)">
                    <g id="Group" transform="translate(0.000000, 0.143449)">
                        <g id="Rectangle">
                            <use fill="black" fill-opacity="1" filter="url(#filter-2)" xlink:href="#path-1"></use>
                            <use fill="#F78E1E" fill-rule="evenodd" xlink:href="#path-1"></use>
                        </g>
                        <path d="M19.6413388,26.0883025 C19.9677049,26.0883025 20.1580851,25.8979223 20.1580851,25.5715562 L20.1580851,7.56702782 C20.1580851,7.24066174 19.9677049,7.05028153 19.6413388,7.05028153 L11.6997644,7.05028153 C11.4005955,7.05028153 11.2646096,7.21346457 11.2646096,7.51263347 L11.2646096,10.0419705 C11.2646096,10.3683366 11.482187,10.5043225 11.8085531,10.5043225 L15.9969177,10.5043225 L15.9969177,25.5715562 C15.9969177,25.8979223 16.2144951,26.0883025 16.5408611,26.0883025 L19.6413388,26.0883025 Z M31.8528694,26.5234572 C36.7211633,26.5234572 39.9848241,23.4773739 39.9848241,18.8810517 L39.9848241,14.2575323 C39.9848241,9.66121012 36.7211633,6.61512677 31.8528694,6.61512677 C26.9573783,6.61512677 23.7209148,9.66121012 23.7209148,14.2575323 L23.7209148,18.8810517 C23.7209148,23.4773739 26.9573783,26.5234572 31.8528694,26.5234572 Z M31.8528694,23.015022 C29.4051239,23.015022 27.7732935,21.3559944 27.7732935,18.8810517 L27.7732935,14.2575323 C27.7732935,11.7825896 29.4051239,10.1235621 31.8528694,10.1235621 C34.2734178,10.1235621 35.9052482,11.7825896 35.9052482,14.2575323 L35.9052482,18.8810517 C35.9052482,21.3559944 34.2734178,23.015022 31.8528694,23.015022 Z M49.0142854,17.4396015 C52.5227207,17.4396015 54.8616776,15.2910249 54.8616776,12.0273642 C54.8616776,8.76370342 52.5227207,6.61512677 49.0142854,6.61512677 C45.5058501,6.61512677 43.1668933,8.76370342 43.1668933,12.0273642 C43.1668933,15.2910249 45.5058501,17.4396015 49.0142854,17.4396015 Z M51.2716508,26.0883025 C51.5436225,26.0883025 51.7340027,26.006711 51.8971858,25.7891336 L64.5438711,7.64861934 C64.7886456,7.32225326 64.6254626,7.05028153 64.217505,7.05028153 L62.5856747,7.05028153 C62.3137029,7.05028153 62.0961255,7.13187305 61.9601397,7.34945044 L49.3134543,25.4899647 C49.0686798,25.8163308 49.2318628,26.0883025 49.6126232,26.0883025 L51.2716508,26.0883025 Z M49.0142854,14.8558701 C47.219272,14.8558701 46.0225964,13.7135889 46.0225964,12.0273642 C46.0225964,10.3411394 47.219272,9.19885818 49.0142854,9.19885818 C50.8092988,9.19885818 52.0059744,10.3411394 52.0059744,12.0273642 C52.0059744,13.7135889 50.8092988,14.8558701 49.0142854,14.8558701 Z M64.84304,26.5234572 C68.3242781,26.5234572 70.663235,24.3748806 70.663235,21.1112199 C70.663235,17.8475591 68.3242781,15.6989825 64.84304,15.6989825 C61.3346047,15.6989825 58.9956478,17.8475591 58.9956478,21.1112199 C58.9956478,24.3748806 61.3346047,26.5234572 64.84304,26.5234572 Z M64.84304,23.9397258 C63.0208294,23.9397258 61.8241538,22.7974446 61.8241538,21.1112199 C61.8241538,19.4249951 63.0208294,18.2827139 64.84304,18.2827139 C66.6380534,18.2827139 67.834729,19.4249951 67.834729,21.1112199 C67.834729,22.7974446 66.6380534,23.9397258 64.84304,23.9397258 Z" id="10%" fill="#FFFFFF" fill-rule="nonzero"></path>
                    </g>
                </g>
                <path d="M18.3034487,61 C18.6026176,61 18.7929978,60.8096198 18.7929978,60.4832537 L18.7929978,54.8262418 L24.4772069,60.7008311 C24.6675871,60.9184085 24.803573,61 25.0755447,61 L28.9375432,61 C29.3455008,61 29.535881,60.7280283 29.2639093,60.4016622 L23.4165172,54.4182842 L28.5023885,48.4349062 C28.8015574,48.0541458 28.6927687,47.8093712 28.2576139,47.8093712 L24.803573,47.8093712 C24.5587984,47.8093712 24.341221,47.8637655 24.178038,48.0813429 L18.7929978,54.4182842 L18.7929978,41.3908384 C18.7929978,41.0644724 18.6026176,40.8740921 18.3034487,40.8740921 L15.202971,40.8740921 C14.9038021,40.8740921 14.7134219,41.0644724 14.7134219,41.3908384 L14.7134219,60.4832537 C14.7134219,60.8096198 14.9038021,61 15.202971,61 L18.3034487,61 Z M38.1301876,61.4351548 C42.6177212,61.4351548 45.6094102,58.633846 45.6094102,54.4182842 C45.6094102,50.1755252 42.6177212,47.3742164 38.1301876,47.3742164 C33.6426541,47.3742164 30.6509651,50.1755252 30.6509651,54.4182842 C30.6509651,58.633846 33.6426541,61.4351548 38.1301876,61.4351548 Z M38.1301876,58.0627053 C35.981611,58.0627053 34.5401608,56.6212552 34.5401608,54.4182842 C34.5401608,52.2153132 35.981611,50.7466659 38.1301876,50.7466659 C40.2787643,50.7466659 41.7202145,52.2153132 41.7202145,54.4182842 C41.7202145,56.6212552 40.2787643,58.0627053 38.1301876,58.0627053 Z M53.1702242,61 C53.4965903,61 53.6869705,60.8096198 53.6869705,60.4832537 L53.6869705,54.6358616 C53.6869705,52.4056934 55.2100122,51.1002291 57.2769973,51.1002291 C57.7937436,51.1002291 58.3648842,51.1546235 58.7728418,51.236215 C59.0992079,51.2906093 59.3167852,51.1546235 59.3711796,50.8282574 L59.7247428,48.2173288 C59.75194,47.9181599 59.6431513,47.7005825 59.3167852,47.618991 C58.8272361,47.455808 58.0929125,47.3742164 57.4401803,47.3742164 C55.6451669,47.3742164 54.0949281,48.0269486 53.0070412,49.2236242 C52.4902949,48.0813429 51.2936193,47.3742164 49.7161833,47.3742164 C49.0906483,47.3742164 48.3835218,47.4830051 47.7579868,47.7005825 C47.4588179,47.8093712 47.3500292,47.9725542 47.3500292,48.2989203 L47.3500292,50.5290885 C47.3500292,50.8826517 47.5948038,50.9642432 47.948367,50.9642432 C48.1115501,50.9370461 48.3835218,50.8826517 48.5467048,50.8826517 C49.3082257,50.8826517 49.6073946,51.2090178 49.6073946,51.9433415 L49.6073946,60.4832537 C49.6073946,60.8096198 49.7977748,61 50.1241408,61 L53.1702242,61 Z M69.3253448,61.4351548 C70.1684572,61.4351548 71.4195271,61.2719717 72.507414,61 C72.8337801,60.8912113 72.9425688,60.7008311 72.9153716,60.4016622 L72.5618084,58.0627053 C72.507414,57.7635364 72.2898367,57.6003534 71.9634706,57.6547477 C71.3107384,57.8179308 70.5220204,57.8995223 69.9236826,57.8995223 C68.563824,57.8995223 67.6663173,57.0564099 67.6663173,55.6693541 L67.6663173,51.1002291 L71.9362734,51.1002291 C72.2354423,51.1002291 72.4530197,50.9098489 72.4530197,50.5834828 L72.4530197,48.3261175 C72.4530197,47.9997514 72.2354423,47.8093712 71.9362734,47.8093712 L67.6663173,47.8093712 L67.6663173,44.3553303 C67.6663173,44.0289642 67.4759371,43.838584 67.149571,43.838584 L64.1034876,43.838584 C63.7771216,43.838584 63.5867414,44.0289642 63.5867414,44.3553303 L63.5867414,47.8093712 L61.0846015,47.8093712 C60.7582354,47.8093712 60.5678552,47.9997514 60.5678552,48.3261175 L60.5678552,50.5834828 C60.5678552,50.9098489 60.7582354,51.1002291 61.0846015,51.1002291 L63.5867414,51.1002291 L63.5867414,55.80534 C63.5867414,59.2865781 65.7897124,61.4351548 69.3253448,61.4351548 Z M77.375708,45.3888228 C78.7355666,45.3888228 79.7962563,44.4097246 79.7962563,43.1314575 C79.7962563,41.8531904 78.7355666,40.9012893 77.375708,40.9012893 C76.0158493,40.9012893 74.9551596,41.8531904 74.9551596,43.1314575 C74.9551596,44.4097246 76.0158493,45.3888228 77.375708,45.3888228 Z M78.8987496,61 C79.2251157,61 79.4154959,60.8096198 79.4154959,60.4832537 L79.4154959,48.3261175 C79.4154959,47.9997514 79.2251157,47.8093712 78.8987496,47.8093712 L75.8526663,47.8093712 C75.5263002,47.8093712 75.33592,47.9997514 75.33592,48.3261175 L75.33592,60.4832537 C75.33592,60.8096198 75.5263002,61 75.8526663,61 L78.8987496,61 Z M87.6290421,61 C87.9554082,61 88.1457884,60.8096198 88.1457884,60.4832537 L88.1457884,53.7927492 C88.1457884,51.9977358 89.3696612,50.8554546 91.1646746,50.8554546 C92.9052936,50.8554546 94.0203777,52.0793273 94.0203777,53.9287351 L94.0203777,60.4832537 C94.0203777,60.8096198 94.2379551,61 94.5643212,61 L97.6104045,61 C97.9367706,61 98.1271508,60.8096198 98.1271508,60.4832537 L98.1271508,53.3847916 C98.1271508,49.7675676 95.7609968,47.3742164 92.1981671,47.3742164 C90.2127735,47.3742164 88.5265488,47.9997514 87.4386619,49.0876383 C86.8675213,48.0269486 85.6980428,47.3742164 84.1750012,47.3742164 C83.5494662,47.3742164 82.8423397,47.455808 82.2168047,47.7005825 C81.9176358,47.8093712 81.8088471,47.9725542 81.8088471,48.2989203 L81.8088471,50.5290885 C81.8088471,50.8826517 82.0536217,50.9642432 82.4071849,50.9642432 C82.570368,50.9370461 82.8423397,50.8826517 83.0055227,50.8826517 C83.7670436,50.8826517 84.0662125,51.2090178 84.0662125,51.9433415 L84.0662125,60.4832537 C84.0662125,60.8096198 84.2565927,61 84.5829588,61 L87.6290421,61 Z M108.516471,67.772096 C112.868018,67.772096 115.805313,65.1883646 115.805313,61.3263661 L115.805313,48.3261175 C115.805313,47.9997514 115.587736,47.8093712 115.288567,47.8093712 L112.296878,47.8093712 C111.970512,47.8093712 111.780132,47.9997514 111.780132,48.3261175 L111.780132,48.6252864 C110.692245,47.782174 109.359583,47.3742164 107.918133,47.3742164 C103.729768,47.3742164 100.765277,50.2843139 100.765277,54.3638898 C100.765277,58.4706629 103.729768,61.3807604 107.918133,61.3807604 C109.277992,61.3807604 110.610653,61.0271972 111.69854,60.211282 L111.69854,61.3535632 C111.69854,63.2301682 110.44747,64.4540409 108.489274,64.4540409 C106.911838,64.4540409 105.715162,63.7741116 105.361599,62.6862247 C105.225613,62.414253 105.06243,62.2782671 104.763261,62.2782671 L101.717178,62.2782671 C101.363614,62.2782671 101.146037,62.4686473 101.227628,62.7950134 C101.771572,65.8138996 104.600078,67.772096 108.516471,67.772096 Z M108.271696,58.171494 C106.231908,58.171494 104.763261,56.6212552 104.763261,54.3638898 C104.763261,52.1337217 106.231908,50.5562857 108.271696,50.5562857 C110.284287,50.5562857 111.69854,52.1337217 111.69854,54.3638898 C111.69854,56.6212552 110.284287,58.171494 108.271696,58.171494 Z" id="korting" fill="#FFFFFF" fill-rule="nonzero"></path>
                <path d="M10.7920929,26 C11.0912618,26 11.3088392,25.8096198 11.3088392,25.4832537 L11.3088392,10.579203 L17.26502,10.579203 C17.5913861,10.579203 17.7817663,10.3888228 17.7817663,10.0624568 L17.7817663,7.47872534 C17.7817663,7.15235926 17.5913861,6.96197906 17.26502,6.96197906 L1.08270221,6.96197906 C0.783533305,6.96197906 0.565955923,7.15235926 0.565955923,7.47872534 L0.565955923,10.0624568 C0.565955923,10.3888228 0.783533305,10.579203 1.08270221,10.579203 L7.03888304,10.579203 L7.03888304,25.4832537 C7.03888304,25.8096198 7.25646043,26 7.55562933,26 L10.7920929,26 Z M27.0560022,26.4351548 C31.5435357,26.4351548 34.5352247,23.633846 34.5352247,19.4182842 C34.5352247,15.1755252 31.5435357,12.3742164 27.0560022,12.3742164 C22.5684687,12.3742164 19.5767797,15.1755252 19.5767797,19.4182842 C19.5767797,23.633846 22.5684687,26.4351548 27.0560022,26.4351548 Z M27.0560022,23.0627053 C24.9074256,23.0627053 23.4659754,21.6212552 23.4659754,19.4182842 C23.4659754,17.2153132 24.9074256,15.7466659 27.0560022,15.7466659 C29.2045789,15.7466659 30.646029,17.2153132 30.646029,19.4182842 C30.646029,21.6212552 29.2045789,23.0627053 27.0560022,23.0627053 Z M44.48939,26.4351548 C45.3325023,26.4351548 46.5835723,26.2719717 47.6714592,26 C47.9978252,25.8912113 48.1066139,25.7008311 48.0794168,25.4016622 L47.7258535,23.0627053 C47.6714592,22.7635364 47.4538818,22.6003534 47.1275157,22.6547477 C46.4747836,22.8179308 45.6860656,22.8995223 45.0877278,22.8995223 C43.7278691,22.8995223 42.8303624,22.0564099 42.8303624,20.6693541 L42.8303624,16.1002291 L47.1003185,16.1002291 C47.3994874,16.1002291 47.6170648,15.9098489 47.6170648,15.5834828 L47.6170648,13.3261175 C47.6170648,12.9997514 47.3994874,12.8093712 47.1003185,12.8093712 L42.8303624,12.8093712 L42.8303624,9.35533026 C42.8303624,9.02896419 42.6399822,8.83858398 42.3136161,8.83858398 L39.2675328,8.83858398 C38.9411667,8.83858398 38.7507865,9.02896419 38.7507865,9.35533026 L38.7507865,12.8093712 L36.2486466,12.8093712 C35.9222805,12.8093712 35.7319003,12.9997514 35.7319003,13.3261175 L35.7319003,15.5834828 C35.7319003,15.9098489 35.9222805,16.1002291 36.2486466,16.1002291 L38.7507865,16.1002291 L38.7507865,20.80534 C38.7507865,24.2865781 40.9537575,26.4351548 44.48939,26.4351548 Z" id="Tot" fill="#FFFFFF" fill-rule="nonzero"></path>
            </g>
        </g>
    </g>
</svg>