<?xml version="1.0" encoding="UTF-8"?>
<svg width="113px" height="132px" viewBox="0 0 113 132" version="1.1" xmlns="http://www.w3.org/2000/svg" xmlns:xlink="http://www.w3.org/1999/xlink">
    <title>Text Copy</title>
    <defs>
        <rect id="path-1" x="0" y="0" width="105.743004" height="33.7155033" rx="16.8577516"></rect>
        <filter x="-4.3%" y="-13.3%" width="108.5%" height="126.7%" filterUnits="objectBoundingBox" id="filter-2">
            <feOffset dx="0" dy="0" in="SourceAlpha" result="shadowOffsetOuter1"></feOffset>
            <feGaussianBlur stdDeviation="1.5" in="shadowOffsetOuter1" result="shadowBlurOuter1"></feGaussianBlur>
            <feColorMatrix values="0 0 0 0 0   0 0 0 0 0.368045807   0 0 0 0 0.361608624  0 0 0 0.5 0" type="matrix" in="shadowBlurOuter1"></feColorMatrix>
        </filter>
    </defs>
    <g id="HTML5-banners" stroke="none" stroke-width="1" fill="none" fill-rule="evenodd">
        <g id="120x600px_2" transform="translate(-4.000000, -242.000000)">
            <g id="Text-Copy" transform="translate(7.000000, 245.000000)">
                <g id="Button-Copy" transform="translate(0.628498, 0.000000)">
                    <g id="Group" transform="translate(0.000000, 0.143449)">
                        <g id="Rectangle">
                            <use fill="black" fill-opacity="1" filter="url(#filter-2)" xlink:href="#path-1"></use>
                            <use fill="#F78E1E" fill-rule="evenodd" xlink:href="#path-1"></use>
                        </g>
                        <path d="M22.3808522,23.3685852 C22.6800211,23.3685852 22.8704014,23.178205 22.8704014,22.8790361 L22.8704014,18.7450658 L27.4939207,18.7450658 C27.7930896,18.7450658 27.9834698,18.5546856 27.9834698,18.2283195 L27.9834698,16.1341372 C27.9834698,15.8077712 27.7930896,15.617391 27.4939207,15.617391 L22.8704014,15.617391 L22.8704014,11.4834207 C22.8704014,11.1842518 22.6800211,10.9938716 22.3808522,10.9938716 L19.9331067,10.9938716 C19.6339378,10.9938716 19.4435576,11.1842518 19.4435576,11.4834207 L19.4435576,15.617391 L14.8200382,15.617391 C14.5208693,15.617391 14.3032919,15.8077712 14.3032919,16.1341372 L14.3032919,18.2283195 C14.3032919,18.5546856 14.5208693,18.7450658 14.8200382,18.7450658 L19.4435576,18.7450658 L19.4435576,22.8790361 C19.4435576,23.178205 19.6339378,23.3685852 19.9331067,23.3685852 L22.3808522,23.3685852 Z M41.3372817,26.0883025 C41.6092534,26.0883025 41.8268308,25.9795138 41.9084223,25.6803449 L46.0151954,13.740786 L50.1763628,25.6803449 C50.2579543,25.9795138 50.4755317,26.0883025 50.7475034,26.0883025 L53.983967,26.0883025 C54.2559387,26.0883025 54.4735161,25.9795138 54.5823048,25.6803449 L60.6744715,7.62142216 C60.756063,7.29505609 60.6200772,7.05028153 60.2393167,7.05028153 L56.7852758,7.05028153 C56.5133041,7.05028153 56.2957267,7.15907023 56.2141352,7.45823913 L52.243348,19.8057556 L47.9189975,7.56702782 C47.8102088,7.26785892 47.6198286,7.15907023 47.3478569,7.15907023 L44.7097311,7.15907023 C44.4105622,7.15907023 44.220182,7.26785892 44.1113933,7.56702782 L39.81424,19.7785584 L35.8434528,7.45823913 C35.7618612,7.15907023 35.5442839,7.05028153 35.2723121,7.05028153 L31.8454684,7.05028153 C31.464708,7.05028153 31.3015249,7.29505609 31.4103136,7.62142216 L37.5024803,25.6803449 C37.5840718,25.9795138 37.8016492,26.0883025 38.0736209,26.0883025 L41.3372817,26.0883025 Z M72.2604671,26.0883025 C72.5868332,26.0883025 72.8044106,25.8979223 72.8044106,25.5715562 L72.8044106,22.9878248 C72.8044106,22.6614587 72.5868332,22.4710785 72.2604671,22.4710785 L69.567947,22.4710785 L69.567947,10.6675055 L72.2604671,10.6675055 C72.5868332,10.6675055 72.8044106,10.4771253 72.8044106,10.1507592 L72.8044106,7.56702782 C72.8044106,7.24066174 72.5868332,7.05028153 72.2604671,7.05028153 L62.6054708,7.05028153 C62.2791047,7.05028153 62.0887245,7.24066174 62.0887245,7.56702782 L62.0887245,10.1507592 C62.0887245,10.4771253 62.2791047,10.6675055 62.6054708,10.6675055 L65.2979909,10.6675055 L65.2979909,22.4710785 L62.6054708,22.4710785 C62.2791047,22.4710785 62.0887245,22.6614587 62.0887245,22.9878248 L62.0887245,25.5715562 C62.0887245,25.8979223 62.2791047,26.0883025 62.6054708,26.0883025 L72.2604671,26.0883025 Z M79.1141547,26.0883025 C79.4405207,26.0883025 79.6309009,25.8979223 79.6309009,25.5715562 L79.6309009,14.4207154 L89.4218831,25.8163308 C89.5850662,26.006711 89.8026436,26.0883025 90.0474181,26.0883025 L92.5767552,26.0883025 C92.8759241,26.0883025 93.0935015,25.8979223 93.0935015,25.5715562 L93.0935015,7.56702782 C93.0935015,7.24066174 92.8759241,7.05028153 92.5767552,7.05028153 L89.3402916,7.05028153 C89.0411227,7.05028153 88.8235453,7.24066174 88.8235453,7.56702782 L88.8235453,18.9898404 L78.9509716,7.32225326 C78.7877886,7.13187305 78.5974084,7.05028153 78.3254366,7.05028153 L75.9048883,7.05028153 C75.5785222,7.05028153 75.3609448,7.24066174 75.3609448,7.56702782 L75.3609448,25.5715562 C75.3609448,25.8979223 75.5785222,26.0883025 75.9048883,26.0883025 L79.1141547,26.0883025 Z" id="+WIN" fill="#FFFFFF" fill-rule="nonzero"></path>
                    </g>
                </g>
                <path d="M18.22,111.27 C20.506,111.27 22.198,110.046 22.576,108.174 C22.612,107.994 22.522,107.886 22.342,107.886 L20.632,107.886 C20.47,107.886 20.398,107.958 20.344,108.12 C20.092,108.894 19.264,109.398 18.22,109.398 C16.654,109.398 15.628,108.318 15.628,106.68 C15.628,105.042 16.654,103.962 18.22,103.962 C19.264,103.962 20.092,104.466 20.344,105.24 C20.398,105.402 20.47,105.474 20.632,105.474 L22.342,105.474 C22.522,105.474 22.612,105.366 22.576,105.186 C22.198,103.314 20.506,102.09 18.22,102.09 C15.34,102.09 13.432,103.926 13.432,106.68 C13.432,109.434 15.34,111.27 18.22,111.27 Z M34.024,111.27 C34.42,111.27 34.798,111.198 35.248,111.054 C35.41,111 35.482,110.892 35.464,110.73 L35.32,109.488 C35.302,109.308 35.176,109.236 34.996,109.272 C34.708,109.326 34.546,109.344 34.33,109.344 C33.952,109.344 33.7,109.074 33.7,108.678 L33.7,102.63 C33.7,102.468 33.592,102.36 33.43,102.36 L31.774,102.36 C31.612,102.36 31.504,102.468 31.504,102.63 L31.504,102.882 C30.73,102.324 29.848,102.09 28.966,102.09 C26.176,102.09 24.196,103.998 24.196,106.68 C24.196,109.362 26.176,111.27 28.966,111.27 C30.118,111.27 31.054,110.928 31.936,110.154 C32.278,110.856 33.034,111.27 34.024,111.27 Z M28.984,109.47 C27.472,109.47 26.392,108.318 26.392,106.68 C26.392,105.042 27.472,103.89 28.984,103.89 C30.46,103.89 31.504,105.042 31.504,106.68 C31.504,108.318 30.46,109.47 28.984,109.47 Z M46.642,111.27 C47.038,111.27 47.416,111.198 47.866,111.054 C48.028,111 48.1,110.892 48.082,110.73 L47.938,109.488 C47.92,109.308 47.794,109.236 47.614,109.272 C47.326,109.326 47.164,109.344 46.948,109.344 C46.57,109.344 46.318,109.074 46.318,108.678 L46.318,97.95 C46.318,97.788 46.21,97.68 46.048,97.68 L44.374,97.68 C44.212,97.68 44.104,97.788 44.104,97.95 L44.104,102.864 C43.33,102.324 42.466,102.09 41.584,102.09 C38.794,102.09 36.814,103.998 36.814,106.68 C36.814,109.362 38.794,111.27 41.584,111.27 C42.736,111.27 43.672,110.928 44.554,110.154 C44.896,110.856 45.652,111.27 46.642,111.27 Z M41.602,109.47 C40.09,109.47 39.01,108.318 39.01,106.68 C39.01,105.042 40.09,103.89 41.602,103.89 C43.078,103.89 44.122,105.042 44.122,106.68 C44.122,108.318 43.078,109.47 41.602,109.47 Z M54.22,111.27 C56.11,111.27 57.712,110.388 58.324,109.02 C58.414,108.84 58.306,108.714 58.108,108.714 L56.326,108.714 C56.182,108.714 56.092,108.768 55.984,108.876 C55.66,109.254 55.012,109.506 54.274,109.506 C52.978,109.506 51.97,108.75 51.646,107.562 L58.288,107.562 C58.45,107.562 58.558,107.49 58.594,107.328 C58.612,107.094 58.63,106.842 58.63,106.608 C58.63,103.89 56.812,102.09 54.094,102.09 C51.304,102.09 49.432,103.926 49.432,106.68 C49.432,109.434 51.358,111.27 54.22,111.27 Z M56.398,106.014 L51.592,106.014 C51.772,104.718 52.798,103.854 54.148,103.854 C55.498,103.854 56.362,104.754 56.398,106.014 Z M70.078,111.27 C70.474,111.27 70.852,111.198 71.302,111.054 C71.464,111 71.536,110.892 71.518,110.73 L71.374,109.488 C71.356,109.308 71.23,109.236 71.05,109.272 C70.762,109.326 70.6,109.344 70.384,109.344 C70.006,109.344 69.754,109.074 69.754,108.678 L69.754,102.63 C69.754,102.468 69.646,102.36 69.484,102.36 L67.828,102.36 C67.666,102.36 67.558,102.468 67.558,102.63 L67.558,102.882 C66.784,102.324 65.902,102.09 65.02,102.09 C62.23,102.09 60.25,103.998 60.25,106.68 C60.25,109.362 62.23,111.27 65.02,111.27 C66.172,111.27 67.108,110.928 67.99,110.154 C68.332,110.856 69.088,111.27 70.078,111.27 Z M65.038,109.47 C63.526,109.47 62.446,108.318 62.446,106.68 C62.446,105.042 63.526,103.89 65.038,103.89 C66.514,103.89 67.558,105.042 67.558,106.68 C67.558,108.318 66.514,109.47 65.038,109.47 Z M82.408,111.27 C82.804,111.27 83.182,111.198 83.632,111.054 C83.794,111 83.866,110.892 83.848,110.73 L83.704,109.488 C83.686,109.308 83.56,109.236 83.38,109.272 C83.092,109.326 82.93,109.344 82.714,109.344 C82.336,109.344 82.084,109.074 82.084,108.678 L82.084,102.63 C82.084,102.468 81.976,102.36 81.814,102.36 L80.158,102.36 C79.996,102.36 79.888,102.468 79.888,102.63 L79.888,107.184 C79.888,108.498 78.934,109.38 77.548,109.38 C76.216,109.38 75.334,108.444 75.334,107.058 L75.334,102.63 C75.334,102.468 75.226,102.36 75.064,102.36 L73.408,102.36 C73.246,102.36 73.138,102.468 73.138,102.63 L73.138,107.184 C73.138,109.632 74.722,111.27 77.08,111.27 C78.358,111.27 79.42,110.91 80.176,110.262 C80.572,110.892 81.364,111.27 82.408,111.27 Z M92.398,107.31 C92.56,107.31 92.668,107.202 92.668,107.04 L92.668,105.51 C92.668,105.348 92.56,105.24 92.398,105.24 L86.368,105.24 C86.206,105.24 86.098,105.348 86.098,105.51 L86.098,107.04 C86.098,107.202 86.206,107.31 86.368,107.31 L92.398,107.31 Z M18.499,128 C18.661,128 18.769,127.892 18.769,127.73 L18.769,123.878 L23.089,127.838 C23.215,127.964 23.269,128 23.413,128 L25.609,128 C25.825,128 25.951,127.838 25.771,127.676 L21.379,123.68 L25.195,119.684 C25.375,119.486 25.303,119.36 25.069,119.36 L23.107,119.36 C22.981,119.36 22.873,119.378 22.765,119.504 L18.769,123.68 L18.769,114.95 C18.769,114.788 18.661,114.68 18.499,114.68 L16.843,114.68 C16.681,114.68 16.573,114.788 16.573,114.95 L16.573,127.73 C16.573,127.892 16.681,128 16.843,128 L18.499,128 Z M36.679,128.27 C37.075,128.27 37.453,128.198 37.903,128.054 C38.065,128 38.137,127.892 38.119,127.73 L37.975,126.488 C37.957,126.308 37.831,126.236 37.651,126.272 C37.363,126.326 37.201,126.344 36.985,126.344 C36.607,126.344 36.355,126.074 36.355,125.678 L36.355,119.63 C36.355,119.468 36.247,119.36 36.085,119.36 L34.429,119.36 C34.267,119.36 34.159,119.468 34.159,119.63 L34.159,119.882 C33.385,119.324 32.503,119.09 31.621,119.09 C28.831,119.09 26.851,120.998 26.851,123.68 C26.851,126.362 28.831,128.27 31.621,128.27 C32.773,128.27 33.709,127.928 34.591,127.154 C34.933,127.856 35.689,128.27 36.679,128.27 Z M31.639,126.47 C30.127,126.47 29.047,125.318 29.047,123.68 C29.047,122.042 30.127,120.89 31.639,120.89 C33.115,120.89 34.159,122.042 34.159,123.68 C34.159,125.318 33.115,126.47 31.639,126.47 Z M49.297,128.27 C49.693,128.27 50.071,128.198 50.521,128.054 C50.683,128 50.755,127.892 50.737,127.73 L50.593,126.488 C50.575,126.308 50.449,126.236 50.269,126.272 C49.981,126.326 49.819,126.344 49.603,126.344 C49.225,126.344 48.973,126.074 48.973,125.678 L48.973,119.63 C48.973,119.468 48.865,119.36 48.703,119.36 L47.047,119.36 C46.885,119.36 46.777,119.468 46.777,119.63 L46.777,119.882 C46.003,119.324 45.121,119.09 44.239,119.09 C41.449,119.09 39.469,120.998 39.469,123.68 C39.469,126.362 41.449,128.27 44.239,128.27 C45.391,128.27 46.327,127.928 47.209,127.154 C47.551,127.856 48.307,128.27 49.297,128.27 Z M44.257,126.47 C42.745,126.47 41.665,125.318 41.665,123.68 C41.665,122.042 42.745,120.89 44.257,120.89 C45.733,120.89 46.777,122.042 46.777,123.68 C46.777,125.318 45.733,126.47 44.257,126.47 Z M55.327,128 C55.489,128 55.597,127.892 55.597,127.73 L55.597,123.68 C55.597,122.114 56.677,121.07 58.207,121.07 C58.567,121.07 58.927,121.106 59.233,121.16 C59.413,121.196 59.521,121.124 59.557,120.944 L59.773,119.594 C59.791,119.432 59.737,119.324 59.575,119.27 C59.215,119.162 58.693,119.09 58.225,119.09 C57.019,119.09 55.993,119.558 55.237,120.386 C54.949,119.576 54.175,119.09 53.131,119.09 C52.789,119.09 52.375,119.162 52.033,119.27 C51.871,119.324 51.817,119.432 51.817,119.594 L51.817,120.854 C51.817,121.034 51.961,121.088 52.141,121.07 C52.267,121.052 52.519,121.016 52.645,121.016 C53.167,121.016 53.401,121.232 53.401,121.682 L53.401,127.73 C53.401,127.892 53.509,128 53.671,128 L55.327,128 Z M65.965,128.27 C66.487,128.27 67.261,128.162 67.963,127.982 C68.125,127.928 68.197,127.82 68.179,127.658 L67.963,126.398 C67.927,126.236 67.819,126.146 67.639,126.182 C67.189,126.29 66.649,126.344 66.217,126.344 C65.281,126.344 64.669,125.696 64.669,124.724 L64.669,121.106 L67.729,121.106 C67.891,121.106 67.999,120.998 67.999,120.836 L67.999,119.63 C67.999,119.468 67.891,119.36 67.729,119.36 L64.669,119.36 L64.669,116.966 C64.669,116.804 64.561,116.696 64.399,116.696 L62.743,116.696 C62.581,116.696 62.473,116.804 62.473,116.966 L62.473,119.36 L60.673,119.36 C60.511,119.36 60.403,119.468 60.403,119.63 L60.403,120.836 C60.403,120.998 60.511,121.106 60.673,121.106 L62.473,121.106 L62.473,124.796 C62.473,126.884 63.877,128.27 65.965,128.27 Z M74.317,128.27 C76.207,128.27 77.809,127.388 78.421,126.02 C78.511,125.84 78.403,125.714 78.205,125.714 L76.423,125.714 C76.279,125.714 76.189,125.768 76.081,125.876 C75.757,126.254 75.109,126.506 74.371,126.506 C73.075,126.506 72.067,125.75 71.743,124.562 L78.385,124.562 C78.547,124.562 78.655,124.49 78.691,124.328 C78.709,124.094 78.727,123.842 78.727,123.608 C78.727,120.89 76.909,119.09 74.191,119.09 C71.401,119.09 69.529,120.926 69.529,123.68 C69.529,126.434 71.455,128.27 74.317,128.27 Z M76.495,123.014 L71.689,123.014 C71.869,121.718 72.895,120.854 74.245,120.854 C75.595,120.854 76.459,121.754 76.495,123.014 Z M83.587,128 C83.749,128 83.857,127.892 83.857,127.73 L83.857,123.176 C83.857,121.862 84.811,120.98 86.197,120.98 C87.529,120.98 88.411,121.916 88.411,123.302 L88.411,127.73 C88.411,127.892 88.519,128 88.681,128 L90.337,128 C90.499,128 90.607,127.892 90.607,127.73 L90.607,123.176 C90.607,120.728 89.023,119.09 86.665,119.09 C85.315,119.09 84.199,119.504 83.443,120.224 C83.101,119.522 82.363,119.09 81.391,119.09 C81.049,119.09 80.635,119.144 80.293,119.27 C80.131,119.324 80.077,119.432 80.077,119.594 L80.077,120.854 C80.077,121.034 80.221,121.088 80.401,121.07 C80.527,121.052 80.779,121.016 80.905,121.016 C81.427,121.016 81.661,121.232 81.661,121.682 L81.661,127.73 C81.661,127.892 81.769,128 81.931,128 L83.587,128 Z" id="cadeau-kaarten" fill="#FFFFFF" fill-rule="nonzero"></path>
                <path d="M27.4875,65 C27.7875,65 27.9625,64.825 27.9625,64.525 L27.9625,47.975 C27.9625,47.675 27.7875,47.5 27.4875,47.5 L20.1875,47.5 C19.9125,47.5 19.7875,47.65 19.7875,47.925 L19.7875,50.25 C19.7875,50.55 19.9875,50.675 20.2875,50.675 L24.1375,50.675 L24.1375,64.525 C24.1375,64.825 24.3375,65 24.6375,65 L27.4875,65 Z M45.3875,65 C45.6375,65 45.8125,64.875 45.9125,64.65 L51.1375,53.425 C51.2875,53.1 51.1125,52.875 50.7625,52.875 L47.8125,52.875 C47.5625,52.875 47.3875,53 47.2875,53.225 L43.9875,60.475 L40.7375,53.225 C40.6375,53 40.4625,52.875 40.1875,52.875 L37.2125,52.875 C36.8625,52.875 36.7125,53.1 36.8375,53.425 L42.0625,64.65 C42.1625,64.875 42.3375,65 42.5875,65 L45.3875,65 Z M66.4625,65.4 C67.0625,65.4 67.6625,65.3 68.3375,65.1 C68.6375,65.025 68.7625,64.85 68.7375,64.575 L68.4875,62.5 C68.4625,62.175 68.2625,62.075 67.9625,62.1 C67.6375,62.175 67.4375,62.175 67.1875,62.175 C66.6625,62.175 66.3625,61.85 66.3625,61.2 L66.3625,53.35 C66.3625,53.05 66.1875,52.875 65.8875,52.875 L63.1375,52.875 C62.8375,52.875 62.6625,53.05 62.6625,53.35 L62.6625,53.625 C61.6625,52.85 60.4375,52.475 59.1125,52.475 C55.2375,52.475 52.5375,55.125 52.5375,58.95 C52.5375,62.75 55.2375,65.4 59.1125,65.4 C60.7375,65.4 62.1375,64.9 63.3125,63.875 C63.8375,64.825 64.9375,65.4 66.4625,65.4 Z M59.4375,62.475 C57.5375,62.475 56.2125,61.025 56.2125,58.95 C56.2125,56.85 57.5375,55.4 59.4375,55.4 C61.3125,55.4 62.5875,56.85 62.5875,58.95 C62.5875,61.025 61.3125,62.475 59.4375,62.475 Z M75.3375,65 C75.6375,65 75.8125,64.825 75.8125,64.525 L75.8125,58.375 C75.8125,56.725 76.9375,55.675 78.5875,55.675 C80.1875,55.675 81.2125,56.8 81.2125,58.5 L81.2125,64.525 C81.2125,64.825 81.4125,65 81.7125,65 L84.5125,65 C84.8125,65 84.9875,64.825 84.9875,64.525 L84.9875,58 C84.9875,54.675 82.8125,52.475 79.5375,52.475 C77.7125,52.475 76.1625,53.05 75.1625,54.05 C74.6375,53.075 73.5625,52.475 72.1625,52.475 C71.5875,52.475 70.9375,52.55 70.3625,52.775 C70.0875,52.875 69.9875,53.025 69.9875,53.325 L69.9875,55.375 C69.9875,55.7 70.2125,55.775 70.5375,55.775 C70.6875,55.75 70.9375,55.7 71.0875,55.7 C71.7875,55.7 72.0625,56 72.0625,56.675 L72.0625,64.525 C72.0625,64.825 72.2375,65 72.5375,65 L75.3375,65 Z M25.675,90.4 C26.3,90.4 26.925,90.3 27.6,90.1 C27.9,90.025 28.025,89.85 27.975,89.575 L27.75,87.5 C27.725,87.175 27.525,87.075 27.2,87.1 C26.9,87.175 26.7,87.175 26.45,87.175 C25.925,87.175 25.625,86.85 25.625,86.225 L25.625,71.975 C25.625,71.675 25.45,71.5 25.15,71.5 L22.325,71.5 C22.025,71.5 21.85,71.675 21.85,71.975 L21.85,78.55 C20.825,77.8 19.65,77.475 18.375,77.475 C14.5,77.475 11.8,80.125 11.8,83.95 C11.8,87.75 14.5,90.4 18.375,90.4 C20.05,90.4 21.425,89.875 22.525,88.825 C23.05,89.825 24.2,90.4 25.675,90.4 Z M18.7,87.475 C16.8,87.475 15.475,86.025 15.475,83.95 C15.475,81.85 16.8,80.4 18.7,80.4 C20.575,80.4 21.85,81.85 21.85,83.95 C21.85,86.025 20.575,87.475 18.7,87.475 Z M36.475,90.4 C39.3,90.4 41.55,89.125 42.4,87.05 C42.525,86.75 42.35,86.55 42,86.55 L39.2,86.55 C38.95,86.55 38.8,86.65 38.6,86.8 C38.175,87.275 37.425,87.55 36.55,87.55 C34.9,87.55 33.65,86.625 33.25,85.125 L42.225,85.125 C42.5,85.125 42.7,85 42.75,84.7 C42.75,84.425 42.775,84.125 42.775,83.85 C42.775,80.05 40.3,77.475 36.25,77.475 C32.275,77.475 29.6,80.05 29.6,83.95 C29.6,87.825 32.375,90.4 36.475,90.4 Z M39.2,82.9 L33.225,82.9 C33.45,81.325 34.7,80.25 36.35,80.25 C38.025,80.25 39.125,81.35 39.2,82.9 Z M57.975,90 C58.275,90 58.45,89.825 58.45,89.525 L58.45,72.975 C58.45,72.675 58.275,72.5 57.975,72.5 L50.675,72.5 C50.4,72.5 50.275,72.65 50.275,72.925 L50.275,75.25 C50.275,75.55 50.475,75.675 50.775,75.675 L54.625,75.675 L54.625,89.525 C54.625,89.825 54.825,90 55.125,90 L57.975,90 Z M69.2,90.4 C73.675,90.4 76.675,87.6 76.675,83.375 L76.675,79.125 C76.675,74.9 73.675,72.1 69.2,72.1 C64.7,72.1 61.725,74.9 61.725,79.125 L61.725,83.375 C61.725,87.6 64.7,90.4 69.2,90.4 Z M69.2,87.175 C66.95,87.175 65.45,85.65 65.45,83.375 L65.45,79.125 C65.45,76.85 66.95,75.325 69.2,75.325 C71.425,75.325 72.925,76.85 72.925,79.125 L72.925,83.375 C72.925,85.65 71.425,87.175 69.2,87.175 Z M86.525,90.4 C91,90.4 94,87.6 94,83.375 L94,79.125 C94,74.9 91,72.1 86.525,72.1 C82.025,72.1 79.05,74.9 79.05,79.125 L79.05,83.375 C79.05,87.6 82.025,90.4 86.525,90.4 Z M86.525,87.175 C84.275,87.175 82.775,85.65 82.775,83.375 L82.775,79.125 C82.775,76.85 84.275,75.325 86.525,75.325 C88.75,75.325 90.25,76.85 90.25,79.125 L90.25,83.375 C90.25,85.65 88.75,87.175 86.525,87.175 Z" id="1vande100" fill="#FFFFFF" fill-rule="nonzero"></path>
            </g>
        </g>
    </g>
</svg>