<?xml version="1.0" encoding="UTF-8"?>
<svg width="113px" height="160px" viewBox="0 0 113 160" version="1.1" xmlns="http://www.w3.org/2000/svg" xmlns:xlink="http://www.w3.org/1999/xlink">
    <title>Text Copy</title>
    <defs>
        <rect id="path-1" x="0" y="0" width="105.743004" height="33.7155033" rx="16.8577516"></rect>
        <filter x="-4.3%" y="-13.3%" width="108.5%" height="126.7%" filterUnits="objectBoundingBox" id="filter-2">
            <feOffset dx="0" dy="0" in="SourceAlpha" result="shadowOffsetOuter1"></feOffset>
            <feGaussianBlur stdDeviation="1.5" in="shadowOffsetOuter1" result="shadowBlurOuter1"></feGaussianBlur>
            <feColorMatrix values="0 0 0 0 0   0 0 0 0 0.368045807   0 0 0 0 0.361608624  0 0 0 0.5 0" type="matrix" in="shadowBlurOuter1"></feColorMatrix>
        </filter>
    </defs>
    <g id="HTML5-banners" stroke="none" stroke-width="1" fill="none" fill-rule="evenodd">
        <g id="160x600px_2" transform="translate(-24.000000, -228.000000)">
            <g id="Text-Copy" transform="translate(27.000000, 231.000000)">
                <g id="Button-Copy" transform="translate(0.628498, 0.000000)">
                    <g id="Group" transform="translate(0.000000, 0.143449)">
                        <g id="Rectangle">
                            <use fill="black" fill-opacity="1" filter="url(#filter-2)" xlink:href="#path-1"></use>
                            <use fill="#F78E1E" fill-rule="evenodd" xlink:href="#path-1"></use>
                        </g>
                        <path d="M22.3808522,23.3685852 C22.6800211,23.3685852 22.8704014,23.178205 22.8704014,22.8790361 L22.8704014,18.7450658 L27.4939207,18.7450658 C27.7930896,18.7450658 27.9834698,18.5546856 27.9834698,18.2283195 L27.9834698,16.1341372 C27.9834698,15.8077712 27.7930896,15.617391 27.4939207,15.617391 L22.8704014,15.617391 L22.8704014,11.4834207 C22.8704014,11.1842518 22.6800211,10.9938716 22.3808522,10.9938716 L19.9331067,10.9938716 C19.6339378,10.9938716 19.4435576,11.1842518 19.4435576,11.4834207 L19.4435576,15.617391 L14.8200382,15.617391 C14.5208693,15.617391 14.3032919,15.8077712 14.3032919,16.1341372 L14.3032919,18.2283195 C14.3032919,18.5546856 14.5208693,18.7450658 14.8200382,18.7450658 L19.4435576,18.7450658 L19.4435576,22.8790361 C19.4435576,23.178205 19.6339378,23.3685852 19.9331067,23.3685852 L22.3808522,23.3685852 Z M41.3372817,26.0883025 C41.6092534,26.0883025 41.8268308,25.9795138 41.9084223,25.6803449 L46.0151954,13.740786 L50.1763628,25.6803449 C50.2579543,25.9795138 50.4755317,26.0883025 50.7475034,26.0883025 L53.983967,26.0883025 C54.2559387,26.0883025 54.4735161,25.9795138 54.5823048,25.6803449 L60.6744715,7.62142216 C60.756063,7.29505609 60.6200772,7.05028153 60.2393167,7.05028153 L56.7852758,7.05028153 C56.5133041,7.05028153 56.2957267,7.15907023 56.2141352,7.45823913 L52.243348,19.8057556 L47.9189975,7.56702782 C47.8102088,7.26785892 47.6198286,7.15907023 47.3478569,7.15907023 L44.7097311,7.15907023 C44.4105622,7.15907023 44.220182,7.26785892 44.1113933,7.56702782 L39.81424,19.7785584 L35.8434528,7.45823913 C35.7618612,7.15907023 35.5442839,7.05028153 35.2723121,7.05028153 L31.8454684,7.05028153 C31.464708,7.05028153 31.3015249,7.29505609 31.4103136,7.62142216 L37.5024803,25.6803449 C37.5840718,25.9795138 37.8016492,26.0883025 38.0736209,26.0883025 L41.3372817,26.0883025 Z M72.2604671,26.0883025 C72.5868332,26.0883025 72.8044106,25.8979223 72.8044106,25.5715562 L72.8044106,22.9878248 C72.8044106,22.6614587 72.5868332,22.4710785 72.2604671,22.4710785 L69.567947,22.4710785 L69.567947,10.6675055 L72.2604671,10.6675055 C72.5868332,10.6675055 72.8044106,10.4771253 72.8044106,10.1507592 L72.8044106,7.56702782 C72.8044106,7.24066174 72.5868332,7.05028153 72.2604671,7.05028153 L62.6054708,7.05028153 C62.2791047,7.05028153 62.0887245,7.24066174 62.0887245,7.56702782 L62.0887245,10.1507592 C62.0887245,10.4771253 62.2791047,10.6675055 62.6054708,10.6675055 L65.2979909,10.6675055 L65.2979909,22.4710785 L62.6054708,22.4710785 C62.2791047,22.4710785 62.0887245,22.6614587 62.0887245,22.9878248 L62.0887245,25.5715562 C62.0887245,25.8979223 62.2791047,26.0883025 62.6054708,26.0883025 L72.2604671,26.0883025 Z M79.1141547,26.0883025 C79.4405207,26.0883025 79.6309009,25.8979223 79.6309009,25.5715562 L79.6309009,14.4207154 L89.4218831,25.8163308 C89.5850662,26.006711 89.8026436,26.0883025 90.0474181,26.0883025 L92.5767552,26.0883025 C92.8759241,26.0883025 93.0935015,25.8979223 93.0935015,25.5715562 L93.0935015,7.56702782 C93.0935015,7.24066174 92.8759241,7.05028153 92.5767552,7.05028153 L89.3402916,7.05028153 C89.0411227,7.05028153 88.8235453,7.24066174 88.8235453,7.56702782 L88.8235453,18.9898404 L78.9509716,7.32225326 C78.7877886,7.13187305 78.5974084,7.05028153 78.3254366,7.05028153 L75.9048883,7.05028153 C75.5785222,7.05028153 75.3609448,7.24066174 75.3609448,7.56702782 L75.3609448,25.5715562 C75.3609448,25.8979223 75.5785222,26.0883025 75.9048883,26.0883025 L79.1141547,26.0883025 Z" id="+WIN" fill="#FFFFFF" fill-rule="nonzero"></path>
                    </g>
                </g>
                <path d="M9.19440067,134.9329 C12.0976206,134.9329 14.2464606,133.37842 14.7265206,131.00098 C14.7722406,130.77238 14.6579406,130.63522 14.4293406,130.63522 L12.2576406,130.63522 C12.0519006,130.63522 11.9604606,130.72666 11.8918806,130.9324 C11.5718406,131.91538 10.5202807,132.55546 9.19440067,132.55546 C7.2055807,132.55546 5.90256072,131.18386 5.90256072,129.1036 C5.90256072,127.02334 7.2055807,125.65174 9.19440067,125.65174 C10.5202807,125.65174 11.5718406,126.29182 11.8918806,127.2748 C11.9604606,127.48054 12.0519006,127.57198 12.2576406,127.57198 L14.4293406,127.57198 C14.6579406,127.57198 14.7722406,127.43482 14.7265206,127.20622 C14.2464606,124.82878 12.0976206,123.2743 9.19440067,123.2743 C5.53680073,123.2743 3.11364076,125.60602 3.11364076,129.1036 C3.11364076,132.60118 5.53680073,134.9329 9.19440067,134.9329 Z M29.2654804,134.9329 C29.7684004,134.9329 30.2484604,134.84146 30.8199603,134.65858 C31.0257003,134.59 31.1171403,134.45284 31.0942803,134.2471 L30.9114003,132.66976 C30.8885403,132.44116 30.7285203,132.34972 30.4999204,132.39544 C30.1341604,132.46402 29.9284204,132.48688 29.6541004,132.48688 C29.1740404,132.48688 28.8540004,132.14398 28.8540004,131.64106 L28.8540004,123.9601 C28.8540004,123.75436 28.7168404,123.6172 28.5111004,123.6172 L26.4079804,123.6172 C26.2022404,123.6172 26.0650804,123.75436 26.0650804,123.9601 L26.0650804,124.28014 C25.0821004,123.57148 23.9619605,123.2743 22.8418205,123.2743 C19.2985205,123.2743 16.7839206,125.69746 16.7839206,129.1036 C16.7839206,132.50974 19.2985205,134.9329 22.8418205,134.9329 C24.3048604,134.9329 25.4935804,134.49856 26.6137204,133.51558 C27.0480604,134.40712 28.0081804,134.9329 29.2654804,134.9329 Z M22.8646805,132.6469 C20.9444405,132.6469 19.5728405,131.18386 19.5728405,129.1036 C19.5728405,127.02334 20.9444405,125.5603 22.8646805,125.5603 C24.7392004,125.5603 26.0650804,127.02334 26.0650804,129.1036 C26.0650804,131.18386 24.7392004,132.6469 22.8646805,132.6469 Z M45.2903401,134.9329 C45.7932601,134.9329 46.2733201,134.84146 46.8448201,134.65858 C47.0505601,134.59 47.1420001,134.45284 47.1191401,134.2471 L46.9362601,132.66976 C46.9134001,132.44116 46.7533801,132.34972 46.5247801,132.39544 C46.1590201,132.46402 45.9532801,132.48688 45.6789601,132.48688 C45.1989001,132.48688 44.8788601,132.14398 44.8788601,131.64106 L44.8788601,118.0165 C44.8788601,117.81076 44.7417001,117.6736 44.5359601,117.6736 L42.4099802,117.6736 C42.2042402,117.6736 42.0670802,117.81076 42.0670802,118.0165 L42.0670802,124.25728 C41.0841002,123.57148 39.9868202,123.2743 38.8666802,123.2743 C35.3233803,123.2743 32.8087803,125.69746 32.8087803,129.1036 C32.8087803,132.50974 35.3233803,134.9329 38.8666802,134.9329 C40.3297202,134.9329 41.5184402,134.49856 42.6385802,133.51558 C43.0729202,134.40712 44.0330401,134.9329 45.2903401,134.9329 Z M38.8895402,132.6469 C36.9693003,132.6469 35.5977003,131.18386 35.5977003,129.1036 C35.5977003,127.02334 36.9693003,125.5603 38.8895402,125.5603 C40.7640602,125.5603 42.0899402,127.02334 42.0899402,129.1036 C42.0899402,131.18386 40.7640602,132.6469 38.8895402,132.6469 Z M54.9144,134.9329 C57.3147,134.9329 59.3492399,133.81276 60.1264799,132.0754 C60.2407799,131.8468 60.1036199,131.68678 59.8521599,131.68678 L57.5890199,131.68678 C57.4061399,131.68678 57.29184,131.75536 57.15468,131.89252 C56.7432,132.37258 55.92024,132.69262 54.98298,132.69262 C53.33706,132.69262 52.0569,131.7325 51.64542,130.22374 L60.0807599,130.22374 C60.2864999,130.22374 60.4236599,130.1323 60.4693799,129.92656 C60.4922399,129.62938 60.5150999,129.30934 60.5150999,129.01216 C60.5150999,125.5603 58.2062399,123.2743 54.75438,123.2743 C51.21108,123.2743 48.8336401,125.60602 48.8336401,129.1036 C48.8336401,132.60118 51.27966,134.9329 54.9144,134.9329 Z M57.6804599,128.25778 L51.57684,128.25778 C51.80544,126.61186 53.10846,125.51458 54.82296,125.51458 C56.53746,125.51458 57.6347399,126.65758 57.6804599,128.25778 Z M75.0540597,134.9329 C75.5569797,134.9329 76.0370397,134.84146 76.6085397,134.65858 C76.8142797,134.59 76.9057197,134.45284 76.8828597,134.2471 L76.6999797,132.66976 C76.6771197,132.44116 76.5170997,132.34972 76.2884997,132.39544 C75.9227397,132.46402 75.7169997,132.48688 75.4426797,132.48688 C74.9626197,132.48688 74.6425797,132.14398 74.6425797,131.64106 L74.6425797,123.9601 C74.6425797,123.75436 74.5054197,123.6172 74.2996797,123.6172 L72.1965597,123.6172 C71.9908197,123.6172 71.8536597,123.75436 71.8536597,123.9601 L71.8536597,124.28014 C70.8706797,123.57148 69.7505398,123.2743 68.6303998,123.2743 C65.0870998,123.2743 62.5724999,125.69746 62.5724999,129.1036 C62.5724999,132.50974 65.0870998,134.9329 68.6303998,134.9329 C70.0934398,134.9329 71.2821597,134.49856 72.4022997,133.51558 C72.8366397,134.40712 73.7967597,134.9329 75.0540597,134.9329 Z M68.6532598,132.6469 C66.7330198,132.6469 65.3614198,131.18386 65.3614198,129.1036 C65.3614198,127.02334 66.7330198,125.5603 68.6532598,125.5603 C70.5277798,125.5603 71.8536597,127.02334 71.8536597,129.1036 C71.8536597,131.18386 70.5277798,132.6469 68.6532598,132.6469 Z M90.7131594,134.9329 C91.2160794,134.9329 91.6961394,134.84146 92.2676394,134.65858 C92.4733794,134.59 92.5648194,134.45284 92.5419594,134.2471 L92.3590794,132.66976 C92.3362194,132.44116 92.1761994,132.34972 91.9475994,132.39544 C91.5818394,132.46402 91.3760994,132.48688 91.1017794,132.48688 C90.6217194,132.48688 90.3016795,132.14398 90.3016795,131.64106 L90.3016795,123.9601 C90.3016795,123.75436 90.1645195,123.6172 89.9587795,123.6172 L87.8556595,123.6172 C87.6499195,123.6172 87.5127595,123.75436 87.5127595,123.9601 L87.5127595,129.74368 C87.5127595,131.41246 86.3011795,132.5326 84.5409595,132.5326 C82.8493196,132.5326 81.7291796,131.34388 81.7291796,129.58366 L81.7291796,123.9601 C81.7291796,123.75436 81.5920196,123.6172 81.3862796,123.6172 L79.2831596,123.6172 C79.0774196,123.6172 78.9402596,123.75436 78.9402596,123.9601 L78.9402596,129.74368 C78.9402596,132.85264 80.9519396,134.9329 83.9465996,134.9329 C85.5696595,134.9329 86.9183995,134.4757 87.8785195,133.65274 C88.3814395,134.45284 89.3872795,134.9329 90.7131594,134.9329 Z M103.400459,129.9037 C103.606199,129.9037 103.743359,129.76654 103.743359,129.5608 L103.743359,127.6177 C103.743359,127.41196 103.606199,127.2748 103.400459,127.2748 L95.7423594,127.2748 C95.5366194,127.2748 95.3994594,127.41196 95.3994594,127.6177 L95.3994594,129.5608 C95.3994594,129.76654 95.5366194,129.9037 95.7423594,129.9037 L103.400459,129.9037 Z M9.54873067,156.179999 C9.75447066,156.179999 9.89163066,156.042839 9.89163066,155.837099 L9.89163066,150.945059 L15.3780306,155.974259 C15.5380506,156.134279 15.6066306,156.179999 15.7895106,156.179999 L18.5784305,156.179999 C18.8527505,156.179999 19.0127705,155.974259 18.7841705,155.768519 L13.2063306,150.693599 L18.0526505,145.61868 C18.2812505,145.36722 18.1898105,145.2072 17.8926305,145.2072 L15.4008906,145.2072 C15.2408706,145.2072 15.1037106,145.23006 14.9665506,145.39008 L9.89163066,150.693599 L9.89163066,139.6065 C9.89163066,139.40076 9.75447066,139.2636 9.54873067,139.2636 L7.4456107,139.2636 C7.2398707,139.2636 7.1027107,139.40076 7.1027107,139.6065 L7.1027107,155.837099 C7.1027107,156.042839 7.2398707,156.179999 7.4456107,156.179999 L9.54873067,156.179999 Z M32.6373303,156.522899 C33.1402503,156.522899 33.6203103,156.431459 34.1918103,156.248579 C34.3975503,156.179999 34.4889903,156.042839 34.4661303,155.837099 L34.2832503,154.259759 C34.2603903,154.031159 34.1003703,153.939719 33.8717703,153.985439 C33.5060103,154.054019 33.3002703,154.076879 33.0259503,154.076879 C32.5458903,154.076879 32.2258503,153.733979 32.2258503,153.231059 L32.2258503,145.5501 C32.2258503,145.34436 32.0886903,145.2072 31.8829503,145.2072 L29.7798304,145.2072 C29.5740904,145.2072 29.4369304,145.34436 29.4369304,145.5501 L29.4369304,145.87014 C28.4539504,145.16148 27.3338104,144.8643 26.2136704,144.8643 C22.6703705,144.8643 20.1557705,147.287459 20.1557705,150.693599 C20.1557705,154.099739 22.6703705,156.522899 26.2136704,156.522899 C27.6767104,156.522899 28.8654304,156.088559 29.9855704,155.105579 C30.4199104,155.997119 31.3800303,156.522899 32.6373303,156.522899 Z M26.2365304,154.236899 C24.3162904,154.236899 22.9446905,152.773859 22.9446905,150.693599 C22.9446905,148.613339 24.3162904,147.150299 26.2365304,147.150299 C28.1110504,147.150299 29.4369304,148.613339 29.4369304,150.693599 C29.4369304,152.773859 28.1110504,154.236899 26.2365304,154.236899 Z M48.6621901,156.522899 C49.1651101,156.522899 49.6451701,156.431459 50.2166701,156.248579 C50.4224101,156.179999 50.5138501,156.042839 50.4909901,155.837099 L50.3081101,154.259759 C50.2852501,154.031159 50.1252301,153.939719 49.8966301,153.985439 C49.5308701,154.054019 49.3251301,154.076879 49.0508101,154.076879 C48.5707501,154.076879 48.2507101,153.733979 48.2507101,153.231059 L48.2507101,145.5501 C48.2507101,145.34436 48.1135501,145.2072 47.9078101,145.2072 L45.8046901,145.2072 C45.5989501,145.2072 45.4617901,145.34436 45.4617901,145.5501 L45.4617901,145.87014 C44.4788101,145.16148 43.3586702,144.8643 42.2385302,144.8643 C38.6952302,144.8643 36.1806303,147.287459 36.1806303,150.693599 C36.1806303,154.099739 38.6952302,156.522899 42.2385302,156.522899 C43.7015702,156.522899 44.8902901,156.088559 46.0104301,155.105579 C46.4447701,155.997119 47.4048901,156.522899 48.6621901,156.522899 Z M42.2613902,154.236899 C40.3411502,154.236899 38.9695502,152.773859 38.9695502,150.693599 C38.9695502,148.613339 40.3411502,147.150299 42.2613902,147.150299 C44.1359101,147.150299 45.4617901,148.613339 45.4617901,150.693599 C45.4617901,152.773859 44.1359101,154.236899 42.2613902,154.236899 Z M56.32029,156.179999 C56.52603,156.179999 56.66319,156.042839 56.66319,155.837099 L56.66319,150.693599 C56.66319,148.704779 58.0347899,147.378899 59.9778899,147.378899 C60.4350899,147.378899 60.8922899,147.424619 61.2809099,147.493199 C61.5095099,147.538919 61.6466699,147.447479 61.6923899,147.218879 L61.9667099,145.50438 C61.9895699,145.29864 61.9209899,145.16148 61.7152499,145.0929 C61.2580499,144.95574 60.5951099,144.8643 60.0007499,144.8643 C58.4691299,144.8643 57.16611,145.45866 56.20599,146.510219 C55.84023,145.48152 54.85725,144.8643 53.53137,144.8643 C53.09703,144.8643 52.57125,144.95574 52.13691,145.0929 C51.93117,145.16148 51.86259,145.29864 51.86259,145.50438 L51.86259,147.104579 C51.86259,147.333179 52.04547,147.401759 52.27407,147.378899 C52.43409,147.356039 52.75413,147.310319 52.91415,147.310319 C53.57709,147.310319 53.87427,147.584639 53.87427,148.156139 L53.87427,155.837099 C53.87427,156.042839 54.01143,156.179999 54.21717,156.179999 L56.32029,156.179999 Z M69.8305498,156.522899 C70.4934898,156.522899 71.4764697,156.385739 72.3680097,156.157139 C72.5737497,156.088559 72.6651897,155.951399 72.6423297,155.745659 L72.3680097,154.145459 C72.3222897,153.939719 72.1851297,153.825419 71.9565297,153.871139 C71.3850297,154.008299 70.6992297,154.076879 70.1505898,154.076879 C68.9618698,154.076879 68.1846298,153.253919 68.1846298,152.019479 L68.1846298,147.424619 L72.0708297,147.424619 C72.2765697,147.424619 72.4137297,147.287459 72.4137297,147.081719 L72.4137297,145.5501 C72.4137297,145.34436 72.2765697,145.2072 72.0708297,145.2072 L68.1846298,145.2072 L68.1846298,142.16682 C68.1846298,141.96108 68.0474698,141.82392 67.8417298,141.82392 L65.7386098,141.82392 C65.5328698,141.82392 65.3957098,141.96108 65.3957098,142.16682 L65.3957098,145.2072 L63.1097099,145.2072 C62.9039699,145.2072 62.7668099,145.34436 62.7668099,145.5501 L62.7668099,147.081719 C62.7668099,147.287459 62.9039699,147.424619 63.1097099,147.424619 L65.3957098,147.424619 L65.3957098,152.110919 C65.3957098,154.762679 67.1787898,156.522899 69.8305498,156.522899 Z M80.4375896,156.522899 C82.8378896,156.522899 84.8724295,155.402759 85.6496695,153.665399 C85.7639695,153.436799 85.6268095,153.276779 85.3753495,153.276779 L83.1122096,153.276779 C82.9293296,153.276779 82.8150296,153.345359 82.6778696,153.482519 C82.2663896,153.962579 81.4434296,154.282619 80.5061696,154.282619 C78.8602496,154.282619 77.5800896,153.322499 77.1686097,151.813739 L85.6039495,151.813739 C85.8096895,151.813739 85.9468495,151.722299 85.9925695,151.516559 C86.0154295,151.219379 86.0382895,150.899339 86.0382895,150.602159 C86.0382895,147.150299 83.7294296,144.8643 80.2775696,144.8643 C76.7342697,144.8643 74.3568297,147.196019 74.3568297,150.693599 C74.3568297,154.191179 76.8028497,156.522899 80.4375896,156.522899 Z M83.2036496,149.847779 L77.1000297,149.847779 C77.3286296,148.201859 78.6316496,147.104579 80.3461496,147.104579 C82.0606496,147.104579 83.1579296,148.247579 83.2036496,149.847779 Z M92.2104894,156.179999 C92.4162294,156.179999 92.5533894,156.042839 92.5533894,155.837099 L92.5533894,150.053519 C92.5533894,148.384739 93.7649694,147.264599 95.5251894,147.264599 C97.2168294,147.264599 98.3369693,148.453319 98.3369693,150.213539 L98.3369693,155.837099 C98.3369693,156.042839 98.4741293,156.179999 98.6798693,156.179999 L100.782989,156.179999 C100.988729,156.179999 101.125889,156.042839 101.125889,155.837099 L101.125889,150.053519 C101.125889,146.944559 99.1142093,144.8643 96.1195494,144.8643 C94.4050494,144.8643 92.9877294,145.39008 92.0276094,146.304479 C91.5932694,145.41294 90.6560094,144.8643 89.4215695,144.8643 C88.9872295,144.8643 88.4614495,144.93288 88.0271095,145.0929 C87.8213695,145.16148 87.7527895,145.29864 87.7527895,145.50438 L87.7527895,147.104579 C87.7527895,147.333179 87.9356695,147.401759 88.1642695,147.378899 C88.3242895,147.356039 88.6443295,147.310319 88.8043495,147.310319 C89.4672895,147.310319 89.7644695,147.584639 89.7644695,148.156139 L89.7644695,155.837099 C89.7644695,156.042839 89.9016295,156.179999 90.1073695,156.179999 L92.2104894,156.179999 Z" id="cadeau-kaarten" fill="#FFFFFF" fill-rule="nonzero"></path>
                <path d="M20.5991255,72.7499995 C20.9801255,72.7499995 21.2023755,72.5277495 21.2023755,72.1467495 L21.2023755,51.1282498 C21.2023755,50.7472499 20.9801255,50.5249999 20.5991255,50.5249999 L11.3281256,50.5249999 C10.9788756,50.5249999 10.8201256,50.7154999 10.8201256,51.0647498 L10.8201256,54.0174998 C10.8201256,54.3984998 11.0741256,54.5572498 11.4551256,54.5572498 L16.3446256,54.5572498 L16.3446256,72.1467495 C16.3446256,72.5277495 16.5986255,72.7499995 16.9796255,72.7499995 L20.5991255,72.7499995 Z M43.3321251,72.7499995 C43.6496251,72.7499995 43.8718751,72.5912495 43.9988751,72.3054995 L50.634625,58.0497497 C50.825125,57.6369998 50.602875,57.3512498 50.158375,57.3512498 L46.4118751,57.3512498 C46.0943751,57.3512498 45.8721251,57.5099998 45.7451251,57.7957497 L41.5541252,67.0032496 L37.4266252,57.7957497 C37.2996252,57.5099998 37.0773752,57.3512498 36.7281252,57.3512498 L32.9498753,57.3512498 C32.5053753,57.3512498 32.3148753,57.6369998 32.4736253,58.0497497 L39.1093752,72.3054995 C39.2363752,72.5912495 39.4586252,72.7499995 39.7761252,72.7499995 L43.3321251,72.7499995 Z M70.0973747,73.2579995 C70.8593747,73.2579995 71.6213747,73.1309995 72.4786247,72.8769995 C72.8596247,72.7817495 73.0183747,72.5594995 72.9866247,72.2102495 L72.6691247,69.5749996 C72.6373747,69.1622496 72.3833747,69.0352496 72.0023747,69.0669996 C71.5896247,69.1622496 71.3356247,69.1622496 71.0181247,69.1622496 C70.3513747,69.1622496 69.9703747,68.7494996 69.9703747,67.9239996 L69.9703747,57.9544997 C69.9703747,57.5734998 69.7481247,57.3512498 69.3671248,57.3512498 L65.8746248,57.3512498 C65.4936248,57.3512498 65.2713748,57.5734998 65.2713748,57.9544997 L65.2713748,58.3037497 C64.0013748,57.3194998 62.4456249,56.8432498 60.7628749,56.8432498 C55.841625,56.8432498 52.412625,60.2087497 52.412625,65.0664996 C52.412625,69.8924996 55.841625,73.2579995 60.7628749,73.2579995 C62.8266249,73.2579995 64.6046248,72.6229995 66.0968748,71.3212495 C66.7636248,72.5277495 68.1606248,73.2579995 70.0973747,73.2579995 Z M61.1756249,69.5432496 C58.7626249,69.5432496 57.0798749,67.7017496 57.0798749,65.0664996 C57.0798749,62.3994997 58.7626249,60.5579997 61.1756249,60.5579997 C63.5568748,60.5579997 65.1761248,62.3994997 65.1761248,65.0664996 C65.1761248,67.7017496 63.5568748,69.5432496 61.1756249,69.5432496 Z M81.3686246,72.7499995 C81.7496246,72.7499995 81.9718746,72.5277495 81.9718746,72.1467495 L81.9718746,64.3362496 C81.9718746,62.2407497 83.4006245,60.9072497 85.4961245,60.9072497 C87.5281245,60.9072497 88.8298745,62.3359997 88.8298745,64.4949996 L88.8298745,72.1467495 C88.8298745,72.5277495 89.0838745,72.7499995 89.4648745,72.7499995 L93.0208744,72.7499995 C93.4018744,72.7499995 93.6241244,72.5277495 93.6241244,72.1467495 L93.6241244,63.8599997 C93.6241244,59.6372497 90.8618744,56.8432498 86.7026245,56.8432498 C84.3848745,56.8432498 82.4163746,57.5734998 81.1463746,58.8434997 C80.4796246,57.6052498 79.1143746,56.8432498 77.3363746,56.8432498 C76.6061246,56.8432498 75.7806247,56.9384998 75.0503747,57.2242498 C74.7011247,57.3512498 74.5741247,57.5417498 74.5741247,57.9227497 L74.5741247,60.5262497 C74.5741247,60.9389997 74.8598747,61.0342497 75.2726247,61.0342497 C75.4631247,61.0024997 75.7806247,60.9389997 75.9711247,60.9389997 C76.8601246,60.9389997 77.2093746,61.3199997 77.2093746,62.1772497 L77.2093746,72.1467495 C77.2093746,72.5277495 77.4316246,72.7499995 77.8126246,72.7499995 L81.3686246,72.7499995 Z M18.2972505,105.007999 C19.0910005,105.007999 19.8847505,104.880999 20.7420005,104.626999 C21.1230005,104.531749 21.2817505,104.309499 21.2182505,103.960249 L20.9325005,101.324999 C20.9007505,100.912249 20.6467505,100.785249 20.2340005,100.816999 C19.8530005,100.912249 19.5990005,100.912249 19.2815005,100.912249 C18.6147505,100.912249 18.2337505,100.499499 18.2337505,99.7057491 L18.2337505,81.6082494 C18.2337505,81.2272494 18.0115005,81.0049994 17.6305005,81.0049994 L14.0427506,81.0049994 C13.6617506,81.0049994 13.4395006,81.2272494 13.4395006,81.6082494 L13.4395006,89.9584993 C12.1377506,89.0059993 10.6455006,88.5932493 9.02625066,88.5932493 C4.10500073,88.5932493 0.676000786,91.9587492 0.676000786,96.8164992 C0.676000786,101.642499 4.10500073,105.007999 9.02625066,105.007999 C11.1535006,105.007999 12.8997506,104.341249 14.2967506,103.007749 C14.9635006,104.277749 16.4240005,105.007999 18.2972505,105.007999 Z M9.43900065,101.293249 C7.02600069,101.293249 5.34325072,99.4517491 5.34325072,96.8164992 C5.34325072,94.1494992 7.02600069,92.3079992 9.43900065,92.3079992 C11.8202506,92.3079992 13.4395006,94.1494992 13.4395006,96.8164992 C13.4395006,99.4517491 11.8202506,101.293249 9.43900065,101.293249 Z M32.0132503,105.007999 C35.6010003,105.007999 38.4585002,103.388749 39.5380002,100.753499 C39.6967502,100.372499 39.4745002,100.118499 39.0300002,100.118499 L35.4740003,100.118499 C35.1565003,100.118499 34.9660003,100.245499 34.7120003,100.435999 C34.1722503,101.039249 33.2197503,101.388499 32.1085003,101.388499 C30.0130003,101.388499 28.4255004,100.213749 27.9175004,98.3087491 L39.3157502,98.3087491 C39.6650002,98.3087491 39.9190002,98.1499991 39.9825002,97.7689991 C39.9825002,97.4197492 40.0142502,97.0387492 40.0142502,96.6894992 C40.0142502,91.8634992 36.8710002,88.5932493 31.7275003,88.5932493 C26.6792504,88.5932493 23.2820004,91.8634992 23.2820004,96.8164992 C23.2820004,101.737749 26.8062504,105.007999 32.0132503,105.007999 Z M35.4740003,95.4829992 L27.8857504,95.4829992 C28.1715004,93.4827492 29.7590003,92.1174992 31.8545003,92.1174992 C33.9817503,92.1174992 35.3787503,93.5144992 35.4740003,95.4829992 Z M59.3182499,104.499999 C59.6992499,104.499999 59.9214999,104.277749 59.9214999,103.896749 L59.9214999,82.8782494 C59.9214999,82.4972494 59.6992499,82.2749994 59.3182499,82.2749994 L50.04725,82.2749994 C49.698,82.2749994 49.5392501,82.4654994 49.5392501,82.8147494 L49.5392501,85.7674993 C49.5392501,86.1484993 49.79325,86.3072493 50.17425,86.3072493 L55.06375,86.3072493 L55.06375,103.896749 C55.06375,104.277749 55.31775,104.499999 55.69875,104.499999 L59.3182499,104.499999 Z M73.5739997,105.007999 C79.2572496,105.007999 83.0672495,101.451999 83.0672495,96.0862492 L83.0672495,90.6887493 C83.0672495,85.3229993 79.2572496,81.7669994 73.5739997,81.7669994 C67.8589998,81.7669994 64.0807498,85.3229993 64.0807498,90.6887493 L64.0807498,96.0862492 C64.0807498,101.451999 67.8589998,105.007999 73.5739997,105.007999 Z M73.5739997,100.912249 C70.7164997,100.912249 68.8114998,98.9754991 68.8114998,96.0862492 L68.8114998,90.6887493 C68.8114998,87.7994993 70.7164997,85.8627493 73.5739997,85.8627493 C76.3997496,85.8627493 78.3047496,87.7994993 78.3047496,90.6887493 L78.3047496,96.0862492 C78.3047496,98.9754991 76.3997496,100.912249 73.5739997,100.912249 Z M95.5767494,105.007999 C101.259999,105.007999 105.069999,101.451999 105.069999,96.0862492 L105.069999,90.6887493 C105.069999,85.3229993 101.259999,81.7669994 95.5767494,81.7669994 C89.8617494,81.7669994 86.0834995,85.3229993 86.0834995,90.6887493 L86.0834995,96.0862492 C86.0834995,101.451999 89.8617494,105.007999 95.5767494,105.007999 Z M95.5767494,100.912249 C92.7192494,100.912249 90.8142494,98.9754991 90.8142494,96.0862492 L90.8142494,90.6887493 C90.8142494,87.7994993 92.7192494,85.8627493 95.5767494,85.8627493 C98.4024993,85.8627493 100.307499,87.7994993 100.307499,90.6887493 L100.307499,96.0862492 C100.307499,98.9754991 98.4024993,100.912249 95.5767494,100.912249 Z" id="1vande100" fill="#FFFFFF" fill-rule="nonzero"></path>
            </g>
        </g>
    </g>
</svg>