<?xml version="1.0" encoding="UTF-8"?>
<svg width="149px" height="96px" viewBox="0 0 149 96" version="1.1" xmlns="http://www.w3.org/2000/svg" xmlns:xlink="http://www.w3.org/1999/xlink">
    <title>Text Copy</title>
    <defs>
        <rect id="path-1" x="0" y="0" width="143" height="30.9568767" rx="15.4784383"></rect>
        <filter x="-3.1%" y="-14.5%" width="106.3%" height="129.1%" filterUnits="objectBoundingBox" id="filter-2">
            <feOffset dx="0" dy="0" in="SourceAlpha" result="shadowOffsetOuter1"></feOffset>
            <feGaussianBlur stdDeviation="1.5" in="shadowOffsetOuter1" result="shadowBlurOuter1"></feGaussianBlur>
            <feColorMatrix values="0 0 0 0 0   0 0 0 0 0.368045807   0 0 0 0 0.361608624  0 0 0 0.5 0" type="matrix" in="shadowBlurOuter1"></feColorMatrix>
        </filter>
    </defs>
    <g id="Spotlight-Winter-HTML5-Banners" stroke="none" stroke-width="1" fill="none" fill-rule="evenodd">
        <g id="160x600px_2" transform="translate(-6.000000, -297.000000)">
            <g id="Text-Copy" transform="translate(9.000000, 299.890952)">
                <g id="Group" transform="translate(0.000000, 0.130609)">
                    <g id="Rectangle">
                        <use fill="black" fill-opacity="1" filter="url(#filter-2)" xlink:href="#path-1"></use>
                        <use fill="#F78E1E" fill-rule="evenodd" xlink:href="#path-1"></use>
                    </g>
                    <g id="B" transform="translate(13.334684, 6.201211)" fill="#FFFFFF" fill-rule="nonzero">
                        <path d="M5.16917929,15.3826785 L7.41664855,15.3826785 C7.69133924,15.3826785 7.8661424,15.2078753 7.8661424,14.9331846 L7.8661424,11.1374588 L12.1113621,11.1374588 C12.3860528,11.1374588 12.560856,10.9626556 12.560856,10.662993 L12.560856,8.74015822 C12.560856,8.44049565 12.3860528,8.26569249 12.1113621,8.26569249 L7.8661424,8.26569249 L7.8661424,4.46996663 C7.8661424,4.19527595 7.69133924,4.02047278 7.41664855,4.02047278 L5.16917929,4.02047278 C4.8944886,4.02047278 4.71968544,4.19527595 4.71968544,4.46996663 L4.71968544,8.26569249 L0.474465732,8.26569249 C0.199775045,8.26569249 7.10542736e-15,8.44049565 7.10542736e-15,8.74015822 L7.10542736e-15,10.662993 C7.10542736e-15,10.9626556 0.199775045,11.1374588 0.474465732,11.1374588 L4.71968544,11.1374588 L4.71968544,14.9331846 C4.71968544,15.2078753 4.8944886,15.3826785 5.16917929,15.3826785 Z" id="+"></path>
                        <path d="M25.7210371,18.2544447 C31.389654,18.2544447 34.935661,14.6335221 34.935661,8.91496139 C34.935661,8.61529882 34.7608578,8.44049565 34.4861672,8.44049565 L26.0706434,8.44049565 C25.7709808,8.44049565 25.5961776,8.61529882 25.5961776,8.91496139 L25.5961776,11.0375712 C25.5961776,11.3372338 25.7709808,11.512037 26.0706434,11.512037 L30.54061,11.512037 C29.916313,13.4848155 28.0184501,14.8083252 25.7709808,14.8083252 C22.4996645,14.8083252 20.2771671,12.5358841 20.2771671,9.11473643 C20.2771671,5.74353255 22.4746926,3.47109141 25.7709808,3.47109141 C27.9934782,3.47109141 29.7914536,4.49493851 30.5156381,6.09313887 C30.6155257,6.34285768 30.7903288,6.46771708 31.0650195,6.46771708 L34.2614202,6.46771708 C34.5860547,6.46771708 34.7608578,6.26794204 34.6609703,5.94330759 C33.5871795,2.3223849 30.0911162,0 25.7210371,0 C20.077392,0 16.3066381,3.64589457 16.3066381,9.11473643 C16.3066381,14.5835783 20.077392,18.2544447 25.7210371,18.2544447 Z" id="G"></path>
                        <path d="M53.8643465,17.3304852 L49.2445486,11.6368964 C51.5669335,10.7878524 52.9403869,9.01484891 52.9403869,6.29291392 C52.9403869,2.64701935 50.1685082,0.39955009 45.8483728,0.39955009 L38.5565837,0.39955009 C38.2569211,0.39955009 38.0571461,0.574353255 38.0571461,0.874015822 L38.0571461,17.4054008 C38.0571461,17.7050634 38.2569211,17.8798665 38.5565837,17.8798665 L41.5032656,17.8798665 C41.8029282,17.8798665 41.9777313,17.7050634 41.9777313,17.4054008 L41.9777313,12.2112496 L45.0992164,12.2112496 L49.3943799,17.580204 C49.5442112,17.779979 49.7190143,17.8798665 49.9687331,17.8798665 L53.564684,17.8798665 C53.9642341,17.8798665 54.0890935,17.6301477 53.8643465,17.3304852 Z M41.9777313,3.67086645 L45.4987665,3.67086645 C47.6213764,3.67086645 49.0447736,4.66974168 49.0447736,6.29291392 C49.0447736,7.96602992 47.5464607,8.91496139 45.2989915,8.91496139 L41.9777313,8.91496139 L41.9777313,3.67086645 Z" id="R"></path>
                        <path d="M55.3127156,17.8798665 L58.5091163,17.8798665 C58.7588351,17.8798665 58.9586102,17.779979 59.0584977,17.5302602 L60.4069793,14.3088876 L68.2731217,14.3088876 L69.6465751,17.5302602 C69.7464626,17.779979 69.9212658,17.8798665 70.1959565,17.8798665 L73.3673853,17.8798665 C73.6920198,17.8798665 73.8668229,17.6551196 73.7169916,17.3304852 L66.3502868,0.749156419 C66.2503993,0.499437613 66.0755962,0.39955009 65.8009055,0.39955009 L62.8791954,0.39955009 C62.6294766,0.39955009 62.4546735,0.524409493 62.3547859,0.749156419 L54.9381374,17.3304852 C54.813278,17.6551196 54.9631093,17.8798665 55.3127156,17.8798665 Z M61.7304889,11.087515 L64.3275645,4.86951672 L66.9745839,11.087515 L61.7304889,11.087515 Z" id="A"></path>
                        <path d="M90.1235172,0.39955009 L75.2652482,0.39955009 C74.9905575,0.39955009 74.7907825,0.574353255 74.7907825,0.874015822 L74.7907825,3.24634448 C74.7907825,3.54600705 74.9905575,3.72081021 75.2652482,3.72081021 L80.7340901,3.72081021 L80.7340901,17.4054008 C80.7340901,17.7050634 80.9338651,17.8798665 81.2085558,17.8798665 L84.1802096,17.8798665 C84.4549003,17.8798665 84.6546753,17.7050634 84.6546753,17.4054008 L84.6546753,3.72081021 L90.1235172,3.72081021 C90.4231798,3.72081021 90.5979829,3.54600705 90.5979829,3.24634448 L90.5979829,0.874015822 C90.5979829,0.574353255 90.4231798,0.39955009 90.1235172,0.39955009 Z" id="T"></path>
                        <path d="M92.470874,17.8798665 L101.335892,17.8798665 C101.635554,17.8798665 101.835329,17.7050634 101.835329,17.4054008 L101.835329,15.0330721 C101.835329,14.7334096 101.635554,14.5586064 101.335892,14.5586064 L98.8636754,14.5586064 L98.8636754,3.72081021 L101.335892,3.72081021 C101.635554,3.72081021 101.835329,3.54600705 101.835329,3.24634448 L101.835329,0.874015822 C101.835329,0.574353255 101.635554,0.39955009 101.335892,0.39955009 L92.470874,0.39955009 C92.1712114,0.39955009 91.9964083,0.574353255 91.9964083,0.874015822 L91.9964083,3.24634448 C91.9964083,3.54600705 92.1712114,3.72081021 92.470874,3.72081021 L94.9430902,3.72081021 L94.9430902,14.5586064 L92.470874,14.5586064 C92.1712114,14.5586064 91.9964083,14.7334096 91.9964083,15.0330721 L91.9964083,17.4054008 C91.9964083,17.7050634 92.1712114,17.8798665 92.470874,17.8798665 Z" id="I"></path>
                        <path d="M111.574363,18.2544447 C115.91947,18.2544447 118.816208,16.106863 118.816208,12.8355466 C118.816208,5.81844819 108.527793,9.11473643 108.527793,5.16917929 C108.527793,3.89561338 109.751415,3.0965132 111.499447,3.0965132 C113.172563,3.0965132 114.371213,3.82069774 114.745792,5.11923553 C114.870651,5.39392622 115.020482,5.49381374 115.295173,5.49381374 L118.291799,5.49381374 C118.616433,5.49381374 118.816208,5.31901058 118.741292,5.01934801 C118.191911,1.89786293 115.12037,0 111.2747,0 C107.104396,0 104.282574,2.17255362 104.282574,5.4188981 C104.282574,12.7106872 114.670876,9.33948336 114.670876,13.1601811 C114.670876,14.3588314 113.497197,15.1079878 111.67425,15.1079878 C109.526668,15.1079878 107.95344,14.1590563 107.55389,12.7106872 C107.454002,12.4609684 107.304171,12.3111372 107.02948,12.3111372 L104.057827,12.3111372 C103.758164,12.3111372 103.558389,12.4859403 103.608333,12.8105748 C104.082798,16.106863 107.254227,18.2544447 111.574363,18.2544447 Z" id="S"></path>
                    </g>
                </g>
                <g id="cadeau" transform="translate(12.293236, 44.688618)" fill="#FFFFFF" fill-rule="nonzero">
                    <path d="M8.01685276,22.039057 C11.8940943,22.039057 14.7510091,19.9692514 15.3632051,16.7625103 C15.4215095,16.412684 15.2174441,16.1794665 14.8676178,16.1794665 L11.7483333,16.1794665 C11.4276592,16.1794665 11.2818982,16.3543796 11.1361373,16.6459015 C10.7280066,17.8119892 9.53276673,18.5116418 8.01685276,18.5116418 C5.7138296,18.5116418 4.19791562,16.9374235 4.19791562,14.5177915 C4.19791562,12.0981596 5.7138296,10.4947891 8.01685276,10.4947891 C9.53276673,10.4947891 10.7280066,11.2235939 11.1361373,12.3605293 C11.2818982,12.6812034 11.4276592,12.8269644 11.7483333,12.8269644 L14.8676178,12.8269644 C15.2174441,12.8269644 15.4215095,12.6228991 15.3632051,12.2439206 C14.7510091,9.03717947 11.8940943,6.96737385 8.01685276,6.96737385 C3.2067411,6.96737385 0,9.97004961 0,14.5177915 C0,19.0363813 3.2067411,22.039057 8.01685276,22.039057 Z" id="c"></path>
                    <path d="M36.5276964,21.0770347 L36.2361745,18.6574028 C36.2070223,18.2784243 35.9738047,18.1618155 35.6239784,18.1909677 C35.2449999,18.2784243 35.0117824,18.2784243 34.7202605,18.2784243 C34.1080644,18.2784243 33.7582381,17.8994458 33.7582381,17.1414888 L33.7582381,7.98770056 C33.7582381,7.63787426 33.5541728,7.43380892 33.2043465,7.43380892 L29.9976054,7.43380892 C29.6477791,7.43380892 29.4437138,7.63787426 29.4437138,7.98770056 L29.4437138,8.30837467 C28.2776261,7.40465673 26.8491687,6.96737385 25.3041025,6.96737385 C20.7855128,6.96737385 17.6370761,10.0575062 17.6370761,14.5177915 C17.6370761,18.9489247 20.7855128,22.039057 25.3041025,22.039057 C27.198995,22.039057 28.8315177,21.4560132 30.2016707,20.2607733 C30.8138668,21.3685566 32.0965632,22.039057 33.8748469,22.039057 C34.5744995,22.039057 35.2741521,21.9224483 36.0612613,21.6892307 C36.4110876,21.6017742 36.5568486,21.3977088 36.5276964,21.0770347 Z M25.683081,18.6282506 C23.4675144,18.6282506 21.9224483,16.9374235 21.9224483,14.5177915 C21.9224483,12.0690074 23.4675144,10.3781803 25.683081,10.3781803 C27.8694954,10.3781803 29.3562572,12.0690074 29.3562572,14.5177915 C29.3562572,16.9374235 27.8694954,18.6282506 25.683081,18.6282506 Z" id="a"></path>
                    <path d="M57.2549048,21.0770347 L56.992535,18.6574028 C56.9633828,18.2784243 56.7301653,18.1618155 56.3511868,18.1909677 C56.0013605,18.2784243 55.768143,18.2784243 55.4766211,18.2784243 C54.864425,18.2784243 54.5145987,17.8994458 54.5145987,17.170641 L54.5145987,0.553891645 C54.5145987,0.204065343 54.3105334,0 53.9607071,0 L50.6665094,0 C50.3166831,0 50.1126178,0.204065343 50.1126178,0.553891645 L50.1126178,8.2209181 C48.9173779,7.34635234 47.5472249,6.96737385 46.0604631,6.96737385 C41.5418734,6.96737385 38.3934366,10.0575062 38.3934366,14.5177915 C38.3934366,18.9489247 41.5418734,22.039057 46.0604631,22.039057 C48.01366,22.039057 49.6170305,21.426861 50.8997269,20.2024689 C51.511923,21.3685566 52.8529238,22.039057 54.5729031,22.039057 C55.3017079,22.039057 56.0305127,21.9224483 56.8176219,21.6892307 C57.1674482,21.6017742 57.3132092,21.3977088 57.2549048,21.0770347 Z M46.4394416,18.6282506 C44.223875,18.6282506 42.6788088,16.9374235 42.6788088,14.5177915 C42.6788088,12.0690074 44.223875,10.3781803 46.4394416,10.3781803 C48.625856,10.3781803 50.1126178,12.0690074 50.1126178,14.5177915 C50.1126178,16.9374235 48.625856,18.6282506 46.4394416,18.6282506 Z" id="d"></path>
                    <path d="M67.16665,22.039057 C70.4608477,22.039057 73.0845449,20.5522952 74.0757195,18.1326633 C74.2214804,17.782837 74.0174151,17.5496195 73.6092844,17.5496195 L70.3442389,17.5496195 C70.052717,17.5496195 69.8778038,17.6662283 69.6445863,17.8411414 C69.148999,18.395033 68.2744333,18.7157072 67.2541066,18.7157072 C65.3300619,18.7157072 63.8724523,17.6370761 63.4060172,15.8879446 L73.8716541,15.8879446 C74.1923282,15.8879446 74.4255458,15.7421836 74.4838501,15.3923573 C74.4838501,15.0716832 74.5130023,14.7218569 74.5130023,14.4011828 C74.5130023,9.97004961 71.6269353,6.96737385 66.9042803,6.96737385 C62.2690818,6.96737385 59.1497972,9.97004961 59.1497972,14.5177915 C59.1497972,19.0363813 62.3856905,22.039057 67.16665,22.039057 Z M63.3768651,13.2933995 C63.6392348,11.4568114 65.0968444,10.2032671 67.020889,10.2032671 C68.9740859,10.2032671 70.2567823,11.4859636 70.3442389,13.2933995 L63.3768651,13.2933995 Z" id="e"></path>
                    <path d="M95.7066458,21.0770347 L95.4151239,18.6574028 C95.3859717,18.2784243 95.1527542,18.1618155 94.8029279,18.1909677 C94.4239494,18.2784243 94.1907318,18.2784243 93.8992099,18.2784243 C93.2870139,18.2784243 92.9371876,17.8994458 92.9371876,17.1414888 L92.9371876,7.98770056 C92.9371876,7.63787426 92.7331222,7.43380892 92.3832959,7.43380892 L89.1765548,7.43380892 C88.8267285,7.43380892 88.6226632,7.63787426 88.6226632,7.98770056 L88.6226632,8.30837467 C87.4565755,7.40465673 86.0281181,6.96737385 84.4830519,6.96737385 C79.9644622,6.96737385 76.8160255,10.0575062 76.8160255,14.5177915 C76.8160255,18.9489247 79.9644622,22.039057 84.4830519,22.039057 C86.3779444,22.039057 88.0104672,21.4560132 89.3806202,20.2607733 C89.9928162,21.3685566 91.2755126,22.039057 93.0537963,22.039057 C93.7534489,22.039057 94.4531015,21.9224483 95.2402107,21.6892307 C95.590037,21.6017742 95.735798,21.3977088 95.7066458,21.0770347 Z M84.8620304,18.6282506 C82.6464639,18.6282506 81.1013977,16.9374235 81.1013977,14.5177915 C81.1013977,12.0690074 82.6464639,10.3781803 84.8620304,10.3781803 C87.0484448,10.3781803 88.5352066,12.0690074 88.5352066,14.5177915 C88.5352066,16.9374235 87.0484448,18.6282506 84.8620304,18.6282506 Z" id="a"></path>
                    <path d="M115.821658,21.0770347 L115.559288,18.6574028 C115.500984,18.2784243 115.267767,18.1618155 114.91794,18.1909677 C114.538962,18.2784243 114.305744,18.2784243 114.014222,18.2784243 C113.402026,18.2784243 113.0522,17.8994458 113.0522,17.1414888 L113.0522,7.98770056 C113.0522,7.63787426 112.818982,7.43380892 112.498308,7.43380892 L109.204111,7.43380892 C108.883437,7.43380892 108.650219,7.63787426 108.650219,7.98770056 L108.650219,15.1591398 C108.650219,17.0831844 107.396675,18.3075765 105.443478,18.3075765 C103.577738,18.3075765 102.382498,16.9957278 102.382498,15.0133788 L102.382498,7.98770056 C102.382498,7.63787426 102.178432,7.43380892 101.828606,7.43380892 L98.5635606,7.43380892 C98.2137343,7.43380892 98.009669,7.63787426 98.009669,7.98770056 L98.009669,15.5964226 C98.009669,19.4736641 100.516757,22.039057 104.306542,22.039057 C106.376348,22.039057 108.096327,21.426861 109.262415,20.3482299 C109.932915,21.3977088 111.303068,22.039057 113.168809,22.039057 C113.868461,22.039057 114.568114,21.9224483 115.384375,21.6892307 C115.705049,21.6017742 115.85081,21.3977088 115.821658,21.0770347 Z" id="u"></path>
                </g>
                <g id="t.w.v.-€-10.-" transform="translate(9.588244, 76.924990)" fill="#FFFFFF" fill-rule="nonzero">
                    <path d="M6.48577964,15.322392 C7.09447741,15.322392 7.99702926,15.1964546 8.81562281,14.9865588 C9.00452901,14.92359 9.08848733,14.7976526 9.06749775,14.6087464 L8.81562281,13.1394759 C8.77364366,12.9505697 8.64770619,12.8456218 8.43781041,12.887601 C7.91307095,13.0135384 7.28338361,13.0765072 6.77963373,13.0765072 C5.68817567,13.0765072 4.97453001,12.3208824 4.97453001,11.1874451 L4.97453001,6.96853994 L8.5427583,6.96853994 C8.7316645,6.96853994 8.85760197,6.84260247 8.85760197,6.65369626 L8.85760197,5.24739453 C8.85760197,5.05848833 8.7316645,4.93255086 8.5427583,4.93255086 L4.97453001,4.93255086 L4.97453001,2.14093697 C4.97453001,1.95203077 4.84859255,1.8260933 4.65968634,1.8260933 L2.72864516,1.8260933 C2.53973895,1.8260933 2.41380148,1.95203077 2.41380148,2.14093697 L2.41380148,4.93255086 L0.314843672,4.93255086 C0.125937469,4.93255086 0,5.05848833 0,5.24739453 L0,6.65369626 C0,6.84260247 0.125937469,6.96853994 0.314843672,6.96853994 L2.41380148,6.96853994 L2.41380148,11.2714035 C2.41380148,13.7061945 4.05098858,15.322392 6.48577964,15.322392 Z" id="t"></path>
                    <path d="M11.9220804,15.322392 C12.7616635,15.322392 13.43333,14.6927047 13.43333,13.8951007 C13.43333,13.0974967 12.7616635,12.4678094 11.9220804,12.4678094 C11.1034868,12.4678094 10.4318203,13.0974967 10.4318203,13.8951007 C10.4318203,14.6927047 11.1034868,15.322392 11.9220804,15.322392 Z" id="."></path>
                    <path d="M18.6807245,15.0075484 L20.3808804,15.0075484 C20.548797,15.0075484 20.6747345,14.9445796 20.7377032,14.7556734 L22.836661,8.85760197 L24.9356188,14.7556734 C24.9985875,14.9445796 25.124525,15.0075484 25.2924416,15.0075484 L26.9925975,15.0075484 C27.1605141,15.0075484 27.3074411,14.92359 27.3704099,14.7556734 L31.043586,5.28937369 C31.1275444,5.05848833 31.0225965,4.93255086 30.7917111,4.93255086 L28.6927533,4.93255086 C28.5248367,4.93255086 28.3988992,4.99551959 28.3359305,5.1844258 L26.1320248,11.1664556 L24.0120774,5.1844258 C23.9491086,4.99551959 23.8231712,4.93255086 23.6552545,4.93255086 L22.0180675,4.93255086 C21.8501508,4.93255086 21.7242134,4.99551959 21.6612446,5.1844258 L19.5203077,11.145466 L17.3373915,5.1844258 C17.2744228,4.99551959 17.1484853,4.93255086 16.9805687,4.93255086 L14.8606213,4.93255086 C14.629736,4.93255086 14.5247881,5.05848833 14.6087464,5.28937369 L18.3029121,14.7556734 C18.3658809,14.92359 18.5128079,15.0075484 18.6807245,15.0075484 Z" id="w"></path>
                    <path d="M33.7092625,15.322392 C34.5488456,15.322392 35.2205121,14.6927047 35.2205121,13.8951007 C35.2205121,13.0974967 34.5488456,12.4678094 33.7092625,12.4678094 C32.8906689,12.4678094 32.2190024,13.0974967 32.2190024,13.8951007 C32.2190024,14.6927047 32.8906689,15.322392 33.7092625,15.322392 Z" id="."></path>
                    <path d="M41.3284793,15.0075484 L43.0916039,15.0075484 C43.2595205,15.0075484 43.385458,14.92359 43.4484267,14.776663 L48.0031652,5.31036326 C48.1081131,5.07947791 48.0031652,4.93255086 47.7722798,4.93255086 L45.7362907,4.93255086 C45.5683741,4.93255086 45.4424366,5.01650917 45.3794679,5.16343622 L42.2100416,11.9220804 L39.0825945,5.16343622 C39.0196257,5.01650917 38.8936883,4.93255086 38.7257716,4.93255086 L36.6478034,4.93255086 C36.416918,4.93255086 36.3119702,5.07947791 36.416918,5.31036326 L40.9716565,14.776663 C41.0346252,14.92359 41.1605627,15.0075484 41.3284793,15.0075484 Z" id="v"></path>
                    <path d="M50.6898312,15.322392 C51.5294143,15.322392 52.2010808,14.6927047 52.2010808,13.8951007 C52.2010808,13.0974967 51.5294143,12.4678094 50.6898312,12.4678094 C49.8712376,12.4678094 49.1995711,13.0974967 49.1995711,13.8951007 C49.1995711,14.6927047 49.8712376,15.322392 50.6898312,15.322392 Z" id="."></path>
                    <path d="M75.9822728,9.46629973 L73.8623254,9.46629973 C73.6944088,9.46629973 73.5684713,9.55025805 73.5055026,9.73916425 C72.8548257,11.7121846 71.1756594,12.887601 68.9927433,12.887601 C66.7888376,12.887601 65.1096713,11.8171325 64.3120674,10.0749975 L68.908785,10.0749975 C69.0976912,10.0749975 69.2236286,9.97004961 69.2656078,9.80213298 L69.5594619,8.71067492 C69.6224306,8.47978956 69.5174827,8.35385209 69.307587,8.35385209 L63.8712862,8.35385209 C63.8502966,8.12296673 63.8293071,7.89208137 63.8293071,7.64020644 C63.8293071,7.3883315 63.8502966,7.15744614 63.8712862,6.92656078 L69.7273785,6.92656078 C69.9162847,6.92656078 70.0422222,6.82161289 70.0842014,6.65369626 L70.3780554,5.5622382 C70.4410242,5.33135284 70.3360763,5.20541537 70.1261805,5.20541537 L64.3330569,5.20541537 C65.1096713,3.46328039 66.7888376,2.41380148 68.9927433,2.41380148 C71.196649,2.41380148 72.7708673,3.61020744 73.5055026,5.58322778 C73.5684713,5.75114441 73.6944088,5.83510272 73.8623254,5.83510272 L75.9822728,5.83510272 C76.1921686,5.83510272 76.3181061,5.70916525 76.2761269,5.49926947 C75.6044604,2.16192655 72.6659195,0 68.9927433,0 C65.1516505,0 62.3600366,2.0149995 61.4364952,5.20541537 L59.5474331,5.20541537 C59.3585269,5.20541537 59.2325895,5.33135284 59.2325895,5.52025905 L59.2325895,6.61171711 C59.2325895,6.80062331 59.3585269,6.92656078 59.5474331,6.92656078 L61.1216515,6.92656078 C61.1006619,7.15744614 61.1006619,7.3883315 61.1006619,7.64020644 C61.1006619,7.89208137 61.1006619,8.12296673 61.1216515,8.35385209 L59.5474331,8.35385209 C59.3585269,8.35385209 59.2325895,8.47978956 59.2325895,8.66869576 L59.2325895,9.76015383 C59.2325895,9.94906003 59.3585269,10.0749975 59.5474331,10.0749975 L61.4364952,10.0749975 C62.339047,13.286403 65.1516505,15.3014025 68.9927433,15.3014025 C72.6659195,15.3014025 75.6044604,13.1394759 76.2761269,9.80213298 C76.3181061,9.5922372 76.1921686,9.46629973 75.9822728,9.46629973 Z" id="€"></path>
                    <path d="M89.1217487,0.314843672 L83.2446668,0.314843672 C83.0557606,0.314843672 82.9927919,0.419791562 82.9927919,0.587708187 L82.9927919,2.28786402 C82.9927919,2.4977598 83.1397189,2.56072853 83.3496147,2.56072853 L86.770916,2.56072853 L86.770916,14.6927047 C86.770916,14.8816109 86.8968534,15.0075484 87.0857596,15.0075484 L89.1217487,15.0075484 C89.3106549,15.0075484 89.4365924,14.8816109 89.4365924,14.6927047 L89.4365924,0.629687344 C89.4365924,0.440781141 89.3106549,0.314843672 89.1217487,0.314843672 Z" id="1"></path>
                    <path d="M98.5670589,0 C94.9148723,0 92.4800812,2.28786402 92.4800812,5.73015483 L92.4800812,9.5922372 C92.4800812,13.034528 94.9148723,15.322392 98.5670589,15.322392 C102.219245,15.322392 104.654037,13.034528 104.654037,9.5922372 L104.654037,5.73015483 C104.654037,2.28786402 102.219245,0 98.5670589,0 Z M101.98836,9.5922372 C101.98836,11.6702054 100.624038,13.0555176 98.5670589,13.0555176 C96.5100802,13.0555176 95.1457576,11.6702054 95.1457576,9.5922372 L95.1457576,5.73015483 C95.1457576,3.65218659 96.5100802,2.26687444 98.5670589,2.26687444 C100.624038,2.26687444 101.98836,3.65218659 101.98836,5.73015483 L101.98836,9.5922372 Z" id="0"></path>
                    <path d="M108.033359,15.322392 C108.872942,15.322392 109.544608,14.6927047 109.544608,13.8951007 C109.544608,13.0974967 108.872942,12.4678094 108.033359,12.4678094 C107.214765,12.4678094 106.543099,13.0974967 106.543099,13.8951007 C106.543099,14.6927047 107.214765,15.322392 108.033359,15.322392 Z" id="."></path>
                    <path d="M112.588097,10.7046848 L119.619606,10.7046848 C119.808512,10.7046848 119.934449,10.5787474 119.934449,10.3898412 L119.934449,8.60572703 C119.934449,8.41682083 119.808512,8.29088336 119.619606,8.29088336 L112.588097,8.29088336 C112.399191,8.29088336 112.273253,8.41682083 112.273253,8.60572703 L112.273253,10.3898412 C112.273253,10.5787474 112.399191,10.7046848 112.588097,10.7046848 Z" id="-"></path>
                </g>
            </g>
        </g>
    </g>
</svg>